0
SECTION
2
HEADER
9
$INSUNITS
70
4
9
$ACADVER
1
AC1014
9
$HANDSEED
5
FFFF
0
ENDSEC
0
SECTION
2
TABLES
0
TABLE
2
VPORT
5
8
100
AcDbSymbolTable
0
ENDTAB
0
TABLE
2
LTYPE
5
5
100
AcDbSymbolTable
0
LTYPE
5
14
100
AcDbSymbolTableRecord
100
AcDbLinetypeTableRecord
2
BYBLOCK
70
0
0
LTYPE
5
15
100
AcDbSymbolTableRecord
100
AcDbLinetypeTableRecord
2
BYLAYER
70
0
0
ENDTAB
0
TABLE
2
LAYER
5
2
100
AcDbSymbolTable
70
2
0
LAYER
5
50
100
AcDbSymbolTableRecord
100
AcDbLayerTableRecord
2
0
70
0
6
CONTINUOUS
0
ENDTAB
0
TABLE
2
STYLE
5
3
100
AcDbSymbolTable
70
1
0
STYLE
5
11
100
AcDbSymbolTableRecord
100
AcDbTextStyleTableRecord
2
STANDARD
70
0
0
ENDTAB
0
TABLE
2
VIEW
5
6
100
AcDbSymbolTable
70
0
0
ENDTAB
0
TABLE
2
UCS
5
7
100
AcDbSymbolTable
70
0
0
ENDTAB
0
TABLE
2
APPID
5
9
100
AcDbSymbolTable
70
2
0
APPID
5
12
100
AcDbSymbolTableRecord
100
AcDbRegAppTableRecord
2
ACAD
70
0
0
ENDTAB
0
TABLE
2
DIMSTYLE
5
A
100
AcDbSymbolTable
70
1
0
ENDTAB
0
TABLE
2
BLOCK_RECORD
5
1
100
AcDbSymbolTable
70
1
0
BLOCK_RECORD
5
1F
100
AcDbSymbolTableRecord
100
AcDbBlockTableRecord
2
*MODEL_SPACE
0
BLOCK_RECORD
5
1B
100
AcDbSymbolTableRecord
100
AcDbBlockTableRecord
2
*PAPER_SPACE
0
ENDTAB
0
ENDSEC
0
SECTION
2
BLOCKS
0
BLOCK
5
20
100
AcDbEntity
100
AcDbBlockBegin
2
*MODEL_SPACE
0
ENDBLK
5
21
100
AcDbEntity
100
AcDbBlockEnd
0
BLOCK
5
1C
100
AcDbEntity
100
AcDbBlockBegin
2
*PAPER_SPACE
0
ENDBLK
5
1D
100
AcDbEntity
100
AcDbBlockEnd
0
ENDSEC
0
SECTION
2
ENTITIES
0
LWPOLYLINE
5
100
100
AcDbEntity
8
0
100
AcDbPolyline
90
104
70
1
43
0.0
10
-176.10000000000036
20
189.90000000000023
10
-171.85000000000036
20
189.90000000000038
42
0.41421356237309503
10
-170.60000000000045
20
191.15000000000038
10
-170.60000000000036
20
194.1500000000002
42
0.41421356237309503
10
-171.85000000000036
20
195.40000000000015
10
-199.35000000000036
20
195.40000000000049
42
0.41421356237309503
10
-200.60000000000048
20
194.15000000000049
10
-200.60000000000065
20
166.65000000000035
42
0.41421356237309503
10
-199.35000000000053
20
165.40000000000023
10
-196.35000000000053
20
165.40000000000049
42
0.41421356237309503
10
-195.10000000000062
20
166.65000000000035
10
-195.10000000000048
20
170.90000000000046
42
-0.41421356237309503
10
-193.85000000000053
20
172.15000000000038
10
-183.85000000000053
20
172.15000000000038
42
-0.41421356237309503
10
-182.60000000000062
20
170.90000000000046
10
-182.6000000000007
20
166.40000000000043
42
0.41421356237309503
10
-181.60000000000048
20
165.40000000000026
10
-178.10000000000053
20
165.40000000000023
42
-0.41421356237307838
10
-175.60000000000062
20
162.9000000000002
10
-175.60000000000062
20
152.90000000000023
42
-0.41421356237309503
10
-178.10000000000065
20
150.40000000000018
10
-181.60000000000076
20
150.40000000000052
42
0.41421356237309503
10
-182.60000000000073
20
149.40000000000043
10
-182.6000000000009
20
144.9000000000004
42
-0.41421356237309503
10
-183.85000000000082
20
143.65000000000046
10
-193.8500000000007
20
143.65000000000046
42
-0.41421356237309503
10
-195.10000000000062
20
144.9000000000004
10
-195.10000000000082
20
149.15000000000052
42
0.41421356237309503
10
-196.35000000000082
20
150.40000000000043
10
-199.35000000000065
20
150.40000000000052
42
0.41421356237309503
10
-200.60000000000059
20
149.15000000000052
10
-200.60000000000093
20
121.6500000000005
42
0.4142135623730534
10
-199.35000000000113
20
120.4000000000004
10
-171.8500000000011
20
120.40000000000036
42
0.41421356237316165
10
-170.60000000000088
20
121.65000000000022
10
-170.60000000000093
20
124.65000000000019
42
0.41421356237309503
10
-171.85000000000082
20
125.90000000000012
10
-176.10000000000093
20
125.90000000000023
42
-0.41421356237309503
10
-177.35000000000102
20
127.15000000000033
10
-177.35000000000085
20
137.1500000000002
42
-0.41421356237309503
10
-176.10000000000093
20
138.40000000000012
10
-171.60000000000088
20
138.40000000000035
42
0.41421356237309503
10
-170.6000000000009
20
139.40000000000029
10
-170.6000000000007
20
142.90000000000038
42
-0.41421356237309503
10
-168.10000000000065
20
145.4000000000004
10
-158.10000000000082
20
145.40000000000026
42
-0.41421356237309503
10
-155.60000000000076
20
142.90000000000023
10
-155.60000000000093
20
139.40000000000015
42
0.41421356237309503
10
-154.60000000000088
20
138.40000000000015
10
-150.10000000000099
20
138.40000000000015
42
-0.41421356237309503
10
-148.85000000000088
20
137.15000000000006
10
-148.85000000000105
20
127.15000000000005
42
-0.41421356237309503
10
-150.10000000000099
20
125.90000000000012
10
-154.35000000000093
20
125.90000000000019
42
0.41421356237309503
10
-155.60000000000105
20
124.65000000000005
10
-155.60000000000093
20
121.65000000000008
42
0.4142135623730534
10
-154.35000000000113
20
120.40000000000015
10
-126.85000000000109
20
120.39999999999993
42
0.41421356237312834
10
-125.60000000000102
20
121.64999999999993
10
-125.6000000000008
20
149.14999999999995
42
0.41421356237309503
10
-126.8500000000008
20
150.39999999999986
10
-129.85000000000065
20
150.39999999999995
42
0.41421356237309503
10
-131.10000000000056
20
149.14999999999995
10
-131.10000000000085
20
144.89999999999998
42
-0.41421356237309503
10
-132.35000000000076
20
143.65000000000003
10
-142.35000000000065
20
143.65000000000018
42
-0.41421356237309503
10
-143.60000000000056
20
144.90000000000012
10
-143.60000000000076
20
149.40000000000015
42
0.41421356237309503
10
-144.6000000000007
20
150.40000000000012
10
-148.10000000000082
20
150.40000000000003
42
-0.41421356237309503
10
-150.60000000000085
20
152.90000000000009
10
-150.60000000000085
20
162.90000000000006
42
-0.41421356237311585
10
-148.10000000000062
20
165.40000000000009
10
-144.60000000000059
20
165.40000000000006
42
0.41421356237309503
10
-143.60000000000059
20
166.40000000000015
10
-143.60000000000042
20
170.90000000000003
42
-0.41421356237309503
10
-142.35000000000048
20
172.14999999999998
10
-132.35000000000048
20
172.14999999999981
42
-0.41421356237309503
10
-131.10000000000056
20
170.89999999999989
10
-131.10000000000065
20
166.64999999999992
42
0.41421356237309503
10
-129.85000000000048
20
165.39999999999981
10
-126.85000000000052
20
165.39999999999992
42
0.41421356237309503
10
-125.60000000000059
20
166.64999999999992
10
-125.60000000000052
20
194.14999999999992
42
0.41421356237309503
10
-126.85000000000038
20
195.39999999999986
10
-154.35000000000036
20
195.4000000000002
42
0.41421356237309503
10
-155.60000000000048
20
194.15000000000006
10
-155.60000000000036
20
191.15000000000009
42
0.41421356237309503
10
-154.35000000000036
20
189.90000000000015
10
-150.10000000000042
20
189.90000000000003
42
-0.41421356237309503
10
-148.85000000000048
20
188.65000000000009
10
-148.85000000000045
20
178.65000000000009
42
-0.41421356237309503
10
-150.10000000000053
20
177.39999999999998
10
-154.60000000000059
20
177.40000000000023
42
0.41421356237309503
10
-155.60000000000073
20
176.40000000000001
10
-155.60000000000048
20
172.90000000000006
42
-0.41421356237309503
10
-158.10000000000053
20
170.40000000000003
10
-168.10000000000053
20
170.40000000000018
42
-0.41421356237309503
10
-170.60000000000056
20
172.9000000000002
10
-170.60000000000053
20
176.40000000000015
42
0.41421356237309503
10
-171.60000000000059
20
177.40000000000012
10
-176.10000000000048
20
177.40000000000043
42
-0.41421356237309503
10
-177.35000000000042
20
178.65000000000038
10
-177.35000000000036
20
188.65000000000023
42
-0.41421356237309503
0
LWPOLYLINE
5
101
100
AcDbEntity
8
0
100
AcDbPolyline
90
16
70
1
43
0.0
10
-190.83879733902984
20
177.14329832840718
10
-192.60670167159054
20
177.14329832840554
42
-0.41421356237309503
10
-193.85670167159049
20
178.39329832840548
10
-193.85670167159302
20
180.16120266096937
42
-0.22575541446459585
10
-193.85670167159302
20
185.63879733903164
10
-193.85670167159034
20
187.40670167159038
42
-0.41421356237309503
10
-192.60670167159043
20
188.65670167159033
10
-190.83879733903166
20
188.6567016715932
42
-0.22575541446458897
10
-185.36120266096933
20
188.656701671593
10
-183.59329832841036
20
188.65670167159033
42
-0.41421356237309503
10
-182.34329832841041
20
187.40670167159038
10
-182.34329832840814
20
185.63879733903161
42
-0.22575541446459013
10
-182.34329832840814
20
180.16120266096934
10
-182.34329832841055
20
178.39329832840548
42
-0.41421356237309503
10
-183.59329832841047
20
177.14329832840554
10
-185.36120266097129
20
177.1432983284073
42
-0.22575541446442632
0
LWPOLYLINE
5
102
100
AcDbEntity
8
0
100
AcDbPolyline
90
16
70
1
43
0.0
10
-142.606701671591
20
138.65670167159013
10
-140.83879733903194
20
138.65670167159263
42
-0.2257554144645906
10
-135.36120266096981
20
138.65670167159257
10
-133.59329832841092
20
138.65670167159007
42
-0.41421356237309503
10
-132.34329832841081
20
137.40670167158999
10
-132.34329832840828
20
135.63879733903124
42
-0.22575541446459152
10
-132.34329832840842
20
130.16120266096888
10
-132.34329832841098
20
128.39329832840494
42
-0.41421356237309503
10
-133.59329832841092
20
127.143298328405
10
-135.3612026609718
20
127.14329832840679
42
-0.22575541446441255
10
-140.83879733903015
20
127.14329832840681
10
-142.606701671591
20
127.14329832840514
42
-0.41421356237309503
10
-143.85670167159091
20
128.39329832840508
10
-143.85670167159344
20
130.16120266096897
42
-0.22575541446459549
10
-143.85670167159347
20
135.63879733903138
10
-143.856701671591
20
137.40670167159013
42
-0.41421356237309503
0
LWPOLYLINE
5
103
100
AcDbEntity
8
0
100
AcDbPolyline
90
16
70
1
43
0.0
10
-135.36120266096935
20
188.65670167159251
10
-133.59329832841036
20
188.65670167159007
42
-0.41421356237309503
10
-132.34329832841024
20
187.40670167158996
10
-132.34329832840797
20
185.63879733903121
42
-0.22575541446458897
10
-132.34329832840814
20
180.16120266096888
10
-132.34329832841055
20
178.39329832840491
42
-0.41421356237309503
10
-133.59329832841047
20
177.14329832840497
10
-135.36120266097151
20
177.14329832840676
42
-0.22575541446441255
10
-140.83879733902987
20
177.14329832840679
10
-142.60670167159054
20
177.14329832840514
42
-0.41421356237309503
10
-143.85670167159049
20
178.39329832840505
10
-143.85670167159302
20
180.16120266096902
42
-0.2257554144645984
10
-143.85670167159302
20
185.63879733903136
10
-143.85670167159034
20
187.4067016715901
42
-0.41421356237309503
10
-142.60670167159043
20
188.65670167159004
10
-140.83879733903149
20
188.65670167159271
42
-0.22575541446458874
0
LWPOLYLINE
5
104
100
AcDbEntity
8
0
100
AcDbPolyline
90
16
70
1
43
0.0
10
-160.36120266096964
20
163.65670167159294
10
-158.59329832841075
20
163.65670167159004
42
-0.41421356237309503
10
-157.34329832841084
20
162.4067016715901
10
-157.34329832840817
20
160.63879733903144
42
-0.22575541446459327
10
-157.34329832840828
20
155.16120266096902
10
-157.34329832841084
20
153.39329832840508
42
-0.41421356237309503
10
-158.59329832841075
20
152.14329832840514
10
-160.36120266097146
20
152.14329832840701
42
-0.22575541446442049
10
-165.83879733903001
20
152.14329832840696
10
-167.60670167159071
20
152.14329832840528
42
-0.41421356237309503
10
-168.85670167159063
20
153.39329832840522
10
-168.8567016715933
20
155.16120266096914
42
-0.22575541446459479
10
-168.85670167159333
20
160.6387973390315
10
-168.85670167159063
20
162.40670167159024
42
-0.41421356237309503
10
-167.60670167159071
20
163.65670167159016
10
-165.83879733903186
20
163.65670167159297
42
-0.2257554144645843
0
LWPOLYLINE
5
105
100
AcDbEntity
8
0
100
AcDbPolyline
90
16
70
1
43
0.0
10
-190.83879733903024
20
127.1432983284072
10
-192.606701671591
20
127.14329832840556
42
-0.41421356237309503
10
-193.85670167159091
20
128.39329832840551
10
-193.85670167159347
20
130.16120266096939
42
-0.22575541446459013
10
-193.85670167159347
20
135.63879733903167
10
-193.85670167159091
20
137.40670167159041
42
-0.41421356237309503
10
-192.606701671591
20
138.65670167159033
10
-190.83879733903206
20
138.65670167159305
42
-0.22575541446459013
10
-185.36120266096981
20
138.65670167159303
10
-183.59329832841092
20
138.65670167159033
42
-0.41421356237309503
10
-182.34329832841098
20
137.40670167159041
10
-182.34329832840842
20
135.63879733903167
42
-0.22575541446459269
10
-182.34329832840842
20
130.16120266096937
10
-182.34329832841098
20
128.39329832840551
42
-0.41421356237309503
10
-183.59329832841092
20
127.14329832840556
10
-185.3612026609716
20
127.14329832840718
42
-0.22575541446442632
0
ENDSEC
0
SECTION
2
OBJECTS
0
DICTIONARY
5
C
100
AcDbDictionary
3
ACAD_GROUP
350
D
3
ACAD_MLINESTYLE
350
17
0
DICTIONARY
5
D
100
AcDbDictionary
0
DICTIONARY
5
1A
330
C
100
AcDbDictionary
0
DICTIONARY
5
17
100
AcDbDictionary
0
ENDSEC
0
EOF
