<?xml version="1.0" encoding="UTF-8" standalone="no"?>
<svg
   width="396.50302mm"
   height="396.65302mm"
   viewBox="0 0 396.50302 396.65302"
   stroke-linejoin="round"
   stroke-linecap="round"
   fill="none"
   fill-rule="evenodd"
   version="1.1"
   id="svg2481"
   sodipodi:docname="blind_joint_prepare_horizontal_extrusions_2.svg"
   xmlns:inkscape="http://www.inkscape.org/namespaces/inkscape"
   xmlns:sodipodi="http://sodipodi.sourceforge.net/DTD/sodipodi-0.dtd"
   xmlns="http://www.w3.org/2000/svg"
   xmlns:svg="http://www.w3.org/2000/svg">
  <sodipodi:namedview
     id="namedview2483"
     pagecolor="#ffffff"
     bordercolor="#000000"
     borderopacity="0.25"
     inkscape:showpageshadow="2"
     inkscape:pageopacity="0.0"
     inkscape:pagecheckerboard="0"
     inkscape:deskcolor="#d1d1d1"
     inkscape:document-units="mm"
     showgrid="false" />
  <desc
     id="desc2186">Composer Export</desc>
  <script
     type="text/ecmascript"
     id="script2188"><![CDATA[
if(typeof(top) != "undefined")
{
	top.ShowPaper = ShowPaper;
}
function ShowPaper()
{
  var svgDocument = getDocument();
  var paper = svgDocument.getElementById("paperID");
  if(paper)
  {
    paper.setAttribute("transform","scale(1)");
    paper.setAttribute("opacity","1");
    paper.setAttribute("visibility","visible");
  }
  var svg = svgDocument.getRootElement();
  if(svg)
  {
    svg.setAttribute("width","510.000mm");
    svg.setAttribute("height","510.000mm");
    svg.setAttribute("viewBox","-5.000000 -5.000000 510.000000 510.000000");
  }
}
]]></script>
  <defs
     id="defs2190" />
  <g
     id="g2479"
     transform="translate(-103.6735,0.17649999)">
    <path
       style="fill:#97fa98"
       d="m 139.71,266.58 2.61,0.64 3.73,1.54 0.74,0.25 3.48,2.17 2.8,2.39 1.03,0.03 2.62,-1.06 3.5,-0.17 -3.07,-0.19 1.45,-1.28 1.04,-0.54 3.72,-0.37 1.59,0.39 3.57,1.59 4,3.14 5.15,6.36 0.35,2.83 1.21,4.34 0.02,5.29 -1.48,2.97 -0.23,0.09 0.16,1.45 -0.04,2.64 -1.35,0.24 -2.36,2 -2.11,0.71 -0.56,-0.33 0.11,0.73 0.12,1.14 0.25,1.18 0.16,1.98 0.01,6.37 -0.18,1.58 -0.45,2.65 -1.71,3.84 -2.82,3.53 -5.5,3.22 -2.53,0.56 -1.57,0.18 -1.63,-0.01 -3.94,-0.4 -5.33,-1.11 -5.13,-2.01 -5.11,-2.83 -3.98,-3.16 -4.77,-4.76 -3.6,-5.52 -2.79,-6.34 -1.13,-4.51 -0.04,-1.05 -0.19,-0.13 -0.17,-1.2 -0.09,-1.45 -0.24,-0.07 -0.16,-0.58 0.26,-7.02 0.4,-2.8 1.36,-5.69 2,-4.75 1.62,-2.73 1.42,-1.76 4.77,-3.17 1.96,-0.82 1.47,-0.2 3.56,-0.22 z"
       id="path2194" />
    <path
       style="fill:#000020"
       d="m 191.92,249.5 0.41,-10.9 v 21.23 z"
       id="path2196" />
    <path
       style="fill:#000020"
       d="m 146.79,269.01 -0.74,-0.25 0.64,-5.16 z"
       id="path2198" />
    <path
       style="fill:#000020"
       d="m 156.72,272.54 0.43,-0.36 3.07,0.19 z"
       id="path2200" />
    <path
       style="fill:#000020"
       d="m 119.36,297.63 -0.33,-1.52 0.24,0.07 z"
       id="path2202" />
    <path
       style="fill:#000020"
       d="m 177.7,298.44 -0.16,-1.45 0.23,-0.09 z"
       id="path2204" />
    <path
       style="fill:#000020"
       d="m 119.76,300.01 -0.23,-1.18 0.19,0.13 z"
       id="path2206" />
    <path
       style="fill:#000020"
       d="m 171.84,304.03 -0.45,0.4 -0.11,-0.73 z"
       id="path2208" />
    <path
       style="fill:#000020"
       d="m 171.76,306.75 -0.25,-1.18 0.19,0.13 z"
       id="path2210" />
    <path
       style="fill:#000020"
       d="m 171.93,315.1 -0.01,-6.37 0.16,0.14 z"
       id="path2212" />
    <path
       style="fill:#000020"
       d="m 191.92,351.48 0.41,-11.29 v 21.63 z"
       id="path2214" />
    <path
       style="stroke:#000000;stroke-width:0.353"
       d="m 111.13,268.09 25.67,-14.82 4.28,2.47 -27.81,16.05 -0.13,-0.91 -0.37,-0.96 -0.57,-0.88 -0.7,-0.7 -5.69,-3.31 -0.72,-0.2 -0.61,0.15"
       id="path2216" />
    <path
       style="stroke:#000000;stroke-width:0.353"
       d="m 180.87,263.89 -0.07,0.82 -0.19,0.72 -0.32,0.6 -0.68,0.63 -0.88,0.27 -0.68,-0.02 -0.72,-0.2 -0.74,-0.35 4.28,-2.47 v -7.09 l 0.1,-0.44 0.21,-0.34 0.54,-0.26 0.42,0.04 0.44,0.18 9.84,-5.68 -0.01,-11.08 -0.12,-0.7 -0.3,-0.81 -32.52,18.77 -0.37,-0.23 -1.09,-0.91 -1.29,-1.6 -0.75,-1.39 -0.52,-1.44 -0.19,-0.95 -0.06,-0.86 -0.01,-7.12 -0.22,-0.95 -0.39,-0.74 -0.51,-0.64 -0.59,-0.46 -8.07,-4.7 -0.7,-0.7 -0.57,-0.88 -0.3,-0.71 -0.19,-0.94 -0.01,-19.99 2.14,-1.23 7.46,4.3 0.72,0.19 0.61,-0.14 0.43,-0.46 0.19,-0.71 0.01,-6.14 -0.2,-1.16 -0.57,-1.18 -0.62,-0.77 -0.75,-0.6 -47.07,-27.17 -0.9,-0.29 -0.61,0.14"
       id="path2218" />
    <path
       style="stroke:#000000;stroke-width:0.353"
       d="m 105.99,265.12 28.67,-16.55 0.03,1.85 0.28,0.95 0.3,0.55 0.51,0.64 1.02,0.71"
       id="path2220" />
    <path
       style="stroke:#000000;stroke-width:0.353"
       d="M 105.99,176.2 411.18,0"
       id="path2222" />
    <path
       style="stroke:#000000;stroke-width:0.353"
       d="m 120.84,280.76 -5.43,3.14 -0.56,-0.41 -0.51,-0.54 -0.69,-1.12 -0.25,-0.72 -0.12,-0.7 -0.01,-8.62"
       id="path2224" />
    <path
       style="stroke:#000000;stroke-width:0.353"
       d="m 113.27,280.19 10.26,-5.92"
       id="path2226" />
    <path
       style="stroke:#000000;stroke-width:0.353"
       d="m 112.64,238.6 0.43,-0.46 0.2,-0.93 9.41,-5.43 -7.24,-4.18 -1.72,0.95 -0.45,0.26 v 8.4"
       id="path2228" />
    <path
       style="stroke:#000000;stroke-width:0.353"
       d="m 113.27,228.81 0.2,-0.93 0.41,-0.44 0.62,-0.15 0.53,0.11 0.41,0.2"
       id="path2230" />
    <path
       style="stroke:#000000;stroke-width:0.353"
       d="m 119.26,295.99 -1.72,-1 -2.15,1.24 v 3.49 l -0.62,1.54 -0.21,0.87 -0.21,1.89 v 1.03 l 0.21,2.13 0.21,1.11 0.62,2.26 0.01,3.71 0.12,0.7 0.26,0.72 0.68,1.12 0.7,0.69 3.4,2 1.64,1.67 0.86,0.74 0.87,0.67 1.76,1.09 1.74,0.77 0.86,0.25 1.67,0.24 3,1.73 0.73,0.28 0.65,-0.06 0.37,-0.26 0.26,-0.42 0.13,-0.77 -2.14,1.23"
       id="path2232" />
    <path
       style="stroke:#000000;stroke-width:0.353"
       d="m 115.4,314.08 7.8,-4.55"
       id="path2234" />
    <path
       style="stroke:#000000;stroke-width:0.353"
       d="m 115.39,310.55 6.55,-3.78"
       id="path2236" />
    <path
       style="stroke:#000000;stroke-width:0.353"
       d="m 115.39,299.72 4.01,-2.31"
       id="path2238" />
    <path
       style="stroke:#000000;stroke-width:0.353"
       d="m 115.39,296.23 0.13,-0.77 0.26,-0.42 0.24,-0.2 0.29,-0.11 0.49,-0.01 0.74,0.27"
       id="path2240" />
    <path
       style="stroke:#000000;stroke-width:0.353"
       d="m 115.41,283.9 4.12,2.38"
       id="path2242" />
    <path
       style="stroke:#000000;stroke-width:0.353"
       d="m 135.1,226.61 -0.13,0.77 -0.16,0.3 -0.34,0.32 -0.28,0.11 -0.5,0.01 -0.73,-0.27 2.14,-1.24 v -3.49 l -5.14,3 -0.84,-0.09 -0.83,-0.16 -1.73,-0.59 -1.75,-0.93 -1.75,-1.25 -0.86,-0.74 -1.64,-1.67 14.54,-8.4 v -3.49 l -17.57,10.14 -0.73,-0.57 -0.64,-0.8 -0.56,-1.18 -0.21,-1.16 17.57,-10.14 -3,-1.73 -14.57,8.38 -0.62,-2.26 -0.31,-1.9 -0.11,-1.35 0.07,-1.99 0.35,-1.79 0.62,-1.54 v -3.49 l 0.13,-0.77 0.38,-0.53 0.41,-0.19 0.49,-0.02 0.73,0.28 -2.14,1.23"
       id="path2244" />
    <path
       style="stroke:#000000;stroke-width:0.353"
       d="m 115.39,215.23 v -3.49"
       id="path2246" />
    <path
       style="stroke:#000000;stroke-width:0.353"
       d="m 115.39,200.91 5.17,-2.98 -3.03,-1.74"
       id="path2248" />
    <path
       style="stroke:#000000;stroke-width:0.353"
       d="m 117.53,317.75 7.81,-4.51"
       id="path2250" />
    <path
       style="stroke:#000000;stroke-width:0.353"
       d="m 117.53,218.94 3.03,1.75"
       id="path2252" />
    <path
       style="stroke:#000000;stroke-width:0.353"
       d="m 120.56,319.49 6.53,-3.77"
       id="path2254" />
    <path
       style="stroke:#000000;stroke-width:0.353"
       d="m 120.56,197.93 1.64,0.23 0.86,0.25 0.87,0.34 1.76,0.93 1.74,1.26 0.86,0.73 1.67,1.69"
       id="path2256" />
    <path
       style="stroke:#000000;stroke-width:0.353"
       d="m 122.68,231.78 0.89,0.51"
       id="path2258" />
    <path
       style="stroke:#000000;stroke-width:0.353"
       d="m 129.96,324.92 3.99,-2.33"
       id="path2260" />
    <path
       style="stroke:#000000;stroke-width:0.353"
       d="m 129.96,226.12 3,1.73"
       id="path2262" />
    <path
       style="stroke:#000000;stroke-width:0.353"
       d="m 132.96,205.09 0.73,0.57 0.78,1.03 0.5,1.19 0.13,0.92"
       id="path2264" />
    <path
       style="stroke:#000000;stroke-width:0.353"
       d="m 135.1,325.42 v -2.01"
       id="path2266" />
    <path
       style="stroke:#000000;stroke-width:0.353"
       d="m 134.66,248.57 v -0.96"
       id="path2268" />
    <path
       style="stroke:#000000;stroke-width:0.353"
       d="m 135.1,223.12 0.62,-1.54 0.22,-0.87 0.21,-2.3 -0.07,-1.66 -0.14,-1.09 -0.22,-1.11 -0.62,-2.26"
       id="path2270" />
    <path
       style="stroke:#000000;stroke-width:0.353"
       d="m 137.11,266.43 9.01,-5.2 -0.73,-1.56 -1.22,-1.68 -0.7,-0.7 -0.74,-0.58 -1.65,-0.97"
       id="path2272" />
    <path
       style="stroke:#000000;stroke-width:0.353"
       d="m 156.05,330.59 -10.27,5.92 -0.55,-0.4 -0.67,-0.75 -0.42,-0.68 -0.37,-0.95 -0.13,-0.92 v -4.76"
       id="path2274" />
    <path
       style="stroke:#000000;stroke-width:0.353"
       d="m 143.64,332.81 5.44,-3.14"
       id="path2276" />
    <path
       style="stroke:#000000;stroke-width:0.353"
       d="m 143.41,267.73 3.23,-1.86 -0.07,-2.88 -0.45,-1.76"
       id="path2278" />
    <path
       style="stroke:#000000;stroke-width:0.353"
       d="M 143.64,231.05 500,25.29"
       id="path2280" />
    <path
       style="stroke:#000000;stroke-width:0.353"
       d="m 145.78,210.04 -0.9,-0.29 -0.61,0.14 -0.43,0.46 -0.16,0.51 -0.04,0.41"
       id="path2282" />
    <path
       style="stroke:#000000;stroke-width:0.353"
       d="m 145.78,336.51 7.46,4.32 0.72,0.63 0.61,0.85 0.43,0.95 0.24,1.13 v 5.93 l -0.24,0.95 -0.43,0.46"
       id="path2284" />
    <path
       style="stroke:#000000;stroke-width:0.353"
       d="M 145.78,234.74 500,30.23"
       id="path2286" />
    <path
       style="stroke:#000000;stroke-width:0.353"
       d="m 146.64,269.21 v -3.34"
       id="path2288" />
    <path
       style="stroke:#000000;stroke-width:0.353"
       d="m 153.06,340.71 27.81,-16.05 v 4.94 l -25.63,14.79"
       id="path2290" />
    <path
       style="stroke:#000000;stroke-width:0.353"
       d="M 153.06,203.37 500,3.06"
       id="path2292" />
    <path
       style="stroke:#000000;stroke-width:0.353"
       d="m 155.2,249.1 29.09,-16.83 -1.66,-0.99 -0.85,-0.91 -0.41,-0.67 -0.3,-0.72 -0.17,-0.71 -0.03,-0.94 -25.67,14.82"
       id="path2294" />
    <path
       style="stroke:#000000;stroke-width:0.353"
       d="m 153.48,239.19 27.39,-15.81 v 3.95"
       id="path2296" />
    <path
       style="stroke:#000000;stroke-width:0.353"
       d="M 155.2,213.01 500,13.93"
       id="path2298" />
    <path
       style="stroke:#000000;stroke-width:0.353"
       d="M 154.57,214.39 500,14.95"
       id="path2300" />
    <path
       style="stroke:#000000;stroke-width:0.353"
       d="M 155.2,207.08 500,8"
       id="path2302" />
    <path
       style="stroke:#000000;stroke-width:0.353"
       d="m 155.24,350.32 28.62,-16.52 -1.55,-0.93 -0.71,-0.74 -0.33,-0.54 -0.3,-0.76 -0.1,-1.23"
       id="path2304" />
    <path
       style="stroke:#000000;stroke-width:0.353"
       d="m 158.18,271.36 0.2,-0.76 0.46,-0.48 0.41,-0.11 0.34,0.01 0.74,0.28 -0.07,0.03"
       id="path2306" />
    <path
       style="stroke:#000000;stroke-width:0.353"
       d="m 159.47,256.48 17.12,9.88"
       id="path2308" />
    <path
       style="stroke:#000000;stroke-width:0.353"
       d="m 169.62,322.75 9.01,-5.2 0.98,1.41 0.85,1.89 0.26,0.96 0.13,0.92 0.02,1.93"
       id="path2310" />
    <path
       style="stroke:#000000;stroke-width:0.353"
       d="m 171.65,316.64 3.23,-1.86 -2.91,-1.68"
       id="path2312" />
    <path
       style="stroke:#000000;stroke-width:0.353"
       d="m 174.88,314.78 2.45,1.49 1.3,1.28"
       id="path2314" />
    <path
       style="stroke:#000000;stroke-width:0.353"
       d="m 178.55,295.52 -0.67,1.7 v 3.49 l -0.13,0.78 -0.37,0.52 -0.41,0.2 -0.49,0.01 -0.74,-0.27 1.25,-0.72"
       id="path2316" />
    <path
       style="stroke:#000000;stroke-width:0.353"
       d="m 175.74,301.95 -0.12,-0.07"
       id="path2318" />
    <path
       style="stroke:#000000;stroke-width:0.353"
       d="m 175.58,279.1 0.53,0.35 0.54,0.5 0.47,0.62 0.38,0.69 0.35,1.2 0.03,1.48"
       id="path2320" />
    <path
       style="stroke:#000000;stroke-width:0.353"
       d="m 190.28,362.2 2.14,-1.19 -0.13,0.73 -0.37,0.53 -0.41,0.19 -0.68,-0.02 -0.55,-0.24 -7.46,-4.3 -0.72,-0.19 -0.61,0.14"
       id="path2322" />
    <path
       style="stroke:#000000;stroke-width:0.353"
       d="m 181.37,255.86 11.05,-6.36"
       id="path2324" />
    <path
       style="stroke:#000000;stroke-width:0.353"
       d="m 180.87,223.38 v -1.69 l 0.07,-0.39 0.21,-0.47 0.34,-0.32 0.45,-0.14 0.51,0.06 0.56,0.23 47.25,27.29 0.71,0.64 0.61,0.84 0.43,0.95 0.2,1.16 L 500,96.93"
       id="path2326" />
    <path
       style="stroke:#000000;stroke-width:0.353"
       d="M 181.49,220.51 500,36.62"
       id="path2328" />
    <path
       style="stroke:#000000;stroke-width:0.353"
       d="m 183.01,358 9.41,-5.43 v 8.44"
       id="path2330" />
    <path
       style="stroke:#000000;stroke-width:0.353"
       d="m 184.75,334.31 -0.89,-0.51"
       id="path2332" />
    <path
       style="stroke:#000000;stroke-width:0.353"
       d="m 182.58,255.98 8.07,4.63 0.7,0.11 0.57,-0.22 0.37,-0.53 0.13,-0.77 -2.14,1.23"
       id="path2334" />
    <path
       style="stroke:#000000;stroke-width:0.353"
       d="M 183.01,220.66 500,37.64"
       id="path2336" />
    <path
       style="stroke:#000000;stroke-width:0.353"
       d="m 191.99,237.71 -0.64,-1.03 -0.88,-0.83 -6.18,-3.58"
       id="path2338" />
    <path
       style="stroke:#000000;stroke-width:0.353"
       d="m 220.66,344.66 0.9,0.29 0.61,-0.14 0.42,-0.45 0.21,-0.93 -2.14,1.23 -17.12,-9.88 -0.9,-0.75 -0.74,-1.08 -0.3,-0.71 -0.16,-0.71 -0.04,-9.34 27.39,-15.81 -3.43,-1.98 -25.67,14.82 -5.99,-3.46 -1.11,-0.8 -0.7,-0.71 -0.94,-1.23 -0.53,-0.91 -0.59,-1.44 -0.26,-0.95 -0.15,-1.37 v -19.76 l 0.07,-0.82 0.19,-0.72 0.32,-0.6 0.42,-0.46 0.53,-0.3 0.61,-0.14 0.68,0.02 0.72,0.2 0.74,0.35 -4.28,2.47"
       id="path2340" />
    <path
       style="stroke:#000000;stroke-width:0.353"
       d="m 189.42,308.35 32.52,-18.77 -0.55,-0.66 -0.73,-0.58 -9.47,-5.4 -9.79,5.65 -0.1,0.62 -0.4,0.49 11.05,-6.38"
       id="path2342" />
    <path
       style="stroke:#000000;stroke-width:0.353"
       d="M 192.42,352.57 V 351.6"
       id="path2344" />
    <path
       style="stroke:#000000;stroke-width:0.353"
       d="m 192.42,259.2 v -8.9"
       id="path2346" />
    <path
       style="stroke:#000000;stroke-width:0.353"
       d="m 193.7,315.76 29.09,-16.79 v -7.14 l -0.27,-1.14 -0.58,-1.11"
       id="path2348" />
    <path
       style="stroke:#000000;stroke-width:0.353"
       d="m 193.7,286.12 6.14,3.54 0.57,0.15 0.49,-0.11"
       id="path2350" />
    <path
       style="stroke:#000000;stroke-width:0.353"
       d="m 206.13,368.9 14.54,-8.4 0.63,2.32 0.35,2.14 0.07,1.05 -0.07,1.99 -0.36,1.79 -0.62,1.54 -5.17,2.98 -1.64,-0.23 -0.86,-0.25 -0.87,-0.34 -1.75,-0.93 -1.75,-1.25 -0.86,-0.74 -1.64,-1.67 -3.03,-1.75 -0.55,-0.41 -0.52,-0.54 -0.44,-0.65 -0.34,-0.7 -0.21,-0.72 -0.08,-0.69 v -3.49 l -0.62,-2.26 -0.21,-1.11 -0.14,-1.09 -0.07,-2.07 0.21,-1.89 0.21,-0.87 0.62,-1.54 v -3.49 l 0.13,-0.77 0.37,-0.53 0.42,-0.19 0.49,-0.02 0.75,0.28 -2.16,1.23"
       id="path2352" />
    <path
       style="stroke:#000000;stroke-width:0.353"
       d="m 201.4,322.19 -0.1,-0.74 -0.4,-0.95 -0.49,-0.68 -0.72,-0.6"
       id="path2354" />
    <path
       style="stroke:#000000;stroke-width:0.353"
       d="m 215.5,275.5 3.03,1.75 2.14,-1.24 v -3.45 l -5.17,2.94 -1.64,-0.23 -1.73,-0.58 -1.75,-0.94 -1.67,-1.19 -0.94,-0.8 -1.64,-1.67 -3.03,-1.75 -0.55,-0.4 -0.67,-0.75 -0.42,-0.67 -0.37,-0.96 -0.13,-0.92 17.59,-10.13 -3.05,-1.76 -14.54,8.39 -0.62,-2.26 -0.21,-1.11 -0.21,-2.14 0.07,-1.98 0.35,-1.79 0.62,-1.54 v -3.49 l 0.13,-0.77 0.37,-0.53 0.42,-0.2 0.49,-0.01 0.75,0.28 -2.16,1.23"
       id="path2356" />
    <path
       style="stroke:#000000;stroke-width:0.353"
       d="m 200.96,363.44 17.57,-10.14 0.73,0.57 0.78,1.03 0.5,1.19 0.13,0.92 -17.57,10.14"
       id="path2358" />
    <path
       style="stroke:#000000;stroke-width:0.353"
       d="m 200.96,359.95 14.54,-8.39 3.03,1.74"
       id="path2360" />
    <path
       style="stroke:#000000;stroke-width:0.353"
       d="m 203.12,344.4 3.01,1.74 -5.17,2.98"
       id="path2362" />
    <path
       style="stroke:#000000;stroke-width:0.353"
       d="M 201.4,331.08 500,158.68"
       id="path2364" />
    <path
       style="stroke:#000000;stroke-width:0.353"
       d="m 201.4,288.59 0.04,-9.3 0.25,-0.66 0.48,-0.38 0.64,-0.06 0.77,0.29 -2.18,1.22"
       id="path2366" />
    <path
       style="stroke:#000000;stroke-width:0.353"
       d="m 200.96,264.64 v -3.5"
       id="path2368" />
    <path
       style="stroke:#000000;stroke-width:0.353"
       d="m 203.12,245.6 3.01,1.74 -5.17,2.98"
       id="path2370" />
    <path
       style="stroke:#000000;stroke-width:0.353"
       d="M 203.54,334.78 500,163.62"
       id="path2372" />
    <path
       style="stroke:#000000;stroke-width:0.353"
       d="m 203.58,278.48 7.61,4.46"
       id="path2374" />
    <path
       style="stroke:#000000;stroke-width:0.353"
       d="m 203.1,268.34 17.57,-10.14 0.01,3.53 0.61,2.23 0.21,1.11 0.15,1.08 0.07,1.82 -0.22,2.15 -0.21,0.86 -0.62,1.58"
       id="path2376" />
    <path
       style="stroke:#000000;stroke-width:0.353"
       d="m 206.13,346.14 1.64,0.23 0.86,0.25 0.87,0.34 1.76,0.93 1.74,1.26 0.86,0.73 1.64,1.68"
       id="path2378" />
    <path
       style="stroke:#000000;stroke-width:0.353"
       d="m 206.13,270.09 14.55,-8.36"
       id="path2380" />
    <path
       style="stroke:#000000;stroke-width:0.353"
       d="m 206.13,247.34 1.64,0.22 0.86,0.25 1.75,0.77 1.75,1.1 0.87,0.66 0.86,0.74 1.64,1.67"
       id="path2382" />
    <path
       style="stroke:#000000;stroke-width:0.353"
       d="m 215.5,374.31 3.03,1.75 2.14,-1.24 -0.13,0.77 -0.26,0.42 -0.24,0.2 -0.44,0.13 -0.34,-0.01 -0.73,-0.27"
       id="path2384" />
    <path
       style="stroke:#000000;stroke-width:0.353"
       d="m 218.53,277.25 0.73,0.27 0.34,0.01 0.44,-0.13 0.24,-0.19 0.26,-0.43 0.13,-0.77"
       id="path2386" />
    <path
       style="stroke:#000000;stroke-width:0.353"
       d="m 220.67,258.2 -0.13,-0.92 -0.5,-1.19 -0.78,-1.02 -0.71,-0.56"
       id="path2388" />
    <path
       style="stroke:#000000;stroke-width:0.353"
       d="m 220.67,374.82 v -3.49"
       id="path2390" />
    <path
       style="stroke:#000000;stroke-width:0.353"
       d="m 220.67,360.5 v -3.49"
       id="path2392" />
    <path
       style="stroke:#000000;stroke-width:0.353"
       d="m 222.8,343.43 v -8.61 l 0.19,-0.72 0.43,-0.45 0.61,-0.15 0.9,0.29 5.33,3.09 0.74,0.67 0.58,0.81 0.44,0.99 0.18,0.89 0.01,4.53 v 50.04 l -0.2,0.93 -0.43,0.45"
       id="path2394" />
    <path
       style="stroke:#000000;stroke-width:0.353"
       d="M 223.42,333.65 500,173.96"
       id="path2396" />
    <path
       style="stroke:#000000;stroke-width:0.353"
       d="m 222.79,298.97 0.04,1.93 0.35,1.19 0.38,0.69 0.47,0.62 0.53,0.5 0.8,0.5"
       id="path2398" />
    <path
       style="stroke:#000000;stroke-width:0.353"
       d="M 224.93,333.79 500,174.99"
       id="path2400" />
    <path
       style="stroke:#000000;stroke-width:0.353"
       d="m 228.79,306.38 1.47,0.84 0.36,0.13 0.52,0.06 0.44,-0.14 0.34,-0.32 0.22,-0.47 0.06,-0.39 0.01,-54.55"
       id="path2402" />
    <path
       style="stroke:#000000;stroke-width:0.353"
       d="M 230.07,336.76 500,180.91"
       id="path2404" />
    <path
       style="stroke:#000000;stroke-width:0.353"
       d="M 230.07,247.83 500,91.99"
       id="path2406" />
    <path
       style="stroke:#000000;stroke-width:0.353"
       d="M 232.21,394.81 500,240.2"
       id="path2408" />
    <path
       style="stroke:#000000;stroke-width:0.353"
       d="M 232.21,340.46 500,185.85"
       id="path2410" />
    <path
       style="stroke:#000000;stroke-width:0.353"
       d="M 231.58,307.27 500,152.29"
       id="path2412" />
    <path
       style="stroke:#000000;stroke-width:0.353"
       d="M 232.21,305.88 500,151.27"
       id="path2414" />
    <path
       style="stroke:#000000;stroke-width:0.353"
       d="m 409.41,0 -305.17,176.24 -0.31,0.6 -0.08,0.59 v 54.35 l 0.08,0.68 0.31,0.96 0.68,1.11 0.89,0.84 5.5,3.18 0.37,0.13 0.52,0.05 0.44,-0.13 10.93,-6.31 8.95,5.17 0.55,0.4 0.68,0.75 0.62,1.15 0.28,1.18 0.01,6.61 -30.18,17.43 -0.24,0.19 -0.26,0.42 -0.13,0.77 v 54.34 l 0.08,0.68 0.21,0.72 0.34,0.71 0.44,0.65 0.52,0.55 0.55,0.4 47.07,27.17 0.73,0.27 0.34,0.02 0.44,-0.14 30.18,-17.42 5.53,3.19 0.73,0.57 0.64,0.8 0.48,0.94 0.26,0.95 0.03,10.79 -10.93,6.3 -0.34,0.32 -0.21,0.47 -0.07,0.39 v 6.36 l 0.28,1.18 0.63,1.15 0.67,0.75 0.56,0.4 47.06,27.17 0.55,0.24 0.68,0.02 L 500,241.22"
       id="path2416" />
    <path
       style="stroke:#000000;stroke-width:0.353"
       d="m 141.76,322.16 -0.88,0.28 -0.95,0.15 -0.94,0.02 -1.09,-0.1 -1.07,-0.23 -1.09,-0.35 -1.11,-0.47 -1.12,-0.59 -1.12,-0.7 -1.11,-0.81 -1.09,-0.91 -1.07,-1.01 -1.03,-1.09 -1,-1.17 -0.94,-1.24 -0.89,-1.3 -0.82,-1.35 -0.45,-0.82 -0.31,-0.57 -0.68,-1.42 -0.6,-1.44 -0.52,-1.45 -0.43,-1.44 -0.33,-1.42 -0.25,-1.41 -0.14,-1.36 -0.05,-1.32 0.05,-1.27 0.14,-1.19 0.25,-1.13 0.33,-1.03 0.43,-0.95 0.52,-0.85 0.6,-0.74 0.68,-0.64 0.76,-0.51 0.82,-0.4 0.89,-0.27 0.95,-0.15 1.06,-0.02 0.96,0.1 1.07,0.22 1.09,0.35 1.11,0.48 1.12,0.59 1.12,0.7 1.11,0.81 1.09,0.91 1.07,1.01 1.04,1.09 0.99,1.17 0.94,1.24 0.89,1.3 0.83,1.35 0.76,1.39 0.68,1.42 0.6,1.43 0.52,1.45 0.42,1.44 0.34,1.43 0.19,1.1 0.05,0.3 0.15,1.37 0.05,1.32 -0.05,1.26 -0.15,1.2 -0.24,1.12 -0.34,1.04 -0.42,0.95 -0.52,0.85 -0.6,0.74 -0.68,0.63 -0.08,0.05 -0.68,0.47 -0.83,0.39 0.82,-0.25"
       id="path2418" />
    <path
       style="stroke:#000000;stroke-width:0.353"
       d="m 124.55,305.67 -0.32,-1.08 -0.26,-1.1 -0.19,-1.08 -0.11,-1.05 -0.04,-1.02 0.04,-0.97 0.11,-0.92 0.19,-0.87 0.26,-0.79 0.32,-0.71 0.41,-0.68 0.54,1.09 0.22,0.53 0.17,0.54 0.14,0.54 0.11,0.54 0.08,0.56 0.05,0.56 0.01,0.58 -0.02,0.6 -0.04,0.62 -0.08,0.64 -0.11,0.67 -0.14,0.7 -0.17,0.75 -0.22,0.78 -0.54,1.71 1.59,0.99 0.71,0.49 0.65,0.5 0.61,0.5 0.57,0.5 0.52,0.51 0.49,0.53 0.46,0.54 0.43,0.56 0.39,0.58 0.37,0.6 0.35,0.63 0.33,0.66 0.3,0.7 0.28,0.74 0.5,1.62 1.6,-0.41 1.36,-0.31 1.17,-0.23 1.02,-0.15 0.46,-0.05 0.82,-0.04 h 0.37 l 0.35,0.02 0.32,0.04 0.31,0.06 0.28,0.08 0.5,0.22 -0.46,0.57 -0.53,0.49 -0.58,0.4 -0.64,0.3 -0.68,0.22 -0.73,0.11 -0.76,0.02 -0.8,-0.08 -0.82,-0.18 -0.69,-0.22 -0.15,-0.05 -0.86,-0.36 -0.86,-0.45 -0.86,-0.54 -0.88,-0.65 -0.81,-0.68 -0.83,-0.77 -0.79,-0.84 -0.77,-0.9 -0.72,-0.96 -0.69,-1 -0.63,-1.04 -0.59,-1.07 -0.52,-1.09 -0.46,-1.11 -0.41,-1.14"
       id="path2420" />
    <path
       style="stroke:#000000;stroke-width:0.353"
       d="m 124.96,306.81 9.88,-5.7 8.47,10.53 -0.02,0.18 -9.78,5.64"
       id="path2422" />
    <path
       style="stroke:#000000;stroke-width:0.353"
       d="m 126.12,294.22 -0.18,0.12 -0.52,0.49 -0.46,0.57 1.59,-0.41 1.46,-0.33 0.51,-0.1 0.98,-0.17 0.6,-0.09 0.46,-0.04 0.47,-0.04 h 0.72 l 0.35,0.02 0.33,0.04 0.3,0.06 0.28,0.08 0.5,0.22 -0.86,-0.46 -0.88,-0.37 -0.81,-0.26 -0.83,-0.17 -0.79,-0.08 -0.77,0.01 -0.72,0.12 -0.69,0.21 -0.63,0.31 -0.41,0.27"
       id="path2424" />
    <path
       style="stroke:#000000;stroke-width:0.353"
       d="m 128.27,269.25 1.57,-0.75 0.12,-0.04 1.57,-0.48 1.79,-0.29 1.89,-0.04 1.96,0.19 2.03,0.43 2.08,0.67 2.11,0.9 2.12,1.12 2.13,1.33 2.11,1.54 2.08,1.73 2.03,1.91 1.96,2.08 1.89,2.22 1.14,1.49 0.65,0.87 1.69,2.47 1.57,2.56 1.44,2.64 1.29,2.7 1.14,2.73 0.99,2.75 0.25,0.85 0.56,1.89 0.64,2.71 0.46,2.66 0.28,2.6 0.09,2.51 -0.09,2.4 -0.28,2.27 -0.46,2.14 -0.64,1.97 -0.56,1.24 -0.26,0.56 -0.98,1.61 -1.14,1.41 -1.29,1.21 -1.44,0.98"
       id="path2426" />
    <path
       style="stroke:#000000;stroke-width:0.353"
       d="m 133.51,294.64 0.86,0.54 0.47,0.34 v 5.59"
       id="path2428" />
    <path
       style="stroke:#000000;stroke-width:0.353"
       d="m 134.84,295.52 0.39,0.28 0.84,0.7 0.82,0.78 0.8,0.84 0.76,0.9 0.73,0.95 0.68,1 0.64,1.04 0.58,1.07 0.53,1.1 0.46,1.1 0.4,1.12 0.33,1.11 0.26,1.09 0.18,1.08 0.12,1.06 0.03,1.01 -0.03,0.98 -0.12,0.92 -0.18,0.86 -0.26,0.8 -0.33,0.73 -0.4,0.65 0.55,-1.71 0.21,-0.78 0.18,-0.74 0.14,-0.71 0.14,-0.93"
       id="path2430" />
    <path
       style="stroke:#000000;stroke-width:0.353"
       d="m 139.08,325.95 0.02,0.01"
       id="path2432" />
    <path
       style="stroke:#000000;stroke-width:0.353"
       d="m 142.56,327.62 -0.01,-0.01"
       id="path2434" />
    <path
       style="stroke:#000000;stroke-width:0.353"
       d="M 143.31,311.64 143.37,311"
       id="path2436" />
    <path
       style="stroke:#000000;stroke-width:0.353"
       d="m 155.13,275.46 0.84,0.79 1.97,2.08 1.88,2.22 1.8,2.36 0.72,1.05 0.43,0.44 0.58,0.66 0.57,0.68 0.55,0.7 0.52,0.72 0.49,0.73 0.47,0.75 0.43,0.76 0.41,0.78 0.37,0.77 0.33,0.78 0.26,0.69 0.3,0.87 0.22,0.77 0.19,0.76 0.17,0.9 0.12,0.29 0.98,2.75 0.82,2.74 0.64,2.72 0.12,-0.15 0.34,-0.54 0.28,-0.6 0.24,-0.64 0.2,-0.69 0.15,-0.74 0.1,-0.77 0.05,-0.82 0.01,-0.84 -0.03,-0.87 -0.09,-0.9 -0.13,-0.92 -0.17,-0.94 -0.22,-0.96 -0.27,-0.96 -0.31,-0.97 -0.36,-0.98 -0.4,-0.97 -0.45,-0.97 -0.5,-0.96 -0.53,-0.96 -0.57,-0.94 -0.61,-0.93 -0.63,-0.89 -0.66,-0.87 -0.7,-0.85 -0.71,-0.82 -0.74,-0.78 -0.76,-0.75 -0.78,-0.7 -0.78,-0.66 -0.8,-0.61 -0.81,-0.55 -0.82,-0.51 -0.81,-0.44 -0.82,-0.38 -0.81,-0.33 -0.81,-0.27 -0.8,-0.21 -0.67,-0.12 -0.5,-0.47 0.35,0.02 0.78,0.1 0.79,0.16 0.8,0.22 0.81,0.27 0.82,0.34 0.82,0.39 0.81,0.46 0.81,0.51 0.81,0.57 0.54,0.41 0.34,0.21 0.66,0.43 0.66,0.48 0.65,0.52 0.64,0.54 0.62,0.58 0.61,0.61 0.59,0.64 0.57,0.67 0.55,0.69 0.52,0.71 0.49,0.73 0.46,0.76 0.44,0.76 0.4,0.77 0.37,0.78 0.14,0.32 0.2,0.47 0.31,0.78 0.27,0.78 0.24,0.78 0.2,0.77 0.16,0.76 0.13,0.74 0.09,0.72 0.05,0.7 0.01,0.68 -0.01,0.2 0.06,0.45 0.08,0.89 0.03,0.87 -0.02,0.84 -0.07,0.8 -0.11,0.77 -0.13,0.64 -0.23,0.78 -0.24,0.63 -0.3,0.59 -0.34,0.53 -0.07,0.09"
       id="path2438" />
    <path
       style="stroke:#000000;stroke-width:0.353"
       d="m 154.63,274.99 -0.69,-0.65 -0.34,-0.29"
       id="path2440" />
    <path
       style="stroke:#000000;stroke-width:0.353"
       d="m 173.92,303.14 0.48,-0.34 0.45,-0.39 0.41,-0.45 0.37,-0.5 0.33,-0.55 0.29,-0.6 0.25,-0.64 0.19,-0.69 0.15,-0.73 0.1,-0.78 0.05,-0.8 v -0.85 l -0.05,-0.88 -0.1,-0.9 -0.15,-0.93 -0.2,-0.95 -0.23,-0.96 -0.29,-0.97 -0.33,-0.98 -0.37,-0.98 -0.41,-0.98 -0.45,-0.98 -0.49,-0.96 -0.53,-0.96 -0.57,-0.93 -0.6,-0.92 -0.64,-0.89 -0.67,-0.87 -0.69,-0.83 -0.73,-0.8 -0.74,-0.77 -0.77,-0.72 -0.78,-0.69 -0.8,-0.64 -0.8,-0.6 -0.82,-0.55 -0.82,-0.5 -0.82,-0.45 -0.82,-0.38 -0.81,-0.34 -0.81,-0.26 -0.79,-0.21 -0.78,-0.14 -0.77,-0.08 -0.75,-0.01 -0.57,0.04 -0.16,0.02 -0.7,0.11 -0.68,0.17 -0.65,0.24 -0.62,0.29"
       id="path2442" />
    <path
       style="stroke:#000000;stroke-width:0.353"
       d="m 155.82,330.59 -0.24,-0.02"
       id="path2444" />
    <path
       style="stroke:#000000;stroke-width:0.353"
       d="m 166.88,275.88 0.27,0.21 0.8,0.65 0.78,0.69 0.76,0.74 0.74,0.77 0.72,0.81 0.69,0.83 0.67,0.87 0.63,0.9 0.6,0.92 0.56,0.94 0.52,0.95 0.47,0.95 0.46,1 0.4,0.98 0.36,0.98 0.32,0.98 0.28,0.97 0.23,0.96 0.19,0.94 0.07,0.47 0.01,-0.2 -0.01,-0.67 -0.05,-0.7 -0.08,-0.72 -0.13,-0.74 -0.17,-0.75 -0.21,-0.77 -0.25,-0.77 -0.28,-0.78 -0.32,-0.79 -0.36,-0.78 -0.38,-0.78 -0.42,-0.78 -0.44,-0.76 -0.48,-0.75 -0.5,-0.74 -0.52,-0.71 -0.55,-0.7 -0.56,-0.67 -0.59,-0.63 -0.61,-0.61 -0.62,-0.57 -0.64,-0.54 -0.65,-0.5 -0.65,-0.46 -0.67,-0.42 -0.39,-0.22 -0.53,-0.4 -0.81,-0.56 -0.82,-0.51 -0.82,-0.45 -0.82,-0.4 -0.82,-0.34 -0.8,-0.29 -0.8,-0.21 -0.79,-0.15 -0.76,-0.09 -0.76,-0.02 -0.73,0.04 -0.71,0.1 -0.3,0.08"
       id="path2446" />
    <path
       style="stroke:#000000;stroke-width:0.353"
       d="m 158.38,271.24 0.61,-0.31 0.64,-0.25 0.67,-0.18 0.7,-0.11 0.73,-0.05 0.75,0.01 0.76,0.08 0.79,0.14 0.8,0.2 0.81,0.26 0.82,0.31 0.82,0.37 0.82,0.43 0.82,0.48 0.76,0.48 0.86,0.62 0.82,0.65 0.76,0.65 0.76,0.71 0.74,0.77 0.72,0.79 0.33,0.4"
       id="path2448" />
    <path
       style="stroke:#000000;stroke-width:0.353"
       d="m 162.34,283.96 0.97,1.41 1.57,2.57 1.43,2.64 1.3,2.7 1.02,2.44"
       id="path2452" />
    <path
       style="stroke:#000000;stroke-width:0.353"
       d="m 160.86,270.17 0.17,-0.05 0.71,-0.1 0.73,-0.04 0.75,0.03 0.77,0.09"
       id="path2454" />
    <path
       style="stroke:#000000;stroke-width:0.353"
       d="m 162.77,278.44 0.26,0.2 0.78,0.67 0.77,0.71 0.76,0.75 0.73,0.79 0.72,0.82 0.8,1.01 0.55,0.73 0.63,0.9 0.6,0.93 0.56,0.94 0.52,0.96 0.48,0.94 0.45,0.99 0.4,0.98 0.35,0.97 0.3,0.97 0.26,0.96 0.21,0.95 0.17,0.94 0.06,0.47"
       id="path2456" />
    <path
       style="stroke:#000000;stroke-width:0.353"
       d="m 171.19,304.22 0.05,0.29"
       id="path2458" />
    <path
       style="stroke:#000000;stroke-width:0.353"
       d="m 176.01,301.42 0.17,-0.22 0.34,-0.54 0.29,-0.59 0.26,-0.64 0.2,-0.68 0.16,-0.72 0.11,-0.79 0.06,-0.78 v -0.84 l -0.04,-0.87 -0.09,-0.88 -0.07,-0.48"
       id="path2460" />
    <path
       style="stroke:#000000;stroke-width:0.353"
       d="m 177.81,282.24 -0.27,-0.49 -0.58,-0.94 -0.61,-0.92 -0.41,-0.57"
       id="path2462" />
    <path
       style="stroke:#000000;stroke-width:0.353"
       d="m 160.86,270.17 -0.5,0.12 -0.65,0.24 -0.62,0.29 -0.71,0.42 -0.58,0.36 -0.54,0.43 -0.51,0.48 -0.14,0.17 -0.38,0.09 -0.66,0.22 -0.63,0.28 -0.71,0.41 -0.63,0.37 -1.73,-1.44 -2.11,-1.54 -2.13,-1.33 -2.12,-1.12 -2.11,-0.9 -2.08,-0.67 -2.03,-0.43 -1.97,-0.2 -1.88,0.05 -1.8,0.28 -1.68,0.52 -1.57,0.76 -2.12,1.22 -1.44,0.98 -1.29,1.2 -1.15,1.42 -0.98,1.61 -0.39,0.78 -1.33,3 -0.52,1.47 -0.49,1.55 -0.43,1.45 -0.63,2.94 -0.3,2.06 -0.22,2.82 -0.05,2.05 0.14,2.63 0.18,2 0.33,1.97 0.5,2.36 0.51,1.89 0.87,2.48 0.85,2.03 1.12,2.32 1.27,2.23 1.82,2.67 1.57,1.98 2.17,2.33 2.34,2.14 1.5,1.2 1.59,1.08 1.6,1.09 1.67,0.97"
       id="path2464" />
    <path
       style="stroke:#000000;stroke-width:0.353"
       d="m 139.1,325.96 3.45,1.65"
       id="path2466" />
    <path
       style="stroke:#000000;stroke-width:0.353"
       d="m 142.56,327.62 1.79,0.7 2.55,0.82 2.61,0.64 1.96,0.36 1.5,0.22 2.85,0.23 1.89,-0.04 1.79,-0.29 1.69,-0.52 1.57,-0.75 2.12,-1.23 1.43,-0.98 1.3,-1.2 1.14,-1.41 0.93,-1.52 0.05,-0.09 0.82,-1.8 0.64,-1.98 0.46,-2.13 0.09,-0.77 0.19,-1.5 0.09,-2.4 -0.09,-2.51 -0.28,-2.6 -0.41,-2.36 0.23,-0.23 0.32,-0.38 0.5,-0.09 0.57,-0.16 0.55,-0.23 1.03,-0.58 0.49,-0.33 0.45,-0.38 0.42,-0.44 0.21,-0.27"
       id="path2468" />
    <path
       style="stroke:#000000;stroke-width:0.353"
       d="m 155.52,330.56 0.3,0.03"
       id="path2470" />
    <path
       style="stroke:#000000;stroke-width:0.353"
       d="m 177.09,301.22 0.39,-0.13 0.4,-0.19"
       id="path2472" />
  </g>
</svg>
