<?xml version="1.0" encoding="UTF-8" standalone="no"?>
<svg xmlns="http://www.w3.org/2000/svg" xmlns:xlink="http://www.w3.org/1999/xlink" width="500.000mm" height="500.000mm" viewBox="0.000000 0.000000 500.000000 500.000000" stroke-linejoin="round" stroke-linecap="round" fill="none" fill-rule="evenodd"><desc>Composer Export</desc><script type="text/ecmascript"><![CDATA[
if(typeof(top) != "undefined")
{
	top.ShowPaper = ShowPaper;
}
function ShowPaper()
{
  var svgDocument = getDocument();
  var paper = svgDocument.getElementById("paperID");
  if(paper)
  {
    paper.setAttribute("transform","scale(1)");
    paper.setAttribute("opacity","1");
    paper.setAttribute("visibility","visible");
  }
  var svg = svgDocument.getRootElement();
  if(svg)
  {
    svg.setAttribute("width","510.000mm");
    svg.setAttribute("height","510.000mm");
    svg.setAttribute("viewBox","-5.000000 -5.000000 510.000000 510.000000");
  }
}
]]></script><defs/><g><path style="fill:#ffffff" d="M499.90,499.90L366.28,499.94L366.15,400.51L365.89,499.94L0.12,499.90L0.12,0.12L499.90,0.12z"/><path style="fill:#97fa98" d="M374.09,138.63L378.45,141.41L381.24,144.57L383.21,148.55L383.83,151.20L384.06,152.38L384.06,157.16L383.51,160.09L381.28,162.62L379.12,163.63L377.50,164.79L372.32,167.46L371.91,167.18L371.54,167.88L370.95,168.58L368.80,169.58L367.38,170.55L365.48,171.50L364.79,171.52L364.39,172.25L362.00,173.41L361.60,173.13L361.22,173.83L360.81,174.33L357.25,176.29L350.31,180.47L346.93,182.24L343.52,184.38L340.60,185.85L340.57,186.49L340.78,187.70L340.98,189.28L340.98,194.07L340.58,196.84L340.35,197.90L338.77,201.47L335.99,204.24L331.52,206.51L325.81,206.67L324.22,206.45L322.23,206.04L318.12,204.91L312.23,201.68L309.04,199.31L305.46,195.74L301.85,190.23L299.85,185.48L299.13,182.15L299.08,181.10L298.90,180.97L298.73,179.38L298.73,172.61L299.76,167.22L301.91,161.82L304.28,158.64L308.48,156.10L311.10,155.46L314.71,155.47L316.55,155.69L320.52,157.28L325.69,160.85L327.14,160.88L328.57,160.23L331.26,160.06L329.36,159.62L331.10,158.47L332.47,157.97L334.43,158.09L332.85,157.56L336.10,155.95L336.24,156.20L337.62,156.09L336.10,155.95L336.24,155.31L339.95,153.43L342.79,152.02L344.75,152.13L343.16,151.61L346.45,150.03L346.56,150.25L347.94,150.14L346.45,150.03L346.94,149.32L350.51,147.25L351.18,146.91L353.19,146.06L353.31,146.28L354.68,146.17L353.19,146.06L353.68,145.35L356.67,143.97L359.95,142.01L360.40,141.68L362.06,140.62L363.51,140.10L363.63,140.33L365.00,140.22L363.51,140.10L364.00,139.40L367.58,137.42L371.32,137.43z"/><path style="fill:#000020" d="M350.25,117.35L350.67,112.01L350.67,120.14z"/><path style="fill:#000020" d="M363.63,140.33L363.51,140.10L365.00,140.22z"/><path style="fill:#000020" d="M359.78,139.97L360.19,129.47L360.40,141.68L359.95,142.01z"/><path style="fill:#000020" d="M353.31,146.28L353.19,146.06L354.68,146.17z"/><path style="fill:#000020" d="M351.18,146.91L350.51,147.25L350.63,145.76z"/><path style="fill:#000020" d="M346.56,150.25L346.45,150.03L347.94,150.14z"/><path style="fill:#000020" d="M344.75,152.13L342.79,152.02L343.16,151.61z"/><path style="fill:#000020" d="M384.06,152.38L383.83,151.20L384.00,151.34z"/><path style="fill:#000020" d="M336.24,156.20L336.10,155.95L337.62,156.09z"/><path style="fill:#000020" d="M334.43,158.09L332.47,157.97L332.85,157.56z"/><path style="fill:#000020" d="M331.26,160.06L328.57,160.23L329.36,159.62z"/><path style="fill:#000020" d="M372.32,167.46L371.54,167.88L371.91,167.18z"/><path style="fill:#000020" d="M365.39,171.73L364.39,172.25L364.79,171.52L365.48,171.50z"/><path style="fill:#000020" d="M362.00,173.41L361.22,173.83L361.60,173.13z"/><path style="fill:#000020" d="M299.13,182.15L298.90,180.97L299.08,181.10z"/><path style="fill:#000020" d="M340.78,187.70L340.57,186.49L341.10,186.59z"/><path style="fill:#000020" d="M340.98,194.07L340.98,189.28L341.14,189.43z"/><path style="fill:#000020" d="M366.28,499.94L365.89,499.94L366.15,400.51z"/><path style="stroke:#000000;stroke-width:0.353" d="M343.64,151.41L335.08,146.46L334.50,145.95L334.13,145.46L333.82,144.90L333.68,144.52L333.52,143.77L333.52,136.87L333.46,136.33L333.29,135.75L332.90,135.00L332.39,134.36L331.80,133.90L352.35,122.04L351.88,121.77L351.53,121.48L351.12,120.97L350.88,120.52L350.66,119.76L350.63,118.29L327.69,131.53L327.25,131.34L326.97,131.30L326.71,131.32L326.48,131.41"/><path style="stroke:#000000;stroke-width:0.353" d="M432.26,-0.00L327.69,60.37L327.25,60.18L326.97,60.14L326.71,60.16L326.48,60.25"/><path style="stroke:#000000;stroke-width:0.353" d="M327.69,131.53L331.80,133.90"/><path style="stroke:#000000;stroke-width:0.353" d="M327.69,60.37L365.36,82.11L365.94,82.57L366.46,83.21L366.67,83.58L366.91,84.15L367.01,84.54L367.07,85.08L367.06,89.99L367.01,90.30L366.91,90.57L366.76,90.78L366.57,90.93L366.34,91.02L366.08,91.04L365.80,91.00L365.51,90.89L359.54,87.45L357.82,88.44L357.83,104.43L357.98,105.18L358.22,105.75L358.68,106.46L359.24,107.02L365.72,110.76L366.28,111.26L366.67,111.80L366.94,112.41L367.06,113.01L367.07,118.68L367.12,119.40L367.27,120.16L367.69,121.31L368.29,122.42L368.78,123.09L369.61,123.97L370.49,124.61L396.51,109.59L396.75,110.24L396.85,110.97L396.85,119.67L388.98,124.22L388.51,124.04L388.30,124.03L388.01,124.12L396.85,119.02"/><path style="stroke:#000000;stroke-width:0.353" d="M333.52,143.59L359.80,128.41L359.22,127.17L358.76,126.46L358.24,125.82L357.68,125.26L357.10,124.80L355.77,124.02L333.52,136.87"/><path style="stroke:#000000;stroke-width:0.353" d="M333.01,110.30L333.20,110.15L333.36,109.94L333.46,109.67L333.51,109.36L333.52,102.47L333.57,102.00L333.68,101.73L333.82,101.52L334.02,101.37L334.25,101.28L334.50,101.25L334.78,101.30L335.25,101.50L333.52,102.47"/><path style="stroke:#000000;stroke-width:0.353" d="M333.52,109.20L341.05,104.85L335.25,101.50"/><path style="stroke:#000000;stroke-width:0.353" d="M336.83,155.38L336.49,155.25L336.21,155.20L335.83,155.26L335.62,155.38L335.45,155.57L335.32,155.81L335.24,156.09L335.22,156.51"/><path style="stroke:#000000;stroke-width:0.353" d="M335.22,156.42L335.99,155.98"/><path style="stroke:#000000;stroke-width:0.353" d="M335.23,146.55L360.22,132.12L360.22,130.54L360.17,129.83L360.02,129.08L359.80,128.41"/><path style="stroke:#000000;stroke-width:0.353" d="M346.85,100.30L349.27,101.70L350.99,100.71L350.99,97.91L346.85,100.30L346.20,100.25L345.54,100.12L344.85,99.92L344.16,99.65L343.45,99.31L342.05,98.43L340.67,97.31L339.35,95.97L336.63,94.37L336.21,93.97L335.83,93.47L335.62,93.11L335.38,92.54L335.22,91.78L335.22,88.81L346.85,82.09L345.54,80.76L344.85,80.17L343.45,79.16L342.05,78.42L341.35,78.15L340.67,77.95L340.00,77.82L339.35,77.76L339.39,77.74"/><path style="stroke:#000000;stroke-width:0.353" d="M335.22,91.61L349.29,83.48L350.00,84.10L350.48,84.77L350.68,85.15L350.88,85.72L350.99,86.46L336.93,94.57"/><path style="stroke:#000000;stroke-width:0.353" d="M335.22,88.81L334.72,87.00L334.55,86.11L334.38,84.40L334.43,82.81L334.55,82.07L334.72,81.38L334.94,80.74L335.22,80.15L335.22,77.35L335.32,76.74L335.45,76.50L335.62,76.31L335.95,76.16L336.34,76.15L336.93,76.37L335.22,77.35"/><path style="stroke:#000000;stroke-width:0.353" d="M335.22,80.15L339.35,77.76L336.93,76.37"/><path style="stroke:#000000;stroke-width:0.353" d="M339.35,95.97L350.99,89.25L351.26,90.16L351.64,91.87L351.77,92.82L351.82,93.66L351.77,95.25L351.65,95.99L351.49,96.68L351.26,97.33L350.99,97.91"/><path style="stroke:#000000;stroke-width:0.353" d="M341.05,104.85L341.76,105.26"/><path style="stroke:#000000;stroke-width:0.353" d="M346.85,82.09L349.29,83.48"/><path style="stroke:#000000;stroke-width:0.353" d="M350.58,180.01L350.99,179.78L350.88,180.40L350.76,180.64L350.48,180.89L350.26,180.98L350.00,181.00L349.72,180.96L349.38,180.83"/><path style="stroke:#000000;stroke-width:0.353" d="M349.27,101.70L349.86,101.92L350.26,101.91L350.48,101.82L350.76,101.57L350.88,101.33L350.99,100.71"/><path style="stroke:#000000;stroke-width:0.353" d="M350.99,179.78L350.99,179.58"/><path style="stroke:#000000;stroke-width:0.353" d="M353.00,146.14L351.76,145.45L351.32,145.38L351.03,145.47L350.82,145.67L350.68,145.98L350.63,146.36L350.63,147.39"/><path style="stroke:#000000;stroke-width:0.353" d="M351.03,145.47L360.22,140.17L360.22,140.82L352.00,145.57"/><path style="stroke:#000000;stroke-width:0.353" d="M350.63,118.29L350.63,117.48"/><path style="stroke:#000000;stroke-width:0.353" d="M350.99,89.25L350.99,86.46"/><path style="stroke:#000000;stroke-width:0.353" d="M352.35,122.04L355.77,124.02"/><path style="stroke:#000000;stroke-width:0.353" d="M366.57,200.84L366.76,200.68L366.91,200.47L367.01,200.21L367.06,199.90L367.07,194.98L367.01,194.44L366.91,194.06L366.57,193.30L366.08,192.62L365.51,192.11L359.24,188.46L358.81,188.06L358.44,187.56L358.22,187.20L357.98,186.62L357.85,186.05L357.82,185.69L357.82,175.59"/><path style="stroke:#000000;stroke-width:0.353" d="M357.82,185.69L382.82,171.26L375.29,166.92L367.07,171.66L366.98,172.15L366.88,172.34L366.67,172.55L375.85,167.24"/><path style="stroke:#000000;stroke-width:0.353" d="M357.85,104.24L500.00,22.17"/><path style="stroke:#000000;stroke-width:0.353" d="M357.82,88.44L357.85,88.11L357.98,87.70L358.13,87.48L358.33,87.33L358.55,87.24L358.81,87.22L359.24,87.31L359.54,87.45"/><path style="stroke:#000000;stroke-width:0.353" d="M359.54,188.66L385.82,173.48L386.15,173.90L386.61,174.61L386.99,175.36L387.29,176.13L387.49,176.89L387.60,177.63L387.61,179.17L365.36,192.02"/><path style="stroke:#000000;stroke-width:0.353" d="M360.22,141.93L360.22,140.82"/><path style="stroke:#000000;stroke-width:0.353" d="M360.22,132.12L360.22,140.17"/><path style="stroke:#000000;stroke-width:0.353" d="M359.54,107.22L500.00,26.12"/><path style="stroke:#000000;stroke-width:0.353" d="M366.67,172.55L366.38,172.63L365.94,172.56L364.54,171.78"/><path style="stroke:#000000;stroke-width:0.353" d="M365.36,82.11L500.00,4.38"/><path style="stroke:#000000;stroke-width:0.353" d="M367.07,199.73L390.01,186.49L388.74,185.73L388.20,185.15L387.93,184.72L387.69,184.11L387.61,183.66L387.61,183.12L367.07,194.98"/><path style="stroke:#000000;stroke-width:0.353" d="M367.07,171.66L367.07,170.64"/><path style="stroke:#000000;stroke-width:0.353" d="M367.07,113.15L387.61,101.29L387.64,102.04L387.77,102.61L388.01,103.19L388.34,103.72L388.60,104.05L389.03,104.45L390.35,105.24L367.07,118.68"/><path style="stroke:#000000;stroke-width:0.353" d="M365.72,110.76L387.61,98.12L387.61,101.29"/><path style="stroke:#000000;stroke-width:0.353" d="M366.57,90.93L500.00,13.89"/><path style="stroke:#000000;stroke-width:0.353" d="M500.00,13.08L367.07,89.82"/><path style="stroke:#000000;stroke-width:0.353" d="M367.07,85.08L500.00,8.33"/><path style="stroke:#000000;stroke-width:0.353" d="M369.46,136.66L371.17,135.67L370.72,135.48L370.31,135.44L369.96,135.55L369.77,135.70L369.56,136.04L369.48,136.33L369.46,137.37"/><path style="stroke:#000000;stroke-width:0.353" d="M370.49,124.61L384.17,132.51L384.78,132.80L385.36,132.96L385.90,132.98L386.39,132.87L386.81,132.62L387.15,132.26L387.40,131.78L387.56,131.20L387.61,130.54L384.21,132.51"/><path style="stroke:#000000;stroke-width:0.353" d="M372.17,137.88L373.47,137.13L372.96,138.21"/><path style="stroke:#000000;stroke-width:0.353" d="M373.47,137.13L373.50,137.31L373.89,137.09L373.59,137.06L371.17,135.67"/><path style="stroke:#000000;stroke-width:0.353" d="M374.30,166.35L375.29,166.92"/><path style="stroke:#000000;stroke-width:0.353" d="M373.50,137.31L373.06,138.26"/><path style="stroke:#000000;stroke-width:0.353" d="M373.89,137.09L374.26,137.12L374.00,137.73L373.73,138.61"/><path style="stroke:#000000;stroke-width:0.353" d="M375.80,139.79L375.86,138.58L376.00,137.61L374.90,137.25L374.26,137.12"/><path style="stroke:#000000;stroke-width:0.353" d="M376.00,137.61L376.12,137.65L375.98,138.55L375.91,139.86"/><path style="stroke:#000000;stroke-width:0.353" d="M376.12,137.65L376.99,138.06L377.69,138.47L378.39,138.94L379.34,139.68L379.53,140.84L379.83,142.12L379.23,142.47"/><path style="stroke:#000000;stroke-width:0.353" d="M376.92,138.02L376.85,139.26L376.90,140.46"/><path style="stroke:#000000;stroke-width:0.353" d="M379.83,142.12L379.88,141.90L379.58,140.51L379.49,139.81L379.34,139.68"/><path style="stroke:#000000;stroke-width:0.353" d="M380.78,144.37L383.51,142.79L381.09,141.40L380.44,140.70L379.49,139.81"/><path style="stroke:#000000;stroke-width:0.353" d="M379.88,141.90L380.82,141.35L380.85,141.53L381.09,141.40"/><path style="stroke:#000000;stroke-width:0.353" d="M380.82,141.35L380.74,141.02"/><path style="stroke:#000000;stroke-width:0.353" d="M382.82,171.26L384.19,172.06L384.78,172.46L385.36,172.97L385.82,173.48"/><path style="stroke:#000000;stroke-width:0.353" d="M383.51,161.00L385.22,160.01L385.16,160.49L384.99,160.87L384.72,161.12L384.49,161.21L384.10,161.22L383.81,161.14L382.90,160.65"/><path style="stroke:#000000;stroke-width:0.353" d="M383.96,154.92L385.03,155.49L385.77,155.78L386.01,154.55L386.06,153.78L386.06,152.96L385.96,151.78L384.71,150.62L383.80,149.58L384.73,149.04L384.61,148.91L385.22,148.55L385.22,145.76L382.50,147.33"/><path style="stroke:#000000;stroke-width:0.353" d="M383.83,157.82L384.58,157.39L384.78,157.47L385.22,157.24L385.22,160.01"/><path style="stroke:#000000;stroke-width:0.353" d="M384.58,157.39L383.90,157.27"/><path style="stroke:#000000;stroke-width:0.353" d="M385.80,155.67L384.71,155.21L383.96,154.78"/><path style="stroke:#000000;stroke-width:0.353" d="M385.96,154.82L385.15,154.40L383.97,153.60"/><path style="stroke:#000000;stroke-width:0.353" d="M385.98,151.94L384.86,150.92L383.59,149.50L383.39,149.61"/><path style="stroke:#000000;stroke-width:0.353" d="M383.59,149.50L383.80,149.58"/><path style="stroke:#000000;stroke-width:0.353" d="M385.96,151.78L385.65,150.07L384.73,149.04"/><path style="stroke:#000000;stroke-width:0.353" d="M385.22,145.76L385.12,145.02L384.99,144.64L384.72,144.07L384.49,143.72L384.10,143.25L383.51,142.79"/><path style="stroke:#000000;stroke-width:0.353" d="M385.22,157.24L385.50,156.63L385.77,155.78"/><path style="stroke:#000000;stroke-width:0.353" d="M385.22,148.55L385.65,150.07"/><path style="stroke:#000000;stroke-width:0.353" d="M395.14,209.22L396.85,208.23L396.83,208.56L396.75,208.84L396.63,209.08L396.45,209.27L396.12,209.43L395.87,209.45L395.59,209.41L395.14,209.22L389.17,205.78L388.88,205.67L388.60,205.62L388.34,205.65L388.11,205.74"/><path style="stroke:#000000;stroke-width:0.353" d="M387.61,179.17L387.61,183.12"/><path style="stroke:#000000;stroke-width:0.353" d="M387.61,130.54L387.62,124.87L387.74,124.42L388.01,124.12"/><path style="stroke:#000000;stroke-width:0.353" d="M387.61,98.12L387.62,96.77L387.67,96.46L387.84,96.08L388.11,95.83L388.47,95.72L388.88,95.76L389.17,95.87L426.98,117.70L427.43,118.02L427.84,118.45L428.19,118.97L428.54,119.73L428.64,120.14L428.70,120.66L428.70,164.15L428.59,164.76L428.47,165.00L428.19,165.26L427.97,165.34L427.71,165.37L427.43,165.32L427.13,165.22L425.96,164.54L404.05,177.20L404.07,184.67L404.21,185.24L404.45,185.81L404.77,186.35L405.03,186.67L405.46,187.07L405.76,187.28L419.60,195.26L419.90,195.37L420.31,195.41L420.55,195.36L420.76,195.23L420.93,195.05L421.06,194.81L421.14,194.52L421.16,194.19L419.45,195.18"/><path style="stroke:#000000;stroke-width:0.353" d="M388.11,95.83L500.00,31.23"/><path style="stroke:#000000;stroke-width:0.353" d="M389.32,205.86L396.85,201.51L396.85,208.23"/><path style="stroke:#000000;stroke-width:0.353" d="M390.01,186.49L390.72,186.89"/><path style="stroke:#000000;stroke-width:0.353" d="M388.98,124.22L395.44,127.92L395.73,128.00L396.00,128.01L396.24,127.95L396.45,127.83L396.63,127.64L396.75,127.40L396.83,127.12L396.85,126.79L395.14,127.78"/><path style="stroke:#000000;stroke-width:0.353" d="M390.35,105.24L395.29,108.10L395.59,108.33L396.00,108.77L396.51,109.59"/><path style="stroke:#000000;stroke-width:0.353" d="M389.32,95.95L500.00,32.05"/><path style="stroke:#000000;stroke-width:0.353" d="M397.88,172.06L402.68,174.82L423.22,162.96L422.58,162.56L422.15,162.16L421.77,161.67L421.47,161.11L421.32,160.73L421.19,160.16L421.16,158.61L397.88,172.06L397.00,171.41L396.43,170.85L395.92,170.21L395.26,169.13L394.92,168.37L394.66,167.60L394.51,166.84L394.46,166.13L394.46,159.01L394.46,150.31L394.57,149.35L394.78,148.83L394.92,148.60L395.26,148.23L395.68,147.99L396.17,147.88L396.71,147.90L397.29,148.05L397.88,148.33L394.46,150.31"/><path style="stroke:#000000;stroke-width:0.353" d="M394.46,166.13L419.02,151.94L420.49,151.13L420.04,150.57L419.45,150.11L411.92,145.76L404.05,150.31L403.96,150.80L403.86,151.00L403.64,151.20L412.49,146.09"/><path style="stroke:#000000;stroke-width:0.353" d="M396.85,201.51L396.85,200.70"/><path style="stroke:#000000;stroke-width:0.353" d="M396.85,126.79L396.85,119.67"/><path style="stroke:#000000;stroke-width:0.353" d="M403.64,151.20L403.25,151.29L402.79,151.17L397.88,148.33"/><path style="stroke:#000000;stroke-width:0.353" d="M404.05,177.20L403.96,176.61L403.64,175.85L403.25,175.30L402.68,174.82"/><path style="stroke:#000000;stroke-width:0.353" d="M405.41,213.18L407.83,214.57L419.46,207.86L419.46,205.06L405.41,213.18L404.82,212.72L404.30,212.08L404.00,211.52L403.80,210.95L403.69,210.21L417.75,202.09L415.33,200.70L403.69,207.42L403.69,210.21"/><path style="stroke:#000000;stroke-width:0.353" d="M403.69,207.42L403.19,205.61L403.02,204.72L402.85,203.01L402.91,201.41L403.02,200.68L403.19,199.98L403.42,199.34L403.69,198.75L403.69,195.96L405.42,194.97L404.82,194.75L404.55,194.74L404.20,194.85L404.00,195.00L403.80,195.34L403.69,195.96"/><path style="stroke:#000000;stroke-width:0.353" d="M403.69,198.75L407.83,196.37L405.42,194.97"/><path style="stroke:#000000;stroke-width:0.353" d="M500.00,128.91L404.05,184.31"/><path style="stroke:#000000;stroke-width:0.353" d="M404.05,150.31L404.05,143.20L405.78,142.22L405.46,142.06L405.17,141.99L404.78,142.00L404.55,142.09L404.35,142.24L404.15,142.58L404.05,143.20"/><path style="stroke:#000000;stroke-width:0.353" d="M407.83,135.51L409.14,136.84L409.83,137.43L410.52,137.97L411.93,138.84L412.63,139.18L413.33,139.45L414.01,139.65L414.68,139.78L415.33,139.84L419.46,137.44L419.74,136.85L419.96,136.22L420.13,135.53L420.24,134.79L420.30,134.01L420.25,132.51L420.13,131.48L419.96,130.60L419.46,128.79L407.83,135.51L405.41,134.11L404.96,133.78L404.55,133.35L404.09,132.65L403.80,131.88L403.69,131.14L417.76,123.02L415.33,121.63L403.69,128.35L403.19,126.54L403.02,125.65L402.85,123.94L402.91,122.35L403.02,121.61L403.19,120.91L403.42,120.27L403.69,119.68L403.69,116.89L403.80,116.27L403.92,116.03L404.09,115.85L404.42,115.69L404.82,115.68L405.42,115.89L403.69,116.89"/><path style="stroke:#000000;stroke-width:0.353" d="M403.69,131.14L403.69,128.35"/><path style="stroke:#000000;stroke-width:0.353" d="M403.69,119.68L407.83,117.30L405.42,115.89"/><path style="stroke:#000000;stroke-width:0.353" d="M405.76,187.28L500.00,132.86"/><path style="stroke:#000000;stroke-width:0.353" d="M405.78,142.22L411.92,145.76"/><path style="stroke:#000000;stroke-width:0.353" d="M405.41,134.11L419.46,125.99L419.46,128.79"/><path style="stroke:#000000;stroke-width:0.353" d="M407.83,214.57L409.14,215.91L409.83,216.50L411.22,217.50L412.63,218.25L413.33,218.52L414.01,218.72L414.68,218.85L415.33,218.91L417.75,220.30L419.46,219.31L419.36,219.93L419.23,220.17L418.96,220.42L418.73,220.51L418.33,220.52L417.75,220.30"/><path style="stroke:#000000;stroke-width:0.353" d="M415.33,200.70L414.01,199.36L413.33,198.77L412.63,198.24L411.22,197.36L410.52,197.02L409.83,196.75L409.14,196.55L408.47,196.42L407.83,196.37"/><path style="stroke:#000000;stroke-width:0.353" d="M415.33,121.63L414.01,120.29L413.33,119.70L412.63,119.17L411.40,118.39L410.52,117.95L409.83,117.68L409.14,117.48L408.47,117.35L407.83,117.30"/><path style="stroke:#000000;stroke-width:0.353" d="M415.33,218.91L419.46,216.52L419.74,215.93L419.96,215.29L420.13,214.59L420.24,213.86L420.30,213.08L420.30,212.27L420.24,211.42L420.07,210.25L419.74,208.76L419.46,207.86"/><path style="stroke:#000000;stroke-width:0.353" d="M415.33,139.84L417.75,141.23L418.33,141.45L418.61,141.46L418.85,141.41L419.15,141.20L419.36,140.86L419.46,140.25L417.75,141.23"/><path style="stroke:#000000;stroke-width:0.353" d="M417.75,202.09L418.33,202.55L418.73,203.02L418.96,203.37L419.23,203.94L419.36,204.33L419.46,205.06"/><path style="stroke:#000000;stroke-width:0.353" d="M417.76,123.02L418.19,123.35L418.47,123.63L418.96,124.30L419.23,124.87L419.36,125.26L419.46,125.99"/><path style="stroke:#000000;stroke-width:0.353" d="M419.46,219.31L419.46,216.52"/><path style="stroke:#000000;stroke-width:0.353" d="M419.46,140.25L419.46,137.44"/><path style="stroke:#000000;stroke-width:0.353" d="M421.16,194.19L421.17,187.30L421.22,187.00L421.32,186.73L421.47,186.52L421.67,186.37L422.02,186.25L422.29,186.27L422.58,186.34L424.25,187.28L427.13,188.95L427.71,189.46L428.19,190.13L428.54,190.90L428.64,191.28L428.70,191.82L428.70,235.31L428.64,235.79L428.54,236.05L428.39,236.26L428.19,236.42"/><path style="stroke:#000000;stroke-width:0.353" d="M421.67,186.37L500.00,141.14"/><path style="stroke:#000000;stroke-width:0.353" d="M421.16,158.61L421.16,152.90L421.11,152.53L420.93,151.96L420.49,151.13"/><path style="stroke:#000000;stroke-width:0.353" d="M422.87,186.48L500.00,141.96"/><path style="stroke:#000000;stroke-width:0.353" d="M423.22,162.96L425.96,164.54"/><path style="stroke:#000000;stroke-width:0.353" d="M426.98,188.86L500.00,146.70"/><path style="stroke:#000000;stroke-width:0.353" d="M426.98,117.70L500.00,75.54"/><path style="stroke:#000000;stroke-width:0.353" d="M428.70,235.31L500.00,194.14"/><path style="stroke:#000000;stroke-width:0.353" d="M428.70,191.82L500.00,150.65"/><path style="stroke:#000000;stroke-width:0.353" d="M428.19,165.26L500.00,123.80"/><path style="stroke:#000000;stroke-width:0.353" d="M428.70,164.15L500.00,122.98"/><path style="stroke:#000000;stroke-width:0.353" d="M428.70,120.66L500.00,79.49"/><path style="stroke:#000000;stroke-width:0.353" d="M430.84,-0.00L326.48,60.25L326.21,60.50L326.04,60.88L325.98,61.36L325.98,104.85L326.04,105.39L326.29,106.16L326.59,106.71L326.85,107.07L327.25,107.49L327.55,107.72L331.95,110.26L332.25,110.37L332.66,110.41L333.01,110.30L341.76,105.26L348.92,109.39L349.37,109.72L349.90,110.32L350.23,110.86L350.40,111.24L350.53,111.62L350.63,112.18L350.63,117.47L326.48,131.41L326.29,131.57L326.14,131.78L326.04,132.04L325.98,132.52L325.98,161.27"/><path style="stroke:#000000;stroke-width:0.353" d="M340.46,186.34L365.36,200.72L365.80,200.91L366.08,200.95L366.34,200.93L366.57,200.84L390.72,186.89L395.29,189.54L395.73,189.91L396.00,190.21L396.24,190.55L396.55,191.10L396.80,191.87L396.85,192.42L396.85,200.69L388.11,205.74L387.84,205.99L387.67,206.37L387.62,206.68L387.62,211.77L387.67,212.13L387.84,212.71L388.11,213.28L388.34,213.63L388.88,214.23L389.32,214.55L426.98,236.30L427.43,236.49L427.71,236.53L427.97,236.51L428.19,236.42L500.00,194.96"/><path style="stroke:#000000;stroke-width:0.353" d="M224.27,296.20L224.31,296.44L224.42,296.68L224.60,296.90L224.98,297.19L224.98,500.00"/><path style="stroke:#000000;stroke-width:0.353" d="M224.98,297.19L262.80,319.01L263.14,319.15L263.73,319.29L264.56,319.33L265.38,319.21L266.07,318.93L266.07,367.77L264.61,368.69L263.54,369.54L262.86,370.27L262.13,371.47L261.70,372.46L261.36,373.54L261.15,374.56L260.98,375.94L260.93,377.25L260.98,378.60L261.12,380.01L261.36,381.45L261.70,382.91L262.13,384.40L262.89,386.48L263.58,387.63L264.00,388.10L264.35,388.40L264.87,388.70L265.28,388.83L265.70,388.82L266.07,388.72L266.07,500.00"/><path style="stroke:#000000;stroke-width:0.353" d="M243.45,297.19L242.97,296.79L242.82,296.56L242.74,296.20L242.82,295.84L242.97,295.61L243.45,295.21L243.45,297.19L245.87,298.59L246.24,299.12L246.69,299.63L247.79,300.59L249.14,301.44L250.70,302.15L251.56,302.44L253.37,302.92L253.37,289.48L251.56,289.95L250.70,290.25L249.14,290.96L248.20,291.52L247.20,292.27L246.69,292.76L245.87,293.81L243.45,295.21"/><path style="stroke:#000000;stroke-width:0.353" d="M245.87,293.81L245.87,298.59"/><path style="stroke:#000000;stroke-width:0.353" d="M253.37,302.92L255.79,304.33L256.48,304.59L257.30,304.72L257.95,304.70L258.53,304.59L259.22,304.31L259.22,288.08L258.53,287.80L257.95,287.70L257.30,287.68L256.48,287.80L255.79,288.08L253.37,289.48"/><path style="stroke:#000000;stroke-width:0.353" d="M255.79,304.33L255.79,288.08"/><path style="stroke:#000000;stroke-width:0.353" d="M259.22,304.31L261.64,302.92L263.25,302.50L264.33,302.14L265.89,301.43L267.24,300.59L268.33,299.63L269.16,298.57L269.14,293.81L271.71,295.30L272.12,295.72L272.23,295.96L272.27,296.20L272.19,296.56L271.83,297.00L269.16,298.57"/><path style="stroke:#000000;stroke-width:0.353" d="M259.22,288.08L261.64,289.48L261.64,302.92"/><path style="stroke:#000000;stroke-width:0.353" d="M262.64,500.00L262.64,385.89"/><path style="stroke:#000000;stroke-width:0.353" d="M262.64,370.58L262.64,318.93"/><path style="stroke:#000000;stroke-width:0.353" d="M269.14,293.81L268.77,293.29L268.33,292.76L267.81,292.27L266.58,291.37L265.12,290.59L264.31,290.25L263.46,289.95L261.64,289.48"/><path style="stroke:#000000;stroke-width:0.353" d="M264.35,310.95L264.35,311.22L263.97,310.93L263.79,310.71L263.68,310.48L263.65,310.24L263.68,309.99L263.79,309.75L264.08,309.43L264.35,309.24L264.35,310.95"/><path style="stroke:#000000;stroke-width:0.353" d="M264.35,311.22L270.32,314.67L270.74,315.09L270.87,315.45L270.87,315.69L270.80,315.93L270.56,316.27L270.32,316.47L266.07,318.93"/><path style="stroke:#000000;stroke-width:0.353" d="M264.35,309.24L278.05,301.34L278.05,500.00"/><path style="stroke:#000000;stroke-width:0.353" d="M264.35,283.15L264.35,281.18L263.87,281.57L263.73,281.80L263.65,282.04L263.65,282.29L263.73,282.53L263.97,282.86L264.35,283.15L270.20,286.52L270.17,277.81L264.35,281.18"/><path style="stroke:#000000;stroke-width:0.353" d="M266.07,388.72L270.34,386.20L270.60,385.89L270.76,385.54L270.86,385.08L270.88,384.61L270.88,500.00"/><path style="stroke:#000000;stroke-width:0.353" d="M266.07,367.77L266.56,367.49L265.95,367.84"/><path style="stroke:#000000;stroke-width:0.353" d="M265.34,368.21L266.59,367.49L265.57,368.07"/><path style="stroke:#000000;stroke-width:0.353" d="M266.59,367.49L266.78,367.38L265.68,368.00"/><path style="stroke:#000000;stroke-width:0.353" d="M266.78,367.38L269.67,365.71L269.27,365.94"/><path style="stroke:#000000;stroke-width:0.353" d="M266.07,273.47L266.07,273.50"/><path style="stroke:#000000;stroke-width:0.353" d="M270.88,384.61L270.81,383.80L270.59,382.80L269.66,380.05L269.23,378.56L268.90,377.10L268.66,375.66L268.51,374.25L268.47,372.79L268.51,371.59L268.66,370.36L268.90,369.20L269.23,368.11L269.66,367.12L270.17,366.16"/><path style="stroke:#000000;stroke-width:0.353" d="M270.17,386.32L270.17,500.00"/><path style="stroke:#000000;stroke-width:0.353" d="M270.17,366.23L270.88,365.10L270.81,365.08L270.51,365.22L270.66,365.14"/><path style="stroke:#000000;stroke-width:0.353" d="M269.67,365.71L270.31,365.32L270.18,365.42L270.17,316.56"/><path style="stroke:#000000;stroke-width:0.353" d="M270.31,365.32L270.35,365.32L270.18,365.42"/><path style="stroke:#000000;stroke-width:0.353" d="M270.20,286.52L270.88,286.92"/><path style="stroke:#000000;stroke-width:0.353" d="M270.17,277.81L270.56,277.53L270.74,277.31L270.85,277.07L270.88,276.83"/><path style="stroke:#000000;stroke-width:0.353" d="M270.48,365.23L270.51,365.22L270.35,365.32"/><path style="stroke:#000000;stroke-width:0.353" d="M270.88,365.10L270.88,315.57"/><path style="stroke:#000000;stroke-width:0.353" d="M271.56,297.19L271.56,295.21"/><path style="stroke:#000000;stroke-width:0.353" d="M278.05,301.34L278.37,301.18L278.93,301.01L279.76,300.93L280.79,301.06L281.47,301.34L281.47,500.00"/><path style="stroke:#000000;stroke-width:0.353" d="M281.47,301.34L287.63,304.90L287.63,330.20L290.37,328.62L290.37,307.42L290.37,304.90L289.67,305.16L289.00,305.22L288.19,305.12L287.63,304.90"/><path style="stroke:#000000;stroke-width:0.353" d="M285.90,500.00L285.90,401.06L285.91,400.81L285.96,400.70L286.61,399.72L286.61,500.00"/><path style="stroke:#000000;stroke-width:0.353" d="M286.61,399.72L287.12,398.83L287.65,397.53L287.64,387.77L287.12,385.90L286.43,383.91L286.11,382.84L285.93,381.84L285.91,381.07"/><path style="stroke:#000000;stroke-width:0.353" d="M285.90,381.20L285.90,366.54L285.69,365.09L285.59,363.69L285.59,362.35L285.69,361.05L285.90,359.84L285.90,331.78L285.94,332.02L286.05,332.26L286.22,332.48L286.61,332.77L324.27,354.51L324.27,500.00"/><path style="stroke:#000000;stroke-width:0.353" d="M285.90,359.84L285.90,366.54"/><path style="stroke:#000000;stroke-width:0.353" d="M287.63,330.20L286.61,330.79L286.22,331.08L285.98,331.42L285.90,331.78"/><path style="stroke:#000000;stroke-width:0.353" d="M290.72,287.70L290.72,263.98L291.41,264.26L292.22,264.38L293.06,264.34L293.64,264.20L294.14,263.98L299.96,260.62L299.97,290.97L299.01,291.08L298.17,291.08L297.34,290.99L296.17,290.71L295.17,290.27L290.25,287.43L289.51,287.21L288.84,287.18L288.04,287.32L287.63,287.50L285.92,288.49"/><path style="stroke:#000000;stroke-width:0.353" d="M285.90,260.62L285.94,260.86L286.05,261.10L286.22,261.32L286.61,261.61L286.61,288.09"/><path style="stroke:#000000;stroke-width:0.353" d="M287.65,397.53L287.88,396.76L288.13,395.60L288.27,394.36L288.32,393.06L288.27,391.70L288.13,390.30L287.89,388.86L287.64,387.77"/><path style="stroke:#000000;stroke-width:0.353" d="M286.61,384.43L286.61,332.77"/><path style="stroke:#000000;stroke-width:0.353" d="M286.61,261.61L290.72,263.98"/><path style="stroke:#000000;stroke-width:0.353" d="M290.37,328.62L291.04,328.26L291.80,328.06L292.64,328.01L293.06,328.06L293.64,328.20L294.14,328.42L300.13,331.87L300.46,332.00L301.05,332.14L301.91,332.18L302.50,332.10L303.23,331.86L310.92,327.43L310.92,318.34L310.61,318.11L310.42,317.84L310.35,317.55L310.38,317.35L310.53,317.07L310.80,316.83L315.71,313.99L315.71,310.04L302.02,302.13L302.02,332.17"/><path style="stroke:#000000;stroke-width:0.353" d="M290.37,304.90L295.18,302.12L295.17,329.01"/><path style="stroke:#000000;stroke-width:0.353" d="M294.14,289.67L294.14,263.98"/><path style="stroke:#000000;stroke-width:0.353" d="M295.18,302.12L296.17,301.68L296.94,301.48L297.75,301.35L298.59,301.31L299.84,301.40L300.64,301.57L301.37,301.81L302.02,302.13"/><path style="stroke:#000000;stroke-width:0.353" d="M299.97,290.97L300.66,290.82L301.37,290.58L302.02,290.27L303.38,289.48L303.38,260.62L303.06,260.46L302.50,260.29L301.67,260.21L300.85,260.29L300.46,260.39L299.96,260.62"/><path style="stroke:#000000;stroke-width:0.353" d="M303.38,289.48L310.92,285.13L310.92,275.64L310.53,275.32L310.42,275.14L310.35,274.85L310.38,285.44"/><path style="stroke:#000000;stroke-width:0.353" d="M303.38,260.62L317.08,268.55L317.08,270.50L317.56,270.10L317.71,269.87L317.79,269.51L317.75,269.27L317.56,268.92L317.35,268.71L317.08,268.55"/><path style="stroke:#000000;stroke-width:0.353" d="M310.92,327.43L317.08,323.87L317.08,321.90L317.56,322.29L317.75,322.64L317.79,322.88L317.75,323.13L317.64,323.36L317.35,323.69L317.08,323.87"/><path style="stroke:#000000;stroke-width:0.353" d="M310.35,327.76L310.35,317.55"/><path style="stroke:#000000;stroke-width:0.353" d="M310.92,318.34L317.08,321.90"/><path style="stroke:#000000;stroke-width:0.353" d="M310.92,285.13L315.72,282.35L315.71,278.41L310.92,275.64"/><path style="stroke:#000000;stroke-width:0.353" d="M310.35,274.85L310.47,274.47L310.80,274.13L317.08,270.50"/><path style="stroke:#000000;stroke-width:0.353" d="M311.93,336.74L311.44,336.32L311.30,336.09L311.22,335.74L311.25,335.49L311.44,335.14L311.93,334.74L311.93,336.74L314.35,338.12L314.35,333.35L311.93,334.74"/><path style="stroke:#000000;stroke-width:0.353" d="M311.93,296.82L311.93,297.19L311.44,296.79L311.30,296.56L311.22,296.20L311.30,295.84L311.44,295.61L311.93,295.21L311.93,296.82"/><path style="stroke:#000000;stroke-width:0.353" d="M311.93,297.19L314.35,298.59L315.13,299.59L315.68,300.13L316.91,301.03L318.37,301.81L320.03,302.44L321.85,302.92L324.30,304.33L324.79,304.54L325.37,304.68L325.98,304.72L326.59,304.68L327.19,304.53L327.69,304.31L330.11,302.92L331.07,302.69L332.60,302.21L333.59,301.81L334.35,301.44L335.61,300.65L336.29,300.13L336.82,299.61L337.60,298.62L337.62,293.81L336.80,292.76L335.70,291.80L334.35,290.96L333.59,290.59L331.93,289.95L330.11,289.48L330.11,302.92"/><path style="stroke:#000000;stroke-width:0.353" d="M311.93,295.21L314.35,293.81L314.35,298.59"/><path style="stroke:#000000;stroke-width:0.353" d="M311.93,255.67L314.35,254.28L314.35,259.05L311.93,257.65L311.93,255.67L311.44,256.07L311.30,256.30L311.22,256.66L311.30,257.02L311.44,257.25L311.93,257.65"/><path style="stroke:#000000;stroke-width:0.353" d="M314.35,338.12L314.72,338.66L315.17,339.17L316.26,340.13L317.61,340.97L318.39,341.35L320.05,341.98L321.85,342.45L324.27,343.86L324.96,344.13L325.78,344.25L326.41,344.23L327.01,344.12L327.69,343.85L327.69,327.62L327.01,327.34L326.40,327.23L325.77,327.21L324.96,327.34L324.27,327.62L321.85,329.01L320.03,329.49L318.37,330.12L316.91,330.90L315.68,331.80L315.16,332.30L314.72,332.81L314.35,333.35"/><path style="stroke:#000000;stroke-width:0.353" d="M314.35,293.81L315.16,292.76L315.68,292.27L316.68,291.52L317.61,290.96L319.18,290.25L320.03,289.95L321.85,289.48L321.85,302.92"/><path style="stroke:#000000;stroke-width:0.353" d="M314.35,259.05L314.72,259.59L315.17,260.11L315.69,260.60L316.92,261.50L318.02,262.10L319.20,262.62L320.05,262.92L321.85,263.38L321.85,249.95L320.03,250.42L319.18,250.72L318.37,251.05L316.91,251.83L315.68,252.74L315.16,253.23L314.72,253.74L314.35,254.28"/><path style="stroke:#000000;stroke-width:0.353" d="M315.71,313.99L316.48,313.41L316.83,312.97L317.05,312.50L317.13,312.01L317.05,311.53L316.84,311.06L316.48,310.61L315.71,310.04"/><path style="stroke:#000000;stroke-width:0.353" d="M315.72,282.35L316.47,281.79L316.83,281.35L317.05,280.87L317.13,280.38L317.11,280.14L316.96,279.66L316.67,279.20L316.25,278.78L315.71,278.41"/><path style="stroke:#000000;stroke-width:0.353" d="M321.85,342.45L321.85,329.01"/><path style="stroke:#000000;stroke-width:0.353" d="M321.85,289.48L324.27,288.08L324.30,304.33"/><path style="stroke:#000000;stroke-width:0.353" d="M321.85,249.95L324.27,248.55L324.96,248.27L325.77,248.14L326.40,248.16L327.01,248.27L327.69,248.55L327.69,264.78L327.01,265.06L326.41,265.17L325.78,265.18L324.96,265.06L324.27,264.78L321.85,263.38"/><path style="stroke:#000000;stroke-width:0.353" d="M324.27,354.51L324.77,354.73L325.15,354.84L325.98,354.92L326.81,354.84L327.19,354.73L327.69,354.51L327.69,500.00"/><path style="stroke:#000000;stroke-width:0.353" d="M324.27,343.86L324.27,327.62"/><path style="stroke:#000000;stroke-width:0.353" d="M324.27,288.08L324.96,287.80L325.56,287.70L326.19,287.68L327.00,287.80L327.69,288.08L330.11,289.48"/><path style="stroke:#000000;stroke-width:0.353" d="M324.27,264.78L324.27,248.55"/><path style="stroke:#000000;stroke-width:0.353" d="M366.05,381.07L366.05,381.63L365.92,382.54L365.72,383.32L365.36,384.42L365.36,332.77L327.69,354.51"/><path style="stroke:#000000;stroke-width:0.353" d="M327.69,343.85L330.14,342.45L330.11,329.01L327.69,327.62"/><path style="stroke:#000000;stroke-width:0.353" d="M327.69,304.31L327.69,288.08"/><path style="stroke:#000000;stroke-width:0.353" d="M327.69,264.78L330.14,263.38L330.11,249.95L327.69,248.55"/><path style="stroke:#000000;stroke-width:0.353" d="M330.14,342.45L331.95,341.97L332.80,341.67L333.61,341.34L335.06,340.57L336.29,339.66L336.80,339.17L337.64,338.11L340.31,336.53L340.60,336.21L340.71,335.98L340.75,335.73L340.66,335.37L340.31,334.93L337.62,333.35L337.24,332.81L336.80,332.30L336.28,331.80L335.06,330.90L334.35,330.49L332.79,329.78L331.93,329.49L330.11,329.01"/><path style="stroke:#000000;stroke-width:0.353" d="M330.14,263.38L332.16,262.83L333.61,262.27L334.37,261.90L335.70,261.06L336.29,260.59L336.80,260.10L337.24,259.58L337.62,259.05L337.62,254.28L337.24,253.74L336.80,253.23L336.29,252.74L335.06,251.83L333.92,251.21L332.79,250.72L331.93,250.42L330.11,249.95"/><path style="stroke:#000000;stroke-width:0.353" d="M341.05,318.34L341.05,327.43L334.74,323.78L334.40,323.47L334.21,323.13L334.18,322.76L334.26,322.52L334.40,322.29L334.74,321.99L341.05,318.34L341.43,318.02L341.61,317.64L341.55,317.26L341.35,316.99L341.16,316.83L335.97,313.81L335.49,313.42L335.13,312.97L335.00,312.74L334.85,312.26L334.85,311.77L335.00,311.29L335.48,310.61L336.25,310.04L336.25,313.99"/><path style="stroke:#000000;stroke-width:0.353" d="M334.88,323.87L334.88,321.90"/><path style="stroke:#000000;stroke-width:0.353" d="M336.25,278.41L335.48,278.99L335.13,279.43L334.91,279.90L334.85,280.14L334.85,280.63L335.00,281.11L335.13,281.35L335.49,281.79L335.98,282.19L341.06,285.13L341.05,275.64L336.25,278.41L336.25,282.36"/><path style="stroke:#000000;stroke-width:0.353" d="M334.88,270.50L334.40,270.10L334.21,269.76L334.18,269.51L334.21,269.27L334.32,269.03L334.50,268.81L334.84,268.55L334.88,268.55L334.88,270.50L341.26,274.21L341.55,274.56L341.61,274.95L341.43,275.32L341.05,275.64"/><path style="stroke:#000000;stroke-width:0.353" d="M341.06,285.13L348.59,289.48L348.58,260.62L334.88,268.55"/><path style="stroke:#000000;stroke-width:0.353" d="M336.25,310.04L349.96,302.12L349.95,332.17L350.92,332.14L351.33,332.05L351.87,331.85L357.82,328.42L358.32,328.20L358.91,328.06L359.95,328.03L360.36,328.09L360.92,328.26L364.33,330.20L364.33,304.90L363.62,305.16L362.96,305.22L362.30,305.16L361.59,304.90L361.61,328.63"/><path style="stroke:#000000;stroke-width:0.353" d="M337.64,338.11L337.62,333.35"/><path style="stroke:#000000;stroke-width:0.353" d="M337.60,298.62L340.04,297.18L340.04,295.21L337.62,293.81"/><path style="stroke:#000000;stroke-width:0.353" d="M337.62,259.05L340.04,257.65L340.04,255.68L337.62,254.28"/><path style="stroke:#000000;stroke-width:0.353" d="M340.04,336.72L340.04,334.74"/><path style="stroke:#000000;stroke-width:0.353" d="M340.04,295.21L340.52,295.61L340.71,295.96L340.75,296.20L340.71,296.44L340.60,296.68L340.31,297.00L340.04,297.18"/><path style="stroke:#000000;stroke-width:0.353" d="M340.04,255.68L340.52,256.07L340.66,256.30L340.75,256.66L340.71,256.91L340.52,257.25L340.04,257.65"/><path style="stroke:#000000;stroke-width:0.353" d="M341.05,327.43L348.58,331.78L349.27,332.06L349.95,332.17"/><path style="stroke:#000000;stroke-width:0.353" d="M341.61,317.55L341.61,327.76"/><path style="stroke:#000000;stroke-width:0.353" d="M341.61,274.85L341.61,285.46"/><path style="stroke:#000000;stroke-width:0.353" d="M348.59,289.48L349.95,290.27L350.59,290.58L351.33,290.82L352.00,290.97L352.00,260.62L351.50,260.39L351.12,260.29L350.29,260.21L349.46,260.29L348.90,260.46L348.58,260.62"/><path style="stroke:#000000;stroke-width:0.353" d="M349.96,302.12L350.95,301.68L351.72,301.48L352.53,301.35L353.79,301.32L355.12,301.50L355.79,301.68L356.48,301.96L361.59,304.90"/><path style="stroke:#000000;stroke-width:0.353" d="M352.00,290.97L353.37,291.09L354.21,291.04L355.03,290.92L355.79,290.71L356.48,290.43L357.82,289.68L357.82,284.45L357.82,263.98L352.00,260.62"/><path style="stroke:#000000;stroke-width:0.353" d="M356.80,329.01L356.80,302.13"/><path style="stroke:#000000;stroke-width:0.353" d="M357.82,263.98L358.32,264.20L358.71,264.30L359.53,264.39L360.36,264.30L360.75,264.20L361.25,263.98L361.25,287.70L357.82,289.68"/><path style="stroke:#000000;stroke-width:0.353" d="M361.25,287.70L361.85,287.37L362.30,287.24L362.96,287.17L363.46,287.21L364.20,287.44L366.06,288.50"/><path style="stroke:#000000;stroke-width:0.353" d="M361.25,263.98L365.36,261.61L365.36,288.09"/><path style="stroke:#000000;stroke-width:0.353" d="M364.33,397.53L364.08,396.76L363.84,395.60L363.69,394.36L363.64,393.06L363.69,391.72L363.84,390.30L364.08,388.86L364.32,387.77L364.33,397.57L364.84,398.83L365.36,399.72L365.36,500.00"/><path style="stroke:#000000;stroke-width:0.353" d="M366.06,500.00L366.06,401.06L366.03,400.75L365.36,399.72"/><path style="stroke:#000000;stroke-width:0.353" d="M365.36,384.42L364.84,385.90L364.32,387.77"/><path style="stroke:#000000;stroke-width:0.353" d="M365.36,332.77L365.72,332.49L365.97,332.16L366.06,331.78L365.98,331.42L365.74,331.08L365.50,330.88L364.33,330.20"/><path style="stroke:#000000;stroke-width:0.353" d="M364.33,304.90L370.49,301.34L370.49,500.00"/><path style="stroke:#000000;stroke-width:0.353" d="M365.36,261.61L365.72,261.33L365.92,261.10L366.03,260.86L366.06,260.62"/><path style="stroke:#000000;stroke-width:0.353" d="M366.06,381.42L366.06,366.55L366.34,364.29L366.38,363.01L366.06,362.84L366.06,366.55"/><path style="stroke:#000000;stroke-width:0.353" d="M366.38,363.01L366.34,361.78L366.21,360.61L366.06,359.85L366.06,362.84"/><path style="stroke:#000000;stroke-width:0.353" d="M366.06,359.85L366.06,331.78"/><path style="stroke:#000000;stroke-width:0.353" d="M370.49,301.34L370.81,301.18L371.38,301.01L371.99,300.93L372.62,300.95L373.59,301.18L374.56,301.71L387.61,309.24L387.61,311.22L387.97,310.95L388.17,310.71L388.28,310.48L388.32,310.23L388.28,309.99L388.17,309.75L387.88,309.43L387.61,309.24"/><path style="stroke:#000000;stroke-width:0.353" d="M373.91,500.00L373.91,301.34"/><path style="stroke:#000000;stroke-width:0.353" d="M379.70,296.08L379.77,295.84L379.92,295.61L380.40,295.21L380.41,297.19L380.13,297.00L379.84,296.68L379.70,296.32L379.70,296.08"/><path style="stroke:#000000;stroke-width:0.353" d="M381.08,500.00L381.08,384.76L381.14,385.27L381.26,385.67L381.45,386.01L381.71,386.27L385.90,388.71L386.28,388.82L386.63,388.83L387.00,388.74L387.35,388.57L387.84,388.22L388.58,387.37L388.84,386.93L389.32,385.89L389.32,500.00"/><path style="stroke:#000000;stroke-width:0.353" d="M381.08,384.76L381.14,383.89L381.36,382.85L382.30,380.05L382.73,378.56L383.07,377.10L383.31,375.66L383.45,374.25L383.50,372.90L383.45,371.59L383.31,370.36L383.07,369.20L382.73,368.11L382.30,367.12L381.08,365.10L381.20,365.09L381.60,365.31L381.48,365.23"/><path style="stroke:#000000;stroke-width:0.353" d="M381.53,365.25L381.60,365.31L381.32,365.14"/><path style="stroke:#000000;stroke-width:0.353" d="M381.60,365.31L381.63,365.33L381.28,365.13"/><path style="stroke:#000000;stroke-width:0.353" d="M386.33,368.02L386.15,367.92L386.61,368.21L381.79,365.42L381.79,316.56L381.40,316.27L381.23,316.05L381.12,315.81L381.08,315.57L381.08,365.10"/><path style="stroke:#000000;stroke-width:0.353" d="M387.61,311.22L381.63,314.69L381.23,315.09L381.12,315.33L381.08,315.57"/><path style="stroke:#000000;stroke-width:0.353" d="M380.41,297.19L382.82,298.59L383.20,299.12L383.64,299.64L384.16,300.13L385.40,301.04L386.84,301.81L387.67,302.15L388.53,302.45L390.32,302.92L390.32,289.48L388.51,289.95L387.65,290.25L386.09,290.96L384.74,291.80L384.15,292.27L383.64,292.76L382.82,293.81L380.40,295.21"/><path style="stroke:#000000;stroke-width:0.353" d="M381.09,286.92L387.61,283.16L387.99,282.86L388.17,282.64L388.28,282.41L388.32,282.16L388.28,281.92L388.17,281.69L387.75,281.26L381.65,277.73L381.23,277.31L381.12,277.07L381.08,276.83"/><path style="stroke:#000000;stroke-width:0.353" d="M381.79,500.00L381.79,386.32"/><path style="stroke:#000000;stroke-width:0.353" d="M381.79,366.23L381.79,366.17"/><path style="stroke:#000000;stroke-width:0.353" d="M382.69,365.94L381.63,365.33L381.79,365.42L381.68,365.34"/><path style="stroke:#000000;stroke-width:0.353" d="M382.31,365.72L382.36,365.72"/><path style="stroke:#000000;stroke-width:0.353" d="M381.79,316.56L385.90,318.93L386.40,319.15L386.98,319.29L387.82,319.33L388.63,319.21L389.32,318.93L389.32,370.58L388.88,370.01L388.27,369.41L387.35,368.69L386.61,368.21"/><path style="stroke:#000000;stroke-width:0.353" d="M382.82,298.59L382.82,293.81"/><path style="stroke:#000000;stroke-width:0.353" d="M381.79,286.51L381.79,277.81"/><path style="stroke:#000000;stroke-width:0.353" d="M385.16,367.37L385.98,367.82L385.90,367.77L385.90,318.93"/><path style="stroke:#000000;stroke-width:0.353" d="M385.90,500.00L385.90,388.71"/><path style="stroke:#000000;stroke-width:0.353" d="M386.24,367.97L385.41,367.49L386.15,367.92L385.98,367.82"/><path style="stroke:#000000;stroke-width:0.353" d="M386.42,368.09L385.41,367.49L385.90,367.77"/><path style="stroke:#000000;stroke-width:0.353" d="M386.06,367.86L385.41,367.49"/><path style="stroke:#000000;stroke-width:0.353" d="M387.61,283.16L387.61,281.18"/><path style="stroke:#000000;stroke-width:0.353" d="M389.32,385.89L389.84,384.40L390.26,382.91L390.60,381.45L390.84,380.01L390.99,378.60L391.03,377.25L390.99,375.94L390.84,374.71L390.60,373.54L390.26,372.46L389.84,371.47L389.32,370.58"/><path style="stroke:#000000;stroke-width:0.353" d="M389.32,318.93L426.98,297.19L426.98,500.00"/><path style="stroke:#000000;stroke-width:0.353" d="M390.32,302.92L392.74,304.31L392.74,288.08L390.32,289.48"/><path style="stroke:#000000;stroke-width:0.353" d="M392.74,304.31L393.43,304.59L394.46,304.72L395.48,304.59L396.17,304.31L396.17,288.08L395.48,287.80L394.46,287.67L393.43,287.80L392.74,288.08"/><path style="stroke:#000000;stroke-width:0.353" d="M396.17,304.31L398.59,302.92L398.59,289.48L396.17,288.08"/><path style="stroke:#000000;stroke-width:0.353" d="M398.59,302.92L400.41,302.44L401.26,302.15L402.83,301.44L403.53,301.03L404.76,300.13L405.28,299.63L405.72,299.12L406.09,298.59L406.09,293.81L408.51,295.21L408.51,297.19L406.09,298.59"/><path style="stroke:#000000;stroke-width:0.353" d="M398.59,289.48L400.41,289.95L401.26,290.25L402.07,290.59L403.53,291.37L404.76,292.27L405.28,292.76L405.72,293.29L406.09,293.81"/><path style="stroke:#000000;stroke-width:0.353" d="M408.51,297.19L408.78,297.00L409.08,296.68L409.18,296.44L409.22,296.20L409.14,295.84L408.99,295.61L408.51,295.21"/><path style="stroke:#000000;stroke-width:0.353" d="M426.98,297.19L427.37,296.90L427.55,296.68L427.65,296.44L427.69,296.20"/><path style="stroke:#000000;stroke-width:0.353" d="M224.27,500.00L224.27,296.20L224.35,295.84L224.60,295.50L224.98,295.21L262.64,273.47L263.14,273.24L263.93,273.08L264.98,273.10L265.57,273.24L265.91,273.38L270.32,275.93L270.56,276.13L270.80,276.46L270.88,276.83L270.88,286.92L278.37,291.22L279.15,291.42L279.97,291.46L280.79,291.34L281.47,291.06L285.90,288.50L285.90,260.62L285.98,260.26L286.13,260.03L286.61,259.63L324.27,237.88L324.77,237.66L325.15,237.56L325.98,237.48L326.81,237.56L327.19,237.66L327.69,237.88L365.36,259.63L365.84,260.03L365.98,260.26L366.06,260.62L366.06,288.50L370.49,291.06L371.18,291.34L371.99,291.46L372.83,291.42L373.59,291.22L381.08,286.92L381.08,276.83L381.16,276.46L381.40,276.13L381.79,275.84L386.05,273.38L386.40,273.24L386.98,273.10L388.03,273.08L388.82,273.24L389.32,273.47L426.98,295.21L427.37,295.50L427.61,295.84L427.69,296.20L427.69,500.00"/><path style="stroke:#000000;stroke-width:0.353" d="M316.79,200.00L316.08,200.22L315.32,200.34L314.53,200.36L313.70,200.28L312.84,200.09L311.97,199.81L311.08,199.44L310.19,198.96L309.29,198.40L308.40,197.75L307.42,196.92L306.67,196.22L305.84,195.35L305.05,194.41L304.29,193.42L303.58,192.38L302.92,191.30L302.32,190.18L301.77,189.05L301.29,187.90L300.88,186.74L300.53,185.59L300.26,184.45L300.07,183.32L299.95,182.23L299.91,181.17L299.95,180.16L300.07,179.20L300.26,178.31L300.53,177.48L300.88,176.72L301.29,176.04L301.77,175.44L302.32,174.94L302.92,174.52L303.58,174.21L304.29,173.99L305.05,173.87L305.84,173.85L306.67,173.93L307.53,174.11L308.40,174.39L309.29,174.77L310.19,175.24L311.08,175.81L311.97,176.45L312.84,177.18L313.70,177.99L314.53,178.86L315.32,179.80L316.08,180.79L316.79,181.83L317.45,182.91L318.05,184.02L318.60,185.16L319.08,186.31L319.49,187.47L319.84,188.62L320.11,189.76L320.30,190.88L320.42,191.98L320.46,193.03L320.42,194.05L320.30,195.00L320.11,195.90L319.84,196.73L319.49,197.49L319.08,198.17L318.60,198.76L318.05,199.27L317.45,199.68L316.79,200.00L317.44,199.80"/><path style="stroke:#000000;stroke-width:0.353" d="M303.48,187.28L303.34,187.72L303.71,188.60L304.13,189.48L304.59,190.33L305.10,191.16L305.65,191.97L306.23,192.73L306.84,193.45L307.48,194.12L307.72,194.35L308.14,194.74L308.81,195.30L309.50,195.80L310.19,196.23L309.78,194.94L309.56,194.35L309.32,193.79L309.06,193.26L308.67,192.58L308.16,191.81L307.82,191.36L307.46,190.93L307.06,190.51L306.64,190.10L306.19,189.69L305.70,189.30L305.18,188.90L304.61,188.51L303.34,187.72L303.02,186.82L302.75,185.94L302.55,185.06L302.40,184.19L302.31,183.35L302.28,182.54L302.31,181.76L302.40,181.02L302.55,180.33L302.75,179.69L303.02,179.11L303.34,178.58L303.77,179.45L303.95,179.88L304.09,180.31L304.20,180.74L304.29,181.18L304.35,181.62L304.38,182.07L304.40,182.54L304.38,183.02L304.35,183.51L304.20,184.56L303.95,185.72L303.77,186.34L303.48,187.28"/><path style="stroke:#000000;stroke-width:0.353" d="M303.34,187.72L311.25,183.15L318.02,191.58L318.01,191.72L310.19,196.23L311.46,195.91L312.72,195.62L313.91,195.41L314.67,195.32L315.01,195.29L315.63,195.28L316.16,195.33L316.63,195.44L317.03,195.62L316.66,196.08L316.25,196.46L315.78,196.79L315.27,197.03L314.72,197.20L314.14,197.29L313.53,197.31L312.89,197.24L312.72,197.21L312.23,197.10L311.56,196.89L310.87,196.60L310.19,196.23"/><path style="stroke:#000000;stroke-width:0.353" d="M310.19,177.97L309.78,177.80L309.32,177.69L309.06,177.65L308.48,177.63L307.82,177.67L306.97,177.77L305.78,177.99L304.61,178.26L303.34,178.58L303.71,178.13L304.13,177.74L304.59,177.42L305.10,177.18L305.65,177.01L306.23,176.91L306.84,176.90L307.48,176.96L308.14,177.10L308.81,177.32L309.50,177.61L310.19,177.97L310.87,178.41L311.25,178.68L311.25,183.15"/><path style="stroke:#000000;stroke-width:0.353" d="M305.99,157.66L307.24,157.05L308.60,156.64L310.03,156.41L311.54,156.37L312.72,156.49L313.11,156.53L314.74,156.88L316.40,157.41L318.09,158.13L319.79,159.02L321.49,160.09L323.18,161.32L324.84,162.71L326.46,164.24L326.85,164.65L328.04,165.90L329.55,167.68L330.98,169.56L332.33,171.54L333.59,173.59L334.74,175.71L335.78,177.86L336.69,180.05L337.48,182.25L338.13,184.44L338.38,185.51L338.64,186.61L339.01,188.74L339.23,190.82L339.30,192.83L339.23,194.75L339.01,196.57L338.64,198.27L338.13,199.85L337.48,201.29L336.69,202.58L335.78,203.71L334.74,204.68L333.59,205.46"/><path style="stroke:#000000;stroke-width:0.353" d="M311.25,178.68L311.56,178.91L312.23,179.47L312.89,180.09L313.53,180.76L314.14,181.49L314.72,182.24L315.27,183.04L315.78,183.88L316.24,184.73L316.66,185.61L317.03,186.49L317.35,187.38L317.61,188.27L317.82,189.15L317.97,190.01L318.06,190.86L318.08,191.25L318.09,191.67L318.06,192.45L317.97,193.19L317.82,193.88L317.67,194.35L317.61,194.52L317.35,195.10L317.03,195.62L317.47,194.25L317.64,193.62L317.89,192.47L318.01,191.72"/><path style="stroke:#000000;stroke-width:0.353" d="M314.64,203.03L314.66,203.04"/><path style="stroke:#000000;stroke-width:0.353" d="M317.41,204.36L317.43,204.37"/><path style="stroke:#000000;stroke-width:0.353" d="M318.02,191.58L318.07,191.07"/><path style="stroke:#000000;stroke-width:0.353" d="M326.26,161.50L326.53,161.73L327.48,162.62L328.02,162.73L328.66,162.89L329.31,163.11L329.96,163.37L330.61,163.68L331.26,164.03L331.92,164.43L332.56,164.88L333.20,165.37L333.83,165.89L334.45,166.46L335.06,167.05L335.65,167.68L336.22,168.33L336.78,169.01L337.31,169.71L337.82,170.43L338.31,171.17L338.76,171.92L339.19,172.68L339.58,173.45L339.94,174.23L340.26,175.01L340.55,175.79L340.80,176.57L341.01,177.34L341.19,178.10L341.33,178.85L341.43,179.59L341.50,180.31L341.53,181.01L341.52,181.68L341.48,182.33L341.40,182.95L341.28,183.54L341.12,184.10L340.93,184.61L340.70,185.09L340.44,185.51L340.34,185.65L339.82,183.46L339.17,181.27L338.38,179.07L338.29,178.84L338.15,178.12L338.00,177.51L337.82,176.89L337.46,175.86L337.11,175.02L336.81,174.40L336.49,173.79L336.14,173.18L335.77,172.58L335.37,171.99L334.96,171.41L334.52,170.85L334.07,170.31L333.60,169.78L333.25,169.43L334.03,170.56L335.28,172.61L336.43,174.73L337.47,176.89L338.29,178.84"/><path style="stroke:#000000;stroke-width:0.353" d="M326.76,161.20L327.26,160.97L327.78,160.78L328.32,160.64L328.89,160.55L329.47,160.51L330.07,160.52L330.68,160.58L331.31,160.69L331.94,160.85L332.59,161.07L333.24,161.34L333.90,161.65L334.55,162.00L335.21,162.40L335.86,162.84L336.50,163.32L337.14,163.84L337.77,164.38L338.38,164.97L338.98,165.58L339.56,166.22L340.12,166.89L340.65,167.58L341.16,168.29L341.64,169.02L342.10,169.78L342.52,170.54L342.91,171.31L343.27,172.09L343.60,172.88L343.90,173.66L344.16,174.45L344.39,175.23L344.58,175.99L344.74,176.75L344.85,177.49L344.94,178.22L344.98,178.92L344.98,179.59L344.94,180.24L344.86,180.86L344.74,181.45L344.58,182.00L344.39,182.51L344.16,182.99L343.89,183.43L343.59,183.83L343.26,184.19L342.91,184.51L342.52,184.78"/><path style="stroke:#000000;stroke-width:0.353" d="M328.04,206.74L327.85,206.72"/><path style="stroke:#000000;stroke-width:0.353" d="M327.48,162.62L328.16,163.26L329.73,164.92L331.11,166.55L332.68,168.58L333.25,169.43"/><path style="stroke:#000000;stroke-width:0.353" d="M326.85,161.16L326.86,161.14"/><path style="stroke:#000000;stroke-width:0.353" d="M327.08,162.25L327.37,162.26L327.99,162.34L328.62,162.47L329.26,162.65L329.91,162.87L330.56,163.14L331.22,163.45L331.87,163.82L332.52,164.23L333.17,164.68L333.60,165.02L334.40,165.53L334.93,165.91L335.44,166.32L335.96,166.76L336.45,167.22L336.94,167.71L337.42,168.22L337.87,168.76L338.31,169.31L338.72,169.88L339.12,170.46L339.49,171.07L339.84,171.68L340.16,172.29L340.46,172.92L340.73,173.55L340.97,174.18L341.19,174.80L341.38,175.42L341.54,176.04L341.68,176.64L341.78,177.24L341.85,177.82L341.89,178.38L341.89,179.08L342.00,180.15L342.02,180.85L342.01,181.52L341.96,182.16L341.87,182.78L341.74,183.36L341.58,183.91L341.38,184.42L341.14,184.89L340.81,185.38"/><path style="stroke:#000000;stroke-width:0.353" d="M330.08,159.25L330.57,159.00L331.08,158.80L331.62,158.66L332.18,158.57L332.76,158.53L333.36,158.54L333.98,158.60L334.61,158.71L335.25,158.87L335.89,159.08L336.55,159.33L337.20,159.63L337.86,159.97L338.52,160.35L339.18,160.78L339.82,161.23L340.45,161.73L341.08,162.27L341.69,162.85L342.28,163.46L342.76,163.98L343.42,164.76L343.95,165.46L344.46,166.17L344.95,166.91L345.41,167.66L345.85,168.43L346.26,169.20L346.63,169.98L346.97,170.77L347.28,171.55L347.56,172.33L347.80,173.11L348.00,173.87L348.16,174.63L348.27,175.37L348.35,176.09L348.39,176.79L348.39,177.46L348.35,178.12L348.28,178.74L348.16,179.34L348.02,179.90L347.83,180.43L347.61,180.93L347.36,181.39L347.08,181.80L346.77,182.18L346.42,182.50L346.09,182.75L345.74,182.96"/><path style="stroke:#000000;stroke-width:0.353" d="M328.67,160.40L328.91,160.34L329.48,160.26L330.06,160.23L330.66,160.24L331.28,160.31L331.91,160.43L332.55,160.61L333.19,160.83L333.85,161.10L334.50,161.42L335.16,161.79L335.81,162.19L336.46,162.64L336.89,162.96L337.20,163.14L337.73,163.48L338.26,163.84L338.78,164.24L339.29,164.67L339.78,165.13L340.27,165.62L340.74,166.13L341.19,166.66L341.63,167.22L342.05,167.79L342.45,168.38L342.83,168.98L343.19,169.59L343.52,170.21L343.83,170.84L344.11,171.46L344.37,172.09L344.59,172.71L344.79,173.33L344.96,173.95L345.09,174.55L345.20,175.14L345.27,175.72L345.30,176.27L345.30,176.97L345.36,177.34L345.43,178.06L345.47,178.76L345.46,179.43L345.42,180.07L345.33,180.69L345.20,181.27L345.04,181.81L344.84,182.32L344.60,182.79L344.33,183.22L344.19,183.40"/><path style="stroke:#000000;stroke-width:0.353" d="M332.07,158.39L332.21,158.36L332.77,158.27L333.36,158.24L333.96,158.26L334.58,158.34L335.21,158.46L335.85,158.62L336.50,158.84L337.15,159.10L337.81,159.40L338.47,159.75L339.12,160.14L339.77,160.57L340.31,160.96L341.04,161.41L341.57,161.78L342.09,162.18L342.60,162.61L343.10,163.07L343.59,163.56L344.06,164.07L344.53,164.60L344.97,165.15L345.40,165.72L345.81,166.30L346.20,166.89L346.56,167.50L346.90,168.11L347.21,168.73L347.50,169.35L347.75,169.98L347.98,170.60L348.17,171.22L348.34,171.83L348.47,172.44L348.58,173.04L348.66,173.62L348.71,174.19L348.72,174.83L348.67,174.48L348.51,173.73L348.32,172.96L348.09,172.19L347.82,171.41L347.52,170.62L347.18,169.84L346.81,169.06L346.41,168.28L345.98,167.51L345.52,166.76L344.83,165.72L344.53,165.30L344.00,164.60L343.45,163.93L342.71,163.11L342.28,162.67L341.68,162.09L341.05,161.55L340.31,160.96"/><path style="stroke:#000000;stroke-width:0.353" d="M335.78,203.71L334.10,204.23L332.30,204.68"/><path style="stroke:#000000;stroke-width:0.353" d="M333.60,165.02L334.43,165.71L335.05,166.28L335.65,166.88L336.22,167.48L336.81,168.17L337.36,168.85L337.89,169.55L338.40,170.28L338.88,171.02L339.33,171.77L339.75,172.54L340.13,173.30L340.49,174.09L340.81,174.87L341.09,175.65L341.33,176.42L341.54,177.19L341.71,177.95L341.84,178.70L341.89,179.08"/><path style="stroke:#000000;stroke-width:0.353" d="M349.13,180.96L349.54,180.73L349.92,180.45L350.27,180.13L350.58,179.76L350.86,179.34L351.11,178.89L351.32,178.38L351.49,177.85L351.62,177.27L351.72,176.66L351.78,176.02L351.80,175.36L351.79,174.67L351.74,173.96L351.65,173.23L351.53,172.48L351.36,171.73L351.17,170.96L350.93,170.18L350.66,169.41L350.35,168.63L350.01,167.85L349.63,167.07L349.21,166.31L348.77,165.55L348.30,164.81L347.80,164.08L347.27,163.37L346.73,162.68L346.16,162.01L345.58,161.37L344.98,160.77L344.36,160.19L343.74,159.65L343.10,159.14L342.46,158.68L341.81,158.26L341.16,157.89L340.50,157.56L339.85,157.28L339.20,157.05L338.56,156.86L337.92,156.72L337.30,156.63L336.68,156.59L336.09,156.59L335.50,156.64L334.94,156.74L334.40,156.88L333.89,157.08L333.40,157.32"/><path style="stroke:#000000;stroke-width:0.353" d="M333.97,156.99L333.92,157.02"/><path style="stroke:#000000;stroke-width:0.353" d="M335.50,156.44L336.09,156.34L336.72,156.30L337.28,156.31L337.89,156.36L338.52,156.46L339.16,156.61L339.80,156.81L340.45,157.05L341.11,157.34L341.76,157.67L342.41,158.05L343.06,158.48L343.86,159.07L344.36,159.39L344.89,159.75L345.41,160.15L345.93,160.57L346.43,161.02L346.93,161.49L347.41,161.99L347.88,162.51L348.33,163.05L348.75,163.61L349.16,164.19L349.55,164.78L349.91,165.39L350.25,166.00L350.56,166.62L350.85,167.25L351.11,167.88L351.34,168.50L351.55,169.13L351.72,169.75L351.87,170.36L351.99,170.96L352.08,171.55L352.14,172.12L352.17,172.67L352.16,173.11L352.24,173.80L352.28,174.51L352.29,175.20L352.26,175.86L352.19,176.49L352.09,177.09L351.95,177.66L351.77,178.19L351.56,178.69L351.31,179.14L351.09,179.45"/><path style="stroke:#000000;stroke-width:0.353" d="M336.89,162.96L337.74,163.65L338.36,164.20L338.98,164.79L339.57,165.41L340.14,166.06L340.68,166.70L341.23,167.42L341.74,168.14L342.21,168.87L342.66,169.63L343.29,170.82L343.82,171.95L344.15,172.74L344.44,173.52L344.69,174.30L344.91,175.08L345.10,175.85L345.25,176.60L345.30,176.97"/><path style="stroke:#000000;stroke-width:0.353" d="M352.62,178.95L353.02,178.69L353.39,178.39L353.73,178.05L354.04,177.67L354.32,177.25L354.57,176.79L354.78,176.29L354.95,175.75L355.09,175.18L355.18,174.58L355.24,173.94L355.25,173.27L355.23,172.58L355.16,171.86L355.06,171.13L354.92,170.38L354.74,169.61L354.53,168.84L354.28,168.06L354.00,167.27L353.69,166.49L353.34,165.70L352.96,164.93L352.55,164.16L352.11,163.41L351.64,162.67L351.14,161.94L350.61,161.24L350.06,160.57L349.49,159.91L348.90,159.29L348.29,158.69L347.67,158.13L347.04,157.60L346.40,157.10L345.75,156.65L345.10,156.23L344.44,155.86L343.79,155.53L343.13,155.24L342.48,155.01L341.84,154.82L341.21,154.69L340.59,154.61L339.99,154.58L339.40,154.60L339.22,154.62L338.83,154.67L338.27,154.79L337.74,154.96L337.23,155.17L336.75,155.43"/><path style="stroke:#000000;stroke-width:0.353" d="M338.94,154.47L339.42,154.37L339.99,154.31L340.58,154.30L341.19,154.34L341.81,154.43L342.45,154.57L343.09,154.76L343.74,155.01L344.39,155.30L345.04,155.64L345.70,156.02L346.35,156.44L347.16,157.03L347.69,157.35L348.22,157.70L348.75,158.08L349.26,158.49L349.77,158.93L350.26,159.40L350.74,159.90L351.20,160.42L351.65,160.96L352.08,161.52L352.49,162.10L352.88,162.69L353.25,163.30L353.60,163.92L353.92,164.54L354.22,165.17L354.49,165.79L354.73,166.42L354.95,167.04L355.14,167.66L355.29,168.27L355.41,168.87L355.50,169.45L355.56,170.02L355.58,170.57L355.58,171.06L355.43,170.23L355.26,169.47L355.06,168.69L354.82,167.91L354.54,167.13L354.23,166.34L353.89,165.56L353.58,164.91L353.11,164.01L352.68,163.26L352.21,162.51L351.72,161.79L351.19,161.09L350.65,160.40L350.08,159.75L349.49,159.12L348.89,158.52L348.27,157.94L347.64,157.41L347.16,157.03"/><path style="stroke:#000000;stroke-width:0.353" d="M340.34,185.65L340.38,185.87"/><path style="stroke:#000000;stroke-width:0.353" d="M356.21,176.92L356.54,176.69L356.90,176.38L357.22,176.03L357.52,175.63L357.79,175.19L358.02,174.71L358.22,174.20L358.38,173.65L358.51,173.06L358.60,172.45L358.65,171.81L358.67,171.14L358.65,170.45L358.57,169.61L358.48,169.01L358.34,168.26L358.15,167.50L357.93,166.73L357.67,165.95L357.38,165.16L357.05,164.38L356.69,163.60L356.29,162.82L355.87,162.05L355.42,161.29L354.94,160.55L354.44,159.82L353.91,159.12L353.37,158.44L352.80,157.79L352.21,157.17L351.61,156.58L350.98,156.03L350.35,155.51L349.71,155.03L349.06,154.59L348.41,154.19L347.75,153.83L347.09,153.52L346.43,153.25L345.78,153.02L345.14,152.84L344.51,152.71L343.89,152.63L343.28,152.59L342.69,152.61L342.12,152.68L341.58,152.81L341.05,152.98L340.55,153.21L340.08,153.49"/><path style="stroke:#000000;stroke-width:0.353" d="M340.65,153.15L340.63,153.17"/><path style="stroke:#000000;stroke-width:0.353" d="M350.55,155.01L350.95,155.32L351.59,155.84L352.20,156.40L352.80,156.99L353.39,157.62L353.95,158.27L354.50,158.96L355.02,159.67L355.52,160.39L355.99,161.14L356.43,161.90L356.89,162.75L357.24,163.45L357.59,164.23L357.92,165.02L358.21,165.80L358.46,166.58L358.66,167.28L358.85,168.11L358.99,168.86L358.99,168.49L358.95,167.93L358.89,167.35L358.80,166.76L358.67,166.16L358.52,165.55L358.33,164.93L358.12,164.31L357.88,163.69L357.60,163.06L357.30,162.44L356.97,161.82L356.62,161.21L356.24,160.61L355.84,160.03L355.42,159.45L354.98,158.89L354.53,158.35L354.06,157.84L353.57,157.34L353.08,156.87L352.57,156.42L352.06,156.01L351.54,155.63L351.01,155.28L350.55,155.01L349.66,154.39L349.01,153.98L348.35,153.61L347.69,153.29L347.04,153.01L346.39,152.78L345.74,152.59L345.11,152.45L344.48,152.35L343.87,152.31L343.28,152.32L342.71,152.38L342.35,152.46"/><path style="stroke:#000000;stroke-width:0.353" d="M343.86,159.07L344.34,159.46L344.96,160.01L345.57,160.59L346.17,161.20L346.75,161.85L347.34,162.55L347.86,163.21L348.37,163.92L348.87,164.65L349.34,165.40L349.78,166.16L350.18,166.93L350.56,167.70L350.90,168.48L351.20,169.26L351.47,170.04L351.69,170.82L351.89,171.58L352.04,172.34L352.16,173.11"/><path style="stroke:#000000;stroke-width:0.353" d="M343.91,151.26L343.97,151.22"/><path style="stroke:#000000;stroke-width:0.353" d="M343.40,151.55L343.87,151.28L344.37,151.06L344.89,150.88L345.44,150.76L346.01,150.68L346.60,150.65L347.21,150.67L347.83,150.73L348.46,150.85L349.10,151.01L349.74,151.21L350.39,151.47L351.05,151.77L351.70,152.11L352.35,152.50L353.00,152.94L353.64,153.42L354.27,153.94L354.89,154.49L355.50,155.08L356.09,155.71L356.67,156.35L357.23,157.03L357.76,157.73L358.28,158.45L358.76,159.18L359.23,159.93L359.66,160.69L360.06,161.46L360.42,162.24L360.76,163.02L361.05,163.80L361.31,164.58L361.53,165.35L361.71,166.11L361.86,166.87L361.96,167.60L362.04,168.33L362.07,169.03L362.07,169.71L362.03,170.36L361.95,170.99L361.84,171.58L361.69,172.14L361.50,172.67L361.28,173.15L361.02,173.59L360.73,173.99L360.40,174.34L360.04,174.65L359.65,174.91"/><path style="stroke:#000000;stroke-width:0.353" d="M361.36,173.52L361.46,173.39L361.73,172.95L361.96,172.47L362.15,171.96L362.30,171.40L362.42,170.81L362.51,170.19L362.55,169.55L362.56,168.87L362.53,168.17L362.43,167.18L362.42,166.42L362.38,165.86L362.30,165.27L362.19,164.68L362.06,164.07L361.89,163.45L361.70,162.83L361.48,162.21L361.23,161.58L360.95,160.95L360.65,160.33L360.33,159.71L359.97,159.10L359.60,158.51L359.20,157.92L358.78,157.36L358.34,156.81L357.88,156.28L357.40,155.77L356.91,155.28L356.41,154.82L355.90,154.39L355.38,153.98L354.85,153.60L354.16,153.16L353.60,152.74L352.96,152.30L352.31,151.90L351.65,151.54L350.89,151.19L350.35,150.97L349.70,150.76L349.06,150.59L348.42,150.47L347.80,150.39L347.20,150.37L346.60,150.39L346.03,150.46L345.77,150.51"/><path style="stroke:#000000;stroke-width:0.353" d="M347.65,181.40L347.80,181.18L348.06,180.73L348.28,180.24L348.47,179.72L348.63,179.16L348.75,178.57L348.83,177.95L348.88,177.30L348.88,176.63L348.85,175.93L348.78,175.21L348.72,174.83"/><path style="stroke:#000000;stroke-width:0.353" d="M363.13,172.87L363.51,172.59L363.87,172.27L364.19,171.91L364.48,171.50L364.74,171.06L364.97,170.57L365.16,170.05L365.31,169.49L365.42,168.90L365.49,168.28L365.52,167.62L365.51,166.94L365.46,166.23L365.38,165.50L365.25,164.76L365.09,164.00L364.89,163.23L364.66,162.45L364.39,161.67L364.09,160.88L363.76,160.10L363.39,159.32L362.99,158.55L362.57,157.79L362.11,157.04L361.62,156.31L361.10,155.60L360.56,154.92L360.00,154.25L359.42,153.62L358.82,153.01L358.20,152.43L357.57,151.88L356.94,151.37L356.29,150.90L355.64,150.47L354.98,150.07L354.33,149.72L353.67,149.42L353.02,149.17L352.38,148.96L351.75,148.81L351.12,148.71L350.51,148.66L349.82,148.67L349.33,148.71L348.77,148.81L348.23,148.95L347.71,149.15L347.22,149.38"/><path style="stroke:#000000;stroke-width:0.353" d="M349.21,148.54L349.36,148.50L349.93,148.41L350.51,148.37L351.11,148.38L351.72,148.44L352.35,148.55L352.98,148.71L353.63,148.93L354.28,149.19L354.93,149.50L355.59,149.86L356.24,150.26L356.89,150.70L357.47,151.12L358.18,151.56L358.71,151.92L359.23,152.32L359.75,152.74L360.24,153.19L360.73,153.67L361.21,154.18L361.66,154.71L362.10,155.26L362.53,155.83L362.93,156.41L363.31,157.01L363.67,157.62L364.00,158.24L364.32,158.87L364.60,159.49L364.86,160.12L365.11,160.78L365.30,161.37L365.47,161.98L365.62,162.59L365.73,163.18L365.80,163.76L365.85,164.33L365.85,165.15L365.76,164.61L365.61,163.85L365.42,163.08L365.19,162.31L364.93,161.52L364.64,160.74L364.31,159.95L363.96,159.19L363.56,158.40L363.13,157.64L362.68,156.89L362.20,156.16L361.68,155.45L361.15,154.76L360.59,154.09L360.01,153.45L359.41,152.83L358.80,152.25L358.17,151.69L357.47,151.12"/><path style="stroke:#000000;stroke-width:0.353" d="M366.32,171.08L366.65,170.88L367.02,170.59L367.36,170.25L367.67,169.87L367.95,169.45L368.20,168.98L368.41,168.48L368.59,167.95L368.73,167.38L368.84,166.78L368.91,166.15L368.94,165.49L368.93,164.81L368.89,164.11L368.80,163.38L368.67,162.64L368.50,161.89L368.30,161.12L368.05,160.34L367.77,159.56L367.46,158.77L367.11,157.99L366.73,157.21L366.32,156.43L365.88,155.67L365.41,154.92L364.92,154.19L364.41,153.48L363.87,152.79L363.31,152.12L362.73,151.49L362.13,150.89L361.52,150.32L360.89,149.79L360.25,149.30L359.60,148.84L358.92,148.41L358.29,148.05L357.63,147.71L356.98,147.42L356.32,147.18L355.68,146.98L355.04,146.83L354.41,146.72L353.80,146.67L353.21,146.67L352.63,146.72L352.07,146.82L351.54,146.98L351.03,147.18L350.55,147.44"/><path style="stroke:#000000;stroke-width:0.353" d="M353.04,178.70L353.01,178.72"/><path style="stroke:#000000;stroke-width:0.353" d="M352.62,146.53L353.22,146.42L353.80,146.38L354.40,146.39L355.01,146.45L355.64,146.57L356.28,146.73L356.93,146.93L357.58,147.19L358.24,147.49L358.90,147.83L359.55,148.21L360.21,148.64L360.84,149.09L361.50,149.49L362.03,149.85L362.54,150.25L363.06,150.67L363.56,151.13L364.05,151.61L364.53,152.12L364.99,152.64L365.44,153.19L365.87,153.76L366.28,154.34L366.67,154.93L367.04,155.54L367.38,156.15L367.70,156.77L367.99,157.39L368.25,158.02L368.49,158.64L368.69,159.26L368.86,159.87L369.00,160.48L369.11,161.08L369.19,161.66L369.24,162.23L369.26,162.95L369.19,162.49L369.02,161.74L368.82,160.97L368.58,160.20L368.31,159.41L368.00,158.63L367.66,157.84L367.29,157.06L366.88,156.29L366.45,155.52L365.99,154.77L365.50,154.03L364.99,153.32L364.46,152.63L363.90,151.96L363.32,151.32L362.73,150.72L362.11,150.14L361.49,149.60L360.84,149.09"/><path style="stroke:#000000;stroke-width:0.353" d="M354.47,177.48L354.76,177.05L355.02,176.59L355.12,176.35L355.23,176.10L355.41,175.57L355.55,175.00L355.66,174.40L355.72,173.77L355.74,173.11L355.72,172.42L355.66,171.71L355.58,171.06"/><path style="stroke:#000000;stroke-width:0.353" d="M362.43,167.18L362.37,166.72L362.23,165.97L362.05,165.20L361.84,164.43L361.59,163.66L361.30,162.88L360.97,162.10L360.61,161.32L360.22,160.55L359.79,159.79L359.34,159.03L358.85,158.29L358.34,157.57L357.81,156.87L357.26,156.19L356.68,155.53L356.09,154.91L355.49,154.31L354.87,153.75L354.16,153.16"/><path style="stroke:#000000;stroke-width:0.353" d="M353.86,145.50L354.34,145.25L354.85,145.05L355.39,144.89L355.95,144.79L356.53,144.73L357.12,144.72L357.73,144.76L358.36,144.85L358.99,144.98L359.63,145.16L360.28,145.39L360.94,145.66L361.59,145.98L362.24,146.34L362.73,146.64L363.54,147.20L364.18,147.70L364.80,148.23L365.42,148.80L366.02,149.40L366.61,150.04L367.17,150.70L367.72,151.39L368.25,152.10L368.75,152.82L369.26,153.61L369.68,154.32L370.10,155.08L370.48,155.86L370.84,156.64L371.15,157.42L371.44,158.20L371.68,158.97L371.88,159.74L372.05,160.50L372.18,161.24L372.27,161.98L372.33,162.69L372.34,163.38L372.33,164.05L372.27,164.69L372.18,165.30L372.05,165.89L371.89,166.43L371.69,166.94L371.45,167.41L371.18,167.83L370.87,168.21L370.53,168.55L370.15,168.83L369.75,169.07"/><path style="stroke:#000000;stroke-width:0.353" d="M356.53,176.73L356.46,176.76"/><path style="stroke:#000000;stroke-width:0.353" d="M356.04,144.58L356.54,144.49L357.12,144.44L357.72,144.44L358.33,144.49L358.96,144.58L359.59,144.73L360.24,144.91L360.89,145.15L361.54,145.43L362.20,145.76L362.85,146.13L363.50,146.54L364.14,147.00L364.41,147.21L364.81,147.46L365.34,147.82L365.86,148.21L366.38,148.63L366.89,149.08L367.39,149.55L367.87,150.05L368.34,150.57L368.79,151.11L369.23,151.66L369.64,152.24L370.03,152.82L370.40,153.42L370.74,154.04L371.06,154.66L371.35,155.28L371.61,155.91L371.85,156.53L372.05,157.16L372.24,157.78L372.39,158.39L372.52,159.01L372.61,159.59L372.67,160.16L372.70,160.72L372.70,161.24L372.56,160.35L372.40,159.59L372.21,158.83L371.97,158.05L371.70,157.27L371.38,156.49L371.04,155.72L370.66,154.94L370.24,154.17L369.80,153.41L369.33,152.67L368.64,151.69L368.30,151.23L367.76,150.54L367.20,149.87L366.61,149.23L366.01,148.62L365.40,148.05L364.78,147.51L364.41,147.21"/><path style="stroke:#000000;stroke-width:0.353" d="M357.92,175.47L358.23,174.99L358.47,174.52L358.67,174.01L358.84,173.46L359.00,172.72L359.07,172.28L359.14,171.64L359.16,170.98L359.13,170.12L359.09,169.59L358.99,168.86"/><path style="stroke:#000000;stroke-width:0.353" d="M373.24,167.04L373.63,166.78L374.00,166.48L374.33,166.13L374.64,165.75L374.91,165.32L375.15,164.85L375.36,164.35L375.52,163.80L375.65,163.22L375.74,162.61L375.78,161.97L375.79,161.29L375.76,160.60L375.68,159.88L375.58,159.14L375.43,158.38L375.25,157.62L375.03,156.84L374.78,156.06L374.50,155.28L374.18,154.49L373.82,153.71L373.44,152.94L373.02,152.17L372.57,151.42L372.10,150.69L371.59,149.97L371.06,149.27L370.51,148.60L369.93,147.95L369.34,147.33L368.73,146.73L368.11,146.17L367.47,145.65L366.83,145.16L366.18,144.71L365.53,144.30L364.87,143.93L364.22,143.61L363.57,143.33L362.92,143.11L362.28,142.94L361.65,142.82L361.04,142.75L360.43,142.73L359.85,142.75L359.28,142.83L358.72,142.96L358.20,143.13L357.69,143.35L357.21,143.61"/><path style="stroke:#000000;stroke-width:0.353" d="M359.48,142.61L359.86,142.53L360.44,142.47L361.03,142.45L361.63,142.47L362.25,142.55L362.88,142.68L363.52,142.86L364.17,143.10L364.82,143.38L365.48,143.71L366.13,144.08L366.78,144.50L367.73,145.19L368.14,145.43L368.68,145.78L369.20,146.16L369.72,146.56L370.23,147.00L370.72,147.46L371.20,147.95L371.67,148.47L372.12,149.01L372.55,149.56L372.97,150.14L373.36,150.73L373.73,151.34L374.08,151.95L374.41,152.57L374.71,153.20L374.98,153.82L375.23,154.45L375.45,155.08L375.65,155.70L375.81,156.31L375.94,156.91L376.03,157.50L376.10,158.07L376.13,158.62L376.12,159.25L375.95,158.24L375.77,157.47L375.52,156.57L375.32,155.92L375.04,155.13L374.72,154.35L374.38,153.57L374.00,152.79L373.59,152.03L373.14,151.27L372.67,150.53L372.17,149.81L371.64,149.11L371.09,148.43L370.52,147.78L369.93,147.15L369.33,146.56L368.71,145.99L368.07,145.46L367.73,145.19"/><path style="stroke:#000000;stroke-width:0.353" d="M376.75,165.05L377.14,164.78L377.49,164.46L377.81,164.10L378.11,163.69L378.37,163.25L378.60,162.76L378.79,162.24L378.95,161.69L379.07,161.10L379.16,160.48L379.21,159.84L379.22,159.17L379.18,158.48L379.11,157.76L379.00,157.02L378.85,156.27L378.66,155.51L378.43,154.73L378.16,153.95L377.86,153.17L377.53,152.38L377.16,151.60L376.76,150.82L376.34,150.05L375.88,149.30L375.40,148.56L374.90,147.84L374.37,147.14L373.82,146.47L373.24,145.82L372.65,145.21L372.04,144.63L371.42,144.08L370.79,143.57L370.14,143.10L369.49,142.66L368.83,142.27L368.18,141.92L367.52,141.61L366.86,141.34L366.21,141.12L365.57,140.95L364.94,140.83L364.33,140.75L363.72,140.73L363.14,140.76L362.57,140.84L362.03,140.98L361.51,141.16L361.02,141.40"/><path style="stroke:#000000;stroke-width:0.353" d="M362.89,140.60L363.16,140.54L363.73,140.47L364.32,140.45L364.92,140.48L365.54,140.56L366.17,140.69L366.82,140.87L367.47,141.10L368.12,141.38L368.78,141.69L369.44,142.06L370.09,142.46L370.74,142.90L371.08,143.15L371.46,143.37L371.99,143.71L372.51,144.08L373.03,144.49L373.54,144.93L374.03,145.39L374.52,145.88L374.99,146.40L375.45,146.94L375.89,147.49L376.31,148.07L376.71,148.65L377.10,149.25L377.45,149.86L377.79,150.48L378.10,151.10L378.38,151.72L378.63,152.35L378.85,152.97L379.04,153.59L379.19,154.20L379.32,154.80L379.42,155.39L379.49,155.97L379.53,156.53L379.53,157.03L379.37,156.13L379.18,155.36L378.92,154.48L378.70,153.81L378.40,153.02L378.08,152.24L377.72,151.45L377.32,150.68L376.90,149.91L376.46,149.15L375.98,148.41L375.48,147.68L374.95,146.98L374.41,146.30L373.84,145.65L373.25,145.03L372.64,144.45L372.02,143.89L371.39,143.38L371.08,143.15"/><path style="stroke:#000000;stroke-width:0.353" d="M365.85,165.15L365.96,166.08L366.00,166.78L366.00,167.46L365.97,168.11L365.89,168.73L365.77,169.32L365.62,169.87L365.42,170.38L365.19,170.86L364.92,171.30L364.73,171.55"/><path style="stroke:#000000;stroke-width:0.353" d="M380.01,163.16L380.46,162.88L380.88,162.54L381.24,162.16L381.58,161.71L381.86,161.21L382.08,160.72L382.26,160.19L382.40,159.62L382.51,159.02L382.58,158.39L382.61,157.73L382.61,157.05L382.57,156.34L382.49,155.62L382.38,154.88L382.23,154.13L382.04,153.36L381.81,152.59L381.55,151.81L381.25,151.03L380.91,150.25L380.53,149.48L380.12,148.71L379.69,147.95L379.22,147.20L378.73,146.46L378.21,145.75L377.67,145.05L377.12,144.38L376.54,143.73L375.94,143.11L375.33,142.53L374.71,141.98L374.08,141.47L373.43,141.00L372.79,140.58L372.14,140.20L371.48,139.86L370.83,139.57L370.17,139.32L369.53,139.12L368.89,138.97L368.26,138.86L367.64,138.80L367.04,138.79L366.45,138.82L365.89,138.91L365.34,139.04L364.82,139.23L364.33,139.46"/><path style="stroke:#000000;stroke-width:0.353" d="M365.93,138.73L366.51,138.60L367.04,138.53L367.63,138.50L368.24,138.52L368.86,138.59L369.49,138.71L370.13,138.87L370.78,139.08L371.43,139.33L372.10,139.64L372.74,139.98L373.28,140.30L374.04,140.80L374.68,141.28L375.31,141.79L375.93,142.35L376.54,142.94L377.13,143.56L377.70,144.21L378.26,144.89L378.80,145.59L379.31,146.31L379.80,147.05L380.26,147.80L380.69,148.56L381.09,149.33L381.46,150.11L381.69,150.66L382.09,151.67L382.35,152.45L382.57,153.22L382.75,153.98L382.89,154.73L383.00,155.48L383.07,156.19L383.10,156.89L383.10,157.40L383.05,158.22L382.94,159.01L382.86,159.44L382.71,160.00L382.52,160.53L382.41,160.78L382.30,161.01L382.05,161.45L381.76,161.85L381.43,162.20L381.08,162.51L380.84,162.67"/><path style="stroke:#000000;stroke-width:0.353" d="M368.19,169.53L368.39,169.24L368.64,168.79L368.86,168.29L369.05,167.76L369.20,167.20L369.31,166.61L369.39,165.91L369.43,165.33L369.43,164.65L369.39,163.95L369.26,162.95"/><path style="stroke:#000000;stroke-width:0.353" d="M370.17,168.83L370.57,168.60"/><path style="stroke:#000000;stroke-width:0.353" d="M371.64,167.58L371.89,167.21L372.13,166.75L372.34,166.24L372.51,165.70L372.65,165.13L372.74,164.52L372.81,163.88L372.83,163.22L372.82,162.53L372.77,161.82L372.70,161.24"/><path style="stroke:#000000;stroke-width:0.353" d="M373.65,166.80L373.57,166.84"/><path style="stroke:#000000;stroke-width:0.353" d="M383.96,155.64L383.89,154.62L383.75,153.57L383.54,152.49L383.26,151.40L382.91,150.30L382.50,149.20L382.16,148.41L382.02,148.10L381.49,147.03L380.90,145.97L380.26,144.95L379.57,143.97L378.85,143.03L378.09,142.15L377.32,141.34L376.48,140.56L375.65,139.87L374.80,139.25L373.95,138.72"/><path style="stroke:#000000;stroke-width:0.353" d="M376.12,159.25L376.19,159.72L376.25,160.44L376.28,161.13L376.26,161.88L376.21,162.44L376.12,163.05L375.98,163.62L375.81,164.16L375.60,164.66L375.36,165.12L375.01,165.62"/><path style="stroke:#000000;stroke-width:0.353" d="M379.53,157.03L379.62,157.61L379.68,158.32L379.71,159.01L379.69,159.70L379.63,160.32L379.54,160.93L379.41,161.51L379.25,162.06L379.05,162.57L378.81,163.05L378.55,163.49L378.45,163.61"/><path style="stroke:#000000;stroke-width:0.353" d="M327.80,206.72L328.04,206.74L329.55,206.71L330.98,206.48L332.33,206.06L333.59,205.46L335.28,204.48L336.43,203.70L337.47,202.74L338.38,201.61L339.17,200.32L339.82,198.88L340.33,197.30L340.70,195.59L340.92,193.77L341.00,191.85L340.92,189.84L340.70,187.76L340.38,185.87L340.56,185.69L340.81,185.38L341.21,185.32L341.67,185.18L342.11,185.00L342.94,184.54L343.33,184.27L343.69,183.97L344.03,183.62L344.19,183.40L344.56,183.36L344.97,183.27L345.37,183.13L345.74,182.96L346.46,182.55L346.84,182.27L347.19,181.95L347.51,181.59L347.65,181.40L348.24,181.29L348.70,181.15L349.13,180.96L349.96,180.50L350.34,180.23L350.70,179.91L351.02,179.55L351.09,179.45L351.28,179.42L351.75,179.31L352.20,179.15L352.62,178.95L353.44,178.46L353.82,178.17L354.16,177.84L354.47,177.48L354.69,177.45L355.10,177.38L355.49,177.26L355.86,177.11L356.21,176.92L356.96,176.46L357.32,176.16L357.65,175.81L357.92,175.47L358.32,175.41L358.79,175.29L359.23,175.12L359.65,174.91L360.07,174.67L360.46,174.42L360.83,174.12L361.16,173.77L361.36,173.52L361.83,173.43L362.29,173.29L362.72,173.10L363.55,172.63L363.94,172.36L364.30,172.05L364.63,171.69L364.73,171.55L365.22,171.48L365.61,171.38L365.97,171.25L366.32,171.08L367.07,170.64L367.44,170.36L367.79,170.03L368.11,169.66L368.19,169.53L368.39,169.51L368.87,169.41L369.32,169.27L369.75,169.07L370.57,168.60L370.95,168.32L371.30,168.00L371.64,167.58L371.90,167.54L372.37,167.42L372.82,167.25L373.24,167.04L374.05,166.55L374.42,166.26L374.76,165.92L375.01,165.62L375.34,165.58L375.72,165.50L376.08,165.38L376.43,165.23L376.75,165.05L377.17,164.81L377.56,164.55L377.92,164.24L378.25,163.88L378.46,163.61L379.00,163.52L379.52,163.37L380.01,163.16L380.69,162.77L381.42,162.32L381.96,161.87L382.44,161.33L382.86,160.72L383.22,160.03L383.51,159.27L383.73,158.45L383.88,157.56L383.96,156.62L383.97,153.40L383.94,152.61L383.85,151.79L383.70,150.95L383.50,150.09L383.25,149.22L382.94,148.36L382.57,147.49L382.17,146.64L381.71,145.81L381.22,145.00L380.68,144.22L380.12,143.47L379.52,142.77L378.90,142.12L378.26,141.51L377.60,140.97L376.94,140.48L376.26,140.06L373.95,138.72L373.09,138.27L372.23,137.90L371.39,137.63L370.57,137.45L369.77,137.36L369.00,137.37L368.27,137.48L367.59,137.68L366.94,137.97L366.35,138.35L365.93,138.73L365.40,138.91L364.90,139.13L363.86,139.74L363.43,140.07L363.02,140.45L362.89,140.60L362.62,140.67L362.09,140.85L361.59,141.07L360.55,141.68L360.11,142.01L359.70,142.38L359.48,142.61L359.31,142.65L358.78,142.81L358.27,143.02L357.78,143.28L357.21,143.61L356.76,143.92L356.33,144.28L356.04,144.58L355.43,144.73L354.92,144.93L354.43,145.17L353.86,145.50L353.40,145.80L352.98,146.15L352.62,146.53L352.12,146.66L351.61,146.86L351.12,147.11L350.55,147.44L350.09,147.74L349.66,148.09L349.21,148.54L348.82,148.64L348.29,148.83L347.79,149.06L346.75,149.67L346.31,150.00L345.89,150.37L345.77,150.51L345.48,150.57L344.95,150.74L344.44,150.95L343.40,151.55L342.95,151.87L342.54,152.24L342.35,152.46L342.16,152.50L341.63,152.67L341.13,152.89L340.08,153.49L339.64,153.81L339.22,154.17L338.94,154.47L338.32,154.64L337.81,154.85L337.32,155.10L336.75,155.43L336.29,155.73L335.86,156.08L335.50,156.44L334.98,156.57L334.46,156.76L333.97,156.99L333.40,157.32L332.94,157.61L332.51,157.95L332.07,158.39L331.67,158.49L331.15,158.68L330.66,158.92L330.08,159.25L329.62,159.54L329.19,159.88L328.78,160.27L328.67,160.40L328.36,160.47L327.84,160.65L327.33,160.87L326.26,161.50L324.87,160.35L323.18,159.11L321.48,158.05L319.79,157.15L318.09,156.43L316.43,155.90L314.81,155.55L313.24,155.40L311.73,155.43L311.44,155.48L310.29,155.66L308.94,156.08L307.68,156.68L305.99,157.66L304.84,158.44L303.80,159.40L302.89,160.53L302.10,161.82L301.78,162.45L300.73,164.85L300.30,166.08L299.91,167.27L299.57,168.43L299.07,170.78L298.83,172.43L298.65,174.69L298.61,176.33L298.72,178.43L298.86,180.03L299.13,181.61L299.53,183.49L299.94,185.01L300.63,187.00L301.32,188.62L301.46,188.92L302.21,190.48L303.23,192.26L304.69,194.39L305.94,195.98L307.68,197.85L309.55,199.55L310.75,200.52L312.03,201.39L313.30,202.26L314.64,203.03"/><path style="stroke:#000000;stroke-width:0.353" d="M317.41,204.36L314.66,203.04"/><path style="stroke:#000000;stroke-width:0.353" d="M317.43,204.37L318.86,204.93L320.90,205.58L322.99,206.09L324.55,206.38L325.76,206.56L328.04,206.74"/><g id="paperID" visibility="hidden" opacity="0.00" transform="scale(0.000100)"><path style="stroke:#000000;stroke-width:0.500;fill:#e6e6e6;fill-rule:evenodd" d="M-2000.00,-2000.00L2500.00,-2000.00L2500.00,2500.00L-2000.00,2500.00zM0.00,0.00L500.00,0.00L500.00,500.00L0.00,500.00z"/><path style="fill:#000000;fill-opacity:0.118" d="M3.00,500.00L500.00,500.00L500.00,3.00L503.00,3.00L503.00,503.00L3.00,503.00z"/></g></g></svg>
