<?xml version="1.0" encoding="UTF-8" standalone="no"?>
<svg xmlns="http://www.w3.org/2000/svg" xmlns:xlink="http://www.w3.org/1999/xlink" width="500.000mm" height="500.000mm" viewBox="0.000000 0.000000 500.000000 500.000000" stroke-linejoin="round" stroke-linecap="round" fill="none" fill-rule="evenodd"><desc>Composer Export</desc><script type="text/ecmascript"><![CDATA[
if(typeof(top) != "undefined")
{
	top.ShowPaper = ShowPaper;
}
function ShowPaper()
{
  var svgDocument = getDocument();
  var paper = svgDocument.getElementById("paperID");
  if(paper)
  {
    paper.setAttribute("transform","scale(1)");
    paper.setAttribute("opacity","1");
    paper.setAttribute("visibility","visible");
  }
  var svg = svgDocument.getRootElement();
  if(svg)
  {
    svg.setAttribute("width","510.000mm");
    svg.setAttribute("height","510.000mm");
    svg.setAttribute("viewBox","-5.000000 -5.000000 510.000000 510.000000");
  }
}
]]></script><defs/><g><path style="fill:#ffffff" d="M499.90,499.90L366.28,499.94L366.15,400.51L365.89,499.94L0.12,499.90L0.12,0.12L499.90,0.12z"/><path style="fill:#97fa98" d="M376.47,136.64L379.24,138.63L380.86,140.58L384.04,143.36L385.04,144.82L385.24,147.64L385.59,149.74L385.97,153.54L385.50,153.71L385.43,157.94L385.25,158.75L384.62,159.95L383.26,161.43L380.47,163.00L377.52,164.42L375.27,166.15L374.12,166.44L373.65,166.85L371.84,167.95L370.80,168.00L370.72,168.25L370.16,168.98L367.20,170.37L366.58,170.94L361.52,173.90L360.48,173.96L360.41,174.20L359.84,174.94L356.89,176.33L354.75,177.84L354.21,176.72L354.30,178.60L354.47,179.76L354.69,181.36L354.70,186.52L354.25,189.56L352.61,193.48L350.91,195.35L346.30,198.28L342.88,198.90L341.26,198.90L338.12,198.50L334.38,197.78L329.24,195.77L324.51,192.97L320.15,189.00L316.94,184.67L314.16,179.12L312.96,175.15L312.63,173.03L312.57,171.56L312.40,171.43L312.40,165.09L313.25,160.07L314.56,156.22L316.97,151.88L319.99,149.35L323.14,147.74L325.00,147.53L328.20,147.53L331.21,148.17L335.59,150.14L339.71,153.25L340.37,153.82L340.46,153.30L340.91,153.11L341.91,152.91L341.70,152.71L343.10,151.43L344.47,151.13L345.26,150.81L345.28,150.51L346.94,149.34L348.05,149.13L349.11,148.93L348.79,148.42L350.38,147.55L350.87,147.23L351.23,147.19L352.23,146.95L352.01,146.76L353.42,145.48L354.79,145.16L355.86,144.97L355.60,144.52L357.26,143.39L358.34,143.17L361.42,142.99L359.04,142.49L359.91,141.97L360.39,141.67L361.91,141.20L362.97,141.02L362.37,140.81L363.24,139.81L365.10,139.21L366.18,139.01L365.92,138.57L367.58,137.43L368.63,137.21L371.74,137.04L369.43,136.82L370.21,136.00L371.07,135.65L373.70,135.45z"/><path style="fill:#000020" d="M350.25,117.35L350.67,112.01L350.67,120.14z"/><path style="fill:#000020" d="M371.07,135.65L370.21,136.00L370.41,135.44z"/><path style="fill:#000020" d="M368.63,137.21L369.43,136.82L371.74,137.04z"/><path style="fill:#000020" d="M366.18,139.01L365.10,139.21L365.92,138.57z"/><path style="fill:#000020" d="M359.78,139.97L360.19,129.47L360.39,141.67L359.91,141.97z"/><path style="fill:#000020" d="M361.91,141.20L362.37,140.81L362.97,141.02z"/><path style="fill:#000020" d="M361.42,142.99L358.34,143.17L359.04,142.49z"/><path style="fill:#000020" d="M355.86,144.97L354.79,145.16L355.60,144.52z"/><path style="fill:#000020" d="M351.23,147.19L352.01,146.76L352.23,146.95z"/><path style="fill:#000020" d="M385.24,147.64L385.04,144.82L385.20,144.97z"/><path style="fill:#000020" d="M350.87,147.23L350.38,147.55L350.66,145.73z"/><path style="fill:#000020" d="M349.11,148.93L348.05,149.13L348.79,148.42z"/><path style="fill:#000020" d="M345.26,150.81L344.47,151.13L345.28,150.51z"/><path style="fill:#000020" d="M340.91,153.11L341.70,152.71L341.91,152.91z"/><path style="fill:#000020" d="M339.71,153.25L340.46,153.30L340.37,153.82z"/><path style="fill:#000020" d="M385.43,157.94L385.50,153.71L385.97,153.54z"/><path style="fill:#000020" d="M341.86,155.25L342.31,155.32L342.39,155.78L341.94,155.70z"/><path style="fill:#000020" d="M384.62,159.95L385.25,158.75L385.22,160.59z"/><path style="fill:#000020" d="M370.72,168.25L370.80,168.00L371.84,167.95z"/><path style="fill:#000020" d="M312.63,173.03L312.40,171.43L312.57,171.56z"/><path style="fill:#000020" d="M360.41,174.20L360.48,173.96L361.52,173.90z"/><path style="fill:#000020" d="M354.75,177.84L354.30,178.60L354.21,176.72z"/><path style="fill:#000020" d="M354.69,181.36L354.47,179.76L354.64,179.90z"/><path style="fill:#000020" d="M366.28,499.94L365.89,499.94L366.15,400.51z"/><path style="stroke:#000000;stroke-width:0.353" d="M352.35,122.04L355.77,124.02L333.52,136.87L333.46,136.33L333.36,135.94L333.01,135.18L332.53,134.51L332.25,134.23L331.80,133.90L352.35,122.04L351.88,121.77L351.53,121.48L351.22,121.11L350.88,120.52L350.66,119.76L350.63,118.29L327.69,131.53L327.25,131.34L326.97,131.30L326.71,131.32L326.48,131.41"/><path style="stroke:#000000;stroke-width:0.353" d="M432.26,-0.00L327.69,60.37L327.25,60.18L326.97,60.14L326.71,60.16L326.48,60.25"/><path style="stroke:#000000;stroke-width:0.353" d="M327.69,131.53L331.80,133.90"/><path style="stroke:#000000;stroke-width:0.353" d="M327.69,60.37L365.36,82.12L365.94,82.57L366.46,83.21L366.67,83.58L366.91,84.15L367.01,84.54L367.07,85.08L367.06,89.99L367.01,90.30L366.91,90.57L366.76,90.78L366.57,90.93L366.34,91.02L366.08,91.05L365.80,91.00L365.51,90.89L359.54,87.45L357.82,88.44L357.83,104.43L357.98,105.18L358.13,105.57L358.44,106.12L358.95,106.76L359.54,107.22L500.00,26.12"/><path style="stroke:#000000;stroke-width:0.353" d="M343.67,151.43L335.23,146.56L334.78,146.23L334.25,145.63L333.92,145.11L333.74,144.71L333.57,144.14L333.52,143.77L333.52,136.87"/><path style="stroke:#000000;stroke-width:0.353" d="M333.52,143.59L359.80,128.41L359.22,127.17L358.76,126.46L358.24,125.82L357.68,125.26L357.10,124.80L355.77,124.02"/><path style="stroke:#000000;stroke-width:0.353" d="M333.01,110.30L333.20,110.15L333.36,109.94L333.46,109.67L333.52,109.20L341.05,104.85L335.25,101.50L333.52,102.47L333.52,109.20"/><path style="stroke:#000000;stroke-width:0.353" d="M333.52,102.47L333.54,102.15L333.68,101.73L333.82,101.52L334.02,101.37L334.37,101.26L334.64,101.27L334.93,101.34L335.25,101.50"/><path style="stroke:#000000;stroke-width:0.353" d="M335.23,146.56L360.22,132.13L360.22,140.82L352.00,145.57L352.89,146.08"/><path style="stroke:#000000;stroke-width:0.353" d="M349.27,101.70L349.86,101.92L350.26,101.91L350.48,101.82L350.68,101.67L350.88,101.33L350.99,100.71L349.27,101.70L346.85,100.30L346.20,100.25L345.54,100.12L344.85,99.92L344.16,99.65L343.45,99.31L342.05,98.43L341.35,97.90L340.67,97.31L339.35,95.97L336.63,94.37L336.07,93.81L335.72,93.30L335.45,92.73L335.24,91.97L335.22,88.81L334.72,87.00L334.55,86.12L334.38,84.40L334.38,83.59L334.44,82.81L334.55,82.07L334.72,81.38L334.94,80.74L335.22,80.15L335.22,77.36L335.32,76.74L335.45,76.50L335.62,76.31L335.95,76.16L336.34,76.15L336.93,76.37L335.22,77.36"/><path style="stroke:#000000;stroke-width:0.353" d="M335.22,91.61L349.29,83.48L346.85,82.10L335.22,88.81"/><path style="stroke:#000000;stroke-width:0.353" d="M335.22,80.15L339.39,77.74"/><path style="stroke:#000000;stroke-width:0.353" d="M336.93,94.57L350.99,86.46L350.88,85.72L350.68,85.15L350.48,84.77L350.00,84.10L349.29,83.48"/><path style="stroke:#000000;stroke-width:0.353" d="M336.93,76.37L339.35,77.76L340.00,77.82L340.67,77.95L341.35,78.15L342.05,78.42L342.76,78.76L343.96,79.51L344.85,80.17L345.54,80.76L346.85,82.10"/><path style="stroke:#000000;stroke-width:0.353" d="M346.85,100.30L350.99,97.91L351.26,97.33L351.49,96.69L351.65,95.99L351.77,95.25L351.82,93.66L351.77,92.82L351.64,91.87L351.26,90.16L350.99,89.25L339.35,95.97"/><path style="stroke:#000000;stroke-width:0.353" d="M341.05,104.85L341.76,105.26"/><path style="stroke:#000000;stroke-width:0.353" d="M352.00,145.57L351.65,145.42L351.32,145.38L351.03,145.47L350.82,145.67L350.68,145.98L350.64,146.22L350.63,147.47"/><path style="stroke:#000000;stroke-width:0.353" d="M351.03,145.47L360.22,140.17"/><path style="stroke:#000000;stroke-width:0.353" d="M350.63,118.29L350.63,117.48"/><path style="stroke:#000000;stroke-width:0.353" d="M350.99,100.71L350.99,97.91"/><path style="stroke:#000000;stroke-width:0.353" d="M350.99,89.25L350.99,86.46"/><path style="stroke:#000000;stroke-width:0.353" d="M367.07,194.98L387.61,183.12L387.62,183.66L387.69,184.11L387.93,184.72L388.20,185.15L388.74,185.73L390.01,186.49L367.07,199.73L367.06,194.81L367.01,194.44L366.84,193.86L366.57,193.30L366.34,192.94L365.94,192.48L365.51,192.11L359.24,188.46L358.81,188.06L358.55,187.74L358.22,187.20L358.05,186.82L357.88,186.24L357.82,185.70L357.82,175.89"/><path style="stroke:#000000;stroke-width:0.353" d="M357.82,185.70L382.82,171.27L375.29,166.92L367.07,171.66L366.99,172.15L366.88,172.35L366.67,172.55L375.85,167.24"/><path style="stroke:#000000;stroke-width:0.353" d="M357.85,104.24L500.00,22.17"/><path style="stroke:#000000;stroke-width:0.353" d="M357.82,88.44L357.85,88.11L357.98,87.70L358.13,87.49L358.33,87.33L358.55,87.24L358.81,87.22L359.24,87.31L359.54,87.45"/><path style="stroke:#000000;stroke-width:0.353" d="M359.54,188.66L385.82,173.48L386.15,173.90L386.61,174.61L386.99,175.36L387.29,176.13L387.49,176.90L387.60,177.63L387.61,179.17L365.36,192.02"/><path style="stroke:#000000;stroke-width:0.353" d="M360.22,140.82L360.22,141.89"/><path style="stroke:#000000;stroke-width:0.353" d="M360.22,132.13L360.22,130.55L360.17,129.83L360.02,129.08L359.80,128.41"/><path style="stroke:#000000;stroke-width:0.353" d="M359.54,107.22L365.72,110.76L366.17,111.14L366.58,111.66L366.88,112.25L367.06,113.01L367.08,119.04L367.18,119.77L367.39,120.54L367.87,121.69L368.29,122.42L368.78,123.10L369.61,123.97L370.49,124.61L396.51,109.59L396.75,110.24L396.85,110.97L396.85,119.67L388.98,124.22L388.51,124.04L388.30,124.03L388.01,124.12L396.85,119.02"/><path style="stroke:#000000;stroke-width:0.353" d="M366.67,172.55L366.38,172.64L365.94,172.56L364.74,171.90"/><path style="stroke:#000000;stroke-width:0.353" d="M365.36,82.12L500.00,4.38"/><path style="stroke:#000000;stroke-width:0.353" d="M367.07,199.73L367.01,200.21L366.91,200.47L366.76,200.68L366.57,200.84"/><path style="stroke:#000000;stroke-width:0.353" d="M367.07,170.23L367.07,171.66"/><path style="stroke:#000000;stroke-width:0.353" d="M367.07,118.68L390.35,105.24L389.03,104.45L388.60,104.05L388.34,103.72L388.01,103.19L387.77,102.61L387.64,102.04L387.61,101.29L367.07,113.15"/><path style="stroke:#000000;stroke-width:0.353" d="M387.61,101.29L387.61,98.13L365.72,110.76"/><path style="stroke:#000000;stroke-width:0.353" d="M366.57,90.93L500.00,13.89"/><path style="stroke:#000000;stroke-width:0.353" d="M367.07,89.82L500.00,13.08"/><path style="stroke:#000000;stroke-width:0.353" d="M367.07,85.08L500.00,8.33"/><path style="stroke:#000000;stroke-width:0.353" d="M369.46,136.60L369.51,136.18L369.62,135.91L369.77,135.70L369.96,135.55L370.31,135.44L370.58,135.45L370.87,135.53L371.23,135.70"/><path style="stroke:#000000;stroke-width:0.353" d="M370.49,124.61L384.17,132.51L384.78,132.80L385.36,132.96L385.90,132.98L386.39,132.87L386.81,132.62L387.15,132.26L387.40,131.78L387.56,131.20L387.61,130.55L384.21,132.51"/><path style="stroke:#000000;stroke-width:0.353" d="M374.07,166.22L375.29,166.92"/><path style="stroke:#000000;stroke-width:0.353" d="M382.82,171.27L384.19,172.06L384.78,172.46L385.36,172.97L385.82,173.48"/><path style="stroke:#000000;stroke-width:0.353" d="M381.94,141.89L383.66,142.89L384.10,143.25L384.37,143.55L384.72,144.07L384.91,144.45L385.12,145.02L385.22,145.76L385.22,148.56L385.50,149.46L385.87,151.11L386.01,152.12L386.06,152.96L386.05,153.91L385.89,155.29L385.72,155.98L385.44,156.75"/><path style="stroke:#000000;stroke-width:0.353" d="M385.22,158.17L385.22,160.18L385.06,160.76L384.82,161.05L384.49,161.21L384.10,161.22L383.57,161.03"/><path style="stroke:#000000;stroke-width:0.353" d="M383.76,160.86L385.06,160.11"/><path style="stroke:#000000;stroke-width:0.353" d="M389.32,205.86L395.14,209.22L396.85,208.23L396.85,201.51L389.32,205.86L388.88,205.67L388.60,205.62L388.34,205.65L388.11,205.74"/><path style="stroke:#000000;stroke-width:0.353" d="M387.61,179.17L387.61,183.12"/><path style="stroke:#000000;stroke-width:0.353" d="M387.61,130.55L387.62,124.87L387.74,124.42L388.01,124.12"/><path style="stroke:#000000;stroke-width:0.353" d="M387.61,98.13L387.62,96.77L387.67,96.46L387.84,96.08L388.11,95.83L388.47,95.72L388.88,95.76L389.32,95.95L427.13,117.79L427.71,118.30L428.19,118.97L428.54,119.73L428.64,120.14L428.70,120.66L500.00,79.49"/><path style="stroke:#000000;stroke-width:0.353" d="M500.00,31.23L388.11,95.83"/><path style="stroke:#000000;stroke-width:0.353" d="M390.01,186.49L390.72,186.89"/><path style="stroke:#000000;stroke-width:0.353" d="M388.98,124.22L395.44,127.92L395.73,128.00L396.00,128.01L396.24,127.95L396.45,127.83L396.63,127.64L396.75,127.41L396.86,126.79L395.14,127.78"/><path style="stroke:#000000;stroke-width:0.353" d="M390.35,105.24L395.29,108.10L395.59,108.33L396.00,108.77L396.51,109.59"/><path style="stroke:#000000;stroke-width:0.353" d="M389.32,95.95L500.00,32.05"/><path style="stroke:#000000;stroke-width:0.353" d="M395.14,209.22L395.44,209.36L395.87,209.45L396.12,209.43L396.35,209.34L396.55,209.18L396.69,208.97L396.83,208.56L396.85,208.23"/><path style="stroke:#000000;stroke-width:0.353" d="M394.46,166.13L420.49,151.13L420.76,151.58L421.00,152.15L421.14,152.72L421.16,153.08L421.16,158.61L397.88,172.06L397.29,171.65L396.71,171.14L396.17,170.54L395.68,169.86L395.26,169.13L394.92,168.37L394.66,167.60L394.51,166.84L394.46,166.13L394.46,150.31L394.57,149.36L394.78,148.83L395.08,148.40L395.49,148.08L395.92,147.92L396.17,147.88L396.71,147.90L397.29,148.05L397.88,148.34L394.46,150.31"/><path style="stroke:#000000;stroke-width:0.353" d="M396.85,201.51L396.85,200.70"/><path style="stroke:#000000;stroke-width:0.353" d="M396.86,126.79L396.85,119.67"/><path style="stroke:#000000;stroke-width:0.353" d="M397.88,172.06L402.68,174.82L423.22,162.96L422.58,162.56L422.15,162.16L421.77,161.67L421.47,161.11L421.32,160.73L421.19,160.16L421.16,158.61"/><path style="stroke:#000000;stroke-width:0.353" d="M404.05,143.20L405.78,142.22L405.31,142.02L405.03,141.97L404.78,142.00L404.55,142.09L404.35,142.24L404.21,142.45L404.10,142.72L404.05,143.20L404.05,150.31L403.96,150.80L403.72,151.14L403.36,151.29L403.03,151.25L402.79,151.17L397.88,148.34"/><path style="stroke:#000000;stroke-width:0.353" d="M423.22,162.96L425.96,164.54L404.05,177.20L403.96,176.61L403.64,175.85L403.14,175.19L402.68,174.82"/><path style="stroke:#000000;stroke-width:0.353" d="M405.41,213.18L407.83,214.57L419.46,207.86L419.46,205.06L405.41,213.18L404.82,212.72L404.30,212.08L404.00,211.52L403.80,210.95L403.69,210.21L417.75,202.10L415.33,200.70L403.69,207.42L403.69,210.21"/><path style="stroke:#000000;stroke-width:0.353" d="M403.69,207.42L403.19,205.61L403.02,204.72L402.85,203.01L402.91,201.41L403.02,200.68L403.19,199.98L403.42,199.34L403.69,198.75L403.69,195.96L405.42,194.98L404.82,194.75L404.42,194.76L404.19,194.85L404.00,195.00L403.80,195.34L403.69,195.96"/><path style="stroke:#000000;stroke-width:0.353" d="M403.69,198.75L407.83,196.37L405.42,194.98"/><path style="stroke:#000000;stroke-width:0.353" d="M404.05,177.20L404.07,184.67L404.27,185.43L404.66,186.18L405.17,186.82L405.76,187.28L500.00,132.86"/><path style="stroke:#000000;stroke-width:0.353" d="M404.05,184.31L500.00,128.91"/><path style="stroke:#000000;stroke-width:0.353" d="M404.05,150.31L411.92,145.77L405.78,142.22"/><path style="stroke:#000000;stroke-width:0.353" d="M411.92,145.77L412.49,146.09L403.64,151.20"/><path style="stroke:#000000;stroke-width:0.353" d="M415.33,139.84L417.75,141.23L419.46,140.25L419.46,137.45L415.33,139.84L414.68,139.78L414.01,139.65L413.33,139.45L412.63,139.18L411.93,138.84L410.52,137.97L409.14,136.84L407.83,135.51L405.11,133.91L404.55,133.35L404.09,132.65L403.80,131.88L403.70,131.32L403.69,128.35L403.19,126.54L402.91,124.78L402.85,123.94L402.91,122.35L403.02,121.61L403.19,120.92L403.42,120.27L403.69,119.68L403.69,116.89L403.80,116.27L403.92,116.03L404.09,115.85L404.42,115.69L404.82,115.68L405.42,115.89L403.69,116.89"/><path style="stroke:#000000;stroke-width:0.353" d="M403.69,131.14L417.75,123.03L415.33,121.63L403.69,128.35"/><path style="stroke:#000000;stroke-width:0.353" d="M403.69,119.68L407.83,117.30L408.47,117.35L409.14,117.48L409.83,117.68L410.52,117.95L411.93,118.70L413.33,119.70L414.01,120.29L415.33,121.63"/><path style="stroke:#000000;stroke-width:0.353" d="M405.76,187.28L419.45,195.18L421.16,194.19L421.14,194.52L421.00,194.94L420.85,195.15L420.66,195.30L420.43,195.39L420.17,195.42L419.75,195.33L419.45,195.18"/><path style="stroke:#000000;stroke-width:0.353" d="M405.41,134.11L419.46,125.99L419.46,128.79L407.83,135.51"/><path style="stroke:#000000;stroke-width:0.353" d="M405.42,115.89L407.83,117.30"/><path style="stroke:#000000;stroke-width:0.353" d="M407.83,214.57L409.14,215.91L409.83,216.50L411.23,217.51L412.63,218.25L413.33,218.52L414.01,218.72L414.68,218.85L415.33,218.91L417.75,220.30L418.33,220.52L418.61,220.53L418.85,220.48L419.15,220.27L419.36,219.93L419.46,219.31L417.75,220.30"/><path style="stroke:#000000;stroke-width:0.353" d="M407.83,196.37L408.47,196.42L409.14,196.55L409.83,196.75L410.52,197.02L411.66,197.61L412.63,198.24L413.33,198.77L414.01,199.36L415.33,200.70"/><path style="stroke:#000000;stroke-width:0.353" d="M412.49,146.09L419.60,150.21L420.04,150.57L420.49,151.13"/><path style="stroke:#000000;stroke-width:0.353" d="M415.33,218.91L419.46,216.52L419.74,215.93L419.96,215.29L420.13,214.60L420.24,213.86L420.30,212.27L420.24,211.42L420.07,210.25L419.74,208.76L419.46,207.86"/><path style="stroke:#000000;stroke-width:0.353" d="M417.75,202.10L418.33,202.55L418.61,202.86L418.96,203.37L419.23,203.94L419.36,204.33L419.46,205.06"/><path style="stroke:#000000;stroke-width:0.353" d="M417.75,141.23L418.05,141.38L418.47,141.47L418.73,141.44L418.98,141.34L419.23,141.10L419.36,140.86L419.46,140.25"/><path style="stroke:#000000;stroke-width:0.353" d="M417.75,123.03L418.33,123.48L418.61,123.79L418.96,124.31L419.23,124.87L419.36,125.26L419.46,125.99"/><path style="stroke:#000000;stroke-width:0.353" d="M419.46,219.31L419.46,216.52"/><path style="stroke:#000000;stroke-width:0.353" d="M419.46,137.45L419.74,136.85L419.96,136.22L420.13,135.53L420.24,134.79L420.30,133.20L420.13,131.49L419.96,130.60L419.46,128.79"/><path style="stroke:#000000;stroke-width:0.353" d="M428.19,236.42L428.39,236.26L428.54,236.05L428.64,235.79L428.69,235.48L428.70,229.68L428.70,191.82L428.64,191.28L428.54,190.90L428.19,190.14L427.71,189.46L427.43,189.18L426.98,188.86L422.73,186.41L422.43,186.30L422.15,186.25L421.89,186.28L421.67,186.37L421.47,186.52L421.32,186.73L421.22,187.00L421.17,187.30L421.16,194.19"/><path style="stroke:#000000;stroke-width:0.353" d="M500.00,141.14L421.67,186.37"/><path style="stroke:#000000;stroke-width:0.353" d="M422.88,186.49L500.00,141.96"/><path style="stroke:#000000;stroke-width:0.353" d="M426.98,188.86L500.00,146.70"/><path style="stroke:#000000;stroke-width:0.353" d="M428.70,120.66L428.69,164.32L428.64,164.63L428.47,165.01L428.19,165.26L427.84,165.37L427.43,165.33L427.13,165.22L425.96,164.54"/><path style="stroke:#000000;stroke-width:0.353" d="M500.00,75.54L426.98,117.70"/><path style="stroke:#000000;stroke-width:0.353" d="M428.70,235.31L500.00,194.14"/><path style="stroke:#000000;stroke-width:0.353" d="M428.70,191.82L500.00,150.65"/><path style="stroke:#000000;stroke-width:0.353" d="M500.00,123.80L428.19,165.26"/><path style="stroke:#000000;stroke-width:0.353" d="M428.70,164.15L500.00,122.98"/><path style="stroke:#000000;stroke-width:0.353" d="M430.84,0.00L326.48,60.25L326.21,60.50L326.04,60.88L325.98,61.36L325.98,104.85L326.04,105.39L326.29,106.16L326.59,106.71L326.85,107.07L327.25,107.49L327.55,107.72L331.95,110.26L332.25,110.37L332.66,110.41L333.01,110.30L341.76,105.26L348.92,109.39L349.37,109.72L349.90,110.32L350.23,110.86L350.40,111.24L350.53,111.62L350.63,112.18L350.63,117.47L326.48,131.41L326.21,131.66L326.04,132.04L325.98,132.52L325.98,147.51"/><path style="stroke:#000000;stroke-width:0.353" d="M500.00,194.96L428.19,236.42L427.97,236.51L427.71,236.53L427.43,236.49L426.98,236.30L389.32,214.55L388.88,214.23L388.34,213.63L388.11,213.28L387.84,212.71L387.67,212.13L387.62,211.77L387.62,206.68L387.67,206.37L387.84,205.99L388.11,205.74L396.85,200.69L396.85,192.42L396.80,191.87L396.55,191.10L396.24,190.55L396.00,190.21L395.73,189.91L395.29,189.54L390.72,186.89L366.57,200.84L366.21,200.95L365.80,200.91L365.36,200.72L352.37,193.22"/><path style="stroke:#000000;stroke-width:0.353" d="M224.27,296.20L224.31,296.44L224.42,296.68L224.60,296.90L224.98,297.19L224.98,500.00"/><path style="stroke:#000000;stroke-width:0.353" d="M224.98,297.19L262.80,319.01L263.53,319.26L264.35,319.34L265.18,319.26L265.57,319.15L266.07,318.93L266.07,367.77L265.57,368.07L266.59,367.49L265.34,368.21L265.57,368.07"/><path style="stroke:#000000;stroke-width:0.353" d="M243.00,296.82L243.45,297.19L243.45,295.21L242.97,295.61L242.78,295.96L242.74,296.20L242.78,296.44L243.00,296.82"/><path style="stroke:#000000;stroke-width:0.353" d="M243.45,297.19L245.87,298.59L246.24,299.12L246.69,299.63L247.20,300.13L248.43,301.03L249.14,301.44L250.70,302.15L251.56,302.45L253.37,302.92L253.37,289.48L251.56,289.95L250.70,290.25L249.89,290.59L248.43,291.37L247.35,292.15L246.69,292.76L245.87,293.81L243.45,295.21"/><path style="stroke:#000000;stroke-width:0.353" d="M245.87,293.81L245.87,298.59"/><path style="stroke:#000000;stroke-width:0.353" d="M253.37,302.92L255.79,304.33L255.79,288.08L253.37,289.48"/><path style="stroke:#000000;stroke-width:0.353" d="M255.79,304.33L256.68,304.64L257.51,304.72L258.53,304.59L259.22,304.31L259.22,288.08L258.53,287.81L257.51,287.67L256.48,287.81L255.79,288.08"/><path style="stroke:#000000;stroke-width:0.353" d="M259.22,304.31L261.64,302.92L263.48,302.44L265.12,301.81L265.89,301.43L267.24,300.59L268.33,299.63L269.16,298.57L269.14,293.81L271.56,295.21L272.05,295.61L272.19,295.84L272.26,296.08L272.23,296.44L272.02,296.82L271.56,297.19L271.56,295.21"/><path style="stroke:#000000;stroke-width:0.353" d="M259.22,288.08L261.64,289.48L263.46,289.95L264.31,290.25L265.88,290.96L267.23,291.80L267.81,292.27L268.33,292.76L268.77,293.29L269.14,293.81"/><path style="stroke:#000000;stroke-width:0.353" d="M262.64,318.93L262.64,370.58L262.13,371.47L261.70,372.46L261.37,373.54L261.12,374.71L260.98,375.94L260.93,377.25L260.98,378.60L261.12,380.01L261.37,381.45L261.70,382.91L262.13,384.40L262.89,386.49L263.58,387.63L264.00,388.10L264.35,388.40L264.87,388.71L265.29,388.83L265.70,388.83L266.07,388.72L266.07,500.00"/><path style="stroke:#000000;stroke-width:0.353" d="M262.64,500.00L262.64,385.89"/><path style="stroke:#000000;stroke-width:0.353" d="M262.64,370.58L263.12,369.96L263.69,369.41L264.61,368.69L265.34,368.21"/><path style="stroke:#000000;stroke-width:0.353" d="M261.64,302.92L261.64,289.48"/><path style="stroke:#000000;stroke-width:0.353" d="M264.35,311.22L264.35,309.25L263.87,309.64L263.73,309.87L263.65,310.11L263.68,310.48L263.97,310.93L264.35,311.22L270.32,314.67L270.74,315.09L270.87,315.45L270.87,315.69L270.80,315.93L270.56,316.27L270.32,316.47L266.07,318.93"/><path style="stroke:#000000;stroke-width:0.353" d="M264.35,309.25L278.05,301.34L278.37,301.18L278.93,301.01L279.55,300.93L280.18,300.95L280.79,301.06L281.32,301.26L287.63,304.90L287.64,330.20L290.37,328.62L290.37,321.56L290.37,304.90L289.82,305.12L289.01,305.22L288.34,305.16L287.63,304.90"/><path style="stroke:#000000;stroke-width:0.353" d="M264.35,282.69L264.35,283.15L264.08,282.97L263.79,282.64L263.68,282.41L263.65,282.17L263.68,281.92L263.79,281.69L263.97,281.47L264.35,281.18L264.35,282.69"/><path style="stroke:#000000;stroke-width:0.353" d="M264.35,283.15L270.20,286.53L270.18,277.82L264.35,281.18"/><path style="stroke:#000000;stroke-width:0.353" d="M266.07,388.72L270.34,386.20L270.60,385.89L270.76,385.54L270.86,385.08L270.88,384.61L270.88,500.00"/><path style="stroke:#000000;stroke-width:0.353" d="M265.95,367.84L266.56,367.49L265.84,367.91L266.59,367.49L265.68,368.00"/><path style="stroke:#000000;stroke-width:0.353" d="M266.59,367.49L266.78,367.38L266.07,367.77"/><path style="stroke:#000000;stroke-width:0.353" d="M270.18,366.16L269.66,367.12L269.23,368.11L268.90,369.20L268.66,370.36L268.51,371.59L268.47,372.79L268.51,374.25L268.66,375.66L268.90,377.10L269.23,378.56L269.66,380.05L270.59,382.80L270.81,383.80L270.88,384.61"/><path style="stroke:#000000;stroke-width:0.353" d="M269.27,365.94L269.67,365.71L266.78,367.38"/><path style="stroke:#000000;stroke-width:0.353" d="M270.18,386.32L270.18,500.00"/><path style="stroke:#000000;stroke-width:0.353" d="M270.18,366.23L270.88,365.10L270.81,365.08L270.51,365.23L270.66,365.14"/><path style="stroke:#000000;stroke-width:0.353" d="M269.67,365.71L270.31,365.32L270.18,365.42L270.18,316.56"/><path style="stroke:#000000;stroke-width:0.353" d="M270.31,365.32L270.35,365.32L270.18,365.42"/><path style="stroke:#000000;stroke-width:0.353" d="M271.56,297.19L269.16,298.57"/><path style="stroke:#000000;stroke-width:0.353" d="M270.20,286.53L270.88,286.92"/><path style="stroke:#000000;stroke-width:0.353" d="M270.18,277.82L270.56,277.53L270.74,277.31L270.85,277.07L270.88,276.83"/><path style="stroke:#000000;stroke-width:0.353" d="M270.43,365.26L270.51,365.23L270.35,365.32L270.43,365.26"/><path style="stroke:#000000;stroke-width:0.353" d="M270.48,365.23L270.35,365.32"/><path style="stroke:#000000;stroke-width:0.353" d="M270.88,315.57L270.88,365.10"/><path style="stroke:#000000;stroke-width:0.353" d="M278.05,500.00L278.05,301.34"/><path style="stroke:#000000;stroke-width:0.353" d="M281.47,500.00L281.47,301.34"/><path style="stroke:#000000;stroke-width:0.353" d="M285.90,500.00L285.90,401.06L285.91,400.81L285.96,400.70L286.61,399.73L286.61,500.00"/><path style="stroke:#000000;stroke-width:0.353" d="M285.90,381.20L285.90,366.54L285.69,365.09L285.59,363.70L285.59,362.35L285.69,361.06L285.90,359.84L285.90,331.78L285.94,332.02L286.05,332.26L286.22,332.48L286.61,332.77L286.61,384.43L286.26,383.39L286.05,382.56L285.91,381.63L285.91,381.07"/><path style="stroke:#000000;stroke-width:0.353" d="M285.90,366.54L285.90,359.84"/><path style="stroke:#000000;stroke-width:0.353" d="M285.90,331.78L285.98,331.42L286.22,331.08L286.61,330.79L287.64,330.20"/><path style="stroke:#000000;stroke-width:0.353" d="M285.92,288.49L286.61,288.09L286.61,261.61L286.22,261.32L286.05,261.10L285.94,260.86L285.90,260.62"/><path style="stroke:#000000;stroke-width:0.353" d="M286.61,399.73L287.12,398.83L287.65,397.53L287.64,387.77L287.12,385.90L286.61,384.43"/><path style="stroke:#000000;stroke-width:0.353" d="M287.64,387.77L287.89,388.86L288.13,390.30L288.27,391.70L288.32,393.06L288.27,394.36L288.13,395.60L287.89,396.76L287.65,397.53"/><path style="stroke:#000000;stroke-width:0.353" d="M286.61,332.77L324.27,354.51L324.77,354.73L325.15,354.84L325.98,354.92L326.81,354.84L327.19,354.73L327.69,354.51L327.69,500.00"/><path style="stroke:#000000;stroke-width:0.353" d="M286.61,288.09L287.90,287.38L288.67,287.19L289.18,287.18L289.82,287.28L290.25,287.43L290.72,287.70L290.72,263.98L286.61,261.61"/><path style="stroke:#000000;stroke-width:0.353" d="M290.37,328.62L291.04,328.26L291.60,328.09L292.22,328.02L292.85,328.03L293.29,328.10L293.82,328.26L295.17,329.01L295.18,302.12L290.37,304.90"/><path style="stroke:#000000;stroke-width:0.353" d="M290.72,287.70L294.14,289.68L294.14,263.98L293.64,264.20L293.29,264.30L292.43,264.39L291.60,264.30L291.22,264.20L290.72,263.98"/><path style="stroke:#000000;stroke-width:0.353" d="M294.14,263.98L299.96,260.62L300.46,260.40L301.25,260.23L301.89,260.21L302.70,260.34L303.38,260.62L303.38,289.48L301.70,290.43L301.01,290.71L299.84,290.99L298.59,291.09L297.34,290.99L296.17,290.71L295.48,290.43L294.14,289.68"/><path style="stroke:#000000;stroke-width:0.353" d="M295.17,329.01L300.13,331.87L300.46,332.00L301.05,332.14L302.02,332.17L302.02,302.13L301.37,301.82L300.64,301.57L299.84,301.41L298.59,301.31L297.75,301.35L296.94,301.48L296.17,301.68L295.18,302.12"/><path style="stroke:#000000;stroke-width:0.353" d="M299.97,290.97L299.96,260.62"/><path style="stroke:#000000;stroke-width:0.353" d="M302.02,332.17L302.71,332.05L303.38,331.78L317.08,323.88L317.08,321.90L317.56,322.29L317.75,322.64L317.79,322.88L317.75,323.13L317.64,323.36L317.35,323.69L317.08,323.88"/><path style="stroke:#000000;stroke-width:0.353" d="M302.02,302.13L315.71,310.04L315.71,313.99L316.26,313.61L316.83,312.97L317.05,312.50L317.13,312.01L317.05,311.53L316.96,311.29L316.68,310.83L316.25,310.41L315.71,310.04"/><path style="stroke:#000000;stroke-width:0.353" d="M303.38,289.48L310.92,285.13L310.92,275.64L310.70,275.49L310.47,275.23L310.35,274.85L310.38,285.44"/><path style="stroke:#000000;stroke-width:0.353" d="M317.08,268.55L317.35,268.71L317.56,268.92L317.75,269.27L317.79,269.51L317.75,269.76L317.64,269.99L317.35,270.31L317.08,270.50L317.08,268.55L303.38,260.62"/><path style="stroke:#000000;stroke-width:0.353" d="M310.92,327.43L310.92,318.34L310.61,318.11L310.47,317.93L310.35,317.55L310.35,327.76"/><path style="stroke:#000000;stroke-width:0.353" d="M310.92,318.34L317.08,321.90"/><path style="stroke:#000000;stroke-width:0.353" d="M315.71,313.99L310.80,316.83L310.47,317.16L310.35,317.55"/><path style="stroke:#000000;stroke-width:0.353" d="M310.92,285.13L315.72,282.35L315.71,278.41L310.92,275.64"/><path style="stroke:#000000;stroke-width:0.353" d="M317.08,270.50L310.80,274.13L310.47,274.47L310.35,274.85"/><path style="stroke:#000000;stroke-width:0.353" d="M311.93,336.74L311.93,334.74L311.44,335.14L311.25,335.49L311.23,335.85L311.30,336.09L311.44,336.32L311.93,336.74L314.35,338.12L314.35,333.35L311.93,334.74"/><path style="stroke:#000000;stroke-width:0.353" d="M311.93,296.82L311.93,297.19L311.45,296.79L311.30,296.56L311.22,296.20L311.30,295.84L311.44,295.61L311.93,295.21L311.93,296.82"/><path style="stroke:#000000;stroke-width:0.353" d="M311.93,297.19L314.35,298.59L314.72,299.12L315.61,300.06L316.26,300.59L316.91,301.03L318.31,301.78L319.18,302.15L320.03,302.45L321.85,302.92L321.85,289.48L320.03,289.95L319.18,290.25L317.61,290.96L316.26,291.80L315.68,292.27L315.16,292.76L314.35,293.81L311.93,295.21"/><path style="stroke:#000000;stroke-width:0.353" d="M311.93,255.68L314.35,254.28L314.35,259.05L311.93,257.65L311.44,257.26L311.30,257.03L311.23,256.79L311.25,256.42L311.44,256.07L311.93,255.68L311.93,257.65"/><path style="stroke:#000000;stroke-width:0.353" d="M314.35,333.35L314.72,332.81L315.16,332.30L316.26,331.34L316.91,330.90L317.82,330.39L319.18,329.78L320.03,329.49L321.85,329.02L321.85,342.45L320.05,341.99L319.20,341.69L317.61,340.97L316.26,340.13L315.69,339.67L315.17,339.17L314.72,338.66L314.35,338.12"/><path style="stroke:#000000;stroke-width:0.353" d="M314.35,298.59L314.35,293.81"/><path style="stroke:#000000;stroke-width:0.353" d="M314.35,259.05L314.72,259.59L315.17,260.11L315.69,260.60L316.89,261.48L317.63,261.91L318.39,262.28L319.79,262.83L321.85,263.38L324.27,264.78L324.97,265.06L325.99,265.19L326.61,265.14L327.20,265.00L327.70,264.78L330.14,263.38L330.12,249.95L327.70,248.55L327.70,264.78"/><path style="stroke:#000000;stroke-width:0.353" d="M314.35,254.28L314.72,253.74L315.16,253.23L315.68,252.74L316.26,252.27L317.61,251.43L318.37,251.05L319.79,250.50L321.85,249.95L321.85,263.38"/><path style="stroke:#000000;stroke-width:0.353" d="M315.71,278.41L316.25,278.78L316.68,279.20L316.96,279.66L317.11,280.14L317.13,280.39L317.05,280.87L316.83,281.35L316.47,281.79L315.72,282.35"/><path style="stroke:#000000;stroke-width:0.353" d="M321.85,342.45L324.27,343.85L324.27,327.62L321.85,329.02"/><path style="stroke:#000000;stroke-width:0.353" d="M321.85,302.92L324.30,304.33L324.27,288.08L321.85,289.48"/><path style="stroke:#000000;stroke-width:0.353" d="M321.85,249.95L324.27,248.55L324.27,264.78"/><path style="stroke:#000000;stroke-width:0.353" d="M324.27,500.00L324.27,354.51"/><path style="stroke:#000000;stroke-width:0.353" d="M324.27,343.85L324.97,344.13L325.99,344.26L326.85,344.16L327.70,343.85L327.70,327.62L327.01,327.34L325.98,327.21L324.96,327.34L324.27,327.62"/><path style="stroke:#000000;stroke-width:0.353" d="M324.30,304.33L324.96,304.59L325.77,304.72L326.59,304.68L327.19,304.54L327.70,304.31L330.12,302.92L331.93,302.45L332.80,302.14L333.59,301.81L335.06,301.03L336.29,300.13L336.83,299.61L337.60,298.62L340.04,297.19L340.04,295.21L340.52,295.61L340.71,295.96L340.75,296.20L340.71,296.44L340.60,296.68L340.31,297.00L340.04,297.19"/><path style="stroke:#000000;stroke-width:0.353" d="M324.27,288.08L324.96,287.81L325.56,287.70L326.19,287.68L327.01,287.81L327.70,288.08L330.12,289.48L330.12,302.92"/><path style="stroke:#000000;stroke-width:0.353" d="M324.27,248.55L324.96,248.27L325.98,248.14L327.01,248.27L327.70,248.55"/><path style="stroke:#000000;stroke-width:0.353" d="M327.69,354.51L365.36,332.77L365.72,332.49L365.92,332.26L366.03,332.02L366.06,331.78L365.98,331.42L365.84,331.19L365.50,330.88L364.33,330.20L364.33,304.90L363.78,305.12L362.96,305.22L362.14,305.12L361.59,304.90L361.61,328.63L364.33,330.20"/><path style="stroke:#000000;stroke-width:0.353" d="M327.70,343.85L330.14,342.45L331.95,341.97L332.80,341.67L333.61,341.34L334.88,340.67L335.71,340.12L336.29,339.65L336.80,339.17L337.64,338.11L337.62,333.35L337.24,332.81L336.80,332.30L336.29,331.81L335.70,331.34L334.35,330.49L332.79,329.78L331.93,329.49L330.12,329.02L330.14,342.45"/><path style="stroke:#000000;stroke-width:0.353" d="M327.70,327.62L330.12,329.02"/><path style="stroke:#000000;stroke-width:0.353" d="M327.70,304.31L327.70,288.08"/><path style="stroke:#000000;stroke-width:0.353" d="M330.12,289.48L331.93,289.95L332.79,290.25L334.35,290.96L335.70,291.80L336.29,292.27L336.80,292.76L337.25,293.29L337.62,293.81L337.60,298.62"/><path style="stroke:#000000;stroke-width:0.353" d="M330.14,263.38L331.95,262.90L332.80,262.61L334.37,261.90L335.70,261.06L336.29,260.59L336.80,260.10L337.25,259.58L337.62,259.05L337.62,254.28L337.24,253.74L336.80,253.23L336.29,252.74L335.70,252.27L334.35,251.43L332.79,250.72L331.93,250.42L330.12,249.95"/><path style="stroke:#000000;stroke-width:0.353" d="M334.88,321.90L334.88,323.87L334.50,323.58L334.21,323.13L334.18,322.89L334.21,322.64L334.32,322.41L334.50,322.19L334.88,321.90L341.05,318.34L341.43,318.02L341.61,317.64L341.55,317.26L341.35,316.99L341.16,316.83L336.25,313.99L336.25,310.04L335.69,310.43L335.29,310.83L335.00,311.29L334.85,311.77L334.84,312.01L334.91,312.50L335.13,312.97L335.49,313.42L336.25,313.99"/><path style="stroke:#000000;stroke-width:0.353" d="M334.88,323.87L341.05,327.43L341.05,318.34"/><path style="stroke:#000000;stroke-width:0.353" d="M335.00,281.11L335.49,281.79L336.25,282.36L336.25,278.41L335.48,278.99L335.00,279.66L334.85,280.14L334.84,280.39L334.85,280.63L335.00,281.11"/><path style="stroke:#000000;stroke-width:0.353" d="M334.88,270.32L334.88,270.50L334.40,270.11L334.21,269.76L334.18,269.52L334.21,269.27L334.32,269.04L334.50,268.81L334.84,268.55L334.88,268.55L334.88,270.32"/><path style="stroke:#000000;stroke-width:0.353" d="M334.88,270.50L341.05,274.06L341.43,274.38L341.61,274.75L341.61,274.95L341.50,275.23L341.27,275.49L341.05,275.64L341.06,285.13L336.25,282.36"/><path style="stroke:#000000;stroke-width:0.353" d="M334.88,268.55L348.73,260.54L349.08,260.40L349.66,260.26L350.50,260.21L351.31,260.34L352.00,260.62L352.00,290.97L352.95,291.08L354.21,291.04L355.42,290.83L356.48,290.43L357.82,289.68L357.82,263.98L352.00,260.62"/><path style="stroke:#000000;stroke-width:0.353" d="M336.25,310.04L349.96,302.12L349.95,332.17L350.50,332.18L351.13,332.10L351.59,331.97L352.02,331.77L356.80,329.01L356.80,302.13L356.15,301.82L355.42,301.57L354.62,301.41L353.37,301.31L352.53,301.35L351.59,301.51L350.60,301.82L349.96,302.12"/><path style="stroke:#000000;stroke-width:0.353" d="M336.25,278.41L341.05,275.64"/><path style="stroke:#000000;stroke-width:0.353" d="M337.64,338.11L340.18,336.63L340.60,336.21L340.71,335.98L340.75,335.73L340.71,335.49L340.60,335.26L340.18,334.83L337.62,333.35"/><path style="stroke:#000000;stroke-width:0.353" d="M337.62,293.81L340.04,295.21"/><path style="stroke:#000000;stroke-width:0.353" d="M337.62,259.05L340.04,257.65L340.04,255.68L337.62,254.28"/><path style="stroke:#000000;stroke-width:0.353" d="M340.04,336.72L340.04,334.74"/><path style="stroke:#000000;stroke-width:0.353" d="M340.04,255.68L340.52,256.07L340.66,256.30L340.75,256.66L340.71,256.91L340.52,257.26L340.04,257.65"/><path style="stroke:#000000;stroke-width:0.353" d="M341.05,327.43L348.58,331.78L349.27,332.06L349.95,332.17"/><path style="stroke:#000000;stroke-width:0.353" d="M341.61,327.76L341.61,317.55"/><path style="stroke:#000000;stroke-width:0.353" d="M341.06,285.13L349.95,290.27L350.95,290.71L352.00,290.97"/><path style="stroke:#000000;stroke-width:0.353" d="M341.61,285.46L341.61,274.85"/><path style="stroke:#000000;stroke-width:0.353" d="M348.59,289.48L348.58,260.62"/><path style="stroke:#000000;stroke-width:0.353" d="M356.80,329.01L358.15,328.26L358.66,328.11L359.12,328.03L359.74,328.02L360.36,328.09L360.92,328.26L361.61,328.63"/><path style="stroke:#000000;stroke-width:0.353" d="M356.80,302.13L361.59,304.90"/><path style="stroke:#000000;stroke-width:0.353" d="M357.82,289.68L361.25,287.70L361.25,263.98L360.75,264.20L360.36,264.30L359.54,264.39L358.71,264.30L358.32,264.20L357.82,263.98"/><path style="stroke:#000000;stroke-width:0.353" d="M361.25,287.70L361.71,287.43L362.14,287.28L362.79,287.18L363.30,287.19L364.07,287.38L365.36,288.09L365.36,261.61L365.72,261.33L365.92,261.10L366.03,260.86L366.06,260.62"/><path style="stroke:#000000;stroke-width:0.353" d="M361.25,263.98L365.36,261.61"/><path style="stroke:#000000;stroke-width:0.353" d="M364.33,397.53L364.08,396.76L363.84,395.60L363.69,394.36L363.64,393.06L363.69,391.73L363.84,390.30L364.08,388.86L364.33,387.77L364.33,397.57L364.84,398.83L365.36,399.73L365.36,500.00"/><path style="stroke:#000000;stroke-width:0.353" d="M365.36,399.73L366.03,400.75L366.06,401.06L366.06,500.00"/><path style="stroke:#000000;stroke-width:0.353" d="M366.06,381.07L366.03,381.84L365.86,382.79L365.55,383.88L364.84,385.90L364.33,387.77"/><path style="stroke:#000000;stroke-width:0.353" d="M365.36,384.42L365.36,332.77"/><path style="stroke:#000000;stroke-width:0.353" d="M370.49,500.00L370.49,301.34L364.33,304.90"/><path style="stroke:#000000;stroke-width:0.353" d="M365.36,288.09L366.06,288.50"/><path style="stroke:#000000;stroke-width:0.353" d="M366.06,381.21L366.06,379.86L366.06,381.42"/><path style="stroke:#000000;stroke-width:0.353" d="M366.06,379.86L366.06,362.84L366.38,363.01L366.34,364.29L366.21,365.61L366.06,366.55"/><path style="stroke:#000000;stroke-width:0.353" d="M366.38,363.01L366.34,361.78L366.21,360.61L366.06,359.85L366.06,331.78"/><path style="stroke:#000000;stroke-width:0.353" d="M366.06,359.85L366.06,362.84"/><path style="stroke:#000000;stroke-width:0.353" d="M370.49,301.34L370.82,301.18L371.38,301.01L371.99,300.93L372.62,300.95L373.59,301.18L374.56,301.71L387.61,309.25L387.61,311.22L387.97,310.95L388.17,310.71L388.28,310.48L388.32,310.23L388.28,309.99L388.17,309.75L387.88,309.43L387.61,309.25"/><path style="stroke:#000000;stroke-width:0.353" d="M373.92,500.00L373.92,301.34"/><path style="stroke:#000000;stroke-width:0.353" d="M379.70,296.08L379.78,295.84L379.92,295.61L380.40,295.21L380.41,297.19L380.13,297.00L379.84,296.68L379.70,296.32L379.70,296.08"/><path style="stroke:#000000;stroke-width:0.353" d="M389.32,500.00L389.32,385.89L388.84,386.93L388.43,387.57L387.99,388.08L387.68,388.35L387.18,388.67L386.64,388.83L386.35,388.83L385.90,388.71L381.71,386.27L381.45,386.01L381.26,385.67L381.14,385.27L381.08,384.76L381.08,500.00"/><path style="stroke:#000000;stroke-width:0.353" d="M381.08,384.76L381.14,383.89L381.36,382.85L382.31,380.05L382.73,378.57L383.07,377.10L383.31,375.66L383.45,374.25L383.50,372.90L383.45,371.59L383.31,370.36L383.07,369.20L382.73,368.11L382.30,367.12L381.79,366.17"/><path style="stroke:#000000;stroke-width:0.353" d="M381.79,366.23L381.17,365.31L381.08,365.10L381.20,365.09L381.60,365.30L381.32,365.14"/><path style="stroke:#000000;stroke-width:0.353" d="M381.48,365.23L381.60,365.30L381.53,365.25"/><path style="stroke:#000000;stroke-width:0.353" d="M381.60,365.30L381.63,365.33L381.28,365.13"/><path style="stroke:#000000;stroke-width:0.353" d="M381.08,365.10L381.08,315.57L381.12,315.81L381.23,316.05L381.40,316.27L381.79,316.56L381.79,365.42L381.63,365.33L381.79,365.42L381.68,365.34"/><path style="stroke:#000000;stroke-width:0.353" d="M387.61,311.22L381.63,314.69L381.23,315.09L381.12,315.33L381.08,315.57"/><path style="stroke:#000000;stroke-width:0.353" d="M380.41,297.19L382.83,298.59L383.39,299.35L384.16,300.13L385.40,301.04L386.85,301.81L387.67,302.15L388.53,302.45L390.32,302.92L390.32,289.48L388.69,289.90L387.65,290.25L386.85,290.59L385.38,291.37L384.15,292.27L383.64,292.76L383.19,293.29L382.82,293.81L380.40,295.21"/><path style="stroke:#000000;stroke-width:0.353" d="M381.08,276.83L381.12,277.07L381.23,277.31L381.65,277.73L387.75,281.27L388.17,281.69L388.28,281.92L388.32,282.16L388.28,282.41L388.17,282.64L387.75,283.06L381.09,286.92"/><path style="stroke:#000000;stroke-width:0.353" d="M381.79,386.32L381.79,500.00"/><path style="stroke:#000000;stroke-width:0.353" d="M381.79,316.56L385.90,318.93L385.90,367.77L386.61,368.21L382.31,365.72L382.69,365.95"/><path style="stroke:#000000;stroke-width:0.353" d="M382.31,365.72L381.79,365.42L382.36,365.72"/><path style="stroke:#000000;stroke-width:0.353" d="M382.83,298.59L382.82,293.81"/><path style="stroke:#000000;stroke-width:0.353" d="M381.79,286.51L381.79,277.82"/><path style="stroke:#000000;stroke-width:0.353" d="M385.16,367.37L385.90,367.77"/><path style="stroke:#000000;stroke-width:0.353" d="M385.90,500.00L385.90,388.71"/><path style="stroke:#000000;stroke-width:0.353" d="M385.98,367.82L385.41,367.49L386.06,367.87"/><path style="stroke:#000000;stroke-width:0.353" d="M386.24,367.97L385.41,367.49L386.33,368.02"/><path style="stroke:#000000;stroke-width:0.353" d="M386.61,368.21L387.35,368.69L388.27,369.41L388.88,370.01L389.32,370.58L389.84,371.47L390.26,372.46L390.60,373.54L390.84,374.71L390.99,375.94L391.03,377.25L390.99,378.60L390.84,380.01L390.60,381.45L390.26,382.91L389.84,384.40L389.32,385.89"/><path style="stroke:#000000;stroke-width:0.353" d="M386.42,368.09L385.41,367.49"/><path style="stroke:#000000;stroke-width:0.353" d="M385.90,318.93L386.40,319.15L386.78,319.26L387.61,319.34L388.44,319.26L388.82,319.15L389.32,318.93L389.32,370.58"/><path style="stroke:#000000;stroke-width:0.353" d="M387.61,283.15L387.61,281.18"/><path style="stroke:#000000;stroke-width:0.353" d="M389.32,318.93L426.98,297.19L426.98,500.00"/><path style="stroke:#000000;stroke-width:0.353" d="M390.32,302.92L392.74,304.31L393.43,304.59L394.25,304.72L394.88,304.70L395.48,304.59L396.17,304.31L396.17,288.08L395.48,287.80L394.88,287.70L394.25,287.68L393.43,287.80L392.74,288.08L390.32,289.48"/><path style="stroke:#000000;stroke-width:0.353" d="M392.74,304.31L392.74,288.08"/><path style="stroke:#000000;stroke-width:0.353" d="M396.17,304.31L398.59,302.92L400.41,302.44L401.33,302.12L402.83,301.44L404.18,300.59L405.28,299.63L406.09,298.59L408.51,297.19L408.97,296.82L409.19,296.44L409.22,296.20L409.19,295.96L409.00,295.61L408.51,295.21L408.51,297.19"/><path style="stroke:#000000;stroke-width:0.353" d="M396.17,288.08L398.59,289.48L398.59,302.92"/><path style="stroke:#000000;stroke-width:0.353" d="M398.59,289.48L400.41,289.95L401.26,290.25L402.83,290.96L404.18,291.80L404.76,292.27L405.28,292.76L405.73,293.29L406.09,293.81L406.09,298.59"/><path style="stroke:#000000;stroke-width:0.353" d="M406.09,293.81L408.51,295.21"/><path style="stroke:#000000;stroke-width:0.353" d="M426.98,297.19L427.37,296.90L427.55,296.68L427.65,296.44L427.69,296.20"/><path style="stroke:#000000;stroke-width:0.353" d="M224.27,500.00L224.27,296.20L224.35,295.84L224.60,295.50L224.98,295.21L262.64,273.47L263.14,273.24L263.93,273.08L264.98,273.10L265.57,273.24L265.91,273.38L270.32,275.93L270.56,276.13L270.80,276.47L270.88,276.83L270.88,286.92L278.37,291.22L279.15,291.42L279.97,291.46L280.79,291.34L281.47,291.06L285.90,288.50L285.90,260.62L285.98,260.26L286.13,260.03L286.61,259.63L324.27,237.89L324.77,237.66L325.15,237.56L325.98,237.48L326.81,237.56L327.19,237.66L327.69,237.89L365.36,259.63L365.84,260.03L365.98,260.26L366.06,260.62L366.06,288.50L370.49,291.06L371.18,291.34L371.99,291.46L372.83,291.42L373.59,291.22L381.08,286.92L381.08,276.83L381.16,276.47L381.40,276.13L381.79,275.84L386.05,273.38L386.40,273.24L386.98,273.10L388.03,273.08L388.82,273.24L389.32,273.47L426.98,295.21L427.37,295.50L427.61,295.84L427.69,296.20L427.69,500.00"/><path style="stroke:#000000;stroke-width:0.353" d="M314.23,177.68L313.96,176.54L313.77,175.42L313.65,174.32L313.61,173.14L313.65,172.26L313.77,171.30L313.96,170.40L314.23,169.57L314.49,169.00L314.57,168.81L314.99,168.13L315.47,167.54L316.01,167.03L316.62,166.62L317.28,166.30L317.99,166.08L318.75,165.96L319.54,165.94L320.37,166.02L321.22,166.21L322.10,166.49L322.99,166.87L323.88,167.34L324.78,167.90L325.67,168.55L326.54,169.28L327.40,170.08L328.22,170.96L329.02,171.89L329.77,172.88L329.95,173.14L330.48,173.92L331.14,175.00L331.75,176.12L332.29,177.25L332.78,178.40L333.19,179.56L333.53,180.71L333.80,181.86L334.00,182.98L334.08,183.75L334.11,184.07L334.15,185.13L334.11,186.14L334.00,187.10L333.80,188.00L333.53,188.83L333.19,189.59L332.78,190.26L332.29,190.86L332.16,190.99L331.75,191.36L331.14,191.78L330.48,192.10L330.39,192.12L329.77,192.31L329.02,192.43L328.22,192.45L327.39,192.37L326.54,192.19L325.66,191.91L324.78,191.53L323.88,191.06L322.99,190.50L322.10,189.85L321.22,189.12L320.37,188.32L319.54,187.44L318.75,186.50L317.99,185.51L317.28,184.47L316.62,183.39L316.01,182.28L315.47,181.14L314.99,179.99L314.57,178.84L314.23,177.68L314.44,178.45L314.37,178.15"/><path style="stroke:#000000;stroke-width:0.353" d="M314.44,178.45L314.49,178.65"/><path style="stroke:#000000;stroke-width:0.353" d="M316.16,176.68L316.24,177.15L316.45,178.03L316.72,178.92L317.03,179.81L317.20,180.21L317.40,180.70L317.82,181.57L318.09,180.12L318.18,179.45L318.25,178.82L318.29,178.23L318.30,177.66L318.29,177.11L318.26,176.58L318.20,176.07L318.11,175.57L318.01,175.08L317.87,174.60L317.71,174.13L317.52,173.67L317.31,173.20L317.06,172.73L316.45,171.79L316.24,172.43L316.09,173.12L316.00,173.85L315.97,174.63L316.00,175.45L316.09,176.29L316.16,176.68"/><path style="stroke:#000000;stroke-width:0.353" d="M318.02,181.67L317.82,181.57L325.73,177.00L324.85,170.70L325.25,171.00L325.93,171.56L326.59,172.18L327.22,172.85L327.83,173.57L328.42,174.34L328.96,175.14L329.47,175.97L329.94,176.83L330.36,177.70L330.73,178.59L331.05,179.48L331.31,180.37L331.52,181.24L331.65,181.98L331.76,182.95L331.79,183.76L331.76,184.54L331.67,185.28L331.52,185.97L331.31,186.61L331.05,187.19L330.73,187.72L330.36,188.17L329.94,188.56L329.47,188.88L328.96,189.13L328.42,189.30L327.83,189.39L327.22,189.40L326.59,189.34L325.93,189.20L325.25,188.98L324.78,187.82L324.52,187.29L324.25,186.80L323.96,186.33L323.65,185.88L323.32,185.46L322.97,185.05L322.60,184.66L322.20,184.29L321.78,183.92L321.33,183.57L320.85,183.23L320.33,182.89L319.77,182.56L319.17,182.23L318.02,181.67"/><path style="stroke:#000000;stroke-width:0.353" d="M317.82,181.57L318.29,182.43L318.80,183.26L319.35,184.06L319.93,184.82L320.54,185.54L321.18,186.22L321.83,186.84L322.51,187.40L323.19,187.90L323.88,188.33L324.57,188.69L325.25,188.98L327.43,187.99L328.67,187.46L329.34,187.18L329.92,186.97L330.63,186.74L331.01,186.65L331.31,186.61L331.54,185.35L325.25,188.98"/><path style="stroke:#000000;stroke-width:0.353" d="M324.08,170.19L323.86,170.07L322.51,169.41L321.83,169.20L321.18,169.06L320.54,168.99L319.93,169.01L319.35,169.10L318.80,169.27L318.29,169.51L317.82,169.83L317.40,170.22L317.03,170.68L316.72,171.20L316.45,171.79L318.63,170.79L320.21,170.12L320.84,169.87L321.37,169.68L321.83,169.54L322.20,169.45L322.51,169.41L323.19,169.70L323.88,170.07L324.57,170.50L324.85,170.70"/><path style="stroke:#000000;stroke-width:0.353" d="M319.69,149.75L320.94,149.15L322.29,148.73L323.73,148.50L325.24,148.47L326.81,148.62L328.43,148.97L330.10,149.50L331.79,150.22L333.48,151.12L335.19,152.19L336.87,153.42L338.54,154.80L340.16,156.33L341.74,158.00L343.24,159.77L344.68,161.66L345.29,162.54L346.03,163.63L347.29,165.69L348.43,167.80L349.47,169.96L350.39,172.14L351.17,174.34L351.82,176.53L352.34,178.70L352.70,180.84L352.93,182.91L353.00,184.92L352.93,186.84L352.70,188.66L352.34,190.37L351.82,191.95L351.17,193.39L350.39,194.68L349.47,195.81L348.43,196.77L347.28,197.55"/><path style="stroke:#000000;stroke-width:0.353" d="M325.73,177.00L331.76,183.02"/><path style="stroke:#000000;stroke-width:0.353" d="M331.54,185.35L331.67,184.49L331.74,183.87L331.77,183.31"/><path style="stroke:#000000;stroke-width:0.353" d="M340.16,156.33L341.85,155.35L342.47,156.00L343.21,156.34L343.86,156.70L344.51,157.10L345.16,157.55L345.80,158.03L346.43,158.55L346.94,159.01L347.66,159.71L348.26,160.33L348.83,160.98L349.39,161.65L349.93,162.35L350.44,163.07L350.92,163.81L351.38,164.55L351.81,165.31L352.20,166.08L352.56,166.86L352.88,167.64L353.17,168.42L353.43,169.20L353.64,169.98L353.82,170.74L353.97,171.50L354.08,172.23L354.15,172.96L354.18,173.66L354.18,174.34L354.14,174.99L354.06,175.61L353.95,176.20L353.80,176.74L353.93,177.31L354.05,177.08L354.25,176.57L354.41,176.02L354.53,175.43L354.62,174.82L354.66,174.17L354.67,173.50L354.65,172.80L354.54,171.78L354.55,171.57L354.54,171.03L354.50,170.47L354.43,169.89L354.32,169.30L354.19,168.69L354.02,168.08L353.83,167.45L353.61,166.83L353.36,166.20L353.08,165.57L352.78,164.94L352.46,164.32L352.11,163.71L351.73,163.11L351.34,162.53L350.92,161.96L350.48,161.41L350.03,160.87L349.56,160.37L349.07,159.88L348.57,159.42L348.06,158.98L347.54,158.58L347.01,158.20L346.23,157.71L345.76,157.34L345.11,156.89L344.46,156.48L343.81,156.12L343.16,155.81L342.51,155.54L341.80,155.30L341.85,155.35"/><path style="stroke:#000000;stroke-width:0.353" d="M341.80,155.30L340.23,153.82L340.00,153.63L340.32,153.51L340.88,153.35L341.45,153.25L342.04,153.20L342.64,153.21L343.26,153.26L343.90,153.38L344.54,153.54L345.19,153.76L345.84,154.02L346.29,154.23L347.15,154.68L347.81,155.07L348.46,155.51L349.11,155.98L349.74,156.49L350.37,157.04L350.99,157.61L351.58,158.22L352.16,158.86L352.72,159.52L353.26,160.21L353.76,160.93L354.25,161.66L354.70,162.41L355.13,163.18L355.53,163.95L355.89,164.73L356.22,165.52L356.53,166.30L356.79,167.09L357.02,167.87L357.22,168.64L357.38,169.39L357.50,170.13L357.59,170.86L357.63,171.56L357.63,172.24L357.59,172.89L357.51,173.50L357.39,174.09L357.24,174.65L357.05,175.17L356.82,175.65L356.56,176.09L356.26,176.50L355.94,176.86L355.59,177.19L355.21,177.46"/><path style="stroke:#000000;stroke-width:0.353" d="M340.00,153.63L339.95,153.59"/><path style="stroke:#000000;stroke-width:0.353" d="M342.47,156.00L343.43,157.01L344.94,158.79L346.37,160.68L347.72,162.65L348.98,164.71L350.13,166.82L350.62,167.84L351.17,168.98L352.08,171.17L352.87,173.36L353.52,175.56L353.80,176.74"/><path style="stroke:#000000;stroke-width:0.353" d="M342.55,152.04L343.07,151.76L343.61,151.54L344.18,151.38L344.78,151.28L345.37,151.23L345.97,151.24L346.58,151.30L347.21,151.41L347.85,151.56L348.50,151.76L349.15,152.01L349.81,152.30L350.46,152.63L351.12,153.01L351.77,153.43L352.41,153.89L353.05,154.38L353.68,154.92L354.29,155.49L354.88,156.10L355.46,156.74L356.02,157.41L356.56,158.10L357.07,158.82L357.56,159.55L358.03,160.31L358.47,161.07L358.88,161.84L359.26,162.62L359.60,163.40L359.92,164.19L360.19,164.97L360.43,165.74L360.63,166.51L360.79,167.26L360.91,168.00L360.99,168.72L361.03,169.42L361.04,170.11L361.00,170.76L360.93,171.39L360.82,171.99L360.68,172.56L360.50,173.10L360.29,173.60L360.04,174.06L359.76,174.48L359.45,174.85L359.10,175.18L358.73,175.46L358.32,175.69"/><path style="stroke:#000000;stroke-width:0.353" d="M356.84,176.09L357.00,175.89L357.26,175.45L357.50,174.97L357.70,174.46L357.86,173.92L357.91,173.67L357.98,173.33L358.07,172.72L358.12,172.07L358.12,171.40L358.08,170.70L358.01,169.98L357.95,169.61L357.95,168.93L357.91,168.37L357.84,167.79L357.73,167.20L357.60,166.59L357.43,165.98L357.23,165.36L357.00,164.74L356.74,164.11L356.46,163.49L356.15,162.86L355.81,162.24L355.45,161.63L355.07,161.03L354.67,160.45L354.24,159.87L353.81,159.32L353.35,158.79L352.88,158.27L352.39,157.79L351.90,157.33L351.39,156.90L350.87,156.51L350.34,156.14L349.81,155.81L349.52,155.65L349.06,155.31L348.41,154.86L347.76,154.46L347.10,154.10L346.74,153.93L346.44,153.79L345.79,153.51L345.14,153.29L344.48,153.12L343.84,152.99L343.20,152.93L342.59,152.92L341.99,152.96L341.33,153.08"/><path style="stroke:#000000;stroke-width:0.353" d="M346.23,157.71L347.03,158.37L347.65,158.93L348.26,159.53L348.85,160.16L349.42,160.81L349.97,161.49L350.35,161.99L351.01,162.92L351.49,163.66L351.95,164.41L352.37,165.17L352.76,165.94L353.11,166.72L353.41,167.45L353.71,168.28L353.96,169.06L354.17,169.83L354.34,170.59L354.48,171.34L354.54,171.78"/><path style="stroke:#000000;stroke-width:0.353" d="M344.71,151.09L344.97,151.03L345.38,150.98L345.96,150.95L346.57,150.97L347.18,151.03L347.81,151.15L348.45,151.31L349.10,151.52L349.75,151.78L350.41,152.07L351.07,152.42L351.72,152.80L352.37,153.23L353.02,153.69L353.65,154.08L354.18,154.45L354.69,154.85L355.21,155.28L355.71,155.74L356.20,156.22L356.68,156.73L357.13,157.24L357.59,157.80L358.02,158.37L358.43,158.95L358.82,159.54L359.18,160.15L359.52,160.76L359.84,161.38L360.12,162.00L360.38,162.62L360.60,163.25L360.80,163.87L360.97,164.48L361.11,165.09L361.22,165.69L361.30,166.28L361.35,166.85L361.37,167.55L361.42,167.85L361.49,168.57L361.53,169.27L361.52,169.94L361.48,170.59L361.40,171.22L361.29,171.81L361.14,172.38L360.95,172.90L360.73,173.40L360.48,173.85L360.31,174.09"/><path style="stroke:#000000;stroke-width:0.353" d="M361.81,173.64L362.23,173.40L362.59,173.12L362.94,172.79L363.25,172.42L363.54,172.00L363.78,171.54L363.99,171.04L364.16,170.50L364.29,169.93L364.38,169.32L364.44,168.68L364.46,168.01L364.44,167.32L364.38,166.60L364.29,165.87L364.16,165.13L364.00,164.37L363.79,163.59L363.56,162.82L363.28,162.04L362.97,161.26L362.63,160.48L362.25,159.71L361.83,158.94L361.39,158.18L360.91,157.44L360.41,156.72L359.88,156.01L359.34,155.33L358.77,154.66L358.18,154.03L357.58,153.42L356.96,152.85L356.34,152.31L355.70,151.81L355.05,151.35L354.40,150.93L353.75,150.56L353.10,150.23L352.45,149.95L351.80,149.72L351.16,149.54L350.52,149.41L349.90,149.32L349.29,149.28L348.69,149.29L348.11,149.35L347.55,149.45L347.01,149.60L346.50,149.80L346.01,150.05"/><path style="stroke:#000000;stroke-width:0.353" d="M349.52,155.65L350.35,156.30L350.97,156.85L351.58,157.44L352.18,158.05L352.75,158.70L353.31,159.36L353.84,160.06L354.34,160.78L354.82,161.51L355.27,162.26L355.80,163.24L356.08,163.81L356.44,164.59L356.77,165.37L357.06,166.16L357.32,166.94L357.55,167.72L357.74,168.49L357.89,169.24L357.95,169.61"/><path style="stroke:#000000;stroke-width:0.353" d="M356.50,151.77L356.94,152.12L357.56,152.67L358.18,153.25L358.78,153.86L359.36,154.50L359.92,155.16L360.47,155.85L360.99,156.56L361.49,157.29L361.95,158.04L362.39,158.79L362.80,159.56L363.18,160.33L363.52,161.11L363.82,161.90L364.09,162.67L364.32,163.45L364.52,164.22L364.68,164.98L364.81,165.87L364.82,165.33L364.79,164.77L364.73,164.20L364.64,163.61L364.51,163.01L364.36,162.40L364.18,161.78L363.97,161.16L363.74,160.53L363.47,159.90L363.18,159.27L362.87,158.65L362.53,158.04L362.16,157.43L361.78,156.84L361.37,156.26L360.94,155.70L360.42,155.09L360.02,154.65L359.54,154.15L359.05,153.68L358.54,153.23L358.02,152.81L357.50,152.42L356.97,152.06L356.50,151.77L355.66,151.14L355.01,150.72L354.36,150.34L353.70,150.00L353.48,149.91L353.05,149.72L352.40,149.48L351.76,149.29L351.12,149.15L350.50,149.05L349.88,149.00L349.28,149.00L348.71,149.05L348.16,149.14"/><path style="stroke:#000000;stroke-width:0.353" d="M349.66,147.98L350.19,147.73L350.74,147.53L351.31,147.39L351.91,147.30L352.52,147.27L353.14,147.29L353.78,147.37L354.42,147.50L355.08,147.69L355.73,147.93L356.38,148.21L357.04,148.53L357.69,148.90L358.35,149.32L359.00,149.77L359.64,150.26L360.28,150.78L360.90,151.34L361.51,151.93L362.10,152.56L362.67,153.21L363.22,153.88L363.74,154.58L364.24,155.30L364.71,156.04L365.16,156.80L365.57,157.56L365.95,158.34L366.25,159.01L366.62,159.91L366.91,160.70L367.16,161.48L367.38,162.25L367.56,163.02L367.70,163.77L367.81,164.51L367.88,165.22L367.91,165.91L367.89,166.58L367.84,167.22L367.74,167.84L367.61,168.40L367.44,168.94L367.23,169.44L366.99,169.91L366.71,170.34L366.41,170.72L366.07,171.07L365.70,171.37L365.31,171.63"/><path style="stroke:#000000;stroke-width:0.353" d="M361.37,167.55L361.31,167.11L361.15,166.36L360.96,165.60L360.73,164.82L360.46,164.04L360.15,163.26L359.81,162.48L359.47,161.77L359.03,160.92L358.60,160.16L358.14,159.40L357.65,158.67L357.14,157.95L356.60,157.25L356.05,156.58L355.47,155.93L354.88,155.32L354.43,154.89L353.65,154.20L353.02,153.69"/><path style="stroke:#000000;stroke-width:0.353" d="M359.78,149.71L360.25,150.07L360.87,150.60L361.50,151.16L362.10,151.76L362.69,152.39L363.31,153.11L363.80,153.72L364.32,154.42L364.82,155.15L365.28,155.89L365.72,156.66L366.13,157.42L366.32,157.80L366.51,158.20L366.85,158.98L367.17,159.77L367.45,160.55L367.65,161.19L367.90,162.11L368.08,162.87L368.22,163.70L368.23,163.22L368.20,162.67L368.14,162.10L368.05,161.51L367.93,160.92L367.77,160.31L367.49,159.41L367.12,158.44L366.85,157.81L366.55,157.19L366.22,156.57L365.87,155.95L365.50,155.35L365.11,154.76L364.69,154.18L364.26,153.62L363.81,153.07L363.35,152.55L362.87,152.06L362.37,151.59L361.87,151.15L361.35,150.74L360.83,150.36L360.30,150.01L359.78,149.71L358.95,149.11L358.30,148.69L357.64,148.31L356.99,147.98L356.33,147.69L355.69,147.45L355.00,147.24L354.34,147.10L353.68,147.01L353.05,146.99L352.42,147.02L351.82,147.10L351.59,147.16"/><path style="stroke:#000000;stroke-width:0.353" d="M352.97,146.02L353.51,145.75L354.07,145.55L354.67,145.40L355.29,145.32L355.88,145.30L356.49,145.33L357.11,145.41L357.74,145.53L358.39,145.71L359.04,145.93L359.69,146.19L360.35,146.50L361.01,146.86L361.66,147.25L362.31,147.69L362.95,148.16L363.58,148.68L364.20,149.23L364.81,149.81L365.40,150.43L365.97,151.09L366.52,151.76L367.05,152.47L367.55,153.19L368.03,153.93L368.49,154.69L368.92,155.48L369.31,156.23L369.67,157.01L370.01,157.80L370.30,158.58L370.57,159.36L370.79,160.13L370.98,160.89L371.12,161.64L371.22,162.37L371.29,163.09L371.31,163.78L371.30,164.45L371.25,165.10L371.16,165.71L371.04,166.30L370.88,166.86L370.69,167.38L370.46,167.86L370.20,168.30L369.90,168.70L369.58,169.06L369.22,169.37L368.83,169.64"/><path style="stroke:#000000;stroke-width:0.353" d="M354.07,177.96L353.93,177.31"/><path style="stroke:#000000;stroke-width:0.353" d="M363.24,147.73L363.55,147.97L364.18,148.49L364.80,149.05L365.40,149.64L365.99,150.27L366.56,150.92L367.10,151.61L367.63,152.31L368.13,153.05L368.60,153.78L369.05,154.54L369.47,155.31L369.86,156.09L370.22,156.87L370.55,157.66L370.84,158.44L371.10,159.22L371.31,159.99L371.49,160.75L371.64,161.59L371.64,161.15L371.60,160.58L371.53,160.00L371.43,159.41L371.31,158.81L371.15,158.19L370.96,157.58L370.75,156.95L370.50,156.33L370.23,155.71L369.93,155.09L369.60,154.47L369.24,153.86L368.86,153.26L368.46,152.68L368.04,152.11L367.60,151.55L367.14,151.01L366.67,150.50L366.19,150.00L365.69,149.53L365.18,149.09L364.66,148.68L364.14,148.30L363.61,147.95L363.24,147.73L362.91,147.49L362.26,147.04L361.61,146.64L360.95,146.28L360.30,145.96L359.64,145.69L358.99,145.46L358.34,145.28L357.71,145.14L357.09,145.06L356.48,145.02L355.89,145.03L355.46,145.07L355.00,145.15"/><path style="stroke:#000000;stroke-width:0.353" d="M356.58,143.95L356.53,143.98"/><path style="stroke:#000000;stroke-width:0.353" d="M372.33,167.58L372.71,167.31L373.07,167.00L373.40,166.65L373.70,166.25L373.95,165.81L374.18,165.33L374.36,164.80L374.51,164.24L374.62,163.64L374.69,163.01L374.72,162.36L374.72,161.68L374.68,160.97L374.60,160.25L374.49,159.51L374.34,158.75L374.15,157.99L373.93,157.21L373.67,156.43L373.38,155.65L373.05,154.87L372.68,154.10L372.28,153.33L371.84,152.57L371.38,151.82L370.89,151.09L370.38,150.37L369.84,149.68L369.28,149.00L368.70,148.36L368.10,147.74L367.49,147.15L366.87,146.60L366.24,146.08L365.59,145.60L364.95,145.17L364.29,144.78L363.64,144.43L362.99,144.13L362.34,143.89L361.69,143.68L361.06,143.53L360.43,143.42L359.81,143.36L359.21,143.35L358.62,143.39L358.05,143.47L357.51,143.60L356.98,143.78L356.48,144.01L356.01,144.28"/><path style="stroke:#000000;stroke-width:0.353" d="M366.80,145.86L367.47,146.41L368.09,146.97L368.83,147.70L369.29,148.19L369.87,148.84L370.42,149.52L370.96,150.22L371.47,150.94L371.95,151.67L372.41,152.42L372.84,153.18L373.25,153.98L373.60,154.73L373.92,155.51L374.21,156.29L374.46,157.07L374.68,157.84L374.86,158.60L375.00,159.36L375.08,159.91L375.09,159.62L375.08,159.08L375.03,158.51L374.95,157.93L374.84,157.33L374.70,156.73L374.53,156.11L374.33,155.48L374.11,154.86L373.86,154.23L373.58,153.60L373.27,152.98L372.95,152.36L372.59,151.75L372.21,151.15L371.82,150.57L371.39,150.01L370.95,149.46L370.49,148.93L370.02,148.42L369.53,147.94L369.02,147.48L368.51,147.05L367.99,146.65L367.46,146.27L366.80,145.86L366.20,145.40L365.55,144.96L364.90,144.56L364.25,144.21L363.59,143.90L362.94,143.64L362.30,143.43L361.66,143.27L361.03,143.16L360.41,143.09L359.80,143.07L359.21,143.09L358.64,143.17L358.42,143.22"/><path style="stroke:#000000;stroke-width:0.353" d="M375.41,165.79L375.81,165.55L376.19,165.27L376.54,164.94L376.86,164.57L377.15,164.16L377.41,163.71L377.63,163.22L377.82,162.70L377.96,162.14L378.08,161.55L378.15,160.92L378.18,160.26L378.16,159.58L378.11,158.88L378.02,158.15L377.89,157.40L377.73,156.64L377.53,155.87L377.29,155.09L377.02,154.31L376.71,153.52L376.38,152.74L376.01,151.96L375.61,151.18L375.17,150.42L374.71,149.68L374.23,148.95L373.71,148.24L373.17,147.55L372.61,146.89L372.02,146.26L371.42,145.66L370.81,145.08L370.18,144.54L369.54,144.04L368.89,143.57L368.24,143.14L367.58,142.75L366.93,142.40L366.27,142.10L365.62,141.85L364.95,141.64L364.29,141.48L363.64,141.38L363.01,141.34L362.37,141.36L361.75,141.43L361.15,141.56L360.58,141.75L360.04,142.00L359.52,142.29"/><path style="stroke:#000000;stroke-width:0.353" d="M360.00,142.02L360.01,142.01"/><path style="stroke:#000000;stroke-width:0.353" d="M370.09,143.81L370.78,144.35L371.40,144.90L372.02,145.48L372.62,146.09L373.20,146.73L373.76,147.39L374.19,147.95L374.80,148.79L375.29,149.53L375.74,150.28L376.17,151.04L376.60,151.89L376.93,152.59L377.26,153.38L377.56,154.16L377.82,154.95L378.05,155.72L378.27,156.58L378.41,157.25L378.49,157.79L378.49,156.97L378.44,156.41L378.37,155.83L378.26,155.24L378.11,154.63L377.94,154.02L377.73,153.40L377.50,152.77L377.24,152.14L376.95,151.52L376.63,150.90L376.32,150.34L375.93,149.67L375.54,149.07L375.14,148.49L374.72,147.92L374.27,147.37L373.82,146.84L373.34,146.33L372.85,145.85L372.35,145.40L371.84,144.98L371.32,144.59L370.79,144.23L370.09,143.81L369.49,143.36L368.84,142.93L368.19,142.53L367.53,142.18L366.87,141.87L366.22,141.61L365.52,141.38L364.84,141.21L364.16,141.11L363.50,141.06L362.86,141.08L362.24,141.15L361.85,141.24"/><path style="stroke:#000000;stroke-width:0.353" d="M362.23,173.40L362.64,173.17"/><path style="stroke:#000000;stroke-width:0.353" d="M364.81,165.87L364.88,166.45L364.93,167.16L364.94,167.85L364.92,168.51L364.85,169.14L364.75,169.75L364.62,170.32L364.44,170.85L364.23,171.35L363.98,171.80L363.73,172.15"/><path style="stroke:#000000;stroke-width:0.353" d="M378.94,163.80L379.33,163.56L379.70,163.27L380.04,162.93L380.35,162.54L380.62,162.12L380.87,161.65L381.07,161.14L381.25,160.60L381.39,160.03L381.49,159.43L381.56,158.79L381.59,158.13L381.58,157.45L381.53,156.74L381.44,156.02L381.31,155.28L381.14,154.52L380.93,153.75L380.69,152.98L380.40,152.20L380.09,151.41L379.73,150.63L379.35,149.85L378.94,149.07L378.49,148.31L378.02,147.56L377.53,146.83L377.01,146.12L376.47,145.43L375.91,144.77L375.33,144.14L374.56,143.38L374.12,142.97L373.49,142.44L372.85,141.95L372.20,141.50L371.55,141.09L370.89,140.72L370.23,140.39L369.58,140.10L368.93,139.86L368.28,139.67L367.64,139.52L367.02,139.42L366.40,139.37L365.72,139.38L365.23,139.42L364.68,139.53L364.15,139.68L363.64,139.89L363.16,140.15"/><path style="stroke:#000000;stroke-width:0.353" d="M363.94,139.70L363.58,139.91"/><path style="stroke:#000000;stroke-width:0.353" d="M365.72,171.39L365.66,171.42"/><path style="stroke:#000000;stroke-width:0.353" d="M373.51,141.80L373.56,141.84L373.57,141.84L374.09,142.25L374.71,142.79L375.33,143.36L375.92,143.97L376.50,144.60L377.10,145.32L377.59,145.96L378.09,146.66L378.60,147.41L379.06,148.16L379.50,148.93L379.96,149.81L380.29,150.48L380.63,151.27L380.94,152.05L381.22,152.83L381.46,153.61L381.66,154.37L381.83,155.13L381.91,155.65L381.89,154.89L381.83,154.32L381.75,153.73L381.63,153.13L381.49,152.52L381.32,151.90L381.11,151.28L380.88,150.66L380.62,150.04L380.33,149.41L380.01,148.80L379.66,148.18L379.29,147.58L378.90,146.99L378.49,146.41L378.06,145.85L377.61,145.30L377.14,144.78L376.66,144.27L376.17,143.79L375.66,143.34L375.15,142.91L374.63,142.52L374.11,142.16L373.51,141.80L372.81,141.30L372.15,140.88L371.50,140.50L370.84,140.16L370.18,139.87L369.53,139.62L368.88,139.42L368.24,139.26L367.61,139.15L367.00,139.09L366.40,139.08L365.96,139.11L365.53,139.17L365.27,139.22"/><path style="stroke:#000000;stroke-width:0.353" d="M368.22,163.70L368.31,164.35L368.37,165.06L368.39,165.75L368.37,166.41L368.31,167.05L368.21,167.65L368.07,168.22L367.89,168.75L367.68,169.25L367.43,169.71L367.12,170.16"/><path style="stroke:#000000;stroke-width:0.353" d="M366.47,138.23L366.96,137.97L367.36,137.81L368.00,137.61L368.56,137.50L369.13,137.43L369.73,137.42L370.34,137.45L370.96,137.53L371.59,137.66L372.23,137.83L372.88,138.06L373.53,138.32L374.19,138.64L374.84,139.00L375.49,139.41L376.13,139.86L376.77,140.36L377.40,140.89L378.02,141.46L378.62,142.06L379.21,142.69L379.78,143.35L380.33,144.03L380.86,144.74L381.37,145.46L381.85,146.20L382.30,146.95L382.72,147.72L383.11,148.49L383.46,149.27L383.78,150.05L384.06,150.83L384.30,151.60L384.51,152.37L384.68,153.14L384.81,153.88L384.91,154.62L384.97,155.33L385.00,156.03L384.98,156.70L384.93,157.35L384.84,157.96L384.72,158.54L384.56,159.09L384.36,159.60L384.12,160.07L383.85,160.50L383.54,160.88L383.20,161.21L382.83,161.50L382.43,161.75"/><path style="stroke:#000000;stroke-width:0.353" d="M377.06,139.92L377.37,140.17L378.00,140.71L378.61,141.28L379.22,141.89L379.80,142.52L380.37,143.18L380.92,143.87L381.44,144.58L381.94,145.31L382.42,146.05L382.86,146.81L383.28,147.57L383.66,148.35L384.01,149.13L384.32,149.91L384.59,150.68L384.78,151.29L385.03,152.23L385.20,152.99L385.35,153.98L385.36,153.38L385.32,152.82L385.25,152.24L385.16,151.65L385.03,151.05L384.88,150.43L384.69,149.81L384.48,149.19L384.24,148.56L383.97,147.93L383.68,147.30L383.36,146.68L383.01,146.07L382.65,145.47L382.26,144.88L381.84,144.31L381.41,143.76L380.96,143.22L380.48,142.70L380.00,142.21L379.50,141.74L378.99,141.30L378.48,140.88L377.95,140.49L377.42,140.14L377.06,139.92L376.74,139.67L376.09,139.21L375.44,138.79L374.79,138.42L374.14,138.10L373.48,137.82L372.84,137.59L372.19,137.41L371.56,137.27L370.93,137.18L370.32,137.14L369.72,137.15L369.14,137.20L368.70,137.28"/><path style="stroke:#000000;stroke-width:0.353" d="M371.64,161.59L371.73,162.22L371.78,162.93L371.80,163.62L371.78,164.29L371.72,164.93L371.63,165.54L371.50,166.12L371.34,166.67L371.13,167.18L370.90,167.66L370.58,168.16"/><path style="stroke:#000000;stroke-width:0.353" d="M373.70,135.44L373.50,135.42L372.83,135.42L372.19,135.48L371.57,135.60L370.97,135.78L370.41,136.02L369.87,136.31"/><path style="stroke:#000000;stroke-width:0.353" d="M370.34,136.04L370.35,136.03"/><path style="stroke:#000000;stroke-width:0.353" d="M374.00,166.22L374.13,166.05L374.40,165.61L374.63,165.13L374.82,164.60L374.97,164.06L375.09,163.47L375.16,162.85L375.21,162.19L375.21,161.52L375.18,160.81L375.08,159.91"/><path style="stroke:#000000;stroke-width:0.353" d="M377.39,164.24L377.59,163.96L377.85,163.51L378.08,163.03L378.27,162.51L378.42,161.99L378.55,161.37L378.62,160.75L378.66,160.15L378.66,159.42L378.61,158.72L378.49,157.79"/><path style="stroke:#000000;stroke-width:0.353" d="M379.75,163.32L379.35,163.56"/><path style="stroke:#000000;stroke-width:0.353" d="M380.85,162.23L381.06,161.91L381.31,161.45L381.53,160.95L381.71,160.42L381.84,159.90L381.96,159.25L382.04,158.63L382.07,158.08L382.07,157.29L382.03,156.59L381.91,155.65"/><path style="stroke:#000000;stroke-width:0.353" d="M382.84,161.50L383.25,161.27"/><path style="stroke:#000000;stroke-width:0.353" d="M384.29,160.29L384.56,159.87L384.81,159.41L385.01,158.90L385.18,158.36L385.31,157.78L385.41,157.17L385.43,156.94L385.46,156.54L385.48,155.87L385.47,155.18L385.41,154.46L385.35,153.98"/><path style="stroke:#000000;stroke-width:0.353" d="M371.12,135.64L370.89,135.74L369.87,136.31L369.37,136.66L368.90,137.06L368.70,137.28L368.05,137.45L367.53,137.65L367.04,137.90L366.47,138.23L365.98,138.56L365.52,138.96L365.27,139.22L364.71,139.38L364.32,139.53L363.94,139.70L363.16,140.15L362.71,140.45L362.28,140.80L361.85,141.24L361.64,141.28L361.07,141.47L360.53,141.71L359.52,142.29L359.04,142.64L358.59,143.04L358.42,143.22L358.09,143.29L357.56,143.46L357.06,143.68L356.01,144.28L355.55,144.62L355.12,145.01L355.00,145.15L354.66,145.24L354.27,145.36L353.90,145.52L353.54,145.70L352.97,146.02L352.43,146.38L351.93,146.81L351.59,147.16L351.25,147.25L350.69,147.44L350.17,147.69L349.66,147.98L349.17,148.27L348.70,148.62L348.27,149.02L348.16,149.14L347.60,149.29L347.08,149.48L346.58,149.72L346.01,150.05L345.55,150.34L345.12,150.68L344.71,151.09L344.20,151.22L343.84,151.35L343.49,151.51L342.55,152.04L342.04,152.40L341.57,152.82L341.33,153.08L340.85,153.21L340.32,153.41L339.95,153.59L338.57,152.44L336.88,151.21L335.18,150.14L333.48,149.24L331.79,148.53L330.13,147.99L328.50,147.65L326.85,147.49L325.42,147.53L323.99,147.75L322.63,148.17L321.38,148.77L319.69,149.75L318.54,150.54L317.50,151.50L316.58,152.63L315.80,153.92L314.73,156.20L314.27,157.38L313.63,159.26L313.28,160.48L312.86,162.42L312.63,163.66L312.37,166.12L312.32,168.61L312.41,170.64L312.60,172.42L313.06,174.91L313.61,176.98L314.18,178.73L314.89,180.43L315.85,182.47L316.78,184.09L318.05,186.04L318.80,187.01L320.35,188.88L322.12,190.64L323.08,191.50L325.10,193.10L327.29,194.53L328.46,195.17L329.62,195.78L330.85,196.33L332.07,196.83L333.34,197.28L334.59,197.68L335.89,198.00L337.16,198.30L339.74,198.69L341.73,198.84L343.24,198.80L344.68,198.57L346.03,198.16L347.28,197.55L348.98,196.58L350.13,195.79L351.16,194.83L352.08,193.70L352.87,192.41L353.52,190.97L354.03,189.39L354.40,187.68L354.62,185.86L354.69,183.94L354.62,181.94L354.40,179.86L354.07,177.96L354.36,177.88L354.80,177.69L355.62,177.22L356.01,176.96L356.37,176.64L356.70,176.29L356.84,176.09L357.43,176.00L357.89,175.87L358.32,175.69L359.15,175.23L359.53,174.95L359.88,174.63L360.19,174.26L360.31,174.09L360.45,174.08L360.93,173.98L361.38,173.83L361.81,173.64L362.64,173.17L363.02,172.89L363.37,172.57L363.73,172.15L363.98,172.12L364.44,172.01L364.89,171.84L365.31,171.63L365.72,171.39L366.12,171.14L366.49,170.85L366.84,170.51L367.12,170.16L367.50,170.12L367.97,170.01L368.42,169.85L368.83,169.64L369.26,169.39L369.64,169.14L370.00,168.84L370.34,168.49L370.58,168.16L371.00,168.10L371.47,167.97L371.91,167.80L372.74,167.34L373.14,167.08L373.50,166.78L373.83,166.44L374.00,166.22L374.52,166.13L374.98,165.98L375.41,165.79L376.23,165.32L376.61,165.04L376.97,164.72L377.30,164.36L377.39,164.24L377.57,164.22L378.05,164.13L378.51,163.99L378.94,163.80L379.75,163.32L380.13,163.04L380.47,162.71L380.78,162.33L380.85,162.23L381.07,162.20L381.55,162.10L382.00,161.95L382.43,161.75L383.25,161.27L383.63,160.99L383.97,160.66L384.29,160.29"/><path style="stroke:#000000;stroke-width:0.353" d="M385.22,160.05L385.07,160.11"/><g id="paperID" visibility="hidden" opacity="0.00" transform="scale(0.000100)"><path style="stroke:#000000;stroke-width:0.500;fill:#e6e6e6;fill-rule:evenodd" d="M-2000.00,-2000.00L2500.00,-2000.00L2500.00,2500.00L-2000.00,2500.00zM0.00,0.00L500.00,0.00L500.00,500.00L0.00,500.00z"/><path style="fill:#000000;fill-opacity:0.118" d="M3.00,500.00L500.00,500.00L500.00,3.00L503.00,3.00L503.00,503.00L3.00,503.00z"/></g></g></svg>
