<?xml version="1.0" encoding="UTF-8" standalone="no"?>
<svg xmlns="http://www.w3.org/2000/svg" xmlns:xlink="http://www.w3.org/1999/xlink" width="500.000mm" height="500.000mm" viewBox="0.000000 0.000000 500.000000 500.000000" stroke-linejoin="round" stroke-linecap="round" fill="none" fill-rule="evenodd"><desc>Composer Export</desc><script type="text/ecmascript"><![CDATA[
if(typeof(top) != "undefined")
{
	top.ShowPaper = ShowPaper;
}
function ShowPaper()
{
  var svgDocument = getDocument();
  var paper = svgDocument.getElementById("paperID");
  if(paper)
  {
    paper.setAttribute("transform","scale(1)");
    paper.setAttribute("opacity","1");
    paper.setAttribute("visibility","visible");
  }
  var svg = svgDocument.getRootElement();
  if(svg)
  {
    svg.setAttribute("width","510.000mm");
    svg.setAttribute("height","510.000mm");
    svg.setAttribute("viewBox","-5.000000 -5.000000 510.000000 510.000000");
  }
}
]]></script><defs/><g><path style="fill:#ffffff" d="M499.90,499.90L366.28,499.94L366.15,223.12L365.89,499.94L0.12,499.90L0.12,0.12L499.90,0.12z"/><path style="fill:#97fa98" d="M285.80,203.98L286.03,205.17L287.40,209.52L287.62,210.70L287.81,211.54L287.72,212.64L99.08,321.71L92.20,325.94L88.20,329.87L85.62,333.25L83.82,336.21L81.20,341.92L79.05,350.80L78.67,354.79L78.66,359.13L78.88,362.33L79.05,363.91L79.28,365.10L81.20,372.78L112.20,452.52L112.21,453.87L108.61,457.83L99.61,461.61L94.04,462.23L91.88,462.11L91.12,460.89L60.17,380.72L58.19,373.97L57.85,372.23L57.81,371.18L57.63,371.04L57.06,367.48L57.01,366.01L56.84,365.88L56.65,364.70L56.60,362.05L56.44,361.90L56.44,352.01L56.84,348.04L57.46,344.07L58.97,337.15L61.78,329.64L66.17,321.34L70.34,315.98L72.76,313.24L78.83,308.21L87.05,303.33L285.62,188.63z"/><path style="fill:#000020" d="M366.51,90.98L366.15,111.02L366.15,83.04z"/><path style="fill:#000020" d="M286.03,205.17L285.80,203.98L285.99,204.12z"/><path style="fill:#000020" d="M287.62,210.70L287.40,209.52L287.58,209.67z"/><path style="fill:#000020" d="M288.13,211.97L287.72,212.64L287.81,211.54z"/><path style="fill:#000020" d="M78.88,362.33L78.66,359.13L78.82,359.27z"/><path style="fill:#000020" d="M56.65,364.70L56.44,361.90L56.60,362.05z"/><path style="fill:#000020" d="M79.28,365.10L79.05,363.91L79.23,364.04z"/><path style="fill:#000020" d="M57.06,367.48L56.84,365.88L57.01,366.01z"/><path style="fill:#000020" d="M57.85,372.23L57.63,371.04L57.81,371.18z"/><path style="fill:#000020" d="M366.28,499.94L365.89,499.94L366.15,223.12z"/><path style="stroke:#000000;stroke-width:0.353" d="M366.08,91.05L366.46,90.98L366.67,90.86L366.91,90.57L367.04,90.15L367.06,84.90L366.91,84.15L366.57,83.39L366.21,82.87L365.65,82.32L327.55,60.29"/><path style="stroke:#000000;stroke-width:0.353" d="M327.40,60.23L327.44,60.25"/><path style="stroke:#000000;stroke-width:0.353" d="M327.70,60.37L432.26,-0.00"/><path style="stroke:#000000;stroke-width:0.353" d="M365.36,82.11L500.00,4.38"/><path style="stroke:#000000;stroke-width:0.353" d="M381.08,101.89L366.07,110.56"/><path style="stroke:#000000;stroke-width:0.353" d="M500.00,26.12L366.07,103.45"/><path style="stroke:#000000;stroke-width:0.353" d="M500.00,22.17L366.07,99.50"/><path style="stroke:#000000;stroke-width:0.353" d="M366.57,90.93L500.00,13.89"/><path style="stroke:#000000;stroke-width:0.353" d="M367.07,89.82L500.00,13.08"/><path style="stroke:#000000;stroke-width:0.353" d="M367.07,85.08L500.00,8.33"/><path style="stroke:#000000;stroke-width:0.353" d="M381.08,105.06L368.44,112.36"/><path style="stroke:#000000;stroke-width:0.353" d="M500.00,31.23L388.46,95.63"/><path style="stroke:#000000;stroke-width:0.353" d="M500.00,123.80L428.19,165.26L428.39,165.10L428.54,164.89L428.64,164.63L428.70,164.15L428.70,125.44L428.69,120.48L428.54,119.73L428.19,118.97L427.71,118.30L427.43,118.02L426.99,117.70L389.17,95.87"/><path style="stroke:#000000;stroke-width:0.353" d="M389.03,95.81L389.07,95.83"/><path style="stroke:#000000;stroke-width:0.353" d="M389.32,95.95L500.00,32.05"/><path style="stroke:#000000;stroke-width:0.353" d="M426.99,117.70L500.00,75.54"/><path style="stroke:#000000;stroke-width:0.353" d="M428.20,236.42L428.39,236.26L428.54,236.05L428.64,235.79L428.70,235.31L500.00,194.14"/><path style="stroke:#000000;stroke-width:0.353" d="M428.70,235.31L428.70,191.82L428.64,191.28L428.47,190.70L428.19,190.13L427.71,189.46"/><path style="stroke:#000000;stroke-width:0.353" d="M428.70,191.82L500.00,150.65"/><path style="stroke:#000000;stroke-width:0.353" d="M500.00,146.70L427.69,188.45"/><path style="stroke:#000000;stroke-width:0.353" d="M500.00,141.96L427.69,183.70"/><path style="stroke:#000000;stroke-width:0.353" d="M500.00,141.14L427.69,182.89"/><path style="stroke:#000000;stroke-width:0.353" d="M427.69,174.61L500.00,132.86"/><path style="stroke:#000000;stroke-width:0.353" d="M500.00,128.91L427.69,170.66"/><path style="stroke:#000000;stroke-width:0.353" d="M428.19,165.26L427.97,165.35L427.71,165.37"/><path style="stroke:#000000;stroke-width:0.353" d="M428.70,164.15L500.00,122.98"/><path style="stroke:#000000;stroke-width:0.353" d="M428.70,120.66L500.00,79.49"/><path style="stroke:#000000;stroke-width:0.353" d="M326.85,60.04L430.84,-0.00"/><path style="stroke:#000000;stroke-width:0.353" d="M427.71,236.53L427.97,236.51L428.20,236.42L500.00,194.96"/><path style="stroke:#000000;stroke-width:0.353" d="M224.27,118.68L224.42,119.16L224.98,119.67L262.64,141.42L263.53,141.74L264.36,141.82L265.18,141.74L266.07,141.42L266.07,190.26L264.88,190.99L263.83,191.77L263.12,192.45L262.64,193.07L262.64,141.42"/><path style="stroke:#000000;stroke-width:0.353" d="M224.98,248.77L224.98,500.00"/><path style="stroke:#000000;stroke-width:0.353" d="M224.98,119.67L224.98,223.83"/><path style="stroke:#000000;stroke-width:0.353" d="M242.75,118.56L242.97,118.09L243.45,117.69L243.45,119.67L242.89,119.16L242.78,118.93L242.75,118.56"/><path style="stroke:#000000;stroke-width:0.353" d="M243.45,119.67L245.87,121.07L246.69,122.12L247.20,122.61L248.43,123.52L249.90,124.30L250.70,124.63L253.44,125.44L255.79,126.81L255.79,110.57L253.37,111.97L253.37,125.44"/><path style="stroke:#000000;stroke-width:0.353" d="M243.45,117.69L245.87,116.30L245.87,121.07"/><path style="stroke:#000000;stroke-width:0.353" d="M245.87,116.30L246.69,115.25L247.20,114.76L248.43,113.85L249.90,113.07L250.70,112.73L251.56,112.44L253.37,111.97"/><path style="stroke:#000000;stroke-width:0.353" d="M255.79,126.81L256.68,127.12L257.51,127.21L258.53,127.08L259.22,126.80L259.22,111.31L259.22,110.57L258.34,110.24L257.09,110.18L256.48,110.29L255.79,110.57"/><path style="stroke:#000000;stroke-width:0.353" d="M259.22,126.80L261.64,125.44L261.64,111.97L259.22,110.57"/><path style="stroke:#000000;stroke-width:0.353" d="M262.64,193.07L262.13,193.95L261.70,194.94L261.37,196.03L261.12,197.19L260.98,198.43L260.93,199.73L260.98,201.08L261.20,202.92"/><path style="stroke:#000000;stroke-width:0.353" d="M262.64,500.00L262.64,227.02"/><path style="stroke:#000000;stroke-width:0.353" d="M261.64,125.44L264.35,124.61L265.89,123.91L266.59,123.51L267.82,122.60L268.33,122.11L269.17,121.06L269.14,116.30L268.77,115.76L267.81,114.76L266.78,113.99L265.88,113.44L264.31,112.73L263.46,112.44L261.64,111.97"/><path style="stroke:#000000;stroke-width:0.353" d="M263.65,132.60L263.65,132.84L263.79,133.20L264.36,133.71L264.36,131.73L263.87,132.13L263.65,132.60"/><path style="stroke:#000000;stroke-width:0.353" d="M264.36,133.71L270.32,137.16L270.74,137.58L270.88,137.93L270.80,138.42L270.32,138.95L266.07,141.42"/><path style="stroke:#000000;stroke-width:0.353" d="M264.36,131.73L278.05,123.82L278.93,123.50L280.18,123.43L281.17,123.67L287.64,127.38L287.64,152.68L290.38,151.10L290.38,127.38L289.82,127.60L289.01,127.71L288.19,127.60L287.64,127.38"/><path style="stroke:#000000;stroke-width:0.353" d="M263.65,104.65L263.79,104.17L264.36,103.66L264.36,105.64L263.79,105.13L263.65,104.65"/><path style="stroke:#000000;stroke-width:0.353" d="M264.36,105.64L270.20,109.01L270.18,100.30L264.36,103.66"/><path style="stroke:#000000;stroke-width:0.353" d="M266.07,500.00L266.07,225.05"/><path style="stroke:#000000;stroke-width:0.353" d="M266.01,190.29L266.78,189.87L265.34,190.70"/><path style="stroke:#000000;stroke-width:0.353" d="M265.57,190.56L266.78,189.87L265.69,190.48"/><path style="stroke:#000000;stroke-width:0.353" d="M265.95,190.33L266.78,189.87L266.07,190.26"/><path style="stroke:#000000;stroke-width:0.353" d="M265.82,190.41L270.18,187.90L270.18,139.04"/><path style="stroke:#000000;stroke-width:0.353" d="M270.18,188.65L269.66,189.60L269.23,190.60L268.90,191.68L268.66,192.84L268.51,194.08L268.46,195.38L268.51,196.74L268.73,198.57"/><path style="stroke:#000000;stroke-width:0.353" d="M270.18,500.00L270.18,222.67"/><path style="stroke:#000000;stroke-width:0.353" d="M270.24,187.84L270.18,187.90L270.32,187.82L270.24,187.84"/><path style="stroke:#000000;stroke-width:0.353" d="M270.18,188.72L270.88,187.57L270.37,187.78L270.66,187.62"/><path style="stroke:#000000;stroke-width:0.353" d="M269.17,121.06L271.56,119.67L271.56,117.69L269.14,116.30"/><path style="stroke:#000000;stroke-width:0.353" d="M270.20,109.01L270.88,109.41"/><path style="stroke:#000000;stroke-width:0.353" d="M270.18,100.30L270.74,99.79L270.88,99.31"/><path style="stroke:#000000;stroke-width:0.353" d="M270.88,500.00L270.88,222.27"/><path style="stroke:#000000;stroke-width:0.353" d="M270.37,187.78L270.32,187.82"/><path style="stroke:#000000;stroke-width:0.353" d="M270.88,187.63L270.88,138.05"/><path style="stroke:#000000;stroke-width:0.353" d="M271.56,117.69L272.05,118.09L272.19,118.32L272.27,118.68L272.19,119.04L272.05,119.27L271.56,119.67"/><path style="stroke:#000000;stroke-width:0.353" d="M278.05,500.00L278.05,218.13"/><path style="stroke:#000000;stroke-width:0.353" d="M278.05,193.19L278.05,123.82"/><path style="stroke:#000000;stroke-width:0.353" d="M281.47,500.00L281.47,216.15"/><path style="stroke:#000000;stroke-width:0.353" d="M281.47,123.82L281.47,191.21"/><path style="stroke:#000000;stroke-width:0.353" d="M285.90,500.00L285.90,224.38L285.91,223.30L286.61,222.21L286.61,500.00"/><path style="stroke:#000000;stroke-width:0.353" d="M285.91,203.56L285.93,204.33L286.11,205.32L287.55,209.87L288.13,212.78L288.27,214.18L288.27,216.84L288.13,218.08L287.64,220.03L287.64,212.59"/><path style="stroke:#000000;stroke-width:0.353" d="M285.90,203.69L285.90,182.33L285.69,183.54L285.59,184.83L285.59,186.18L285.85,188.69"/><path style="stroke:#000000;stroke-width:0.353" d="M327.69,500.00L327.69,177.00L326.85,177.31L325.98,177.41L325.15,177.32L324.27,177.00L286.61,155.25L286.05,154.74L285.90,154.26L285.90,182.33"/><path style="stroke:#000000;stroke-width:0.353" d="M285.90,154.26L285.98,153.90L286.23,153.56L287.64,152.68"/><path style="stroke:#000000;stroke-width:0.353" d="M285.90,83.10L286.05,83.58L286.61,84.09L286.61,110.58L285.95,110.96"/><path style="stroke:#000000;stroke-width:0.353" d="M286.61,222.21L287.13,221.32L287.64,220.03"/><path style="stroke:#000000;stroke-width:0.353" d="M286.61,206.92L286.61,155.25"/><path style="stroke:#000000;stroke-width:0.353" d="M286.61,84.09L290.72,86.46L290.76,110.21L289.82,109.76L289.18,109.66L288.67,109.68L287.90,109.86L286.61,110.58"/><path style="stroke:#000000;stroke-width:0.353" d="M290.38,151.10L291.04,150.75L291.60,150.58L292.85,150.52L293.82,150.75L295.17,151.50L295.17,124.61L290.38,127.38"/><path style="stroke:#000000;stroke-width:0.353" d="M290.72,86.46L291.41,86.74L292.22,86.87L293.06,86.83L293.64,86.68L294.14,86.46L299.96,83.10L299.97,113.45L299.01,113.56L298.17,113.56L297.34,113.48L296.17,113.20L295.17,112.75L290.76,110.21"/><path style="stroke:#000000;stroke-width:0.353" d="M294.14,112.16L294.14,86.46"/><path style="stroke:#000000;stroke-width:0.353" d="M295.17,151.50L300.13,154.35L301.05,154.63L302.12,154.65L303.23,154.35L310.95,149.89L310.95,140.84L310.53,140.50L310.35,140.04L310.36,150.24"/><path style="stroke:#000000;stroke-width:0.353" d="M295.17,124.61L295.82,124.30L296.55,124.06L297.34,123.89L298.59,123.79L299.43,123.84L300.64,124.06L301.37,124.30L302.02,124.61L302.02,154.66"/><path style="stroke:#000000;stroke-width:0.353" d="M299.97,113.45L301.37,113.07L303.39,111.96L303.39,83.10L302.50,82.78L301.67,82.69L300.85,82.78L299.96,83.10"/><path style="stroke:#000000;stroke-width:0.353" d="M302.02,124.61L315.71,132.52L315.71,136.47L316.26,136.10L316.68,135.67L317.06,134.98L317.13,134.50L316.96,133.77L316.68,133.32L316.25,132.89L315.71,132.52"/><path style="stroke:#000000;stroke-width:0.353" d="M303.39,111.96L310.95,107.59L310.95,98.15L310.61,97.89L310.42,97.62L310.35,97.34L310.42,97.05L310.61,96.78L310.95,96.52L317.22,92.90L317.65,92.48L317.79,92.00L317.65,91.52L317.08,91.01L303.39,83.10"/><path style="stroke:#000000;stroke-width:0.353" d="M310.95,149.89L317.35,146.17L317.71,145.73L317.78,145.25L317.56,144.78L317.08,144.38L317.08,146.36"/><path style="stroke:#000000;stroke-width:0.353" d="M310.35,140.04L310.47,139.65L310.80,139.31L315.71,136.47"/><path style="stroke:#000000;stroke-width:0.353" d="M310.36,107.94L310.35,97.34"/><path style="stroke:#000000;stroke-width:0.353" d="M311.66,159.02L314.35,160.61L314.35,155.83L311.78,157.32L311.44,157.63L311.26,157.97L311.23,158.34L311.37,158.70L311.66,159.02"/><path style="stroke:#000000;stroke-width:0.353" d="M311.94,159.21L311.93,157.24"/><path style="stroke:#000000;stroke-width:0.353" d="M317.08,144.38L310.95,140.84"/><path style="stroke:#000000;stroke-width:0.353" d="M311.23,118.56L311.44,118.09L311.93,117.69L311.96,119.69L311.37,119.16L311.23,118.80L311.23,118.56"/><path style="stroke:#000000;stroke-width:0.353" d="M311.96,119.69L314.26,121.02L315.19,122.14L316.25,123.07L316.91,123.52L318.37,124.30L320.03,124.93L321.92,125.44L324.30,126.81L324.99,127.08L325.72,127.20L326.40,127.19L327.05,127.06L327.70,126.80L327.70,110.57L327.01,110.29L326.40,110.18L325.77,110.16L324.96,110.29L324.27,110.57L321.85,111.97L320.03,112.44L318.37,113.07L316.91,113.85L315.68,114.76L315.16,115.25L314.35,116.30L311.93,117.69"/><path style="stroke:#000000;stroke-width:0.353" d="M310.95,98.15L315.71,100.89L315.72,104.84L310.95,107.59"/><path style="stroke:#000000;stroke-width:0.353" d="M311.93,80.14L311.93,78.16L311.44,78.56L311.26,78.91L311.23,79.27L311.44,79.74L311.93,80.14L314.35,81.54L314.35,76.76L314.72,76.23L315.68,75.22L316.26,74.75L317.61,73.91L319.18,73.20L320.03,72.90L321.85,72.44L321.85,85.87L320.06,85.40L319.20,85.10L318.02,84.59L316.92,83.99L315.64,83.04L314.73,82.07L314.35,81.54"/><path style="stroke:#000000;stroke-width:0.353" d="M311.93,78.16L314.35,76.76"/><path style="stroke:#000000;stroke-width:0.353" d="M314.35,160.61L315.17,161.66L315.69,162.15L317.08,163.15L318.39,163.84L319.20,164.17L320.06,164.47L321.85,164.94L324.27,166.34L324.27,150.10L321.85,151.50L319.79,152.06L317.61,152.98L316.43,153.71L315.68,154.29L315.16,154.78L314.35,155.83"/><path style="stroke:#000000;stroke-width:0.353" d="M314.38,121.11L314.35,116.30"/><path style="stroke:#000000;stroke-width:0.353" d="M315.72,104.84L316.26,104.47L316.68,104.05L316.96,103.59L317.13,102.87L317.06,102.38L316.68,101.69L316.25,101.27L315.71,100.89"/><path style="stroke:#000000;stroke-width:0.353" d="M317.08,92.99L317.08,91.01"/><path style="stroke:#000000;stroke-width:0.353" d="M321.85,164.94L321.85,151.50"/><path style="stroke:#000000;stroke-width:0.353" d="M321.85,125.44L321.85,111.97"/><path style="stroke:#000000;stroke-width:0.353" d="M327.70,87.26L330.14,85.86L330.14,72.44L327.70,71.03L327.70,87.26L327.01,87.54L326.41,87.65L325.78,87.67L324.97,87.54L324.27,87.27L321.85,85.87"/><path style="stroke:#000000;stroke-width:0.353" d="M321.85,72.44L324.27,71.03L324.27,87.27"/><path style="stroke:#000000;stroke-width:0.353" d="M324.27,500.00L324.27,177.00"/><path style="stroke:#000000;stroke-width:0.353" d="M324.27,166.34L324.97,166.61L325.57,166.72L326.20,166.74L326.86,166.65L327.54,166.41L330.14,164.93L330.12,151.50L327.70,150.10L327.01,149.82L326.19,149.70L325.56,149.71L324.96,149.82L324.27,150.10"/><path style="stroke:#000000;stroke-width:0.353" d="M324.30,126.81L324.27,110.57"/><path style="stroke:#000000;stroke-width:0.353" d="M324.27,71.03L324.96,70.76L325.98,70.62L327.01,70.76L327.70,71.03"/><path style="stroke:#000000;stroke-width:0.353" d="M327.69,177.00L365.36,155.25L365.84,154.86L366.06,154.39L366.06,154.14L365.92,153.79L365.63,153.46L365.24,153.21L361.09,150.82L360.37,150.58L359.54,150.49L358.71,150.58L357.98,150.82L351.68,154.42L350.92,154.63L349.95,154.66L349.95,124.61L336.27,132.51L335.71,132.89L335.29,133.32L334.91,134.01L334.85,134.74L335.13,135.45L335.49,135.90L336.26,136.47L341.16,139.31L341.50,139.65L341.62,140.03L341.50,140.42L341.16,140.75L334.89,144.38L334.50,144.67L334.21,145.13L334.21,145.62L334.50,146.07L334.89,146.36L334.89,144.38"/><path style="stroke:#000000;stroke-width:0.353" d="M327.70,166.33L327.70,150.10"/><path style="stroke:#000000;stroke-width:0.353" d="M337.62,116.30L337.62,121.07L340.04,119.67L340.42,119.38L340.67,119.04L340.75,118.68L340.67,118.32L340.52,118.09L340.04,117.69L337.62,116.30L336.80,115.25L336.29,114.76L335.06,113.85L333.60,113.07L332.79,112.73L331.93,112.44L330.12,111.97L330.12,125.44L327.70,126.80"/><path style="stroke:#000000;stroke-width:0.353" d="M327.70,110.57L330.12,111.97"/><path style="stroke:#000000;stroke-width:0.353" d="M330.14,164.93L331.95,164.46L332.81,164.16L333.92,163.67L335.06,163.05L336.29,162.14L336.81,161.65L337.64,160.59L337.62,155.83L337.25,155.30L336.29,154.29L335.54,153.71L334.35,152.98L332.79,152.27L331.93,151.97L330.12,151.50"/><path style="stroke:#000000;stroke-width:0.353" d="M330.12,125.44L332.80,124.63L333.60,124.30L334.98,123.56L336.29,122.61L336.83,122.09L337.62,121.07"/><path style="stroke:#000000;stroke-width:0.353" d="M330.14,85.86L331.95,85.39L332.81,85.09L334.37,84.38L335.71,83.54L336.33,83.04L337.25,82.06L337.62,81.54L337.62,76.76L337.25,76.23L336.29,75.22L335.70,74.75L334.35,73.91L332.79,73.20L331.93,72.90L330.14,72.44"/><path style="stroke:#000000;stroke-width:0.353" d="M341.05,140.82L341.05,149.92L334.89,146.36"/><path style="stroke:#000000;stroke-width:0.353" d="M335.49,104.27L335.00,103.59L334.84,102.87L335.00,102.15L335.48,101.47L336.26,100.89L341.05,98.13L341.06,107.62L336.26,104.85L335.49,104.27"/><path style="stroke:#000000;stroke-width:0.353" d="M334.89,92.99L334.89,91.01L334.50,91.30L334.21,91.75L334.18,92.12L334.40,92.59L334.89,92.99L341.26,96.69L341.55,97.05L341.61,97.43L341.43,97.81L341.05,98.13"/><path style="stroke:#000000;stroke-width:0.353" d="M334.89,91.01L348.58,83.10L348.59,111.97L341.06,107.62"/><path style="stroke:#000000;stroke-width:0.353" d="M336.26,136.47L336.27,132.51"/><path style="stroke:#000000;stroke-width:0.353" d="M336.26,104.85L336.26,100.89"/><path style="stroke:#000000;stroke-width:0.353" d="M337.64,160.59L340.18,159.12L340.60,158.70L340.75,158.22L340.60,157.74L340.18,157.32L337.62,155.83"/><path style="stroke:#000000;stroke-width:0.353" d="M337.62,81.54L340.04,80.14L340.04,78.16L337.62,76.76"/><path style="stroke:#000000;stroke-width:0.353" d="M340.04,159.21L340.06,157.24"/><path style="stroke:#000000;stroke-width:0.353" d="M340.04,119.67L340.04,117.69"/><path style="stroke:#000000;stroke-width:0.353" d="M340.04,78.16L340.52,78.56L340.71,78.91L340.75,79.15L340.67,79.51L340.52,79.74L340.04,80.14"/><path style="stroke:#000000;stroke-width:0.353" d="M341.05,149.92L348.58,154.26L349.27,154.54L349.95,154.66"/><path style="stroke:#000000;stroke-width:0.353" d="M341.62,150.24L341.62,140.03"/><path style="stroke:#000000;stroke-width:0.353" d="M341.62,107.94L341.62,97.33"/><path style="stroke:#000000;stroke-width:0.353" d="M348.59,111.97L350.52,113.03L352.00,113.46L352.00,83.10L351.12,82.78L350.29,82.69L349.46,82.78L348.58,83.10"/><path style="stroke:#000000;stroke-width:0.353" d="M349.95,124.61L350.95,124.17L352.53,123.84L353.79,123.80L355.12,123.99L356.49,124.45L361.59,127.38L361.61,151.11"/><path style="stroke:#000000;stroke-width:0.353" d="M352.00,113.46L353.37,113.57L355.03,113.40L356.49,112.92L357.82,112.16L357.82,90.11L357.82,86.46L352.00,83.10"/><path style="stroke:#000000;stroke-width:0.353" d="M356.80,151.50L356.80,124.61"/><path style="stroke:#000000;stroke-width:0.353" d="M357.82,112.16L361.25,110.18L361.25,91.87L361.25,86.46L360.37,86.79L359.54,86.87L358.71,86.79L357.82,86.46"/><path style="stroke:#000000;stroke-width:0.353" d="M361.59,127.38L362.19,127.62L362.96,127.71L363.78,127.60L364.33,127.38L364.33,152.68"/><path style="stroke:#000000;stroke-width:0.353" d="M361.25,110.18L362.14,109.76L362.79,109.66L363.30,109.68L364.07,109.86L365.39,110.60L365.36,84.09L365.92,83.58L366.07,83.10"/><path style="stroke:#000000;stroke-width:0.353" d="M361.25,86.46L365.36,84.09"/><path style="stroke:#000000;stroke-width:0.353" d="M364.33,220.05L364.08,219.25L363.84,218.08L363.69,216.84L363.65,215.55L363.84,212.78L364.33,210.25L364.33,220.05L364.84,221.32L365.36,222.21L365.36,500.00"/><path style="stroke:#000000;stroke-width:0.353" d="M366.06,500.00L366.06,223.34L365.36,222.21"/><path style="stroke:#000000;stroke-width:0.353" d="M364.33,210.25L364.85,208.37L365.36,206.90L365.36,155.25"/><path style="stroke:#000000;stroke-width:0.353" d="M365.36,206.90L365.92,205.02L366.06,204.11L366.06,203.56"/><path style="stroke:#000000;stroke-width:0.353" d="M364.33,127.38L370.49,123.82L370.49,500.00"/><path style="stroke:#000000;stroke-width:0.353" d="M365.39,110.60L366.07,110.99"/><path style="stroke:#000000;stroke-width:0.353" d="M366.06,203.70L366.06,189.05L366.34,186.77L366.38,185.51L366.34,184.27L366.06,182.33L366.07,154.26"/><path style="stroke:#000000;stroke-width:0.353" d="M366.06,189.05L366.06,185.33L366.38,185.51"/><path style="stroke:#000000;stroke-width:0.353" d="M366.06,182.33L366.06,185.33"/><path style="stroke:#000000;stroke-width:0.353" d="M370.49,123.82L371.18,123.54L372.20,123.41L373.03,123.50L373.92,123.82L373.92,500.00"/><path style="stroke:#000000;stroke-width:0.353" d="M373.92,123.82L387.61,131.73L387.61,133.71L388.18,133.20L388.32,132.72L388.17,132.24L387.61,131.73"/><path style="stroke:#000000;stroke-width:0.353" d="M379.70,118.56L379.92,118.09L380.40,117.69L380.41,119.68L379.86,119.19L379.73,118.93L379.70,118.56"/><path style="stroke:#000000;stroke-width:0.353" d="M381.08,500.00L381.08,207.24L381.16,207.85L381.30,208.25L381.79,208.84L385.90,211.19L386.28,211.31L386.64,211.32L387.09,211.19L387.84,210.71L388.58,209.85L389.32,208.48L389.32,500.00"/><path style="stroke:#000000;stroke-width:0.353" d="M381.08,207.24L381.14,206.37L381.36,205.33L382.31,202.53L383.07,199.59L383.45,196.73L383.45,194.08L383.31,192.84L383.07,191.68L382.73,190.60L382.31,189.60L381.79,188.66"/><path style="stroke:#000000;stroke-width:0.353" d="M381.29,187.62L381.63,187.81L381.20,187.58L381.08,187.61L381.08,138.06L381.23,138.53L381.65,138.95L386.22,141.57L386.98,141.78L387.82,141.82L388.63,141.69L389.32,141.42L389.32,193.07L388.44,192.04L387.36,191.18L386.06,190.35L381.79,187.91L381.79,139.04"/><path style="stroke:#000000;stroke-width:0.353" d="M381.53,187.74L381.63,187.81L381.57,187.77"/><path style="stroke:#000000;stroke-width:0.353" d="M381.79,188.72L381.08,187.61"/><path style="stroke:#000000;stroke-width:0.353" d="M387.61,133.71L381.65,137.16L381.23,137.58L381.08,138.06"/><path style="stroke:#000000;stroke-width:0.353" d="M380.41,119.68L382.83,121.07L382.82,116.30L380.40,117.69"/><path style="stroke:#000000;stroke-width:0.353" d="M381.08,99.31L381.23,99.79L381.79,100.30L381.79,109.00L381.09,109.40"/><path style="stroke:#000000;stroke-width:0.353" d="M381.79,500.00L381.79,208.84"/><path style="stroke:#000000;stroke-width:0.353" d="M381.68,187.82L381.79,187.91L381.63,187.81L381.79,187.91"/><path style="stroke:#000000;stroke-width:0.353" d="M381.63,187.81L381.73,187.85"/><path style="stroke:#000000;stroke-width:0.353" d="M382.83,121.07L383.46,121.91L384.16,122.62L385.40,123.52L386.85,124.30L387.67,124.64L390.33,125.44L390.33,111.97L388.69,112.38L387.65,112.73L386.85,113.07L385.38,113.85L384.07,114.84L383.20,115.76L382.82,116.30"/><path style="stroke:#000000;stroke-width:0.353" d="M381.79,100.30L387.75,103.75L388.18,104.17L388.32,104.65L388.17,105.13L387.61,105.67L381.79,109.00"/><path style="stroke:#000000;stroke-width:0.353" d="M385.90,500.00L385.90,211.19"/><path style="stroke:#000000;stroke-width:0.353" d="M385.98,190.30L385.90,190.26L385.90,141.42"/><path style="stroke:#000000;stroke-width:0.353" d="M386.06,190.35L385.16,189.85L386.42,190.57"/><path style="stroke:#000000;stroke-width:0.353" d="M386.33,190.51L386.24,190.46"/><path style="stroke:#000000;stroke-width:0.353" d="M386.61,190.69L385.16,189.85L385.90,190.26"/><path style="stroke:#000000;stroke-width:0.353" d="M387.61,105.67L387.61,103.66"/><path style="stroke:#000000;stroke-width:0.353" d="M389.32,208.48L390.26,205.40L390.60,203.93L390.84,202.49L391.04,199.73L390.99,198.43L390.84,197.19L390.60,196.03L390.26,194.94L389.84,193.95L389.32,193.07"/><path style="stroke:#000000;stroke-width:0.353" d="M427.69,118.68L427.55,119.16L426.98,119.67L389.32,141.42"/><path style="stroke:#000000;stroke-width:0.353" d="M390.33,111.97L392.75,110.57L392.75,126.80L390.33,125.44"/><path style="stroke:#000000;stroke-width:0.353" d="M392.75,126.80L393.43,127.08L394.46,127.21L395.48,127.08L396.17,126.80L396.17,110.57L395.48,110.29L394.46,110.16L393.44,110.29L392.75,110.57"/><path style="stroke:#000000;stroke-width:0.353" d="M396.17,126.80L398.59,125.44L398.59,111.97L396.17,110.57"/><path style="stroke:#000000;stroke-width:0.353" d="M398.59,125.44L401.26,124.63L402.83,123.92L404.18,123.08L404.76,122.61L405.72,121.60L406.09,121.07L406.09,116.61L406.09,116.30L405.28,115.25L404.76,114.76L403.53,113.85L402.83,113.44L401.26,112.73L400.41,112.44L398.59,111.97"/><path style="stroke:#000000;stroke-width:0.353" d="M406.09,121.07L408.79,119.49L409.14,119.05L409.22,118.68L409.14,118.32L408.78,117.88L406.09,116.30"/><path style="stroke:#000000;stroke-width:0.353" d="M408.51,119.67L408.51,117.69"/><path style="stroke:#000000;stroke-width:0.353" d="M426.98,500.00L426.98,119.67"/><path style="stroke:#000000;stroke-width:0.353" d="M224.27,500.00L224.27,249.18"/><path style="stroke:#000000;stroke-width:0.353" d="M224.27,224.24L224.27,118.68L224.42,118.20L224.98,117.70L262.64,95.95L263.14,95.73L263.94,95.56L265.02,95.60L265.91,95.87L270.32,98.41L270.80,98.95L270.88,99.31L270.88,109.41L278.05,113.54L278.55,113.77L279.34,113.93L280.39,113.91L281.15,113.70L285.90,110.99L285.90,83.10L285.98,82.74L286.13,82.51L286.61,82.11L324.43,60.29L325.15,60.04L325.98,59.96L326.86,60.06L327.70,60.37L365.36,82.11L365.84,82.51L365.98,82.74L366.07,83.10L366.07,110.99L370.49,113.54L371.18,113.82L371.99,113.95L372.83,113.91L373.59,113.70L381.08,109.41L381.08,99.31L381.16,98.95L381.41,98.61L381.79,98.32L386.05,95.87L386.98,95.59L388.03,95.56L388.82,95.73L389.32,95.95L426.98,117.70L427.47,118.09L427.61,118.32L427.69,118.68L427.69,500.00"/><path style="stroke:#000000;stroke-width:0.353" d="M91.66,461.73L98.52,461.13L68.04,382.58L61.19,383.20"/><path style="stroke:#000000;stroke-width:0.353" d="M63.49,363.04L63.21,357.99L63.27,352.93L63.69,347.92L64.21,344.52L64.45,343.00L65.55,338.20L66.98,333.55L68.73,329.10L70.79,324.87L73.14,320.90L75.77,317.23L78.65,313.86L81.76,310.84L83.04,309.82L85.08,308.19L88.58,305.92L95.41,314.45L92.51,316.33L89.75,318.54L87.15,321.05L84.75,323.86L82.56,326.93L81.56,328.62L80.61,330.23L78.89,333.75L77.43,337.46L76.23,341.34L75.32,345.34L75.17,346.29L74.68,349.44L74.34,353.62L74.29,357.83L74.52,362.04L75.05,366.23L75.86,370.36L76.95,374.40L78.31,378.32L68.04,382.58L66.41,377.88L65.10,373.03L64.12,368.08L63.49,363.04"/><path style="stroke:#000000;stroke-width:0.353" d="M99.19,461.64L98.52,461.13L108.78,456.86L78.31,378.32L81.73,374.68"/><path style="stroke:#000000;stroke-width:0.353" d="M285.90,192.00L88.58,305.92L81.73,306.53"/><path style="stroke:#000000;stroke-width:0.353" d="M95.43,323.57L95.41,314.45L285.94,204.44"/><path style="stroke:#000000;stroke-width:0.353" d="M112.21,453.21L108.78,456.86L108.44,457.80"/><path style="stroke:#000000;stroke-width:0.353" d="M288.06,212.35L95.41,323.58L93.08,325.09L90.87,326.85L88.81,328.86L86.89,331.10L85.14,333.56L83.57,336.20L82.20,339.02L81.03,341.99L80.07,345.09L79.34,348.29L78.83,351.59L78.56,354.91L78.51,358.28L78.70,361.65L79.13,365.00L79.77,368.31L80.65,371.54L81.73,374.68L112.21,453.21L111.52,454.52L108.44,457.80L100.71,461.01L99.19,461.64L93.03,462.19L91.66,461.73L61.19,383.20L59.56,378.49L58.25,373.64L57.27,368.68L56.64,363.66L56.36,358.60L56.42,353.55L56.84,348.54L57.60,343.61L58.70,338.81L60.13,334.16L61.84,329.83L63.95,325.48L66.30,321.51L68.90,317.86L71.79,314.49L72.44,313.85L74.91,311.45L78.23,308.80L81.73,306.53L285.90,188.66"/><g id="paperID" visibility="hidden" opacity="0.00" transform="scale(0.000100)"><path style="stroke:#000000;stroke-width:0.500;fill:#e6e6e6;fill-rule:evenodd" d="M-2000.00,-2000.00L2500.00,-2000.00L2500.00,2500.00L-2000.00,2500.00zM0.00,0.00L500.00,0.00L500.00,500.00L0.00,500.00z"/><path style="fill:#000000;fill-opacity:0.118" d="M3.00,500.00L500.00,500.00L500.00,3.00L503.00,3.00L503.00,503.00L3.00,503.00z"/></g></g></svg>
