<?xml version="1.0" encoding="UTF-8" standalone="no"?>
<svg xmlns="http://www.w3.org/2000/svg" xmlns:xlink="http://www.w3.org/1999/xlink" width="500.000mm" height="500.000mm" viewBox="0.000000 0.000000 500.000000 500.000000" stroke-linejoin="round" stroke-linecap="round" fill="none" fill-rule="evenodd"><desc>Composer Export</desc><script type="text/ecmascript"><![CDATA[
if(typeof(top) != "undefined")
{
	top.ShowPaper = ShowPaper;
}
function ShowPaper()
{
  var svgDocument = getDocument();
  var paper = svgDocument.getElementById("paperID");
  if(paper)
  {
    paper.setAttribute("transform","scale(1)");
    paper.setAttribute("opacity","1");
    paper.setAttribute("visibility","visible");
  }
  var svg = svgDocument.getRootElement();
  if(svg)
  {
    svg.setAttribute("width","510.000mm");
    svg.setAttribute("height","510.000mm");
    svg.setAttribute("viewBox","-5.000000 -5.000000 510.000000 510.000000");
  }
}
]]></script><defs/><g><path style="fill:#ffffff" d="M499.90,499.90L366.28,499.94L366.15,400.51L365.89,499.94L0.12,499.90L0.12,0.12L499.90,0.12z"/><path style="fill:#97fa98" d="M357.56,132.06L359.96,132.84L360.30,132.89L364.17,135.05L366.97,137.45L367.61,137.50L368.78,136.64L369.83,136.41L373.06,136.41L376.86,137.84L380.87,140.98L384.04,143.36L385.04,144.81L384.70,146.94L385.27,148.00L385.99,149.35L386.60,151.99L386.84,153.17L386.78,156.62L386.40,158.22L385.29,159.97L384.59,160.69L381.80,161.86L381.62,161.66L381.65,162.70L381.85,163.89L382.07,165.49L382.07,170.63L381.63,173.69L379.92,177.53L378.09,179.67L374.49,182.02L371.06,183.04L367.86,183.03L362.96,182.30L358.21,180.69L353.10,177.87L349.12,174.71L346.70,171.97L343.97,168.35L341.53,163.25L340.34,159.28L339.97,157.16L339.96,155.70L339.80,155.56L339.77,148.81L341.13,142.31L344.20,136.25L346.70,133.99L350.93,131.88L352.78,131.66L355.18,131.65z"/><path style="fill:#000020" d="M350.25,117.35L350.67,112.01L350.67,120.14z"/><path style="fill:#000020" d="M360.30,132.89L359.96,132.84L360.19,129.47z"/><path style="fill:#000020" d="M368.00,138.22L369.33,138.20L368.86,138.68L368.07,138.62z"/><path style="fill:#000020" d="M384.70,146.94L385.04,144.81L385.27,148.00z"/><path style="fill:#000020" d="M376.47,148.08L376.60,148.84L376.04,148.51L376.08,147.71z"/><path style="fill:#000020" d="M377.29,149.35L376.80,149.51L376.60,148.84z"/><path style="fill:#000020" d="M378.38,152.43L378.79,152.47L379.01,153.57L378.36,152.90z"/><path style="fill:#000020" d="M386.84,153.17L386.60,151.99L386.78,152.13z"/><path style="fill:#000020" d="M379.28,154.63L379.01,153.57L379.24,153.78z"/><path style="fill:#000020" d="M339.97,157.16L339.43,156.91L339.80,155.56L339.96,155.70z"/><path style="fill:#000020" d="M385.30,160.30L384.59,160.69L385.29,159.97z"/><path style="fill:#000020" d="M381.80,161.86L381.65,162.70L381.62,161.66z"/><path style="fill:#000020" d="M382.07,165.49L381.85,163.89L382.02,164.02z"/><path style="fill:#000020" d="M366.28,499.94L365.89,499.94L366.15,400.51z"/><path style="stroke:#000000;stroke-width:0.353" d="M331.80,133.91L352.35,122.05L355.77,124.02L333.52,136.87L333.41,136.13L333.11,135.37L332.66,134.66L332.10,134.11L327.55,131.45L327.25,131.34L326.97,131.30L326.71,131.32L326.48,131.41"/><path style="stroke:#000000;stroke-width:0.353" d="M432.26,0.00L327.69,60.37L327.25,60.18L326.97,60.14L326.71,60.16L326.48,60.25"/><path style="stroke:#000000;stroke-width:0.353" d="M327.69,131.53L350.63,118.29L350.66,119.76L350.88,120.52L351.22,121.11L351.53,121.48L351.88,121.77L352.35,122.05"/><path style="stroke:#000000;stroke-width:0.353" d="M327.69,60.37L365.36,82.12L365.94,82.57L366.46,83.21L366.67,83.58L366.91,84.15L367.01,84.54L367.07,85.08L367.06,89.99L367.01,90.30L366.91,90.57L366.76,90.78L366.57,90.93L366.34,91.02L366.08,91.05L365.80,91.00L365.51,90.89L359.54,87.45L357.82,88.44L357.83,104.43L357.98,105.18L358.13,105.57L358.44,106.12L358.95,106.76L359.54,107.22L500.00,26.12"/><path style="stroke:#000000;stroke-width:0.353" d="M339.86,149.23L335.08,146.46L334.50,145.95L334.13,145.46L333.92,145.11L333.68,144.52L333.52,143.77L333.52,136.87"/><path style="stroke:#000000;stroke-width:0.353" d="M333.52,143.59L343.28,137.95"/><path style="stroke:#000000;stroke-width:0.353" d="M333.01,110.30L333.21,110.15L333.36,109.94L333.46,109.67L333.52,109.20L341.05,104.85L335.25,101.50L333.52,102.47L333.52,109.20"/><path style="stroke:#000000;stroke-width:0.353" d="M333.52,102.47L333.54,102.15L333.68,101.73L333.82,101.52L334.02,101.37L334.37,101.26L334.64,101.27L334.93,101.34L335.25,101.50"/><path style="stroke:#000000;stroke-width:0.353" d="M342.01,163.96L335.22,167.88L335.22,170.85L335.32,171.41L335.53,171.99L335.72,172.36L336.07,172.88L336.63,173.44L339.35,175.04L340.67,176.38L341.35,176.97L342.05,177.50L343.45,178.38L344.16,178.72L344.85,178.99L345.54,179.19L346.20,179.32L346.85,179.37L349.27,180.77L349.86,180.99L350.13,181.00L350.38,180.94L350.68,180.74L350.88,180.40L350.99,179.78L349.27,180.77"/><path style="stroke:#000000;stroke-width:0.353" d="M335.22,170.68L343.02,166.17"/><path style="stroke:#000000;stroke-width:0.353" d="M335.22,167.88L334.72,166.08L334.55,165.18L334.38,163.47L334.44,161.88L334.55,161.14L334.72,160.45L334.94,159.81L335.22,159.22L339.35,156.83L336.93,155.44L335.22,156.42L335.32,155.81L335.45,155.57L335.72,155.31L336.07,155.21L336.34,155.22L336.93,155.44"/><path style="stroke:#000000;stroke-width:0.353" d="M335.22,159.22L335.22,156.42"/><path style="stroke:#000000;stroke-width:0.353" d="M335.23,146.56L341.11,143.16"/><path style="stroke:#000000;stroke-width:0.353" d="M349.27,101.70L349.86,101.92L350.13,101.93L350.48,101.82L350.68,101.67L350.88,101.33L350.99,100.71L349.27,101.70L346.85,100.30L346.20,100.25L345.54,100.12L344.85,99.92L344.16,99.65L343.45,99.31L342.05,98.43L341.35,97.90L340.67,97.31L339.35,95.97L336.63,94.37L336.34,94.12L335.95,93.65L335.69,93.24L335.45,92.73L335.32,92.34L335.22,91.79L335.22,88.81L346.85,82.10L345.54,80.76L344.85,80.17L343.45,79.16L342.05,78.42L341.35,78.15L340.67,77.95L340.00,77.82L339.35,77.76L339.39,77.74"/><path style="stroke:#000000;stroke-width:0.353" d="M336.93,94.57L350.99,86.46L350.88,85.72L350.76,85.34L350.48,84.77L350.00,84.10L349.29,83.48L335.22,91.61"/><path style="stroke:#000000;stroke-width:0.353" d="M335.22,77.36L335.32,76.74L335.45,76.50L335.72,76.25L335.95,76.16L336.34,76.15L336.93,76.37L335.22,77.36L335.22,80.15L334.94,80.74L334.72,81.38L334.55,82.07L334.44,82.81L334.38,84.40L334.55,86.12L334.72,87.00L335.22,88.81"/><path style="stroke:#000000;stroke-width:0.353" d="M335.22,80.15L339.35,77.76L336.93,76.37"/><path style="stroke:#000000;stroke-width:0.353" d="M336.93,173.64L344.73,169.14"/><path style="stroke:#000000;stroke-width:0.353" d="M339.35,175.04L346.13,171.13"/><path style="stroke:#000000;stroke-width:0.353" d="M339.35,156.83L340.04,156.90"/><path style="stroke:#000000;stroke-width:0.353" d="M339.35,95.97L350.99,89.25L351.26,90.16L351.59,91.61L351.77,92.82L351.82,93.66L351.77,95.25L351.66,95.99L351.49,96.69L351.26,97.33L350.99,97.92L346.85,100.30"/><path style="stroke:#000000;stroke-width:0.353" d="M341.05,104.85L341.76,105.26"/><path style="stroke:#000000;stroke-width:0.353" d="M346.85,179.37L350.99,176.99L350.99,179.78"/><path style="stroke:#000000;stroke-width:0.353" d="M346.85,82.10L349.29,83.48"/><path style="stroke:#000000;stroke-width:0.353" d="M350.99,176.99L351.28,176.35"/><path style="stroke:#000000;stroke-width:0.353" d="M350.63,118.29L350.63,117.48"/><path style="stroke:#000000;stroke-width:0.353" d="M350.99,100.71L350.99,97.92"/><path style="stroke:#000000;stroke-width:0.353" d="M350.99,89.25L350.99,86.46"/><path style="stroke:#000000;stroke-width:0.353" d="M355.77,124.02L357.10,124.80L357.68,125.26L358.24,125.82L358.76,126.46L359.22,127.17L359.80,128.41L354.14,131.68"/><path style="stroke:#000000;stroke-width:0.353" d="M366.57,200.84L366.76,200.68L366.91,200.47L367.01,200.21L367.07,199.73L367.06,194.81L366.96,194.25L366.76,193.67L366.57,193.30L366.21,192.78L365.80,192.34L365.51,192.11L359.39,188.57L358.81,188.06L358.44,187.56L358.05,186.82L357.88,186.24L357.83,185.87L357.82,180.32"/><path style="stroke:#000000;stroke-width:0.353" d="M357.82,185.70L363.72,182.29"/><path style="stroke:#000000;stroke-width:0.353" d="M357.85,104.24L500.00,22.17"/><path style="stroke:#000000;stroke-width:0.353" d="M357.82,88.44L357.85,88.11L357.98,87.70L358.13,87.49L358.33,87.33L358.55,87.24L358.81,87.22L359.24,87.31L359.54,87.45"/><path style="stroke:#000000;stroke-width:0.353" d="M359.54,188.66L369.30,183.02"/><path style="stroke:#000000;stroke-width:0.353" d="M359.19,132.72L360.22,132.13L360.22,130.55L360.17,129.83L360.02,129.09L359.80,128.41"/><path style="stroke:#000000;stroke-width:0.353" d="M360.22,133.16L360.22,132.13"/><path style="stroke:#000000;stroke-width:0.353" d="M359.54,107.22L365.72,110.76L366.28,111.26L366.67,111.80L366.94,112.41L367.06,113.01L367.07,118.69L367.18,119.77L367.49,120.83L367.87,121.69L368.53,122.77L369.32,123.70L369.90,124.21L370.49,124.61L384.17,132.51L384.78,132.81L385.36,132.96L385.90,132.98L386.39,132.87L386.81,132.62L387.15,132.26L387.40,131.78L387.56,131.20L387.61,130.55L384.21,132.51"/><path style="stroke:#000000;stroke-width:0.353" d="M365.36,192.02L387.61,179.17L387.61,183.12L367.07,194.98"/><path style="stroke:#000000;stroke-width:0.353" d="M365.72,110.76L387.61,98.13L387.61,101.29L367.07,113.15"/><path style="stroke:#000000;stroke-width:0.353" d="M365.36,82.12L500.00,4.38"/><path style="stroke:#000000;stroke-width:0.353" d="M367.07,199.73L390.01,186.49L388.74,185.73L388.20,185.15L387.86,184.57L387.69,184.11L387.62,183.66L387.61,183.12"/><path style="stroke:#000000;stroke-width:0.353" d="M367.07,118.69L390.35,105.24L389.03,104.45L388.60,104.05L388.34,103.72L388.01,103.19L387.77,102.61L387.64,102.04L387.61,101.29"/><path style="stroke:#000000;stroke-width:0.353" d="M366.57,90.93L500.00,13.89"/><path style="stroke:#000000;stroke-width:0.353" d="M367.07,89.82L500.00,13.08"/><path style="stroke:#000000;stroke-width:0.353" d="M367.07,85.08L500.00,8.33"/><path style="stroke:#000000;stroke-width:0.353" d="M369.51,136.62L370.52,136.04"/><path style="stroke:#000000;stroke-width:0.353" d="M369.46,136.64L369.51,136.18L369.69,135.80L369.96,135.55L370.31,135.44L370.58,135.45L371.02,135.59L372.52,136.45"/><path style="stroke:#000000;stroke-width:0.353" d="M370.49,124.61L396.51,109.59L396.75,110.24L396.85,110.97L396.85,119.67L388.98,124.22L388.51,124.04L388.30,124.03L388.01,124.12L396.85,119.02"/><path style="stroke:#000000;stroke-width:0.353" d="M376.01,137.61L376.99,138.06L378.39,138.94L379.77,140.06L381.09,141.40L383.66,142.89L384.23,143.40L384.61,143.89L384.82,144.26L384.99,144.64L385.16,145.21L385.22,145.76L385.22,148.12"/><path style="stroke:#000000;stroke-width:0.353" d="M387.61,179.17L387.60,177.63L387.49,176.90L387.29,176.13L386.99,175.36L386.61,174.61L386.15,173.90L385.82,173.48L380.16,176.75"/><path style="stroke:#000000;stroke-width:0.353" d="M381.79,171.86L382.82,171.27L381.93,170.75"/><path style="stroke:#000000;stroke-width:0.353" d="M382.82,171.27L384.19,172.06L384.78,172.46L385.36,172.97L385.82,173.48"/><path style="stroke:#000000;stroke-width:0.353" d="M385.16,160.05L385.22,160.01L385.12,160.63L384.99,160.87L384.72,161.12L384.49,161.21L384.23,161.23L383.95,161.19L383.62,161.06"/><path style="stroke:#000000;stroke-width:0.353" d="M389.32,205.86L395.14,209.22L396.86,208.23L396.85,201.51L389.32,205.86L388.88,205.67L388.60,205.62L388.34,205.65L388.11,205.74"/><path style="stroke:#000000;stroke-width:0.353" d="M387.61,130.55L387.62,124.87L387.74,124.42L388.01,124.12"/><path style="stroke:#000000;stroke-width:0.353" d="M387.61,98.13L387.62,96.77L387.67,96.46L387.84,96.08L388.11,95.83L388.47,95.72L388.88,95.76L389.32,95.95L427.13,117.79L427.71,118.30L428.19,118.97L428.54,119.73L428.64,120.14L428.70,120.66L500.00,79.49"/><path style="stroke:#000000;stroke-width:0.353" d="M388.11,95.83L500.00,31.23"/><path style="stroke:#000000;stroke-width:0.353" d="M390.01,186.49L390.72,186.90"/><path style="stroke:#000000;stroke-width:0.353" d="M388.98,124.22L395.44,127.92L395.73,128.00L396.00,128.01L396.24,127.95L396.46,127.83L396.63,127.64L396.75,127.41L396.83,127.12L396.85,126.79L395.14,127.78"/><path style="stroke:#000000;stroke-width:0.353" d="M396.51,109.59L396.00,108.77L395.59,108.33L395.29,108.10L390.35,105.24"/><path style="stroke:#000000;stroke-width:0.353" d="M389.32,95.95L500.00,32.05"/><path style="stroke:#000000;stroke-width:0.353" d="M395.14,209.22L395.44,209.36L395.87,209.45L396.12,209.43L396.35,209.34L396.55,209.18L396.70,208.97L396.83,208.56L396.86,208.23"/><path style="stroke:#000000;stroke-width:0.353" d="M402.68,174.82L423.22,162.96L425.96,164.54L404.05,177.20L403.96,176.61L403.72,175.99L403.36,175.43L402.91,174.98L397.88,172.06L397.29,171.65L396.71,171.14L396.17,170.54L395.68,169.86L395.26,169.13L394.78,167.98L394.57,167.22L394.46,166.13L394.46,150.31L394.51,149.65L394.67,149.08L394.92,148.60L395.26,148.23L395.68,147.99L396.17,147.88L396.71,147.90L397.29,148.05L397.88,148.34L394.46,150.31"/><path style="stroke:#000000;stroke-width:0.353" d="M394.46,166.13L420.49,151.13L420.04,150.57L419.45,150.11L411.92,145.77L404.05,150.31L404.00,150.69L403.86,151.00L403.64,151.20L403.46,151.27L403.14,151.28L402.79,151.17L397.88,148.34"/><path style="stroke:#000000;stroke-width:0.353" d="M396.85,201.51L396.85,200.70"/><path style="stroke:#000000;stroke-width:0.353" d="M396.85,126.79L396.85,119.67"/><path style="stroke:#000000;stroke-width:0.353" d="M397.88,172.06L421.16,158.61L421.16,152.90L421.11,152.53L420.93,151.96L420.49,151.13"/><path style="stroke:#000000;stroke-width:0.353" d="M417.75,220.30L419.46,219.31L419.36,219.93L419.15,220.27L418.85,220.48L418.61,220.53L418.33,220.52L417.75,220.30L415.33,218.91L414.68,218.85L414.01,218.72L413.33,218.52L412.63,218.25L411.23,217.51L409.89,216.55L409.14,215.91L407.83,214.57L419.46,207.86L419.46,205.06L405.41,213.18L404.82,212.72L404.30,212.08L403.92,211.33L403.75,210.76L403.69,210.21L403.69,207.42L415.33,200.70L414.01,199.36L412.63,198.24L411.93,197.77L410.52,197.02L409.83,196.75L409.14,196.55L408.48,196.42L407.83,196.37L403.69,198.75L403.42,199.34L403.19,199.98L403.02,200.68L402.91,201.42L402.85,202.19L402.91,203.85L403.02,204.72L403.19,205.61L403.69,207.42"/><path style="stroke:#000000;stroke-width:0.353" d="M403.69,210.21L417.75,202.10L415.33,200.70"/><path style="stroke:#000000;stroke-width:0.353" d="M403.69,198.75L403.69,195.96L405.42,194.98L404.82,194.75L404.55,194.74L404.19,194.85L404.00,195.00L403.80,195.34L403.69,195.96"/><path style="stroke:#000000;stroke-width:0.353" d="M404.05,177.20L404.07,184.67L404.21,185.24L404.45,185.81L404.77,186.35L405.03,186.67L405.46,187.08L405.76,187.28L419.60,195.26L419.90,195.37L420.31,195.41L420.55,195.36L420.76,195.23L420.93,195.05L421.06,194.81L421.14,194.52L421.16,194.20L419.45,195.18"/><path style="stroke:#000000;stroke-width:0.353" d="M404.05,184.31L500.00,128.91"/><path style="stroke:#000000;stroke-width:0.353" d="M404.05,150.31L404.07,142.87L404.15,142.58L404.27,142.34L404.45,142.16L404.66,142.03L404.90,141.98L405.17,141.99L405.46,142.06L405.76,142.21L404.05,143.20"/><path style="stroke:#000000;stroke-width:0.353" d="M403.64,151.20L412.49,146.09"/><path style="stroke:#000000;stroke-width:0.353" d="M407.83,135.51L409.14,136.84L409.83,137.43L411.23,138.44L412.63,139.18L413.33,139.45L414.01,139.65L414.68,139.78L415.33,139.84L419.46,137.45L419.74,136.86L419.96,136.22L420.13,135.53L420.24,134.79L420.30,134.01L420.24,132.35L420.13,131.49L419.96,130.60L419.46,128.79L407.83,135.51L405.41,134.11L404.96,133.78L404.55,133.35L404.30,133.01L404.00,132.46L403.80,131.88L403.69,131.14L403.69,128.35L415.33,121.63L414.01,120.29L413.33,119.70L412.63,119.17L411.66,118.54L410.52,117.95L409.83,117.68L409.14,117.48L408.48,117.35L407.83,117.30L403.69,119.68L403.42,120.27L403.19,120.92L403.02,121.61L402.91,122.35L402.85,123.94L402.91,124.78L403.19,126.54L403.69,128.35"/><path style="stroke:#000000;stroke-width:0.353" d="M403.69,131.14L417.75,123.03L415.33,121.63"/><path style="stroke:#000000;stroke-width:0.353" d="M403.69,119.68L403.69,116.89L403.80,116.27L403.92,116.03L404.09,115.85L404.42,115.69L404.82,115.68L405.42,115.91L403.69,116.89"/><path style="stroke:#000000;stroke-width:0.353" d="M405.41,213.18L407.83,214.57"/><path style="stroke:#000000;stroke-width:0.353" d="M405.42,194.98L407.83,196.37"/><path style="stroke:#000000;stroke-width:0.353" d="M405.76,187.28L500.00,132.87"/><path style="stroke:#000000;stroke-width:0.353" d="M405.76,142.21L411.92,145.77"/><path style="stroke:#000000;stroke-width:0.353" d="M405.41,134.11L419.46,125.99L419.46,128.79"/><path style="stroke:#000000;stroke-width:0.353" d="M405.42,115.91L407.83,117.30"/><path style="stroke:#000000;stroke-width:0.353" d="M415.33,218.91L419.46,216.52L419.74,215.93L419.96,215.29L420.13,214.60L420.24,213.86L420.30,212.27L420.24,211.42L420.07,210.25L419.74,208.77L419.46,207.86"/><path style="stroke:#000000;stroke-width:0.353" d="M415.33,139.84L417.75,141.23L418.33,141.45L418.61,141.46L418.85,141.41L419.15,141.20L419.36,140.86L419.46,140.25L417.75,141.23"/><path style="stroke:#000000;stroke-width:0.353" d="M417.75,202.10L418.33,202.55L418.61,202.86L418.96,203.37L419.23,203.94L419.36,204.33L419.46,205.06"/><path style="stroke:#000000;stroke-width:0.353" d="M419.46,125.99L419.36,125.26L419.23,124.87L418.96,124.31L418.61,123.79L418.33,123.48L417.75,123.03"/><path style="stroke:#000000;stroke-width:0.353" d="M419.46,219.31L419.46,216.52"/><path style="stroke:#000000;stroke-width:0.353" d="M419.46,140.25L419.46,137.45"/><path style="stroke:#000000;stroke-width:0.353" d="M421.16,194.20L421.17,187.31L421.22,187.00L421.32,186.73L421.47,186.52L421.67,186.37L421.89,186.28L422.15,186.25L422.43,186.30L422.88,186.49L500.00,141.96"/><path style="stroke:#000000;stroke-width:0.353" d="M421.67,186.37L500.00,141.14"/><path style="stroke:#000000;stroke-width:0.353" d="M421.16,158.61L421.19,160.16L421.32,160.73L421.47,161.11L421.77,161.67L422.15,162.16L422.58,162.56L423.22,162.96"/><path style="stroke:#000000;stroke-width:0.353" d="M422.88,186.49L426.98,188.86L427.43,189.18L427.84,189.62L428.29,190.32L428.54,190.90L428.69,191.65L428.70,235.31L428.64,235.79L428.54,236.05L428.39,236.26L428.19,236.42"/><path style="stroke:#000000;stroke-width:0.353" d="M426.98,188.86L500.00,146.70"/><path style="stroke:#000000;stroke-width:0.353" d="M425.96,164.54L427.13,165.22L427.43,165.33L427.84,165.37L428.19,165.26L428.47,165.01L428.64,164.63L428.69,164.32L428.70,120.66"/><path style="stroke:#000000;stroke-width:0.353" d="M500.00,75.54L426.98,117.70"/><path style="stroke:#000000;stroke-width:0.353" d="M428.70,235.31L500.00,194.14"/><path style="stroke:#000000;stroke-width:0.353" d="M428.70,191.82L500.00,150.65"/><path style="stroke:#000000;stroke-width:0.353" d="M428.19,165.26L500.00,123.80"/><path style="stroke:#000000;stroke-width:0.353" d="M428.70,164.15L500.00,122.98"/><path style="stroke:#000000;stroke-width:0.353" d="M430.84,0.00L326.48,60.25L326.29,60.41L326.14,60.62L326.04,60.88L325.98,61.36L325.98,104.85L326.04,105.39L326.29,106.16L326.59,106.71L326.85,107.07L327.25,107.49L327.55,107.72L331.95,110.26L332.25,110.37L332.66,110.41L333.01,110.30L341.76,105.26L348.92,109.39L349.37,109.72L349.90,110.32L350.23,110.86L350.40,111.24L350.61,112.00L350.63,113.07L350.63,117.47L326.48,131.41L326.21,131.66L326.09,131.91L325.98,132.52L325.98,176.01L326.04,176.55L326.14,176.94L326.38,177.51L326.71,178.05L327.25,178.65L327.69,178.97L365.36,200.72L365.94,200.94L366.21,200.95L366.57,200.84L390.72,186.90L395.14,189.45L395.73,189.91L396.24,190.55L396.63,191.30L396.83,192.06L396.85,200.69L388.11,205.74L387.84,205.99L387.67,206.37L387.62,206.71L387.62,211.77L387.67,212.13L387.84,212.71L388.11,213.28L388.34,213.63L388.88,214.23L389.32,214.55L426.98,236.30L427.43,236.49L427.71,236.53L427.97,236.51L428.19,236.42L500.00,194.96"/><path style="stroke:#000000;stroke-width:0.353" d="M224.27,296.20L224.31,296.44L224.42,296.68L224.60,296.90L224.98,297.19L224.98,500.00"/><path style="stroke:#000000;stroke-width:0.353" d="M224.98,297.19L262.80,319.01L263.53,319.26L264.35,319.34L265.18,319.26L265.57,319.15L266.07,318.93L266.07,367.77L264.61,368.69L263.54,369.54L262.86,370.28L262.13,371.47L261.70,372.46L261.37,373.54L261.12,374.71L260.98,375.94L260.93,377.25L260.98,378.60L261.11,379.86L261.37,381.45L261.70,382.91L262.13,384.40L262.89,386.49L263.58,387.63L264.00,388.10L264.47,388.48L264.87,388.71L265.28,388.83L265.70,388.83L266.07,388.72L266.07,500.00"/><path style="stroke:#000000;stroke-width:0.353" d="M243.45,297.19L242.97,296.79L242.78,296.44L242.75,296.08L242.82,295.84L242.97,295.61L243.45,295.21L245.87,293.81L246.24,293.29L246.69,292.76L247.79,291.80L249.14,290.96L250.70,290.25L251.56,289.95L253.37,289.48L253.37,302.92L251.56,302.45L250.70,302.15L249.14,301.44L247.79,300.59L246.69,299.63L246.24,299.12L245.87,298.59L243.45,297.19L243.45,295.21"/><path style="stroke:#000000;stroke-width:0.353" d="M245.87,298.59L245.87,293.81"/><path style="stroke:#000000;stroke-width:0.353" d="M253.37,302.92L255.79,304.33L256.48,304.59L257.30,304.72L257.95,304.70L258.53,304.59L259.22,304.31L259.22,288.08L258.53,287.81L257.95,287.70L257.30,287.68L256.48,287.81L255.79,288.08L253.37,289.48"/><path style="stroke:#000000;stroke-width:0.353" d="M255.79,304.33L255.79,288.08"/><path style="stroke:#000000;stroke-width:0.353" d="M259.22,304.31L261.64,302.92L263.48,302.44L265.12,301.81L265.89,301.43L267.24,300.59L268.33,299.63L269.17,298.57L269.14,293.81L271.71,295.30L272.12,295.72L272.23,295.96L272.27,296.20L272.23,296.44L272.13,296.68L271.71,297.10L269.17,298.57"/><path style="stroke:#000000;stroke-width:0.353" d="M269.14,293.81L268.33,292.76L267.81,292.27L267.23,291.80L265.88,290.96L264.31,290.25L263.46,289.95L261.64,289.48L259.22,288.08"/><path style="stroke:#000000;stroke-width:0.353" d="M262.64,500.00L262.64,385.89"/><path style="stroke:#000000;stroke-width:0.353" d="M262.64,370.58L262.64,318.93"/><path style="stroke:#000000;stroke-width:0.353" d="M261.64,302.92L261.64,289.48"/><path style="stroke:#000000;stroke-width:0.353" d="M264.35,311.22L264.35,309.25L263.87,309.64L263.73,309.87L263.65,310.11L263.68,310.48L263.97,310.93L264.35,311.22L270.32,314.67L270.74,315.09L270.87,315.45L270.87,315.69L270.80,315.93L270.56,316.27L270.32,316.47L266.07,318.93"/><path style="stroke:#000000;stroke-width:0.353" d="M264.35,309.25L278.20,301.26L278.93,301.01L279.97,300.93L280.79,301.06L281.47,301.34L281.47,500.00"/><path style="stroke:#000000;stroke-width:0.353" d="M264.35,283.15L264.35,281.18L263.87,281.57L263.73,281.80L263.65,282.04L263.68,282.41L263.97,282.86L264.35,283.15L270.20,286.53L270.18,277.82L264.35,281.18"/><path style="stroke:#000000;stroke-width:0.353" d="M266.07,388.72L270.28,386.25L270.64,385.82L270.83,385.24L270.88,384.78L270.86,384.13L270.68,383.13L270.39,382.15L269.66,380.05L269.23,378.57L268.90,377.10L268.66,375.66L268.51,374.25L268.46,372.90L268.51,371.59L268.66,370.36L268.90,369.20L269.23,368.11L269.66,367.12L270.18,366.16"/><path style="stroke:#000000;stroke-width:0.353" d="M265.57,368.07L266.59,367.49L265.34,368.21"/><path style="stroke:#000000;stroke-width:0.353" d="M265.69,368.00L266.78,367.38L265.84,367.91"/><path style="stroke:#000000;stroke-width:0.353" d="M266.07,367.77L266.56,367.49"/><path style="stroke:#000000;stroke-width:0.353" d="M270.18,316.56L270.18,365.42L266.78,367.38"/><path style="stroke:#000000;stroke-width:0.353" d="M270.18,500.00L270.18,386.32"/><path style="stroke:#000000;stroke-width:0.353" d="M269.27,365.94L269.67,365.71"/><path style="stroke:#000000;stroke-width:0.353" d="M270.18,366.23L270.88,365.10L270.81,365.08L270.51,365.23L270.66,365.14"/><path style="stroke:#000000;stroke-width:0.353" d="M270.31,365.33L270.18,365.42L270.35,365.32L270.18,365.42"/><path style="stroke:#000000;stroke-width:0.353" d="M270.20,286.53L270.88,286.92"/><path style="stroke:#000000;stroke-width:0.353" d="M270.18,277.82L270.56,277.53L270.74,277.31L270.85,277.07L270.88,276.83"/><path style="stroke:#000000;stroke-width:0.353" d="M270.88,500.00L270.88,384.63"/><path style="stroke:#000000;stroke-width:0.353" d="M270.43,365.26L270.51,365.23L270.35,365.32L270.43,365.26"/><path style="stroke:#000000;stroke-width:0.353" d="M270.88,365.10L270.88,315.57"/><path style="stroke:#000000;stroke-width:0.353" d="M270.48,365.23L270.35,365.32"/><path style="stroke:#000000;stroke-width:0.353" d="M271.56,297.19L271.56,295.21"/><path style="stroke:#000000;stroke-width:0.353" d="M278.05,301.34L278.05,500.00"/><path style="stroke:#000000;stroke-width:0.353" d="M281.47,301.34L287.64,304.90L287.64,330.20L290.37,328.62L290.37,304.90L289.67,305.16L289.00,305.22L288.19,305.12L287.64,304.90"/><path style="stroke:#000000;stroke-width:0.353" d="M285.90,500.00L285.90,401.06L285.91,400.81L285.96,400.70L286.61,399.73L286.61,500.00"/><path style="stroke:#000000;stroke-width:0.353" d="M285.91,381.07L285.93,381.84L286.11,382.84L286.43,383.91L287.12,385.90L287.64,387.77L287.65,397.53L287.12,398.83L286.61,399.73"/><path style="stroke:#000000;stroke-width:0.353" d="M285.90,381.42L285.90,379.86L285.90,381.21"/><path style="stroke:#000000;stroke-width:0.353" d="M285.90,379.86L285.90,366.54L285.69,365.09L285.59,363.70L285.59,362.35L285.69,361.06L285.90,359.84L285.90,331.78L285.94,332.02L286.05,332.26L286.22,332.48L286.61,332.77L324.27,354.51L324.77,354.73L325.15,354.84L325.98,354.92L326.81,354.84L327.19,354.73L327.69,354.51L327.69,500.00"/><path style="stroke:#000000;stroke-width:0.353" d="M285.90,366.54L285.90,359.84"/><path style="stroke:#000000;stroke-width:0.353" d="M287.64,330.20L286.47,330.88L286.22,331.09L285.98,331.42L285.90,331.78"/><path style="stroke:#000000;stroke-width:0.353" d="M285.90,260.62L285.94,260.86L286.05,261.10L286.22,261.32L286.61,261.61L286.61,288.09L285.92,288.49"/><path style="stroke:#000000;stroke-width:0.353" d="M287.64,387.77L287.89,388.86L288.13,390.30L288.27,391.70L288.32,393.06L288.27,394.36L288.13,395.60L287.89,396.76L287.65,397.53"/><path style="stroke:#000000;stroke-width:0.353" d="M286.61,384.43L286.61,332.77"/><path style="stroke:#000000;stroke-width:0.353" d="M286.61,288.09L287.76,287.44L288.19,287.28L289.00,287.17L289.67,287.24L290.37,287.50L294.14,289.68L294.14,263.98L293.64,264.20L293.29,264.30L292.43,264.39L291.60,264.30L291.22,264.20L290.72,263.98L290.72,287.70"/><path style="stroke:#000000;stroke-width:0.353" d="M286.61,261.61L290.72,263.98"/><path style="stroke:#000000;stroke-width:0.353" d="M290.37,328.62L291.04,328.26L291.60,328.09L292.22,328.02L292.85,328.03L293.29,328.10L293.82,328.26L295.17,329.01L295.18,302.12L290.37,304.90"/><path style="stroke:#000000;stroke-width:0.353" d="M294.14,263.98L299.96,260.62L300.46,260.40L301.25,260.23L301.89,260.21L302.70,260.34L303.38,260.62L303.38,289.48L301.70,290.43L301.01,290.71L299.84,290.99L298.59,291.09L297.34,290.99L296.17,290.71L295.48,290.43L294.14,289.68"/><path style="stroke:#000000;stroke-width:0.353" d="M295.17,329.01L300.13,331.87L300.46,332.00L301.05,332.14L301.46,332.18L302.12,332.16L302.88,332.00L303.39,331.78L310.92,327.43L310.92,318.34L310.61,318.11L310.42,317.84L310.35,317.55L310.38,317.35L310.53,317.08L310.80,316.83L315.71,313.99L315.71,310.04L302.02,302.13L302.02,332.17"/><path style="stroke:#000000;stroke-width:0.353" d="M295.18,302.12L296.17,301.68L296.94,301.48L297.75,301.35L298.59,301.31L299.43,301.35L300.35,301.50L301.37,301.82L302.02,302.13"/><path style="stroke:#000000;stroke-width:0.353" d="M299.97,290.97L299.96,260.62"/><path style="stroke:#000000;stroke-width:0.353" d="M310.38,285.44L310.35,274.85L310.42,275.14L310.53,275.32L310.92,275.64L310.92,285.13L303.38,289.48"/><path style="stroke:#000000;stroke-width:0.353" d="M303.38,260.62L317.08,268.55L317.08,270.50L317.56,270.11L317.71,269.88L317.79,269.51L317.75,269.27L317.56,268.92L317.35,268.71L317.08,268.55"/><path style="stroke:#000000;stroke-width:0.353" d="M310.92,327.43L317.08,323.87L317.08,321.90L317.35,322.08L317.64,322.41L317.75,322.64L317.79,322.89L317.75,323.13L317.64,323.36L317.35,323.69L317.08,323.87"/><path style="stroke:#000000;stroke-width:0.353" d="M310.35,327.76L310.35,317.55"/><path style="stroke:#000000;stroke-width:0.353" d="M317.08,321.90L310.92,318.34"/><path style="stroke:#000000;stroke-width:0.353" d="M310.92,285.13L315.72,282.36L315.71,278.41L310.92,275.64"/><path style="stroke:#000000;stroke-width:0.353" d="M310.35,274.85L310.47,274.47L310.80,274.13L317.08,270.50"/><path style="stroke:#000000;stroke-width:0.353" d="M311.93,336.74L311.44,336.32L311.25,335.98L311.23,335.61L311.30,335.37L311.44,335.14L311.93,334.74L314.35,333.35L314.35,338.12L311.93,336.74L311.93,334.74"/><path style="stroke:#000000;stroke-width:0.353" d="M311.47,296.82L311.93,297.19L314.35,298.59L315.13,299.59L315.68,300.13L316.91,301.03L318.37,301.81L320.03,302.45L321.85,302.92L324.30,304.33L324.96,304.59L325.77,304.72L326.42,304.70L327.01,304.59L327.70,304.31L327.70,288.08L327.01,287.81L326.40,287.70L325.77,287.68L324.96,287.81L324.27,288.08L321.85,289.48L320.03,289.95L319.18,290.25L317.61,290.96L316.26,291.80L315.68,292.27L315.16,292.76L314.71,293.29L314.35,293.81L311.93,295.21L311.54,295.50L311.30,295.84L311.22,296.20L311.30,296.56L311.47,296.82"/><path style="stroke:#000000;stroke-width:0.353" d="M311.93,297.19L311.93,295.21"/><path style="stroke:#000000;stroke-width:0.353" d="M311.93,255.68L314.35,254.28L314.35,259.05L311.93,257.65L311.93,255.68L311.44,256.07L311.30,256.30L311.22,256.66L311.30,257.03L311.44,257.26L311.93,257.65"/><path style="stroke:#000000;stroke-width:0.353" d="M314.35,338.12L314.72,338.66L315.17,339.17L315.69,339.67L316.91,340.57L317.61,340.97L319.20,341.69L320.05,341.99L321.85,342.45L324.27,343.85L324.27,327.62L321.85,329.02L320.03,329.49L318.37,330.12L317.61,330.49L316.26,331.34L315.68,331.81L315.16,332.30L314.72,332.81L314.35,333.35"/><path style="stroke:#000000;stroke-width:0.353" d="M314.35,298.59L314.35,293.81"/><path style="stroke:#000000;stroke-width:0.353" d="M314.35,259.05L314.72,259.59L315.17,260.11L315.69,260.60L316.92,261.51L318.39,262.28L320.05,262.92L321.85,263.38L324.27,264.78L324.78,265.00L325.78,265.18L326.82,265.10L327.38,264.93L327.70,264.78L327.70,248.55L330.12,249.95L331.93,250.42L332.79,250.72L334.35,251.43L335.70,252.27L336.29,252.74L336.80,253.23L337.25,253.74L337.62,254.28L340.04,255.68L340.04,257.65L337.62,259.05L337.62,254.28"/><path style="stroke:#000000;stroke-width:0.353" d="M314.35,254.28L315.16,253.23L315.68,252.74L316.91,251.83L317.61,251.43L319.18,250.72L320.03,250.42L321.85,249.95L321.85,263.38"/><path style="stroke:#000000;stroke-width:0.353" d="M315.71,310.04L316.48,310.61L316.84,311.06L317.05,311.53L317.13,312.02L317.05,312.50L316.83,312.97L316.48,313.41L315.71,313.99"/><path style="stroke:#000000;stroke-width:0.353" d="M315.72,282.36L316.47,281.79L316.83,281.35L317.05,280.87L317.13,280.39L317.06,279.90L316.84,279.43L316.48,278.99L315.71,278.41"/><path style="stroke:#000000;stroke-width:0.353" d="M321.85,342.45L321.85,329.02"/><path style="stroke:#000000;stroke-width:0.353" d="M321.85,302.92L321.85,289.48"/><path style="stroke:#000000;stroke-width:0.353" d="M324.27,264.78L324.27,248.55L321.85,249.95"/><path style="stroke:#000000;stroke-width:0.353" d="M324.27,500.00L324.27,354.51"/><path style="stroke:#000000;stroke-width:0.353" d="M324.27,343.85L324.97,344.13L325.99,344.26L326.86,344.16L327.70,343.85L327.70,327.62L327.01,327.34L325.98,327.21L324.96,327.34L324.27,327.62"/><path style="stroke:#000000;stroke-width:0.353" d="M324.30,304.33L324.27,288.08"/><path style="stroke:#000000;stroke-width:0.353" d="M324.27,248.55L324.96,248.27L325.98,248.14L327.01,248.27L327.70,248.55"/><path style="stroke:#000000;stroke-width:0.353" d="M327.69,354.51L365.36,332.77L365.84,332.37L365.97,332.16L366.05,331.90L366.06,331.66L365.98,331.42L365.74,331.08L365.50,330.88L361.61,328.63L360.75,328.20L360.16,328.06L359.74,328.02L358.71,328.09L357.98,328.34L356.80,329.01L356.80,302.13L355.79,301.68L354.62,301.41L353.79,301.32L352.95,301.32L351.72,301.48L350.60,301.82L349.82,302.20L336.25,310.04L335.48,310.61L335.00,311.29L334.85,311.77L334.85,312.26L334.91,312.50L335.13,312.97L335.30,313.20L335.72,313.62L336.25,313.99L341.16,316.83L341.50,317.17L341.61,317.55L341.50,317.93L341.16,318.27L334.88,321.90L334.50,322.19L334.32,322.41L334.21,322.64L334.18,322.88L334.21,323.13L334.50,323.58L334.88,323.87L334.88,321.90"/><path style="stroke:#000000;stroke-width:0.353" d="M327.70,343.85L330.14,342.45L332.16,341.90L333.61,341.34L334.37,340.96L335.06,340.57L336.29,339.65L336.80,339.17L337.64,338.11L337.62,333.35L337.24,332.81L336.80,332.30L336.29,331.81L335.70,331.34L334.35,330.49L332.79,329.78L331.93,329.49L330.12,329.02L330.14,342.45"/><path style="stroke:#000000;stroke-width:0.353" d="M327.70,327.62L330.12,329.02"/><path style="stroke:#000000;stroke-width:0.353" d="M330.12,302.92L330.12,289.48L331.93,289.95L332.79,290.25L334.35,290.96L335.70,291.80L336.29,292.27L336.80,292.76L337.25,293.29L337.62,293.81L337.60,298.62L336.83,299.61L336.29,300.13L335.10,301.00L334.35,301.44L333.59,301.81L331.99,302.43L330.12,302.92L327.70,304.31"/><path style="stroke:#000000;stroke-width:0.353" d="M327.70,288.08L330.12,289.48"/><path style="stroke:#000000;stroke-width:0.353" d="M327.70,264.78L330.14,263.38L330.12,249.95"/><path style="stroke:#000000;stroke-width:0.353" d="M337.62,259.05L337.25,259.58L336.80,260.10L336.29,260.59L335.70,261.06L334.37,261.90L333.61,262.27L332.16,262.83L330.14,263.38"/><path style="stroke:#000000;stroke-width:0.353" d="M334.88,323.87L341.05,327.43L341.05,318.34"/><path style="stroke:#000000;stroke-width:0.353" d="M336.25,278.41L335.69,278.80L335.29,279.20L335.00,279.66L334.85,280.14L334.84,280.39L334.91,280.87L335.13,281.35L335.49,281.79L336.25,282.36L336.25,278.41L341.05,275.64L341.06,285.13L336.25,282.36"/><path style="stroke:#000000;stroke-width:0.353" d="M334.88,270.32L334.88,270.50L334.40,270.11L334.21,269.76L334.18,269.51L334.21,269.27L334.32,269.04L334.50,268.81L334.84,268.55L334.88,268.55L334.88,270.32"/><path style="stroke:#000000;stroke-width:0.353" d="M334.88,270.50L341.26,274.21L341.55,274.56L341.61,274.95L341.43,275.32L341.05,275.64"/><path style="stroke:#000000;stroke-width:0.353" d="M334.88,268.55L348.58,260.62L348.90,260.46L349.46,260.29L350.08,260.21L350.71,260.23L351.31,260.34L351.85,260.54L357.82,263.98L357.82,289.68L356.48,290.43L355.42,290.83L354.21,291.04L352.95,291.08L352.00,290.97L352.00,260.62"/><path style="stroke:#000000;stroke-width:0.353" d="M336.25,313.99L336.25,310.04"/><path style="stroke:#000000;stroke-width:0.353" d="M337.64,338.11L340.18,336.63L340.60,336.21L340.71,335.98L340.75,335.73L340.67,335.37L340.31,334.93L337.62,333.35"/><path style="stroke:#000000;stroke-width:0.353" d="M337.60,298.62L340.04,297.18L340.04,295.21L340.52,295.61L340.71,295.96L340.75,296.20L340.71,296.44L340.60,296.68L340.31,297.00L340.04,297.18"/><path style="stroke:#000000;stroke-width:0.353" d="M337.62,293.81L340.04,295.21"/><path style="stroke:#000000;stroke-width:0.353" d="M340.04,336.72L340.04,334.74"/><path style="stroke:#000000;stroke-width:0.353" d="M340.04,255.68L340.52,256.07L340.71,256.42L340.75,256.67L340.71,256.91L340.52,257.26L340.04,257.65"/><path style="stroke:#000000;stroke-width:0.353" d="M341.05,327.43L348.58,331.78L349.08,332.00L349.87,332.17L350.92,332.14L351.33,332.05L351.87,331.85L356.80,329.01"/><path style="stroke:#000000;stroke-width:0.353" d="M341.61,317.55L341.61,327.76"/><path style="stroke:#000000;stroke-width:0.353" d="M341.06,285.13L341.61,285.46L341.61,274.85"/><path style="stroke:#000000;stroke-width:0.353" d="M341.61,285.46L349.95,290.27L350.95,290.71L352.00,290.97"/><path style="stroke:#000000;stroke-width:0.353" d="M348.59,289.48L348.58,260.62"/><path style="stroke:#000000;stroke-width:0.353" d="M349.95,332.17L349.96,302.12"/><path style="stroke:#000000;stroke-width:0.353" d="M356.80,302.13L361.59,304.90L361.61,328.63"/><path style="stroke:#000000;stroke-width:0.353" d="M357.82,289.68L361.25,287.70L361.25,270.32L361.25,263.98L360.75,264.20L360.36,264.30L359.53,264.39L358.71,264.30L358.32,264.20L357.82,263.98"/><path style="stroke:#000000;stroke-width:0.353" d="M361.59,304.90L362.19,305.13L362.96,305.22L363.62,305.16L364.33,304.90L364.33,330.20"/><path style="stroke:#000000;stroke-width:0.353" d="M361.25,287.70L361.85,287.38L362.30,287.24L362.96,287.17L363.46,287.21L364.20,287.44L366.06,288.50"/><path style="stroke:#000000;stroke-width:0.353" d="M361.25,263.98L365.36,261.61L365.36,288.09"/><path style="stroke:#000000;stroke-width:0.353" d="M364.33,397.53L364.08,396.76L363.84,395.60L363.69,394.36L363.64,393.06L363.69,391.72L363.84,390.30L364.08,388.86L364.33,387.77L364.33,397.57L364.84,398.83L365.36,399.73L365.36,500.00"/><path style="stroke:#000000;stroke-width:0.353" d="M366.06,500.00L366.06,400.86L365.97,400.64L365.36,399.73"/><path style="stroke:#000000;stroke-width:0.353" d="M365.36,332.77L365.36,384.42L364.84,385.90L364.33,387.77"/><path style="stroke:#000000;stroke-width:0.353" d="M366.06,381.08L366.05,381.63L365.92,382.54L365.72,383.32L365.36,384.42"/><path style="stroke:#000000;stroke-width:0.353" d="M364.33,304.90L370.49,301.34L370.49,500.00"/><path style="stroke:#000000;stroke-width:0.353" d="M366.06,260.62L366.03,260.86L365.92,261.10L365.72,261.33L365.36,261.61"/><path style="stroke:#000000;stroke-width:0.353" d="M366.06,381.21L366.06,366.55L366.21,365.61L366.34,364.29L366.38,363.01L366.34,361.78L366.21,360.61L366.06,359.85L366.06,362.84L366.38,363.01"/><path style="stroke:#000000;stroke-width:0.353" d="M366.06,366.55L366.06,362.84"/><path style="stroke:#000000;stroke-width:0.353" d="M366.06,359.85L366.06,331.78"/><path style="stroke:#000000;stroke-width:0.353" d="M370.49,301.34L371.18,301.06L372.20,300.93L373.03,301.01L373.59,301.18L373.92,301.34L387.61,309.25L387.61,311.22L387.97,310.95L388.17,310.71L388.28,310.48L388.32,310.24L388.28,309.99L388.17,309.76L387.88,309.43L387.61,309.25"/><path style="stroke:#000000;stroke-width:0.353" d="M373.92,500.00L373.92,301.34"/><path style="stroke:#000000;stroke-width:0.353" d="M379.70,296.08L379.78,295.84L379.92,295.61L380.40,295.21L380.41,297.19L380.13,297.00L379.86,296.70L379.73,296.44L379.70,296.08"/><path style="stroke:#000000;stroke-width:0.353" d="M381.08,500.00L381.08,384.75L381.14,385.27L381.26,385.67L381.45,386.01L381.71,386.27L385.90,388.71L386.28,388.82L386.64,388.83L387.00,388.74L387.35,388.57L387.84,388.22L388.58,387.37L388.84,386.93L389.32,385.89L389.32,500.00"/><path style="stroke:#000000;stroke-width:0.353" d="M381.08,384.75L381.14,383.89L381.36,382.85L382.30,380.05L382.73,378.57L383.07,377.10L383.31,375.66L383.45,374.25L383.50,372.90L383.45,371.59L383.31,370.36L383.07,369.20L382.73,368.11L382.31,367.12L381.08,365.10L381.20,365.09L381.60,365.30L381.48,365.23"/><path style="stroke:#000000;stroke-width:0.353" d="M381.08,385.16L381.08,384.54"/><path style="stroke:#000000;stroke-width:0.353" d="M381.28,365.13L381.43,365.20L381.32,365.14"/><path style="stroke:#000000;stroke-width:0.353" d="M381.60,365.30L381.63,365.33L381.43,365.20L381.60,365.30L381.53,365.25"/><path style="stroke:#000000;stroke-width:0.353" d="M381.79,316.56L385.90,318.93L385.90,367.77L386.61,368.21L381.63,365.33L381.79,365.42L381.79,316.56L381.41,316.27L381.23,316.05L381.12,315.81L381.08,315.57L381.12,315.33L381.23,315.09L381.63,314.69L387.61,311.22"/><path style="stroke:#000000;stroke-width:0.353" d="M381.08,365.10L381.08,363.96L381.09,365.15"/><path style="stroke:#000000;stroke-width:0.353" d="M381.08,315.57L381.08,363.96"/><path style="stroke:#000000;stroke-width:0.353" d="M380.41,297.19L382.83,298.59L383.20,299.13L383.65,299.64L384.16,300.13L385.40,301.04L386.85,301.81L387.67,302.15L388.53,302.45L390.32,302.92L390.33,289.48L388.51,289.95L387.65,290.25L386.09,290.96L384.74,291.80L384.15,292.27L383.64,292.76L383.19,293.29L382.82,293.81L380.40,295.21"/><path style="stroke:#000000;stroke-width:0.353" d="M381.09,286.92L387.88,282.97L388.24,282.53L388.31,282.29L388.31,282.04L388.24,281.80L388.09,281.57L387.61,281.18L387.61,283.15"/><path style="stroke:#000000;stroke-width:0.353" d="M381.08,276.83L381.12,277.07L381.23,277.31L381.41,277.53L381.79,277.82L381.79,286.51"/><path style="stroke:#000000;stroke-width:0.353" d="M381.79,386.32L381.79,500.00"/><path style="stroke:#000000;stroke-width:0.353" d="M381.79,366.23L381.79,366.17"/><path style="stroke:#000000;stroke-width:0.353" d="M382.69,365.95L382.31,365.72"/><path style="stroke:#000000;stroke-width:0.353" d="M381.68,365.34L382.35,365.72"/><path style="stroke:#000000;stroke-width:0.353" d="M382.83,298.59L382.82,293.81"/><path style="stroke:#000000;stroke-width:0.353" d="M381.79,277.82L387.61,281.18"/><path style="stroke:#000000;stroke-width:0.353" d="M385.16,367.37L385.90,367.77"/><path style="stroke:#000000;stroke-width:0.353" d="M385.90,500.00L385.90,388.71"/><path style="stroke:#000000;stroke-width:0.353" d="M385.98,367.82L385.41,367.49L386.06,367.87"/><path style="stroke:#000000;stroke-width:0.353" d="M386.24,367.97L385.41,367.49L386.33,368.02"/><path style="stroke:#000000;stroke-width:0.353" d="M386.42,368.09L385.41,367.49"/><path style="stroke:#000000;stroke-width:0.353" d="M386.61,368.21L387.35,368.69L388.27,369.41L388.88,370.01L389.32,370.58L389.32,318.93L426.98,297.19L427.37,296.90L427.55,296.68L427.65,296.44L427.69,296.20"/><path style="stroke:#000000;stroke-width:0.353" d="M385.90,318.93L386.40,319.15L386.78,319.26L387.61,319.34L388.44,319.26L388.82,319.15L389.32,318.93"/><path style="stroke:#000000;stroke-width:0.353" d="M389.32,385.89L389.84,384.40L390.26,382.91L390.60,381.45L390.84,380.01L390.99,378.60L391.03,377.25L390.99,375.94L390.84,374.71L390.60,373.54L390.26,372.46L389.84,371.47L389.32,370.58"/><path style="stroke:#000000;stroke-width:0.353" d="M390.32,302.92L392.74,304.31L393.43,304.59L394.25,304.72L394.88,304.70L395.48,304.59L396.17,304.31L396.17,288.08L395.48,287.81L394.88,287.70L394.25,287.68L393.43,287.81L392.74,288.08L390.33,289.48"/><path style="stroke:#000000;stroke-width:0.353" d="M392.74,304.31L392.74,288.08"/><path style="stroke:#000000;stroke-width:0.353" d="M396.17,304.31L398.59,302.92L398.59,289.48L396.17,288.08"/><path style="stroke:#000000;stroke-width:0.353" d="M398.59,302.92L400.41,302.45L401.33,302.12L402.83,301.44L404.18,300.59L405.28,299.63L406.09,298.59L408.51,297.19L408.97,296.82L409.19,296.44L409.22,296.20L409.19,295.96L409.00,295.61L408.51,295.21L408.51,297.19"/><path style="stroke:#000000;stroke-width:0.353" d="M398.59,289.48L400.41,289.95L401.26,290.25L402.83,290.96L404.18,291.80L404.76,292.27L405.28,292.76L405.73,293.29L406.09,293.81L406.09,298.59"/><path style="stroke:#000000;stroke-width:0.353" d="M406.09,293.81L408.51,295.21"/><path style="stroke:#000000;stroke-width:0.353" d="M426.98,500.00L426.98,297.19"/><path style="stroke:#000000;stroke-width:0.353" d="M224.27,500.00L224.27,296.20L224.35,295.84L224.60,295.50L224.98,295.21L262.64,273.47L263.14,273.24L263.93,273.08L264.98,273.10L265.57,273.24L265.91,273.38L270.32,275.93L270.56,276.13L270.80,276.47L270.88,276.83L270.88,286.92L278.37,291.22L279.15,291.42L279.97,291.46L280.79,291.34L281.47,291.06L285.90,288.50L285.90,260.62L285.98,260.26L286.13,260.03L286.61,259.63L324.27,237.89L324.77,237.66L325.15,237.56L325.98,237.48L326.81,237.56L327.19,237.66L327.69,237.89L365.36,259.63L365.84,260.03L365.98,260.26L366.06,260.62L366.06,288.50L370.49,291.06L371.18,291.34L371.99,291.46L372.83,291.42L373.59,291.22L381.08,286.92L381.08,276.83L381.16,276.47L381.41,276.13L381.79,275.84L386.05,273.38L386.40,273.24L386.98,273.10L388.03,273.08L388.82,273.24L389.32,273.47L426.98,295.21L427.37,295.50L427.61,295.84L427.69,296.20L427.69,500.00"/><path style="stroke:#000000;stroke-width:0.353" d="M342.76,165.09L342.38,164.18L341.96,163.02L341.62,161.87L341.35,160.73L341.16,159.60L341.04,158.51L341.00,157.45L341.04,156.44L341.16,155.49L341.35,154.59L341.62,153.76L341.96,153.00L342.38,152.32L342.76,151.85L342.86,151.72L343.40,151.22L344.01,150.80L344.67,150.49L345.38,150.27L346.14,150.15L346.29,150.14L346.93,150.13L347.76,150.21L348.61,150.39L349.49,150.68L350.38,151.05L351.27,151.52L352.17,152.09L353.06,152.73L353.93,153.46L354.79,154.27L355.61,155.14L356.41,156.08L357.16,157.07L357.87,158.11L358.53,159.19L358.66,159.42L359.14,160.30L359.69,161.44L360.17,162.59L360.42,163.31L360.58,163.75L360.92,164.90L361.19,166.04L361.39,167.17L361.50,168.26L361.54,169.32L361.50,170.33L361.39,171.28L361.19,172.18L360.92,173.01L360.58,173.77L360.17,174.45L359.79,174.91L359.69,175.05L359.14,175.55L358.53,175.97L357.87,176.28L357.16,176.50L356.41,176.62L355.61,176.64L354.79,176.56L353.93,176.38L353.06,176.09L352.17,175.72L351.27,175.25L350.38,174.68L349.49,174.04L348.61,173.31L347.76,172.50L346.93,171.63L346.14,170.69L345.38,169.70L344.67,168.66L344.01,167.58L343.40,166.47L342.86,165.33L342.76,165.09"/><path style="stroke:#000000;stroke-width:0.353" d="M343.36,158.82L344.29,157.88L345.05,157.06L345.67,156.34L345.94,156.01L346.40,155.40L346.59,155.11L346.91,154.58L347.03,154.33L347.13,154.09L347.21,153.86L347.27,153.63L347.32,153.20L348.73,153.50L349.35,153.67L349.94,153.84L350.48,154.03L351.19,154.30L343.36,158.82L343.40,159.63L343.48,160.47L343.63,161.34L343.84,162.22L344.11,163.11L344.42,164.00L344.79,164.88L345.21,165.76L345.39,166.08L345.68,166.61L346.19,167.44L346.74,168.25L347.32,169.01L348.73,169.32L349.35,169.48L349.94,169.66L350.48,169.84L350.99,170.03L351.46,170.24L351.91,170.45L352.33,170.68L352.73,170.92L353.10,171.18L353.45,171.46L353.79,171.75L354.11,172.06L354.41,172.40L354.69,172.76L355.23,173.57L354.61,173.59L353.98,173.53L353.32,173.39L352.59,173.15L351.96,172.88L351.27,172.52L350.58,172.08L349.90,171.58L349.23,171.02L348.57,170.40L347.93,169.73L347.32,169.01L347.27,167.51L347.21,166.82L347.13,166.17L347.03,165.55L346.91,164.96L346.76,164.39L346.59,163.84L346.40,163.30L346.19,162.78L345.94,162.28L345.67,161.78L345.38,161.29L345.05,160.80L344.69,160.31L344.29,159.82L343.36,158.82L343.39,158.04L343.50,157.24L343.63,156.61L343.84,155.97L344.11,155.39L344.42,154.87L344.79,154.41L345.21,154.02L345.68,153.70L346.19,153.46L346.74,153.29L347.32,153.20L347.93,153.18L348.57,153.24L349.23,153.38L349.90,153.60L350.16,153.71L350.58,153.89L351.27,154.26L351.96,154.69L352.64,155.19L353.32,155.75L353.98,156.37L354.61,157.04L355.23,157.76L355.81,158.52L356.35,159.33L356.86,160.16L357.33,161.01L357.75,161.89L358.12,162.77L358.44,163.66L358.70,164.55L358.91,165.43L359.06,166.29L359.10,166.68L355.23,164.44L347.32,169.01"/><path style="stroke:#000000;stroke-width:0.353" d="M345.82,170.50L344.67,168.66"/><path style="stroke:#000000;stroke-width:0.353" d="M347.08,133.94L348.33,133.34L349.68,132.92L349.82,132.90L351.12,132.69L352.63,132.66L354.20,132.81L355.83,133.16L357.49,133.69L359.17,134.41L360.88,135.31L362.58,136.38L364.27,137.61L365.93,138.99L367.55,140.52L368.33,141.34L369.12,142.18L370.63,143.96L372.07,145.84L373.42,147.82L374.68,149.87L375.83,151.99L376.86,154.15L377.78,156.33L378.56,158.53L378.71,159.01L379.21,160.72L379.73,162.89L380.09,165.02L380.32,167.10L380.39,169.11L380.32,171.03L380.10,172.85L379.73,174.56L379.21,176.14L378.56,177.58L377.78,178.87L376.86,180.00L375.83,180.96L374.67,181.74"/><path style="stroke:#000000;stroke-width:0.353" d="M355.23,164.44L351.31,154.36L351.19,154.30"/><path style="stroke:#000000;stroke-width:0.353" d="M351.31,154.36L351.78,154.58"/><path style="stroke:#000000;stroke-width:0.353" d="M355.81,173.48L356.35,173.31L356.86,173.07L357.33,172.75L357.75,172.36L358.12,171.90L358.44,171.38L358.70,170.80L358.91,170.16L359.06,169.47L359.15,168.73L359.18,167.95L359.13,168.39L359.07,168.61L358.99,168.85L358.89,169.09L358.66,169.53L358.45,169.87L358.26,170.15L357.75,170.83L357.24,171.44L356.91,171.81L356.15,172.63L355.23,173.57L355.81,173.48"/><path style="stroke:#000000;stroke-width:0.353" d="M359.18,167.95L359.15,167.14L359.10,166.68"/><path style="stroke:#000000;stroke-width:0.353" d="M368.28,138.64L369.24,139.54L370.82,141.20L372.33,142.98L373.44,144.44L373.79,144.73L374.29,145.19L374.78,145.67L375.25,146.18L375.71,146.71L376.15,147.26L376.56,147.83L376.96,148.42L377.34,149.02L377.69,149.63L378.03,150.25L378.33,150.87L378.62,151.50L378.87,152.13L379.10,152.76L379.30,153.38L379.47,153.99L379.61,154.60L379.72,155.19L379.79,155.77L379.84,156.37L380.26,157.55L380.91,159.74L381.42,161.91L381.44,162.04L381.61,161.84L381.90,161.43L382.15,160.97L382.37,160.48L382.55,159.95L382.70,159.38L382.81,158.79L382.89,158.17L382.93,157.51L382.92,156.84L382.88,156.14L382.80,155.41L382.67,154.67L382.50,153.91L382.30,153.14L382.06,152.37L381.78,151.58L381.48,150.80L381.13,150.01L380.76,149.23L380.36,148.46L379.92,147.69L379.46,146.94L378.97,146.21L378.46,145.50L377.93,144.80L377.37,144.14L376.79,143.50L376.19,142.90L375.58,142.33L374.95,141.80L374.31,141.29L373.66,140.83L373.01,140.41L372.35,140.02L371.70,139.68L371.04,139.38L370.38,139.13L369.74,138.92L369.10,138.76L368.47,138.65L368.28,138.64L367.62,138.01L367.34,137.78"/><path style="stroke:#000000;stroke-width:0.353" d="M382.16,161.47L382.34,161.22L382.59,160.77L382.82,160.28L383.01,159.77L383.07,159.54L383.17,159.21L383.29,158.62L383.37,158.00L383.41,157.35L383.42,156.68L383.38,155.98L383.30,155.26L383.24,154.91L383.23,154.23L383.19,153.66L383.11,153.08L383.00,152.49L382.87,151.88L382.70,151.27L382.50,150.65L382.27,150.03L382.01,149.40L381.72,148.78L381.40,148.16L381.06,147.55L380.70,146.94L380.31,146.34L379.90,145.76L379.47,145.19L379.03,144.64L378.57,144.11L378.09,143.60L377.61,143.11L377.10,142.66L376.60,142.23L376.08,141.83L375.55,141.47L375.02,141.14L374.81,141.02L374.27,140.63L373.61,140.20L372.96,139.81L372.30,139.46L371.64,139.15L370.99,138.89L370.34,138.67L369.70,138.51L369.07,138.39L368.46,138.32L367.94,138.31"/><path style="stroke:#000000;stroke-width:0.353" d="M367.90,137.39L368.39,137.14L368.90,136.95L369.44,136.80L370.00,136.70L370.58,136.65L371.17,136.65L371.79,136.70L372.41,136.79L373.05,136.93L373.70,137.12L374.35,137.36L375.00,137.63L375.66,137.96L376.31,138.33L376.96,138.74L377.61,139.19L378.24,139.69L378.87,140.23L379.48,140.80L380.08,141.41L380.66,142.04L381.23,142.71L381.77,143.40L382.29,144.11L382.79,144.84L383.26,145.59L383.71,146.35L384.12,147.12L384.51,147.89L384.86,148.67L385.18,149.45L385.45,150.23L385.69,151.01L385.89,151.77L386.06,152.53L386.18,153.27L386.27,154.00L386.32,154.71L386.33,155.39L386.30,156.06L386.24,156.70L386.14,157.30L386.01,157.88L385.84,158.42L385.63,158.93L385.39,159.39L385.08,159.86L384.74,160.27L384.35,160.62L383.92,160.91"/><path style="stroke:#000000;stroke-width:0.353" d="M370.02,136.49L370.59,136.40L371.17,136.36L371.77,136.37L372.39,136.43L373.01,136.53L373.65,136.68L374.30,136.88L374.95,137.12L375.61,137.41L376.26,137.74L376.92,138.12L377.57,138.54L378.21,139.00L378.37,139.13L378.86,139.43L379.39,139.79L379.90,140.18"/><path style="stroke:#000000;stroke-width:0.353" d="M379.52,155.48L379.47,155.35L378.56,153.17L377.52,151.01L376.37,148.90L375.11,146.84L374.52,145.97L375.20,146.78L375.73,147.47L376.24,148.19L376.72,148.92L377.17,149.67L377.60,150.43L377.98,151.20L378.28,151.86L378.66,152.77L378.95,153.55L379.21,154.33L379.43,155.11L379.52,155.48L379.84,156.37"/><path style="stroke:#000000;stroke-width:0.353" d="M374.52,145.97L373.76,144.87L373.44,144.44"/><path style="stroke:#000000;stroke-width:0.353" d="M383.24,154.91L383.18,154.52L383.02,153.77L382.83,153.00L382.59,152.22L382.32,151.44L382.02,150.65L381.64,149.78L381.32,149.09L380.97,148.41L380.49,147.54L380.03,146.79L379.55,146.05L379.04,145.34L378.53,144.66L377.96,143.97L377.38,143.33L376.79,142.73L376.18,142.15L375.55,141.61L374.81,141.02"/><path style="stroke:#000000;stroke-width:0.353" d="M376.33,180.78L376.37,180.76"/><path style="stroke:#000000;stroke-width:0.353" d="M377.80,173.15L377.57,173.34L379.00,172.18L380.32,171.03"/><path style="stroke:#000000;stroke-width:0.353" d="M385.62,159.50L385.83,159.19L386.08,158.73L386.29,158.23L386.47,157.70L386.61,157.13L386.71,156.52L386.78,155.89L386.81,155.23L386.81,154.55L386.77,153.84L386.69,153.12L386.57,152.38L386.42,151.62L386.22,150.86L385.99,150.09L385.72,149.31L385.41,148.53L385.06,147.75L384.68,146.97L384.27,146.20L383.83,145.44L383.36,144.69L382.87,143.96L382.35,143.24L381.81,142.55L381.25,141.88L380.67,141.23L380.08,140.62L379.47,140.04L378.84,139.50L378.37,139.13"/><path style="stroke:#000000;stroke-width:0.353" d="M381.44,162.04L381.47,162.22"/><path style="stroke:#000000;stroke-width:0.353" d="M385.22,146.98L385.08,146.67L384.77,146.05L384.43,145.44L384.06,144.83L383.67,144.24L383.26,143.67L382.83,143.11L382.38,142.57L381.91,142.04L381.53,141.65"/><path style="stroke:#000000;stroke-width:0.353" d="M385.62,159.50L385.53,159.63L385.20,160.01L384.83,160.35L384.42,160.63L383.92,160.91L383.45,161.15L382.96,161.32L382.43,161.44L382.16,161.47L382.05,161.63L381.72,162.00L381.47,162.23L381.79,164.05L382.01,166.12L382.09,168.13L382.01,170.05L381.79,171.87L381.42,173.58L380.91,175.16L380.26,176.60L379.47,177.89L378.56,179.02L377.52,179.98L376.37,180.76L374.67,181.74L373.42,182.34L372.07,182.76L370.63,182.99L369.12,183.03L367.23,182.87L366.09,182.74L364.00,182.36L363.74,182.30L361.67,181.78L359.38,181.01L357.93,180.37L355.92,179.42L353.81,178.18L351.95,176.87L350.64,175.84L348.90,174.25L347.73,173.04L346.17,171.19L345.17,169.82L343.83,167.73L342.67,165.49L342.24,164.55L341.30,162.13L340.57,159.61L340.10,157.24L340.05,157.02L339.76,154.38L339.70,151.73L339.86,149.10L340.25,146.52L340.58,145.09L340.86,144.01L341.27,142.64L342.15,140.30L343.19,138.11L343.97,136.82L344.89,135.69L345.93,134.72L347.08,133.94L348.77,132.96L350.03,132.36L351.38,131.94L352.81,131.71L354.32,131.68L355.90,131.83L357.52,132.18L359.18,132.71L360.87,133.43L362.57,134.33L364.27,135.40L365.96,136.63L367.34,137.78L367.45,137.69L367.90,137.39L368.47,137.06L368.96,136.82L369.48,136.63L370.02,136.49"/><path style="stroke:#000000;stroke-width:0.353" d="M371.07,135.62L370.79,135.80L370.50,136.04"/><g id="paperID" visibility="hidden" opacity="0.00" transform="scale(0.000100)"><path style="stroke:#000000;stroke-width:0.500;fill:#e6e6e6;fill-rule:evenodd" d="M-2000.00,-2000.00L2500.00,-2000.00L2500.00,2500.00L-2000.00,2500.00zM0.00,0.00L500.00,0.00L500.00,500.00L0.00,500.00z"/><path style="fill:#000000;fill-opacity:0.118" d="M3.00,500.00L500.00,500.00L500.00,3.00L503.00,3.00L503.00,503.00L3.00,503.00z"/></g></g></svg>
