<?xml version="1.0" encoding="UTF-8" standalone="no"?>
<svg xmlns="http://www.w3.org/2000/svg" xmlns:xlink="http://www.w3.org/1999/xlink" width="297.000mm" height="210.000mm" viewBox="0.000000 0.000000 297.000000 210.000000" stroke-linejoin="round" stroke-linecap="round" fill="none" fill-rule="evenodd"><desc>Composer Export</desc><script type="text/ecmascript"><![CDATA[
if(typeof(top) != "undefined")
{
	top.ShowPaper = ShowPaper;
}
function ShowHotSpot(evt,hotspotid)
{
	var svgDocument = evt.target.ownerDocument;
	var strId = "hotspot."+hotspotid;
	var hotspot = svgDocument.getElementById(strId);
	if(hotspot)
		hotspot.setAttribute("opacity",".5");
}
function HideHotSpot(evt,hotspotid)
{
	var svgDocument = evt.target.ownerDocument;
	var strId = "hotspot."+hotspotid;
	var hotspot = svgDocument.getElementById(strId);
	if(hotspot)
		hotspot.setAttribute("opacity","0");

	var toolTip = svgDocument.getElementById('ToolTip');
	if(toolTip)
		toolTip.setAttribute("visibility","hidden");
}
function ShowToolTip(evt,hotspotid,strTooltip)
{
	if(strTooltip=="")
	return;

	// change text
	var svgDocument = evt.target.ownerDocument;
	var tiptext = svgDocument.getElementById('ToolTipText');
	if( !tiptext )
	return;
	tiptext.firstChild.nodeValue = " " + strTooltip + "  " ;

	// show tooltip before, else some refresh issue

	var toolTip = svgDocument.getElementById('ToolTip');
	if(!toolTip)
	return;

	toolTip.setAttribute("visibility","visible");
	toolTip.setAttribute("opacity",".95");

	// move tooltip
	// get viewbox

	var root = svgDocument.documentElement;
	var vbox = (root.getAttribute("viewBox")).split(' ');
	var x0 = parseFloat(vbox[0]);
	var y0 = parseFloat(vbox[1]);
	var vboxW = parseFloat(vbox[2]);
	var vboxH = parseFloat(vbox[3]);

	// get default width of svg

	var strW = root.getAttribute("width");
	var svgW = parseFloat(strW);
	if(strW.indexOf('mm') != -1)
	svgW *= 3.779;

	var strH = root.getAttribute("height");
	var svgH = parseFloat(strH);
	if(strH.indexOf('mm') != -1)
	svgH *= 3.779;  	// 96 dpi  -> 96/25.4 = 3.779

	// update the viewbox / width / height if svg is embedded in html with zoom fit all
	var realx0 = x0;
	var realy0 = y0;
	var realvboxW = vboxW;
	var realvboxH = vboxH;
	var realsvgW = svgW;
	var realsvgH = svgH;

	if ((typeof(top) == "undefined") || (typeof(top.svgctl1) != "undefined")) // embedded in html
	{
		// get window size in pxl

		svgW = window.innerWidth;
		svgH = window.innerHeight;

		// calculate real viewbox

		realsvgW = svgW;
		realsvgH = svgH;
		if((svgW / svgH) > (vboxW / vboxH))
		{
			realvboxW = (vboxH * svgW) / svgH;
			realvboxH = vboxH;
			realx0 = x0 - (realvboxW - vboxW)/2 ;
		}
		else
		{
			realvboxH = (vboxW * svgH) / svgW;
			realvboxW = vboxW;
			realy0 = y0 - (realvboxH - vboxH)/2 ;
		}
	}

	// get user zoom/pan

	var newScale = root.currentScale;
	var translation = root.currentTranslate;

	// transform pxl to user unit

	var xPos = (((evt.clientX+10- translation.x)/newScale) * realvboxW)/realsvgW  + realx0 ;
	var yPos = (((evt.clientY+5- translation.y)/newScale) * realvboxH)/ realsvgH  + realy0 ;
	var scaleForWidth = ( (1 / newScale) * realvboxH) / realsvgH;

	// move tooltip

	toolTip.setAttribute("transform", "translate(" + xPos + "," + yPos + ")" );

	// resize tooltip

	var fontsize = 12;
	tiptext.setAttribute("font-size",fontsize*scaleForWidth);
	tiptext.setAttribute("y", fontsize*scaleForWidth);
	var tipBG = svgDocument.getElementById('ToolTipBG');
	var outline = tiptext.getBBox();
	if(tipBG)
	{
		tipBG.setAttribute("stroke-width", 1*scaleForWidth);
		tipBG.setAttribute("width", Number(outline.width) );
		tipBG.setAttribute("height", Number(outline.height) + fontsize*.5*scaleForWidth );
	}
	var ToolTipShadow = svgDocument.getElementById('ToolTipShadow');
	if(ToolTipShadow)
	{
		ToolTipShadow.setAttribute("width", Number(outline.width) );
		ToolTipShadow.setAttribute("height", Number(outline.height) + fontsize*.5*scaleForWidth );
		ToolTipShadow.setAttribute("x", 3*scaleForWidth);
		ToolTipShadow.setAttribute("y", 3*scaleForWidth);
	}
}
function ShowPaper()
{
  var svgDocument = getDocument();
  var paper = svgDocument.getElementById("paperID");
  if(paper)
  {
    paper.setAttribute("transform","scale(1)");
    paper.setAttribute("opacity","1");
    paper.setAttribute("visibility","visible");
  }
  var svg = svgDocument.getRootElement();
  if(svg)
  {
    svg.setAttribute("width","307.000mm");
    svg.setAttribute("height","220.000mm");
    svg.setAttribute("viewBox","-5.000000 -5.000000 307.000000 220.000000");
  }
}
]]></script><defs/><g><path style="fill:#ffffff" d="M132.95,67.46L132.84,67.65L132.55,67.73L120.48,74.69L119.24,75.63L118.57,76.65L118.39,78.12L118.39,112.46L118.49,113.14L118.80,114.38L131.28,136.08L132.62,137.59L136.69,139.94L136.71,209.91L0.05,209.89L0.05,0.05L133.00,0.03z"/><path style="fill:#000020" d="M132.84,67.65L132.95,67.46L133.00,0.03L133.17,0.03L133.17,88.01L133.07,87.99L132.93,67.73z"/><path style="fill:#000020" d="M136.90,140.07L136.87,209.91L136.71,209.91L136.69,139.94z"/><path style="fill:#97fa98" d="M133.07,87.99L133.17,88.01L165.43,106.64L167.58,106.64L170.00,105.18L170.15,99.37L171.51,100.22L172.62,100.23L173.63,100.06L175.03,100.06L176.21,100.23L177.38,100.58L178.01,100.58L185.47,96.38L185.80,96.71L204.85,107.79L204.86,145.63L204.67,146.76L203.93,148.03L179.53,162.19L177.97,162.85L176.94,162.84L176.21,162.70L170.40,159.43L170.21,159.29L136.90,140.07L136.69,139.94L132.62,137.59L131.28,136.08L118.80,114.38L118.49,113.14L118.47,112.52L118.39,112.46L118.39,78.12L118.57,76.65L119.24,75.63L120.48,74.69L132.55,67.73L132.84,67.65L132.93,67.73z"/><path style="fill:#97fa98" d="M115.78,132.21L118.30,133.56L120.51,135.06L122.17,136.93L123.68,139.63L124.28,141.76L124.38,142.26L124.46,142.93L124.45,146.48L124.36,147.42L123.85,148.94L122.78,150.22L94.00,166.90L93.30,167.35L93.40,167.85L93.48,168.36L93.57,169.03L93.64,170.20L93.64,172.07L93.57,173.07L93.21,175.20L92.32,177.34L91.64,178.35L90.70,179.43L88.28,181.04L86.38,181.70L85.69,181.79L82.66,181.69L80.59,181.39L80.31,181.28L79.80,181.19L77.55,180.54L73.85,178.69L72.01,177.49L69.15,174.97L66.80,171.93L65.59,169.94L64.42,167.07L63.94,165.50L63.93,165.04L63.85,164.99L63.43,162.81L63.41,162.01L63.34,161.95L63.26,160.95L63.26,158.76L63.34,157.59L63.51,156.23L64.08,153.65L65.27,150.46L66.37,148.53L67.57,147.20L70.64,145.40L72.06,145.09L74.07,144.99L74.93,145.08L77.72,145.86L80.59,147.37L82.70,149.00L82.79,149.24L82.95,149.28L83.00,149.04L112.51,132.04L113.30,131.95L114.32,131.95z"/><path style="fill:#ffffff" d="M133.17,88.01L133.17,0.03L238.39,0.03L238.39,209.91L170.38,209.91L170.40,159.43L176.21,162.70L176.94,162.84L177.97,162.85L179.53,162.19L203.93,148.03L204.67,146.76L204.86,145.63L204.85,107.79L185.80,96.71L185.47,96.38L178.01,100.58L177.38,100.58L176.21,100.23L175.03,100.06L173.63,100.06L172.62,100.23L171.51,100.22L170.15,99.37L170.00,105.18L167.58,106.64L165.43,106.64z"/><path style="fill:#ffffff" d="M170.21,159.29L170.21,209.91L136.87,209.91L136.90,140.07z"/><path style="fill:#000020" d="M118.49,113.14L118.39,112.46L118.47,112.52z"/><path style="fill:#000020" d="M124.38,142.26L124.28,141.76L124.36,141.82z"/><path style="fill:#000020" d="M124.45,146.48L124.46,142.93L124.52,142.99z"/><path style="fill:#000020" d="M82.70,149.00L83.00,149.04L82.95,149.28L82.79,149.24z"/><path style="fill:#000020" d="M63.43,162.81L63.34,161.95L63.41,162.01z"/><path style="fill:#000020" d="M63.94,165.50L63.85,164.99L63.93,165.04z"/><path style="fill:#000020" d="M93.40,167.85L93.30,167.35L93.37,167.40z"/><path style="fill:#000020" d="M93.57,169.03L93.48,168.36L93.55,168.41z"/><path style="fill:#000020" d="M93.64,172.07L93.64,170.20L93.71,170.27z"/><path style="fill:#000020" d="M238.56,209.91L238.39,209.91L238.39,0.03L238.56,0.03z"/><path style="fill:#000020" d="M170.40,159.43L170.38,209.91L170.21,209.91L170.21,159.29z"/><path style="fill:#ffffff" d="M296.93,209.89L238.56,209.91L238.56,0.03L296.93,0.05z"/><g id="Actor_.0"><g style="stroke:#000000;stroke-width:0.353"><path d="M142.47,66.32 C142.53,66.59 142.53,66.59 142.60,66.86 C142.74,67.35 142.74,67.35 142.89,67.84 C143.06,68.33 143.06,68.34 143.24,68.83 C143.45,69.32 143.45,69.32 143.65,69.81 C143.89,70.30 143.89,70.30 144.12,70.78 C144.27,71.06 144.27,71.06 144.43,71.34 C144.53,71.53 144.53,71.54 144.64,71.73 C144.92,72.19 144.92,72.19 145.20,72.65 C145.50,73.10 145.50,73.10 145.81,73.54 C146.13,73.96 146.13,73.96 146.45,74.39 C146.79,74.79 146.79,74.79 147.13,75.19 C147.31,75.38 147.31,75.38 147.50,75.57 C147.67,75.75 147.67,75.75 147.84,75.93 C148.20,76.28 148.20,76.28 148.57,76.62 C148.94,76.93 148.94,76.93 149.31,77.24 C149.69,77.52 149.69,77.52 150.07,77.79 C150.45,78.04 150.45,78.04 150.84,78.27 C151.17,78.45 151.17,78.45 151.51,78.63 C151.56,78.65 151.56,78.65 151.60,78.68 C151.98,78.84 151.98,78.84 152.36,79.00 C152.73,79.12 152.73,79.12 153.11,79.24 C153.47,79.32 153.47,79.32 153.84,79.39 C154.19,79.43 154.19,79.43 154.54,79.46 C154.88,79.46 154.88,79.46 155.22,79.45 C155.54,79.40 155.54,79.40 155.87,79.35 C156.17,79.26 156.17,79.26 156.47,79.16 C156.76,79.03 156.76,79.03 157.04,78.89 C157.30,78.72 157.30,78.71 157.55,78.54 C157.79,78.32 157.79,78.32 158.02,78.10 C158.23,77.85 158.23,77.85 158.43,77.60 C158.61,77.31 158.61,77.31 158.78,77.02 C158.93,76.69 158.93,76.69 159.08,76.37 C159.19,76.02 159.19,76.02 159.31,75.66 C159.39,75.28 159.39,75.28 159.47,74.89 C159.51,74.63 159.50,74.62 159.54,74.36 C159.55,74.22 159.56,74.22 159.57,74.07 C159.59,73.64 159.59,73.64 159.60,73.21 C159.59,72.76 159.59,72.76 159.57,72.31 C159.52,71.84 159.52,71.84 159.47,71.38 C159.39,70.90 159.39,70.90 159.31,70.42 C159.19,69.93 159.19,69.93 159.08,69.44 C158.93,68.95 158.93,68.95 158.78,68.46 C158.76,68.39 158.76,68.39 158.74,68.33 C158.58,67.90 158.59,67.90 158.43,67.47 C158.23,66.98 158.23,66.98 158.02,66.49 C157.79,66.00 157.79,66.00 157.55,65.52 C157.30,65.04 157.30,65.04 157.04,64.57 C156.78,64.15 156.78,64.15 156.53,63.74 C156.50,63.69 156.50,63.69 156.47,63.65 C156.17,63.20 156.17,63.20 155.87,62.76 C155.55,62.33 155.55,62.33 155.22,61.91 C154.96,61.60 154.96,61.60 154.69,61.29 C154.62,61.20 154.62,61.20 154.54,61.11 C154.19,60.74 154.19,60.74 153.84,60.37 C153.47,60.02 153.47,60.02 153.11,59.68 C152.81,59.43 152.81,59.43 152.51,59.19 C152.44,59.12 152.44,59.12 152.36,59.06 C151.98,58.78 151.98,58.78 151.60,58.50 C151.22,58.26 151.22,58.26 150.84,58.03 C150.46,57.82 150.46,57.82 150.07,57.62 C149.70,57.46 149.69,57.46 149.31,57.30 C148.94,57.18 148.94,57.18 148.57,57.06 C148.20,56.98 148.20,56.98 147.84,56.90 C147.49,56.87 147.49,56.87 147.13,56.83 C146.79,56.84 146.79,56.84 146.45,56.85 C146.13,56.90 146.13,56.90 145.81,56.95 C145.65,57.00 145.65,57.00 145.49,57.05 C145.35,57.10 145.34,57.09 145.20,57.14 C144.92,57.27 144.92,57.27 144.64,57.41 C144.38,57.58 144.38,57.58 144.12,57.76 C143.88,57.98 143.88,57.98 143.65,58.20 C143.45,58.45 143.45,58.45 143.24,58.70 C143.06,58.99 143.06,58.99 142.89,59.28 C142.74,59.60 142.74,59.61 142.60,59.93 C142.54,60.11 142.54,60.11 142.48,60.30 C142.42,60.47 142.42,60.47 142.37,60.64 C142.28,61.02 142.28,61.02 142.20,61.41 C142.15,61.81 142.15,61.82 142.10,62.22 C142.08,62.66 142.08,62.66 142.07,63.09 C142.08,63.54 142.08,63.54 142.10,63.99 C142.15,64.46 142.15,64.46 142.20,64.92 C142.28,65.40 142.28,65.40 142.37,65.88 C142.42,66.10 142.42,66.10 142.47,66.32 "/><path d="M150.10,56.42 C149.94,56.35 149.94,56.35 149.78,56.28 C149.38,56.15 149.38,56.15 148.98,56.03 C148.60,55.94 148.60,55.94 148.21,55.86 C147.83,55.82 147.83,55.82 147.45,55.79 C147.09,55.79 147.09,55.79 146.73,55.81 C146.39,55.86 146.39,55.86 146.05,55.91 C145.72,56.01 145.72,56.01 145.40,56.11 C145.10,56.25 145.10,56.25 144.80,56.40 C144.52,56.59 144.52,56.59 144.25,56.78 C144.00,57.00 144.00,57.00 143.76,57.24 C143.53,57.50 143.53,57.50 143.32,57.78 C143.13,58.08 143.13,58.08 142.94,58.39 C142.78,58.74 142.78,58.74 142.63,59.08 C142.51,59.46 142.51,59.46 142.39,59.84 C142.30,60.24 142.30,60.24 142.21,60.65 C142.15,61.09 142.15,61.09 142.10,61.52 C142.08,61.98 142.09,61.98 142.07,62.44 C142.07,62.76 142.07,62.84 142.07,63.09 "/><path d="M147.16,68.48 C147.07,68.24 147.07,68.24 146.98,68.00 C146.91,67.76 146.91,67.76 146.84,67.52 C146.78,67.29 146.78,67.29 146.73,67.05 C146.69,66.82 146.69,66.82 146.65,66.58 C146.62,66.36 146.62,66.36 146.60,66.13 C146.59,65.91 146.59,65.91 146.59,65.70 C146.59,65.49 146.59,65.49 146.60,65.28 C146.62,65.08 146.62,65.08 146.65,64.88 C146.69,64.69 146.69,64.69 146.73,64.51 C146.78,64.34 146.78,64.34 146.84,64.16 C146.91,64.01 146.91,64.01 146.98,63.85 C147.07,63.71 147.07,63.71 147.16,63.57 "/><path d="M147.16,63.57 C147.27,63.80 147.27,63.80 147.39,64.04 C147.44,64.15 147.44,64.15 147.48,64.27 C147.52,64.38 147.52,64.38 147.56,64.50 C147.59,64.61 147.59,64.61 147.62,64.73 C147.64,64.85 147.64,64.85 147.67,64.96 C147.68,65.08 147.68,65.08 147.70,65.20 C147.71,65.32 147.71,65.32 147.72,65.45 C147.72,65.57 147.72,65.57 147.72,65.70 C147.72,65.82 147.72,65.82 147.72,65.95 C147.71,66.08 147.71,66.09 147.70,66.22 C147.68,66.36 147.68,66.36 147.67,66.49 C147.64,66.64 147.64,66.64 147.62,66.78 C147.59,66.93 147.59,66.93 147.56,67.09 C147.52,67.25 147.52,67.25 147.48,67.40 C147.44,67.57 147.44,67.57 147.39,67.74 C147.30,68.03 147.30,68.03 147.20,68.33 "/><path d="M147.35,68.95 C147.47,69.19 147.47,69.19 147.58,69.42 C147.70,69.66 147.70,69.66 147.83,69.89 C147.97,70.11 147.97,70.11 148.11,70.33 C148.25,70.55 148.25,70.55 148.40,70.76 C148.55,70.97 148.55,70.97 148.71,71.17 C148.87,71.37 148.87,71.37 149.04,71.56 C149.21,71.74 149.21,71.74 149.38,71.92 C149.56,72.09 149.56,72.09 149.74,72.26 C149.92,72.41 149.92,72.41 150.10,72.56 C150.28,72.69 150.28,72.69 150.47,72.83 C150.65,72.94 150.65,72.94 150.84,73.06 C151.02,73.16 151.02,73.16 151.21,73.25 C151.39,73.33 151.39,73.33 151.58,73.41 C151.76,73.47 151.76,73.47 151.94,73.53 C152.11,73.57 152.11,73.57 152.29,73.60 C152.46,73.62 152.46,73.62 152.63,73.64 C152.80,73.63 152.80,73.63 152.96,73.63 C153.12,73.61 153.12,73.61 153.28,73.58 C153.42,73.54 153.42,73.54 153.57,73.49 C153.71,73.42 153.71,73.42 153.84,73.36 C153.97,73.27 153.97,73.27 154.09,73.19 C154.21,73.08 154.21,73.08 154.32,72.98 C154.42,72.85 154.42,72.85 154.52,72.73 "/><path d="M154.52,72.73 C154.41,72.68 154.41,72.68 154.30,72.63 C154.24,72.62 154.24,72.62 154.18,72.60 C154.12,72.59 154.12,72.59 154.05,72.58 C153.98,72.57 153.98,72.57 153.91,72.56 C153.84,72.55 153.84,72.55 153.76,72.55 C153.68,72.55 153.68,72.55 153.60,72.55 C153.52,72.55 153.52,72.55 153.43,72.55 C153.34,72.56 153.34,72.56 153.25,72.57 C153.04,72.59 153.04,72.59 152.84,72.61 C152.61,72.65 152.61,72.65 152.37,72.70 C152.24,72.72 152.24,72.72 152.11,72.75 C151.82,72.82 151.82,72.81 151.52,72.88 C151.18,72.97 151.18,72.97 150.84,73.06 "/><path d="M150.84,73.06 C150.73,72.71 150.73,72.71 150.62,72.36 C150.56,72.20 150.56,72.20 150.50,72.04 C150.44,71.89 150.44,71.89 150.37,71.74 C150.30,71.60 150.30,71.60 150.23,71.46 C150.16,71.32 150.16,71.32 150.08,71.19 C150.00,71.06 150.00,71.06 149.92,70.93 C149.84,70.80 149.84,70.80 149.75,70.68 C149.66,70.56 149.66,70.56 149.57,70.44 C149.47,70.32 149.47,70.32 149.37,70.21 C149.26,70.09 149.26,70.09 149.16,69.98 C149.05,69.87 149.05,69.87 148.93,69.76 C148.81,69.65 148.81,69.65 148.69,69.54 C148.56,69.44 148.56,69.44 148.43,69.33 C148.29,69.22 148.29,69.22 148.15,69.12 C147.99,69.01 147.99,69.01 147.84,68.90 C147.50,68.69 147.50,68.69 147.16,68.48 "/><path d="M150.84,63.24 C150.73,63.19 150.73,63.19 150.62,63.14 C150.56,63.13 150.56,63.13 150.50,63.11 C150.43,63.10 150.43,63.10 150.37,63.09 C150.30,63.08 150.30,63.08 150.23,63.07 C150.16,63.06 150.16,63.06 150.08,63.06 C150.00,63.06 150.00,63.06 149.92,63.06 C149.84,63.06 149.84,63.06 149.75,63.06 C149.66,63.07 149.66,63.07 149.57,63.08 C149.47,63.09 149.47,63.09 149.37,63.10 C149.15,63.13 149.15,63.13 148.93,63.16 C148.68,63.21 148.68,63.21 148.43,63.26 C148.13,63.33 148.13,63.33 147.84,63.39 C147.50,63.48 147.50,63.48 147.16,63.57 "/><path d="M147.16,63.57 C147.25,63.45 147.25,63.45 147.35,63.32 C147.42,63.26 147.43,63.26 147.50,63.19 C147.54,63.15 147.54,63.15 147.58,63.11 C147.70,63.03 147.70,63.03 147.83,62.94 C147.97,62.87 147.97,62.87 148.10,62.81 C148.25,62.76 148.25,62.76 148.40,62.72 C148.55,62.69 148.55,62.69 148.71,62.67 C148.88,62.66 148.88,62.66 149.04,62.66 C149.21,62.68 149.21,62.68 149.38,62.70 C149.56,62.73 149.56,62.73 149.74,62.77 C149.92,62.83 149.92,62.83 150.10,62.89 C150.28,62.97 150.28,62.97 150.47,63.05 C150.65,63.14 150.65,63.14 150.84,63.24 C151.02,63.36 151.02,63.36 151.21,63.47 C151.39,63.61 151.39,63.61 151.58,63.74 C151.76,63.89 151.76,63.89 151.94,64.04 C152.12,64.21 152.12,64.21 152.29,64.38 C152.46,64.56 152.46,64.56 152.63,64.74 C152.80,64.93 152.80,64.93 152.96,65.13 C153.12,65.33 153.12,65.33 153.28,65.54 C153.42,65.75 153.42,65.75 153.57,65.97 C153.71,66.19 153.71,66.19 153.84,66.41 C153.97,66.64 153.97,66.64 154.09,66.87 C154.21,67.11 154.21,67.11 154.32,67.34 C154.42,67.58 154.42,67.58 154.52,67.82 C154.61,68.06 154.61,68.06 154.69,68.30 C154.76,68.54 154.76,68.54 154.83,68.78 C154.89,69.01 154.89,69.01 154.94,69.25 C154.95,69.29 154.95,69.29 154.96,69.33 C154.99,69.52 154.99,69.52 155.02,69.71 C155.05,69.94 155.05,69.94 155.07,70.17 C155.08,70.39 155.08,70.39 155.09,70.60 C155.08,70.81 155.08,70.81 155.07,71.02 C155.05,71.22 155.05,71.22 155.02,71.42 C154.99,71.61 154.99,71.61 154.94,71.79 C154.89,71.96 154.89,71.96 154.83,72.14 C154.79,72.24 154.78,72.24 154.74,72.34 C154.71,72.40 154.71,72.40 154.69,72.45 C154.61,72.59 154.61,72.59 154.52,72.73 "/><path d="M154.52,72.73 C154.64,72.36 154.64,72.36 154.75,71.99 C154.80,71.82 154.80,71.82 154.85,71.66 C154.88,71.50 154.88,71.50 154.92,71.34 C154.95,71.19 154.95,71.19 154.98,71.03 C155.01,70.89 155.01,70.89 155.03,70.75 C155.05,70.61 155.05,70.61 155.06,70.47 C155.07,70.38 155.07,70.37 155.08,70.28 "/><path d="M160.62,74.66 C160.61,74.83 160.61,74.83 160.58,75.00 C160.50,75.41 160.50,75.41 160.41,75.82 C160.29,76.19 160.29,76.19 160.16,76.57 C160.01,76.92 160.01,76.92 159.85,77.26 C159.67,77.57 159.67,77.57 159.47,77.88 C159.26,78.15 159.26,78.15 159.04,78.42 C158.79,78.65 158.79,78.65 158.54,78.87 C158.27,79.07 158.27,79.07 157.99,79.25 C157.70,79.40 157.69,79.40 157.39,79.54 C157.07,79.64 157.07,79.64 156.75,79.74 C156.40,79.80 156.40,79.80 156.06,79.85 C155.70,79.86 155.70,79.86 155.34,79.86 C154.96,79.83 154.96,79.83 154.59,79.79 C154.20,79.71 154.20,79.71 153.81,79.62 C153.41,79.50 153.41,79.50 153.02,79.37 C152.61,79.20 152.61,79.20 152.21,79.03 C151.80,78.81 151.80,78.81 151.40,78.60 C151.12,78.44 151.12,78.44 150.84,78.27 "/><path d="M144.80,56.40 L146.85,55.22 "/><path d="M147.20,68.33 L147.16,68.48 L147.35,68.95 "/><path d="M147.16,68.48 L152.68,65.29 L152.68,64.79 "/><path d="M150.84,73.06 L155.04,70.63 "/><path d="M154.30,67.31 L152.68,65.29 "/><path d="M157.99,79.25 L160.05,78.06 "/></g></g><g id="Actor_.1"><g style="stroke:#000000;stroke-width:0.353"><path d="M192.07,120.87 C192.07,120.61 192.07,120.61 192.06,120.36 C192.03,120.10 192.03,120.10 192.00,119.84 C191.96,119.57 191.96,119.57 191.91,119.30 C191.84,119.03 191.84,119.03 191.78,118.76 C191.70,118.48 191.70,118.48 191.61,118.21 C191.52,117.93 191.52,117.93 191.42,117.65 C191.30,117.38 191.30,117.38 191.19,117.10 C191.06,116.83 191.06,116.83 190.93,116.56 C190.79,116.30 190.79,116.30 190.64,116.04 C190.48,115.77 190.48,115.77 190.32,115.51 C190.15,115.26 190.15,115.26 189.98,115.02 C189.80,114.78 189.80,114.78 189.62,114.55 C189.43,114.32 189.43,114.32 189.24,114.09 C189.04,113.88 189.04,113.88 188.84,113.68 C188.64,113.48 188.64,113.48 188.44,113.29 C188.23,113.12 188.23,113.12 188.02,112.94 C187.81,112.79 187.81,112.79 187.59,112.63 C187.38,112.50 187.38,112.50 187.17,112.36 "/><path d="M185.20,115.77 C185.33,115.84 185.33,115.84 185.46,115.93 C185.71,116.12 185.71,116.12 185.96,116.32 C186.21,116.56 186.21,116.56 186.45,116.80 C186.67,117.08 186.67,117.08 186.89,117.36 C187.09,117.66 187.09,117.66 187.28,117.96 C187.45,118.28 187.45,118.28 187.61,118.61 C187.75,118.94 187.75,118.94 187.87,119.27 C187.96,119.60 187.96,119.60 188.05,119.93 C188.10,120.25 188.10,120.25 188.14,120.57 "/><path d="M188.14,120.57 C188.15,136.46 188.15,136.55 188.15,152.53 C188.13,152.81 188.13,152.81 188.10,153.10 C188.04,153.34 188.04,153.35 187.97,153.59 C187.92,153.70 187.92,153.70 187.87,153.81 C187.81,153.91 187.81,153.91 187.75,154.00 C187.68,154.09 187.68,154.09 187.61,154.17 C187.54,154.25 187.54,154.25 187.46,154.32 C187.37,154.38 187.37,154.38 187.28,154.44 C181.36,157.86 181.36,157.86 175.43,161.28 C175.34,161.33 175.34,161.33 175.24,161.37 C175.14,161.40 175.14,161.40 175.04,161.43 C174.93,161.45 174.93,161.45 174.82,161.47 C174.71,161.47 174.71,161.47 174.59,161.47 C174.48,161.46 174.48,161.46 174.36,161.45 C174.23,161.43 174.23,161.43 174.11,161.40 C173.85,161.31 173.84,161.31 173.58,161.21 C153.41,149.57 153.41,149.57 133.24,137.92 C133.11,137.84 133.11,137.84 132.98,137.75 C132.72,137.56 132.72,137.56 132.47,137.36 C132.23,137.12 132.23,137.12 131.99,136.88 C131.87,136.74 131.87,136.74 131.76,136.61 C131.55,136.32 131.55,136.32 131.34,136.03 C131.24,135.87 131.25,135.87 131.15,135.71 C125.14,125.29 125.13,125.29 119.13,114.87 C118.97,114.54 118.98,114.54 118.83,114.21 C118.77,114.05 118.77,114.05 118.71,113.88 C118.62,113.55 118.62,113.55 118.54,113.22 C118.51,113.06 118.51,113.06 118.48,112.90 C118.46,112.59 118.46,112.59 118.44,112.28 C118.43,111.15 118.43,110.90 118.44,110.02 "/><path d="M133.16,81.19 C128.26,78.35 128.26,78.35 123.35,75.52 C123.13,75.40 123.13,75.40 122.92,75.29 C122.71,75.20 122.71,75.20 122.49,75.11 C122.28,75.04 122.28,75.04 122.07,74.98 C121.87,74.93 121.87,74.93 121.67,74.89 C121.47,74.87 121.47,74.87 121.27,74.85 C121.08,74.85 121.08,74.85 120.89,74.86 C120.71,74.89 120.71,74.89 120.53,74.92 C120.36,74.97 120.36,74.97 120.19,75.02 C120.03,75.10 120.03,75.10 119.87,75.17 C119.73,75.27 119.73,75.27 119.58,75.37 C119.45,75.49 119.45,75.49 119.32,75.61 C119.21,75.75 119.21,75.75 119.09,75.90 C118.99,76.06 118.99,76.06 118.90,76.22 C118.81,76.40 118.81,76.40 118.73,76.58 C118.67,76.78 118.67,76.78 118.60,76.98 C118.56,77.20 118.56,77.20 118.51,77.41 C118.48,77.64 118.48,77.64 118.46,77.87 C118.44,78.11 118.44,78.11 118.44,78.35 C118.44,79.37 118.44,79.36 118.45,80.38 "/><path d="M118.45,80.38 C118.46,80.22 118.46,80.22 118.48,80.05 C118.51,79.93 118.51,79.93 118.54,79.80 C118.57,79.68 118.57,79.68 118.61,79.56 C118.66,79.45 118.66,79.45 118.71,79.34 C118.77,79.24 118.77,79.24 118.83,79.15 C118.90,79.06 118.90,79.06 118.97,78.98 C119.05,78.90 119.05,78.90 119.13,78.83 C119.21,78.77 119.21,78.77 119.30,78.71 C119.39,78.67 119.39,78.67 119.49,78.62 C119.59,78.59 119.59,78.59 119.69,78.56 C119.80,78.54 119.80,78.54 119.91,78.52 C120.02,78.52 120.02,78.52 120.14,78.52 C120.26,78.53 120.26,78.53 120.37,78.54 C120.50,78.57 120.50,78.57 120.62,78.59 C120.87,78.69 120.87,78.69 121.13,78.78 C121.25,78.85 121.26,78.85 121.38,78.92 "/><path d="M119.87,75.17 C126.26,71.49 126.26,71.49 132.64,67.80 C132.80,67.73 132.80,67.73 132.95,67.65 C133.06,67.62 133.06,67.62 133.16,67.59 "/><path d="M143.48,118.55 C143.41,118.23 143.41,118.23 143.33,117.92 C143.23,117.35 143.23,117.35 143.14,116.79 C143.08,116.24 143.08,116.24 143.02,115.69 C143.00,115.16 143.00,115.16 142.98,114.63 C143.00,114.12 143.00,114.12 143.02,113.62 C143.08,113.14 143.08,113.14 143.14,112.66 C143.23,112.20 143.23,112.20 143.33,111.75 C143.46,111.34 143.46,111.33 143.60,110.92 C143.77,110.54 143.77,110.54 143.95,110.16 C144.15,109.82 144.15,109.82 144.36,109.48 C144.60,109.18 144.60,109.18 144.85,108.88 C145.12,108.62 145.12,108.62 145.39,108.37 C145.69,108.16 145.70,108.16 146.00,107.96 C146.33,107.79 146.33,107.79 146.67,107.64 C147.02,107.52 147.02,107.52 147.38,107.42 C147.76,107.35 147.76,107.35 148.14,107.30 C148.54,107.28 148.54,107.28 148.94,107.28 C149.35,107.32 149.35,107.32 149.77,107.36 C150.20,107.45 150.20,107.45 150.62,107.54 C151.07,107.68 151.07,107.68 151.51,107.83 C151.95,108.01 151.95,108.01 152.39,108.21 C152.84,108.44 152.84,108.44 153.29,108.68 C153.74,108.96 153.74,108.96 154.19,109.24 C154.64,109.57 154.64,109.57 155.08,109.89 C155.52,110.26 155.52,110.26 155.96,110.63 C156.39,111.03 156.39,111.03 156.82,111.43 C157.24,111.87 157.24,111.87 157.65,112.31 C158.05,112.78 158.05,112.78 158.45,113.25 C158.83,113.75 158.83,113.75 159.21,114.25 C159.56,114.77 159.56,114.77 159.92,115.29 C160.25,115.83 160.25,115.83 160.58,116.37 C160.89,116.93 160.89,116.93 161.19,117.49 C161.47,118.06 161.47,118.06 161.74,118.63 C161.98,119.21 161.98,119.21 162.22,119.79 C162.43,120.37 162.43,120.37 162.64,120.95 C162.81,121.53 162.81,121.53 162.98,122.11 C163.12,122.68 163.12,122.68 163.25,123.25 C163.28,123.42 163.28,123.42 163.31,123.59 C163.38,123.98 163.38,123.98 163.44,124.38 C163.51,124.93 163.51,124.93 163.56,125.48 C163.58,126.01 163.59,126.01 163.60,126.54 C163.59,127.04 163.59,127.04 163.56,127.55 C163.51,128.03 163.51,128.03 163.44,128.51 C163.35,128.96 163.35,128.97 163.25,129.41 C163.12,129.83 163.12,129.83 162.98,130.25 C162.81,130.63 162.81,130.63 162.64,131.01 C162.43,131.35 162.43,131.35 162.22,131.69 C161.98,131.99 161.98,131.99 161.74,132.29 C161.47,132.55 161.47,132.55 161.19,132.80 C160.87,133.02 160.87,133.02 160.54,133.23 C160.23,133.38 160.23,133.38 159.92,133.53 C159.56,133.64 159.56,133.64 159.21,133.75 C158.83,133.81 158.83,133.81 158.45,133.87 C158.05,133.88 158.05,133.88 157.65,133.89 C157.23,133.85 157.23,133.85 156.82,133.81 C156.39,133.72 156.39,133.72 155.96,133.62 C155.52,133.49 155.52,133.49 155.08,133.34 C154.63,133.16 154.63,133.15 154.19,132.96 C153.74,132.73 153.74,132.73 153.29,132.49 C152.84,132.21 152.84,132.21 152.39,131.92 C151.95,131.61 151.95,131.60 151.51,131.28 C151.06,130.91 151.06,130.91 150.62,130.54 C150.19,130.14 150.19,130.14 149.77,129.73 C149.35,129.30 149.35,129.30 148.94,128.86 C148.53,128.39 148.53,128.39 148.14,127.92 C147.76,127.42 147.76,127.42 147.38,126.92 C147.02,126.40 147.02,126.40 146.67,125.88 C146.33,125.34 146.33,125.34 146.00,124.79 C145.70,124.24 145.70,124.24 145.39,123.68 C145.12,123.11 145.12,123.11 144.85,122.54 C144.60,121.96 144.60,121.96 144.36,121.38 C144.15,120.80 144.15,120.80 143.95,120.22 C143.77,119.64 143.77,119.64 143.60,119.06 C143.54,118.81 143.54,118.81 143.48,118.55 "/><path d="M163.54,125.31 C163.51,125.59 163.51,125.59 163.47,125.87 C163.40,126.24 163.40,126.24 163.32,126.60 C163.21,126.94 163.21,126.94 163.10,127.27 C162.96,127.58 162.96,127.58 162.82,127.89 C162.65,128.17 162.65,128.17 162.48,128.44 C162.29,128.69 162.29,128.69 162.09,128.92 C161.87,129.13 161.87,129.13 161.65,129.34 C161.41,129.51 161.40,129.51 161.16,129.67 C160.89,129.80 160.89,129.80 160.62,129.93 C160.33,130.02 160.33,130.02 160.04,130.11 C159.74,130.16 159.74,130.16 159.43,130.20 C159.11,130.22 159.10,130.22 158.78,130.22 C158.45,130.19 158.45,130.19 158.11,130.15 C157.76,130.08 157.76,130.08 157.42,130.01 C157.06,129.89 157.06,129.89 156.70,129.78 C156.34,129.63 156.34,129.63 155.98,129.47 C155.62,129.28 155.62,129.28 155.25,129.09 C154.89,128.86 154.89,128.86 154.53,128.63 C154.17,128.37 154.17,128.37 153.81,128.10 C153.45,127.81 153.45,127.81 153.10,127.51 C152.75,127.19 152.75,127.19 152.40,126.86 C152.06,126.50 152.06,126.50 151.73,126.15 C151.40,125.77 151.40,125.77 151.08,125.39 C150.77,124.99 150.77,124.98 150.47,124.58 C150.18,124.16 150.18,124.16 149.89,123.73 C149.62,123.30 149.62,123.30 149.35,122.86 C149.11,122.41 149.11,122.41 148.86,121.95 C148.64,121.49 148.64,121.49 148.42,121.03 C148.22,120.56 148.22,120.56 148.03,120.10 C147.86,119.63 147.86,119.63 147.69,119.16 C147.55,118.69 147.55,118.69 147.41,118.22 C147.30,117.75 147.30,117.75 147.19,117.29 C147.11,116.83 147.11,116.83 147.04,116.38 C146.99,115.93 146.99,115.93 146.94,115.49 C146.92,115.06 146.92,115.06 146.91,114.63 C146.92,114.22 146.92,114.22 146.94,113.81 C146.99,113.42 146.99,113.42 147.04,113.03 C147.11,112.67 147.11,112.67 147.19,112.30 C147.30,111.96 147.30,111.96 147.41,111.63 C147.55,111.32 147.55,111.32 147.69,111.01 C147.86,110.73 147.86,110.73 148.03,110.46 C148.22,110.21 148.22,110.21 148.42,109.98 C148.64,109.77 148.64,109.77 148.86,109.56 C149.11,109.39 149.11,109.39 149.35,109.23 C149.62,109.10 149.62,109.10 149.89,108.97 C150.18,108.88 150.18,108.88 150.47,108.79 C150.77,108.74 150.78,108.74 151.08,108.70 C151.41,108.68 151.41,108.68 151.73,108.68 C152.06,108.71 152.07,108.71 152.40,108.75 C152.75,108.82 152.75,108.82 153.10,108.89 C153.45,109.01 153.45,109.01 153.81,109.12 C154.07,109.23 154.07,109.23 154.33,109.35 "/><path d="M178.79,162.55 C178.63,162.63 178.63,162.63 178.47,162.70 C178.30,162.76 178.30,162.76 178.13,162.81 C177.95,162.84 177.95,162.84 177.77,162.87 C177.58,162.87 177.58,162.87 177.39,162.88 C177.19,162.86 177.19,162.86 176.99,162.84 C176.79,162.80 176.79,162.80 176.59,162.75 C176.38,162.68 176.38,162.68 176.17,162.61 C175.95,162.53 175.95,162.53 175.74,162.43 C175.53,162.32 175.53,162.32 175.31,162.21 C174.45,161.71 174.45,161.71 173.58,161.21 "/><path d="M192.07,152.53 C192.07,152.77 192.07,152.77 192.06,153.01 C192.03,153.24 192.03,153.24 192.00,153.47 C191.96,153.69 191.96,153.69 191.91,153.90 C191.85,154.10 191.85,154.10 191.78,154.30 C191.70,154.48 191.70,154.48 191.61,154.66 C191.52,154.83 191.52,154.83 191.42,154.99 C191.30,155.13 191.30,155.13 191.19,155.27 C191.06,155.39 191.06,155.39 190.93,155.51 C190.79,155.61 190.79,155.61 190.64,155.71 "/><path d="M204.84,145.16 C204.83,145.40 204.83,145.40 204.82,145.64 C204.79,145.87 204.79,145.87 204.76,146.10 C204.72,146.32 204.72,146.32 204.67,146.53 C204.61,146.73 204.61,146.73 204.54,146.93 C204.46,147.11 204.46,147.11 204.38,147.29 C204.28,147.46 204.28,147.46 204.18,147.62 C204.07,147.76 204.07,147.76 203.95,147.90 C203.82,148.02 203.82,148.03 203.69,148.15 C203.54,148.24 203.54,148.24 203.40,148.34 "/><path d="M200.36,105.26 C200.57,105.42 200.57,105.42 200.78,105.57 C200.99,105.75 200.99,105.75 201.20,105.92 C201.41,106.11 201.41,106.11 201.61,106.31 C201.81,106.51 201.81,106.51 202.00,106.72 C202.19,106.95 202.19,106.95 202.38,107.17 C202.57,107.41 202.57,107.41 202.75,107.65 C202.92,107.89 202.92,107.89 203.08,108.14 "/><path d="M203.40,108.66 C203.55,108.92 203.55,108.92 203.69,109.19 C203.82,109.46 203.82,109.46 203.95,109.73 C204.07,110.01 204.07,110.01 204.18,110.28 "/><path d="M204.84,107.83 C204.74,109.88 204.74,109.88 204.67,111.93 C204.71,112.20 204.72,112.20 204.76,112.47 C204.79,112.73 204.79,112.73 204.82,112.99 C204.83,113.27 204.83,113.27 204.84,113.54 "/><path d="M204.67,111.93 C204.61,111.66 204.61,111.66 204.54,111.39 C204.46,111.11 204.46,111.11 204.38,110.84 C204.28,110.56 204.28,110.56 204.18,110.28 "/><path d="M188.15,120.87 L192.07,120.87 "/><path d="M187.17,112.36 L185.20,115.77 "/><path d="M118.44,110.02 L118.44,110.03 "/><path d="M118.44,110.53 L118.44,109.52 L118.44,110.02 "/><path d="M118.44,109.52 L118.45,80.38 L118.44,81.39 "/><path d="M121.38,78.92 L123.35,75.52 L133.16,69.85 "/><path d="M121.38,78.92 L133.16,85.72 "/><path d="M155.25,129.09 L163.44,124.36 "/><path d="M168.51,106.13 L185.20,115.77 "/><path d="M170.01,102.46 L187.17,112.36 L199.93,105.00 L200.36,105.26 L202.68,106.60 L185.20,96.49 "/><path d="M175.43,161.28 L178.79,162.55 L190.64,155.71 L187.28,154.44 "/><path d="M188.15,152.53 L192.07,152.53 L192.07,120.87 L204.84,113.50 L204.84,112.54 L204.84,139.59 "/><path d="M204.84,139.52 L204.84,139.49 L204.84,145.16 L192.07,152.53 "/><path d="M190.64,155.71 L191.55,155.18 L191.54,155.19 "/><path d="M191.55,155.18 L191.65,155.13 L190.64,155.71 "/><path d="M203.40,148.34 L191.65,155.13 "/><path d="M198.54,104.19 L198.67,104.27 "/><path d="M199.07,104.50 L199.05,104.49 "/><path d="M203.08,108.14 L204.84,107.83 L201.20,105.92 "/><path d="M201.61,106.31 L204.69,107.77 L202.00,106.72 "/><path d="M200.78,105.57 L204.69,107.75 L202.68,106.60 "/><path d="M202.38,107.17 L204.84,107.83 L204.84,112.54 "/><path d="M203.08,108.14 L203.40,108.66 L204.84,107.83 L204.69,107.77 "/><path d="M204.18,110.28 L204.84,107.83 "/><path d="M202.75,107.65 L204.84,107.83 L203.69,109.19 "/><path d="M204.38,110.84 L204.84,107.83 L204.54,111.39 "/><path d="M203.95,109.73 L204.84,107.83 "/><path d="M204.84,138.66 L204.84,139.67 "/><path d="M204.84,139.49 L204.84,139.51 "/><path d="M204.84,110.53 L204.82,112.99 "/><path d="M204.76,112.47 L204.84,108.52 "/></g></g><g id="Actor_.2"><g style="stroke:#000000;stroke-width:0.353"><path d="M137.34,140.28 L137.34,210.00 "/><path d="M136.83,210.00 L136.83,139.99 "/><path d="M164.34,210.00 L164.34,155.87 "/><path d="M166.79,210.00 L166.79,157.29 "/><path d="M169.74,210.00 L169.74,158.99 "/><path d="M170.25,210.00 L170.25,159.28 "/><path d="M175.38,162.25 L175.38,210.00 "/><path d="M177.84,210.00 L177.84,162.85 "/><path d="M181.52,160.97 L181.52,210.00 "/><path d="M181.01,210.00 L181.01,161.27 "/><path d="M208.52,210.00 L208.52,-0.00 "/><path d="M210.98,-0.00 L210.98,210.00 "/><path d="M237.98,-0.00 L237.98,210.00 "/><path d="M238.48,-0.00 L238.48,210.00 "/><path d="M241.66,210.00 L241.66,-0.00 "/><path d="M244.11,-0.00 L244.11,210.00 "/><path d="M249.76,-0.00 L249.76,210.00 "/><path d="M249.25,210.00 L249.25,-0.00 "/><path d="M252.70,210.00 L252.70,-0.00 "/><path d="M255.16,210.00 L255.16,-0.00 "/><path d="M282.16,210.00 L282.16,-0.00 "/><path d="M282.67,210.00 L282.67,-0.00 "/></g></g><g id="Actor_.3"><g style="stroke:#000000;stroke-width:0.353"><path d="M149.36,82.04 C148.86,81.75 148.87,81.73 148.38,81.42 C147.89,81.06 147.89,81.06 147.40,80.70 C146.92,80.30 146.92,80.30 146.44,79.90 C145.97,79.46 145.97,79.46 145.50,79.01 C145.05,78.54 145.04,78.55 144.59,78.07 C144.15,77.55 144.15,77.55 143.72,77.03 C143.30,76.49 143.30,76.49 142.89,75.94 C142.49,75.37 142.49,75.37 142.11,74.79 C141.74,74.20 141.74,74.20 141.38,73.61 C141.04,73.00 141.04,73.00 140.71,72.39 C140.41,71.77 140.41,71.77 140.12,71.15 C139.85,70.51 139.85,70.51 139.59,69.87 C139.36,69.24 139.35,69.24 139.13,68.60 C138.94,67.97 138.94,67.97 138.75,67.34 C138.60,66.71 138.60,66.71 138.46,66.08 C138.35,65.47 138.35,65.47 138.24,64.85 C138.18,64.25 138.18,64.25 138.12,63.64 C138.09,63.06 138.09,63.06 138.07,62.49 C138.09,61.93 138.09,61.93 138.12,61.37 C138.18,60.85 138.18,60.85 138.24,60.32 C138.35,59.82 138.35,59.82 138.46,59.32 C138.60,58.87 138.60,58.87 138.75,58.41 C138.94,57.99 138.94,57.99 139.13,57.58 C139.35,57.21 139.35,57.20 139.59,56.84 C139.85,56.51 139.85,56.51 140.12,56.19 C140.41,55.90 140.41,55.90 140.71,55.62 C141.04,55.39 141.04,55.39 141.38,55.17 C141.74,54.99 141.74,54.99 142.11,54.83 C142.50,54.70 142.50,54.69 142.89,54.57 C143.30,54.50 143.30,54.50 143.72,54.45 C144.15,54.43 144.16,54.44 144.59,54.44 C145.05,54.47 145.05,54.47 145.50,54.52 C145.97,54.62 145.97,54.62 146.44,54.72 C146.92,54.87 146.92,54.87 147.40,55.03 C147.89,55.23 147.89,55.23 148.38,55.44 C148.87,55.69 148.88,55.69 149.36,55.95 C149.86,56.26 149.86,56.26 150.35,56.58 C150.84,56.93 150.84,56.93 151.33,57.30 C151.81,57.69 151.81,57.69 152.29,58.10 C152.76,58.54 152.76,58.54 153.23,58.98 C153.68,59.46 153.68,59.46 154.14,59.95 C154.58,60.45 154.58,60.45 155.01,60.96 C155.43,61.51 155.43,61.51 155.84,62.05 C156.23,62.63 156.23,62.63 156.62,63.21 C156.99,63.80 156.99,63.80 157.35,64.39 C157.68,65.00 157.68,65.00 158.01,65.61 C158.32,66.24 158.32,66.24 158.61,66.87 C158.88,67.50 158.88,67.50 159.14,68.13 C159.37,68.76 159.37,68.76 159.60,69.40 C159.79,70.03 159.79,70.03 159.97,70.66 C160.13,71.29 160.13,71.29 160.27,71.92 C160.38,72.54 160.38,72.54 160.48,73.16 C160.55,73.76 160.55,73.76 160.61,74.36 C160.64,74.94 160.64,74.94 160.66,75.53 C160.64,76.08 160.64,76.08 160.61,76.62 C160.55,77.16 160.55,77.16 160.48,77.69 C160.38,78.18 160.38,78.18 160.27,78.67 C160.13,79.13 160.13,79.13 159.97,79.59 C159.79,80.00 159.79,80.00 159.60,80.42 C159.38,80.79 159.37,80.79 159.14,81.16 C158.88,81.50 158.88,81.50 158.61,81.83 C158.32,82.11 158.32,82.11 158.01,82.38 C157.69,82.61 157.68,82.61 157.35,82.83 C156.99,83.00 156.99,83.00 156.62,83.17 C156.23,83.30 156.23,83.30 155.84,83.42 C155.43,83.49 155.43,83.49 155.01,83.55 C154.57,83.57 154.57,83.57 154.14,83.58 C153.68,83.53 153.68,83.53 153.23,83.47 C152.76,83.38 152.76,83.38 152.29,83.27 C151.80,83.12 151.80,83.12 151.33,82.97 C150.84,82.76 150.83,82.76 150.35,82.55 C149.85,82.30 149.84,82.32 149.36,82.04 "/><path d="M160.63,74.95 C160.63,75.17 160.63,75.17 160.62,75.40 C160.56,75.88 160.56,75.88 160.50,76.36 C160.41,76.81 160.41,76.81 160.30,77.25 C160.17,77.68 160.17,77.68 160.03,78.11 C159.87,78.48 159.87,78.49 159.69,78.86 C159.49,79.20 159.49,79.20 159.27,79.53 C159.04,79.83 159.04,79.83 158.79,80.13 C158.52,80.39 158.52,80.39 158.24,80.65 C157.94,80.86 157.94,80.86 157.64,81.06 C157.31,81.23 157.31,81.23 156.97,81.38 C156.62,81.50 156.62,81.50 156.26,81.60 C155.88,81.66 155.88,81.66 155.50,81.71 C155.10,81.73 155.10,81.74 154.70,81.75 C154.29,81.70 154.29,81.70 153.87,81.65 C153.44,81.56 153.44,81.57 153.01,81.48 C152.57,81.34 152.57,81.34 152.14,81.20 C151.69,81.01 151.69,81.01 151.24,80.82 C150.79,80.58 150.79,80.58 150.35,80.33 C149.90,80.06 149.89,80.06 149.45,79.78 C149.00,79.46 149.00,79.46 148.56,79.13 C148.11,78.77 148.11,78.76 147.68,78.39 C147.25,77.99 147.25,77.99 146.82,77.58 C146.40,77.15 146.40,77.15 145.99,76.72 C145.59,76.24 145.59,76.24 145.19,75.76 C144.81,75.27 144.81,75.27 144.43,74.77 C144.07,74.25 144.07,74.25 143.72,73.73 C143.39,73.19 143.39,73.19 143.06,72.64 C142.75,72.09 142.75,72.09 142.45,71.53 C142.17,70.96 142.17,70.96 141.90,70.38 C141.66,69.80 141.66,69.80 141.42,69.22 C141.21,68.65 141.21,68.65 141.00,68.07 C140.83,67.50 140.83,67.50 140.66,66.92 C140.52,66.34 140.52,66.34 140.39,65.76 C140.29,65.20 140.29,65.20 140.19,64.63 C140.13,64.09 140.13,64.09 140.08,63.54 C140.05,63.01 140.05,63.01 140.04,62.49 C140.05,61.98 140.05,61.98 140.08,61.47 C140.13,60.99 140.13,60.98 140.19,60.51 C140.29,60.06 140.29,60.06 140.39,59.61 C140.52,59.19 140.52,59.19 140.66,58.78 C140.83,58.39 140.83,58.39 141.00,58.00 C141.21,57.66 141.21,57.66 141.42,57.33 C141.66,57.03 141.66,57.03 141.90,56.73 C142.17,56.47 142.17,56.47 142.45,56.21 C142.75,56.00 142.75,56.00 143.06,55.80 C143.39,55.64 143.39,55.64 143.72,55.48 C144.07,55.37 144.08,55.37 144.43,55.27 C144.81,55.20 144.81,55.20 145.19,55.15 C145.59,55.14 145.59,55.14 145.99,55.14 C146.40,55.17 146.41,55.17 146.82,55.22 C147.25,55.30 147.25,55.30 147.68,55.39 C148.12,55.53 148.12,55.53 148.56,55.69 C149.00,55.86 149.00,55.86 149.45,56.05 C149.65,56.15 149.66,56.16 149.86,56.27 "/><path d="M177.81,100.76 C177.61,100.68 177.61,100.68 177.41,100.60 C177.21,100.53 177.21,100.53 177.00,100.46 C176.78,100.40 176.78,100.40 176.56,100.34 C176.34,100.29 176.34,100.29 176.11,100.24 C175.88,100.21 175.88,100.21 175.65,100.17 C175.41,100.14 175.41,100.14 175.17,100.12 C174.93,100.11 174.93,100.10 174.69,100.09 C174.21,100.10 174.21,100.10 173.73,100.11 C173.50,100.13 173.50,100.13 173.26,100.16 C173.02,100.19 173.02,100.19 172.79,100.23 C172.56,100.27 172.56,100.27 172.34,100.32 C172.12,100.37 172.12,100.37 171.90,100.43 "/><path d="M133.16,-0.00 L133.16,87.99 L165.56,106.70 L165.56,-0.00 "/><path d="M149.36,82.04 L150.35,80.33 L152.44,79.12 "/><path d="M157.64,81.06 L157.72,81.01 "/><path d="M165.56,106.70 L167.53,106.70 L167.53,-0.00 "/><path d="M167.53,106.70 L170.01,105.26 L170.01,-0.00 "/><path d="M189.13,93.44 L189.13,92.44 L189.13,94.23 L177.81,100.76 "/><path d="M171.90,100.43 L170.01,99.34 "/><path d="M171.90,-0.00 L171.90,100.43 "/><path d="M177.81,100.76 L177.81,-0.00 "/><path d="M189.13,92.44 L189.13,-0.00 "/></g></g><g id="Actor_.4"><g style="stroke:#000000;stroke-width:0.353"><path d="M65.69,149.81 C65.72,149.73 65.72,149.73 65.76,149.65 C66.04,149.19 66.04,149.18 66.32,148.73 C66.65,148.32 66.65,148.32 66.98,147.92 C67.35,147.57 67.35,147.57 67.72,147.23 C68.13,146.94 68.13,146.94 68.55,146.66 C68.99,146.44 69.00,146.44 69.45,146.23 C69.93,146.07 69.93,146.08 70.42,145.93 C70.83,145.86 70.83,145.87 71.24,145.80 C71.34,145.79 71.34,145.78 71.45,145.77 C71.99,145.75 71.99,145.75 72.53,145.74 C73.09,145.79 73.09,145.79 73.66,145.86 C74.24,145.97 74.24,145.97 74.82,146.10 C75.42,146.29 75.42,146.29 76.01,146.49 C76.62,146.74 76.62,146.74 77.22,147.00 C77.83,147.32 77.83,147.32 78.44,147.64 C79.05,148.02 79.05,148.02 79.66,148.41 C80.27,148.85 80.27,148.85 80.87,149.29 C81.47,149.78 81.47,149.79 82.06,150.29 C82.65,150.83 82.65,150.83 83.23,151.38 C83.79,151.97 83.79,151.97 84.35,152.57 C84.90,153.21 84.90,153.21 85.44,153.85 C85.96,154.52 85.96,154.52 86.47,155.20 C86.95,155.90 86.95,155.90 87.43,156.62 C87.89,157.35 87.89,157.35 88.33,158.09 C88.52,158.42 88.52,158.42 88.70,158.76 C88.93,159.18 88.93,159.18 89.16,159.60 C89.53,160.37 89.53,160.37 89.90,161.15 C90.23,161.93 90.23,161.93 90.56,162.72 C90.84,163.50 90.84,163.50 91.12,164.29 C91.36,165.08 91.36,165.08 91.59,165.86 C91.78,166.64 91.78,166.64 91.96,167.42 C92.09,168.18 92.09,168.18 92.22,168.95 C92.30,169.69 92.30,169.69 92.38,170.44 C92.41,171.13 92.41,171.13 92.43,171.82 C92.41,172.54 92.41,172.54 92.38,173.25 C92.31,173.91 92.31,173.91 92.22,174.56 C92.09,175.17 92.09,175.17 91.96,175.78 C91.79,176.31 91.78,176.31 91.61,176.84 C91.60,176.88 91.60,176.88 91.59,176.92 C91.36,177.43 91.36,177.44 91.12,177.95 C90.85,178.41 90.85,178.41 90.56,178.87 C90.24,179.28 90.23,179.28 89.90,179.68 C89.61,179.97 89.60,179.96 89.30,180.24 C89.23,180.31 89.23,180.31 89.16,180.37 C88.75,180.66 88.75,180.66 88.33,180.94 C87.89,181.16 87.89,181.16 87.43,181.37 C86.95,181.52 86.95,181.52 86.47,181.67 C85.95,181.75 85.95,181.75 85.44,181.83 C84.90,181.85 84.90,181.85 84.35,181.86 C84.10,181.84 84.10,181.84 83.85,181.83 C82.92,181.73 82.92,181.73 81.99,181.62 C81.54,181.55 81.54,181.54 81.10,181.46 C80.64,181.36 80.64,181.36 80.19,181.26 C79.77,181.16 79.77,181.16 79.35,181.06 C78.53,180.80 78.52,180.80 77.70,180.53 C77.15,180.31 77.15,180.31 76.60,180.09 C75.86,179.74 75.86,179.74 75.13,179.39 C74.61,179.11 74.61,179.11 74.10,178.82 C73.46,178.42 73.46,178.41 72.83,178.00 C72.36,177.67 72.36,177.67 71.89,177.34 C71.44,176.98 71.44,176.98 71.00,176.61 C70.49,176.15 70.49,176.15 69.98,175.68 C69.58,175.29 69.58,175.29 69.19,174.89 C68.69,174.32 68.69,174.32 68.20,173.74 C67.81,173.24 67.82,173.24 67.44,172.74 C67.02,172.13 67.02,172.13 66.60,171.52 C66.23,170.88 66.23,170.88 65.86,170.25 C65.45,169.41 65.46,169.41 65.06,168.58 C64.79,167.90 64.79,167.90 64.53,167.23 C64.25,166.36 64.25,166.36 63.99,165.48 C63.78,164.59 63.79,164.59 63.60,163.71 C63.51,163.16 63.51,163.16 63.43,162.62 C63.35,161.54 63.35,161.54 63.27,160.47 "/><path d="M64.20,163.78 C64.20,163.65 64.20,163.65 64.19,163.52 C64.20,163.16 64.20,163.16 64.22,162.80 C64.26,162.45 64.26,162.45 64.30,162.11 C64.37,161.79 64.37,161.79 64.44,161.47 C64.54,161.17 64.54,161.17 64.64,160.87 C64.76,160.60 64.76,160.60 64.88,160.33 C65.03,160.08 65.03,160.08 65.18,159.84 C65.35,159.63 65.35,159.63 65.52,159.41 C65.72,159.23 65.72,159.23 65.91,159.05 C66.13,158.90 66.13,158.90 66.35,158.76 C66.58,158.64 66.58,158.64 66.82,158.53 C67.08,158.45 67.08,158.45 67.33,158.37 C67.60,158.32 67.60,158.32 67.87,158.28 C68.16,158.27 68.16,158.27 68.44,158.27 C68.74,158.30 68.74,158.30 69.04,158.33 C69.34,158.39 69.34,158.39 69.65,158.46 C69.96,158.56 69.96,158.56 70.28,158.66 C70.60,158.79 70.60,158.80 70.91,158.93 C71.24,159.10 71.24,159.10 71.56,159.27 C71.88,159.47 71.88,159.47 72.20,159.67 C72.52,159.90 72.52,159.90 72.83,160.14 C73.15,160.40 73.15,160.40 73.46,160.66 C73.77,160.95 73.77,160.95 74.07,161.24 C74.16,161.33 74.16,161.33 74.25,161.42 C74.46,161.64 74.46,161.64 74.67,161.86 C74.95,162.20 74.95,162.20 75.24,162.54 C75.51,162.89 75.51,162.89 75.78,163.25 C76.04,163.62 76.04,163.62 76.29,163.99 C76.53,164.38 76.53,164.38 76.76,164.77 C76.98,165.17 76.98,165.17 77.20,165.57 C77.39,165.97 77.39,165.97 77.59,166.38 C77.76,166.79 77.76,166.79 77.93,167.20 C78.08,167.62 78.08,167.62 78.23,168.03 C78.36,168.45 78.36,168.45 78.48,168.86 C78.57,169.27 78.57,169.27 78.67,169.68 C78.74,170.08 78.74,170.08 78.81,170.49 C78.85,170.88 78.85,170.88 78.89,171.27 C78.91,171.65 78.91,171.65 78.92,172.03 C78.91,172.39 78.91,172.39 78.89,172.75 C78.85,173.09 78.85,173.10 78.81,173.44 C78.74,173.76 78.74,173.76 78.67,174.08 C78.58,174.38 78.58,174.38 78.48,174.68 C78.36,174.95 78.36,174.95 78.23,175.22 C78.08,175.47 78.08,175.47 77.93,175.71 C77.76,175.92 77.76,175.92 77.59,176.13 C77.40,176.32 77.39,176.32 77.20,176.50 C76.98,176.65 76.98,176.65 76.76,176.79 C76.51,176.92 76.51,176.92 76.26,177.03 C76.02,177.11 76.02,177.11 75.78,177.18 C75.51,177.22 75.51,177.23 75.24,177.26 C74.95,177.27 74.95,177.27 74.67,177.28 C74.37,177.25 74.37,177.25 74.07,177.22 C73.77,177.16 73.77,177.16 73.46,177.09 C73.15,176.99 73.15,176.99 72.83,176.89 C72.52,176.75 72.51,176.75 72.20,176.62 C71.88,176.45 71.88,176.45 71.56,176.28 C71.23,176.08 71.23,176.08 70.91,175.87 C70.59,175.65 70.59,175.64 70.28,175.41 C69.96,175.15 69.96,175.15 69.65,174.89 C69.34,174.60 69.34,174.60 69.04,174.31 C68.74,174.00 68.74,174.00 68.44,173.68 C68.16,173.35 68.16,173.35 67.87,173.01 C67.80,172.92 67.80,172.92 67.73,172.82 C67.53,172.56 67.53,172.56 67.33,172.30 C67.08,171.93 67.08,171.93 66.82,171.56 C66.58,171.17 66.58,171.17 66.35,170.78 C66.13,170.38 66.13,170.38 65.91,169.98 C65.72,169.58 65.72,169.58 65.53,169.17 C65.35,168.76 65.35,168.76 65.18,168.34 C65.03,167.93 65.03,167.93 64.88,167.52 C64.76,167.10 64.76,167.10 64.64,166.69 C64.54,166.28 64.54,166.28 64.44,165.87 C64.37,165.47 64.37,165.47 64.30,165.06 C64.26,164.67 64.26,164.67 64.22,164.28 C64.21,164.03 64.21,164.03 64.20,163.78 "/><path d="M65.73,149.71 C65.39,150.42 65.39,150.42 65.06,151.13 C64.89,151.54 64.90,151.54 64.74,151.94 C64.54,152.48 64.54,152.48 64.36,153.02 C64.14,153.76 64.13,153.76 63.92,154.50 C63.76,155.25 63.76,155.25 63.60,156.00 C63.51,156.55 63.51,156.55 63.43,157.09 C63.34,158.19 63.34,158.20 63.27,159.30 C63.26,159.85 63.26,159.91 63.27,160.41 "/><path d="M65.89,164.50 C65.90,164.79 65.90,164.79 65.91,165.08 C65.94,165.39 65.94,165.39 65.97,165.69 C66.02,166.00 66.02,166.00 66.08,166.31 C66.15,166.62 66.15,166.62 66.23,166.94 C66.32,167.26 66.32,167.26 66.42,167.57 C66.53,167.89 66.53,167.89 66.65,168.21 C66.78,168.53 66.78,168.53 66.91,168.85 C67.06,169.16 67.06,169.16 67.21,169.47 C67.38,169.78 67.38,169.78 67.55,170.09 C67.73,170.39 67.73,170.39 67.91,170.69 C68.11,170.97 68.11,170.97 68.30,171.26 C68.51,171.53 68.51,171.53 68.72,171.81 "/><path d="M68.72,171.81 C69.23,171.91 69.23,171.91 69.73,172.03 C70.17,172.15 70.17,172.15 70.60,172.27 C70.98,172.40 70.98,172.40 71.35,172.54 C71.52,172.61 71.52,172.61 71.69,172.69 C71.85,172.76 71.85,172.76 72.01,172.84 C72.17,172.92 72.17,172.92 72.32,173.00 C72.46,173.09 72.46,173.09 72.60,173.18 C72.73,173.27 72.73,173.27 72.87,173.36 C72.99,173.46 72.99,173.46 73.12,173.56 C73.24,173.67 73.24,173.67 73.36,173.77 C73.47,173.88 73.47,173.88 73.59,174.00 C73.70,174.12 73.70,174.12 73.80,174.24 C73.91,174.37 73.91,174.37 74.01,174.50 C74.20,174.79 74.20,174.79 74.39,175.08 "/><path d="M74.39,175.08 C74.17,175.09 74.17,175.09 73.95,175.09 C73.72,175.07 73.72,175.07 73.49,175.04 C73.26,175.00 73.26,175.00 73.02,174.94 C72.78,174.87 72.78,174.87 72.54,174.79 C72.29,174.69 72.29,174.69 72.05,174.58 C71.80,174.45 71.80,174.45 71.56,174.32 C71.31,174.17 71.31,174.17 71.06,174.01 C70.82,173.83 70.82,173.83 70.57,173.65 C70.33,173.45 70.33,173.45 70.09,173.25 C69.85,173.03 69.85,173.03 69.62,172.81 C69.39,172.57 69.39,172.57 69.16,172.32 C68.94,172.07 68.94,172.07 68.72,171.81 "/><path d="M68.72,171.81 C68.71,171.27 68.71,171.27 68.69,170.73 C68.67,170.48 68.67,170.48 68.65,170.24 C68.62,170.00 68.62,170.00 68.59,169.77 C68.55,169.55 68.55,169.55 68.52,169.33 C68.47,169.11 68.47,169.11 68.43,168.90 C68.38,168.70 68.38,168.70 68.32,168.49 C68.26,168.29 68.26,168.29 68.20,168.10 C68.13,167.91 68.13,167.91 68.06,167.72 C67.99,167.53 67.99,167.53 67.91,167.34 C67.82,167.16 67.82,167.16 67.74,166.98 C67.64,166.80 67.64,166.80 67.54,166.62 C67.44,166.45 67.44,166.45 67.33,166.27 C67.21,166.09 67.21,166.09 67.09,165.92 C66.97,165.74 66.96,165.74 66.83,165.57 C66.69,165.39 66.69,165.39 66.55,165.22 C66.22,164.86 66.22,164.86 65.89,164.50 "/><path d="M65.89,164.50 C65.90,164.22 65.90,164.22 65.91,163.94 C65.94,163.68 65.94,163.68 65.97,163.41 C66.02,163.17 66.02,163.17 66.08,162.92 C66.15,162.69 66.15,162.69 66.23,162.46 C66.32,162.25 66.32,162.25 66.42,162.04 C66.53,161.85 66.53,161.85 66.65,161.67 C66.78,161.50 66.78,161.50 66.91,161.34 C67.06,161.20 67.06,161.20 67.21,161.06 C67.38,160.94 67.38,160.94 67.55,160.83 C67.73,160.74 67.73,160.74 67.91,160.66 C68.11,160.59 68.11,160.59 68.30,160.54 C68.51,160.50 68.51,160.50 68.72,160.47 C68.94,160.46 68.94,160.46 69.16,160.46 C69.39,160.48 69.39,160.48 69.62,160.50 C69.85,160.55 69.85,160.55 70.09,160.60 C70.33,160.68 70.33,160.68 70.57,160.76 C70.82,160.86 70.82,160.86 71.06,160.97 C71.31,161.10 71.31,161.10 71.56,161.23 C71.80,161.38 71.80,161.38 72.05,161.54 C72.30,161.72 72.30,161.72 72.54,161.90 C72.78,162.10 72.78,162.10 73.02,162.30 C73.26,162.52 73.26,162.52 73.49,162.74 C73.72,162.98 73.72,162.98 73.95,163.23 C74.17,163.48 74.17,163.48 74.39,163.74 C74.60,164.01 74.60,164.02 74.81,164.29 C75.00,164.58 75.00,164.58 75.20,164.86 C75.38,165.16 75.38,165.16 75.56,165.46 C75.73,165.77 75.73,165.77 75.90,166.07 C76.05,166.39 76.05,166.39 76.20,166.70 C76.33,167.02 76.33,167.02 76.47,167.34 C76.58,167.66 76.58,167.66 76.69,167.97 C76.79,168.29 76.79,168.29 76.88,168.61 C76.96,168.93 76.96,168.93 77.03,169.24 C77.09,169.55 77.09,169.55 77.14,169.86 C77.17,170.16 77.17,170.16 77.20,170.46 C77.22,170.76 77.22,170.76 77.22,171.05 C77.22,171.33 77.22,171.33 77.20,171.61 C77.17,171.87 77.17,171.87 77.14,172.13 C77.09,172.38 77.09,172.38 77.03,172.63 C76.96,172.86 76.96,172.86 76.88,173.09 C76.79,173.30 76.79,173.30 76.69,173.51 C76.58,173.70 76.58,173.70 76.47,173.88 C76.33,174.05 76.33,174.05 76.20,174.21 C76.05,174.35 76.05,174.35 75.90,174.49 C75.73,174.61 75.73,174.61 75.56,174.72 C75.38,174.81 75.38,174.81 75.20,174.89 C75.00,174.96 75.00,174.96 74.81,175.01 C74.60,175.05 74.60,175.05 74.39,175.08 "/><path d="M74.39,175.08 C74.72,174.74 74.72,174.74 75.05,174.40 C75.33,174.11 75.33,174.11 75.60,173.82 C75.92,173.44 75.92,173.44 76.24,173.06 C76.40,172.85 76.40,172.84 76.57,172.62 C76.70,172.43 76.70,172.43 76.83,172.23 C76.88,172.14 76.88,172.14 76.93,172.04 C77.01,171.87 77.01,171.87 77.09,171.69 C77.14,171.53 77.14,171.53 77.19,171.36 C77.21,171.20 77.21,171.20 77.22,171.04 "/><path d="M65.89,164.50 C66.22,164.17 66.22,164.17 66.55,163.83 C66.82,163.53 66.82,163.53 67.09,163.24 C67.32,162.98 67.32,162.98 67.54,162.72 C67.80,162.39 67.80,162.39 68.06,162.05 C68.13,161.95 68.13,161.95 68.20,161.84 C68.32,161.65 68.32,161.66 68.43,161.46 C68.51,161.29 68.51,161.29 68.59,161.11 C68.64,160.95 68.64,160.95 68.69,160.78 C68.71,160.63 68.71,160.63 68.72,160.47 "/><path d="M68.72,160.47 C69.23,160.58 69.23,160.58 69.73,160.69 C70.17,160.81 70.17,160.81 70.60,160.93 C70.98,161.06 70.98,161.07 71.35,161.20 C71.64,161.33 71.64,161.33 71.92,161.46 "/><path d="M68.55,146.66 C69.15,146.31 69.15,146.31 69.76,145.96 C70.21,145.74 70.21,145.74 70.66,145.53 C71.14,145.37 71.14,145.37 71.63,145.23 C72.14,145.14 72.14,145.14 72.66,145.07 C73.20,145.05 73.20,145.05 73.74,145.04 C74.31,145.09 74.31,145.09 74.87,145.15 C75.45,145.27 75.45,145.27 76.03,145.40 C76.63,145.59 76.63,145.59 77.23,145.79 C77.83,146.04 77.83,146.04 78.44,146.30 C79.05,146.62 79.05,146.62 79.66,146.94 "/><path d="M79.66,146.94 C80.27,147.32 80.27,147.32 80.87,147.71 C81.48,148.15 81.48,148.15 82.09,148.59 C82.69,149.09 82.69,149.09 83.28,149.59 C83.86,150.13 83.86,150.13 84.44,150.68 C85.01,151.27 85.01,151.27 85.57,151.87 C86.11,152.50 86.11,152.51 86.65,153.15 C87.17,153.82 87.17,153.82 87.68,154.50 C88.17,155.20 88.17,155.20 88.65,155.91 C89.10,156.65 89.10,156.65 89.55,157.39 C89.97,158.14 89.97,158.14 90.37,158.90 C90.75,159.67 90.75,159.67 91.12,160.45 C91.45,161.23 91.45,161.23 91.77,162.02 C92.06,162.80 92.06,162.80 92.34,163.59 C92.57,164.38 92.57,164.38 92.80,165.16 C92.99,165.94 92.99,165.94 93.17,166.72 C93.31,167.48 93.31,167.48 93.43,168.25 C93.52,168.99 93.52,168.99 93.59,169.74 C93.63,170.46 93.63,170.46 93.65,171.18 C93.63,171.86 93.63,171.87 93.59,172.55 C93.52,173.19 93.52,173.19 93.44,173.83 C93.31,174.46 93.31,174.46 93.17,175.08 C92.99,175.65 92.99,175.65 92.80,176.21 C92.58,176.73 92.58,176.73 92.34,177.25 C92.06,177.71 92.06,177.71 91.77,178.17 C91.45,178.58 91.45,178.58 91.12,178.98 C90.75,179.33 90.75,179.33 90.37,179.67 C89.97,179.96 89.96,179.96 89.55,180.23 C88.94,180.59 88.94,180.59 88.33,180.94 "/><path d="M82.85,149.23 C97.36,140.85 97.36,140.85 111.88,132.47 C112.12,132.35 112.12,132.35 112.36,132.24 C112.61,132.16 112.61,132.16 112.87,132.08 C113.13,132.04 113.14,132.04 113.41,132.00 C113.69,131.99 113.69,131.99 113.98,131.98 C114.27,132.01 114.27,132.01 114.57,132.04 C114.88,132.10 114.88,132.10 115.18,132.17 C115.50,132.27 115.50,132.27 115.81,132.37 C116.13,132.51 116.13,132.51 116.45,132.65 C116.77,132.81 116.77,132.81 117.09,132.98 C118.01,133.51 118.01,133.51 118.93,134.05 C119.17,134.20 119.17,134.20 119.41,134.35 C119.65,134.52 119.65,134.52 119.89,134.70 C120.13,134.89 120.13,134.89 120.36,135.09 C120.59,135.30 120.59,135.30 120.82,135.52 C121.04,135.75 121.04,135.76 121.26,135.99 C121.48,136.24 121.48,136.24 121.69,136.50 C121.90,136.76 121.90,136.76 122.10,137.03 C122.29,137.31 122.29,137.31 122.48,137.59 C122.66,137.88 122.66,137.88 122.84,138.17 C123.00,138.47 123.00,138.47 123.16,138.77 C123.31,139.07 123.31,139.07 123.45,139.38 C123.58,139.69 123.58,139.69 123.71,140.00 C123.83,140.31 123.83,140.31 123.94,140.62 C124.03,140.93 124.03,140.93 124.12,141.24 C124.19,141.55 124.19,141.55 124.26,141.85 C124.32,142.15 124.32,142.15 124.37,142.46 C124.40,142.75 124.40,142.75 124.43,143.05 C124.44,143.33 124.44,143.33 124.45,143.61 C124.45,144.68 124.45,144.68 124.45,145.74 C124.44,146.10 124.44,146.10 124.42,146.46 C124.39,146.81 124.39,146.81 124.34,147.15 C124.27,147.47 124.27,147.47 124.20,147.79 C124.11,148.09 124.11,148.09 124.01,148.39 C123.89,148.66 123.89,148.66 123.76,148.93 C123.62,149.18 123.62,149.18 123.47,149.42 C123.30,149.64 123.30,149.64 123.12,149.85 C122.93,150.03 122.93,150.03 122.73,150.21 C122.51,150.36 122.51,150.36 122.30,150.51 "/><path d="M117.09,132.98 C117.41,133.18 117.41,133.18 117.73,133.39 C118.05,133.62 118.05,133.62 118.37,133.85 C118.68,134.11 118.68,134.11 118.99,134.37 C119.30,134.66 119.30,134.66 119.61,134.95 C119.91,135.26 119.91,135.26 120.20,135.58 C120.49,135.91 120.49,135.91 120.77,136.25 C121.04,136.60 121.04,136.60 121.31,136.96 C121.57,137.33 121.57,137.33 121.82,137.71 C122.06,138.09 122.06,138.09 122.30,138.48 C122.51,138.88 122.51,138.88 122.73,139.28 C122.93,139.68 122.93,139.68 123.12,140.09 C123.30,140.50 123.30,140.50 123.47,140.92 C123.62,141.33 123.62,141.33 123.76,141.75 C123.89,142.16 123.89,142.16 124.01,142.57 C124.11,142.98 124.11,142.98 124.20,143.39 C124.27,143.79 124.27,143.79 124.34,144.20 C124.39,144.59 124.39,144.59 124.42,144.98 C124.44,145.34 124.44,145.34 124.45,145.69 "/><path d="M63.35,158.19 L63.34,158.36 "/><path d="M66.12,170.36 L66.22,170.57 L65.91,169.98 "/><path d="M71.50,161.26 L65.89,164.50 "/><path d="M66.28,170.67 L66.22,170.57 "/><path d="M68.72,171.81 L74.39,168.53 L71.59,161.30 "/><path d="M79.66,146.94 L78.44,147.64 "/><path d="M74.39,168.53 L77.17,170.14 "/><path d="M122.30,150.51 L93.26,167.27 "/></g></g><g id="paperID" visibility="hidden" opacity="0.00" transform="scale(0.000100)"><path style="stroke:#000000;stroke-width:0.500;fill:#e6e6e6;fill-rule:evenodd" d="M-2000.00,-2000.00L2297.00,-2000.00L2297.00,2210.00L-2000.00,2210.00zM0.00,0.00L297.00,0.00L297.00,210.00L0.00,210.00z"/><path style="fill:#000000;fill-opacity:0.118" d="M3.00,210.00L297.00,210.00L297.00,3.00L300.00,3.00L300.00,213.00L3.00,213.00z"/></g><g id="ToolTip" visibility="hidden" opacity="0" transform="translate(0,0)"><rect id="ToolTipShadow" opacity="0.20" fill="black" stroke="none" x="0" y="0" width="30" height="8"/><rect id="ToolTipBG" fill="#ffffe1" stroke="black" x="0" y="0" width="30" height="8"/><text xml:space="preserve" id="ToolTipText" fill="black" x="0" y="0" width="30" height="8">tooltip</text></g></g></svg>
