<?xml version="1.0" encoding="UTF-8" standalone="no"?>
<svg xmlns="http://www.w3.org/2000/svg" xmlns:xlink="http://www.w3.org/1999/xlink" width="297.000mm" height="210.000mm" viewBox="0.000000 0.000000 297.000000 210.000000" stroke-linejoin="round" stroke-linecap="round" fill="none" fill-rule="evenodd"><desc>Composer Export</desc><script type="text/ecmascript"><![CDATA[
if(typeof(top) != "undefined")
{
	top.ShowPaper = ShowPaper;
}
function ShowHotSpot(evt,hotspotid)
{
	var svgDocument = evt.target.ownerDocument;
	var strId = "hotspot."+hotspotid;
	var hotspot = svgDocument.getElementById(strId);
	if(hotspot)
		hotspot.setAttribute("opacity",".5");
}
function HideHotSpot(evt,hotspotid)
{
	var svgDocument = evt.target.ownerDocument;
	var strId = "hotspot."+hotspotid;
	var hotspot = svgDocument.getElementById(strId);
	if(hotspot)
		hotspot.setAttribute("opacity","0");

	var toolTip = svgDocument.getElementById('ToolTip');
	if(toolTip)
		toolTip.setAttribute("visibility","hidden");
}
function ShowToolTip(evt,hotspotid,strTooltip)
{
	if(strTooltip=="")
	return;

	// change text
	var svgDocument = evt.target.ownerDocument;
	var tiptext = svgDocument.getElementById('ToolTipText');
	if( !tiptext )
	return;
	tiptext.firstChild.nodeValue = " " + strTooltip + "  " ;

	// show tooltip before, else some refresh issue

	var toolTip = svgDocument.getElementById('ToolTip');
	if(!toolTip)
	return;

	toolTip.setAttribute("visibility","visible");
	toolTip.setAttribute("opacity",".95");

	// move tooltip
	// get viewbox

	var root = svgDocument.documentElement;
	var vbox = (root.getAttribute("viewBox")).split(' ');
	var x0 = parseFloat(vbox[0]);
	var y0 = parseFloat(vbox[1]);
	var vboxW = parseFloat(vbox[2]);
	var vboxH = parseFloat(vbox[3]);

	// get default width of svg

	var strW = root.getAttribute("width");
	var svgW = parseFloat(strW);
	if(strW.indexOf('mm') != -1)
	svgW *= 3.779;

	var strH = root.getAttribute("height");
	var svgH = parseFloat(strH);
	if(strH.indexOf('mm') != -1)
	svgH *= 3.779;  	// 96 dpi  -> 96/25.4 = 3.779

	// update the viewbox / width / height if svg is embedded in html with zoom fit all
	var realx0 = x0;
	var realy0 = y0;
	var realvboxW = vboxW;
	var realvboxH = vboxH;
	var realsvgW = svgW;
	var realsvgH = svgH;

	if ((typeof(top) == "undefined") || (typeof(top.svgctl1) != "undefined")) // embedded in html
	{
		// get window size in pxl

		svgW = window.innerWidth;
		svgH = window.innerHeight;

		// calculate real viewbox

		realsvgW = svgW;
		realsvgH = svgH;
		if((svgW / svgH) > (vboxW / vboxH))
		{
			realvboxW = (vboxH * svgW) / svgH;
			realvboxH = vboxH;
			realx0 = x0 - (realvboxW - vboxW)/2 ;
		}
		else
		{
			realvboxH = (vboxW * svgH) / svgW;
			realvboxW = vboxW;
			realy0 = y0 - (realvboxH - vboxH)/2 ;
		}
	}

	// get user zoom/pan

	var newScale = root.currentScale;
	var translation = root.currentTranslate;

	// transform pxl to user unit

	var xPos = (((evt.clientX+10- translation.x)/newScale) * realvboxW)/realsvgW  + realx0 ;
	var yPos = (((evt.clientY+5- translation.y)/newScale) * realvboxH)/ realsvgH  + realy0 ;
	var scaleForWidth = ( (1 / newScale) * realvboxH) / realsvgH;

	// move tooltip

	toolTip.setAttribute("transform", "translate(" + xPos + "," + yPos + ")" );

	// resize tooltip

	var fontsize = 12;
	tiptext.setAttribute("font-size",fontsize*scaleForWidth);
	tiptext.setAttribute("y", fontsize*scaleForWidth);
	var tipBG = svgDocument.getElementById('ToolTipBG');
	var outline = tiptext.getBBox();
	if(tipBG)
	{
		tipBG.setAttribute("stroke-width", 1*scaleForWidth);
		tipBG.setAttribute("width", Number(outline.width) );
		tipBG.setAttribute("height", Number(outline.height) + fontsize*.5*scaleForWidth );
	}
	var ToolTipShadow = svgDocument.getElementById('ToolTipShadow');
	if(ToolTipShadow)
	{
		ToolTipShadow.setAttribute("width", Number(outline.width) );
		ToolTipShadow.setAttribute("height", Number(outline.height) + fontsize*.5*scaleForWidth );
		ToolTipShadow.setAttribute("x", 3*scaleForWidth);
		ToolTipShadow.setAttribute("y", 3*scaleForWidth);
	}
}
function ShowPaper()
{
  var svgDocument = getDocument();
  var paper = svgDocument.getElementById("paperID");
  if(paper)
  {
    paper.setAttribute("transform","scale(1)");
    paper.setAttribute("opacity","1");
    paper.setAttribute("visibility","visible");
  }
  var svg = svgDocument.getRootElement();
  if(svg)
  {
    svg.setAttribute("width","307.000mm");
    svg.setAttribute("height","220.000mm");
    svg.setAttribute("viewBox","-5.000000 -5.000000 307.000000 220.000000");
  }
}
]]></script><defs/><g><path style="fill:#ffffff" d="M175.72,65.50L175.77,0.03L192.94,0.03L193.05,141.38L193.11,0.03L296.93,0.05L296.93,209.89L0.05,209.89L0.05,0.05L134.35,0.03L134.30,41.70L133.68,41.89L113.70,53.43L111.82,54.58L111.58,55.21L111.57,73.25L111.69,73.52L115.62,75.80L116.80,76.81L117.63,78.00L118.23,79.79L118.15,97.47L112.69,100.56L111.82,101.22L111.58,101.84L111.58,143.45L111.72,144.01L112.59,145.00L119.30,148.89L120.44,148.89L134.39,140.79L134.81,140.36L134.91,116.90L137.68,115.38L141.39,117.54L142.31,119.19L142.40,128.80L142.55,129.02L148.94,132.72L149.78,133.90L150.12,134.91L150.28,166.07L150.45,166.40L151.14,167.22L157.70,171.10L158.25,171.26L158.77,171.26L161.08,170.00L173.12,163.02L173.36,162.76L173.45,162.31L173.52,120.77L173.45,120.70L173.18,119.93L172.68,119.25L168.82,116.89L167.65,115.53L166.95,113.88L166.80,113.32L166.85,96.34L175.44,91.38L175.71,132.46L175.72,91.24L181.04,88.11L181.10,69.41L180.44,68.39L179.58,67.73z"/><path style="fill:#000020" d="M133.68,41.89L134.30,41.70L134.35,0.03L134.52,0.03L134.51,69.34L134.41,69.31L134.30,41.97z"/><path style="fill:#97fa98" d="M175.44,65.36L175.72,65.50L179.58,67.73L180.44,68.39L181.10,69.41L181.04,88.11L175.72,91.24L175.44,91.38L166.85,96.34L166.74,96.36L166.80,113.32L166.95,113.88L167.65,115.53L168.82,116.89L172.68,119.25L173.18,119.93L173.45,120.70L173.45,162.31L173.36,162.76L173.12,163.02L161.08,170.00L158.77,171.26L158.25,171.26L157.70,171.10L151.14,167.22L150.45,166.40L150.28,166.07L150.12,134.91L149.78,133.90L148.94,132.72L142.55,129.02L142.40,128.80L142.37,119.25L142.31,119.19L141.39,117.54L137.68,115.38L134.91,116.90L134.81,140.36L134.39,140.79L120.44,148.89L119.30,148.89L112.59,145.00L111.72,144.01L111.58,143.45L111.58,101.84L111.82,101.22L112.69,100.56L118.15,97.47L118.30,101.98L118.30,79.86L118.23,79.79L117.63,78.00L116.80,76.81L115.62,75.80L111.69,73.52L111.57,73.25L111.58,55.21L111.82,54.58L113.70,53.43L133.68,41.89L134.30,41.97L134.41,69.31L134.51,69.34L142.24,73.73L142.37,81.61L142.39,72.21L142.55,71.67L148.82,68.14L149.11,68.00L149.15,67.88L156.45,63.69L157.20,63.69L164.44,67.90L164.71,67.93L171.94,63.68L172.51,63.68z"/><path style="fill:#ffffff" d="M134.51,69.34L134.52,0.03L148.83,0.03L148.82,68.14L142.55,71.67L142.39,72.21L142.24,73.73z"/><path style="fill:#000020" d="M139.31,23.10L139.50,23.13L139.53,23.33L139.34,23.29z"/><path style="fill:#000020" d="M138.94,56.45L139.69,56.45L139.49,56.64L139.14,56.64z"/><path style="fill:#000020" d="M175.72,65.50L175.44,65.36L175.60,0.03L175.77,0.03z"/><path style="fill:#000020" d="M149.07,67.80L149.15,67.88L149.11,68.00L148.82,68.14L148.83,0.03L149.00,0.03z"/><path style="fill:#000020" d="M142.37,81.61L142.24,73.73L142.39,72.21z"/><path style="fill:#000020" d="M175.44,91.38L175.72,91.24L175.71,132.46z"/><path style="fill:#000020" d="M118.30,101.98L118.15,97.47L118.23,79.79L118.30,79.86z"/><path style="fill:#000020" d="M166.80,113.32L166.74,96.36L166.85,96.34z"/><path style="fill:#000020" d="M142.40,128.80L142.31,119.19L142.37,119.25z"/><path style="fill:#000020" d="M193.05,141.38L192.94,0.03L193.11,0.03z"/><path style="fill:#000020" d="M173.45,162.31L173.45,120.70L173.52,120.77z"/><path style="fill:#ffffff" d="M172.51,63.68L171.94,63.68L164.71,67.93L164.44,67.90L157.20,63.69L156.45,63.69L149.15,67.88L149.07,67.80L149.00,0.03L175.60,0.03L175.44,65.36z"/><g id="Actor_.0"><g style="stroke:#000000;stroke-width:0.353"><path d="M137.94,59.55 C137.94,59.73 137.95,59.73 137.95,59.91 C137.97,60.09 137.97,60.09 137.99,60.27 C138.02,60.46 138.02,60.46 138.06,60.65 C138.10,60.84 138.10,60.84 138.15,61.03 C138.20,61.22 138.20,61.22 138.26,61.41 C138.33,61.61 138.33,61.61 138.40,61.80 C138.48,61.99 138.48,61.99 138.56,62.18 C138.65,62.37 138.65,62.37 138.74,62.56 C138.84,62.75 138.84,62.75 138.94,62.93 C139.06,63.12 139.06,63.12 139.17,63.30 C139.29,63.47 139.29,63.47 139.40,63.64 C139.53,63.81 139.53,63.81 139.66,63.97 C139.79,64.13 139.79,64.13 139.92,64.29 C140.06,64.43 140.06,64.43 140.20,64.58 C140.34,64.71 140.34,64.71 140.48,64.85 C140.63,64.97 140.63,64.97 140.78,65.09 C140.93,65.20 140.93,65.20 141.08,65.31 C141.22,65.40 141.22,65.40 141.37,65.50 C141.52,65.58 141.52,65.58 141.67,65.65 C141.82,65.72 141.82,65.72 141.97,65.78 C142.11,65.83 142.11,65.83 142.26,65.87 C142.40,65.90 142.40,65.91 142.54,65.93 C142.68,65.95 142.68,65.95 142.82,65.96 C142.95,65.96 142.95,65.96 143.09,65.96 C143.21,65.94 143.21,65.94 143.34,65.92 C143.46,65.88 143.46,65.88 143.58,65.84 C143.69,65.79 143.69,65.79 143.80,65.74 C143.90,65.67 143.90,65.67 144.00,65.60 C144.09,65.51 144.09,65.51 144.18,65.43 C144.26,65.33 144.26,65.33 144.34,65.23 C144.41,65.12 144.41,65.12 144.48,65.00 C144.54,64.88 144.54,64.88 144.60,64.75 C144.64,64.61 144.64,64.61 144.69,64.47 C144.70,64.39 144.70,64.39 144.72,64.31 C144.74,64.24 144.74,64.24 144.75,64.17 C144.77,64.01 144.77,64.01 144.79,63.85 C144.80,63.68 144.80,63.68 144.80,63.51 C144.80,63.34 144.80,63.34 144.79,63.16 C144.77,62.98 144.77,62.98 144.75,62.80 C144.72,62.61 144.72,62.61 144.69,62.42 C144.64,62.23 144.64,62.23 144.60,62.04 C144.54,61.85 144.54,61.85 144.48,61.65 C144.41,61.46 144.41,61.46 144.34,61.27 C144.26,61.08 144.26,61.08 144.18,60.88 C144.09,60.69 144.09,60.69 144.00,60.50 C143.90,60.32 143.90,60.32 143.80,60.13 C143.69,59.95 143.69,59.95 143.58,59.77 C143.46,59.60 143.46,59.60 143.34,59.42 C143.21,59.26 143.21,59.26 143.09,59.09 C142.95,58.94 142.95,58.94 142.82,58.78 C142.68,58.63 142.68,58.63 142.54,58.49 C142.40,58.35 142.40,58.35 142.26,58.22 C142.11,58.10 142.11,58.10 141.97,57.98 C141.82,57.87 141.82,57.87 141.67,57.76 C141.52,57.66 141.52,57.66 141.37,57.57 C141.22,57.49 141.22,57.49 141.07,57.41 C140.92,57.35 140.92,57.35 140.78,57.29 C140.63,57.24 140.63,57.24 140.48,57.19 C140.34,57.16 140.34,57.16 140.20,57.13 C140.06,57.12 140.06,57.12 139.92,57.11 C139.79,57.11 139.79,57.11 139.66,57.11 C139.53,57.13 139.53,57.13 139.40,57.15 C139.28,57.19 139.28,57.19 139.17,57.23 C139.05,57.28 139.05,57.28 138.94,57.33 C138.84,57.40 138.84,57.40 138.74,57.47 C138.65,57.55 138.65,57.55 138.56,57.64 C138.48,57.74 138.48,57.74 138.40,57.84 C138.33,57.95 138.33,57.95 138.26,58.06 C138.20,58.19 138.20,58.19 138.15,58.32 C138.10,58.46 138.10,58.46 138.06,58.59 C138.02,58.74 138.02,58.74 137.99,58.89 C137.97,59.05 137.97,59.05 137.95,59.21 C137.95,59.38 137.94,59.38 137.94,59.55 "/><path d="M137.94,59.55 C137.94,59.51 137.94,59.43 137.94,59.30 C137.95,59.12 137.95,59.12 137.95,58.94 C137.97,58.77 137.97,58.77 138.00,58.60 C138.03,58.44 138.03,58.44 138.06,58.28 C138.11,58.13 138.11,58.13 138.16,57.99 C138.22,57.85 138.22,57.85 138.28,57.72 C138.35,57.59 138.35,57.59 138.43,57.47 C138.51,57.37 138.51,57.37 138.60,57.26 C138.70,57.17 138.70,57.17 138.79,57.08 C138.90,57.01 138.90,57.01 139.01,56.94 C139.13,56.88 139.13,56.88 139.24,56.82 C139.37,56.78 139.37,56.78 139.50,56.75 C139.63,56.72 139.63,56.72 139.77,56.70 C139.91,56.70 139.91,56.70 140.05,56.70 C140.19,56.71 140.19,56.71 140.34,56.73 C140.49,56.76 140.49,56.76 140.65,56.79 C140.80,56.84 140.80,56.84 140.96,56.89 C141.02,56.92 141.02,56.92 141.08,56.94 "/><path d="M139.93,61.66 C139.90,61.57 139.90,61.57 139.86,61.47 C139.83,61.38 139.83,61.38 139.81,61.29 C139.79,61.20 139.79,61.20 139.76,61.10 C139.75,61.01 139.75,61.01 139.73,60.92 C139.72,60.83 139.72,60.83 139.71,60.74 C139.71,60.66 139.71,60.66 139.71,60.57 C139.71,60.49 139.71,60.49 139.71,60.41 C139.72,60.33 139.72,60.33 139.73,60.25 C139.75,60.18 139.75,60.18 139.76,60.11 C139.79,60.04 139.79,60.04 139.81,59.97 C139.83,59.91 139.83,59.91 139.86,59.85 C139.90,59.80 139.90,59.80 139.93,59.74 C139.97,59.69 139.97,59.69 140.01,59.64 C140.05,59.60 140.05,59.60 140.10,59.56 C140.15,59.53 140.15,59.53 140.19,59.50 C140.25,59.47 140.25,59.47 140.30,59.44 C140.36,59.43 140.36,59.43 140.42,59.41 C140.48,59.40 140.48,59.40 140.54,59.39 C140.60,59.39 140.60,59.39 140.67,59.39 C140.74,59.39 140.74,59.39 140.80,59.40 C140.87,59.41 140.87,59.41 140.94,59.43 C141.01,59.45 141.01,59.45 141.08,59.47 C141.15,59.50 141.15,59.50 141.23,59.54 C141.30,59.57 141.30,59.57 141.37,59.61 "/><path d="M141.37,59.61 C141.33,59.59 141.33,59.59 141.29,59.57 C141.26,59.57 141.26,59.57 141.24,59.56 C141.21,59.56 141.21,59.56 141.19,59.55 C141.16,59.55 141.16,59.55 141.13,59.54 C141.10,59.54 141.10,59.54 141.08,59.54 C141.04,59.54 141.04,59.54 141.01,59.54 C140.98,59.54 140.98,59.54 140.95,59.54 C140.91,59.55 140.91,59.55 140.87,59.55 C140.84,59.55 140.84,59.55 140.80,59.56 "/><path d="M140.80,59.56 C140.71,59.57 140.71,59.57 140.63,59.58 C140.53,59.60 140.53,59.60 140.43,59.62 C140.31,59.65 140.31,59.65 140.20,59.67 C140.06,59.71 140.06,59.71 139.93,59.74 "/><path d="M139.93,59.74 C139.98,59.83 139.98,59.83 140.02,59.92 C140.04,59.97 140.04,59.97 140.06,60.01 C140.07,60.06 140.07,60.06 140.09,60.10 C140.10,60.15 140.10,60.15 140.11,60.19 C140.12,60.24 140.12,60.24 140.13,60.29 C140.14,60.33 140.14,60.33 140.14,60.38 C140.15,60.43 140.15,60.43 140.15,60.48 C140.15,60.52 140.15,60.52 140.15,60.57 C140.15,60.62 140.15,60.62 140.15,60.67 C140.15,60.73 140.15,60.73 140.14,60.78 C140.14,60.83 140.14,60.83 140.13,60.89 C140.12,60.94 140.12,60.94 140.11,61.00 C140.10,61.06 140.10,61.06 140.09,61.12 C140.07,61.18 140.07,61.18 140.06,61.24 C140.04,61.31 140.04,61.31 140.02,61.37 C139.98,61.50 139.98,61.50 139.94,61.62 "/><path d="M139.93,61.66 C139.97,61.76 139.97,61.76 140.01,61.85 C140.05,61.94 140.05,61.94 140.10,62.03 C140.15,62.12 140.15,62.12 140.19,62.21 C140.25,62.30 140.25,62.30 140.30,62.39 C140.36,62.47 140.36,62.47 140.42,62.56 C140.48,62.64 140.48,62.64 140.54,62.72 C140.60,62.79 140.60,62.79 140.67,62.87 C140.73,62.94 140.73,62.94 140.80,63.01 C140.87,63.08 140.87,63.08 140.94,63.14 C141.01,63.20 141.01,63.20 141.08,63.26 C141.15,63.31 141.15,63.31 141.23,63.36 C141.30,63.41 141.30,63.41 141.37,63.45 C141.44,63.49 141.44,63.49 141.52,63.53 C141.59,63.56 141.59,63.56 141.66,63.59 C141.73,63.62 141.73,63.62 141.80,63.64 C141.87,63.65 141.87,63.65 141.94,63.67 C142.01,63.67 142.01,63.67 142.07,63.68 C142.14,63.68 142.14,63.68 142.20,63.68 C142.26,63.67 142.26,63.67 142.33,63.66 C142.38,63.64 142.38,63.64 142.44,63.62 C142.49,63.60 142.49,63.60 142.55,63.57 C142.60,63.54 142.60,63.54 142.65,63.50 C142.69,63.46 142.69,63.46 142.73,63.42 C142.77,63.37 142.77,63.37 142.81,63.33 "/><path d="M142.81,63.33 C142.77,63.31 142.77,63.31 142.73,63.29 C142.70,63.28 142.70,63.28 142.68,63.28 C142.65,63.27 142.65,63.27 142.63,63.27 C142.60,63.26 142.60,63.26 142.57,63.26 C142.55,63.26 142.55,63.26 142.52,63.25 C142.48,63.25 142.48,63.25 142.45,63.25 C142.42,63.26 142.42,63.25 142.39,63.26 C142.31,63.26 142.31,63.26 142.24,63.27 C142.20,63.27 142.20,63.27 142.16,63.28 C142.06,63.30 142.06,63.30 141.97,63.31 C141.92,63.32 141.92,63.32 141.87,63.33 "/><path d="M139.93,61.66 C140.06,61.74 140.07,61.74 140.20,61.83 C140.26,61.87 140.26,61.87 140.32,61.91 C140.37,61.95 140.37,61.95 140.43,61.99 C140.48,62.04 140.48,62.04 140.53,62.08 C140.58,62.12 140.58,62.12 140.63,62.16 C140.67,62.21 140.67,62.21 140.71,62.25 C140.76,62.29 140.76,62.29 140.80,62.34 C140.84,62.38 140.84,62.38 140.87,62.43 C140.91,62.48 140.91,62.48 140.95,62.53 C140.98,62.57 140.98,62.57 141.01,62.62 C141.04,62.67 141.04,62.67 141.08,62.72 C141.10,62.78 141.10,62.78 141.13,62.83 C141.16,62.88 141.16,62.88 141.19,62.94 C141.21,63.00 141.21,63.00 141.24,63.06 C141.26,63.12 141.26,63.12 141.29,63.18 C141.33,63.32 141.33,63.32 141.37,63.45 "/><path d="M141.37,65.50 C141.48,65.56 141.48,65.56 141.59,65.62 C141.75,65.71 141.75,65.71 141.91,65.79 C142.07,65.86 142.07,65.86 142.22,65.92 C142.38,65.98 142.38,65.98 142.53,66.02 C142.69,66.06 142.69,66.06 142.84,66.09 C142.99,66.10 142.99,66.10 143.13,66.12 C143.27,66.12 143.27,66.12 143.42,66.11 C143.55,66.09 143.55,66.09 143.68,66.07 C143.81,66.03 143.81,66.03 143.94,65.99 C144.05,65.94 144.05,65.94 144.17,65.88 C144.28,65.81 144.28,65.81 144.39,65.73 C144.48,65.64 144.48,65.64 144.58,65.55 C144.67,65.45 144.67,65.45 144.75,65.34 C144.83,65.22 144.83,65.22 144.90,65.10 C144.96,64.96 144.96,64.96 145.02,64.83 C145.07,64.68 145.07,64.68 145.12,64.53 C145.15,64.37 145.15,64.37 145.18,64.21 C145.19,64.15 145.19,64.15 145.20,64.08 "/><path d="M143.03,62.37 C143.03,62.40 143.03,62.40 143.02,62.44 C143.02,62.50 143.02,62.50 143.01,62.55 C143.00,62.61 143.00,62.61 142.99,62.66 C142.98,62.72 142.98,62.72 142.97,62.78 C142.95,62.84 142.95,62.84 142.94,62.91 C142.92,62.97 142.92,62.97 142.90,63.04 "/><path d="M142.81,63.33 C142.85,63.27 142.85,63.27 142.88,63.22 C142.91,63.15 142.91,63.15 142.93,63.09 C142.96,63.03 142.96,63.03 142.98,62.96 C142.99,62.89 142.99,62.89 143.01,62.81 C143.02,62.74 143.02,62.74 143.03,62.66 C143.03,62.58 143.03,62.58 143.03,62.49 C143.03,62.41 143.03,62.41 143.03,62.32 C143.02,62.23 143.02,62.23 143.01,62.15 C142.99,62.05 142.99,62.05 142.98,61.96 C142.96,61.87 142.96,61.87 142.93,61.78 C142.91,61.69 142.91,61.69 142.88,61.59 C142.85,61.50 142.85,61.50 142.81,61.40 C142.77,61.31 142.77,61.31 142.73,61.22 C142.69,61.13 142.69,61.13 142.65,61.03 C142.60,60.94 142.60,60.94 142.55,60.85 C142.49,60.77 142.49,60.77 142.44,60.68 C142.38,60.59 142.38,60.59 142.33,60.51 C142.26,60.43 142.26,60.43 142.20,60.35 C142.14,60.27 142.14,60.27 142.07,60.20 C142.01,60.13 142.01,60.13 141.94,60.06 C141.87,59.99 141.87,59.99 141.80,59.93 C141.73,59.87 141.73,59.87 141.66,59.81 C141.59,59.76 141.59,59.76 141.52,59.70 C141.44,59.66 141.44,59.66 141.37,59.61 "/><path d="M139.94,61.62 L139.93,61.66 "/><path d="M142.09,60.22 L142.09,60.41 L139.93,61.66 "/><path d="M141.87,63.33 L141.64,63.39 L141.37,63.45 L143.02,62.50 "/><path d="M139.01,56.94 L139.81,56.47 "/><path d="M142.90,63.04 L142.81,63.33 "/><path d="M142.09,60.41 L142.73,61.21 "/><path d="M144.17,65.88 L144.98,65.41 "/></g></g><g id="Actor_.1"><g style="stroke:#000000;stroke-width:0.353"><path d="M137.94,26.28 C137.94,26.45 137.95,26.45 137.95,26.63 C137.97,26.81 137.97,26.81 137.99,27.00 C138.02,27.18 138.02,27.18 138.06,27.37 C138.10,27.56 138.10,27.56 138.15,27.75 C138.20,27.94 138.20,27.95 138.26,28.14 C138.33,28.33 138.33,28.33 138.40,28.52 C138.48,28.72 138.48,28.72 138.56,28.91 C138.65,29.10 138.65,29.10 138.74,29.29 C138.84,29.47 138.84,29.47 138.94,29.66 C139.05,29.84 139.05,29.84 139.17,30.02 C139.28,30.19 139.28,30.19 139.40,30.37 C139.53,30.53 139.53,30.53 139.66,30.70 C139.79,30.86 139.79,30.86 139.92,31.01 C140.06,31.16 140.06,31.16 140.20,31.30 C140.34,31.44 140.34,31.44 140.48,31.57 C140.63,31.70 140.63,31.70 140.78,31.82 C140.92,31.93 140.92,31.93 141.07,32.03 C141.22,32.13 141.22,32.13 141.37,32.22 C141.52,32.30 141.52,32.30 141.67,32.38 C141.82,32.44 141.82,32.44 141.97,32.50 C142.11,32.55 142.11,32.55 142.26,32.60 C142.40,32.63 142.40,32.63 142.54,32.66 C142.68,32.67 142.68,32.67 142.82,32.69 C142.95,32.68 142.95,32.68 143.09,32.68 C143.21,32.66 143.21,32.66 143.34,32.64 C143.46,32.61 143.46,32.61 143.58,32.57 C143.69,32.52 143.69,32.52 143.80,32.46 C143.90,32.39 143.90,32.39 144.00,32.32 C144.09,32.24 144.09,32.24 144.18,32.15 C144.26,32.06 144.26,32.05 144.34,31.95 C144.41,31.84 144.41,31.84 144.48,31.73 C144.54,31.60 144.54,31.60 144.60,31.47 C144.64,31.34 144.64,31.34 144.69,31.20 C144.72,31.05 144.72,31.05 144.75,30.90 C144.77,30.74 144.77,30.74 144.79,30.58 C144.80,30.41 144.80,30.41 144.80,30.24 C144.80,30.06 144.80,30.06 144.79,29.89 C144.77,29.70 144.77,29.70 144.75,29.52 C144.72,29.33 144.72,29.33 144.69,29.15 C144.64,28.96 144.64,28.96 144.60,28.76 C144.54,28.57 144.54,28.57 144.48,28.38 C144.41,28.19 144.41,28.19 144.34,27.99 C144.26,27.80 144.26,27.80 144.18,27.61 C144.09,27.42 144.09,27.42 144.00,27.23 C143.90,27.04 143.90,27.04 143.80,26.86 C143.69,26.68 143.69,26.68 143.58,26.50 C143.46,26.32 143.46,26.32 143.34,26.15 C143.21,25.98 143.21,25.98 143.09,25.82 C142.95,25.66 142.95,25.66 142.82,25.50 C142.68,25.36 142.68,25.36 142.54,25.21 C142.40,25.08 142.40,25.08 142.26,24.94 C142.11,24.82 142.11,24.82 141.97,24.70 C141.82,24.59 141.82,24.59 141.67,24.48 C141.52,24.39 141.52,24.39 141.37,24.30 C141.22,24.22 141.22,24.22 141.07,24.14 C140.92,24.07 140.92,24.07 140.78,24.01 C140.63,23.96 140.63,23.96 140.48,23.92 C140.34,23.89 140.34,23.89 140.20,23.86 C140.06,23.84 140.06,23.84 139.92,23.83 C139.79,23.83 139.79,23.83 139.66,23.84 C139.53,23.85 139.53,23.85 139.40,23.88 C139.28,23.91 139.28,23.91 139.17,23.95 C139.05,24.00 139.05,24.00 138.94,24.06 C138.84,24.12 138.84,24.12 138.74,24.19 C138.65,24.28 138.65,24.28 138.56,24.36 C138.48,24.46 138.48,24.46 138.40,24.56 C138.33,24.67 138.33,24.67 138.26,24.79 C138.20,24.91 138.20,24.91 138.15,25.04 C138.10,25.18 138.10,25.18 138.06,25.32 C138.02,25.47 138.02,25.47 137.99,25.62 C137.97,25.78 137.97,25.78 137.95,25.94 C137.95,26.11 137.94,26.11 137.94,26.28 "/><path d="M137.94,26.28 C137.94,26.07 137.94,26.15 137.94,26.02 C137.95,25.84 137.95,25.84 137.95,25.67 C137.97,25.49 137.97,25.49 138.00,25.32 C138.03,25.16 138.03,25.16 138.06,25.01 C138.11,24.86 138.11,24.86 138.16,24.71 C138.22,24.57 138.22,24.57 138.28,24.44 C138.35,24.32 138.35,24.32 138.43,24.20 C138.51,24.09 138.51,24.09 138.60,23.99 C138.70,23.90 138.70,23.90 138.79,23.81 C138.90,23.73 138.90,23.73 139.01,23.66 C139.13,23.60 139.13,23.60 139.24,23.55 C139.37,23.51 139.37,23.51 139.50,23.47 C139.63,23.45 139.63,23.45 139.77,23.43 C139.91,23.42 139.91,23.42 140.05,23.42 C140.19,23.43 140.19,23.43 140.34,23.45 C140.49,23.48 140.49,23.48 140.65,23.52 C140.80,23.56 140.80,23.56 140.96,23.62 C141.02,23.64 141.02,23.64 141.07,23.67 "/><path d="M141.37,26.34 C141.33,26.32 141.33,26.32 141.29,26.30 C141.26,26.29 141.26,26.29 141.24,26.29 C141.21,26.28 141.21,26.28 141.19,26.28 C141.16,26.27 141.16,26.27 141.13,26.27 C141.10,26.27 141.10,26.27 141.08,26.27 C141.04,26.27 141.04,26.27 141.01,26.27 C140.98,26.27 140.98,26.27 140.95,26.27 C140.91,26.27 140.91,26.27 140.87,26.27 C140.84,26.28 140.84,26.28 140.80,26.28 "/><path d="M140.80,26.28 C140.71,26.29 140.71,26.29 140.63,26.31 C140.53,26.32 140.53,26.33 140.43,26.34 C140.31,26.37 140.31,26.37 140.20,26.40 C140.06,26.43 140.06,26.43 139.93,26.47 "/><path d="M139.93,26.47 C139.98,26.56 139.98,26.56 140.02,26.65 C140.04,26.69 140.04,26.69 140.06,26.74 C140.07,26.78 140.07,26.78 140.09,26.83 C140.10,26.87 140.10,26.87 140.11,26.92 C140.12,26.97 140.12,26.97 140.13,27.01 C140.14,27.06 140.14,27.06 140.14,27.10 C140.15,27.15 140.15,27.15 140.15,27.20 C140.15,27.25 140.15,27.25 140.15,27.30 C140.15,27.35 140.15,27.35 140.15,27.40 C140.15,27.45 140.15,27.45 140.14,27.50 C140.14,27.56 140.14,27.56 140.13,27.61 C140.12,27.67 140.12,27.67 140.11,27.72 C140.10,27.78 140.10,27.78 140.09,27.84 C140.07,27.90 140.07,27.90 140.06,27.97 C140.04,28.03 140.04,28.03 140.02,28.10 "/><path d="M139.93,28.39 C139.90,28.29 139.90,28.29 139.86,28.20 C139.83,28.11 139.83,28.11 139.81,28.01 C139.79,27.92 139.79,27.92 139.76,27.83 C139.75,27.74 139.75,27.74 139.73,27.65 C139.72,27.56 139.72,27.56 139.71,27.47 C139.71,27.38 139.71,27.38 139.71,27.30 C139.71,27.22 139.71,27.22 139.71,27.13 C139.72,27.06 139.72,27.06 139.73,26.98 C139.75,26.91 139.75,26.91 139.76,26.83 C139.79,26.77 139.79,26.77 139.81,26.70 C139.83,26.64 139.83,26.64 139.86,26.58 C139.90,26.52 139.90,26.52 139.93,26.47 C139.97,26.42 139.97,26.42 140.01,26.37 C140.05,26.33 140.05,26.33 140.10,26.29 C140.15,26.25 140.15,26.25 140.19,26.22 C140.25,26.19 140.25,26.19 140.30,26.17 C140.36,26.15 140.36,26.15 140.42,26.13 C140.48,26.12 140.48,26.12 140.54,26.11 C140.60,26.11 140.60,26.11 140.67,26.11 C140.74,26.12 140.74,26.12 140.80,26.12 C140.87,26.14 140.87,26.14 140.94,26.15 C141.01,26.18 141.01,26.18 141.08,26.20 C141.15,26.23 141.15,26.23 141.23,26.26 C141.30,26.30 141.30,26.30 141.37,26.34 C141.44,26.38 141.44,26.38 141.52,26.43 C141.59,26.48 141.59,26.48 141.66,26.53 C141.73,26.59 141.73,26.59 141.80,26.65 C141.87,26.72 141.87,26.72 141.94,26.78 C142.01,26.85 142.01,26.85 142.07,26.92 C142.14,27.00 142.14,27.00 142.20,27.07 C142.22,27.10 142.22,27.10 142.24,27.13 C142.28,27.18 142.29,27.18 142.33,27.24 C142.38,27.32 142.38,27.32 142.44,27.40 C142.49,27.49 142.49,27.49 142.55,27.58 C142.60,27.67 142.60,27.67 142.65,27.76 C142.69,27.85 142.69,27.85 142.73,27.94 C142.77,28.04 142.77,28.04 142.81,28.13 C142.85,28.22 142.85,28.22 142.88,28.32 C142.91,28.41 142.91,28.41 142.93,28.50 C142.96,28.60 142.96,28.60 142.98,28.69 C142.99,28.78 142.99,28.78 143.01,28.87 C143.02,28.96 143.02,28.96 143.03,29.05 C143.03,29.13 143.03,29.13 143.03,29.22 C143.03,29.30 143.03,29.30 143.03,29.38 C143.02,29.46 143.02,29.46 143.01,29.54 C142.99,29.61 142.99,29.61 142.98,29.68 C142.96,29.75 142.96,29.75 142.93,29.82 C142.91,29.88 142.91,29.88 142.88,29.94 C142.85,30.00 142.85,30.00 142.81,30.05 C142.77,30.10 142.77,30.10 142.73,30.15 C142.69,30.19 142.69,30.19 142.65,30.23 C142.60,30.26 142.60,30.26 142.55,30.30 C142.49,30.32 142.49,30.32 142.44,30.35 C142.38,30.37 142.38,30.37 142.33,30.38 C142.26,30.39 142.26,30.39 142.20,30.40 C142.14,30.40 142.14,30.40 142.07,30.41 C142.01,30.40 142.01,30.40 141.94,30.39 C141.87,30.38 141.87,30.38 141.80,30.36 C141.73,30.34 141.73,30.34 141.66,30.32 C141.59,30.29 141.59,30.29 141.52,30.26 C141.44,30.22 141.44,30.22 141.37,30.18 "/><path d="M141.37,30.18 C141.33,30.04 141.33,30.04 141.29,29.91 C141.26,29.84 141.26,29.84 141.24,29.78 C141.21,29.72 141.21,29.72 141.19,29.66 C141.16,29.61 141.16,29.61 141.13,29.55 C141.10,29.50 141.10,29.50 141.08,29.45 C141.04,29.40 141.04,29.40 141.01,29.35 C140.98,29.30 140.98,29.30 140.95,29.25 C140.91,29.20 140.91,29.20 140.87,29.15 C140.84,29.11 140.84,29.11 140.80,29.06 C140.76,29.02 140.76,29.02 140.71,28.97 C140.67,28.93 140.67,28.93 140.63,28.89 C140.58,28.85 140.58,28.85 140.53,28.80 C140.48,28.76 140.48,28.76 140.43,28.72 C140.37,28.68 140.37,28.68 140.32,28.64 C140.26,28.59 140.26,28.59 140.20,28.55 C140.07,28.47 140.06,28.47 139.93,28.39 "/><path d="M139.93,28.39 C139.97,28.48 139.97,28.48 140.01,28.57 C140.05,28.67 140.05,28.67 140.10,28.76 C140.15,28.85 140.15,28.85 140.19,28.94 C140.25,29.03 140.25,29.03 140.30,29.11 C140.36,29.20 140.36,29.20 140.42,29.28 C140.48,29.36 140.48,29.36 140.54,29.44 C140.60,29.52 140.60,29.52 140.67,29.59 C140.73,29.66 140.73,29.66 140.80,29.74 C140.87,29.80 140.87,29.80 140.94,29.87 C141.01,29.92 141.01,29.92 141.08,29.98 C141.15,30.04 141.15,30.04 141.23,30.09 C141.30,30.13 141.30,30.13 141.37,30.18 "/><path d="M141.37,30.18 C141.51,30.14 141.51,30.14 141.64,30.11 C141.75,30.08 141.75,30.08 141.87,30.06 C141.92,30.05 141.92,30.05 141.97,30.04 C142.06,30.02 142.06,30.02 142.16,30.01 C142.23,30.00 142.23,30.00 142.31,29.99 C142.35,29.98 142.35,29.98 142.39,29.98 C142.42,29.98 142.42,29.98 142.45,29.98 C142.48,29.98 142.48,29.98 142.52,29.98 C142.55,29.98 142.55,29.98 142.57,29.98 C142.60,29.99 142.60,29.99 142.63,29.99 C142.65,30.00 142.65,30.00 142.68,30.00 C142.70,30.01 142.70,30.01 142.73,30.01 C142.77,30.03 142.77,30.03 142.81,30.05 "/><path d="M142.81,30.05 C142.86,29.91 142.86,29.91 142.90,29.76 C142.92,29.70 142.92,29.70 142.94,29.63 C142.95,29.57 142.95,29.57 142.97,29.51 C142.98,29.45 142.98,29.45 142.99,29.39 C143.00,29.33 143.00,29.33 143.01,29.27 C143.02,29.22 143.02,29.22 143.02,29.17 C143.03,29.13 143.03,29.13 143.03,29.09 "/><path d="M141.37,32.22 C141.48,32.28 141.48,32.28 141.59,32.35 C141.75,32.43 141.75,32.43 141.91,32.51 C142.07,32.58 142.07,32.58 142.22,32.65 C142.38,32.70 142.38,32.70 142.53,32.75 C142.69,32.78 142.69,32.78 142.84,32.81 C142.99,32.83 142.99,32.83 143.13,32.84 C143.27,32.84 143.27,32.84 143.42,32.84 C143.55,32.82 143.55,32.82 143.68,32.79 C143.81,32.76 143.81,32.76 143.94,32.72 C144.05,32.66 144.05,32.66 144.17,32.60 C144.28,32.53 144.28,32.53 144.39,32.46 C144.48,32.37 144.48,32.37 144.58,32.28 C144.67,32.17 144.67,32.17 144.75,32.06 C144.83,31.94 144.83,31.94 144.90,31.82 C144.96,31.69 144.96,31.69 145.02,31.55 C145.07,31.41 145.07,31.41 145.12,31.26 C145.15,31.10 145.15,31.10 145.18,30.94 C145.19,30.87 145.19,30.87 145.20,30.81 "/><path d="M140.02,28.10 L139.93,28.39 L142.09,27.14 L142.73,27.93 "/><path d="M139.01,23.66 L139.82,23.20 "/><path d="M141.37,30.18 L143.02,29.23 "/><path d="M142.09,27.14 L142.09,26.94 "/><path d="M144.17,32.60 L144.97,32.14 "/></g></g><g id="Actor_.2"><g style="stroke:#000000;stroke-width:0.353"><path d="M140.95,56.86 C141.06,56.94 141.07,56.93 141.18,57.01 C141.37,57.14 141.37,57.14 141.56,57.29 C141.75,57.44 141.75,57.44 141.94,57.60 C142.12,57.77 142.12,57.77 142.31,57.95 C142.49,58.13 142.49,58.13 142.66,58.32 C142.83,58.52 142.83,58.52 143.00,58.72 C143.17,58.93 143.17,58.93 143.33,59.15 C143.48,59.37 143.48,59.37 143.64,59.60 C143.78,59.83 143.78,59.83 143.92,60.06 C144.05,60.30 144.05,60.30 144.18,60.54 C144.30,60.79 144.30,60.79 144.41,61.03 C144.52,61.28 144.52,61.28 144.62,61.52 C144.71,61.77 144.71,61.77 144.80,62.02 C144.87,62.27 144.87,62.27 144.95,62.52 C145.01,62.76 145.01,62.76 145.06,63.01 C145.11,63.25 145.11,63.25 145.15,63.50 C145.17,63.73 145.17,63.73 145.20,63.96 C145.21,64.19 145.21,64.19 145.21,64.42 C145.21,64.64 145.21,64.64 145.20,64.85 C145.17,65.06 145.17,65.06 145.15,65.27 C145.11,65.46 145.11,65.46 145.06,65.65 C145.01,65.83 145.01,65.83 144.95,66.01 C144.88,66.17 144.88,66.17 144.80,66.33 C144.71,66.48 144.71,66.48 144.62,66.63 C144.52,66.76 144.52,66.76 144.41,66.89 C144.30,66.99 144.30,66.99 144.18,67.10 C144.05,67.19 144.05,67.19 143.92,67.28 C143.78,67.35 143.78,67.35 143.64,67.41 C143.48,67.46 143.48,67.46 143.33,67.51 C143.17,67.54 143.17,67.54 143.00,67.56 C142.83,67.57 142.83,67.57 142.66,67.57 C142.48,67.55 142.48,67.55 142.31,67.53 C142.12,67.49 142.12,67.49 141.94,67.45 C141.75,67.39 141.75,67.39 141.56,67.33 C141.37,67.25 141.37,67.25 141.18,67.17 C140.99,67.07 140.99,67.07 140.79,66.97 C140.60,66.85 140.60,66.85 140.41,66.73 C140.22,66.59 140.22,66.59 140.03,66.45 C139.84,66.29 139.84,66.29 139.65,66.13 C139.47,65.96 139.47,65.96 139.28,65.79 C139.10,65.60 139.10,65.60 138.93,65.42 C138.76,65.21 138.76,65.21 138.59,65.01 C138.42,64.80 138.42,64.80 138.26,64.58 C138.11,64.36 138.11,64.36 137.95,64.13 C137.81,63.90 137.81,63.90 137.67,63.67 C137.54,63.43 137.54,63.43 137.41,63.19 C137.29,62.95 137.29,62.95 137.18,62.71 C137.07,62.46 137.07,62.46 136.97,62.21 C136.88,61.96 136.88,61.96 136.79,61.71 C136.72,61.46 136.71,61.46 136.64,61.21 C136.58,60.97 136.58,60.97 136.53,60.72 C136.48,60.48 136.48,60.48 136.44,60.24 C136.42,60.01 136.42,60.01 136.39,59.77 C136.38,59.54 136.38,59.54 136.38,59.32 C136.38,59.10 136.38,59.10 136.39,58.88 C136.42,58.68 136.42,58.68 136.44,58.47 C136.48,58.27 136.48,58.27 136.53,58.08 C136.58,57.90 136.58,57.90 136.64,57.72 C136.71,57.56 136.71,57.56 136.79,57.40 C136.88,57.25 136.88,57.25 136.97,57.11 C137.07,56.98 137.07,56.98 137.18,56.85 C137.29,56.74 137.29,56.74 137.41,56.63 C137.54,56.54 137.54,56.54 137.67,56.45 C137.81,56.38 137.81,56.38 137.95,56.32 C138.11,56.27 138.11,56.27 138.26,56.22 C138.42,56.19 138.42,56.19 138.59,56.17 C138.76,56.17 138.76,56.17 138.93,56.17 C139.11,56.18 139.11,56.18 139.28,56.20 C139.47,56.24 139.47,56.24 139.65,56.28 C139.84,56.34 139.84,56.34 140.03,56.40 C140.22,56.48 140.22,56.48 140.41,56.56 C140.60,56.66 140.60,56.66 140.79,56.76 C140.87,56.81 140.87,56.81 140.95,56.86 "/><path d="M140.95,56.86 C140.89,56.83 140.89,56.83 140.83,56.80 C140.65,56.73 140.65,56.73 140.48,56.66 C140.31,56.60 140.31,56.60 140.13,56.54 C139.97,56.50 139.97,56.50 139.80,56.47 C139.64,56.45 139.64,56.45 139.47,56.44 C139.32,56.44 139.32,56.44 139.16,56.45 C139.01,56.47 139.01,56.47 138.87,56.49 C138.73,56.53 138.72,56.53 138.59,56.58 C138.46,56.64 138.45,56.64 138.33,56.70 C138.21,56.78 138.21,56.78 138.09,56.86 C137.98,56.96 137.98,56.96 137.87,57.07 C137.78,57.18 137.78,57.18 137.69,57.30 C137.60,57.43 137.60,57.43 137.52,57.56 C137.45,57.71 137.45,57.71 137.39,57.87 C137.33,58.03 137.33,58.03 137.28,58.19 C137.24,58.37 137.24,58.37 137.21,58.54 C137.18,58.73 137.18,58.73 137.16,58.92 C137.15,59.12 137.15,59.12 137.14,59.32 C137.15,59.52 137.15,59.52 137.16,59.73 C137.18,59.94 137.18,59.94 137.21,60.16 C137.24,60.38 137.24,60.38 137.28,60.60 C137.33,60.82 137.33,60.82 137.39,61.05 C137.45,61.28 137.45,61.28 137.52,61.50 C137.60,61.73 137.60,61.73 137.69,61.95 C137.78,62.18 137.78,62.18 137.87,62.41 C137.98,62.63 137.98,62.63 138.09,62.86 C138.21,63.08 138.21,63.08 138.33,63.29 C138.46,63.51 138.45,63.51 138.59,63.72 C138.72,63.92 138.72,63.92 138.87,64.12 C139.01,64.32 139.01,64.32 139.16,64.51 C139.32,64.70 139.32,64.70 139.47,64.89 C139.64,65.05 139.64,65.05 139.80,65.22 C139.97,65.38 139.97,65.38 140.13,65.54 C140.31,65.69 140.31,65.69 140.48,65.83 C140.65,65.96 140.65,65.96 140.83,66.08 C141.00,66.19 141.00,66.19 141.18,66.30 "/><path d="M136.79,28.44 C136.71,28.19 136.71,28.19 136.64,27.94 C136.58,27.70 136.58,27.70 136.53,27.45 C136.48,27.21 136.48,27.21 136.44,26.96 C136.42,26.73 136.42,26.73 136.39,26.49 C136.38,26.27 136.38,26.27 136.38,26.04 C136.38,25.82 136.38,25.82 136.39,25.61 C136.42,25.40 136.42,25.40 136.44,25.19 C136.48,25.00 136.48,25.00 136.53,24.81 C136.58,24.63 136.58,24.63 136.64,24.45 C136.71,24.29 136.71,24.29 136.79,24.12 C136.88,23.98 136.88,23.98 136.97,23.83 C137.07,23.70 137.07,23.70 137.18,23.57 C137.29,23.46 137.29,23.46 137.41,23.36 C137.54,23.27 137.54,23.27 137.67,23.18 C137.81,23.11 137.81,23.11 137.95,23.04 C138.11,22.99 138.11,22.99 138.26,22.95 C138.42,22.92 138.42,22.92 138.59,22.90 C138.76,22.89 138.76,22.89 138.93,22.89 C139.11,22.90 139.11,22.90 139.28,22.92 C139.47,22.96 139.47,22.96 139.65,23.00 C139.84,23.06 139.84,23.06 140.03,23.13 C140.22,23.21 140.22,23.21 140.41,23.29 C140.60,23.39 140.60,23.39 140.79,23.49 C140.87,23.54 140.87,23.54 140.95,23.59 "/><path d="M140.95,23.59 C140.89,23.56 140.89,23.56 140.83,23.52 C140.65,23.45 140.65,23.45 140.48,23.38 C140.31,23.32 140.31,23.32 140.13,23.27 C139.97,23.23 139.97,23.23 139.80,23.19 C139.64,23.17 139.64,23.17 139.47,23.16 C139.32,23.16 139.32,23.17 139.16,23.17 C139.01,23.19 139.01,23.19 138.87,23.22 C138.73,23.26 138.72,23.26 138.59,23.30 C138.46,23.36 138.45,23.36 138.33,23.43 C138.21,23.51 138.21,23.51 138.09,23.59 C137.98,23.69 137.98,23.69 137.87,23.79 C137.78,23.90 137.78,23.90 137.69,24.02 C137.60,24.15 137.60,24.15 137.52,24.29 C137.45,24.44 137.45,24.44 137.39,24.58 C137.33,24.75 137.33,24.75 137.28,24.91 C137.24,25.09 137.24,25.09 137.21,25.27 C137.18,25.46 137.18,25.46 137.16,25.64 C137.15,25.84 137.15,25.84 137.14,26.04 C137.15,26.25 137.15,26.25 137.16,26.46 C137.18,26.67 137.18,26.67 137.21,26.89 C137.24,27.10 137.24,27.10 137.28,27.32 C137.33,27.55 137.33,27.55 137.39,27.77 C137.45,28.00 137.45,28.00 137.52,28.23 C137.60,28.46 137.60,28.46 137.69,28.68 C137.78,28.91 137.78,28.91 137.88,29.14 C137.98,29.36 137.98,29.36 138.09,29.58 C138.21,29.80 138.21,29.80 138.33,30.02 C138.45,30.23 138.46,30.23 138.59,30.44 C138.72,30.64 138.72,30.65 138.87,30.85 C139.01,31.05 139.01,31.05 139.16,31.24 C139.32,31.42 139.32,31.42 139.47,31.61 C139.64,31.78 139.64,31.78 139.80,31.95 C139.97,32.11 139.97,32.11 140.13,32.27 C140.31,32.41 140.31,32.41 140.48,32.55 C140.65,32.68 140.65,32.68 140.83,32.80 C141.00,32.92 141.00,32.92 141.18,33.03 "/><path d="M140.79,33.69 C140.60,33.57 140.60,33.57 140.41,33.45 C140.22,33.31 140.22,33.31 140.03,33.17 C139.84,33.02 139.84,33.02 139.65,32.86 C139.47,32.69 139.47,32.69 139.28,32.51 C139.10,32.32 139.10,32.32 138.93,32.14 C138.76,31.94 138.76,31.94 138.59,31.74 C138.42,31.52 138.42,31.52 138.26,31.31 C138.11,31.09 138.11,31.09 137.95,30.86 C137.81,30.63 137.81,30.63 137.67,30.40 C137.54,30.16 137.54,30.16 137.41,29.92 C137.29,29.67 137.29,29.67 137.18,29.43 C137.07,29.18 137.07,29.18 136.97,28.93 C136.88,28.69 136.88,28.69 136.79,28.44 "/><path d="M141.18,66.30 C141.35,66.40 141.35,66.40 141.53,66.49 C141.70,66.57 141.70,66.57 141.88,66.64 C142.05,66.70 142.05,66.70 142.22,66.75 C142.39,66.78 142.39,66.78 142.56,66.82 C142.72,66.84 142.72,66.84 142.88,66.85 C143.04,66.85 143.04,66.85 143.20,66.84 C143.34,66.82 143.35,66.82 143.49,66.80 C143.63,66.76 143.63,66.76 143.77,66.71 C143.90,66.65 143.90,66.65 144.03,66.59 C144.15,66.51 144.15,66.51 144.27,66.43 C144.38,66.33 144.38,66.32 144.48,66.22 C144.58,66.11 144.58,66.11 144.67,65.99 C144.76,65.86 144.76,65.86 144.84,65.72 C144.90,65.58 144.90,65.58 144.97,65.43 C145.02,65.26 145.02,65.26 145.08,65.10 C145.12,64.92 145.12,64.92 145.15,64.75 C145.18,64.56 145.18,64.56 145.20,64.37 C145.20,64.28 145.20,64.28 145.21,64.19 "/><path d="M140.79,33.69 C140.99,33.80 140.99,33.80 141.18,33.90 C141.37,33.98 141.37,33.98 141.56,34.06 C141.75,34.12 141.75,34.12 141.94,34.18 C142.12,34.22 142.12,34.22 142.31,34.26 C142.48,34.28 142.48,34.28 142.66,34.29 C142.83,34.29 142.83,34.29 143.00,34.29 C143.17,34.27 143.17,34.27 143.33,34.24 C143.48,34.19 143.48,34.19 143.64,34.14 C143.78,34.07 143.78,34.07 143.92,34.00 C144.05,33.92 144.05,33.92 144.18,33.83 C144.30,33.72 144.30,33.72 144.41,33.61 C144.52,33.48 144.52,33.48 144.62,33.35 C144.71,33.21 144.71,33.21 144.80,33.06 C144.88,32.90 144.88,32.90 144.95,32.74 C145.01,32.56 145.01,32.56 145.06,32.38 C145.11,32.18 145.11,32.18 145.15,31.99 C145.17,31.78 145.17,31.78 145.20,31.58 C145.21,31.36 145.21,31.36 145.21,31.14 C145.21,30.92 145.21,30.92 145.20,30.69 C145.17,30.45 145.17,30.45 145.15,30.22 C145.11,29.97 145.11,29.97 145.06,29.74 C145.01,29.49 145.01,29.49 144.95,29.24 C144.87,29.00 144.87,29.00 144.80,28.75 C144.71,28.50 144.71,28.50 144.62,28.25 C144.52,28.00 144.52,28.00 144.41,27.75 C144.30,27.51 144.30,27.51 144.18,27.27 C144.05,27.03 144.05,27.03 143.92,26.79 C143.78,26.55 143.78,26.55 143.64,26.32 C143.48,26.10 143.48,26.10 143.33,25.87 C143.17,25.66 143.17,25.66 143.00,25.45 C142.83,25.24 142.83,25.24 142.66,25.04 C142.49,24.85 142.49,24.85 142.31,24.67 C142.12,24.49 142.12,24.49 141.94,24.32 C141.75,24.16 141.75,24.17 141.56,24.01 C141.37,23.87 141.37,23.87 141.18,23.73 C141.07,23.66 141.07,23.66 140.95,23.59 "/><path d="M144.67,-0.00 C144.65,0.04 144.65,0.04 144.62,0.08 C144.52,0.21 144.52,0.21 144.41,0.33 C144.30,0.44 144.30,0.44 144.18,0.55 C144.05,0.64 144.05,0.64 143.92,0.72 C143.78,0.80 143.78,0.80 143.64,0.87 C143.48,0.91 143.48,0.91 143.33,0.96 C143.17,0.98 143.17,0.98 143.00,1.01 C142.83,1.02 142.83,1.02 142.66,1.02 C142.48,1.00 142.48,1.00 142.31,0.98 C142.12,0.95 142.12,0.95 141.94,0.91 C141.75,0.85 141.75,0.85 141.56,0.79 C141.37,0.71 141.37,0.71 141.18,0.62 C140.99,0.52 140.99,0.52 140.79,0.42 C140.60,0.30 140.60,0.30 140.41,0.18 C140.29,0.09 140.29,0.09 140.16,-0.00 "/><path d="M141.18,33.03 C141.35,33.12 141.35,33.12 141.53,33.21 C141.70,33.29 141.70,33.29 141.88,33.36 C142.05,33.42 142.05,33.42 142.22,33.48 C142.39,33.51 142.39,33.51 142.56,33.54 C142.72,33.56 142.72,33.56 142.88,33.57 C143.04,33.57 143.04,33.57 143.20,33.57 C143.34,33.55 143.35,33.55 143.49,33.52 C143.63,33.48 143.63,33.48 143.77,33.43 C143.92,33.37 143.92,33.37 144.06,33.30 "/><path d="M144.08,0.00 C143.93,0.08 143.93,0.08 143.77,0.16 C143.63,0.20 143.63,0.20 143.49,0.24 C143.35,0.27 143.34,0.27 143.20,0.30 C143.04,0.30 143.04,0.30 142.88,0.30 C142.72,0.29 142.72,0.29 142.56,0.27 C142.39,0.23 142.39,0.23 142.22,0.20 C142.05,0.14 142.05,0.14 141.88,0.09 C141.78,0.04 141.78,0.04 141.68,0.00 "/><path d="M144.03,33.31 C144.15,33.23 144.15,33.23 144.27,33.15 C144.38,33.05 144.38,33.05 144.48,32.95 C144.58,32.83 144.58,32.83 144.67,32.72 C144.76,32.58 144.76,32.58 144.84,32.45 C144.90,32.30 144.90,32.30 144.97,32.15 C145.02,31.99 145.02,31.99 145.08,31.82 C145.12,31.65 145.12,31.65 145.15,31.47 C145.18,31.29 145.18,31.29 145.20,31.10 C145.20,31.01 145.20,31.01 145.21,30.92 "/><path d="M142.43,73.90 L134.45,69.30 L134.45,-0.00 "/><path d="M140.99,56.88 L140.95,56.86 "/><path d="M141.18,66.30 L142.00,65.83 "/><path d="M141.18,33.03 L140.79,33.69 "/><path d="M140.79,66.97 L141.18,66.30 "/><path d="M140.95,23.59 L140.99,23.61 "/><path d="M140.79,0.42 L141.04,0.00 "/><path d="M142.00,32.55 L141.18,33.03 "/><path d="M144.03,0.03 L144.09,-0.00 "/><path d="M147.13,0.00 L147.13,69.17 "/><path d="M147.90,0.00 L147.90,68.73 "/><path d="M148.88,68.17 L148.88,-0.00 "/><path d="M149.61,0.00 L149.61,67.74 "/><path d="M151.93,-0.00 L151.93,66.41 "/><path d="M156.36,63.75 L156.36,63.85 L156.36,63.58 L156.36,63.75 "/><path d="M156.36,63.38 L156.36,63.58 L156.36,63.30 L156.36,63.38 "/><path d="M156.36,63.30 L156.36,0.00 "/></g></g><g id="Actor_.3"><g style="stroke:#000000;stroke-width:0.353"><path d="M136.09,141.67 C141.42,144.75 141.42,144.75 146.75,147.82 C146.85,147.85 146.85,147.85 146.96,147.87 C147.05,147.88 147.05,147.88 147.13,147.89 C147.30,147.86 147.31,147.86 147.47,147.83 "/><path d="M146.65,133.28 C146.75,133.49 146.75,133.49 146.86,133.70 C146.99,133.85 146.99,133.85 147.13,133.99 C147.18,134.03 147.18,134.03 147.24,134.06 C147.32,134.09 147.32,134.09 147.41,134.11 "/><path d="M146.65,133.28 C146.58,133.08 146.58,133.08 146.51,132.87 C146.40,132.45 146.40,132.45 146.30,132.03 C146.26,131.83 146.26,131.83 146.23,131.63 C146.20,131.36 146.20,131.36 146.18,131.08 "/><path d="M175.47,137.16 C175.40,137.04 175.40,137.04 175.33,136.92 C175.22,136.62 175.21,136.62 175.11,136.33 C175.05,136.00 175.06,135.99 175.00,135.66 C175.00,135.48 175.00,135.48 174.99,135.30 C175.00,135.10 175.00,135.10 175.00,134.91 C175.06,134.51 175.06,134.51 175.11,134.11 C175.16,133.91 175.16,133.91 175.21,133.70 C175.34,133.28 175.34,133.28 175.47,132.86 "/><path d="M175.47,132.86 C175.56,132.58 175.56,132.58 175.64,132.29 C175.66,132.14 175.66,132.14 175.67,131.99 C175.66,131.90 175.66,131.90 175.65,131.81 "/><path d="M176.91,142.84 C177.04,142.79 177.04,142.79 177.16,142.75 C177.28,142.73 177.28,142.73 177.39,142.72 C177.51,142.73 177.51,142.73 177.63,142.75 C177.75,142.79 177.75,142.79 177.87,142.84 "/><path d="M180.01,147.05 C180.64,147.43 180.64,147.43 181.28,147.80 C181.38,147.83 181.38,147.83 181.48,147.86 C181.60,147.88 181.60,147.88 181.72,147.89 C181.83,147.88 181.83,147.88 181.95,147.86 C182.07,147.82 182.07,147.82 182.20,147.77 "/><path d="M182.20,133.28 C182.10,133.49 182.10,133.49 181.99,133.70 C181.90,133.80 181.90,133.80 181.81,133.90 C181.71,133.98 181.71,133.98 181.61,134.06 "/><path d="M179.88,132.93 C179.89,132.81 179.89,132.81 179.90,132.70 C179.93,132.55 179.93,132.55 179.97,132.41 C180.09,132.03 180.10,132.03 180.23,131.65 C180.34,131.23 180.34,131.23 180.44,130.81 C180.50,130.42 180.50,130.42 180.55,130.02 C180.55,129.64 180.55,129.64 180.55,129.27 C180.53,129.10 180.53,129.10 180.51,128.93 C180.43,128.61 180.43,128.61 180.35,128.30 C180.22,128.03 180.22,128.03 180.08,127.76 "/><path d="M182.20,147.77 C187.48,144.72 187.48,144.72 192.76,141.67 C192.82,141.63 192.82,141.63 192.87,141.59 C192.91,141.54 192.91,141.54 192.94,141.50 "/><path d="M182.20,133.28 C182.27,133.08 182.27,133.08 182.34,132.87 C182.45,132.45 182.45,132.45 182.55,132.03 C182.59,131.83 182.59,131.83 182.62,131.63 C182.65,131.24 182.65,131.24 182.68,130.86 C182.67,130.68 182.67,130.68 182.66,130.49 C182.61,130.15 182.61,130.15 182.55,129.82 C182.51,129.67 182.51,129.67 182.46,129.52 C182.33,129.25 182.33,129.25 182.20,128.98 "/><path d="M182.20,128.98 C182.12,128.88 182.12,128.88 182.04,128.79 C181.93,128.69 181.93,128.69 181.81,128.58 C181.73,128.52 181.73,128.52 181.65,128.46 C181.43,128.33 181.43,128.33 181.22,128.20 "/><path d="M136.09,116.18 L136.09,141.67 L135.98,141.59 L135.92,141.50 L135.89,141.39 L135.91,141.29 "/><path d="M135.89,141.39 L135.89,116.29 "/><path d="M147.47,147.83 L148.77,147.11 L148.77,133.40 L148.85,133.33 L148.93,133.19 L148.97,132.97 L148.95,132.71 "/><path d="M146.65,147.77 L146.65,133.28 "/><path d="M147.41,134.11 L147.53,134.11 L147.62,134.07 L147.62,147.77 "/><path d="M148.77,133.40 L147.62,134.07 "/><path d="M148.77,147.11 L148.88,147.03 L148.94,146.93 L148.97,146.83 L148.94,146.73 "/><path d="M148.97,146.83 L148.97,132.93 "/><path d="M148.97,144.00 L150.21,143.28 "/><path d="M163.94,0.00 L163.94,67.69 "/><path d="M164.91,0.00 L164.91,67.90 "/><path d="M173.45,152.82 L175.51,151.63 L175.65,151.48 L175.67,151.38 L175.65,151.28 "/><path d="M175.47,151.65 L175.47,137.16 "/><path d="M175.47,132.86 L175.47,91.33 "/><path d="M175.67,151.38 L175.67,137.66 L175.66,137.45 L175.47,137.16 "/><path d="M176.91,90.50 L176.91,142.84 L175.67,143.55 "/><path d="M175.18,136.55 L175.18,133.81 "/><path d="M175.67,91.22 L175.67,131.99 "/><path d="M175.67,127.86 L175.75,127.22 L175.76,126.87 L175.67,126.82 "/><path d="M175.67,125.98 L175.75,126.52 L175.76,126.87 "/><path d="M175.47,-0.00 L175.47,65.47 "/><path d="M175.67,65.59 L175.67,-0.00 "/><path d="M177.87,142.84 L177.87,89.95 "/><path d="M176.91,-0.00 L176.91,66.30 "/><path d="M177.87,142.84 L179.88,144.00 "/><path d="M177.87,66.86 L177.87,-0.00 "/><path d="M179.91,146.73 L179.89,146.90 L180.01,147.05 "/><path d="M182.20,147.77 L182.20,133.28 "/><path d="M181.61,134.06 L181.42,134.12 L181.27,134.08 L180.08,133.40 L180.08,147.11 "/><path d="M179.88,146.83 L179.88,132.93 L179.92,133.19 L180.01,133.35 L180.08,133.40 "/><path d="M180.08,127.76 L180.08,127.64 "/><path d="M180.08,127.62 L180.08,127.58 "/><path d="M180.08,127.76 L179.94,127.56 L179.90,127.44 L180.21,127.63 L179.90,127.44 "/><path d="M180.08,88.67 L180.08,127.53 L181.22,128.20 L180.21,127.63 L181.22,128.22 L181.24,-0.00 "/><path d="M179.89,127.47 L179.88,88.78 "/><path d="M179.92,127.45 L180.19,127.61 "/><path d="M179.95,127.47 L180.08,127.53 "/><path d="M179.98,127.47 L180.21,127.61 L179.96,127.46 "/><path d="M180.01,127.50 L180.21,127.61 L180.04,127.51 "/><path d="M180.08,-0.00 L180.08,68.14 "/><path d="M179.88,0.00 L179.88,68.02 "/><path d="M192.94,141.50 L192.96,141.39 L192.94,141.29 "/><path d="M181.24,147.77 L181.24,134.06 "/><path d="M182.20,128.98 L182.20,0.00 "/><path d="M181.22,128.20 L181.61,128.44 "/><path d="M181.30,128.23 L181.36,128.27 L181.22,128.20 L181.42,128.31 L181.22,128.20 L181.32,128.25 "/><path d="M181.40,128.29 L181.36,128.27 "/><path d="M181.42,128.31 L181.57,128.41 "/><path d="M181.22,128.22 L181.53,128.38 "/><path d="M181.22,128.20 L181.38,128.29 "/><path d="M192.76,141.67 L192.76,0.00 "/><path d="M192.96,141.39 L192.96,-0.00 "/></g></g><g id="Actor_.4"><g style="stroke:#000000;stroke-width:0.353"><path d="M119.47,117.44 C119.47,122.46 119.47,132.52 119.47,147.61 C119.45,147.77 119.46,147.77 119.43,147.93 C119.38,148.06 119.38,148.06 119.32,148.18 "/><path d="M118.42,148.32 C115.53,146.66 115.53,146.66 112.65,144.99 C112.50,144.87 112.50,144.87 112.35,144.75 C112.26,144.65 112.26,144.65 112.17,144.54 C112.05,144.37 112.05,144.37 111.93,144.19 C111.87,144.07 111.86,144.07 111.80,143.94 C111.73,143.75 111.73,143.75 111.66,143.55 C111.63,143.43 111.63,143.43 111.61,143.30 C111.60,142.99 111.60,142.99 111.59,142.68 "/><path d="M111.59,142.31 C111.59,122.72 111.59,122.72 111.59,103.13 C111.60,103.02 111.60,103.02 111.61,102.91 C111.64,102.81 111.64,102.81 111.66,102.71 C111.70,102.63 111.70,102.63 111.75,102.55 C111.80,102.49 111.80,102.49 111.86,102.43 C111.93,102.39 111.93,102.39 112.01,102.35 "/><path d="M112.01,102.35 C112.09,102.33 112.09,102.33 112.17,102.31 C112.26,102.31 112.26,102.31 112.35,102.32 C112.45,102.34 112.45,102.34 112.55,102.37 C112.65,102.42 112.65,102.42 112.76,102.47 "/><path d="M113.51,101.13 C113.35,101.05 113.35,101.05 113.18,100.97 C113.10,100.95 113.10,100.94 113.02,100.92 C112.86,100.89 112.86,100.89 112.70,100.87 C112.56,100.88 112.56,100.88 112.41,100.90 C112.28,100.94 112.28,100.94 112.16,101.00 C112.05,101.08 112.05,101.08 111.94,101.17 C111.89,101.22 111.89,101.22 111.85,101.28 C111.78,101.41 111.78,101.41 111.71,101.55 C111.66,101.71 111.66,101.71 111.62,101.87 C111.60,102.18 111.60,102.18 111.59,102.49 "/><path d="M111.59,71.34 C111.59,63.94 111.59,63.94 111.59,56.54 C111.61,56.38 111.61,56.38 111.63,56.22 C111.69,56.09 111.69,56.09 111.75,55.97 "/><path d="M127.83,62.81 C120.67,58.68 120.67,58.68 113.51,54.55 C113.35,54.46 113.35,54.46 113.18,54.39 C113.02,54.34 113.02,54.34 112.86,54.30 C112.71,54.29 112.71,54.29 112.56,54.29 C112.48,54.30 112.48,54.30 112.41,54.31 C112.28,54.36 112.28,54.36 112.16,54.41 C112.05,54.49 112.05,54.50 111.94,54.58 C111.90,54.64 111.89,54.64 111.85,54.69 C111.78,54.83 111.78,54.83 111.71,54.96 C111.66,55.12 111.66,55.13 111.62,55.29 C111.61,55.47 111.61,55.47 111.59,55.66 C111.59,55.96 111.59,56.02 111.59,56.27 "/><path d="M112.76,74.08 C114.31,74.97 114.31,74.97 115.86,75.88 C116.10,76.05 116.10,76.06 116.32,76.24 C116.55,76.46 116.55,76.46 116.76,76.68 C116.87,76.80 116.87,76.80 116.97,76.92 C117.17,77.19 117.17,77.19 117.36,77.46 C117.45,77.60 117.45,77.60 117.53,77.74 C117.68,78.03 117.68,78.03 117.83,78.33 C117.95,78.63 117.95,78.63 118.07,78.93 C118.11,79.08 118.11,79.08 118.16,79.23 C118.22,79.53 118.22,79.53 118.28,79.83 C118.29,79.97 118.29,79.97 118.31,80.11 "/><path d="M118.31,80.11 C118.32,91.48 118.32,91.48 118.31,102.84 C118.28,103.08 118.27,103.08 118.23,103.32 C118.15,103.53 118.15,103.54 118.07,103.74 C117.95,103.91 117.95,103.91 117.83,104.07 C117.69,104.20 117.68,104.20 117.53,104.32 C117.45,104.36 117.44,104.36 117.36,104.40 C117.17,104.45 117.17,104.45 116.97,104.49 C116.76,104.48 116.76,104.48 116.55,104.47 C116.32,104.41 116.32,104.41 116.10,104.35 C115.86,104.24 115.86,104.24 115.63,104.13 "/><path d="M128.79,64.47 C128.78,68.94 128.78,68.96 128.79,73.45 C128.83,73.66 128.83,73.66 128.88,73.87 C128.97,74.08 128.97,74.08 129.07,74.29 C129.13,74.39 129.13,74.39 129.20,74.49 C129.31,74.62 129.31,74.63 129.42,74.75 C129.58,74.89 129.58,74.89 129.75,75.01 "/><path d="M112.16,54.41 C122.91,48.20 122.91,48.20 133.67,41.99 C133.73,41.96 133.73,41.96 133.80,41.93 C133.93,41.90 133.93,41.89 134.07,41.87 C134.26,41.88 134.26,41.88 134.45,41.90 "/><path d="M116.40,102.80 C116.48,102.84 116.48,102.84 116.56,102.88 C116.73,102.95 116.73,102.95 116.89,103.01 C117.05,103.03 117.05,103.04 117.21,103.06 C117.35,103.05 117.35,103.05 117.50,103.03 C117.63,102.98 117.63,102.98 117.76,102.93 C117.86,102.85 117.87,102.85 117.97,102.76 C118.06,102.64 118.06,102.64 118.14,102.52 C118.20,102.37 118.20,102.37 118.25,102.22 C118.27,102.14 118.27,102.14 118.29,102.05 C118.30,101.88 118.30,101.88 118.32,101.70 "/><path d="M118.32,148.27 C118.78,148.54 118.78,148.54 119.25,148.80 C119.42,148.87 119.42,148.87 119.58,148.93 C119.66,148.95 119.66,148.95 119.74,148.96 C119.90,148.97 119.90,148.97 120.05,148.97 C120.12,148.96 120.12,148.96 120.19,148.95 C120.32,148.90 120.32,148.90 120.45,148.85 C120.50,148.81 120.50,148.81 120.56,148.77 C120.66,148.67 120.66,148.67 120.75,148.57 C120.82,148.43 120.82,148.43 120.89,148.30 C120.94,148.14 120.94,148.14 120.98,147.97 C121.00,147.79 121.00,147.79 121.01,147.61 "/><path d="M121.75,116.98 C121.38,116.76 121.38,116.76 121.01,116.55 C120.87,116.48 120.87,116.48 120.74,116.42 C120.55,116.38 120.55,116.38 120.36,116.34 C120.24,116.35 120.24,116.35 120.13,116.36 C120.07,116.38 120.07,116.38 120.02,116.39 C119.92,116.45 119.92,116.45 119.83,116.50 C119.75,116.58 119.75,116.58 119.68,116.67 "/><path d="M134.84,136.36 C134.84,138.08 134.84,138.08 134.83,139.81 C134.81,139.98 134.80,139.98 134.77,140.16 C134.75,140.23 134.75,140.23 134.72,140.31 C134.65,140.45 134.66,140.45 134.58,140.58 C134.49,140.69 134.49,140.69 134.39,140.79 C127.42,144.82 127.42,144.83 120.45,148.85 "/><path d="M121.01,117.44 C121.01,117.36 121.01,117.36 121.02,117.29 C121.05,117.20 121.05,117.20 121.08,117.10 C121.11,117.05 121.11,117.05 121.15,117.01 C121.19,116.97 121.19,116.97 121.24,116.94 "/><path d="M121.39,116.89 C121.45,116.89 121.45,116.89 121.51,116.89 C121.58,116.91 121.58,116.91 121.64,116.93 C121.73,116.97 121.73,116.97 121.82,117.02 "/><path d="M128.87,110.22 C128.70,110.13 128.70,110.13 128.52,110.05 C128.39,110.01 128.39,110.01 128.26,109.97 C128.14,109.97 128.14,109.97 128.02,109.97 C127.91,109.99 127.91,109.99 127.80,110.02 C127.75,110.04 127.75,110.04 127.70,110.06 C127.61,110.13 127.61,110.13 127.53,110.20 C127.46,110.29 127.46,110.29 127.39,110.39 C127.35,110.51 127.35,110.51 127.30,110.63 C127.28,110.77 127.28,110.77 127.26,110.91 "/><path d="M128.79,119.93 C128.78,120.02 128.78,120.03 128.77,120.12 C128.74,120.23 128.74,120.23 128.70,120.35 C128.66,120.41 128.66,120.41 128.61,120.47 C128.56,120.51 128.56,120.51 128.51,120.55 C128.44,120.58 128.44,120.58 128.38,120.60 C128.31,120.61 128.31,120.61 128.23,120.62 C128.16,120.61 128.15,120.61 128.08,120.59 C127.97,120.55 127.97,120.55 127.86,120.50 "/><path d="M127.25,73.35 C127.28,73.62 127.28,73.62 127.31,73.90 C127.39,74.19 127.39,74.19 127.48,74.48 C127.62,74.77 127.62,74.77 127.76,75.05 C127.93,75.32 127.93,75.32 128.12,75.58 C128.32,75.80 128.32,75.80 128.53,76.02 C128.75,76.18 128.75,76.18 128.98,76.34 "/><path d="M127.83,62.81 C127.99,62.94 127.99,62.94 128.16,63.07 C128.23,63.15 128.23,63.15 128.31,63.24 C128.41,63.38 128.41,63.38 128.51,63.53 C128.61,63.74 128.61,63.74 128.70,63.95 C128.74,64.11 128.74,64.11 128.77,64.27 C128.78,64.37 128.78,64.37 128.79,64.47 "/><path d="M128.93,110.63 C128.97,110.59 128.97,110.59 129.01,110.56 C129.06,110.54 129.06,110.54 129.12,110.52 C129.17,110.51 129.17,110.51 129.23,110.51 C129.33,110.53 129.33,110.53 129.42,110.55 C129.49,110.58 129.49,110.58 129.56,110.62 "/><path d="M142.43,128.63 C142.43,124.12 142.43,124.14 142.42,119.66 C142.40,119.50 142.40,119.50 142.38,119.33 C142.30,119.07 142.30,119.07 142.22,118.82 C142.15,118.64 142.15,118.64 142.07,118.47 C141.92,118.23 141.92,118.23 141.77,117.99 C141.60,117.78 141.60,117.78 141.42,117.57 C141.29,117.45 141.29,117.45 141.16,117.34 C141.03,117.25 141.03,117.25 140.90,117.17 C135.39,113.98 135.39,113.98 129.87,110.80 "/><path d="M140.70,83.11 C140.85,83.18 140.85,83.18 141.00,83.25 C141.14,83.29 141.14,83.29 141.29,83.33 C141.43,83.34 141.43,83.34 141.56,83.34 C141.69,83.31 141.69,83.31 141.81,83.28 C141.87,83.26 141.87,83.26 141.92,83.23 C141.97,83.20 141.97,83.20 142.02,83.16 C142.11,83.07 142.11,83.07 142.20,82.97 C142.26,82.86 142.26,82.85 142.32,82.73 C142.35,82.66 142.35,82.66 142.37,82.59 C142.40,82.44 142.40,82.44 142.42,82.28 C142.43,81.83 142.43,81.83 142.43,81.39 "/><path d="M141.47,81.78 C141.55,81.82 141.55,81.82 141.63,81.86 C141.71,81.88 141.72,81.88 141.80,81.90 C141.91,81.90 141.91,81.90 142.02,81.90 "/><path d="M142.02,81.90 C142.08,81.87 142.08,81.87 142.15,81.84 C142.20,81.80 142.20,81.80 142.25,81.76 C142.30,81.70 142.30,81.70 142.34,81.64 C142.39,81.51 142.39,81.51 142.43,81.39 "/><path d="M143.64,129.62 C143.12,129.32 143.12,129.32 142.60,129.02 C142.56,128.97 142.56,128.97 142.51,128.92 C142.48,128.87 142.48,128.87 142.45,128.82 C142.44,128.77 142.44,128.77 142.43,128.71 C142.43,128.16 142.43,128.14 142.43,127.61 "/><path d="M142.43,72.35 C142.43,72.26 142.43,72.26 142.44,72.16 C142.48,72.05 142.48,72.05 142.52,71.93 C142.56,71.87 142.56,71.87 142.60,71.81 C142.65,71.77 142.66,71.77 142.71,71.73 "/><path d="M142.91,71.67 C142.98,71.67 142.98,71.67 143.06,71.67 C143.14,71.69 143.14,71.69 143.22,71.71 C143.31,71.75 143.31,71.75 143.39,71.79 "/><path d="M158.06,64.30 C157.64,64.05 157.64,64.05 157.22,63.81 C157.10,63.75 157.10,63.75 156.97,63.70 C156.86,63.69 156.86,63.69 156.74,63.68 "/><path d="M143.64,129.62 C146.17,131.07 146.17,131.07 148.69,132.53 C148.81,132.61 148.81,132.61 148.94,132.70 C149.13,132.88 149.13,132.88 149.32,133.06 C149.49,133.28 149.49,133.28 149.66,133.51 C149.76,133.67 149.76,133.67 149.85,133.83 C149.93,134.01 149.93,134.01 150.00,134.18 C150.08,134.43 150.08,134.43 150.16,134.69 C150.19,134.94 150.19,134.94 150.21,135.18 "/><path d="M150.21,163.78 C150.21,164.57 150.21,164.57 150.21,165.35 C150.23,165.54 150.22,165.54 150.25,165.72 C150.30,165.91 150.30,165.91 150.36,166.11 C150.45,166.30 150.45,166.30 150.55,166.49 C150.65,166.64 150.65,166.64 150.75,166.79 C150.86,166.92 150.86,166.92 150.97,167.04 C151.06,167.13 151.06,167.13 151.16,167.21 C151.26,167.28 151.26,167.28 151.36,167.35 C154.21,169.00 154.21,169.00 157.06,170.64 "/><path d="M154.82,98.36 C154.44,98.14 154.44,98.14 154.06,97.92 C153.82,97.80 153.82,97.80 153.58,97.69 C153.36,97.63 153.36,97.63 153.13,97.57 C153.02,97.56 153.02,97.56 152.91,97.55 C152.71,97.57 152.71,97.57 152.51,97.59 C152.41,97.61 152.41,97.61 152.32,97.64 C152.23,97.68 152.23,97.68 152.15,97.73 C152.00,97.84 151.99,97.84 151.85,97.97 C151.73,98.13 151.73,98.13 151.61,98.30 C151.57,98.40 151.57,98.40 151.52,98.50 C151.46,98.73 151.46,98.73 151.40,98.95 C151.38,99.08 151.38,99.08 151.37,99.20 "/><path d="M151.37,99.20 C151.37,110.39 151.37,110.43 151.36,121.65 C151.37,121.79 151.36,121.79 151.37,121.93 C151.41,122.22 151.41,122.22 151.45,122.51 C151.49,122.66 151.49,122.66 151.52,122.81 C151.62,123.11 151.62,123.11 151.72,123.41 C151.78,123.56 151.78,123.56 151.85,123.71 C152.00,124.01 152.00,124.01 152.15,124.30 C152.24,124.45 152.24,124.45 152.33,124.59 C152.52,124.86 152.51,124.86 152.71,125.12 C152.87,125.30 152.87,125.30 153.03,125.48 C153.19,125.64 153.19,125.65 153.36,125.80 C153.58,125.99 153.58,125.98 153.82,126.16 C153.93,126.24 153.93,126.24 154.05,126.31 C155.49,127.14 155.49,127.14 156.93,127.97 C157.08,128.08 157.08,128.08 157.23,128.19 C157.33,128.28 157.33,128.28 157.42,128.38 C157.51,128.49 157.51,128.49 157.59,128.60 C157.74,128.84 157.74,128.84 157.88,129.09 C157.95,129.28 157.95,129.28 158.02,129.47 C158.04,129.60 158.04,129.60 158.07,129.73 C158.08,129.85 158.08,129.85 158.09,129.97 "/><path d="M158.09,169.90 C158.08,170.01 158.08,170.01 158.07,170.12 C158.04,170.22 158.04,170.22 158.02,170.32 C157.98,170.40 157.98,170.40 157.93,170.48 C157.88,170.54 157.87,170.54 157.82,170.60 C157.75,170.64 157.75,170.64 157.67,170.68 C157.59,170.70 157.59,170.70 157.51,170.72 C157.42,170.72 157.42,170.72 157.33,170.71 C157.19,170.68 157.19,170.68 157.06,170.64 "/><path d="M157.06,170.64 C157.46,170.87 157.46,170.87 157.87,171.10 C158.03,171.16 158.03,171.16 158.20,171.22 C158.28,171.24 158.28,171.24 158.36,171.26 C158.51,171.26 158.51,171.26 158.66,171.27 C158.80,171.24 158.80,171.24 158.94,171.20 C159.00,171.18 159.00,171.17 159.06,171.14 C159.12,171.11 159.12,171.11 159.17,171.07 C159.27,170.97 159.27,170.97 159.37,170.86 C159.44,170.73 159.44,170.73 159.51,170.59 C159.55,170.43 159.55,170.43 159.59,170.27 C159.61,170.09 159.61,170.08 159.62,169.90 "/><path d="M173.45,161.91 C173.44,162.10 173.44,162.10 173.42,162.28 C173.38,162.44 173.38,162.45 173.34,162.61 C173.27,162.74 173.27,162.74 173.20,162.88 C173.10,162.98 173.10,162.98 173.00,163.08 C172.95,163.12 172.95,163.12 172.89,163.16 "/><path d="M152.90,99.47 C152.90,99.38 152.90,99.38 152.91,99.28 C152.93,99.10 152.93,99.10 152.96,98.93 C152.99,98.85 152.99,98.85 153.01,98.78 C153.08,98.64 153.08,98.64 153.16,98.51 C153.25,98.40 153.25,98.40 153.35,98.30 C153.40,98.26 153.40,98.26 153.46,98.22 C153.59,98.17 153.59,98.17 153.72,98.12 C153.86,98.11 153.86,98.11 154.01,98.10 C154.17,98.12 154.17,98.12 154.32,98.15 C154.49,98.21 154.50,98.21 154.66,98.27 C154.84,98.37 154.84,98.37 155.01,98.47 "/><path d="M154.82,124.98 C154.57,124.80 154.57,124.80 154.32,124.62 C154.16,124.46 154.16,124.46 154.01,124.30 C153.86,124.12 153.86,124.12 153.72,123.94 C153.59,123.75 153.59,123.74 153.46,123.55 C153.35,123.34 153.35,123.34 153.25,123.12 C153.13,122.80 153.13,122.80 153.01,122.48 C152.97,122.27 152.97,122.27 152.93,122.05 C152.91,121.85 152.91,121.85 152.90,121.65 "/><path d="M166.73,112.78 C166.75,113.06 166.75,113.06 166.77,113.34 C166.83,113.64 166.83,113.64 166.89,113.93 C166.94,114.09 166.94,114.09 166.98,114.24 C167.10,114.54 167.10,114.54 167.22,114.84 C167.36,115.14 167.36,115.14 167.52,115.43 C167.69,115.71 167.70,115.71 167.88,115.98 C167.97,116.11 167.98,116.11 168.08,116.24 C168.29,116.48 168.29,116.48 168.50,116.72 C168.72,116.92 168.72,116.92 168.95,117.12 C169.18,117.28 169.18,117.28 169.42,117.44 "/><path d="M181.14,87.60 C181.13,87.69 181.13,87.69 181.12,87.78 C181.09,87.90 181.09,87.90 181.05,88.02 C181.01,88.08 181.01,88.08 180.97,88.14 "/><path d="M156.93,81.39 C157.03,81.46 157.03,81.46 157.13,81.52 C157.23,81.61 157.23,81.61 157.33,81.70 C157.46,81.85 157.46,81.85 157.59,82.01 C157.67,82.13 157.67,82.13 157.75,82.25 C157.87,82.50 157.87,82.50 157.98,82.76 C158.01,82.89 158.01,82.89 158.05,83.02 C158.07,83.14 158.07,83.14 158.08,83.27 "/><path d="M157.70,126.64 C157.87,126.75 157.87,126.75 158.04,126.87 C158.28,127.09 158.28,127.09 158.51,127.32 C158.66,127.50 158.66,127.50 158.80,127.68 C158.93,127.88 158.93,127.88 159.06,128.08 C159.17,128.29 159.17,128.29 159.28,128.50 C159.39,128.82 159.39,128.82 159.51,129.14 C159.55,129.36 159.55,129.36 159.59,129.57 C159.61,129.77 159.61,129.77 159.62,129.97 "/><path d="M173.45,121.98 C173.46,121.48 173.46,121.48 173.45,120.98 C173.42,120.79 173.42,120.79 173.39,120.60 C173.35,120.47 173.35,120.47 173.30,120.34 C173.17,120.09 173.18,120.09 173.04,119.84 C172.87,119.62 172.87,119.62 172.70,119.41 C172.55,119.28 172.55,119.28 172.40,119.16 C171.97,118.91 171.97,118.91 171.53,118.66 "/><path d="M157.91,100.14 C158.33,100.39 158.33,100.39 158.75,100.62 C158.87,100.67 158.87,100.66 158.99,100.70 C159.07,100.71 159.07,100.71 159.14,100.71 "/><path d="M181.14,87.60 C181.14,78.65 181.14,78.78 181.13,69.96 C181.11,69.77 181.11,69.77 181.07,69.58 C181.00,69.38 181.00,69.38 180.93,69.19 C180.87,69.06 180.87,69.06 180.80,68.94 C180.68,68.76 180.68,68.76 180.56,68.59 C180.47,68.49 180.47,68.49 180.38,68.39 C180.24,68.26 180.24,68.26 180.09,68.14 C179.65,67.89 179.65,67.89 179.21,67.64 "/><path d="M179.21,67.64 C179.38,67.75 179.38,67.75 179.55,67.86 C179.72,68.01 179.72,68.01 179.88,68.16 C180.10,68.41 180.10,68.41 180.32,68.67 C180.45,68.87 180.45,68.87 180.58,69.07 C180.73,69.38 180.73,69.39 180.88,69.70 C180.96,69.92 180.95,69.92 181.02,70.14 C181.07,70.35 181.07,70.35 181.11,70.56 C181.13,70.76 181.13,70.76 181.14,70.96 "/><path d="M159.62,83.40 C159.61,83.19 159.61,83.19 159.59,82.98 C159.55,82.77 159.55,82.77 159.51,82.56 C159.44,82.34 159.44,82.34 159.37,82.13 C159.22,81.81 159.22,81.81 159.06,81.49 C158.93,81.29 158.93,81.29 158.80,81.09 C158.58,80.83 158.58,80.83 158.36,80.57 C158.20,80.42 158.20,80.42 158.04,80.28 C157.87,80.17 157.87,80.17 157.70,80.06 "/><path d="M172.21,63.73 C172.28,63.74 172.28,63.74 172.36,63.74 C172.44,63.76 172.44,63.76 172.52,63.78 C172.60,63.82 172.60,63.82 172.69,63.86 "/><path d="M168.65,116.99 C168.40,116.82 168.40,116.81 168.15,116.63 C167.99,116.48 168.00,116.47 167.84,116.32 C167.69,116.14 167.69,116.14 167.55,115.96 C167.42,115.76 167.42,115.76 167.29,115.56 C167.18,115.35 167.18,115.35 167.08,115.14 C166.96,114.82 166.96,114.82 166.85,114.49 C166.80,114.28 166.80,114.28 166.76,114.07 C166.74,113.87 166.74,113.87 166.73,113.67 "/><path d="M169.63,117.56 C170.67,118.16 170.67,118.16 171.70,118.76 C171.87,118.89 171.87,118.89 172.03,119.02 C172.19,119.17 172.19,119.17 172.34,119.33 C172.56,119.61 172.56,119.61 172.77,119.89 C172.94,120.20 172.94,120.20 173.11,120.51 C173.23,120.83 173.23,120.83 173.34,121.16 C173.40,121.47 173.40,121.47 173.45,121.79 "/><path d="M119.47,147.61 L121.01,147.61 L121.01,117.44 L119.47,117.44 "/><path d="M119.32,148.18 L119.13,148.35 L118.98,148.41 L118.71,148.42 L118.42,148.32 "/><path d="M111.59,142.68 L111.59,143.04 "/><path d="M111.59,142.68 L111.59,141.67 L111.59,142.68 "/><path d="M112.76,102.47 L112.76,102.44 L113.51,101.13 L116.40,102.80 L115.63,104.13 L112.76,102.47 "/><path d="M111.59,103.49 L111.59,102.49 L111.59,103.13 "/><path d="M118.32,98.36 L113.51,101.13 "/><path d="M111.79,73.51 L112.76,74.08 L111.77,73.50 L111.66,73.39 L111.59,73.20 L111.59,72.34 L111.59,73.17 "/><path d="M111.59,72.34 L111.59,71.34 L111.59,72.86 "/><path d="M111.75,55.97 L111.93,55.80 L112.17,55.72 L112.45,55.75 L112.76,55.88 L112.76,55.85 L113.51,54.55 L134.45,42.46 "/><path d="M111.59,57.27 L111.59,56.27 L111.59,56.54 "/><path d="M134.45,58.98 L127.83,62.81 "/><path d="M112.16,101.00 L118.32,97.44 "/><path d="M112.76,55.88 L127.06,64.14 L127.19,64.28 L127.25,64.47 L128.79,64.47 "/><path d="M129.75,75.01 L137.05,70.80 "/><path d="M118.32,101.70 L116.40,102.80 "/><path d="M121.01,147.61 L134.84,139.62 L134.84,139.53 "/><path d="M121.03,116.56 L121.75,116.98 "/><path d="M119.68,116.67 L119.52,117.01 L119.47,117.44 "/><path d="M121.75,116.98 L121.78,116.99 L121.01,117.44 "/><path d="M121.24,116.94 L121.39,116.89 "/><path d="M121.82,117.02 L121.75,116.98 "/><path d="M128.81,110.18 L128.87,110.22 "/><path d="M127.26,110.91 L127.25,119.93 L127.23,120.02 L127.19,120.06 L127.08,120.05 L127.83,120.49 L121.82,117.02 "/><path d="M126.85,119.92 L127.86,120.50 L127.83,120.49 "/><path d="M127.25,119.93 L128.79,119.93 "/><path d="M127.25,111.06 L128.79,111.06 L128.79,119.93 L137.24,115.05 "/><path d="M135.13,69.69 L128.79,73.35 L127.25,73.35 "/><path d="M128.98,76.34 L129.75,75.01 L141.47,81.78 L140.70,83.11 L128.98,76.34 "/><path d="M127.25,64.47 L127.25,73.35 "/><path d="M127.06,64.14 L127.83,62.81 "/><path d="M128.79,64.47 L134.45,61.20 "/><path d="M128.51,120.55 L134.84,116.90 L134.84,136.65 "/><path d="M128.79,111.06 L128.83,110.78 L128.93,110.63 "/><path d="M129.56,110.62 L128.79,111.06 "/><path d="M129.52,110.59 L129.54,110.60 L129.40,110.53 L129.52,110.59 "/><path d="M129.54,110.60 L129.87,110.80 L129.54,110.60 "/><path d="M129.40,110.53 L128.87,110.22 L129.40,110.53 "/><path d="M131.89,110.72 L131.89,110.75 L134.27,112.12 L137.96,104.87 L137.96,103.16 L130.91,99.09 L130.91,101.04 L135.58,103.73 L131.89,110.72 "/><path d="M131.89,110.75 L132.84,110.18 L134.71,111.27 "/><path d="M130.91,101.04 L131.89,100.49 L131.89,99.66 "/><path d="M131.93,89.14 L131.93,87.52 L130.97,88.08 L130.97,89.70 L131.93,89.14 L138.90,93.17 "/><path d="M130.97,89.70 L138.90,94.28 L138.90,92.37 L133.81,89.43 L138.81,84.74 L138.81,83.14 L131.12,78.69 L131.12,80.59 L135.97,83.40 L130.97,88.08 "/><path d="M131.12,80.59 L132.08,80.04 L136.92,82.83 L136.92,82.85 L135.97,83.40 "/><path d="M132.84,110.18 L136.54,103.18 L135.58,103.73 "/><path d="M136.54,103.18 L131.89,100.49 "/><path d="M131.93,87.52 L136.92,82.85 "/><path d="M132.08,80.04 L132.08,79.25 "/><path d="M134.45,50.00 L133.88,50.33 L134.45,50.66 L133.91,50.35 "/><path d="M134.84,116.90 L137.64,115.28 "/><path d="M134.45,50.66 L134.22,50.53 L134.24,50.54 "/><path d="M142.43,81.39 L142.43,82.04 "/><path d="M142.43,81.39 L142.43,81.22 L141.47,81.78 "/><path d="M142.96,129.22 L143.64,129.62 "/><path d="M142.43,127.61 L142.43,127.95 "/><path d="M142.43,81.32 L142.43,80.38 L142.43,81.39 L142.43,73.22 L142.47,73.12 L142.54,73.10 L142.62,73.12 L143.39,71.79 L157.70,80.06 L156.93,81.39 L142.62,73.12 "/><path d="M142.43,73.24 L142.43,72.35 L142.43,73.35 "/><path d="M142.71,71.73 L142.91,71.67 "/><path d="M143.39,71.79 L157.22,63.81 L158.06,64.30 "/><path d="M156.74,63.68 L156.60,63.71 L156.48,63.78 "/><path d="M142.71,71.73 L156.54,63.74 "/><path d="M150.21,135.18 L150.21,165.29 "/><path d="M157.06,170.64 L156.93,170.57 "/><path d="M150.21,162.78 L150.21,163.13 "/><path d="M151.36,121.65 L152.90,121.65 L152.90,99.47 L154.82,98.36 "/><path d="M158.09,129.97 L159.62,129.97 L159.62,169.90 L158.09,169.90 "/><path d="M159.62,169.90 L173.45,161.91 "/><path d="M172.89,163.16 L159.06,171.14 "/><path d="M151.36,99.47 L152.90,99.47 "/><path d="M155.01,98.47 L154.15,97.97 "/><path d="M154.05,126.31 L154.82,124.98 "/><path d="M152.90,121.65 L166.73,113.67 L166.73,112.78 "/><path d="M169.42,117.44 L168.67,117.00 "/><path d="M156.93,127.97 L157.70,126.64 L154.82,124.98 L168.65,116.99 L168.81,117.09 "/><path d="M155.01,98.47 L157.93,100.15 L157.99,100.16 L158.04,100.14 L158.09,100.02 L159.62,100.02 L181.14,87.60 "/><path d="M180.97,88.14 L180.79,88.25 "/><path d="M157.06,99.65 L158.06,100.23 L157.89,100.13 "/><path d="M158.08,83.27 L158.09,100.02 "/><path d="M159.62,129.97 L173.45,121.98 "/><path d="M171.53,118.66 L157.70,126.64 "/><path d="M159.14,100.71 L159.34,100.64 L159.49,100.50 L159.59,100.29 L159.62,100.02 L159.62,83.40 L158.09,83.40 "/><path d="M181.14,70.96 L159.62,83.40 "/><path d="M157.70,80.06 L179.21,67.64 L172.69,63.86 L165.00,68.30 L163.31,67.32 L163.42,67.39 "/><path d="M157.30,63.86 L157.22,63.81 L157.61,64.03 "/><path d="M158.06,64.30 L161.08,66.04 L160.08,65.46 "/><path d="M157.39,63.90 L157.22,63.81 L157.35,63.88 "/><path d="M157.22,63.81 L157.28,63.84 "/><path d="M158.09,169.90 L158.09,129.97 "/><path d="M158.75,100.62 L158.50,100.48 "/><path d="M159.34,100.64 L166.73,96.38 L166.73,112.78 "/><path d="M160.68,65.80 L160.55,65.73 L162.09,66.62 L161.56,66.32 "/><path d="M161.08,66.04 L161.51,66.28 "/><path d="M162.09,66.62 L163.10,67.20 L162.09,66.62 "/><path d="M164.11,67.78 L164.46,67.99 "/><path d="M163.10,67.20 L163.31,67.32 "/><path d="M164.76,68.16 L164.61,68.07 L172.01,63.80 L172.21,63.73 "/><path d="M164.78,68.17 L164.68,68.11 "/><path d="M165.00,68.30 L164.81,68.19 "/><path d="M164.84,68.20 L164.97,68.28 "/><path d="M166.73,113.54 L166.73,112.54 "/><path d="M166.73,97.46 L166.73,96.46 "/><path d="M166.73,96.38 L180.86,88.22 "/><path d="M169.14,117.27 L169.63,117.56 L169.42,117.44 "/><path d="M173.45,121.79 L173.45,161.91 "/><path d="M171.37,118.56 L172.16,119.02 "/><path d="M171.95,63.84 L172.01,63.80 "/><path d="M176.19,65.88 L175.19,65.31 "/><path d="M179.39,67.74 L179.42,67.75 "/></g></g><g id="paperID" visibility="hidden" opacity="0.00" transform="scale(0.000100)"><path style="stroke:#000000;stroke-width:0.500;fill:#e6e6e6;fill-rule:evenodd" d="M-2000.00,-2000.00L2297.00,-2000.00L2297.00,2210.00L-2000.00,2210.00zM0.00,0.00L297.00,0.00L297.00,210.00L0.00,210.00z"/><path style="fill:#000000;fill-opacity:0.118" d="M3.00,210.00L297.00,210.00L297.00,3.00L300.00,3.00L300.00,213.00L3.00,213.00z"/></g><g id="ToolTip" visibility="hidden" opacity="0" transform="translate(0,0)"><rect id="ToolTipShadow" opacity="0.20" fill="black" stroke="none" x="0" y="0" width="30" height="8"/><rect id="ToolTipBG" fill="#ffffe1" stroke="black" x="0" y="0" width="30" height="8"/><text xml:space="preserve" id="ToolTipText" fill="black" x="0" y="0" width="30" height="8">tooltip</text></g></g></svg>
