<?xml version="1.0" encoding="UTF-8" standalone="no"?>
<svg xmlns="http://www.w3.org/2000/svg" xmlns:xlink="http://www.w3.org/1999/xlink" width="2000.000mm" height="1700.000mm" viewBox="0.000000 0.000000 2000.000000 1700.000000" stroke-linejoin="round" stroke-linecap="round" fill="none" fill-rule="evenodd"><desc>Composer Export</desc><script type="text/ecmascript"><![CDATA[
if(typeof(top) != "undefined")
{
	top.ShowPaper = ShowPaper;
}
function ShowHotSpot(evt,hotspotid)
{
	var svgDocument = evt.target.ownerDocument;
	var strId = "hotspot."+hotspotid;
	var hotspot = svgDocument.getElementById(strId);
	if(hotspot)
		hotspot.setAttribute("opacity",".5");
}
function HideHotSpot(evt,hotspotid)
{
	var svgDocument = evt.target.ownerDocument;
	var strId = "hotspot."+hotspotid;
	var hotspot = svgDocument.getElementById(strId);
	if(hotspot)
		hotspot.setAttribute("opacity","0");

	var toolTip = svgDocument.getElementById('ToolTip');
	if(toolTip)
		toolTip.setAttribute("visibility","hidden");
}
function ShowToolTip(evt,hotspotid,strTooltip)
{
	if(strTooltip=="")
	return;

	// change text
	var svgDocument = evt.target.ownerDocument;
	var tiptext = svgDocument.getElementById('ToolTipText');
	if( !tiptext )
	return;
	tiptext.firstChild.nodeValue = " " + strTooltip + "  " ;

	// show tooltip before, else some refresh issue

	var toolTip = svgDocument.getElementById('ToolTip');
	if(!toolTip)
	return;

	toolTip.setAttribute("visibility","visible");
	toolTip.setAttribute("opacity",".95");

	// move tooltip
	// get viewbox

	var root = svgDocument.documentElement;
	var vbox = (root.getAttribute("viewBox")).split(' ');
	var x0 = parseFloat(vbox[0]);
	var y0 = parseFloat(vbox[1]);
	var vboxW = parseFloat(vbox[2]);
	var vboxH = parseFloat(vbox[3]);

	// get default width of svg

	var strW = root.getAttribute("width");
	var svgW = parseFloat(strW);
	if(strW.indexOf('mm') != -1)
	svgW *= 3.779;

	var strH = root.getAttribute("height");
	var svgH = parseFloat(strH);
	if(strH.indexOf('mm') != -1)
	svgH *= 3.779;  	// 96 dpi  -> 96/25.4 = 3.779

	// update the viewbox / width / height if svg is embedded in html with zoom fit all
	var realx0 = x0;
	var realy0 = y0;
	var realvboxW = vboxW;
	var realvboxH = vboxH;
	var realsvgW = svgW;
	var realsvgH = svgH;

	if ((typeof(top) == "undefined") || (typeof(top.svgctl1) != "undefined")) // embedded in html
	{
		// get window size in pxl

		svgW = window.innerWidth;
		svgH = window.innerHeight;

		// calculate real viewbox

		realsvgW = svgW;
		realsvgH = svgH;
		if((svgW / svgH) > (vboxW / vboxH))
		{
			realvboxW = (vboxH * svgW) / svgH;
			realvboxH = vboxH;
			realx0 = x0 - (realvboxW - vboxW)/2 ;
		}
		else
		{
			realvboxH = (vboxW * svgH) / svgW;
			realvboxW = vboxW;
			realy0 = y0 - (realvboxH - vboxH)/2 ;
		}
	}

	// get user zoom/pan

	var newScale = root.currentScale;
	var translation = root.currentTranslate;

	// transform pxl to user unit

	var xPos = (((evt.clientX+10- translation.x)/newScale) * realvboxW)/realsvgW  + realx0 ;
	var yPos = (((evt.clientY+5- translation.y)/newScale) * realvboxH)/ realsvgH  + realy0 ;
	var scaleForWidth = ( (1 / newScale) * realvboxH) / realsvgH;

	// move tooltip

	toolTip.setAttribute("transform", "translate(" + xPos + "," + yPos + ")" );

	// resize tooltip

	var fontsize = 12;
	tiptext.setAttribute("font-size",fontsize*scaleForWidth);
	tiptext.setAttribute("y", fontsize*scaleForWidth);
	var tipBG = svgDocument.getElementById('ToolTipBG');
	var outline = tiptext.getBBox();
	if(tipBG)
	{
		tipBG.setAttribute("stroke-width", 1*scaleForWidth);
		tipBG.setAttribute("width", Number(outline.width) );
		tipBG.setAttribute("height", Number(outline.height) + fontsize*.5*scaleForWidth );
	}
	var ToolTipShadow = svgDocument.getElementById('ToolTipShadow');
	if(ToolTipShadow)
	{
		ToolTipShadow.setAttribute("width", Number(outline.width) );
		ToolTipShadow.setAttribute("height", Number(outline.height) + fontsize*.5*scaleForWidth );
		ToolTipShadow.setAttribute("x", 3*scaleForWidth);
		ToolTipShadow.setAttribute("y", 3*scaleForWidth);
	}
}
function ShowPaper()
{
  var svgDocument = getDocument();
  var paper = svgDocument.getElementById("paperID");
  if(paper)
  {
    paper.setAttribute("transform","scale(1)");
    paper.setAttribute("opacity","1");
    paper.setAttribute("visibility","visible");
  }
  var svg = svgDocument.getRootElement();
  if(svg)
  {
    svg.setAttribute("width","2010.000mm");
    svg.setAttribute("height","1710.000mm");
    svg.setAttribute("viewBox","-5.000000 -5.000000 2010.000000 1710.000000");
  }
}
]]></script><defs/><g><path style="fill:#ffffff" d="M2000.40,1699.90L0.37,1699.90L0.37,0.38L2000.40,0.38z"/><path style="fill:#97fa98" d="M637.36,909.49L656.33,919.69L670.40,929.76L674.83,929.74L690.08,920.91L690.93,920.16L693.62,919.03L704.45,918.32L710.90,919.64L728.61,928.55L738.88,938.57L751.64,953.71L757.74,971.70L760.31,983.07L760.31,994.87L759.12,1001.29L754.68,1009.30L753.98,999.43L754.09,1011.88L753.56,1023.78L749.56,1023.63L747.16,1027.38L739.55,1032.45L733.98,1033.43L731.93,1033.78L732.48,1037.12L733.13,1041.00L733.88,1044.74L734.41,1051.06L734.40,1070.15L733.86,1075.21L732.44,1083.66L725.70,1099.73L716.70,1111.02L699.08,1121.29L685.97,1124.40L669.43,1123.70L649.93,1120.08L632.27,1113.65L613.39,1103.36L598.11,1092.02L585.45,1079.32L571.37,1059.16L562.48,1040.16L558.69,1028.74L556.37,1016.84L556.18,1013.52L555.60,1013.09L555.05,1007.98L554.40,1000.37L554.37,986.48L555.61,973.74L561.22,950.47L570.28,930.37L578.49,920.83L587.87,913.72L597.99,908.63L607.27,906.25L622.59,906.27z"/><path style="fill:#000020" d="M693.62,919.03L690.93,920.16L691.52,918.34z"/><path style="fill:#000020" d="M553.26,1005.89L554.40,1000.37L555.05,1007.98z"/><path style="fill:#000020" d="M754.68,1009.30L754.09,1011.88L753.98,999.43z"/><path style="fill:#000020" d="M556.37,1016.84L555.60,1013.09L556.18,1013.52z"/><path style="fill:#000020" d="M732.48,1037.12L731.93,1033.78L733.98,1033.43z"/><path style="fill:#000020" d="M733.88,1044.74L733.13,1041.00L733.71,1041.42z"/><path style="fill:#000020" d="M736.12,1065.37L734.40,1070.15L734.41,1051.06L734.92,1051.53z"/><g id="Actor_.0"><g style="stroke:#000000;stroke-width:1.411"><path d="M679.79,1124.01 C682.97,1124.13 683.01,1123.97 686.21,1123.85 C689.26,1123.41 689.27,1123.41 692.31,1122.89 C695.19,1122.04 695.20,1122.04 698.05,1121.11 C700.73,1119.88 700.74,1119.87 703.38,1118.55 C705.85,1116.92 705.85,1116.92 708.27,1115.22 C710.50,1113.21 710.49,1113.19 712.67,1111.13 C713.76,1109.84 713.74,1109.81 714.80,1108.50 C715.68,1107.41 715.70,1107.43 716.56,1106.33 C718.25,1103.61 718.26,1103.61 719.89,1100.86 C721.31,1097.82 721.32,1097.81 722.67,1094.73 C723.79,1091.39 723.79,1091.38 724.84,1088.02 C725.66,1084.41 725.66,1084.40 726.41,1080.77 C726.91,1076.91 726.91,1076.90 727.35,1073.03 C727.54,1068.96 727.54,1068.95 727.67,1064.87 C727.54,1060.61 727.54,1060.61 727.35,1056.35 C726.91,1051.93 726.91,1051.93 726.41,1047.52 C725.65,1042.99 725.65,1042.98 724.84,1038.46 C723.78,1033.85 723.78,1033.84 722.67,1029.24 C721.31,1024.58 721.31,1024.57 719.90,1019.92 C718.25,1015.25 718.25,1015.24 716.56,1010.59 C714.64,1005.93 714.64,1005.93 712.67,1001.30 C710.50,996.71 710.49,996.71 708.27,992.14 C706.04,987.97 706.01,987.98 703.75,983.83 C703.57,983.49 703.57,983.49 703.38,983.15 C700.72,978.79 700.74,978.78 698.05,974.43 C695.20,970.22 695.20,970.21 692.31,966.03 C689.28,962.01 689.28,962.01 686.21,958.02 C683.02,954.22 683.01,954.23 679.79,950.46 C678.48,949.05 678.47,949.06 677.14,947.66 C675.13,945.53 675.14,945.52 673.11,943.40 C669.67,940.14 669.68,940.14 666.21,936.91 C662.70,933.95 662.70,933.94 659.15,931.03 C655.58,928.39 655.58,928.38 651.98,925.79 C648.38,923.50 648.38,923.50 644.75,921.26 C641.16,919.33 641.15,919.32 637.53,917.45 C633.95,915.90 633.95,915.89 630.35,914.40 C626.83,913.23 626.83,913.23 623.29,912.13 C619.85,911.36 619.85,911.36 616.39,910.66 C613.06,910.29 613.05,910.29 609.71,909.99 C606.50,910.03 606.50,910.04 603.29,910.15 C601.28,910.43 601.29,910.47 599.28,910.78 C598.24,910.95 598.23,910.93 597.19,911.11 C594.32,911.98 594.31,911.96 591.45,912.89 C588.77,914.12 588.76,914.13 586.12,915.45 C583.65,917.08 583.65,917.08 581.23,918.78 C579.00,920.79 579.00,920.80 576.83,922.87 C574.86,925.24 574.85,925.25 572.94,927.67 C571.24,930.39 571.26,930.40 569.60,933.15 C568.91,934.47 568.92,934.47 568.25,935.81 C566.00,940.90 565.98,940.89 563.76,946.00 C562.85,948.50 562.87,948.51 561.99,951.03 C561.14,953.66 561.14,953.66 560.31,956.29 C559.57,958.75 559.55,958.74 558.85,961.21 C557.76,966.20 557.76,966.21 556.72,971.22 C556.18,974.71 556.17,974.71 555.69,978.22 C555.28,983.01 555.28,983.01 554.92,987.81 C554.82,991.29 554.82,991.30 554.77,994.78 C554.98,999.25 554.99,999.25 555.25,1003.72 C555.53,1007.12 555.52,1007.12 555.85,1010.51 C556.38,1013.87 556.39,1013.87 556.97,1017.22 C557.81,1021.22 557.81,1021.22 558.69,1025.22 C559.54,1028.44 559.53,1028.45 560.42,1031.65 C561.86,1035.89 561.87,1035.89 563.36,1040.10 C564.79,1043.55 564.80,1043.55 566.27,1046.99 C568.15,1050.95 568.14,1050.95 570.07,1054.89 C572.21,1058.69 572.20,1058.70 574.40,1062.47 C577.46,1067.02 577.46,1067.02 580.59,1071.53 C583.23,1074.92 583.23,1074.92 585.93,1078.26 C589.58,1082.26 589.58,1082.27 593.29,1086.21 C597.24,1089.86 597.25,1089.85 601.24,1093.46 C603.78,1095.52 603.78,1095.53 606.35,1097.54 C611.75,1101.27 611.75,1101.27 617.19,1104.94 C620.02,1106.61 620.02,1106.61 622.88,1108.22 C628.78,1111.10 628.78,1111.10 634.71,1113.91 C637.74,1115.13 637.74,1115.12 640.80,1116.29 C645.12,1117.70 645.12,1117.71 649.46,1119.07 C653.89,1120.18 653.90,1120.17 658.34,1121.23 C661.66,1121.87 661.66,1121.86 664.99,1122.46 C667.55,1122.85 667.55,1122.86 670.11,1123.22 C674.95,1123.64 674.96,1123.82 679.79,1124.01 "/><path d="M563.04,1034.47 C562.35,1031.89 562.40,1031.87 561.79,1029.26 C561.36,1026.88 561.36,1026.88 560.97,1024.49 C560.70,1022.18 560.70,1022.17 560.47,1019.85 C560.37,1017.61 560.37,1017.61 560.30,1015.36 C560.37,1013.21 560.37,1013.21 560.47,1011.07 C560.70,1009.03 560.70,1009.03 560.97,1006.99 C561.36,1005.08 561.36,1005.08 561.79,1003.18 C562.35,1001.41 562.35,1001.41 562.94,999.65 C563.65,998.03 563.65,998.03 564.39,996.43 C565.25,994.98 565.26,994.97 566.15,993.54 C567.16,992.27 567.16,992.26 568.20,991.02 C569.34,989.93 569.34,989.92 570.52,988.87 C571.79,987.97 571.79,987.97 573.09,987.11 C574.48,986.42 574.48,986.41 575.90,985.76 C577.40,985.27 577.40,985.27 578.92,984.83 C580.52,984.55 580.52,984.55 582.12,984.32 C583.81,984.26 583.81,984.26 585.50,984.24 C587.26,984.39 587.26,984.40 589.02,984.59 C590.54,984.90 590.54,984.91 592.06,985.24 C592.35,985.30 592.36,985.30 592.65,985.36 C594.51,985.96 594.52,985.94 596.37,986.56 C598.26,987.34 598.26,987.34 600.14,988.16 C602.05,989.15 602.05,989.15 603.95,990.17 C605.86,991.35 605.86,991.35 607.75,992.56 C609.65,993.92 609.65,993.92 611.52,995.31 C613.39,996.84 613.39,996.85 615.24,998.41 C617.07,1000.10 617.07,1000.11 618.87,1001.82 C620.64,1003.67 620.64,1003.67 622.39,1005.54 C624.09,1007.52 624.09,1007.52 625.77,1009.52 C627.38,1011.61 627.38,1011.62 628.98,1013.73 C630.50,1015.93 630.50,1015.93 632.00,1018.15 C633.41,1020.44 633.41,1020.44 634.80,1022.74 C636.10,1025.10 636.10,1025.10 637.38,1027.47 C638.55,1029.88 638.55,1029.88 639.69,1032.30 C640.73,1034.73 640.73,1034.73 641.74,1037.18 C642.56,1039.44 642.56,1039.44 643.36,1041.70 C644.17,1044.35 644.17,1044.35 644.95,1047.00 C645.54,1049.42 645.54,1049.42 646.10,1051.85 C646.53,1054.24 646.53,1054.24 646.92,1056.62 C647.19,1058.94 647.19,1058.94 647.42,1061.27 C647.52,1063.51 647.52,1063.51 647.59,1065.75 C647.52,1067.90 647.52,1067.90 647.42,1070.05 C647.19,1072.09 647.19,1072.09 646.92,1074.12 C646.53,1076.03 646.53,1076.04 646.10,1077.94 C645.54,1079.71 645.54,1079.71 644.95,1081.47 C644.24,1083.09 644.24,1083.09 643.50,1084.69 C642.64,1086.14 642.64,1086.15 641.74,1087.58 C640.74,1088.85 640.73,1088.85 639.70,1090.10 C638.55,1091.19 638.55,1091.19 637.38,1092.25 C636.10,1093.15 636.10,1093.15 634.80,1094.01 C633.41,1094.70 633.41,1094.70 632.00,1095.36 C630.50,1095.84 630.49,1095.85 628.98,1096.29 C627.38,1096.57 627.37,1096.57 625.77,1096.80 C624.08,1096.86 624.08,1096.86 622.39,1096.88 C620.63,1096.72 620.63,1096.72 618.87,1096.53 C617.05,1096.16 617.05,1096.16 615.24,1095.75 C613.38,1095.18 613.38,1095.17 611.52,1094.56 C609.63,1093.78 609.63,1093.77 607.75,1092.95 C605.84,1091.97 605.84,1091.97 603.95,1090.95 C602.04,1089.77 602.03,1089.77 600.14,1088.56 C598.25,1087.20 598.24,1087.20 596.37,1085.81 C594.50,1084.27 594.50,1084.27 592.65,1082.71 C590.83,1081.01 590.83,1081.01 589.02,1079.29 C587.25,1077.45 587.25,1077.45 585.50,1075.58 C583.80,1073.60 583.80,1073.60 582.12,1071.60 C580.51,1069.50 580.51,1069.50 578.92,1067.39 C577.39,1065.18 577.39,1065.18 575.89,1062.97 C574.48,1060.68 574.48,1060.68 573.09,1058.37 C571.79,1056.02 571.79,1056.02 570.51,1053.65 C569.34,1051.24 569.34,1051.24 568.20,1048.82 C567.16,1046.38 567.16,1046.38 566.15,1043.94 C565.26,1041.48 565.26,1041.48 564.39,1039.02 C563.71,1036.75 563.65,1036.76 563.04,1034.47 "/><path d="M570.40,1020.00 C570.37,1020.58 570.37,1020.58 570.35,1021.16 C570.41,1022.89 570.40,1022.89 570.48,1024.62 C570.66,1026.41 570.66,1026.41 570.86,1028.19 C571.17,1030.03 571.17,1030.03 571.50,1031.87 C571.93,1033.74 571.93,1033.74 572.38,1035.60 C572.93,1037.49 572.93,1037.49 573.50,1039.37 C574.16,1041.27 574.16,1041.27 574.85,1043.16 "/><path d="M574.85,1043.16 C575.79,1040.24 575.79,1040.24 576.71,1037.32 C577.08,1036.00 577.08,1036.00 577.44,1034.67 C577.74,1033.41 577.74,1033.41 578.03,1032.15 C578.28,1030.96 578.28,1030.96 578.51,1029.76 C578.70,1028.62 578.70,1028.62 578.88,1027.48 C579.02,1026.39 579.02,1026.39 579.14,1025.30 C579.23,1024.25 579.23,1024.25 579.30,1023.19 C579.33,1022.18 579.33,1022.18 579.35,1021.16 C579.33,1020.17 579.33,1020.17 579.30,1019.19 C579.23,1018.23 579.23,1018.23 579.14,1017.27 C579.02,1016.33 579.02,1016.32 578.88,1015.38 C578.70,1014.46 578.70,1014.46 578.51,1013.53 C578.28,1012.61 578.28,1012.61 578.03,1011.70 C577.74,1010.78 577.74,1010.78 577.43,1009.87 C577.08,1008.96 577.08,1008.96 576.71,1008.05 C575.79,1006.20 575.79,1006.20 574.85,1004.36 "/><path d="M574.85,1004.36 C575.62,1003.38 575.63,1003.38 576.43,1002.42 C577.30,1001.58 577.31,1001.58 578.21,1000.77 C579.19,1000.08 579.19,1000.07 580.19,999.41 C581.26,998.88 581.27,998.88 582.35,998.37 C583.51,998.00 583.51,998.00 584.68,997.66 C585.91,997.44 585.91,997.44 587.15,997.27 C588.45,997.22 588.45,997.22 589.75,997.20 C591.10,997.32 591.10,997.32 592.46,997.47 C593.85,997.76 593.86,997.76 595.25,998.07 C596.68,998.51 596.69,998.52 598.11,998.99 C599.57,999.59 599.57,999.59 601.02,1000.22 C602.49,1000.98 602.49,1000.98 603.95,1001.77 "/><path d="M603.95,1001.77 C603.10,1001.38 603.09,1001.38 602.24,1001.01 C601.76,1000.87 601.76,1000.87 601.28,1000.74 C600.77,1000.64 600.77,1000.64 600.25,1000.54 C599.70,1000.47 599.70,1000.47 599.15,1000.41 C598.56,1000.37 598.56,1000.37 597.97,1000.33 C596.66,1000.34 596.66,1000.34 595.35,1000.36 C594.63,1000.41 594.63,1000.41 593.90,1000.47 C593.12,1000.55 593.12,1000.54 592.35,1000.63 C590.62,1000.88 590.62,1000.88 588.89,1001.15 C586.90,1001.52 586.90,1001.52 584.91,1001.91 C582.59,1002.44 582.59,1002.44 580.28,1002.97 C577.56,1003.66 577.56,1003.66 574.85,1004.36 "/><path d="M574.85,1004.36 C574.16,1005.47 574.16,1005.47 573.50,1006.59 C572.92,1007.82 572.92,1007.82 572.38,1009.07 C571.92,1010.42 571.92,1010.42 571.50,1011.78 C571.16,1013.25 571.17,1013.25 570.86,1014.72 C570.66,1016.29 570.66,1016.29 570.48,1017.85 C570.43,1018.93 570.43,1018.93 570.40,1020.00 "/><path d="M574.85,1043.16 C577.57,1044.83 577.57,1044.83 580.28,1046.52 C581.49,1047.35 581.48,1047.35 582.68,1048.19 C583.80,1049.03 583.80,1049.03 584.91,1049.87 C585.95,1050.71 585.95,1050.72 586.97,1051.57 C587.94,1052.42 587.94,1052.42 588.89,1053.28 C589.79,1054.15 589.79,1054.15 590.68,1055.03 C591.52,1055.92 591.52,1055.92 592.35,1056.81 C593.13,1057.73 593.13,1057.73 593.90,1058.66 C594.63,1059.60 594.63,1059.60 595.35,1060.55 C596.03,1061.53 596.03,1061.53 596.70,1062.52 C597.34,1063.54 597.34,1063.54 597.97,1064.57 C598.56,1065.64 598.56,1065.64 599.15,1066.71 C599.71,1067.83 599.71,1067.83 600.25,1068.96 C600.77,1070.14 600.77,1070.14 601.28,1071.33 C601.76,1072.58 601.77,1072.58 602.24,1073.84 C603.10,1076.59 603.10,1076.59 603.95,1079.35 "/><path d="M603.95,1079.35 C602.48,1078.44 602.47,1078.44 601.02,1077.51 C599.56,1076.46 599.56,1076.46 598.11,1075.39 C596.67,1074.21 596.67,1074.21 595.25,1073.01 C593.84,1071.70 593.84,1071.70 592.46,1070.38 C591.09,1068.96 591.09,1068.96 589.75,1067.52 C588.44,1066.00 588.44,1065.99 587.15,1064.46 C585.90,1062.84 585.90,1062.84 584.68,1061.21 C583.51,1059.52 583.51,1059.52 582.35,1057.81 C581.26,1056.05 581.26,1056.05 580.19,1054.27 C579.19,1052.46 579.19,1052.46 578.21,1050.63 C577.31,1048.78 577.31,1048.78 576.43,1046.92 C575.63,1045.04 575.63,1045.04 574.85,1043.16 "/><path d="M586.12,915.45 C589.70,913.35 589.71,913.35 593.32,911.29 C595.97,909.99 595.97,909.97 598.65,908.73 C601.50,907.80 601.51,907.80 604.39,906.96 C607.43,906.43 607.44,906.43 610.49,905.99 C613.69,905.88 613.70,905.88 616.90,905.84 C620.25,906.13 620.25,906.13 623.59,906.50 C627.04,907.20 627.05,907.20 630.49,907.98 C634.03,909.07 634.03,909.08 637.55,910.24 C641.15,911.73 641.15,911.74 644.72,913.29 C648.35,915.17 648.35,915.17 651.95,917.10 C655.58,919.34 655.58,919.35 659.17,921.64 C661.73,923.47 661.72,923.49 664.26,925.35 C665.30,926.11 665.31,926.10 666.35,926.87 C669.88,929.80 669.90,929.79 673.41,932.75 C676.88,935.98 676.88,935.98 680.31,939.25 C683.67,942.76 683.67,942.76 686.99,946.30 C690.22,950.07 690.20,950.08 693.40,953.86 C693.80,954.38 693.80,954.38 694.19,954.90 C696.85,958.38 696.87,958.37 699.51,961.87 C702.40,966.06 702.40,966.06 705.25,970.27 C707.93,974.62 707.93,974.62 710.58,978.99 C713.05,983.47 713.05,983.47 715.47,987.97 C717.69,992.55 717.69,992.55 719.87,997.14 C721.84,1001.78 721.83,1001.78 723.76,1006.43 C724.91,1009.59 724.89,1009.60 726.02,1012.77 C726.56,1014.27 726.57,1014.26 727.10,1015.77 C728.49,1020.42 728.51,1020.42 729.86,1025.08 C730.98,1029.69 730.98,1029.69 732.04,1034.31 C732.85,1038.83 732.85,1038.83 733.60,1043.36 C734.10,1047.77 734.11,1047.77 734.55,1052.19 C734.74,1056.45 734.74,1056.45 734.86,1060.72 C734.74,1064.80 734.74,1064.80 734.55,1068.88 C734.11,1072.75 734.11,1072.75 733.60,1076.62 C732.85,1080.24 732.86,1080.25 732.04,1083.86 C730.99,1087.23 730.99,1087.23 729.86,1090.58 C728.52,1093.65 728.51,1093.66 727.10,1096.70 C725.46,1099.45 725.46,1099.46 723.75,1102.17 C721.85,1104.60 721.84,1104.60 719.87,1106.97 C717.70,1109.05 717.69,1109.05 715.47,1111.06 C713.05,1112.76 713.04,1112.75 710.58,1114.40 C707.00,1116.50 706.99,1116.50 703.38,1118.55 "/><path d="M603.95,1001.77 C605.42,1002.68 605.42,1002.68 606.87,1003.61 C608.33,1004.66 608.33,1004.66 609.78,1005.72 C611.22,1006.91 611.22,1006.91 612.64,1008.11 C614.05,1009.42 614.05,1009.42 615.44,1010.74 C616.80,1012.16 616.80,1012.16 618.14,1013.60 C619.45,1015.12 619.45,1015.12 620.74,1016.66 C621.99,1018.28 621.99,1018.28 623.21,1019.91 C624.38,1021.60 624.38,1021.60 625.54,1023.31 C626.63,1025.07 626.63,1025.07 627.70,1026.84 C628.70,1028.66 628.70,1028.66 629.68,1030.48 C630.58,1032.34 630.58,1032.34 631.47,1034.20 C632.26,1036.08 632.26,1036.08 633.04,1037.96 C633.73,1039.85 633.73,1039.85 634.39,1041.74 C634.96,1043.63 634.96,1043.63 635.51,1045.52 C635.93,1047.23 635.93,1047.23 636.32,1048.94 C636.69,1050.93 636.69,1050.93 637.03,1052.92 C637.23,1054.71 637.23,1054.71 637.41,1056.50 C637.49,1058.23 637.49,1058.23 637.54,1059.95 C637.49,1061.61 637.49,1061.61 637.41,1063.26 C637.23,1064.83 637.23,1064.83 637.03,1066.40 C636.73,1067.87 636.73,1067.87 636.39,1069.33 C635.97,1070.70 635.97,1070.70 635.52,1072.05 C634.97,1073.30 634.97,1073.30 634.39,1074.53 C633.73,1075.65 633.73,1075.65 633.04,1076.75 C632.60,1077.32 632.59,1077.31 632.13,1077.87 C631.80,1078.29 631.81,1078.29 631.46,1078.70 C630.58,1079.53 630.58,1079.54 629.68,1080.35 C628.70,1081.04 628.70,1081.04 627.70,1081.70 C626.63,1082.24 626.63,1082.24 625.54,1082.74 C624.38,1083.12 624.38,1083.12 623.21,1083.46 C621.98,1083.67 621.98,1083.67 620.74,1083.85 C619.45,1083.90 619.44,1083.90 618.14,1083.91 C616.79,1083.79 616.79,1083.79 615.44,1083.64 C614.04,1083.36 614.03,1083.36 612.64,1083.05 C611.21,1082.60 611.21,1082.60 609.78,1082.13 C608.32,1081.53 608.32,1081.52 606.87,1080.89 C605.41,1080.13 605.40,1080.13 603.95,1079.35 "/><path d="M603.95,1079.35 C606.66,1078.65 606.66,1078.65 609.37,1077.96 C611.69,1077.42 611.69,1077.42 614.01,1076.90 C615.99,1076.51 615.99,1076.51 617.99,1076.13 C619.71,1075.86 619.71,1075.87 621.44,1075.61 C622.22,1075.53 622.22,1075.53 622.99,1075.45 C624.39,1075.37 624.39,1075.37 625.80,1075.30 C626.43,1075.30 626.43,1075.31 627.06,1075.32 C627.65,1075.35 627.65,1075.35 628.24,1075.39 C628.80,1075.46 628.80,1075.46 629.35,1075.53 C629.86,1075.62 629.86,1075.62 630.37,1075.73 C630.85,1075.86 630.86,1075.85 631.33,1076.00 C632.19,1076.37 632.19,1076.37 633.04,1076.75 "/><path d="M633.04,1076.75 C633.98,1073.84 633.98,1073.84 634.90,1070.92 C635.27,1069.59 635.27,1069.59 635.62,1068.26 C635.93,1067.01 635.93,1067.01 636.22,1065.75 C636.47,1064.55 636.47,1064.55 636.70,1063.36 C636.89,1062.22 636.89,1062.22 637.07,1061.08 C637.21,1059.99 637.21,1059.99 637.33,1058.89 C637.39,1058.14 637.39,1058.14 637.45,1057.39 "/><path d="M732.05,1034.36 C732.26,1034.10 732.26,1034.10 732.46,1033.83 C733.03,1032.91 733.04,1032.92 733.60,1031.99 C734.10,1030.99 734.10,1030.99 734.58,1029.97 C734.99,1028.88 734.99,1028.88 735.39,1027.78 C735.74,1026.61 735.74,1026.61 736.06,1025.43 C736.32,1024.18 736.32,1024.18 736.56,1022.93 C736.74,1021.61 736.74,1021.61 736.90,1020.29 C737.01,1018.91 737.01,1018.91 737.09,1017.53 C737.12,1016.10 737.11,1016.10 737.12,1014.66 C737.07,1013.18 737.07,1013.18 737.00,1011.69 C736.86,1010.16 736.86,1010.16 736.71,1008.63 C736.50,1007.07 736.50,1007.07 736.28,1005.50 C735.99,1003.91 735.99,1003.91 735.68,1002.31 C735.31,1000.69 735.31,1000.69 734.93,999.07 C734.48,997.43 734.48,997.43 734.02,995.80 C733.50,994.15 733.50,994.15 732.96,992.49 C732.36,990.83 732.36,990.83 731.74,989.18 C731.06,987.52 731.06,987.52 730.37,985.86 C729.61,984.21 729.61,984.21 728.84,982.56 C728.01,980.92 728.01,980.92 727.17,979.29 C726.27,977.66 726.27,977.66 725.36,976.04 C724.40,974.44 724.40,974.44 723.42,972.85 C722.40,971.28 722.40,971.28 721.37,969.72 C720.29,968.19 720.29,968.19 719.21,966.66 C718.08,965.17 718.08,965.17 716.94,963.68 C715.76,962.23 715.76,962.23 714.58,960.79 C713.37,959.40 713.36,959.40 712.14,958.02 C710.89,956.68 710.89,956.68 709.63,955.36 C708.35,954.09 708.34,954.09 707.05,952.83 C705.74,951.63 705.74,951.63 704.42,950.44 C703.08,949.31 703.08,949.31 701.74,948.20 C700.39,947.16 700.39,947.16 699.02,946.13 C697.66,945.18 697.66,945.18 696.28,944.24 C694.90,943.38 694.90,943.38 693.51,942.53 C692.13,941.77 692.13,941.77 690.74,941.02 C689.35,940.36 689.35,940.36 687.96,939.71 C686.58,939.15 686.58,939.15 685.20,938.60 C683.82,938.14 683.82,938.14 682.44,937.69 C681.09,937.33 681.09,937.33 679.73,936.98 C678.59,936.76 678.59,936.76 677.44,936.55 "/><path d="M732.21,1035.34 C732.62,1034.95 732.62,1034.95 733.01,1034.55 C733.67,1033.75 733.68,1033.75 734.32,1032.94 C734.91,1032.05 734.91,1032.04 735.48,1031.14 C735.99,1030.15 735.99,1030.15 736.49,1029.15 C736.92,1028.07 736.92,1028.07 737.33,1026.98 C737.68,1025.82 737.68,1025.82 738.02,1024.66 C738.29,1023.42 738.29,1023.42 738.55,1022.18 C738.75,1020.88 738.75,1020.88 738.93,1019.57 C739.04,1018.20 739.04,1018.20 739.14,1016.83 C739.18,1015.41 739.18,1015.41 739.21,1013.98 C739.16,1012.50 739.16,1012.50 739.11,1011.02 C738.99,1009.50 738.99,1009.50 738.85,1007.98 C738.70,1006.76 738.70,1006.76 738.53,1005.53 C738.21,1003.61 738.21,1003.61 737.88,1001.69 C737.50,999.99 737.50,999.99 737.11,998.30 C736.70,996.74 736.70,996.74 736.27,995.18 C735.76,993.53 735.76,993.53 735.24,991.88 C734.65,990.23 734.65,990.23 734.05,988.57 C733.38,986.91 733.38,986.91 732.70,985.25 C731.95,983.60 731.95,983.60 731.20,981.95 C730.38,980.31 730.38,980.31 729.55,978.67 C728.66,977.04 728.66,977.04 727.76,975.42 C726.81,973.82 726.81,973.82 725.85,972.22 C724.84,970.64 724.84,970.64 723.81,969.07 C722.74,967.53 722.74,967.53 721.67,966.00 C720.55,964.50 720.55,964.49 719.42,963.00 C718.25,961.55 718.25,961.55 717.08,960.10 C715.87,958.70 715.87,958.70 714.66,957.30 C713.41,955.95 713.41,955.95 712.15,954.62 C710.88,953.34 710.87,953.34 709.59,952.06 C708.28,950.85 708.28,950.85 706.97,949.65 C705.63,948.51 705.63,948.51 704.29,947.39 C702.94,946.33 702.94,946.33 701.58,945.28 C700.22,944.32 700.22,944.32 698.84,943.36 C697.47,942.48 697.47,942.48 696.08,941.62 C694.70,940.84 694.70,940.84 693.30,940.08 C691.92,939.40 691.92,939.40 690.53,938.73 C689.15,938.15 689.15,938.15 687.76,937.59 C686.39,937.11 686.39,937.11 685.01,936.65 C683.65,936.27 683.65,936.27 682.28,935.90 C680.94,935.62 680.94,935.62 679.59,935.36 C678.27,935.18 678.27,935.18 676.95,935.01 C676.35,934.98 676.34,934.98 675.74,934.95 "/><path d="M674.37,930.50 C675.58,929.80 675.58,929.80 676.80,929.12 C677.87,928.63 677.87,928.63 678.94,928.16 C680.06,927.77 680.06,927.77 681.18,927.40 C682.34,927.12 682.34,927.12 683.51,926.85 C684.71,926.66 684.71,926.66 685.92,926.50 C687.16,926.42 687.16,926.42 688.41,926.36 C689.68,926.39 689.68,926.39 690.96,926.44 C692.27,926.57 692.27,926.57 693.57,926.73 C694.91,926.98 694.91,926.98 696.24,927.24 C697.60,927.60 697.60,927.60 698.96,927.98 C700.33,928.44 700.33,928.45 701.70,928.93 C703.09,929.50 703.09,929.50 704.47,930.09 C705.87,930.76 705.87,930.76 707.25,931.45 C708.65,932.21 708.65,932.21 710.04,932.99 C711.44,933.85 711.44,933.85 712.83,934.73 C714.21,935.67 714.21,935.67 715.59,936.62 C716.96,937.65 716.96,937.65 718.33,938.69 C719.68,939.79 719.68,939.79 721.03,940.90 C722.36,942.08 722.36,942.08 723.67,943.27 C724.98,944.51 724.98,944.51 726.27,945.76 C727.54,947.07 727.54,947.07 728.79,948.39 C730.02,949.75 730.02,949.75 731.24,951.13 C732.42,952.55 732.42,952.55 733.59,953.98 C734.73,955.45 734.73,955.46 735.85,956.94 C736.93,958.46 736.93,958.46 738.00,959.98 C739.02,961.54 739.02,961.54 740.02,963.11 C740.98,964.70 740.98,964.70 741.93,966.30 C742.82,967.93 742.82,967.93 743.70,969.56 C744.53,971.20 744.53,971.20 745.35,972.85 C746.11,974.51 746.11,974.51 746.86,976.17 C747.55,977.84 747.55,977.84 748.23,979.51 C748.86,981.17 748.86,981.18 749.47,982.85 C750.02,984.51 750.02,984.51 750.55,986.17 C751.03,987.82 751.03,987.82 751.50,989.47 C751.90,991.10 751.90,991.10 752.28,992.73 C752.61,994.33 752.61,994.33 752.92,995.93 C753.16,997.50 753.16,997.50 753.39,999.08 C753.55,1000.60 753.55,1000.60 753.70,1002.13 C753.79,1003.61 753.79,1003.61 753.85,1005.10 C753.85,1006.53 753.85,1006.53 753.83,1007.96 C753.74,1009.32 753.74,1009.32 753.64,1010.69 C753.46,1011.99 753.46,1011.99 753.27,1013.29 C753.01,1014.52 753.01,1014.53 752.73,1015.75 C752.39,1016.91 752.39,1016.91 752.03,1018.07 C751.61,1019.15 751.61,1019.15 751.17,1020.23 C750.67,1021.24 750.67,1021.24 750.16,1022.23 C749.60,1023.16 749.60,1023.16 749.01,1024.07 C748.38,1024.91 748.38,1024.91 747.73,1025.74 C747.02,1026.49 747.02,1026.49 746.30,1027.24 C745.54,1027.90 745.54,1027.90 744.77,1028.54 C743.94,1029.11 743.94,1029.11 743.10,1029.66 C742.22,1030.17 742.22,1030.17 741.33,1030.68 "/><path d="M741.33,1030.68 C742.16,1030.11 742.16,1030.11 742.97,1029.52 C743.74,1028.86 743.74,1028.86 744.49,1028.18 C745.19,1027.42 745.20,1027.42 745.88,1026.65 C746.52,1025.81 746.53,1025.81 747.15,1024.95 C747.72,1024.02 747.72,1024.02 748.27,1023.08 C748.77,1022.07 748.77,1022.07 749.26,1021.05 C749.68,1019.96 749.68,1019.96 750.09,1018.86 C750.43,1017.69 750.43,1017.69 750.76,1016.52 C751.02,1015.28 751.02,1015.28 751.27,1014.03 C751.36,1013.40 751.35,1013.40 751.43,1012.77 C751.52,1012.09 751.53,1012.09 751.61,1011.41 C751.70,1010.03 751.70,1010.03 751.77,1008.65 C751.78,1007.22 751.78,1007.21 751.77,1005.78 C751.69,1004.29 751.69,1004.29 751.59,1002.80 C751.43,1001.26 751.43,1001.26 751.25,999.72 C751.00,998.15 751.00,998.15 750.75,996.57 C750.42,994.96 750.42,994.96 750.08,993.35 C749.68,991.72 749.68,991.72 749.27,990.09 C748.79,988.43 748.79,988.43 748.30,986.78 C747.74,985.11 747.74,985.11 747.18,983.45 C746.56,981.78 746.56,981.78 745.92,980.11 C745.23,978.44 745.23,978.44 744.52,976.78 C743.76,975.12 743.76,975.12 742.99,973.46 C742.16,971.82 742.16,971.82 741.32,970.18 C740.43,968.55 740.43,968.55 739.52,966.93 C738.56,965.33 738.56,965.33 737.59,963.74 C736.57,962.18 736.58,962.18 735.55,960.63 C734.47,959.11 734.47,959.11 733.38,957.60 C732.25,956.13 732.25,956.13 731.11,954.66 C730.18,953.54 730.18,953.54 729.24,952.43 C727.76,950.77 727.77,950.76 726.28,949.11 C725.02,947.80 725.01,947.80 723.74,946.50 C722.44,945.26 722.44,945.26 721.14,944.03 C719.81,942.86 719.81,942.86 718.48,941.70 C717.13,940.60 717.13,940.60 715.77,939.51 C714.41,938.49 714.41,938.48 713.03,937.47 C711.65,936.53 711.65,936.53 710.26,935.61 C708.87,934.75 708.87,934.75 707.47,933.91 C706.08,933.15 706.08,933.14 704.69,932.39 C703.30,931.73 703.30,931.73 701.90,931.07 C700.52,930.50 700.52,930.50 699.14,929.95 C697.77,929.48 697.77,929.48 696.39,929.03 C695.04,928.67 695.04,928.67 693.69,928.33 C692.36,928.08 692.36,928.08 691.03,927.85 C689.73,927.72 689.73,927.72 688.43,927.60 C687.15,927.57 687.15,927.57 685.88,927.56 C684.64,927.64 684.64,927.64 683.40,927.74 C682.21,927.92 682.21,927.92 681.01,928.12 C679.85,928.41 679.85,928.41 678.70,928.72 C677.59,929.11 677.59,929.11 676.48,929.51 C675.42,930.00 675.42,930.00 674.37,930.50 C673.30,931.13 673.29,931.13 672.23,931.78 "/><path d="M743.86,944.11 C743.32,943.45 743.32,943.45 742.77,942.80 C741.55,941.44 741.55,941.43 740.32,940.08 C739.06,938.78 739.06,938.78 737.80,937.49 C736.50,936.27 736.50,936.27 735.20,935.06 C733.88,933.91 733.88,933.91 732.55,932.77 C731.20,931.70 731.20,931.70 729.84,930.65 C728.48,929.66 728.48,929.66 727.10,928.68 C725.72,927.78 725.72,927.78 724.33,926.89 C722.94,926.07 722.94,926.07 721.54,925.26 C720.15,924.54 720.14,924.54 718.74,923.82 C717.35,923.19 717.35,923.19 715.95,922.57 C714.57,922.02 714.57,922.02 713.17,921.49 C711.80,921.05 711.80,921.05 710.42,920.62 C709.07,920.27 709.06,920.27 707.71,919.94 C706.37,919.69 706.37,919.69 705.03,919.46 C703.73,919.32 703.72,919.32 702.42,919.20 C701.14,919.16 701.14,919.16 699.87,919.15 C698.63,919.22 698.63,919.22 697.40,919.31 C696.21,919.49 696.21,919.49 695.02,919.70 C693.87,920.00 693.87,920.00 692.73,920.32 C691.64,920.72 691.64,920.72 690.55,921.15 C689.51,921.66 689.51,921.66 688.48,922.20 C687.49,922.81 687.49,922.81 686.52,923.45 C685.59,924.16 685.59,924.17 684.68,924.90 C683.82,925.71 683.82,925.71 682.97,926.54 C682.72,926.81 682.72,926.81 682.48,927.09 "/><path d="M707.58,918.33 C706.27,918.17 706.27,918.17 704.95,918.02 C703.67,917.97 703.67,917.97 702.39,917.93 C701.15,917.99 701.15,917.99 699.91,918.06 C698.71,918.23 698.71,918.23 697.51,918.41 C696.36,918.69 696.36,918.69 695.21,918.99 C694.11,919.38 694.10,919.38 693.01,919.79 C691.96,920.29 691.96,920.29 690.92,920.80 C689.70,921.49 689.69,921.49 688.48,922.20 "/><path d="M723.34,1005.43 C723.05,1003.91 723.05,1003.91 722.76,1002.39 C722.45,1001.10 722.45,1001.10 722.12,999.80 C721.75,998.49 721.75,998.49 721.37,997.18 C720.93,995.86 720.93,995.86 720.48,994.54 C719.98,993.21 719.98,993.21 719.47,991.89 C718.91,990.56 718.91,990.56 718.34,989.24 C717.72,987.91 717.72,987.91 717.08,986.59 C716.40,985.28 716.40,985.28 715.71,983.97 C714.97,982.68 714.97,982.68 714.23,981.38 C713.44,980.10 713.44,980.10 712.64,978.83 C711.80,977.57 711.80,977.57 710.96,976.32 C710.08,975.10 710.08,975.10 709.19,973.88 C708.27,972.69 708.27,972.69 707.33,971.50 C706.38,970.34 706.38,970.34 705.41,969.19 C704.42,968.08 704.42,968.08 703.42,966.97 C702.69,966.21 702.69,966.21 701.95,965.45 "/><path d="M738.65,1006.46 C738.67,1006.12 738.67,1006.12 738.68,1005.77 C738.67,1004.63 738.67,1004.63 738.65,1003.48 C738.57,1002.29 738.57,1002.29 738.48,1001.10 C738.33,999.87 738.33,999.87 738.18,998.64 C737.97,997.38 737.96,997.38 737.74,996.12 C737.47,994.83 737.47,994.83 737.18,993.54 C736.84,992.24 736.84,992.24 736.49,990.93 C736.10,989.61 736.10,989.61 735.69,988.29 C735.23,986.96 735.23,986.96 734.76,985.63 C734.25,984.29 734.25,984.29 733.72,982.96 C733.15,981.62 733.15,981.62 732.57,980.29 C731.94,978.96 731.94,978.96 731.30,977.64 C730.62,976.32 730.62,976.32 729.94,975.01 C729.20,973.71 729.20,973.71 728.46,972.42 C727.67,971.14 727.68,971.14 726.88,969.87 C726.05,968.62 726.05,968.62 725.20,967.37 C724.32,966.16 724.32,966.16 723.44,964.95 C722.51,963.77 722.51,963.77 721.57,962.60 C720.61,961.47 720.61,961.47 719.64,960.34 C718.64,959.25 718.64,959.25 717.63,958.17 C716.60,957.12 716.60,957.12 715.56,956.09 C714.50,955.10 714.50,955.09 713.44,954.11 C712.36,953.18 712.36,953.18 711.27,952.25 C710.17,951.38 710.17,951.38 709.07,950.51 C707.95,949.69 707.95,949.69 706.83,948.89 C705.70,948.14 705.70,948.14 704.57,947.40 C704.00,947.05 704.00,947.05 703.42,946.71 "/><path d="M717.41,937.99 C718.07,938.36 718.07,938.36 718.73,938.74 C719.86,939.45 719.86,939.45 720.99,940.17 C722.11,940.95 722.11,940.95 723.22,941.74 C724.33,942.58 724.33,942.58 725.43,943.43 C726.51,944.34 726.51,944.34 727.59,945.25 C728.65,946.22 728.65,946.22 729.70,947.20 C730.74,948.23 730.74,948.23 731.77,949.27 C732.77,950.35 732.77,950.35 733.77,951.43 C734.74,952.57 734.74,952.57 735.70,953.71 C736.63,954.88 736.63,954.88 737.56,956.06 C738.45,957.28 738.45,957.28 739.33,958.50 C740.19,959.75 740.19,959.75 741.03,961.00 C741.84,962.27 741.84,962.27 742.64,963.55 C743.40,964.85 743.40,964.85 744.16,966.15 C744.87,967.47 744.87,967.47 745.57,968.78 C746.23,970.11 746.23,970.11 746.89,971.44 C747.49,972.77 747.49,972.77 748.09,974.10 C748.64,975.43 748.64,975.43 749.18,976.77 C749.66,978.09 749.66,978.09 750.14,979.42 C750.57,980.74 750.57,980.74 750.98,982.06 C751.34,983.36 751.35,983.36 751.70,984.66 C751.99,985.94 751.99,985.94 752.27,987.22 C752.49,988.47 752.49,988.47 752.70,989.73 C752.86,990.95 752.86,990.95 753.00,992.18 C753.08,993.36 753.08,993.36 753.16,994.55 C753.18,995.70 753.17,995.70 753.19,996.85 C753.17,997.18 753.17,997.18 753.15,997.51 "/><path d="M734.07,1033.25 C734.92,1033.11 734.93,1033.11 735.78,1032.96 C736.75,1032.69 736.76,1032.69 737.73,1032.40 C738.66,1032.03 738.66,1032.03 739.59,1031.64 C740.47,1031.17 740.47,1031.17 741.33,1030.68 "/><path d="M754.56,959.60 C754.10,958.78 754.10,958.78 753.63,957.96 C752.65,956.36 752.65,956.36 751.66,954.76 C750.63,953.19 750.63,953.19 749.59,951.63 C748.89,950.66 748.89,950.66 748.19,949.69 "/><path d="M678.99,1123.92 L679.79,1124.01 L678.78,1123.90 "/><path d="M574.85,1043.16 L608.45,1023.76 L637.25,1059.58 "/><path d="M603.95,1079.35 L637.18,1060.17 "/><path d="M608.45,1023.76 L608.45,1004.76 "/><path d="M632.00,1095.36 L634.77,1094.48 "/><path d="M697.91,1115.25 L705.56,1113.33 L712.67,1111.13 "/><path d="M754.78,1023.07 L753.42,1023.70 L752.09,1024.14 "/></g></g><g id="Actor_.1"><g style="stroke:#000000;stroke-width:1.411"><path d="M503.10,905.62 C503.04,971.61 503.04,998.01 503.10,1090.39 C503.38,1092.36 503.40,1092.38 503.78,1094.33 C504.46,1095.95 504.48,1095.96 505.23,1097.56 C506.24,1099.01 506.24,1099.03 507.31,1100.43 C508.80,1101.74 508.81,1101.77 510.38,1102.99 C590.35,1149.23 590.36,1149.24 670.39,1195.37 C671.90,1195.93 671.92,1195.93 673.46,1196.36 "/><path d="M764.95,897.23 C764.86,898.62 764.86,898.62 764.73,900.01 C764.42,901.24 764.42,901.25 764.07,902.46 C763.56,903.49 763.55,903.50 762.99,904.50 C762.29,905.29 762.29,905.30 761.54,906.06 C760.67,906.60 760.66,906.60 759.75,907.09 C758.73,907.36 758.71,907.36 757.67,907.57 C756.53,907.55 756.52,907.55 755.38,907.48 C754.15,907.18 754.14,907.18 752.93,906.83 C751.66,906.25 751.65,906.24 750.40,905.62 C721.30,888.84 721.30,888.84 692.21,872.03 C690.94,871.19 690.94,871.19 689.68,870.31 C688.45,869.24 688.44,869.25 687.23,868.14 C685.53,866.18 685.52,866.18 683.87,864.17 C682.44,861.91 682.44,861.90 681.07,859.60 C680.32,857.99 680.32,857.99 679.62,856.36 C678.86,853.92 678.84,853.92 678.16,851.46 C677.87,849.16 677.87,849.15 677.67,846.84 C677.61,834.78 677.72,834.77 677.65,822.72 C677.33,821.11 677.30,821.10 676.89,819.50 C676.27,818.23 676.26,818.22 675.59,816.97 C674.74,815.87 674.73,815.86 673.84,814.79 C672.86,813.99 672.86,813.98 671.84,813.23 C658.14,805.22 658.05,805.33 644.40,797.26 C642.89,795.82 642.90,795.76 641.49,794.19 C640.38,792.27 640.40,792.25 639.36,790.28 C638.97,789.08 638.98,789.06 638.64,787.84 C638.49,786.69 638.49,786.68 638.39,785.52 C638.37,751.93 638.35,751.92 638.39,718.33 C638.57,717.02 638.57,717.01 638.83,715.72 "/><path d="M642.60,713.14 C643.50,713.28 643.52,713.29 644.40,713.53 C657.73,721.09 657.69,721.19 671.03,728.75 C672.22,729.13 672.24,729.14 673.46,729.40 "/><path d="M676.99,727.37 C677.36,726.18 677.37,726.15 677.64,724.93 C677.70,714.13 677.72,714.11 677.64,703.31 C677.25,701.30 677.23,701.27 676.69,699.29 C675.43,696.97 675.39,696.96 674.03,694.68 C673.18,693.73 673.16,693.74 672.27,692.83 C671.35,692.13 671.34,692.12 670.39,691.46 C590.40,645.25 590.40,645.23 510.38,599.07 C509.15,598.57 509.14,598.57 507.89,598.15 "/><path d="M503.10,603.27 C503.08,695.66 503.08,695.66 503.10,788.04 C503.20,789.20 503.20,789.21 503.35,790.35 C503.86,791.99 503.85,792.01 504.42,793.62 C505.54,795.53 505.56,795.54 506.74,797.42 C507.59,798.36 507.61,798.36 508.50,799.27 C509.42,799.97 509.43,799.97 510.38,800.64 C519.41,805.86 519.40,805.90 528.47,811.05 C529.66,811.43 529.68,811.44 530.90,811.71 "/><path d="M534.43,809.67 C534.81,808.48 534.82,808.46 535.08,807.24 C535.21,791.91 535.10,791.89 535.21,776.56 C535.45,775.68 535.45,775.65 535.79,774.80 "/><path d="M539.90,772.84 C541.15,773.26 541.16,773.26 542.38,773.76 C571.49,790.52 571.49,790.54 600.57,807.36 C601.52,808.02 601.53,808.02 602.45,808.73 C603.61,809.99 603.62,809.99 604.74,811.28 C605.46,812.41 605.46,812.42 606.14,813.58 C606.67,814.78 606.67,814.79 607.16,816.01 C607.46,817.21 607.50,817.22 607.73,818.43 C607.84,834.30 607.75,834.31 607.84,850.19 C607.98,851.44 607.99,851.45 608.19,852.69 C608.52,853.67 608.52,853.68 608.89,854.65 C609.79,856.18 609.79,856.20 610.75,857.69 C611.91,858.85 611.92,858.88 613.15,859.95 C624.81,866.90 624.91,866.77 636.55,873.74 C638.41,875.37 638.40,875.42 640.17,877.15 C641.81,879.23 641.82,879.23 643.38,881.36 C645.04,884.50 645.07,884.50 646.62,887.70 C647.55,890.91 647.61,890.93 648.35,894.18 C648.59,904.73 648.59,904.78 648.57,915.32 "/><path d="M510.38,901.42 C519.12,906.44 519.12,906.44 527.84,911.50 C528.79,912.17 528.79,912.17 529.72,912.87 C530.61,913.78 530.62,913.78 531.47,914.72 C532.46,916.20 532.47,916.20 533.40,917.71 C534.07,919.33 534.07,919.34 534.67,920.97 C534.92,922.52 534.93,922.54 535.11,924.10 "/><path d="M542.34,1019.05 C541.25,1021.65 541.25,1021.66 540.21,1024.28 C539.83,1025.75 539.84,1025.76 539.50,1027.24 C539.24,1028.80 539.23,1028.80 539.02,1030.36 C538.87,1033.74 538.85,1033.75 538.78,1037.12 C539.09,1040.76 539.11,1040.76 539.50,1044.40 C539.83,1046.29 539.83,1046.29 540.21,1048.17 C541.26,1052.02 541.41,1052.01 542.34,1055.86 C542.53,1062.54 542.33,1062.57 542.45,1069.26 C542.82,1070.88 542.86,1070.89 543.32,1072.50 C543.87,1073.71 543.88,1073.71 544.47,1074.91 C545.20,1076.01 545.20,1076.02 545.98,1077.10 C547.14,1078.31 547.13,1078.35 548.35,1079.48 C554.08,1082.93 554.21,1082.78 559.90,1086.27 C562.77,1089.01 562.67,1089.15 565.49,1091.96 C568.40,1094.37 568.40,1094.38 571.36,1096.73 C574.32,1098.63 574.32,1098.63 577.33,1100.45 C580.28,1101.79 580.29,1101.78 583.27,1103.05 C584.72,1103.50 584.72,1103.51 586.18,1103.90 C588.97,1104.32 588.98,1104.32 591.78,1104.68 "/><path d="M542.38,965.25 C541.43,964.58 541.42,964.58 540.50,963.88 C539.65,963.02 539.64,963.02 538.83,962.13 C537.60,960.20 537.59,960.19 536.42,958.22 C535.95,957.02 535.96,957.00 535.55,955.78 C535.32,954.59 535.30,954.59 535.14,953.40 C535.08,938.75 535.08,938.82 535.11,924.10 "/><path d="M609.34,721.79 C610.44,725.62 610.44,725.62 611.46,729.48 C612.10,733.20 612.08,733.21 612.66,736.94 C612.80,738.73 612.80,738.73 612.90,740.52 C612.80,743.90 612.83,743.91 612.66,747.28 C612.11,750.33 612.11,750.34 611.46,753.37 C610.45,756.00 610.45,756.01 609.34,758.60 "/><path d="M591.78,768.74 C588.98,768.38 588.97,768.38 586.18,767.96 C584.72,767.56 584.72,767.55 583.27,767.11 C581.79,766.55 581.78,766.56 580.32,765.96 C577.32,764.39 577.30,764.41 574.34,762.78 C571.35,760.70 571.36,760.67 568.40,758.52 C566.93,757.29 566.93,757.28 565.49,756.01 C562.68,753.19 562.77,753.07 559.90,750.33 C554.84,747.26 554.75,747.38 549.62,744.39 C548.66,743.72 548.66,743.72 547.73,743.01 C546.84,742.11 546.83,742.10 545.98,741.16 C544.99,739.69 544.98,739.69 544.04,738.18 C543.38,736.57 543.37,736.56 542.78,734.92 C542.52,733.37 542.52,733.35 542.34,731.79 "/><path d="M542.34,719.92 C541.26,716.08 541.26,716.08 540.21,712.23 C539.83,710.35 539.83,710.35 539.50,708.46 C539.11,704.82 539.09,704.82 538.78,701.18 C538.85,697.83 538.84,697.82 539.01,694.47 C539.56,691.40 539.56,691.39 540.22,688.34 C541.22,685.71 541.23,685.70 542.34,683.11 "/><path d="M559.90,672.97 C561.28,673.06 561.28,673.06 562.66,673.21 C565.53,673.87 565.54,673.88 568.40,674.60 C569.89,675.15 569.89,675.15 571.36,675.75 C574.36,677.31 574.37,677.30 577.33,678.92 C580.33,681.01 580.32,681.03 583.27,683.18 C584.74,684.42 584.74,684.42 586.18,685.69 C588.99,688.52 589.00,688.52 591.78,691.38 "/><path d="M609.34,709.92 C609.16,708.35 609.16,708.34 608.90,706.79 C608.10,704.76 608.10,704.74 607.21,702.74 C605.93,700.97 605.91,700.97 604.55,699.26 C603.34,698.25 603.32,698.24 602.06,697.31 "/><path d="M677.67,1171.01 C677.48,1169.45 677.48,1169.44 677.23,1167.89 C676.64,1166.28 676.64,1166.27 675.98,1164.68 C675.04,1163.15 675.03,1163.14 674.03,1161.64 C673.17,1160.70 673.16,1160.70 672.27,1159.79 C671.35,1159.09 671.34,1159.08 670.39,1158.42 C657.72,1151.06 657.66,1151.15 645.03,1143.74 C643.48,1142.40 643.47,1142.37 642.03,1140.92 C640.64,1138.65 640.66,1138.62 639.36,1136.30 C638.96,1135.10 638.98,1135.09 638.64,1133.86 C638.49,1132.71 638.49,1132.70 638.39,1131.54 "/><path d="M764.95,759.58 C764.91,767.84 764.91,767.87 765.06,776.13 C765.57,778.16 765.61,778.18 766.26,780.18 C767.37,782.10 767.40,782.10 768.58,783.98 C769.43,784.93 769.45,784.92 770.34,785.83 C771.26,786.53 771.27,786.54 772.22,787.20 C785.20,794.79 785.25,794.73 798.21,802.33 C799.15,803.14 799.14,803.17 800.02,804.04 C800.84,805.08 800.86,805.07 801.62,806.14 C802.62,808.16 802.65,808.16 803.56,810.21 C803.95,812.12 803.95,812.14 804.22,814.08 C804.28,847.66 804.28,780.48 804.22,881.26 "/><path d="M932.23,1346.55 C852.21,1300.37 852.21,1300.37 772.22,1254.16 C771.27,1253.50 771.26,1253.50 770.34,1252.79 C769.18,1251.53 769.16,1251.54 768.05,1250.23 C766.95,1248.31 766.95,1248.29 765.92,1246.33 C765.52,1245.12 765.53,1245.10 765.19,1243.88 C765.05,1242.73 765.05,1242.72 764.95,1241.56 C764.94,1231.13 764.90,1231.12 764.97,1220.69 C765.24,1219.47 765.25,1219.44 765.63,1218.25 "/><path d="M804.22,1227.29 C804.24,1203.29 804.24,1193.69 804.22,1160.10 C804.12,1158.94 804.13,1158.93 803.97,1157.78 C803.47,1156.14 803.47,1156.14 802.91,1154.52 C802.29,1153.33 802.28,1153.33 801.62,1152.16 C800.90,1151.18 800.90,1151.17 800.15,1150.21 C799.20,1149.27 799.21,1149.23 798.21,1148.36 C784.53,1140.32 784.47,1140.40 770.77,1132.39 C769.75,1131.63 769.75,1131.62 768.77,1130.83 C768.09,1130.05 768.08,1130.05 767.43,1129.25 C766.56,1127.70 766.53,1127.70 765.72,1126.12 C765.30,1124.53 765.28,1124.51 764.96,1122.90 C764.78,1109.33 764.94,1109.31 764.73,1095.74 C764.25,1093.32 764.19,1093.31 763.58,1090.90 C762.60,1088.45 762.61,1088.43 761.54,1086.02 C759.66,1083.01 759.66,1082.99 757.67,1080.05 C755.36,1077.63 755.37,1077.57 752.93,1075.31 C743.90,1069.82 743.87,1069.80 734.72,1064.54 "/><path d="M754.80,965.38 C754.78,962.88 754.78,962.86 754.69,960.35 C754.44,959.13 754.42,959.13 754.12,957.93 C753.63,956.70 753.64,956.69 753.10,955.48 C751.88,953.64 751.88,953.64 750.60,951.83 C749.72,950.96 749.71,950.96 748.79,950.13 C747.89,949.52 747.88,949.52 746.96,948.94 "/><path d="M772.22,750.25 C852.57,796.58 852.58,796.59 932.87,843.03 C934.12,844.05 934.11,844.09 935.30,845.19 C936.37,846.60 936.37,846.61 937.37,848.06 C938.13,849.66 938.15,849.66 938.83,851.29 C939.21,853.24 939.21,853.26 939.51,855.23 "/><path d="M808.66,1073.64 C806.71,1072.30 806.70,1072.29 804.82,1070.85 C802.49,1068.34 802.49,1068.33 800.24,1065.74 C798.80,1063.48 798.81,1063.47 797.44,1061.16 C796.39,1058.74 796.37,1058.74 795.40,1056.29 C794.69,1053.11 794.65,1053.09 794.09,1049.89 C793.96,1038.58 794.06,1038.56 794.04,1027.24 C794.03,1004.22 793.99,1004.22 794.04,981.21 C794.24,979.18 794.25,979.17 794.53,977.15 C794.93,976.01 794.94,976.01 795.40,974.90 C796.01,973.98 796.02,973.97 796.67,973.10 C797.46,972.42 797.47,972.42 798.30,971.79 C799.26,971.39 799.27,971.38 800.24,971.03 C801.33,970.90 801.34,970.91 802.44,970.84 C803.63,970.99 803.64,970.98 804.82,971.20 C806.75,971.99 806.76,972.00 808.66,972.85 "/><path d="M900.27,1225.70 C900.88,1227.63 900.88,1227.63 901.44,1229.56 C902.30,1233.36 902.30,1233.36 903.11,1237.16 C903.38,1239.00 903.38,1239.01 903.59,1240.85 C903.74,1244.37 903.76,1244.37 903.83,1247.89 C903.52,1251.11 903.50,1251.12 903.11,1254.33 C902.78,1255.81 902.78,1255.82 902.39,1257.28 C901.36,1259.90 901.36,1259.91 900.27,1262.51 "/><path d="M882.71,1272.65 C879.91,1272.29 879.91,1272.29 877.12,1271.87 C875.66,1271.48 875.66,1271.46 874.21,1271.02 C872.72,1270.46 872.72,1270.47 871.25,1269.87 C868.25,1268.31 868.24,1268.32 865.28,1266.70 C862.28,1264.61 862.29,1264.59 859.34,1262.44 C857.87,1261.20 857.87,1261.20 856.43,1259.93 C853.62,1257.10 853.70,1256.98 850.83,1254.24 C845.78,1251.18 845.68,1251.29 840.55,1248.31 C839.60,1247.64 839.59,1247.63 838.67,1246.93 C837.77,1246.02 837.77,1246.01 836.91,1245.08 C836.14,1243.99 836.14,1243.99 835.41,1242.88 C834.81,1241.69 834.80,1241.68 834.25,1240.47 C833.79,1238.86 833.75,1238.85 833.39,1237.23 C833.26,1230.54 833.46,1230.51 833.28,1223.83 C832.34,1219.98 832.19,1219.99 831.15,1216.15 C830.77,1214.26 830.78,1214.26 830.43,1212.37 C830.18,1210.53 830.17,1210.52 829.95,1208.68 C829.81,1205.16 829.78,1205.16 829.71,1201.64 C830.02,1198.42 830.04,1198.42 830.43,1195.20 C830.76,1193.72 830.76,1193.72 831.15,1192.25 C832.18,1189.63 832.19,1189.62 833.27,1187.02 "/><path d="M833.27,1187.02 C833.25,1180.67 833.25,1181.08 833.28,1175.15 C833.38,1174.13 833.37,1174.13 833.53,1173.12 C833.86,1172.31 833.87,1172.30 834.25,1171.51 "/><path d="M828.95,1085.35 C829.97,1086.10 829.98,1086.11 830.94,1086.91 C832.03,1088.27 832.04,1088.28 833.07,1089.70 C833.69,1091.00 833.69,1091.01 834.24,1092.34 C834.54,1093.87 834.55,1093.89 834.77,1095.43 "/><path d="M927.91,1041.70 C920.69,1037.55 920.67,1037.54 913.52,1033.26 C912.29,1032.14 912.29,1032.10 911.14,1030.90 C909.98,1029.09 909.98,1029.08 908.89,1027.24 C908.38,1025.96 908.39,1025.95 907.94,1024.65 C907.71,1023.46 907.70,1023.46 907.53,1022.27 C907.42,1006.86 907.54,1006.84 907.40,991.44 C907.04,989.82 907.00,989.81 906.53,988.21 C905.75,986.61 905.74,986.60 904.91,985.03 C904.13,983.96 904.12,983.96 903.30,982.93 C902.10,981.83 902.11,981.79 900.86,980.77 C871.49,963.72 871.48,963.71 842.04,946.78 C840.54,946.22 840.51,946.21 838.97,945.78 "/><path d="M882.71,936.71 C879.91,936.38 879.90,936.37 877.12,935.93 C874.17,934.98 874.16,934.98 871.25,933.93 C868.25,932.39 868.24,932.38 865.28,930.76 C862.28,928.67 862.29,928.64 859.34,926.50 C857.87,925.26 857.87,925.26 856.43,923.98 C853.62,921.16 853.70,921.03 850.83,918.30 C845.46,915.03 845.33,915.19 839.91,911.97 C838.37,910.61 838.37,910.58 836.91,909.13 C835.91,907.67 835.90,907.66 834.98,906.15 C834.21,904.14 834.22,904.12 833.53,902.08 C833.37,900.93 833.38,900.92 833.27,899.76 C833.25,893.83 833.40,893.80 833.27,887.89 C832.34,884.04 832.19,884.05 831.15,880.20 C830.77,878.32 830.77,878.32 830.43,876.43 C830.05,872.79 830.02,872.79 829.71,869.15 C829.78,865.78 829.81,865.77 829.95,862.39 C830.17,860.82 830.18,860.82 830.43,859.26 C830.78,857.78 830.76,857.77 831.15,856.31 C832.18,853.69 832.19,853.68 833.27,851.08 "/><path d="M892.99,1201.22 C894.26,1202.15 894.27,1202.17 895.48,1203.17 C896.84,1204.88 896.86,1204.89 898.14,1206.66 C899.03,1208.65 899.03,1208.67 899.83,1210.70 C900.10,1212.25 900.10,1212.27 900.27,1213.83 "/><path d="M834.77,1095.43 C834.77,1111.32 834.77,1111.32 834.88,1127.19 C835.11,1128.40 835.15,1128.41 835.45,1129.61 C835.94,1130.83 835.93,1130.85 836.47,1132.04 C837.71,1133.91 837.70,1133.94 839.01,1135.75 C840.48,1137.04 840.49,1137.06 842.04,1138.26 C871.42,1155.28 871.42,1155.31 900.86,1172.19 C902.32,1172.59 902.37,1172.60 903.87,1172.83 "/><path d="M892.99,865.28 C894.26,866.21 894.27,866.22 895.48,867.23 C896.84,868.94 896.86,868.95 898.14,870.71 C899.03,872.71 899.03,872.73 899.83,874.76 C900.10,876.31 900.10,876.33 900.27,877.89 "/><path d="M882.71,859.35 C879.93,856.49 879.93,856.49 877.12,853.66 C875.68,852.39 875.68,852.38 874.21,851.15 C870.34,848.47 870.35,848.43 866.43,845.83 C862.92,844.14 862.89,844.17 859.34,842.57 C857.89,842.11 857.89,842.11 856.43,841.72 C853.64,841.30 853.63,841.30 850.83,840.94 "/><path d="M850.83,1176.88 C853.63,1177.24 853.64,1177.24 856.43,1177.66 C857.89,1178.06 857.89,1178.07 859.34,1178.51 C860.82,1179.07 860.83,1179.06 862.29,1179.66 C865.29,1181.23 865.31,1181.21 868.27,1182.83 C871.26,1184.92 871.25,1184.95 874.21,1187.09 C875.68,1188.33 875.68,1188.33 877.12,1189.61 C879.93,1192.43 879.93,1192.43 882.71,1195.29 "/><path d="M900.28,889.79 C901.36,893.61 901.36,893.61 902.40,897.44 C902.78,899.33 902.77,899.33 903.11,901.22 C903.36,903.06 903.38,903.07 903.59,904.91 C903.74,908.43 903.76,908.43 903.83,911.95 C903.52,915.17 903.50,915.17 903.11,918.39 C902.78,919.87 902.78,919.87 902.40,921.34 C901.36,923.96 901.36,923.97 900.27,926.57 "/><path d="M911.70,1133.91 C912.93,1134.18 912.95,1134.19 914.14,1134.57 C923.84,1140.15 923.86,1140.14 933.49,1145.84 C934.72,1146.96 934.71,1147.00 935.87,1148.20 C936.86,1149.67 936.87,1149.68 937.80,1151.19 C938.46,1152.81 938.47,1152.82 939.07,1154.45 C939.32,1156.00 939.32,1156.01 939.51,1157.58 "/><path d="M607.84,845.15 L510.38,901.42 L508.50,900.62 L506.21,900.54 L504.81,901.21 L503.54,903.00 L503.10,905.62 "/><path d="M673.46,1196.36 L675.07,1196.10 L675.96,1195.59 L676.99,1194.33 L677.55,1192.56 L677.67,1171.01 L764.95,1120.62 "/><path d="M505.42,900.83 L607.84,841.68 "/><path d="M750.40,905.62 L764.95,897.23 "/><path d="M638.83,715.72 L639.70,714.28 L640.99,713.40 L642.60,713.14 "/><path d="M673.46,729.40 L675.53,728.92 L676.99,727.37 "/><path d="M507.89,598.15 L505.70,598.34 L504.81,598.86 L503.78,600.12 L503.10,603.27 "/><path d="M530.90,811.71 L532.98,811.23 L534.43,809.67 "/><path d="M535.79,774.80 L536.81,773.55 L538.21,772.87 L539.90,772.84 "/><path d="M505.23,598.57 L1541.98,0.00 "/><path d="M535.11,924.10 L629.66,869.51 "/><path d="M510.38,599.07 L1548.00,0.00 "/><path d="M527.84,911.50 L615.12,861.11 "/><path d="M570.12,789.78 L532.98,811.23 "/><path d="M555.48,1006.36 L548.98,1002.64 L546.54,1001.99 L544.94,1002.24 L544.04,1002.76 L543.03,1004.02 L542.45,1005.78 L542.34,1019.05 "/><path d="M591.78,1104.68 L605.42,1096.80 "/><path d="M560.85,954.58 L542.38,965.25 "/><path d="M535.11,952.65 L569.99,932.52 "/><path d="M535.11,806.52 L567.11,788.04 "/><path d="M535.11,777.96 L542.38,773.76 "/><path d="M559.90,750.33 L609.34,721.79 "/><path d="M609.34,758.60 L591.78,768.74 "/><path d="M542.34,731.79 L602.06,697.31 L591.78,691.38 L542.34,719.92 "/><path d="M542.34,683.11 L542.34,671.24 L549.62,667.03 L547.13,666.10 L545.98,666.06 L544.47,666.52 L543.32,667.60 L542.78,668.61 L542.34,671.24 "/><path d="M542.34,1067.73 L568.87,1052.41 "/><path d="M542.34,1055.86 L564.59,1043.01 "/><path d="M542.34,1019.05 L555.96,1011.19 "/><path d="M542.34,1007.18 L549.62,1002.98 "/><path d="M542.38,965.25 L556.40,973.35 "/><path d="M542.34,731.79 L542.34,719.92 "/><path d="M542.34,683.11 L559.90,672.97 "/><path d="M549.62,1080.34 L576.14,1065.02 "/><path d="M549.62,744.39 L609.34,709.92 "/><path d="M549.62,667.03 L559.90,672.97 "/><path d="M559.90,1086.27 L582.11,1073.45 "/><path d="M591.78,1104.68 L602.70,1110.95 L604.55,1111.54 L606.23,1111.50 L608.02,1110.47 L609.08,1108.44 L609.34,1099.58 "/><path d="M591.78,768.74 L602.06,774.67 L609.34,770.47 L608.90,773.09 L608.36,774.11 L607.21,775.18 L605.70,775.64 L604.55,775.60 L602.06,774.67 "/><path d="M602.06,1110.61 L609.34,1106.41 "/><path d="M609.34,770.47 L609.34,758.60 "/><path d="M609.34,721.79 L609.34,709.92 "/><path d="M616.16,905.86 L646.79,888.17 "/><path d="M638.39,1131.54 L656.86,1120.88 "/><path d="M638.39,1131.54 L638.39,1115.35 "/><path d="M637.61,910.27 L648.57,903.94 "/><path d="M638.39,785.52 L1998.95,0.00 "/><path d="M638.39,718.33 L645.66,714.13 "/><path d="M645.66,1144.14 L680.57,1123.99 "/><path d="M2000.00,16.19 L645.66,798.12 "/><path d="M670.39,1158.42 L764.95,1103.83 "/><path d="M670.39,691.46 L1868.03,0.00 "/><path d="M675.53,1195.88 L778.14,1136.64 "/><path d="M677.67,1191.17 L775.13,1134.90 "/><path d="M776.59,789.72 L677.67,846.84 "/><path d="M677.67,823.31 L764.95,772.92 "/><path d="M671.84,813.23 L764.95,759.58 "/><path d="M804.22,881.26 L796.95,885.46 L799.43,886.40 L801.12,886.35 L802.09,885.97 L803.54,884.42 L804.22,881.26 "/><path d="M677.67,724.21 L1932.04,0.00 "/><path d="M675.53,728.92 L1938.06,0.00 "/><path d="M677.67,704.05 L1897.12,0.00 "/><path d="M687.83,922.61 L688.49,920.04 L689.94,918.48 L691.44,918.02 L692.60,918.06 L695.13,919.02 L694.87,919.12 "/><path d="M692.21,872.03 L802.76,808.20 "/><path d="M726.69,1097.36 L757.34,1079.66 "/><path d="M733.61,1076.57 L744.58,1070.23 "/><path d="M2000.00,545.30 L939.51,1157.58 L939.51,1342.35 L938.81,1345.53 L937.80,1346.76 L936.91,1347.28 L934.72,1347.47 L932.23,1346.55 "/><path d="M765.63,1218.25 L767.08,1216.70 L769.15,1216.22 L771.58,1216.87 L796.95,1231.48 L804.22,1227.29 "/><path d="M752.68,1027.14 L751.17,1027.60 L750.02,1027.56 L747.11,1026.39 "/><path d="M747.53,1026.63 L751.76,1024.18 "/><path d="M752.47,1027.23 L753.82,1026.07 L754.69,1023.82 L754.80,1010.55 L757.06,1004.77 "/><path d="M764.95,897.23 L764.96,873.13 L765.30,871.61 L766.00,870.46 L767.86,869.57 L769.26,869.71 L770.77,870.35 L804.22,851.03 "/><path d="M764.95,759.58 L764.97,753.73 L765.92,750.81 L767.08,749.74 L768.58,749.27 L770.34,749.45 L772.22,750.25 "/><path d="M939.51,855.23 L2000.00,242.95 "/><path d="M767.08,1216.70 L804.22,1195.25 "/><path d="M772.22,1217.20 L804.22,1198.73 "/><path d="M770.77,870.35 L796.95,885.46 "/><path d="M766.65,869.94 L804.22,848.25 "/><path d="M767.08,749.74 L2000.00,37.91 "/><path d="M772.22,750.25 L2000.00,41.39 "/><path d="M907.50,1016.49 L808.66,1073.64 "/><path d="M808.66,972.85 L794.04,981.21 "/><path d="M794.04,1048.40 L904.59,984.57 "/><path d="M796.95,1231.48 L800.03,1232.48 L802.09,1231.99 L803.54,1230.44 L804.22,1227.29 "/><path d="M808.66,972.85 L829.46,984.84 L830.94,985.31 L832.29,985.28 L833.99,984.12 L834.57,982.83 L834.77,981.21 L868.23,961.89 "/><path d="M808.66,1073.64 L828.95,1085.35 L916.23,1034.96 "/><path d="M850.83,1254.24 L900.27,1225.70 "/><path d="M900.27,1262.51 L882.71,1272.65 "/><path d="M834.25,1171.51 L835.40,1170.44 L836.91,1169.97 L838.06,1170.02 L840.55,1170.95 L850.83,1176.88 L833.27,1187.02 "/><path d="M834.77,1095.43 L927.91,1041.70 "/><path d="M838.97,945.78 L837.87,945.88 L836.47,946.56 L835.45,947.81 L834.88,949.57 L834.77,981.21 "/><path d="M900.27,938.44 L892.99,942.64 L895.48,943.57 L897.17,943.53 L898.57,942.86 L899.83,941.06 L900.27,938.44 L900.27,926.57 L882.71,936.71 "/><path d="M833.27,851.08 L833.39,837.81 L833.96,836.05 L834.98,834.79 L836.38,834.12 L838.06,834.08 L840.55,835.01 L850.83,840.94 L833.27,851.08 "/><path d="M833.28,1235.70 L892.99,1201.22 "/><path d="M900.27,1213.83 L840.55,1248.31 "/><path d="M833.28,1223.83 L882.71,1195.29 L892.99,1201.22 "/><path d="M833.28,1175.15 L840.55,1170.95 "/><path d="M903.87,1172.83 L905.80,1172.07 L907.06,1170.27 L907.50,1167.66 L900.35,1171.92 "/><path d="M834.77,1125.67 L2000.00,452.92 "/><path d="M833.07,984.98 L870.64,963.28 "/><path d="M834.77,950.97 L842.04,946.78 "/><path d="M833.27,899.76 L892.99,865.28 "/><path d="M900.27,877.89 L840.55,912.37 "/><path d="M833.27,887.89 L882.71,859.35 "/><path d="M833.27,839.21 L840.55,835.01 "/><path d="M842.04,1138.26 L2000.00,469.71 "/><path d="M850.83,918.30 L900.28,889.79 "/><path d="M892.99,1278.59 L900.27,1274.38 L899.83,1277.01 L898.95,1278.44 L897.67,1279.32 L895.48,1279.51 L892.99,1278.59 L882.71,1272.65 "/><path d="M882.71,936.71 L892.99,942.64 "/><path d="M882.71,859.35 L892.99,865.28 "/><path d="M900.27,1262.51 L900.27,1274.38 "/><path d="M900.27,1225.70 L900.27,1213.83 "/><path d="M900.28,889.79 L900.27,877.89 "/><path d="M907.50,1167.66 L907.53,1138.38 L908.47,1135.46 L910.10,1134.17 L911.70,1133.91 "/><path d="M909.63,1134.39 L2000.00,504.87 "/><path d="M914.77,1134.90 L2000.00,508.34 "/><path d="M927.91,1041.70 L932.87,1044.53 L935.87,1045.18 L937.37,1044.71 L938.53,1043.64 L939.48,1040.71 L939.51,855.23 "/><path d="M937.37,1347.05 L2000.00,733.55 "/><path d="M2000.00,528.51 L932.23,1144.98 "/><path d="M937.37,1044.71 L2000.00,431.20 "/><path d="M932.23,842.63 L2000.00,226.16 "/><path d="M939.51,1342.35 L2000.00,730.07 "/><path d="M939.51,1040.00 L2000.00,427.72 "/></g></g><g id="paperID" visibility="hidden" opacity="0.00" transform="scale(0.000100)"><path style="stroke:#000000;stroke-width:0.500;fill:#e6e6e6;fill-rule:evenodd" d="M-2000.00,-2000.00L4000.00,-2000.00L4000.00,3700.00L-2000.00,3700.00zM0.00,0.00L2000.00,0.00L2000.00,1700.00L0.00,1700.00z"/><path style="fill:#000000;fill-opacity:0.118" d="M3.00,1700.00L2000.00,1700.00L2000.00,3.00L2003.00,3.00L2003.00,1703.00L3.00,1703.00z"/></g><g id="hotspot.0" ident="a0ccb095432221a6" onmouseover="ShowHotSpot(evt,'0')" onmouseout="HideHotSpot(evt,'0')" onmousemove="ShowToolTip(evt,'0',&quot;Hotspot 2&quot;)" opacity="0"><path style="fill:#ff8000;fill-rule:evenodd" d="M630.12,907.69L652.11,917.74L668.21,929.77L675.52,929.91L691.46,919.73L704.02,917.64L716.18,921.75L732.17,931.79L740.37,941.61L750.32,951.68L758.27,977.78L758.26,1000.55L756.08,1006.38L754.18,1022.49L732.10,1034.65L734.18,1055.92L732.23,1080.64L725.56,1098.00L712.41,1112.88L693.61,1122.11L662.10,1122.00L640.02,1116.05L611.99,1102.02L594.20,1087.78L578.17,1069.76L563.94,1043.95L557.84,1026.02L555.97,1015.88L555.97,972.46L561.95,948.41L573.36,925.78L586.24,914.63L601.40,907.76L609.40,905.75z"/></g><g id="hotspot.1" ident="b83176bf764d51ed" onmouseover="ShowHotSpot(evt,'1')" onmouseout="HideHotSpot(evt,'1')" onmousemove="ShowToolTip(evt,'1',&quot;Hotspot 1&quot;)" opacity="0"><path style="fill:#ff8000;fill-rule:evenodd" d="M630.12,907.69L652.11,917.74L668.21,929.77L675.52,929.91L691.46,919.73L704.02,917.64L716.18,921.75L732.17,931.79L740.37,941.61L750.32,951.68L758.27,977.78L758.26,1000.55L756.08,1006.38L754.18,1022.49L732.10,1034.65L734.18,1055.92L732.23,1080.64L725.56,1098.00L712.41,1112.88L693.61,1122.11L662.10,1122.00L640.02,1116.05L611.99,1102.02L594.20,1087.78L578.17,1069.76L563.94,1043.95L557.84,1026.02L555.97,1015.88L555.97,972.46L561.95,948.41L573.36,925.78L586.24,914.63L601.40,907.76L609.40,905.75z"/></g><g id="ToolTip" visibility="hidden" opacity="0" transform="translate(0,0)"><rect id="ToolTipShadow" opacity="0.20" fill="black" stroke="none" x="0" y="0" width="30" height="8"/><rect id="ToolTipBG" fill="#ffffe1" stroke="black" x="0" y="0" width="30" height="8"/><text xml:space="preserve" id="ToolTipText" fill="black" x="0" y="0" width="30" height="8">tooltip</text></g></g></svg>
