<?xml version="1.0" encoding="UTF-8" standalone="no"?>
<svg xmlns="http://www.w3.org/2000/svg" xmlns:xlink="http://www.w3.org/1999/xlink" width="500.000mm" height="500.000mm" viewBox="0.000000 0.000000 500.000000 500.000000" stroke-linejoin="round" stroke-linecap="round" fill="none" fill-rule="evenodd"><desc>Composer Export</desc><script type="text/ecmascript"><![CDATA[
if(typeof(top) != "undefined")
{
	top.ShowPaper = ShowPaper;
}
function ShowPaper()
{
  var svgDocument = getDocument();
  var paper = svgDocument.getElementById("paperID");
  if(paper)
  {
    paper.setAttribute("transform","scale(1)");
    paper.setAttribute("opacity","1");
    paper.setAttribute("visibility","visible");
  }
  var svg = svgDocument.getRootElement();
  if(svg)
  {
    svg.setAttribute("width","510.000mm");
    svg.setAttribute("height","510.000mm");
    svg.setAttribute("viewBox","-5.000000 -5.000000 510.000000 510.000000");
  }
}
]]></script><defs/><g><path style="fill:#ffffff" d="M499.90,499.90L366.28,499.94L366.15,222.33L365.89,499.94L0.12,499.90L0.12,0.12L499.90,0.12z"/><path style="fill:#000020" d="M366.51,90.98L366.09,110.23L365.64,110.11L366.15,82.24z"/><path style="fill:#000020" d="M366.28,499.94L365.89,499.94L366.15,222.33z"/><path style="stroke:#000000;stroke-width:0.353" d="M328.21,60.07L432.26,0.00"/><path style="stroke:#000000;stroke-width:0.353" d="M366.21,110.48L381.08,101.89"/><path style="stroke:#000000;stroke-width:0.353" d="M500.00,26.12L366.06,103.45"/><path style="stroke:#000000;stroke-width:0.353" d="M500.00,22.17L366.06,99.50"/><path style="stroke:#000000;stroke-width:0.353" d="M366.08,91.04L366.46,90.98L366.67,90.86L366.84,90.68L367.01,90.30L367.07,89.82L367.04,84.72L366.91,84.15L366.67,83.58L366.46,83.21L366.08,82.72"/><path style="stroke:#000000;stroke-width:0.353" d="M366.57,90.93L500.00,13.89"/><path style="stroke:#000000;stroke-width:0.353" d="M367.07,89.82L500.00,13.08"/><path style="stroke:#000000;stroke-width:0.353" d="M367.07,85.08L500.00,8.33"/><path style="stroke:#000000;stroke-width:0.353" d="M365.79,81.87L500.00,4.38"/><path style="stroke:#000000;stroke-width:0.353" d="M381.08,105.06L368.95,112.06"/><path style="stroke:#000000;stroke-width:0.353" d="M389.83,95.66L500.00,32.05"/><path style="stroke:#000000;stroke-width:0.353" d="M500.00,31.23L389.11,95.25"/><path style="stroke:#000000;stroke-width:0.353" d="M500.00,75.54L427.42,117.45"/><path style="stroke:#000000;stroke-width:0.353" d="M428.19,236.42L428.39,236.26L428.54,236.05L428.64,235.79L428.70,235.31L428.70,191.82L500.00,150.65"/><path style="stroke:#000000;stroke-width:0.353" d="M428.70,235.31L500.00,194.14"/><path style="stroke:#000000;stroke-width:0.353" d="M428.70,191.82L428.64,191.28L428.47,190.70L428.08,189.96L427.71,189.46"/><path style="stroke:#000000;stroke-width:0.353" d="M500.00,146.70L427.69,188.45"/><path style="stroke:#000000;stroke-width:0.353" d="M500.00,141.96L427.69,183.70"/><path style="stroke:#000000;stroke-width:0.353" d="M500.00,141.14L427.69,182.89"/><path style="stroke:#000000;stroke-width:0.353" d="M427.69,174.61L500.00,132.86"/><path style="stroke:#000000;stroke-width:0.353" d="M500.00,128.91L427.69,170.66"/><path style="stroke:#000000;stroke-width:0.353" d="M427.71,165.37L428.08,165.31L428.29,165.19L428.47,165.00L428.64,164.63L428.70,164.15L428.70,120.66L500.00,79.49"/><path style="stroke:#000000;stroke-width:0.353" d="M428.19,165.26L500.00,123.80"/><path style="stroke:#000000;stroke-width:0.353" d="M428.70,164.15L500.00,122.98"/><path style="stroke:#000000;stroke-width:0.353" d="M428.70,120.66L428.64,120.14L428.47,119.54L428.08,118.79L427.71,118.30"/><path style="stroke:#000000;stroke-width:0.353" d="M327.49,59.67L430.84,0.00"/><path style="stroke:#000000;stroke-width:0.353" d="M500.00,194.96L428.19,236.42L427.97,236.51L427.71,236.53"/><path style="stroke:#000000;stroke-width:0.353" d="M224.27,118.09L224.42,118.57L224.98,119.08L224.98,500.00"/><path style="stroke:#000000;stroke-width:0.353" d="M224.98,119.08L262.80,140.91L263.53,141.15L264.35,141.23L265.18,141.15L266.07,140.82L266.07,189.67L266.01,189.70L266.78,189.27L265.61,189.93L266.01,189.70"/><path style="stroke:#000000;stroke-width:0.353" d="M243.45,118.37L243.45,119.08L242.97,118.68L242.82,118.45L242.74,118.09L242.78,117.85L242.97,117.50L243.45,117.10L243.45,118.37"/><path style="stroke:#000000;stroke-width:0.353" d="M243.45,119.08L245.87,120.48L246.69,121.53L247.20,122.02L248.43,122.92L249.84,123.67L250.70,124.04L251.56,124.34L253.37,124.81L253.37,111.37L251.56,111.84L250.70,112.14L249.89,112.48L248.43,113.26L247.20,114.16L246.69,114.66L245.87,115.71L243.45,117.10"/><path style="stroke:#000000;stroke-width:0.353" d="M245.87,120.48L245.87,115.71"/><path style="stroke:#000000;stroke-width:0.353" d="M253.37,124.81L255.79,126.22L256.48,126.49L257.30,126.61L257.95,126.59L258.53,126.49L259.22,126.21L259.22,109.98L258.53,109.70L257.95,109.59L257.30,109.57L256.48,109.70L255.79,109.98L253.37,111.37"/><path style="stroke:#000000;stroke-width:0.353" d="M255.79,126.22L255.79,109.98"/><path style="stroke:#000000;stroke-width:0.353" d="M259.22,126.21L261.64,124.81L261.64,116.61L261.64,111.37L259.22,109.98"/><path style="stroke:#000000;stroke-width:0.353" d="M270.88,500.00L270.88,206.71L270.70,207.58L270.52,207.90L270.18,208.26L266.07,210.62L265.42,210.73L264.73,210.53L264.23,210.20L263.58,209.52L263.04,208.67L262.64,207.78L261.70,204.81L261.12,201.90L260.93,199.14L260.98,197.88L261.12,196.60L261.37,195.44L261.70,194.35L262.13,193.36L262.64,192.47L262.64,140.82"/><path style="stroke:#000000;stroke-width:0.353" d="M262.64,500.00L262.64,207.78"/><path style="stroke:#000000;stroke-width:0.353" d="M262.64,192.47L263.12,191.86L263.83,191.18L265.61,189.93"/><path style="stroke:#000000;stroke-width:0.353" d="M261.64,124.81L263.48,124.33L265.12,123.70L265.89,123.32L266.78,122.79L267.82,122.01L268.33,121.52L269.16,120.46L269.14,115.71L268.77,115.17L267.81,114.16L267.23,113.70L265.88,112.85L264.31,112.14L263.46,111.85L261.64,111.37"/><path style="stroke:#000000;stroke-width:0.353" d="M264.35,133.11L263.79,132.61L263.65,132.13L263.79,131.65L264.35,131.14L264.35,133.11L270.32,136.56L270.74,136.98L270.87,137.34L270.87,137.58L270.74,137.94L270.32,138.36L266.07,140.82"/><path style="stroke:#000000;stroke-width:0.353" d="M264.35,131.14L278.05,123.23L278.93,122.91L279.97,122.83L280.59,122.91L281.15,123.07L287.63,126.79L287.63,152.09L291.04,150.16L292.01,149.92L293.06,149.95L293.64,150.09L294.14,150.31L300.13,153.76L301.05,154.03L302.02,154.07L302.02,124.02L301.01,123.58L299.84,123.30L298.17,123.21L296.94,123.37L295.48,123.86L290.12,126.92L289.51,127.08L288.84,127.11L288.19,127.01L287.63,126.79"/><path style="stroke:#000000;stroke-width:0.353" d="M264.35,104.24L264.35,105.04L263.79,104.54L263.65,104.06L263.79,103.58L264.35,103.07L264.35,104.24"/><path style="stroke:#000000;stroke-width:0.353" d="M264.35,105.04L270.20,108.42L270.17,99.71L264.35,103.07"/><path style="stroke:#000000;stroke-width:0.353" d="M266.07,500.00L266.07,210.62"/><path style="stroke:#000000;stroke-width:0.353" d="M265.34,190.11L266.78,189.27L265.68,189.89"/><path style="stroke:#000000;stroke-width:0.353" d="M265.54,189.98L266.78,189.27L265.82,189.81"/><path style="stroke:#000000;stroke-width:0.353" d="M266.07,189.67L266.78,189.27L265.95,189.73"/><path style="stroke:#000000;stroke-width:0.353" d="M266.78,189.27L270.18,187.31L270.18,138.45"/><path style="stroke:#000000;stroke-width:0.353" d="M270.18,188.06L269.66,189.01L269.23,190.00L268.90,191.09L268.66,192.25L268.48,194.35L268.51,196.14L268.90,198.99L269.66,201.94L270.68,205.03L270.86,206.02L270.88,206.71"/><path style="stroke:#000000;stroke-width:0.353" d="M270.18,500.00L270.18,208.26"/><path style="stroke:#000000;stroke-width:0.353" d="M270.18,188.12L270.87,186.98L270.51,187.12L270.66,187.03"/><path style="stroke:#000000;stroke-width:0.353" d="M270.18,187.31L270.51,187.12L270.37,187.18"/><path style="stroke:#000000;stroke-width:0.353" d="M269.14,115.71L271.56,117.10L271.56,119.08L269.16,120.46"/><path style="stroke:#000000;stroke-width:0.353" d="M270.20,108.42L270.88,108.81"/><path style="stroke:#000000;stroke-width:0.353" d="M270.17,99.71L270.74,99.20L270.88,98.72"/><path style="stroke:#000000;stroke-width:0.353" d="M270.88,187.04L270.88,137.46"/><path style="stroke:#000000;stroke-width:0.353" d="M271.56,119.08L272.05,118.68L272.19,118.45L272.27,118.09L272.19,117.73L272.04,117.50L271.56,117.10"/><path style="stroke:#000000;stroke-width:0.353" d="M278.05,500.00L278.05,123.23"/><path style="stroke:#000000;stroke-width:0.353" d="M281.47,500.00L281.47,123.23"/><path style="stroke:#000000;stroke-width:0.353" d="M285.90,500.00L285.90,224.38L285.91,222.71L286.61,221.62L286.61,500.00"/><path style="stroke:#000000;stroke-width:0.353" d="M286.61,221.62L287.12,220.72L287.64,219.44L287.64,209.67L287.12,207.79L286.11,204.73L285.93,203.74L285.91,202.96"/><path style="stroke:#000000;stroke-width:0.353" d="M285.90,203.10L285.90,181.73L285.69,182.95L285.59,184.24L285.59,185.59L285.69,186.99L285.90,188.48"/><path style="stroke:#000000;stroke-width:0.353" d="M285.90,181.73L285.90,153.71L285.98,154.03L286.13,154.26L286.61,154.66L286.61,206.32"/><path style="stroke:#000000;stroke-width:0.353" d="M285.90,153.71L285.98,153.31L286.22,152.97L287.63,152.09"/><path style="stroke:#000000;stroke-width:0.353" d="M285.90,82.51L286.05,82.99L286.47,83.41L290.72,85.87L290.76,109.61L290.12,109.27L289.67,109.13L289.00,109.07L288.50,109.10L287.76,109.33L285.95,110.37"/><path style="stroke:#000000;stroke-width:0.353" d="M287.64,219.44L288.13,217.49L288.27,216.25L288.32,214.95L288.13,212.19L287.64,209.67"/><path style="stroke:#000000;stroke-width:0.353" d="M286.61,154.66L324.27,176.41L324.27,500.00"/><path style="stroke:#000000;stroke-width:0.353" d="M286.61,109.99L286.61,83.50"/><path style="stroke:#000000;stroke-width:0.353" d="M290.37,150.51L290.37,126.79"/><path style="stroke:#000000;stroke-width:0.353" d="M290.76,109.61L294.14,111.57L294.14,85.87L293.29,86.19L292.43,86.28L291.60,86.20L290.72,85.87"/><path style="stroke:#000000;stroke-width:0.353" d="M294.14,111.57L295.48,112.33L296.94,112.81L298.59,112.98L299.97,112.86L299.96,82.51L294.14,85.87"/><path style="stroke:#000000;stroke-width:0.353" d="M295.17,150.91L295.17,124.02"/><path style="stroke:#000000;stroke-width:0.353" d="M299.97,112.86L301.37,112.47L303.38,111.37L303.39,82.51L302.50,82.19L301.67,82.10L300.85,82.18L299.96,82.51"/><path style="stroke:#000000;stroke-width:0.353" d="M302.02,154.07L302.71,153.95L303.42,153.65L303.38,153.71"/><path style="stroke:#000000;stroke-width:0.353" d="M302.02,124.02L315.71,131.93L315.71,135.88L316.26,135.51L316.68,135.08L317.05,134.39L317.13,133.91L316.96,133.18L316.68,132.72L316.25,132.30L315.71,131.93"/><path style="stroke:#000000;stroke-width:0.353" d="M310.36,149.65L310.37,139.58L310.53,139.91L310.95,140.25L310.95,149.30L303.42,153.65"/><path style="stroke:#000000;stroke-width:0.353" d="M303.38,111.37L310.95,107.00L310.95,97.55L310.53,97.22L310.35,96.75L310.36,107.34"/><path style="stroke:#000000;stroke-width:0.353" d="M303.39,82.51L317.08,90.42L317.47,90.71L317.71,91.04L317.78,91.28L317.75,91.65L317.56,92.00L317.35,92.21L310.80,96.02L310.47,96.36L310.35,96.75"/><path style="stroke:#000000;stroke-width:0.353" d="M310.95,149.30L317.35,145.58L317.71,145.14L317.78,144.66L317.56,144.19L317.08,143.79L317.08,145.77"/><path style="stroke:#000000;stroke-width:0.353" d="M310.37,139.58L310.42,139.15L310.80,138.72L315.71,135.88"/><path style="stroke:#000000;stroke-width:0.353" d="M310.95,107.00L315.73,104.24L315.71,100.30L310.95,97.55"/><path style="stroke:#000000;stroke-width:0.353" d="M311.94,158.62L311.44,158.22L311.30,157.99L311.22,157.63L311.25,157.38L311.44,157.03L311.93,156.64L311.94,158.62L314.35,160.02L315.17,161.07L316.26,162.02L317.08,162.56L318.39,163.25L320.05,163.88L321.85,164.34L324.27,165.74L324.27,149.51L321.85,150.91L320.03,151.38L319.18,151.68L317.61,152.39L316.26,153.23L315.16,154.19L314.35,155.24L314.35,160.02"/><path style="stroke:#000000;stroke-width:0.353" d="M311.93,156.64L314.35,155.24"/><path style="stroke:#000000;stroke-width:0.353" d="M317.08,143.79L310.95,140.25"/><path style="stroke:#000000;stroke-width:0.353" d="M311.93,118.37L311.96,119.10L311.45,118.68L311.27,118.37L311.22,118.09L311.30,117.73L311.44,117.50L311.93,117.10L311.93,118.37"/><path style="stroke:#000000;stroke-width:0.353" d="M311.96,119.10L314.26,120.43L315.19,121.55L316.25,122.48L316.91,122.92L318.37,123.70L320.03,124.34L321.85,124.81L324.30,126.22L324.99,126.49L325.72,126.61L326.40,126.59L327.05,126.47L327.69,126.21L327.69,109.98L327.01,109.70L326.40,109.59L325.77,109.57L324.96,109.70L324.27,109.98L321.85,111.37L320.03,111.85L318.37,112.48L316.91,113.26L315.68,114.16L315.16,114.66L314.35,115.71L311.93,117.10"/><path style="stroke:#000000;stroke-width:0.353" d="M311.93,79.55L314.35,80.94L314.35,76.17L311.93,77.57L311.44,77.97L311.23,78.44L311.25,78.80L311.44,79.15L311.93,79.55L311.93,77.57"/><path style="stroke:#000000;stroke-width:0.353" d="M314.38,120.52L314.35,115.71"/><path style="stroke:#000000;stroke-width:0.353" d="M314.35,80.94L315.17,82.00L315.69,82.49L316.92,83.40L318.39,84.18L320.05,84.81L321.85,85.28L324.27,86.68L324.97,86.95L325.78,87.08L326.41,87.06L327.01,86.95L327.70,86.67L327.70,70.44L330.11,71.84L330.14,85.27L327.70,86.67"/><path style="stroke:#000000;stroke-width:0.353" d="M314.35,76.17L315.16,75.12L315.68,74.63L316.26,74.16L317.61,73.32L319.18,72.61L320.03,72.31L321.85,71.84L321.85,85.28"/><path style="stroke:#000000;stroke-width:0.353" d="M315.73,104.24L316.49,103.67L316.84,103.23L317.05,102.77L317.13,102.28L317.05,101.79L316.68,101.10L316.29,100.71L315.71,100.30"/><path style="stroke:#000000;stroke-width:0.353" d="M317.08,92.39L317.08,90.42"/><path style="stroke:#000000;stroke-width:0.353" d="M321.85,164.34L321.85,150.91"/><path style="stroke:#000000;stroke-width:0.353" d="M321.85,124.81L321.85,111.37"/><path style="stroke:#000000;stroke-width:0.353" d="M321.85,71.84L324.27,70.44L324.27,86.68"/><path style="stroke:#000000;stroke-width:0.353" d="M324.27,176.41L325.15,176.73L325.98,176.81L326.86,176.72L327.69,176.40L327.69,500.00"/><path style="stroke:#000000;stroke-width:0.353" d="M324.27,165.74L324.96,166.02L325.57,166.13L326.20,166.15L327.01,166.02L327.70,165.74L330.14,164.34L331.95,163.86L333.61,163.23L335.06,162.46L335.71,162.01L336.81,161.05L337.64,160.00L337.62,155.24L337.24,154.71L336.80,154.19L335.70,153.23L334.35,152.39L332.79,151.68L331.93,151.38L330.11,150.91L330.14,164.34"/><path style="stroke:#000000;stroke-width:0.353" d="M324.27,149.51L324.96,149.23L325.98,149.10L327.01,149.23L327.70,149.51L327.70,165.74"/><path style="stroke:#000000;stroke-width:0.353" d="M324.30,126.22L324.27,109.98"/><path style="stroke:#000000;stroke-width:0.353" d="M324.27,70.44L324.96,70.16L325.98,70.03L327.01,70.16L327.70,70.44"/><path style="stroke:#000000;stroke-width:0.353" d="M327.69,176.40L365.36,154.66L365.36,206.31L364.85,207.77L364.33,209.65L364.33,212.01L364.33,219.46L364.84,220.72L365.36,221.62L365.36,500.00"/><path style="stroke:#000000;stroke-width:0.353" d="M327.70,149.51L330.11,150.91"/><path style="stroke:#000000;stroke-width:0.353" d="M327.69,126.21L330.12,124.81L330.11,111.37L331.93,111.84L332.79,112.14L334.35,112.85L335.70,113.70L336.29,114.16L336.80,114.66L337.62,115.71L337.62,120.48L337.21,121.06L336.29,122.02L335.72,122.47L334.35,123.33L332.60,124.10L330.12,124.81"/><path style="stroke:#000000;stroke-width:0.353" d="M330.11,111.37L327.69,109.98"/><path style="stroke:#000000;stroke-width:0.353" d="M330.14,85.27L332.16,84.73L334.37,83.79L335.57,83.04L336.29,82.48L337.25,81.47L337.62,80.94L337.62,76.17L336.80,75.12L336.29,74.63L335.70,74.16L334.35,73.32L332.79,72.61L331.93,72.31L330.11,71.84"/><path style="stroke:#000000;stroke-width:0.353" d="M334.88,145.77L334.32,145.25L334.18,144.78L334.21,144.53L334.40,144.19L334.88,143.79L334.88,145.77L348.58,153.71L349.27,153.95L349.95,154.07L349.95,124.02L336.25,131.93L335.71,132.30L335.29,132.72L335.00,133.18L334.85,133.66L334.85,134.15L335.00,134.63L335.30,135.09L335.72,135.51L336.25,135.88L336.25,131.93"/><path style="stroke:#000000;stroke-width:0.353" d="M334.88,143.79L341.05,140.23L341.05,149.32"/><path style="stroke:#000000;stroke-width:0.353" d="M336.25,100.30L335.48,100.88L335.13,101.32L334.91,101.79L334.85,102.52L335.13,103.24L335.49,103.68L335.98,104.08L341.06,107.03L341.05,97.53L336.25,100.30L336.25,104.26"/><path style="stroke:#000000;stroke-width:0.353" d="M334.88,92.39L334.40,92.00L334.26,91.77L334.18,91.41L334.32,90.93L334.88,90.42L334.88,92.39L341.26,96.10L341.55,96.45L341.61,96.84L341.43,97.22L341.05,97.53"/><path style="stroke:#000000;stroke-width:0.353" d="M334.88,90.42L348.58,82.51L349.46,82.19L350.71,82.12L351.31,82.23L351.85,82.43L357.82,85.87L357.82,111.57L361.25,109.59L361.25,85.87L360.36,86.20L359.53,86.28L358.71,86.20L357.82,85.87"/><path style="stroke:#000000;stroke-width:0.353" d="M336.25,135.88L341.26,138.80L341.55,139.15L341.61,139.58L341.43,139.91L341.05,140.23"/><path style="stroke:#000000;stroke-width:0.353" d="M337.64,160.00L340.04,158.61L340.04,156.64L337.62,155.24"/><path style="stroke:#000000;stroke-width:0.353" d="M337.62,120.48L340.04,119.08L340.04,117.10L337.62,115.71"/><path style="stroke:#000000;stroke-width:0.353" d="M337.62,80.94L340.04,79.55L340.04,77.57L337.62,76.17"/><path style="stroke:#000000;stroke-width:0.353" d="M340.04,156.64L340.52,157.03L340.66,157.26L340.75,157.63L340.71,157.87L340.52,158.22L340.04,158.61"/><path style="stroke:#000000;stroke-width:0.353" d="M340.04,117.10L340.52,117.50L340.66,117.73L340.75,118.09L340.66,118.45L340.52,118.68L340.04,119.08"/><path style="stroke:#000000;stroke-width:0.353" d="M340.04,79.55L340.52,79.15L340.71,78.80L340.75,78.56L340.66,78.20L340.52,77.97L340.04,77.57"/><path style="stroke:#000000;stroke-width:0.353" d="M341.61,149.65L341.61,139.58"/><path style="stroke:#000000;stroke-width:0.353" d="M341.06,107.03L349.95,112.16L350.95,112.61L352.00,112.86L352.00,82.51"/><path style="stroke:#000000;stroke-width:0.353" d="M341.61,107.35L341.61,96.74"/><path style="stroke:#000000;stroke-width:0.353" d="M348.59,111.38L348.58,82.51"/><path style="stroke:#000000;stroke-width:0.353" d="M349.95,154.07L350.92,154.03L352.00,153.71L356.80,150.90L356.80,124.02L355.79,123.58L355.03,123.37L353.37,123.20L351.72,123.37L350.95,123.58L349.95,124.02"/><path style="stroke:#000000;stroke-width:0.353" d="M352.00,112.86L353.37,112.98L355.03,112.81L356.48,112.33L357.82,111.57"/><path style="stroke:#000000;stroke-width:0.353" d="M356.80,150.90L358.15,150.16L359.18,149.92L359.96,149.92L360.56,150.03L361.61,150.52L361.59,126.79L362.14,127.01L362.79,127.11L363.46,127.08L364.07,126.91L370.49,123.23L370.49,500.00"/><path style="stroke:#000000;stroke-width:0.353" d="M361.59,126.79L356.80,124.02"/><path style="stroke:#000000;stroke-width:0.353" d="M361.61,150.52L365.24,152.62L365.74,152.97L365.98,153.31L366.05,153.79L365.84,154.26L365.36,154.66"/><path style="stroke:#000000;stroke-width:0.353" d="M361.25,109.59L361.85,109.27L362.30,109.13L362.96,109.07L363.46,109.10L364.20,109.33L366.06,110.40"/><path style="stroke:#000000;stroke-width:0.353" d="M361.25,85.87L365.36,83.50L365.39,110.01"/><path style="stroke:#000000;stroke-width:0.353" d="M364.33,219.46L364.08,218.65L363.84,217.49L363.69,216.25L363.64,214.95L363.84,212.19L364.33,209.65"/><path style="stroke:#000000;stroke-width:0.353" d="M365.36,221.62L366.06,222.75L366.06,500.00"/><path style="stroke:#000000;stroke-width:0.353" d="M365.36,206.31L365.92,204.43L366.05,203.52L366.05,202.96"/><path style="stroke:#000000;stroke-width:0.353" d="M364.33,152.09L364.33,126.79"/><path style="stroke:#000000;stroke-width:0.353" d="M365.36,83.50L365.92,82.99L366.06,82.51"/><path style="stroke:#000000;stroke-width:0.353" d="M366.06,203.10L366.06,201.41L366.06,203.18"/><path style="stroke:#000000;stroke-width:0.353" d="M366.06,201.41L366.06,188.45L366.34,186.18L366.38,184.91L366.34,183.68L366.11,181.98L366.06,184.73L366.38,184.91"/><path style="stroke:#000000;stroke-width:0.353" d="M366.06,188.45L366.06,184.73"/><path style="stroke:#000000;stroke-width:0.353" d="M366.11,181.98L366.06,153.71"/><path style="stroke:#000000;stroke-width:0.353" d="M370.49,123.23L371.38,122.91L372.62,122.84L373.59,123.07L374.56,123.60L387.61,131.14L387.61,133.11L388.17,132.60L388.32,132.13L388.17,131.65L387.61,131.14"/><path style="stroke:#000000;stroke-width:0.353" d="M373.91,500.00L373.91,123.23"/><path style="stroke:#000000;stroke-width:0.353" d="M379.77,118.45L379.69,118.09L379.77,117.73L380.02,117.39L380.40,117.10L380.41,119.09L380.02,118.79L379.77,118.45"/><path style="stroke:#000000;stroke-width:0.353" d="M381.08,500.00L381.09,206.71L381.16,207.26L381.30,207.66L381.79,208.25L385.90,210.60L386.35,210.72L386.64,210.72L387.18,210.56L387.99,209.97L388.69,209.07L389.32,207.78L389.32,500.00"/><path style="stroke:#000000;stroke-width:0.353" d="M381.09,206.71L381.14,205.78L381.36,204.74L382.30,201.94L383.07,198.99L383.45,196.14L383.45,193.48L383.31,192.25L383.07,191.09L382.73,190.00L381.79,188.06"/><path style="stroke:#000000;stroke-width:0.353" d="M381.79,188.12L381.08,187.02L381.20,186.99L381.63,187.22L381.29,187.03"/><path style="stroke:#000000;stroke-width:0.353" d="M381.48,187.12L381.63,187.22L381.53,187.14"/><path style="stroke:#000000;stroke-width:0.353" d="M381.08,187.02L381.08,137.47L381.23,137.94L381.79,138.45L381.79,187.32L386.51,190.03L388.13,191.18L388.74,191.75L389.32,192.47L389.84,193.36L390.26,194.35L390.60,195.44L390.84,196.60L390.99,197.88L390.99,200.49L390.60,203.34L389.84,206.29L389.32,207.78"/><path style="stroke:#000000;stroke-width:0.353" d="M381.08,137.47L381.23,136.98L381.65,136.56L387.61,133.11"/><path style="stroke:#000000;stroke-width:0.353" d="M380.41,119.09L382.83,120.48L382.82,115.71L380.40,117.10"/><path style="stroke:#000000;stroke-width:0.353" d="M381.08,98.72L381.23,99.20L381.65,99.62L387.75,103.16L388.17,103.58L388.32,104.06L388.17,104.53L387.61,105.07L381.09,108.81"/><path style="stroke:#000000;stroke-width:0.353" d="M381.79,500.00L381.79,208.25"/><path style="stroke:#000000;stroke-width:0.353" d="M381.79,187.32L381.63,187.22L381.74,187.28"/><path style="stroke:#000000;stroke-width:0.353" d="M381.79,187.26L381.63,187.22L381.68,187.23"/><path style="stroke:#000000;stroke-width:0.353" d="M381.79,138.45L385.90,140.82L386.40,141.05L386.98,141.19L387.82,141.23L388.63,141.10L389.32,140.82L389.32,192.47"/><path style="stroke:#000000;stroke-width:0.353" d="M382.83,120.48L383.65,121.53L384.16,122.03L385.16,122.77L386.09,123.33L387.67,124.05L388.53,124.34L390.32,124.81L390.32,111.37L388.51,111.85L387.65,112.14L386.85,112.48L385.38,113.26L384.15,114.16L383.64,114.66L382.82,115.71"/><path style="stroke:#000000;stroke-width:0.353" d="M381.79,108.41L381.79,99.71"/><path style="stroke:#000000;stroke-width:0.353" d="M385.90,500.00L385.90,210.60"/><path style="stroke:#000000;stroke-width:0.353" d="M386.06,189.76L385.16,189.26L386.61,190.10"/><path style="stroke:#000000;stroke-width:0.353" d="M386.42,189.98L385.16,189.26L385.90,189.67L385.90,140.82"/><path style="stroke:#000000;stroke-width:0.353" d="M385.98,189.71L385.90,189.67"/><path style="stroke:#000000;stroke-width:0.353" d="M386.24,189.87L386.33,189.92"/><path style="stroke:#000000;stroke-width:0.353" d="M387.61,105.07L387.61,103.07"/><path style="stroke:#000000;stroke-width:0.353" d="M389.32,140.82L426.98,119.08L427.55,118.57L427.69,118.09"/><path style="stroke:#000000;stroke-width:0.353" d="M390.32,124.81L392.74,126.21L392.74,109.98L390.32,111.37"/><path style="stroke:#000000;stroke-width:0.353" d="M392.74,126.21L393.43,126.49L394.46,126.62L395.48,126.49L396.17,126.21L396.17,109.98L395.48,109.70L394.46,109.57L393.43,109.70L392.74,109.98"/><path style="stroke:#000000;stroke-width:0.353" d="M396.17,126.21L398.59,124.81L398.59,111.37L396.17,109.98"/><path style="stroke:#000000;stroke-width:0.353" d="M398.59,124.81L400.41,124.34L402.07,123.70L403.53,122.92L404.18,122.49L405.28,121.53L406.09,120.48L406.09,116.61L406.09,115.71L405.28,114.66L404.18,113.70L402.83,112.85L401.26,112.14L400.41,111.85L398.59,111.37"/><path style="stroke:#000000;stroke-width:0.353" d="M406.09,120.48L408.51,119.08L408.51,117.10L406.09,115.71"/><path style="stroke:#000000;stroke-width:0.353" d="M408.51,117.10L409.00,117.50L409.14,117.73L409.22,118.09L409.17,118.37L409.00,118.68L408.51,119.08"/><path style="stroke:#000000;stroke-width:0.353" d="M426.98,500.00L426.98,119.08"/><path style="stroke:#000000;stroke-width:0.353" d="M427.69,500.00L427.68,117.97L427.46,117.50L426.98,117.10L389.32,95.36L388.82,95.14L388.03,94.97L386.98,95.00L386.05,95.28L381.79,97.73L381.41,98.02L381.16,98.36L381.08,98.72L381.08,108.81L373.59,113.11L372.83,113.31L371.99,113.36L371.18,113.23L370.49,112.95L366.06,110.40L366.06,82.51L365.98,82.15L365.84,81.92L365.36,81.52L327.69,59.78L326.86,59.46L325.98,59.37L325.15,59.45L324.27,59.78L286.61,81.52L286.13,81.92L285.98,82.15L285.90,82.51L285.90,110.40L281.47,112.95L280.79,113.23L279.97,113.36L279.15,113.32L278.37,113.11L270.88,108.82L270.88,98.72L270.80,98.36L270.32,97.82L265.91,95.28L265.02,95.00L263.93,94.97L263.25,95.11L262.64,95.36L224.98,117.10L224.50,117.50L224.28,117.97L224.27,500.00"/><g id="paperID" visibility="hidden" opacity="0.00" transform="scale(0.000100)"><path style="stroke:#000000;stroke-width:0.500;fill:#e6e6e6;fill-rule:evenodd" d="M-2000.00,-2000.00L2500.00,-2000.00L2500.00,2500.00L-2000.00,2500.00zM0.00,0.00L500.00,0.00L500.00,500.00L0.00,500.00z"/><path style="fill:#000000;fill-opacity:0.118" d="M3.00,500.00L500.00,500.00L500.00,3.00L503.00,3.00L503.00,503.00L3.00,503.00z"/></g></g></svg>
