<?xml version="1.0" encoding="UTF-8" standalone="no"?>
<svg xmlns="http://www.w3.org/2000/svg" xmlns:xlink="http://www.w3.org/1999/xlink" width="500.000mm" height="500.000mm" viewBox="0.000000 0.000000 500.000000 500.000000" stroke-linejoin="round" stroke-linecap="round" fill="none" fill-rule="evenodd"><desc>Composer Export</desc><script type="text/ecmascript"><![CDATA[
if(typeof(top) != "undefined")
{
	top.ShowPaper = ShowPaper;
}
function ShowPaper()
{
  var svgDocument = getDocument();
  var paper = svgDocument.getElementById("paperID");
  if(paper)
  {
    paper.setAttribute("transform","scale(1)");
    paper.setAttribute("opacity","1");
    paper.setAttribute("visibility","visible");
  }
  var svg = svgDocument.getRootElement();
  if(svg)
  {
    svg.setAttribute("width","510.000mm");
    svg.setAttribute("height","510.000mm");
    svg.setAttribute("viewBox","-5.000000 -5.000000 510.000000 510.000000");
  }
}
]]></script><defs/><g><path style="fill:#ffffff" d="M499.90,499.90L366.28,499.94L366.15,400.51L365.89,499.94L0.12,499.90L0.12,0.12L499.90,0.12z"/><path style="fill:#97fa98" d="M380.09,138.98L384.81,144.18L385.99,147.36L387.18,151.73L387.19,155.44L385.61,158.62L385.22,160.61L383.45,160.82L382.66,161.62L377.43,164.76L376.64,164.39L376.30,165.09L375.88,165.60L373.84,166.74L373.30,166.39L373.04,166.97L372.32,167.58L368.37,169.95L367.92,170.66L368.27,171.93L368.36,173.40L368.37,178.58L367.73,182.03L366.42,185.07L363.61,188.21L359.29,190.64L357.17,190.97L354.76,190.97L351.19,190.57L346.15,189.45L341.93,187.45L339.20,185.74L338.79,185.01L338.20,184.89L337.77,184.71L337.18,184.32L332.01,178.72L328.85,173.55L327.23,169.61L326.11,163.51L326.11,157.13L326.28,155.55L327.24,151.04L329.51,145.77L331.61,143.11L333.88,141.42L336.76,139.92L338.89,139.60L341.69,139.60L344.70,140.23L349.88,142.60L353.49,145.40L354.06,145.38L356.50,143.79L357.86,143.18L359.26,142.22L359.96,142.00L360.72,141.78L362.84,140.21L368.18,137.22L369.57,136.27L370.25,136.00L371.06,135.78L374.90,135.83z"/><path style="fill:#000020" d="M350.25,117.35L350.67,112.01L350.67,120.14z"/><path style="fill:#000020" d="M371.06,135.78L370.25,136.00L370.52,135.43z"/><path style="fill:#000020" d="M359.78,139.97L360.19,129.47L360.72,141.78L359.96,142.00z"/><path style="fill:#000020" d="M358.26,149.73L358.26,150.27L357.83,150.16L357.83,149.30z"/><path style="fill:#000020" d="M377.43,164.76L376.30,165.09L376.64,164.39z"/><path style="fill:#000020" d="M373.84,166.74L373.04,166.97L373.30,166.39z"/><path style="fill:#000020" d="M368.54,171.54L368.27,171.93L367.92,170.66z"/><path style="fill:#000020" d="M368.37,178.58L368.36,173.40L368.52,173.55z"/><path style="fill:#000020" d="M339.20,185.74L338.36,185.44L338.20,184.89L338.79,185.01z"/><path style="fill:#000020" d="M366.28,499.94L365.89,499.94L366.15,400.51z"/><path style="stroke:#000000;stroke-width:0.353" d="M352.35,122.05L355.77,124.02L333.52,136.87L333.46,136.33L333.36,135.94L333.01,135.18L332.53,134.51L332.25,134.23L331.80,133.91L352.35,122.05L351.88,121.77L351.53,121.48L351.22,121.11L350.88,120.52L350.66,119.76L350.63,118.29L327.69,131.53L327.25,131.35L326.97,131.30L326.71,131.33L326.48,131.41"/><path style="stroke:#000000;stroke-width:0.353" d="M384.21,132.51L387.61,130.55L387.56,131.20L387.40,131.78L387.15,132.26L386.81,132.62L386.39,132.87L385.90,132.98L385.36,132.96L384.78,132.81L384.16,132.51L370.49,124.62L369.90,124.21L369.32,123.70L368.53,122.77L367.87,121.69L367.49,120.83L367.18,119.78L367.07,118.69L367.06,113.01L366.88,112.25L366.58,111.66L366.17,111.14L365.72,110.76L359.24,107.02L358.95,106.76L358.55,106.30L358.22,105.76L358.05,105.38L357.88,104.80L357.83,104.43L357.82,88.44L359.54,87.45L365.51,90.89L365.80,91.00L366.08,91.05L366.34,91.02L366.57,90.93L366.76,90.78L366.91,90.57L367.01,90.30L367.06,89.99L367.06,84.90L367.01,84.54L366.84,83.96L366.57,83.39L366.21,82.87L365.80,82.44L365.36,82.12L327.69,60.37L327.25,60.18L326.97,60.14L326.71,60.16L326.48,60.25"/><path style="stroke:#000000;stroke-width:0.353" d="M327.69,131.53L331.80,133.91"/><path style="stroke:#000000;stroke-width:0.353" d="M327.69,60.37L432.26,-0.00"/><path style="stroke:#000000;stroke-width:0.353" d="M333.52,136.87L333.52,141.77"/><path style="stroke:#000000;stroke-width:0.353" d="M333.01,110.30L333.21,110.15L333.36,109.94L333.46,109.67L333.51,109.37L333.52,102.47L333.57,102.00L333.68,101.73L333.82,101.52L334.02,101.37L334.25,101.28L334.50,101.25L334.78,101.30L335.25,101.50L333.52,102.47"/><path style="stroke:#000000;stroke-width:0.353" d="M333.52,109.20L341.05,104.85L335.25,101.50"/><path style="stroke:#000000;stroke-width:0.353" d="M335.69,93.24L335.32,92.34L335.22,91.61L349.29,83.49L350.00,84.10L350.48,84.77L350.76,85.34L350.88,85.72L350.99,86.46L336.93,94.58L336.63,94.37L336.21,93.97L335.69,93.24"/><path style="stroke:#000000;stroke-width:0.353" d="M335.22,91.61L335.22,88.81L346.85,82.10L345.54,80.76L344.85,80.17L343.45,79.16L342.05,78.42L341.35,78.15L340.67,77.95L340.00,77.82L339.35,77.76L335.22,80.15L334.94,80.74L334.72,81.38L334.55,82.08L334.44,82.81L334.38,84.40L334.55,86.12L334.72,87.00L335.22,88.81"/><path style="stroke:#000000;stroke-width:0.353" d="M335.22,80.15L335.22,77.36L336.93,76.37L336.34,76.15L336.07,76.14L335.72,76.25L335.53,76.40L335.32,76.74L335.22,77.36"/><path style="stroke:#000000;stroke-width:0.353" d="M336.93,94.58L339.35,95.97L340.67,97.31L341.35,97.90L342.76,98.91L344.16,99.65L344.85,99.92L345.54,100.12L346.20,100.25L346.85,100.30L349.27,101.70L351.00,100.71L350.88,101.33L350.76,101.57L350.48,101.82L350.13,101.93L349.86,101.92L349.27,101.70"/><path style="stroke:#000000;stroke-width:0.353" d="M336.93,76.37L339.35,77.76"/><path style="stroke:#000000;stroke-width:0.353" d="M340.47,139.58L359.80,128.42L359.22,127.17L358.76,126.46L358.24,125.82L357.68,125.26L357.10,124.80L355.77,124.02"/><path style="stroke:#000000;stroke-width:0.353" d="M339.35,95.97L350.99,89.25L351.26,90.16L351.64,91.87L351.77,92.82L351.82,93.66L351.77,95.25L351.66,95.99L351.49,96.69L351.26,97.33L350.99,97.91L346.85,100.30"/><path style="stroke:#000000;stroke-width:0.353" d="M341.05,104.85L341.76,105.26"/><path style="stroke:#000000;stroke-width:0.353" d="M352.89,145.06L360.22,140.82L360.22,132.13L345.50,140.63"/><path style="stroke:#000000;stroke-width:0.353" d="M346.85,82.10L349.29,83.49"/><path style="stroke:#000000;stroke-width:0.353" d="M350.63,118.29L350.63,117.48"/><path style="stroke:#000000;stroke-width:0.353" d="M351.00,100.71L350.99,97.91"/><path style="stroke:#000000;stroke-width:0.353" d="M350.99,89.25L350.99,86.46"/><path style="stroke:#000000;stroke-width:0.353" d="M352.43,144.67L360.22,140.17"/><path style="stroke:#000000;stroke-width:0.353" d="M357.85,104.24L500.00,22.17"/><path style="stroke:#000000;stroke-width:0.353" d="M357.82,88.44L357.85,88.11L357.98,87.70L358.13,87.49L358.33,87.33L358.55,87.24L358.81,87.22L359.24,87.31L359.54,87.45"/><path style="stroke:#000000;stroke-width:0.353" d="M360.22,140.82L360.22,142.00"/><path style="stroke:#000000;stroke-width:0.353" d="M360.22,132.13L360.22,130.55L360.17,129.83L360.02,129.09L359.80,128.42"/><path style="stroke:#000000;stroke-width:0.353" d="M359.54,107.22L500.00,26.12"/><path style="stroke:#000000;stroke-width:0.353" d="M361.11,189.57L365.51,192.11L365.80,192.34L366.21,192.78L366.67,193.48L366.91,194.06L367.06,194.81L367.07,199.73L367.01,200.21L366.91,200.47L366.76,200.68L366.57,200.84"/><path style="stroke:#000000;stroke-width:0.353" d="M365.36,192.02L387.61,179.17L387.61,183.12L367.07,194.99"/><path style="stroke:#000000;stroke-width:0.353" d="M365.72,110.76L387.61,98.13L387.61,101.29L367.07,113.15"/><path style="stroke:#000000;stroke-width:0.353" d="M365.36,82.12L500.00,4.38"/><path style="stroke:#000000;stroke-width:0.353" d="M367.07,199.73L390.01,186.49L388.74,185.73L388.20,185.15L387.93,184.72L387.69,184.11L387.62,183.66L387.61,183.12"/><path style="stroke:#000000;stroke-width:0.353" d="M387.61,179.17L387.60,177.63L387.49,176.90L387.29,176.13L386.99,175.36L386.61,174.61L385.82,173.48L366.47,184.66"/><path style="stroke:#000000;stroke-width:0.353" d="M367.07,118.69L390.35,105.24L389.03,104.45L388.60,104.05L388.34,103.73L388.01,103.19L387.77,102.61L387.64,102.04L387.61,101.29"/><path style="stroke:#000000;stroke-width:0.353" d="M366.57,90.93L500.00,13.89"/><path style="stroke:#000000;stroke-width:0.353" d="M367.07,89.83L500.00,13.08"/><path style="stroke:#000000;stroke-width:0.353" d="M367.07,85.08L500.00,8.33"/><path style="stroke:#000000;stroke-width:0.353" d="M368.09,179.77L382.82,171.27L375.29,166.92L367.95,171.15"/><path style="stroke:#000000;stroke-width:0.353" d="M375.85,167.24L368.06,171.74"/><path style="stroke:#000000;stroke-width:0.353" d="M369.46,136.52L369.51,136.18L369.62,135.91L369.77,135.70L369.96,135.55L370.31,135.44L370.58,135.45L371.17,135.67L370.42,136.10"/><path style="stroke:#000000;stroke-width:0.353" d="M370.49,124.62L396.51,109.59L396.75,110.24L396.85,110.98L396.85,119.67L388.98,124.22L388.63,124.07L388.40,124.03L388.01,124.12L396.85,119.02"/><path style="stroke:#000000;stroke-width:0.353" d="M371.17,135.67L371.48,135.85"/><path style="stroke:#000000;stroke-width:0.353" d="M375.29,166.92L374.36,166.38"/><path style="stroke:#000000;stroke-width:0.353" d="M382.82,171.27L384.19,172.06L384.78,172.46L385.36,172.97L385.82,173.48"/><path style="stroke:#000000;stroke-width:0.353" d="M383.25,160.85L383.81,161.14L384.23,161.23L384.61,161.18L384.91,160.97L385.12,160.63L385.20,160.34L385.22,158.84"/><path style="stroke:#000000;stroke-width:0.353" d="M383.51,161.00L384.07,160.68"/><path style="stroke:#000000;stroke-width:0.353" d="M385.22,145.76L385.12,145.02L384.99,144.64L384.72,144.07L384.37,143.56L384.10,143.25L383.51,142.79"/><path style="stroke:#000000;stroke-width:0.353" d="M395.14,209.22L396.86,208.23L396.75,208.85L396.63,209.09L396.45,209.27L396.12,209.43L395.87,209.45L395.59,209.41L395.14,209.22L389.17,205.78L388.88,205.67L388.60,205.62L388.34,205.65L388.11,205.74"/><path style="stroke:#000000;stroke-width:0.353" d="M387.61,130.55L387.62,124.88L387.74,124.42L388.01,124.12"/><path style="stroke:#000000;stroke-width:0.353" d="M387.61,98.13L387.61,96.94L387.67,96.46L387.84,96.08L388.11,95.83L388.34,95.74L388.60,95.72L388.88,95.76L389.32,95.95L500.00,32.05"/><path style="stroke:#000000;stroke-width:0.353" d="M500.00,31.23L388.11,95.83"/><path style="stroke:#000000;stroke-width:0.353" d="M389.32,205.86L396.85,201.51L396.86,208.23"/><path style="stroke:#000000;stroke-width:0.353" d="M390.01,186.49L390.72,186.90"/><path style="stroke:#000000;stroke-width:0.353" d="M388.98,124.22L395.44,127.92L395.73,128.00L396.00,128.01L396.24,127.95L396.45,127.83L396.63,127.65L396.75,127.41L396.83,127.12L396.85,126.79L395.14,127.78"/><path style="stroke:#000000;stroke-width:0.353" d="M390.35,105.24L395.29,108.10L395.59,108.33L396.00,108.77L396.24,109.11L396.51,109.59"/><path style="stroke:#000000;stroke-width:0.353" d="M389.32,95.95L427.13,117.79L427.71,118.30L428.19,118.97L428.54,119.73L428.64,120.14L428.70,120.66L500.00,79.49"/><path style="stroke:#000000;stroke-width:0.353" d="M397.88,172.06L402.68,174.82L423.22,162.96L422.58,162.56L422.15,162.16L421.77,161.67L421.47,161.11L421.32,160.73L421.19,160.16L421.16,158.62L397.88,172.06L397.29,171.65L396.71,171.14L396.17,170.54L395.46,169.50L394.92,168.37L394.66,167.60L394.51,166.84L394.46,166.13L394.46,150.31L397.88,148.34L397.29,148.05L396.71,147.90L396.17,147.88L395.76,147.97L395.49,148.08L395.08,148.40L394.78,148.83L394.57,149.36L394.46,150.31"/><path style="stroke:#000000;stroke-width:0.353" d="M404.05,143.20L405.78,142.22L405.46,142.07L405.17,141.99L404.90,141.98L404.66,142.03L404.45,142.16L404.27,142.34L404.15,142.58L404.07,142.87L404.05,150.31L411.92,145.77L419.45,150.11L420.04,150.57L420.50,151.13L419.02,151.94L394.46,166.13"/><path style="stroke:#000000;stroke-width:0.353" d="M396.85,201.51L396.85,200.70"/><path style="stroke:#000000;stroke-width:0.353" d="M396.85,126.79L396.85,119.67"/><path style="stroke:#000000;stroke-width:0.353" d="M404.05,150.31L403.96,150.81L403.72,151.14L403.55,151.24L403.36,151.29L402.91,151.22L397.88,148.34"/><path style="stroke:#000000;stroke-width:0.353" d="M419.45,195.18L419.75,195.33L420.17,195.42L420.43,195.39L420.66,195.30L420.85,195.15L421.00,194.94L421.14,194.52L421.16,194.20L419.45,195.18L405.76,187.28L405.31,186.95L404.90,186.52L404.66,186.18L404.35,185.62L404.15,185.05L404.05,184.49L404.05,177.20L404.00,176.76L403.86,176.30L403.55,175.70L403.14,175.19L402.68,174.82"/><path style="stroke:#000000;stroke-width:0.353" d="M405.41,213.18L407.83,214.57L419.46,207.86L419.46,205.06L405.41,213.18L404.82,212.72L404.30,212.08L404.00,211.52L403.80,210.95L403.69,210.21L417.75,202.10L415.33,200.70L403.69,207.42L403.69,210.21"/><path style="stroke:#000000;stroke-width:0.353" d="M403.69,195.96L405.42,194.98L404.82,194.75L404.42,194.76L404.09,194.92L403.92,195.10L403.80,195.34L403.69,195.96L403.69,198.75L403.42,199.34L403.19,199.99L403.02,200.68L402.91,201.42L402.85,203.01L403.02,204.72L403.19,205.61L403.69,207.42"/><path style="stroke:#000000;stroke-width:0.353" d="M403.69,198.75L407.83,196.37L405.42,194.98"/><path style="stroke:#000000;stroke-width:0.353" d="M404.05,184.31L500.00,128.91"/><path style="stroke:#000000;stroke-width:0.353" d="M404.05,177.20L425.96,164.54L423.22,162.96"/><path style="stroke:#000000;stroke-width:0.353" d="M403.64,151.20L412.49,146.09"/><path style="stroke:#000000;stroke-width:0.353" d="M405.41,134.11L407.83,135.51L419.46,128.79L419.46,125.99L405.41,134.11L404.82,133.65L404.42,133.18L404.09,132.65L403.80,131.88L403.69,131.14L403.69,128.35L403.19,126.54L403.02,125.65L402.91,124.78L402.85,123.13L402.91,122.35L403.02,121.61L403.19,120.92L403.42,120.27L403.69,119.68L403.69,116.89L403.80,116.27L403.92,116.03L404.09,115.85L404.42,115.69L404.82,115.68L405.42,115.89L403.69,116.89"/><path style="stroke:#000000;stroke-width:0.353" d="M403.69,131.14L417.75,123.03L415.33,121.63L403.69,128.35"/><path style="stroke:#000000;stroke-width:0.353" d="M403.69,119.68L407.83,117.30L408.47,117.35L409.14,117.48L409.83,117.68L410.52,117.95L411.93,118.70L412.63,119.17L413.43,119.79L414.68,120.94L415.33,121.63"/><path style="stroke:#000000;stroke-width:0.353" d="M405.76,187.28L500.00,132.87"/><path style="stroke:#000000;stroke-width:0.353" d="M411.92,145.77L405.78,142.22"/><path style="stroke:#000000;stroke-width:0.353" d="M405.42,115.89L407.83,117.30"/><path style="stroke:#000000;stroke-width:0.353" d="M407.83,214.57L409.14,215.91L409.83,216.50L411.23,217.51L412.63,218.25L413.33,218.52L414.01,218.72L414.68,218.85L415.33,218.91L419.46,216.52L419.74,215.93L419.96,215.29L420.13,214.60L420.24,213.86L420.30,212.27L420.13,210.55L419.96,209.67L419.46,207.86"/><path style="stroke:#000000;stroke-width:0.353" d="M407.83,196.37L408.47,196.42L409.14,196.55L409.83,196.75L410.52,197.02L411.93,197.77L413.33,198.77L414.01,199.36L415.33,200.70"/><path style="stroke:#000000;stroke-width:0.353" d="M407.83,135.51L409.14,136.84L409.83,137.43L411.23,138.44L412.63,139.18L413.33,139.46L414.01,139.66L414.68,139.78L415.33,139.84L419.46,137.45L419.46,140.25L417.75,141.24L415.33,139.84"/><path style="stroke:#000000;stroke-width:0.353" d="M415.33,218.91L417.75,220.30L418.33,220.52L418.61,220.53L418.85,220.48L419.15,220.27L419.36,219.93L419.46,219.31L417.75,220.30"/><path style="stroke:#000000;stroke-width:0.353" d="M417.75,202.10L418.33,202.55L418.61,202.86L418.96,203.37L419.23,203.94L419.36,204.33L419.46,205.06"/><path style="stroke:#000000;stroke-width:0.353" d="M417.75,141.24L418.05,141.38L418.47,141.47L418.73,141.44L418.98,141.34L419.23,141.10L419.36,140.86L419.46,140.25"/><path style="stroke:#000000;stroke-width:0.353" d="M419.46,125.99L419.36,125.26L419.23,124.87L418.96,124.31L418.73,123.95L418.33,123.49L417.75,123.03"/><path style="stroke:#000000;stroke-width:0.353" d="M419.46,219.31L419.46,216.52"/><path style="stroke:#000000;stroke-width:0.353" d="M420.50,151.13L420.93,151.96L421.11,152.53L421.16,152.90L421.16,158.62"/><path style="stroke:#000000;stroke-width:0.353" d="M419.46,137.45L419.74,136.85L419.96,136.22L420.13,135.53L420.24,134.79L420.30,133.20L420.13,131.49L419.96,130.60L419.46,128.79"/><path style="stroke:#000000;stroke-width:0.353" d="M421.16,194.20L421.17,187.31L421.22,187.00L421.32,186.73L421.47,186.52L421.66,186.37L421.89,186.28L422.15,186.25L422.43,186.30L422.73,186.41L427.28,189.06L427.84,189.62L428.29,190.32L428.59,191.09L428.70,191.82L500.00,150.66"/><path style="stroke:#000000;stroke-width:0.353" d="M421.66,186.37L500.00,141.14"/><path style="stroke:#000000;stroke-width:0.353" d="M422.87,186.49L500.00,141.96"/><path style="stroke:#000000;stroke-width:0.353" d="M500.00,146.70L426.98,188.86"/><path style="stroke:#000000;stroke-width:0.353" d="M500.00,122.98L428.70,164.15L428.64,164.63L428.54,164.89L428.39,165.10L428.19,165.26L427.84,165.37L427.43,165.33L427.13,165.22L425.96,164.54"/><path style="stroke:#000000;stroke-width:0.353" d="M500.00,75.54L426.98,117.70"/><path style="stroke:#000000;stroke-width:0.353" d="M428.19,236.42L428.39,236.27L428.54,236.05L428.64,235.79L428.70,235.31L428.70,191.82"/><path style="stroke:#000000;stroke-width:0.353" d="M428.70,235.31L500.00,194.14"/><path style="stroke:#000000;stroke-width:0.353" d="M428.19,165.26L500.00,123.80"/><path style="stroke:#000000;stroke-width:0.353" d="M428.70,164.15L428.70,120.66"/><path style="stroke:#000000;stroke-width:0.353" d="M430.84,-0.00L326.48,60.25L326.29,60.41L326.14,60.62L326.04,60.88L325.98,61.36L325.98,104.85L326.04,105.39L326.29,106.16L326.59,106.71L326.86,107.07L327.25,107.49L327.55,107.72L331.95,110.26L332.25,110.37L332.66,110.42L333.01,110.30L341.76,105.26L348.92,109.39L349.37,109.72L349.90,110.32L350.23,110.86L350.40,111.24L350.53,111.62L350.63,112.18L350.63,117.47L326.48,131.41L326.21,131.67L326.09,131.91L325.98,132.52L325.98,176.01L326.04,176.55L326.14,176.94L326.38,177.51L326.71,178.05L327.25,178.65L327.69,178.97L365.36,200.72L365.94,200.94L366.21,200.95L366.57,200.84L390.72,186.90L395.14,189.45L395.73,189.91L396.24,190.55L396.63,191.30L396.83,192.06L396.85,200.69L388.11,205.74L387.84,205.99L387.67,206.37L387.62,206.68L387.62,211.77L387.67,212.13L387.84,212.71L388.11,213.28L388.34,213.63L388.88,214.23L389.32,214.56L426.98,236.30L427.43,236.49L427.71,236.53L427.97,236.51L428.19,236.42L500.00,194.96"/><path style="stroke:#000000;stroke-width:0.353" d="M224.27,296.20L224.31,296.44L224.42,296.68L224.60,296.90L224.98,297.19L224.98,500.00"/><path style="stroke:#000000;stroke-width:0.353" d="M224.98,297.19L262.80,319.01L263.52,319.26L264.35,319.34L265.18,319.26L265.57,319.15L266.07,318.93L266.07,367.77L264.88,368.51L263.83,369.29L263.12,369.96L262.64,370.58L262.64,318.93"/><path style="stroke:#000000;stroke-width:0.353" d="M243.45,297.19L242.97,296.79L242.82,296.56L242.74,296.20L242.82,295.84L242.97,295.61L243.45,295.21L243.45,297.19L245.87,298.59L246.24,299.12L246.69,299.63L247.79,300.59L249.14,301.44L250.70,302.15L251.56,302.45L253.37,302.92L253.37,289.48L251.56,289.95L250.70,290.25L249.89,290.59L248.43,291.37L247.20,292.27L246.69,292.76L245.87,293.81L243.45,295.21"/><path style="stroke:#000000;stroke-width:0.353" d="M245.87,298.59L245.87,293.81"/><path style="stroke:#000000;stroke-width:0.353" d="M253.37,302.92L255.79,304.33L255.79,288.08L253.37,289.48"/><path style="stroke:#000000;stroke-width:0.353" d="M255.79,304.33L256.68,304.64L257.51,304.72L258.53,304.59L259.22,304.31L259.22,288.08L258.53,287.81L257.51,287.67L256.48,287.81L255.79,288.08"/><path style="stroke:#000000;stroke-width:0.353" d="M259.22,304.31L261.64,302.92L263.48,302.44L265.12,301.81L265.89,301.43L266.78,300.89L267.82,300.12L268.33,299.63L269.16,298.57L269.14,293.81L268.77,293.29L268.33,292.76L267.23,291.80L265.88,290.96L264.31,290.25L263.46,289.95L261.64,289.48L259.22,288.08"/><path style="stroke:#000000;stroke-width:0.353" d="M262.64,370.58L262.13,371.47L261.70,372.46L261.37,373.55L261.12,374.71L260.98,375.94L260.93,377.25L260.98,378.60L261.12,380.01L261.37,381.45L261.70,382.91L262.13,384.40L262.89,386.49L263.38,387.36L264.00,388.10L264.73,388.64L265.02,388.76L265.42,388.84L265.76,388.81L266.07,388.72L266.07,500.00"/><path style="stroke:#000000;stroke-width:0.353" d="M262.64,500.00L262.64,385.89"/><path style="stroke:#000000;stroke-width:0.353" d="M261.64,302.92L261.64,289.48"/><path style="stroke:#000000;stroke-width:0.353" d="M264.35,311.22L263.99,310.95L263.79,310.71L263.68,310.48L263.65,310.23L263.68,309.99L263.79,309.76L264.08,309.43L264.35,309.25L264.35,311.22L270.32,314.67L270.74,315.09L270.87,315.45L270.87,315.69L270.80,315.93L270.56,316.27L270.32,316.47L266.07,318.93"/><path style="stroke:#000000;stroke-width:0.353" d="M264.35,309.25L278.05,301.34L278.37,301.18L278.93,301.01L279.97,300.93L280.59,301.01L281.15,301.18L287.63,304.90L287.63,330.20L290.87,328.34L291.22,328.20L291.80,328.06L292.64,328.02L293.45,328.14L293.99,328.34L295.17,329.01L295.19,302.12L290.12,305.02L289.51,305.19L288.84,305.22L288.19,305.12L287.63,304.90"/><path style="stroke:#000000;stroke-width:0.353" d="M264.35,283.16L264.35,281.18L263.87,281.57L263.73,281.80L263.65,282.04L263.68,282.41L263.97,282.86L264.35,283.16L270.20,286.53L270.18,277.82L264.35,281.18"/><path style="stroke:#000000;stroke-width:0.353" d="M266.07,388.72L270.28,386.25L270.64,385.82L270.83,385.24L270.88,384.78L270.86,384.13L270.68,383.13L270.39,382.15L269.66,380.05L269.23,378.57L268.90,377.10L268.66,375.66L268.51,374.25L268.46,372.90L268.55,371.26L268.66,370.36L268.90,369.20L269.23,368.11L269.66,367.12L270.17,366.16"/><path style="stroke:#000000;stroke-width:0.353" d="M265.34,368.21L266.59,367.49L265.57,368.07"/><path style="stroke:#000000;stroke-width:0.353" d="M265.68,368.00L266.59,367.49L265.84,367.91L266.56,367.49L266.07,367.77"/><path style="stroke:#000000;stroke-width:0.353" d="M266.59,367.49L266.78,367.38L266.56,367.49"/><path style="stroke:#000000;stroke-width:0.353" d="M266.07,273.47L266.07,273.50"/><path style="stroke:#000000;stroke-width:0.353" d="M269.27,365.94L269.67,365.71L266.78,367.38"/><path style="stroke:#000000;stroke-width:0.353" d="M270.18,500.00L270.17,386.32"/><path style="stroke:#000000;stroke-width:0.353" d="M270.18,366.23L270.88,365.10L270.81,365.08L270.51,365.23L270.66,365.14"/><path style="stroke:#000000;stroke-width:0.353" d="M269.67,365.71L270.31,365.33L270.18,365.42L270.18,316.56"/><path style="stroke:#000000;stroke-width:0.353" d="M270.31,365.33L270.35,365.32L270.18,365.42"/><path style="stroke:#000000;stroke-width:0.353" d="M269.14,293.81L271.56,295.21L271.56,297.19L269.16,298.57"/><path style="stroke:#000000;stroke-width:0.353" d="M270.20,286.53L270.88,286.92"/><path style="stroke:#000000;stroke-width:0.353" d="M270.18,277.82L270.56,277.53L270.74,277.31L270.85,277.07L270.88,276.83"/><path style="stroke:#000000;stroke-width:0.353" d="M270.88,500.00L270.88,384.62"/><path style="stroke:#000000;stroke-width:0.353" d="M270.48,365.23L270.51,365.23L270.35,365.32"/><path style="stroke:#000000;stroke-width:0.353" d="M270.88,365.10L270.88,315.57"/><path style="stroke:#000000;stroke-width:0.353" d="M271.56,297.19L271.83,297.00L272.08,296.73L272.23,296.44L272.27,296.20L272.23,295.96L272.05,295.61L271.56,295.21"/><path style="stroke:#000000;stroke-width:0.353" d="M278.05,301.34L278.05,500.00"/><path style="stroke:#000000;stroke-width:0.353" d="M281.47,500.00L281.47,301.34"/><path style="stroke:#000000;stroke-width:0.353" d="M285.90,500.00L285.90,401.06L285.91,400.81L285.96,400.70L286.61,399.73L286.61,500.00"/><path style="stroke:#000000;stroke-width:0.353" d="M286.61,399.73L287.12,398.83L287.65,397.53L287.64,387.77L287.12,385.90L286.43,383.91L286.11,382.84L285.93,381.84L285.91,381.07"/><path style="stroke:#000000;stroke-width:0.353" d="M285.90,381.21L285.90,379.86L285.90,381.42"/><path style="stroke:#000000;stroke-width:0.353" d="M285.90,379.86L285.90,366.54L285.69,365.09L285.59,363.70L285.59,362.35L285.69,361.06L285.90,359.84L285.90,331.78L285.94,332.02L286.05,332.26L286.22,332.48L286.61,332.77L286.61,384.43"/><path style="stroke:#000000;stroke-width:0.353" d="M285.90,366.54L285.90,359.84"/><path style="stroke:#000000;stroke-width:0.353" d="M287.63,330.20L286.61,330.79L286.22,331.08L285.98,331.42L285.90,331.78"/><path style="stroke:#000000;stroke-width:0.353" d="M285.90,260.62L285.94,260.86L286.05,261.10L286.22,261.32L286.61,261.61L286.61,288.09L285.92,288.49"/><path style="stroke:#000000;stroke-width:0.353" d="M287.64,387.77L287.89,388.86L288.13,390.30L288.27,391.70L288.32,393.06L288.27,394.36L288.13,395.60L287.89,396.76L287.65,397.53"/><path style="stroke:#000000;stroke-width:0.353" d="M286.61,332.77L324.27,354.51L324.77,354.73L325.15,354.84L325.98,354.92L326.81,354.84L327.19,354.73L327.69,354.51L327.69,500.00"/><path style="stroke:#000000;stroke-width:0.353" d="M286.61,288.09L287.76,287.44L288.19,287.28L289.00,287.17L289.67,287.24L290.37,287.50L294.14,289.68L294.14,263.98L293.45,264.26L292.64,264.38L291.80,264.34L291.22,264.20L290.72,263.98L286.61,261.61"/><path style="stroke:#000000;stroke-width:0.353" d="M290.37,328.62L290.37,304.90"/><path style="stroke:#000000;stroke-width:0.353" d="M290.72,287.70L290.72,263.98"/><path style="stroke:#000000;stroke-width:0.353" d="M294.14,263.98L299.96,260.62L299.97,290.97L298.59,291.09L297.75,291.04L296.94,290.92L296.17,290.71L295.48,290.43L294.14,289.68"/><path style="stroke:#000000;stroke-width:0.353" d="M295.17,329.01L300.13,331.87L300.46,332.00L301.05,332.14L302.02,332.17L302.02,302.13L301.37,301.82L300.64,301.57L299.84,301.41L298.59,301.31L297.75,301.35L296.94,301.48L296.17,301.68L295.19,302.12"/><path style="stroke:#000000;stroke-width:0.353" d="M299.97,290.97L301.01,290.71L302.02,290.27L310.92,285.13L310.92,275.64L315.71,278.41L316.25,278.78L316.68,279.20L316.96,279.66L317.11,280.14L317.13,280.39L317.11,280.63L316.96,281.11L316.67,281.57L316.25,281.99L315.72,282.36L310.92,285.13"/><path style="stroke:#000000;stroke-width:0.353" d="M299.96,260.62L300.46,260.40L300.85,260.29L301.67,260.21L302.50,260.29L303.06,260.46L303.38,260.62L303.38,289.48"/><path style="stroke:#000000;stroke-width:0.353" d="M302.02,332.17L302.71,332.05L303.23,331.86L310.92,327.43L310.92,318.34L310.53,318.02L310.42,317.84L310.35,317.55L310.35,327.76"/><path style="stroke:#000000;stroke-width:0.353" d="M302.02,302.13L315.71,310.04L315.71,313.99L316.48,313.41L316.83,312.97L317.05,312.50L317.13,312.01L317.06,311.53L316.96,311.29L316.68,310.83L316.25,310.41L315.71,310.04"/><path style="stroke:#000000;stroke-width:0.353" d="M303.38,260.62L317.08,268.55L317.08,270.50L317.56,270.11L317.71,269.88L317.79,269.51L317.75,269.27L317.56,268.92L317.35,268.71L317.08,268.55"/><path style="stroke:#000000;stroke-width:0.353" d="M310.92,327.43L317.35,323.69L317.71,323.25L317.78,323.01L317.78,322.76L317.71,322.52L317.56,322.29L317.08,321.90L317.08,323.87"/><path style="stroke:#000000;stroke-width:0.353" d="M310.92,318.34L317.08,321.90"/><path style="stroke:#000000;stroke-width:0.353" d="M315.71,313.99L310.80,316.83L310.47,317.17L310.35,317.55"/><path style="stroke:#000000;stroke-width:0.353" d="M310.38,285.44L310.35,274.85L310.42,275.14L310.53,275.32L310.92,275.64"/><path style="stroke:#000000;stroke-width:0.353" d="M317.08,270.50L310.80,274.13L310.47,274.47L310.35,274.85"/><path style="stroke:#000000;stroke-width:0.353" d="M311.93,336.74L311.93,334.74L311.44,335.14L311.25,335.49L311.23,335.85L311.30,336.09L311.44,336.32L311.93,336.74L314.35,338.12L314.72,338.66L315.22,339.22L316.26,340.13L316.91,340.57L318.02,341.17L319.20,341.69L320.05,341.99L321.85,342.45L324.27,343.85L324.78,344.07L325.36,344.21L326.20,344.25L327.01,344.13L327.70,343.85L327.69,327.62L327.01,327.34L326.40,327.23L325.77,327.21L324.96,327.34L324.27,327.62L321.85,329.02L320.03,329.49L318.37,330.12L316.91,330.90L315.68,331.81L315.16,332.30L314.72,332.81L314.35,333.35L311.93,334.74"/><path style="stroke:#000000;stroke-width:0.353" d="M311.93,296.82L311.93,297.19L311.45,296.79L311.30,296.56L311.22,296.20L311.25,295.96L311.44,295.61L311.93,295.21L311.93,296.82"/><path style="stroke:#000000;stroke-width:0.353" d="M311.93,297.19L314.35,298.59L315.13,299.59L315.68,300.13L316.26,300.59L317.53,301.39L319.18,302.15L320.15,302.48L321.85,302.92L324.30,304.33L324.27,288.08L321.85,289.48L320.03,289.95L319.18,290.25L317.61,290.96L316.68,291.52L315.68,292.27L315.16,292.76L314.71,293.29L314.35,293.81L311.93,295.21"/><path style="stroke:#000000;stroke-width:0.353" d="M311.93,257.65L311.44,257.26L311.30,257.03L311.22,256.67L311.25,256.42L311.44,256.07L311.93,255.68L311.93,257.65L314.35,259.05L314.35,254.28L311.93,255.68"/><path style="stroke:#000000;stroke-width:0.353" d="M314.35,338.12L314.35,333.35"/><path style="stroke:#000000;stroke-width:0.353" d="M314.35,293.81L314.35,298.59"/><path style="stroke:#000000;stroke-width:0.353" d="M314.35,259.05L314.72,259.59L315.17,260.11L315.69,260.60L316.92,261.51L318.02,262.11L319.20,262.62L320.05,262.92L321.85,263.38L324.27,264.78L324.27,248.55L321.85,249.95L321.85,263.38"/><path style="stroke:#000000;stroke-width:0.353" d="M314.35,254.28L314.72,253.75L315.16,253.23L315.68,252.74L316.91,251.83L317.61,251.43L318.37,251.05L319.79,250.50L321.85,249.95"/><path style="stroke:#000000;stroke-width:0.353" d="M315.72,282.36L315.71,278.41"/><path style="stroke:#000000;stroke-width:0.353" d="M321.85,342.45L321.85,329.02"/><path style="stroke:#000000;stroke-width:0.353" d="M321.85,302.92L321.85,289.48"/><path style="stroke:#000000;stroke-width:0.353" d="M324.27,500.00L324.27,354.51"/><path style="stroke:#000000;stroke-width:0.353" d="M324.27,343.85L324.27,327.62"/><path style="stroke:#000000;stroke-width:0.353" d="M324.30,304.33L324.96,304.59L325.59,304.70L326.20,304.72L326.97,304.60L327.70,304.31L330.12,302.92L330.12,289.48L331.93,289.95L332.79,290.25L334.35,290.96L335.70,291.80L336.29,292.27L336.80,292.76L337.25,293.29L337.62,293.81L337.60,298.62L337.24,299.13L336.78,299.65L336.00,300.35L335.06,301.03L334.35,301.44L332.80,302.14L331.93,302.45L330.12,302.92"/><path style="stroke:#000000;stroke-width:0.353" d="M324.27,288.08L324.96,287.81L325.98,287.67L327.01,287.81L327.69,288.08L327.70,304.31"/><path style="stroke:#000000;stroke-width:0.353" d="M324.27,264.78L324.97,265.06L325.99,265.19L327.01,265.06L327.70,264.78L327.69,248.55L330.12,249.95L330.14,263.38L332.16,262.83L333.61,262.27L334.37,261.90L335.70,261.06L336.29,260.59L336.80,260.10L337.24,259.59L337.62,259.05L337.62,254.28L337.24,253.75L336.80,253.23L336.29,252.74L335.70,252.27L334.35,251.43L332.79,250.72L331.93,250.42L330.12,249.95"/><path style="stroke:#000000;stroke-width:0.353" d="M324.27,248.55L324.96,248.27L325.98,248.14L327.01,248.27L327.69,248.55"/><path style="stroke:#000000;stroke-width:0.353" d="M327.69,354.51L365.36,332.77L365.36,384.42L365.72,383.32L366.01,382.06L366.06,381.42L366.06,379.86L366.06,381.21L366.05,381.08"/><path style="stroke:#000000;stroke-width:0.353" d="M327.70,343.85L330.14,342.45L330.11,329.02L327.69,327.62"/><path style="stroke:#000000;stroke-width:0.353" d="M327.69,288.08L330.12,289.48"/><path style="stroke:#000000;stroke-width:0.353" d="M330.14,263.38L327.70,264.78"/><path style="stroke:#000000;stroke-width:0.353" d="M330.14,342.45L331.95,341.97L332.80,341.67L333.92,341.18L335.06,340.57L336.29,339.65L336.80,339.17L337.64,338.11L337.62,333.35L337.24,332.81L336.80,332.30L336.29,331.81L335.70,331.34L334.35,330.49L332.79,329.78L331.93,329.49L330.11,329.02"/><path style="stroke:#000000;stroke-width:0.353" d="M334.88,323.88L334.40,323.48L334.26,323.25L334.18,323.01L334.18,322.76L334.26,322.52L334.61,322.08L341.05,318.34L341.05,327.43L334.88,323.88L334.88,321.90"/><path style="stroke:#000000;stroke-width:0.353" d="M335.00,312.74L335.49,313.42L336.25,313.99L336.25,310.04L335.48,310.61L335.00,311.29L334.85,311.77L334.84,312.01L334.85,312.26L335.00,312.74"/><path style="stroke:#000000;stroke-width:0.353" d="M335.00,281.11L335.49,281.79L336.25,282.36L336.25,278.41L335.48,278.99L335.00,279.66L334.85,280.14L334.84,280.39L334.85,280.63L335.00,281.11"/><path style="stroke:#000000;stroke-width:0.353" d="M334.88,270.50L334.40,270.11L334.21,269.76L334.18,269.51L334.21,269.27L334.32,269.04L334.50,268.81L334.84,268.55L334.88,268.55L334.88,270.50L341.05,274.06L341.43,274.38L341.61,274.75L341.61,274.95L341.50,275.23L341.27,275.49L341.05,275.64L341.06,285.14L336.25,282.36"/><path style="stroke:#000000;stroke-width:0.353" d="M334.88,268.55L348.58,260.62L348.90,260.46L349.46,260.29L350.08,260.21L350.71,260.23L351.31,260.34L351.85,260.54L357.82,263.98L357.82,289.68L361.25,287.70L361.25,263.98L360.75,264.20L360.36,264.30L359.53,264.39L358.71,264.30L358.32,264.20L357.82,263.98"/><path style="stroke:#000000;stroke-width:0.353" d="M341.05,318.34L341.43,318.02L341.61,317.64L341.55,317.26L341.26,316.91L336.25,313.99"/><path style="stroke:#000000;stroke-width:0.353" d="M361.59,304.90L362.14,305.12L362.96,305.22L363.78,305.12L364.33,304.90L364.33,330.20L361.61,328.63L361.59,304.90L356.80,302.13L356.80,329.01L352.02,331.77L351.53,331.99L351.13,332.10L350.50,332.18L349.95,332.17L349.97,302.12L336.25,310.04"/><path style="stroke:#000000;stroke-width:0.353" d="M336.25,278.41L341.05,275.64"/><path style="stroke:#000000;stroke-width:0.353" d="M337.64,338.11L340.04,336.72L340.04,334.74L337.62,333.35"/><path style="stroke:#000000;stroke-width:0.353" d="M337.60,298.62L340.04,297.19L340.04,295.21L340.52,295.61L340.71,295.96L340.75,296.20L340.71,296.44L340.60,296.68L340.31,297.00L340.04,297.19"/><path style="stroke:#000000;stroke-width:0.353" d="M337.62,293.81L340.04,295.21"/><path style="stroke:#000000;stroke-width:0.353" d="M337.62,259.05L340.18,257.56L340.60,257.14L340.71,256.91L340.75,256.67L340.66,256.30L340.31,255.86L337.62,254.28"/><path style="stroke:#000000;stroke-width:0.353" d="M340.04,334.74L340.52,335.14L340.66,335.37L340.75,335.73L340.71,335.98L340.52,336.32L340.04,336.72"/><path style="stroke:#000000;stroke-width:0.353" d="M340.04,257.65L340.04,255.68"/><path style="stroke:#000000;stroke-width:0.353" d="M341.05,327.43L348.58,331.78L349.27,332.06L349.95,332.17"/><path style="stroke:#000000;stroke-width:0.353" d="M341.61,317.55L341.61,327.76"/><path style="stroke:#000000;stroke-width:0.353" d="M341.06,285.14L349.95,290.27L350.95,290.71L352.00,290.97L352.00,260.62"/><path style="stroke:#000000;stroke-width:0.353" d="M341.61,285.46L341.61,274.85"/><path style="stroke:#000000;stroke-width:0.353" d="M348.59,289.48L348.58,260.62"/><path style="stroke:#000000;stroke-width:0.353" d="M349.97,302.12L350.59,301.82L351.59,301.51L352.53,301.35L353.37,301.31L354.62,301.41L355.42,301.57L356.15,301.82L356.80,302.13"/><path style="stroke:#000000;stroke-width:0.353" d="M357.82,289.68L356.48,290.43L355.79,290.71L355.03,290.92L354.21,291.04L353.37,291.09L352.00,290.97"/><path style="stroke:#000000;stroke-width:0.353" d="M356.80,329.01L358.15,328.26L358.71,328.09L359.11,328.03L359.74,328.02L360.36,328.09L360.92,328.26L361.61,328.63"/><path style="stroke:#000000;stroke-width:0.353" d="M361.25,287.70L361.71,287.44L362.14,287.28L362.79,287.18L363.30,287.19L364.07,287.38L365.36,288.09L365.36,261.61L361.25,263.98"/><path style="stroke:#000000;stroke-width:0.353" d="M364.33,397.53L364.32,387.77L364.08,388.86L363.84,390.30L363.69,391.72L363.64,393.06L363.69,394.36L363.84,395.60L364.08,396.76L364.41,397.84L364.84,398.83L365.36,399.73L365.36,500.00"/><path style="stroke:#000000;stroke-width:0.353" d="M365.36,399.73L365.97,400.64L366.06,400.86L366.06,500.00"/><path style="stroke:#000000;stroke-width:0.353" d="M365.36,384.42L364.84,385.90L364.32,387.77"/><path style="stroke:#000000;stroke-width:0.353" d="M365.36,332.77L365.72,332.49L365.98,332.16L366.06,331.78L365.98,331.42L365.74,331.08L365.50,330.88L364.33,330.20"/><path style="stroke:#000000;stroke-width:0.353" d="M364.33,304.90L370.49,301.34L370.49,500.00"/><path style="stroke:#000000;stroke-width:0.353" d="M366.06,288.50L365.36,288.09"/><path style="stroke:#000000;stroke-width:0.353" d="M365.36,261.61L365.72,261.33L365.92,261.10L366.03,260.86L366.06,260.62"/><path style="stroke:#000000;stroke-width:0.353" d="M366.06,381.21L366.06,381.42"/><path style="stroke:#000000;stroke-width:0.353" d="M366.06,379.86L366.06,366.55L366.21,365.61L366.34,364.29L366.38,363.01L366.06,362.84L366.06,366.55"/><path style="stroke:#000000;stroke-width:0.353" d="M366.38,363.01L366.34,361.79L366.21,360.61L366.06,359.85L366.06,362.84"/><path style="stroke:#000000;stroke-width:0.353" d="M366.06,359.85L366.06,331.78"/><path style="stroke:#000000;stroke-width:0.353" d="M370.49,301.34L370.81,301.18L371.38,301.01L371.99,300.93L372.62,300.95L373.59,301.18L374.56,301.71L387.61,309.25L387.61,311.22L387.97,310.95L388.17,310.71L388.28,310.48L388.32,310.23L388.28,309.99L388.17,309.76L387.88,309.43L387.61,309.25"/><path style="stroke:#000000;stroke-width:0.353" d="M373.91,500.00L373.92,301.34"/><path style="stroke:#000000;stroke-width:0.353" d="M379.69,296.20L379.73,295.96L379.92,295.61L380.40,295.21L380.41,297.19L379.92,296.79L379.78,296.56L379.69,296.20"/><path style="stroke:#000000;stroke-width:0.353" d="M389.32,500.00L389.32,385.89L388.84,386.93L388.43,387.57L387.99,388.08L387.68,388.35L387.18,388.67L386.63,388.83L386.35,388.83L385.90,388.71L381.71,386.27L381.45,386.01L381.26,385.67L381.14,385.27L381.08,384.76L381.08,500.00"/><path style="stroke:#000000;stroke-width:0.353" d="M381.08,384.76L381.14,383.89L381.36,382.85L382.30,380.05L382.73,378.57L383.07,377.10L383.31,375.66L383.45,374.25L383.50,372.90L383.45,371.59L383.31,370.36L383.07,369.20L382.73,368.11L382.30,367.12L381.79,366.17"/><path style="stroke:#000000;stroke-width:0.353" d="M381.79,366.23L381.17,365.31L381.08,365.10L381.20,365.09L381.43,365.20L381.32,365.14"/><path style="stroke:#000000;stroke-width:0.353" d="M381.48,365.23L381.60,365.30L381.28,365.13"/><path style="stroke:#000000;stroke-width:0.353" d="M381.60,365.30L381.63,365.33L381.43,365.20L381.60,365.30L381.53,365.25"/><path style="stroke:#000000;stroke-width:0.353" d="M381.08,365.10L381.08,315.57L381.12,315.81L381.23,316.05L381.41,316.27L381.79,316.56L381.79,365.42L381.63,365.33L381.68,365.34"/><path style="stroke:#000000;stroke-width:0.353" d="M387.61,311.22L381.63,314.69L381.23,315.09L381.12,315.33L381.08,315.57"/><path style="stroke:#000000;stroke-width:0.353" d="M380.40,295.21L382.82,293.81L383.19,293.29L383.64,292.76L384.15,292.27L384.74,291.80L386.09,290.96L387.65,290.25L388.51,289.95L390.32,289.48L392.74,288.08L392.74,304.31L390.32,302.92L388.53,302.45L387.67,302.16L386.84,301.81L385.40,301.04L384.16,300.13L383.65,299.64L383.20,299.13L382.83,298.59L380.41,297.19"/><path style="stroke:#000000;stroke-width:0.353" d="M381.09,286.92L387.61,283.15L387.61,281.18L388.00,281.47L388.17,281.69L388.28,281.92L388.32,282.17L388.28,282.41L388.17,282.64L387.88,282.97L387.61,283.15"/><path style="stroke:#000000;stroke-width:0.353" d="M381.08,276.83L381.12,277.07L381.23,277.31L381.41,277.53L381.79,277.82L381.79,286.51"/><path style="stroke:#000000;stroke-width:0.353" d="M381.79,500.00L381.79,386.32"/><path style="stroke:#000000;stroke-width:0.353" d="M381.79,316.56L385.90,318.93L386.40,319.15L386.98,319.29L387.82,319.34L388.63,319.21L389.32,318.93L389.32,370.58L388.88,370.01L388.44,369.56L387.35,368.69L386.06,367.87L382.31,365.72L382.69,365.95"/><path style="stroke:#000000;stroke-width:0.353" d="M382.35,365.72L381.79,365.42L382.31,365.72"/><path style="stroke:#000000;stroke-width:0.353" d="M382.83,298.59L382.82,293.81"/><path style="stroke:#000000;stroke-width:0.353" d="M381.79,277.82L387.61,281.18"/><path style="stroke:#000000;stroke-width:0.353" d="M385.90,500.00L385.90,388.71"/><path style="stroke:#000000;stroke-width:0.353" d="M385.98,367.82L385.41,367.49L386.06,367.87"/><path style="stroke:#000000;stroke-width:0.353" d="M386.24,367.97L385.41,367.49L386.33,368.02"/><path style="stroke:#000000;stroke-width:0.353" d="M386.42,368.09L385.41,367.49"/><path style="stroke:#000000;stroke-width:0.353" d="M385.90,367.77L385.90,318.93"/><path style="stroke:#000000;stroke-width:0.353" d="M386.61,368.21L385.16,367.37"/><path style="stroke:#000000;stroke-width:0.353" d="M389.32,385.89L389.84,384.40L390.26,382.91L390.60,381.45L390.84,380.01L390.99,378.60L391.03,377.25L390.99,375.94L390.84,374.71L390.60,373.55L390.26,372.46L389.84,371.47L389.32,370.58"/><path style="stroke:#000000;stroke-width:0.353" d="M389.32,318.93L426.98,297.19L426.98,500.00"/><path style="stroke:#000000;stroke-width:0.353" d="M390.32,302.92L390.32,289.48"/><path style="stroke:#000000;stroke-width:0.353" d="M392.74,304.31L393.43,304.59L394.46,304.72L395.48,304.59L396.17,304.31L396.17,288.08L395.48,287.81L394.46,287.67L393.43,287.81L392.74,288.08"/><path style="stroke:#000000;stroke-width:0.353" d="M396.17,304.31L398.59,302.92L399.52,302.70L401.06,302.22L402.07,301.81L402.83,301.44L404.18,300.59L404.76,300.13L405.28,299.63L405.72,299.12L406.09,298.59L406.09,293.81L405.72,293.29L405.28,292.76L404.18,291.80L402.83,290.96L401.26,290.25L400.41,289.95L398.59,289.48L396.17,288.08"/><path style="stroke:#000000;stroke-width:0.353" d="M398.59,302.92L398.59,289.48"/><path style="stroke:#000000;stroke-width:0.353" d="M406.09,298.59L408.66,297.10L409.08,296.68L409.19,296.44L409.22,296.20L409.14,295.84L408.78,295.40L406.09,293.81"/><path style="stroke:#000000;stroke-width:0.353" d="M408.51,297.19L408.51,295.21"/><path style="stroke:#000000;stroke-width:0.353" d="M426.98,297.19L427.37,296.90L427.55,296.68L427.65,296.44L427.69,296.20"/><path style="stroke:#000000;stroke-width:0.353" d="M224.27,500.00L224.27,296.20L224.35,295.84L224.60,295.50L224.98,295.21L262.64,273.47L263.14,273.25L263.93,273.08L264.98,273.10L265.57,273.25L265.91,273.38L270.32,275.93L270.56,276.13L270.80,276.47L270.88,276.83L270.88,286.92L278.37,291.22L279.15,291.42L279.97,291.46L280.79,291.34L281.47,291.06L285.90,288.50L285.90,260.62L285.98,260.26L286.13,260.03L286.61,259.63L324.27,237.89L324.77,237.66L325.15,237.56L325.98,237.48L326.81,237.56L327.19,237.66L327.69,237.89L365.36,259.63L365.84,260.03L365.98,260.26L366.06,260.62L366.06,288.50L370.49,291.06L371.18,291.34L371.99,291.46L372.83,291.42L373.59,291.22L381.08,286.92L381.08,276.83L381.16,276.47L381.40,276.13L381.79,275.84L386.05,273.38L386.40,273.25L386.98,273.10L388.03,273.08L388.82,273.25L389.32,273.47L426.98,295.21L427.37,295.50L427.61,295.84L427.69,296.20L427.69,500.00"/><path style="stroke:#000000;stroke-width:0.353" d="M328.62,171.92L328.27,170.93L327.92,169.78L327.66,168.63L327.46,167.51L327.34,166.42L327.31,165.36L327.34,164.35L327.46,163.39L327.66,162.49L327.93,161.66L328.27,160.90L328.68,160.23L329.16,159.63L329.71,159.13L330.31,158.71L330.97,158.39L331.69,158.17L332.44,158.06L333.24,158.04L334.06,158.12L334.92,158.30L335.79,158.58L336.68,158.96L337.58,159.43L338.47,159.99L339.36,160.64L340.24,161.37L341.09,162.18L341.92,163.05L342.71,163.99L343.47,164.98L344.18,166.02L344.84,167.10L345.44,168.21L345.99,169.35L346.47,170.50L346.79,171.38L346.89,171.66L347.23,172.81L347.50,173.95L347.66,174.91L347.69,175.07L347.81,176.17L347.85,177.22L347.81,178.23L347.69,179.19L347.50,180.09L347.46,180.21L347.23,180.92L346.89,181.68L346.47,182.36L345.99,182.95L345.44,183.46L344.84,183.87L344.18,184.19L343.47,184.41L342.71,184.53L341.92,184.55L341.09,184.47L340.99,184.44L340.24,184.28L339.36,184.00L338.47,183.62L337.58,183.15L336.68,182.59L335.79,181.94L334.92,181.21L334.06,180.41L333.24,179.53L332.44,178.60L331.69,177.61L331.05,176.68L330.31,175.48L329.71,174.37L329.16,173.24L328.62,171.92"/><path style="stroke:#000000;stroke-width:0.353" d="M329.79,165.21L336.08,161.58L334.87,161.15L334.23,161.09L333.92,161.10L333.62,161.10L333.04,161.19L332.49,161.36L331.99,161.61L331.52,161.93L331.10,162.32L330.73,162.77L330.41,163.30L330.15,163.88L330.01,164.31L329.94,164.52L329.79,165.21L329.70,165.95L329.67,166.73L329.70,167.54L329.79,168.38L329.94,169.25L330.15,170.12L330.41,171.01L330.54,171.38L330.73,171.90L331.10,172.79L331.52,173.66L331.99,174.52L332.49,175.35L333.04,176.15L333.62,176.92L334.24,177.64L334.87,178.31L335.53,178.93L336.20,179.49L336.89,179.99L337.58,180.42L338.27,180.79L338.95,181.08L339.62,181.29L340.28,181.43L340.92,181.50L341.53,181.48L342.11,181.39L342.66,181.22L343.17,180.98L343.63,180.66L344.05,180.27L344.42,179.81L344.74,179.29L345.01,178.70L345.21,178.06L345.36,177.37L345.45,176.64L345.48,175.86L345.45,175.04L345.42,174.70L340.40,170.79L332.49,175.35L332.60,173.85L332.61,173.17L332.60,172.52L332.57,171.90L332.51,171.32L332.43,170.75L332.33,170.20L332.20,169.67L332.05,169.15L331.87,168.65L331.67,168.15L331.44,167.66L331.18,167.17L330.89,166.69L330.56,166.20L329.79,165.21L331.74,163.82L332.82,163.02L333.39,162.57L333.87,162.18L334.42,161.68L334.69,161.40L334.87,161.15L335.53,161.29L336.20,161.51L336.89,161.80L337.58,162.16L338.21,162.56L340.40,170.79"/><path style="stroke:#000000;stroke-width:0.353" d="M332.49,175.35L333.89,175.84L334.51,176.10L335.08,176.36L335.62,176.62L336.12,176.90L336.59,177.18L337.03,177.47L337.45,177.78L337.84,178.10L338.20,178.44L338.55,178.79L338.88,179.17L339.19,179.56L339.48,179.98L339.76,180.43L340.28,181.43L342.23,180.04L343.61,179.01L344.14,178.58L344.56,178.22L344.91,177.90L345.18,177.62L345.36,177.37L345.47,175.88L345.48,175.62"/><path style="stroke:#000000;stroke-width:0.353" d="M333.38,141.85L334.64,141.24L335.99,140.83L337.42,140.60L338.93,140.56L340.51,140.72L340.99,140.82L342.13,141.06L343.79,141.60L345.48,142.32L347.18,143.21L348.88,144.28L350.57,145.51L352.23,146.90L353.86,148.42L355.43,150.09L357.00,151.94L358.37,153.75L359.72,155.73L360.98,157.78L362.13,159.89L363.17,162.05L364.08,164.24L364.87,166.44L365.52,168.63L365.72,169.50L366.03,170.80L366.40,172.93L366.62,175.01L366.70,177.01L366.62,178.94L366.40,180.76L366.03,182.46L365.52,184.04L364.87,185.48L364.08,186.77L363.17,187.90L362.13,188.86L360.98,189.65"/><path style="stroke:#000000;stroke-width:0.353" d="M337.96,162.40L337.46,162.16L336.88,161.90L336.08,161.58"/><path style="stroke:#000000;stroke-width:0.353" d="M338.21,162.56L338.95,163.09L339.62,163.65L340.28,164.27L340.92,164.95L341.53,165.67L342.11,166.43L342.66,167.23L343.17,168.06L343.63,168.92L344.05,169.79L344.42,170.68L344.74,171.57L345.01,172.46L345.21,173.34L345.36,174.20L345.42,174.70"/><path style="stroke:#000000;stroke-width:0.353" d="M357.28,149.29L357.12,149.11L355.55,147.45L353.97,145.96L354.09,145.94L354.67,145.89L355.26,145.90L355.87,145.96L356.50,146.07L357.14,146.23L357.79,146.44L358.44,146.70L359.09,147.00L359.75,147.35L360.42,147.75L361.06,148.17L361.71,148.64L362.35,149.14L362.98,149.69L363.59,150.26L364.19,150.87L364.72,151.45L365.23,152.05L365.73,152.68L366.20,153.33L366.71,154.07L367.18,154.84L367.63,155.61L368.05,156.40L368.45,157.24L368.79,158.01L369.11,158.81L369.39,159.62L369.64,160.41L369.85,161.20L370.02,161.98L370.14,162.74L370.23,163.47L370.28,164.18L370.28,164.87L370.24,165.53L370.17,166.15L370.05,166.74L369.90,167.30L369.71,167.82L369.48,168.31L369.23,168.76L368.94,169.17L368.62,169.54L368.27,169.87L367.89,170.15L367.79,170.21L367.73,169.82L367.21,167.65L366.84,166.38L366.80,165.60L366.72,164.88L366.61,164.14L366.46,163.38L366.27,162.62L366.05,161.84L365.79,161.06L365.50,160.28L365.18,159.50L364.67,158.42L364.10,157.36L363.47,156.33L362.78,155.33L362.31,154.69L361.82,154.07L361.30,153.47L360.78,152.89L360.24,152.33L359.68,151.80L359.12,151.29L358.63,150.89L357.28,149.29L357.76,149.59L358.42,150.06L358.85,150.39L359.09,150.53L359.62,150.87L360.15,151.24L360.67,151.65L361.18,152.08L361.68,152.53L362.17,153.02L362.60,153.48L363.02,153.97L363.43,154.47L363.82,154.99L364.23,155.58L364.62,156.19L364.99,156.82L365.33,157.45L365.64,158.09L365.94,158.73L366.20,159.37L366.43,160.02L366.64,160.66L366.81,161.29L366.96,161.91L367.07,162.51L367.15,163.10L367.19,163.67L367.20,164.22L367.19,164.47L367.12,163.99L366.98,163.25L366.80,162.47L366.58,161.70L366.33,160.92L366.01,160.06L365.73,159.35L365.48,158.80L365.21,158.24L364.93,157.69L364.63,157.15L364.31,156.61L363.98,156.08L363.41,155.24L363.82,154.99"/><path style="stroke:#000000;stroke-width:0.353" d="M353.97,145.96L353.81,145.82"/><path style="stroke:#000000;stroke-width:0.353" d="M353.96,145.78L354.12,145.74L354.68,145.65L355.26,145.61L355.86,145.62L356.32,145.68L356.47,145.69L357.10,145.81L357.74,145.98L358.39,146.20L359.04,146.47L359.70,146.78L360.36,147.14L361.01,147.53L361.67,147.97L362.19,148.36L362.42,148.47L362.95,148.80L363.53,149.21L364.10,149.65L364.66,150.14L365.21,150.66L365.74,151.21L366.26,151.79L366.75,152.40L367.23,153.02L367.69,153.69L368.13,154.38L368.54,155.07L368.91,155.78L369.26,156.50L369.56,157.21L369.82,157.87L370.04,158.54L370.22,159.20L370.37,159.84L370.47,160.43L370.55,161.01L370.59,161.58L370.60,162.25L370.65,162.54L370.73,163.28L370.77,164.00L370.77,164.69L370.72,165.38L370.62,166.08L370.51,166.56L370.35,167.11L370.16,167.63L369.93,168.11L369.67,168.55L369.50,168.78"/><path style="stroke:#000000;stroke-width:0.353" d="M355.12,190.90L355.43,190.93"/><path style="stroke:#000000;stroke-width:0.353" d="M371.00,168.37L371.41,168.14L371.79,167.86L372.13,167.52L372.44,167.15L372.72,166.73L372.96,166.26L373.17,165.76L373.34,165.22L373.48,164.65L373.58,164.04L373.65,163.41L373.68,162.75L373.67,162.06L373.63,161.36L373.55,160.63L373.42,159.89L373.25,159.09L373.03,158.27L372.77,157.43L372.46,156.60L372.09,155.71L371.67,154.81L371.21,153.93L370.71,153.06L370.18,152.20L369.61,151.37L369.03,150.58L368.42,149.82L367.79,149.10L367.15,148.41L366.47,147.75L365.78,147.15L365.08,146.59L364.37,146.08L363.72,145.67L363.06,145.30L362.40,144.97L361.75,144.68L361.10,144.44L360.45,144.25L359.81,144.10L359.19,144.00L358.57,143.95L357.97,143.94L357.39,143.99L356.83,144.08L356.29,144.23L355.78,144.43L355.30,144.67"/><path style="stroke:#000000;stroke-width:0.353" d="M358.63,150.89L360.07,152.77L361.42,154.75L362.67,156.80L363.82,158.92L364.86,161.07L365.78,163.26L366.56,165.46L366.84,166.38"/><path style="stroke:#000000;stroke-width:0.353" d="M357.36,143.79L357.98,143.69L358.60,143.66L359.17,143.67L359.78,143.73L360.41,143.84L361.05,144.00L361.70,144.20L362.35,144.45L363.01,144.74L363.66,145.08L364.32,145.46L364.97,145.88L365.72,146.43L365.93,146.55L366.40,146.85L366.86,147.18L367.32,147.53L367.77,147.91L368.21,148.30L368.65,148.72L369.08,149.15L369.49,149.61L369.90,150.07L370.29,150.56L370.67,151.05L370.24,151.29L370.10,151.08L369.61,151.37"/><path style="stroke:#000000;stroke-width:0.353" d="M374.49,166.32L374.89,166.07L375.27,165.79L375.61,165.45L375.92,165.08L376.20,164.66L376.45,164.20L376.65,163.70L376.82,163.16L376.95,162.58L377.04,161.97L377.09,161.33L377.11,160.78L377.09,159.97L377.03,159.25L376.93,158.52L376.79,157.77L376.63,157.00L376.42,156.23L376.18,155.45L375.90,154.67L375.59,153.89L375.25,153.12L374.87,152.35L374.46,151.59L374.01,150.84L373.55,150.11L373.05,149.40L372.59,148.78L372.11,148.17L371.62,147.59L371.11,147.02L370.58,146.48L370.05,145.96L369.51,145.46L368.95,144.99L368.39,144.55L367.82,144.14L367.25,143.76L366.68,143.41L366.11,143.10L365.53,142.83L364.96,142.59L364.39,142.40L363.75,142.22L363.12,142.09L362.50,142.01L361.89,141.97L361.30,141.99L360.72,142.05L360.16,142.16L359.63,142.32L359.12,142.52L358.63,142.78"/><path style="stroke:#000000;stroke-width:0.353" d="M362.78,155.33L363.27,155.05L362.73,154.32L362.17,153.62L361.58,152.95L360.98,152.31L360.36,151.69L359.72,151.11L359.08,150.57L358.85,150.39"/><path style="stroke:#000000;stroke-width:0.353" d="M362.13,188.86L363.82,187.89"/><path style="stroke:#000000;stroke-width:0.353" d="M360.81,141.85L361.31,141.76L361.89,141.70L362.49,141.69L363.10,141.74L363.72,141.83L364.35,141.97L365.00,142.15L365.64,142.39L366.12,142.59L366.29,142.67L366.94,143.00L367.59,143.38L368.23,143.80L368.87,144.26L369.13,144.46L369.58,144.74L370.11,145.09L370.64,145.48L371.15,145.89L371.66,146.34L372.16,146.80L372.64,147.30L373.02,147.72L373.39,148.15L373.74,148.60L374.09,149.06L374.51,149.67L374.91,150.30L375.29,150.94L375.64,151.59L375.96,152.25L376.25,152.91L376.52,153.57L376.75,154.23L376.96,154.89L377.13,155.54L377.27,156.17L377.37,156.79L377.44,157.38L377.47,157.95L377.46,158.56L377.31,157.62L377.15,156.86L376.95,156.09L376.69,155.24L376.44,154.53L376.14,153.75L375.88,153.15L375.60,152.56L375.30,151.97L374.99,151.38L374.65,150.80L374.30,150.23L373.67,149.31L374.09,149.06"/><path style="stroke:#000000;stroke-width:0.353" d="M377.99,164.32L378.38,164.06L378.75,163.75L379.08,163.40L379.38,163.00L379.65,162.57L379.89,162.10L380.09,161.59L380.26,161.05L380.40,160.47L380.49,159.86L380.54,159.20L380.56,158.52L380.52,157.81L380.45,157.07L380.33,156.30L380.17,155.50L379.96,154.69L379.72,153.87L379.44,153.04L379.12,152.22L378.76,151.39L378.37,150.57L377.94,149.75L377.48,148.95L377.00,148.16L376.48,147.40L376.06,146.82L375.62,146.26L375.17,145.72L374.70,145.20L374.11,144.58L373.50,143.99L372.88,143.44L372.25,142.92L371.60,142.43L370.95,141.98L370.30,141.58L369.64,141.21L368.98,140.89L368.33,140.61L367.68,140.38L367.04,140.20L366.40,140.07L365.79,139.99L365.18,139.96L364.60,139.99L364.03,140.07L363.48,140.19L362.96,140.37L362.46,140.60L361.98,140.87"/><path style="stroke:#000000;stroke-width:0.353" d="M363.27,155.05L363.41,155.24"/><path style="stroke:#000000;stroke-width:0.353" d="M366.20,153.33L366.69,153.05L366.24,152.43L365.77,151.83L365.28,151.25L364.78,150.69L364.18,150.08L363.57,149.50L362.95,148.96L362.19,148.36"/><path style="stroke:#000000;stroke-width:0.353" d="M362.47,140.59L362.55,140.53"/><path style="stroke:#000000;stroke-width:0.353" d="M364.24,139.85L364.62,139.77L365.19,139.70L365.78,139.68L366.38,139.72L367.01,139.80L367.64,139.94L368.28,140.13L368.93,140.37L369.72,140.73L370.24,140.99L370.90,141.36L371.55,141.78L372.20,142.23L372.85,142.72L373.48,143.25L374.10,143.81L374.70,144.41L375.29,145.03L375.73,145.53L376.16,146.04L376.57,146.57L376.97,147.12L376.48,147.40"/><path style="stroke:#000000;stroke-width:0.353" d="M367.24,167.76L367.28,167.47L367.32,166.82L367.33,166.15L367.29,165.45L367.22,164.73L367.19,164.47"/><path style="stroke:#000000;stroke-width:0.353" d="M370.60,162.25L370.52,161.77L370.35,160.98L370.14,160.19L369.89,159.39L369.61,158.58L369.29,157.76L368.94,156.95L368.55,156.15L368.13,155.35L367.68,154.56L367.20,153.80L366.83,153.25L367.23,153.02"/><path style="stroke:#000000;stroke-width:0.353" d="M366.69,153.05L366.83,153.25"/><path style="stroke:#000000;stroke-width:0.353" d="M370.10,151.08L369.52,150.29L368.91,149.53L368.27,148.80L367.62,148.11L366.98,147.49L366.32,146.91L365.72,146.43"/><path style="stroke:#000000;stroke-width:0.353" d="M381.52,162.31L381.90,162.05L382.26,161.74L382.58,161.38L382.87,160.97L383.13,160.53L383.36,160.04L383.54,159.52L383.70,158.96L383.82,158.37L383.90,157.74L383.95,157.10L383.96,156.42L383.93,155.73L383.86,155.01L383.75,154.27L383.59,153.45L383.38,152.62L383.13,151.77L382.82,150.91L382.45,149.98L382.02,149.04L381.55,148.12L381.03,147.20L380.47,146.31L379.88,145.43L379.33,144.68L378.76,143.96L378.16,143.26L377.54,142.60L376.90,141.97L376.25,141.38L375.58,140.84L374.91,140.34L374.26,139.91L373.60,139.52L372.95,139.17L372.29,138.87L371.64,138.61L370.99,138.39L370.35,138.23L369.71,138.10L369.09,138.03L368.49,138.01L367.90,138.03L367.33,138.10L366.78,138.23L366.26,138.41L365.77,138.63"/><path style="stroke:#000000;stroke-width:0.353" d="M369.13,144.46L369.50,144.76L370.12,145.29L370.73,145.86L371.33,146.46L372.00,147.19L372.48,147.74L373.01,148.41L373.54,149.12L373.05,149.40"/><path style="stroke:#000000;stroke-width:0.353" d="M367.63,137.86L367.92,137.80L368.49,137.74L369.08,137.72L369.69,137.76L370.08,137.81L370.31,137.84L370.95,137.97L371.64,138.16L372.24,138.37L372.90,138.64L373.55,138.95L374.21,139.30L374.86,139.70L375.51,140.14L376.17,140.63L376.81,141.16L377.44,141.74L377.86,142.15L378.05,142.34L378.66,143.00L379.26,143.69L379.83,144.41L380.38,145.16L379.88,145.43"/><path style="stroke:#000000;stroke-width:0.353" d="M369.10,136.73L369.59,136.50L370.12,136.32L370.66,136.18L371.23,136.09L371.81,136.05L372.41,136.05L373.03,136.11L373.65,136.21L374.29,136.36L374.93,136.56L375.49,136.76L376.04,137.01L376.60,137.29L377.16,137.60L377.71,137.95L378.26,138.32L378.81,138.73L379.35,139.17L379.89,139.63L380.42,140.12L380.93,140.63L381.44,141.16L381.93,141.71L382.41,142.28L382.88,142.87L383.32,143.47L383.81,143.19L383.94,143.38L384.12,143.27"/><path style="stroke:#000000;stroke-width:0.353" d="M369.19,136.68L369.18,136.68"/><path style="stroke:#000000;stroke-width:0.353" d="M370.24,151.29L370.80,152.12L371.44,153.19L372.03,154.28L372.56,155.38L372.79,155.94L373.01,156.49L373.22,157.04L373.40,157.59L373.56,158.14L373.71,158.68L373.83,159.21L373.94,159.74L374.03,160.30L374.03,160.06L374.00,159.50L373.95,158.93L373.86,158.35L373.75,157.74L373.60,157.13L373.43,156.52L373.23,155.90L373.00,155.27L372.74,154.64L372.46,154.03L372.15,153.41L371.81,152.80L371.45,152.21L371.07,151.62L370.67,151.05"/><path style="stroke:#000000;stroke-width:0.353" d="M372.42,142.39L372.91,142.68L373.44,143.02L373.99,143.42L374.53,143.86L375.06,144.33L375.58,144.83L376.09,145.36L376.58,145.91L377.05,146.49L377.50,147.09L377.98,147.79L378.44,148.51L378.86,149.24L379.25,149.98L379.60,150.73L379.91,151.47L380.16,152.16L380.38,152.83L380.55,153.50L380.69,154.16L380.78,154.75L380.84,155.32L380.87,155.88L380.87,156.35L380.82,156.05L380.66,155.25L380.46,154.44L380.22,153.62L379.93,152.79L379.61,151.95L379.25,151.11L378.86,150.30L378.44,149.48L377.96,148.64L377.49,147.88L377.10,147.32L377.50,147.09"/><path style="stroke:#000000;stroke-width:0.353" d="M383.81,143.19L383.21,142.38L382.57,141.60L381.91,140.85L381.23,140.15L380.52,139.48L379.81,138.85L379.07,138.28L378.34,137.75L377.64,137.31L376.94,136.92L376.23,136.59L375.54,136.32L374.89,136.11L374.25,135.95L373.63,135.84L373.01,135.78L372.41,135.76L371.82,135.80L371.25,135.88L371.07,135.92"/><path style="stroke:#000000;stroke-width:0.353" d="M372.97,166.80L373.16,166.52L373.41,166.07L373.62,165.57L373.80,165.04L373.95,164.47L374.06,163.87L374.13,163.24L374.17,162.59L374.17,161.91L374.13,161.20L374.03,160.30"/><path style="stroke:#000000;stroke-width:0.353" d="M373.67,149.31L373.54,149.12"/><path style="stroke:#000000;stroke-width:0.353" d="M374.90,166.08L375.31,165.84"/><path style="stroke:#000000;stroke-width:0.353" d="M375.93,140.45L376.36,140.71L376.81,141.02L377.26,141.34L377.70,141.69L378.13,142.06L378.56,142.44L378.98,142.85L379.40,143.28L379.80,143.72L380.19,144.17L380.57,144.64L380.94,145.12L381.38,145.76L381.80,146.40L382.18,147.03L382.52,147.68L382.84,148.32L383.13,148.97L383.37,149.60L383.59,150.22L383.78,150.84L383.94,151.46L384.07,152.06L384.17,152.66L384.24,153.24L384.29,153.80L384.30,154.35L384.17,153.58L384.05,153.03L383.91,152.47L383.75,151.90L383.56,151.33L383.36,150.76L383.14,150.19L382.90,149.61L382.64,149.04L382.36,148.47L382.07,147.90L381.76,147.34L381.09,146.23L380.51,145.36L380.94,145.12"/><path style="stroke:#000000;stroke-width:0.353" d="M376.37,164.86L376.65,164.45L376.90,164.00L377.04,163.66L377.11,163.51L377.28,162.98L377.42,162.40L377.52,161.80L377.58,161.16L377.60,160.50L377.58,159.81L377.53,159.10L377.46,158.56"/><path style="stroke:#000000;stroke-width:0.353" d="M376.97,147.12L377.10,147.32"/><path style="stroke:#000000;stroke-width:0.353" d="M380.87,156.35L380.94,156.83L381.02,157.58L381.05,158.32L381.03,159.02L380.96,159.69L380.86,160.29L380.73,160.86L380.61,161.21L380.55,161.40L380.34,161.90L380.10,162.37L379.77,162.85"/><path style="stroke:#000000;stroke-width:0.353" d="M380.51,145.36L380.38,145.16"/><path style="stroke:#000000;stroke-width:0.353" d="M384.30,154.35L384.36,154.86L384.42,155.57L384.45,156.26L384.43,156.95L384.38,157.57L384.29,158.19L384.16,158.78L384.00,159.33L383.81,159.85L383.58,160.33L383.31,160.77L383.24,160.87"/><path style="stroke:#000000;stroke-width:0.353" d="M383.32,143.47L383.87,144.26L384.38,145.07L384.84,145.86L385.26,146.66L385.65,147.47L386.00,148.28L386.29,149.07L386.56,149.85L386.78,150.62L386.97,151.39L387.13,152.15L387.25,152.89L387.33,153.62L387.34,153.85"/><path style="stroke:#000000;stroke-width:0.353" d="M385.00,160.25L385.22,160.10"/><path style="stroke:#000000;stroke-width:0.353" d="M384.00,160.70L383.99,160.70"/><path style="stroke:#000000;stroke-width:0.353" d="M383.94,143.38L384.22,143.78L384.62,144.38L385.18,145.33"/><path style="stroke:#000000;stroke-width:0.353" d="M383.24,160.87L383.02,161.16L382.69,161.51L382.33,161.82L381.93,162.07L381.52,162.31L381.10,162.52L380.66,162.69L380.19,162.80L379.77,162.85L379.51,163.18L379.17,163.52L378.80,163.82L378.41,164.08L377.99,164.32L377.58,164.53L377.14,164.70L376.67,164.82L376.37,164.86L376.04,165.23L375.69,165.56L375.31,165.84L374.49,166.32L374.06,166.52L373.61,166.67L373.14,166.78L372.97,166.80L372.87,166.94L372.56,167.30L372.21,167.63L371.83,167.90L371.00,168.37L370.57,168.55L370.11,168.69L369.63,168.77L369.50,168.78L369.37,168.96L369.05,169.32L368.69,169.64L368.31,169.91L367.79,170.21L368.09,171.95L368.32,174.03L368.39,176.04L368.32,177.96L368.09,179.78L367.73,181.48L367.21,183.06L366.56,184.50L365.78,185.79L365.72,185.86L364.86,186.92L363.82,187.89L362.67,188.67L360.98,189.65L359.72,190.25L358.37,190.67L357.27,190.85L356.94,190.90L355.43,190.93L353.75,190.80L351.71,190.54L349.98,190.20L348.00,189.69L346.32,189.14L344.44,188.39L342.79,187.62L341.21,186.73L339.47,185.66L337.96,184.57L336.56,183.40L335.06,182.00L333.77,180.66L332.56,179.21L331.44,177.70L330.78,176.68L330.41,176.11L329.49,174.47L328.67,172.77L327.94,170.99L327.33,169.18L326.84,167.28L326.50,165.60L326.20,163.69L326.03,161.74L326.01,159.78L326.09,158.02L326.29,156.03L326.61,154.29L327.03,152.35L327.64,150.40L328.23,148.74L328.98,147.11L329.49,146.01L330.28,144.72L331.19,143.59L332.23,142.63L333.38,141.85L335.08,140.87L336.33,140.26L337.68,139.85L339.12,139.62L340.63,139.58L342.20,139.74L343.82,140.09L344.52,140.31L345.49,140.62L347.17,141.34L348.87,142.23L350.58,143.30L352.26,144.53L353.81,145.82L353.96,145.78L354.41,145.32L354.84,144.97L355.29,144.67L355.87,144.34L356.36,144.10L356.87,143.92L357.36,143.79L357.74,143.42L358.17,143.07L358.63,142.78L359.20,142.45L359.69,142.20L360.21,142.01L360.81,141.85L361.11,141.54L361.53,141.18L361.98,140.87L362.55,140.53L363.03,140.27L363.54,140.06L364.07,139.89L364.24,139.85L364.45,139.62L364.86,139.24L365.30,138.91L365.77,138.63L366.34,138.31L366.84,138.09L367.37,137.92L367.63,137.86L367.77,137.71L368.19,137.34L368.63,137.01L369.67,136.41L370.17,136.18L370.70,136.01L371.07,135.92"/><path style="stroke:#000000;stroke-width:0.353" d="M385.22,160.13L384.59,160.48L384.15,160.66L384.00,160.70"/><g id="paperID" visibility="hidden" opacity="0.00" transform="scale(0.000100)"><path style="stroke:#000000;stroke-width:0.500;fill:#e6e6e6;fill-rule:evenodd" d="M-2000.00,-2000.00L2500.00,-2000.00L2500.00,2500.00L-2000.00,2500.00zM0.00,0.00L500.00,0.00L500.00,500.00L0.00,500.00z"/><path style="fill:#000000;fill-opacity:0.118" d="M3.00,500.00L500.00,500.00L500.00,3.00L503.00,3.00L503.00,503.00L3.00,503.00z"/></g></g></svg>
