<?xml version="1.0" encoding="UTF-8" standalone="no"?>
<svg xmlns="http://www.w3.org/2000/svg" xmlns:xlink="http://www.w3.org/1999/xlink" width="500.000mm" height="500.000mm" viewBox="0.000000 0.000000 500.000000 500.000000" stroke-linejoin="round" stroke-linecap="round" fill="none" fill-rule="evenodd"><desc>Composer Export</desc><script type="text/ecmascript"><![CDATA[
if(typeof(top) != "undefined")
{
	top.ShowPaper = ShowPaper;
}
function ShowPaper()
{
  var svgDocument = getDocument();
  var paper = svgDocument.getElementById("paperID");
  if(paper)
  {
    paper.setAttribute("transform","scale(1)");
    paper.setAttribute("opacity","1");
    paper.setAttribute("visibility","visible");
  }
  var svg = svgDocument.getRootElement();
  if(svg)
  {
    svg.setAttribute("width","510.000mm");
    svg.setAttribute("height","510.000mm");
    svg.setAttribute("viewBox","-5.000000 -5.000000 510.000000 510.000000");
  }
}
]]></script><defs/><g><path style="fill:#ffffff" d="M499.90,499.90L366.28,499.94L366.15,400.51L365.89,499.94L0.12,499.90L0.12,0.12L499.90,0.12z"/><path style="fill:#000020" d="M350.25,117.35L350.67,112.01L350.67,120.14z"/><path style="fill:#000020" d="M359.78,139.97L360.19,129.47L360.19,147.13z"/><path style="fill:#000020" d="M366.28,499.94L365.89,499.94L366.15,400.51z"/><path style="stroke:#000000;stroke-width:0.353" d="M331.80,133.90L352.35,122.04L355.77,124.02L333.52,136.87L333.41,136.13L333.11,135.37L332.66,134.66L332.10,134.11L327.55,131.45L327.25,131.34L326.97,131.30L326.71,131.32L326.48,131.41"/><path style="stroke:#000000;stroke-width:0.353" d="M384.21,132.51L387.61,130.54L387.56,131.20L387.40,131.78L387.15,132.26L386.81,132.62L386.39,132.87L385.90,132.98L385.36,132.96L384.78,132.80L384.17,132.51L370.49,124.61L369.90,124.21L369.32,123.70L368.53,122.77L367.87,121.69L367.49,120.82L367.18,119.77L367.07,118.68L367.06,113.01L366.88,112.25L366.58,111.66L366.17,111.14L365.72,110.76L359.24,107.02L358.95,106.76L358.55,106.29L358.22,105.75L358.05,105.37L357.88,104.80L357.83,104.43L357.82,88.44L359.54,87.45L365.51,90.89L365.80,91.00L366.08,91.04L366.34,91.02L366.57,90.93L366.76,90.78L366.91,90.57L367.01,90.30L367.06,89.99L367.06,84.90L367.01,84.54L366.84,83.96L366.57,83.39L366.21,82.87L365.80,82.44L365.36,82.11L327.69,60.37L327.25,60.18L326.97,60.14L326.71,60.16L326.48,60.25"/><path style="stroke:#000000;stroke-width:0.353" d="M327.69,131.53L350.63,118.29L350.66,119.76L350.88,120.52L351.12,120.97L351.53,121.48L351.88,121.77L352.35,122.04"/><path style="stroke:#000000;stroke-width:0.353" d="M327.69,60.37L432.26,-0.00"/><path style="stroke:#000000;stroke-width:0.353" d="M333.52,143.59L359.80,128.41L359.90,128.69L360.10,129.45L360.21,130.19L360.22,132.12L335.23,146.55L334.64,146.10L334.13,145.46L333.82,144.90L333.57,144.14L333.52,143.59L333.52,136.87"/><path style="stroke:#000000;stroke-width:0.353" d="M333.01,110.30L333.20,110.15L333.36,109.94L333.46,109.67L333.51,109.36L333.52,102.47L333.57,102.00L333.68,101.73L333.82,101.52L334.02,101.37L334.25,101.28L334.50,101.25L334.78,101.30L335.25,101.50L333.52,102.47"/><path style="stroke:#000000;stroke-width:0.353" d="M333.52,109.20L341.05,104.85L335.25,101.50"/><path style="stroke:#000000;stroke-width:0.353" d="M335.22,156.42L336.93,155.43L336.34,155.22L335.95,155.23L335.62,155.38L335.45,155.57L335.32,155.81L335.22,156.42L335.22,159.22L334.94,159.81L334.72,160.45L334.55,161.14L334.43,161.88L334.38,162.66L334.43,164.31L334.55,165.18L334.72,166.08L335.22,167.88L335.24,171.03L335.45,171.80L335.83,172.54L336.34,173.18L336.78,173.55L339.35,175.04L340.67,176.38L342.05,177.50L343.45,178.38L344.16,178.72L344.85,178.99L345.54,179.19L346.20,179.32L346.85,179.37L350.99,176.99L350.99,179.78L349.27,180.77L349.86,180.99L350.13,181.00L350.48,180.89L350.68,180.74L350.88,180.40L350.99,179.78"/><path style="stroke:#000000;stroke-width:0.353" d="M335.22,170.68L349.30,162.54L346.85,161.16L335.22,167.88"/><path style="stroke:#000000;stroke-width:0.353" d="M335.22,159.22L339.35,156.83L336.93,155.43"/><path style="stroke:#000000;stroke-width:0.353" d="M348.92,154.46L349.22,154.60L349.65,154.70L349.90,154.67L350.13,154.58L350.40,154.33L350.53,154.09L350.63,153.47L348.92,154.46L335.23,146.55"/><path style="stroke:#000000;stroke-width:0.353" d="M350.99,100.71L350.88,101.33L350.76,101.57L350.48,101.82L350.26,101.91L349.86,101.92L349.27,101.70L350.99,100.71L350.99,97.92L346.85,100.30L346.20,100.25L345.54,100.12L344.85,99.92L344.16,99.65L343.45,99.31L342.05,98.43L340.67,97.31L339.35,95.97L336.78,94.48L336.34,94.12L335.83,93.47L335.45,92.73L335.24,91.97L335.22,88.81L334.72,87.00L334.55,86.11L334.43,85.25L334.38,83.59L334.43,82.81L334.55,82.07L334.72,81.38L334.94,80.74L335.22,80.15L335.22,77.35L336.93,76.37L336.34,76.15L336.07,76.14L335.72,76.25L335.53,76.40L335.32,76.74L335.22,77.35"/><path style="stroke:#000000;stroke-width:0.353" d="M335.22,91.61L349.29,83.48L350.00,84.10L350.48,84.77L350.68,85.15L350.88,85.72L350.99,86.46L336.93,94.57"/><path style="stroke:#000000;stroke-width:0.353" d="M335.22,88.81L346.85,82.09L345.54,80.76L344.85,80.17L343.45,79.16L342.05,78.42L341.35,78.15L340.67,77.95L340.00,77.82L339.35,77.76L339.39,77.74"/><path style="stroke:#000000;stroke-width:0.353" d="M335.22,80.15L339.35,77.76L336.93,76.37"/><path style="stroke:#000000;stroke-width:0.353" d="M336.93,173.64L350.99,165.53L350.99,168.32L339.35,175.04"/><path style="stroke:#000000;stroke-width:0.353" d="M339.35,156.83L340.00,156.89L340.67,157.01L341.35,157.21L342.05,157.49L343.45,158.23L344.85,159.23L345.54,159.83L346.85,161.16"/><path style="stroke:#000000;stroke-width:0.353" d="M339.35,95.97L350.99,89.25L351.26,90.16L351.64,91.87L351.77,92.82L351.82,93.66L351.77,95.25L351.65,95.99L351.49,96.68L351.26,97.33L350.99,97.92"/><path style="stroke:#000000;stroke-width:0.353" d="M341.05,104.85L341.76,105.26"/><path style="stroke:#000000;stroke-width:0.353" d="M346.85,179.37L349.27,180.77"/><path style="stroke:#000000;stroke-width:0.353" d="M349.27,101.70L346.85,100.30"/><path style="stroke:#000000;stroke-width:0.353" d="M346.85,82.09L349.29,83.48"/><path style="stroke:#000000;stroke-width:0.353" d="M349.30,162.54L350.00,163.16L350.48,163.84L350.76,164.40L350.88,164.79L350.99,165.53"/><path style="stroke:#000000;stroke-width:0.353" d="M350.99,176.99L351.26,176.39L351.49,175.75L351.65,175.06L351.77,174.32L351.82,172.73L351.65,171.02L351.49,170.13L350.99,168.32"/><path style="stroke:#000000;stroke-width:0.353" d="M352.00,145.57L356.80,148.33L360.22,146.36L360.22,140.82L352.00,145.57L351.65,145.42L351.32,145.38L351.03,145.47L350.82,145.67L350.68,145.98L350.63,146.36L350.63,153.47"/><path style="stroke:#000000;stroke-width:0.353" d="M351.03,145.47L360.22,140.17L360.22,140.82"/><path style="stroke:#000000;stroke-width:0.353" d="M350.63,118.29L350.63,117.48"/><path style="stroke:#000000;stroke-width:0.353" d="M350.99,89.25L350.99,86.46"/><path style="stroke:#000000;stroke-width:0.353" d="M356.80,148.33L357.39,148.62L357.97,148.77L358.66,148.77L359.22,148.57L359.60,148.27L359.90,147.84L360.01,147.59L360.17,147.01L360.22,146.36"/><path style="stroke:#000000;stroke-width:0.353" d="M359.80,128.41L359.22,127.17L358.76,126.46L358.24,125.82L357.68,125.26L357.10,124.80L355.77,124.02"/><path style="stroke:#000000;stroke-width:0.353" d="M367.07,194.98L387.61,183.12L387.61,183.66L387.69,184.11L387.93,184.72L388.20,185.15L388.74,185.73L390.01,186.49L367.07,199.73L367.06,194.81L367.01,194.44L366.84,193.86L366.57,193.30L366.34,192.94L365.94,192.48L365.51,192.11L359.24,188.46L358.81,188.06L358.55,187.74L358.13,187.01L357.88,186.24L357.82,185.69L382.82,171.26L375.29,166.92L367.07,171.66L367.02,172.04L366.88,172.34L366.67,172.55L366.38,172.63L366.05,172.60L365.72,172.46L359.54,168.89L358.66,169.40L357.82,169.88L357.82,185.69"/><path style="stroke:#000000;stroke-width:0.353" d="M357.82,169.88L357.85,169.55L357.98,169.14L358.13,168.92L358.33,168.77L358.55,168.68L358.95,168.67L359.54,168.89"/><path style="stroke:#000000;stroke-width:0.353" d="M357.85,104.24L500.00,22.17"/><path style="stroke:#000000;stroke-width:0.353" d="M357.82,88.44L357.85,88.11L357.98,87.70L358.13,87.48L358.33,87.33L358.55,87.24L358.81,87.22L359.24,87.31L359.54,87.45"/><path style="stroke:#000000;stroke-width:0.353" d="M359.54,188.66L385.82,173.48L386.15,173.90L386.61,174.61L386.99,175.36L387.29,176.13L387.49,176.89L387.60,177.63L387.61,179.17L365.36,192.02"/><path style="stroke:#000000;stroke-width:0.353" d="M360.22,132.12L360.22,140.17"/><path style="stroke:#000000;stroke-width:0.353" d="M359.54,107.22L500.00,26.12"/><path style="stroke:#000000;stroke-width:0.353" d="M365.36,82.11L500.00,4.38"/><path style="stroke:#000000;stroke-width:0.353" d="M366.57,200.84L366.76,200.68L366.91,200.47L367.01,200.21L367.07,199.73"/><path style="stroke:#000000;stroke-width:0.353" d="M367.07,171.66L367.07,166.13L370.49,164.15L369.90,163.86L369.32,163.71L368.78,163.69L368.29,163.80L368.07,163.91L367.69,164.22L367.39,164.64L367.18,165.17L367.07,166.13"/><path style="stroke:#000000;stroke-width:0.353" d="M366.67,172.55L375.85,167.24"/><path style="stroke:#000000;stroke-width:0.353" d="M367.07,118.68L390.35,105.24L389.03,104.45L388.60,104.05L388.34,103.72L388.01,103.19L387.77,102.61L387.64,102.04L387.61,101.29L367.07,113.15"/><path style="stroke:#000000;stroke-width:0.353" d="M387.61,101.29L387.61,98.12L365.72,110.76"/><path style="stroke:#000000;stroke-width:0.353" d="M366.57,90.93L500.00,13.89"/><path style="stroke:#000000;stroke-width:0.353" d="M367.07,89.82L500.00,13.08"/><path style="stroke:#000000;stroke-width:0.353" d="M367.07,85.08L500.00,8.33"/><path style="stroke:#000000;stroke-width:0.353" d="M370.04,139.11L370.08,139.29L369.63,140.25L369.32,141.34L369.21,141.90L369.08,143.12L369.06,143.76L369.12,145.07L369.30,146.44L369.61,147.83L369.56,148.05L369.26,146.79L369.06,145.51L368.96,144.28L368.97,143.11L369.08,141.98L369.29,140.93L369.62,139.97L370.04,139.11L369.46,139.45L369.18,140.04L368.95,140.68L368.79,141.38L368.67,142.11L368.62,142.89L368.67,144.55L368.95,146.31L369.46,148.11L369.46,150.91L369.56,151.64L369.86,152.41L370.19,152.95L370.58,153.42L371.17,153.88L385.22,145.76L385.22,148.55L384.61,148.91L384.73,149.04L383.80,149.58L384.71,150.62L385.96,151.78L385.72,150.36L385.22,148.55"/><path style="stroke:#000000;stroke-width:0.353" d="M370.49,164.15L375.29,166.92"/><path style="stroke:#000000;stroke-width:0.353" d="M369.46,150.91L383.51,142.79L381.09,141.40L380.44,140.70L379.49,139.81L379.58,140.51L379.88,141.90L379.83,142.12L377.43,143.51L377.39,143.33L376.46,143.87L376.41,144.10L374.00,145.49L373.97,145.31L373.03,145.85L372.98,146.08L370.58,147.47L370.55,147.29L369.61,147.83"/><path style="stroke:#000000;stroke-width:0.353" d="M369.56,148.05L369.46,148.11"/><path style="stroke:#000000;stroke-width:0.353" d="M370.08,139.29L371.01,138.75L370.57,139.71L370.40,140.23L370.15,141.37L370.02,142.58L370.06,144.53L370.24,145.90L370.55,147.29"/><path style="stroke:#000000;stroke-width:0.353" d="M369.46,139.45L369.46,136.66L371.17,135.67L370.58,135.45L370.31,135.44L369.96,135.55L369.69,135.80L369.56,136.04L369.46,136.66"/><path style="stroke:#000000;stroke-width:0.353" d="M371.01,138.75L371.06,138.52L373.47,137.13L373.04,138.00L372.72,138.95L372.50,140.00L372.39,141.13L372.39,142.30L372.48,143.54L372.68,144.80L372.98,146.08"/><path style="stroke:#000000;stroke-width:0.353" d="M370.49,124.61L396.51,109.59L396.75,110.24L396.85,110.97L396.85,119.67L388.98,124.22L388.63,124.07L388.30,124.03L388.01,124.12L387.86,124.25L387.69,124.52L387.62,124.87L387.61,130.54"/><path style="stroke:#000000;stroke-width:0.353" d="M371.17,153.88L373.76,155.37L374.46,154.97L374.91,155.50L375.85,156.48L376.82,157.33L377.81,158.04L378.30,158.35L379.28,158.85L380.24,159.19L381.16,159.37L380.92,159.51L380.23,159.43L379.53,159.27L378.81,159.04L378.09,158.73L377.34,158.33L376.60,157.87L375.87,157.34L374.44,156.09L373.76,155.37"/><path style="stroke:#000000;stroke-width:0.353" d="M373.03,145.85L372.72,144.46L372.55,143.11L372.50,142.43L372.51,141.14L372.55,140.52L372.75,139.35L373.06,138.27L373.50,137.31L373.47,137.13"/><path style="stroke:#000000;stroke-width:0.353" d="M371.06,138.52L371.02,138.59"/><path style="stroke:#000000;stroke-width:0.353" d="M373.50,137.31L373.89,137.09L373.59,137.06L371.17,135.67"/><path style="stroke:#000000;stroke-width:0.353" d="M374.46,154.97L374.34,154.84L376.74,153.45L377.58,154.42L378.45,155.30L379.34,156.07L380.26,156.72L381.16,157.25L382.05,157.66L382.93,157.93L383.76,158.06L383.64,157.93L382.73,157.76L381.77,157.41L381.28,157.18L380.29,156.61L378.82,155.48L377.86,154.57L376.94,153.53L376.74,153.45"/><path style="stroke:#000000;stroke-width:0.353" d="M373.97,145.31L373.56,143.23L373.42,141.24L373.49,139.98L373.68,138.81L374.00,137.73L374.26,137.12L373.89,137.09"/><path style="stroke:#000000;stroke-width:0.353" d="M374.26,137.12L374.90,137.25L376.00,137.61L375.81,139.15L375.84,140.94L376.10,142.82L376.41,144.10"/><path style="stroke:#000000;stroke-width:0.353" d="M376.46,143.87L376.15,142.48L375.97,141.12L375.92,140.46L375.93,139.17L376.12,137.65L376.00,137.61"/><path style="stroke:#000000;stroke-width:0.353" d="M376.12,137.65L376.99,138.06L377.69,138.47L378.39,138.94L379.34,139.68L379.53,140.84L379.83,142.12"/><path style="stroke:#000000;stroke-width:0.353" d="M385.22,160.01L385.12,160.63L384.99,160.87L384.72,161.12L384.49,161.21L384.10,161.22L383.51,161.00L385.22,160.01L385.22,157.24L385.50,156.63L385.77,155.78L385.03,155.49L384.13,155.02L382.77,154.09L381.44,152.90L380.16,151.48L377.76,152.86L377.88,152.99L376.94,153.53"/><path style="stroke:#000000;stroke-width:0.353" d="M377.88,152.99L378.80,154.03L379.28,154.50L380.24,155.35L381.23,156.07L382.22,156.65L382.70,156.87L383.66,157.22L384.58,157.39L383.64,157.93"/><path style="stroke:#000000;stroke-width:0.353" d="M377.39,143.33L377.09,141.94L376.91,140.58L376.85,139.26L376.92,138.02"/><path style="stroke:#000000;stroke-width:0.353" d="M379.49,139.81L379.34,139.68"/><path style="stroke:#000000;stroke-width:0.353" d="M380.92,159.51L383.51,161.00"/><path style="stroke:#000000;stroke-width:0.353" d="M383.76,158.06L381.36,159.45L381.16,159.37"/><path style="stroke:#000000;stroke-width:0.353" d="M385.80,155.67L384.71,155.21L384.21,154.94L383.23,154.29L382.24,153.51L381.29,152.59L380.37,151.55L380.16,151.48"/><path style="stroke:#000000;stroke-width:0.353" d="M385.77,155.78L386.01,154.55L386.06,153.78L386.06,152.96L385.98,151.94L384.86,150.92L383.59,149.50L381.19,150.89L381.31,151.01L380.37,151.55"/><path style="stroke:#000000;stroke-width:0.353" d="M385.96,154.82L384.66,154.09L383.67,153.37L382.22,152.05L381.31,151.01"/><path style="stroke:#000000;stroke-width:0.353" d="M379.88,141.90L380.82,141.35L380.85,141.53L381.09,141.40"/><path style="stroke:#000000;stroke-width:0.353" d="M380.82,141.35L380.74,141.02"/><path style="stroke:#000000;stroke-width:0.353" d="M382.82,171.26L384.19,172.06L384.78,172.46L385.36,172.97L385.82,173.48"/><path style="stroke:#000000;stroke-width:0.353" d="M385.22,157.24L384.78,157.47L384.58,157.39"/><path style="stroke:#000000;stroke-width:0.353" d="M383.59,149.50L383.80,149.58"/><path style="stroke:#000000;stroke-width:0.353" d="M385.65,150.07L384.73,149.04"/><path style="stroke:#000000;stroke-width:0.353" d="M385.22,145.76L385.12,145.02L384.99,144.64L384.72,144.07L384.49,143.72L384.10,143.25L383.51,142.79"/><path style="stroke:#000000;stroke-width:0.353" d="M385.98,151.94L385.96,151.78"/><path style="stroke:#000000;stroke-width:0.353" d="M395.14,209.22L396.85,208.23L396.83,208.56L396.75,208.84L396.63,209.08L396.45,209.27L396.12,209.43L395.87,209.45L395.59,209.41L395.14,209.22L389.17,205.78L388.88,205.67L388.60,205.62L388.34,205.65L388.11,205.74"/><path style="stroke:#000000;stroke-width:0.353" d="M387.61,179.17L387.61,183.12"/><path style="stroke:#000000;stroke-width:0.353" d="M388.01,124.12L396.85,119.02"/><path style="stroke:#000000;stroke-width:0.353" d="M387.61,98.12L387.62,96.77L387.67,96.46L387.84,96.08L388.11,95.83L388.47,95.72L388.88,95.76L389.32,95.95L427.13,117.79L427.71,118.30L428.19,118.97L428.54,119.73L428.64,120.14L428.70,120.66L500.00,79.49"/><path style="stroke:#000000;stroke-width:0.353" d="M388.11,95.83L500.00,31.23"/><path style="stroke:#000000;stroke-width:0.353" d="M389.32,205.86L396.85,201.51L396.85,208.23"/><path style="stroke:#000000;stroke-width:0.353" d="M390.01,186.49L390.72,186.89"/><path style="stroke:#000000;stroke-width:0.353" d="M388.98,124.22L395.44,127.92L395.73,128.00L396.00,128.01L396.24,127.95L396.45,127.83L396.63,127.64L396.75,127.40L396.83,127.12L396.85,126.79L395.14,127.78"/><path style="stroke:#000000;stroke-width:0.353" d="M390.35,105.24L395.29,108.10L395.59,108.33L396.00,108.77L396.51,109.59"/><path style="stroke:#000000;stroke-width:0.353" d="M500.00,32.05L389.32,95.95"/><path style="stroke:#000000;stroke-width:0.353" d="M397.88,172.06L402.68,174.82L423.22,162.96L422.58,162.56L422.15,162.16L421.77,161.67L421.47,161.11L421.32,160.73L421.19,160.16L421.16,158.61L397.88,172.06L397.00,171.41L396.43,170.85L395.92,170.21L395.26,169.13L394.92,168.37L394.66,167.60L394.51,166.84L394.46,166.13L394.46,159.01L394.46,150.31L394.57,149.35L394.78,148.83L394.92,148.60L395.26,148.23L395.68,147.99L396.17,147.88L396.71,147.90L397.29,148.05L397.88,148.33L394.46,150.31"/><path style="stroke:#000000;stroke-width:0.353" d="M394.46,166.13L419.02,151.94L420.49,151.13L420.04,150.57L419.45,150.11L411.92,145.76L404.05,150.31L404.00,150.69L403.86,151.00L403.64,151.20L403.46,151.27L403.14,151.28L402.79,151.17L397.88,148.33"/><path style="stroke:#000000;stroke-width:0.353" d="M396.85,201.51L396.85,200.70"/><path style="stroke:#000000;stroke-width:0.353" d="M396.85,126.79L396.85,119.67"/><path style="stroke:#000000;stroke-width:0.353" d="M500.00,132.86L405.76,187.28L405.31,186.95L404.77,186.35L404.45,185.81L404.15,185.04L404.05,184.31L404.02,176.91L403.86,176.30L403.55,175.70L403.14,175.19L402.68,174.82"/><path style="stroke:#000000;stroke-width:0.353" d="M405.41,213.18L407.83,214.57L419.46,207.86L419.46,205.06L405.41,213.18L405.11,212.97L404.68,212.57L404.30,212.08L404.00,211.52L403.80,210.95L403.69,210.21L403.69,207.42L415.33,200.70L414.01,199.36L413.33,198.77L412.63,198.24L411.22,197.36L410.52,197.02L409.83,196.75L409.14,196.55L408.47,196.42L407.83,196.37L403.69,198.75L403.42,199.34L403.19,199.98L403.02,200.68L402.91,201.42L402.85,203.01L403.02,204.72L403.19,205.61L403.69,207.42"/><path style="stroke:#000000;stroke-width:0.353" d="M403.69,210.21L417.75,202.09L415.33,200.70"/><path style="stroke:#000000;stroke-width:0.353" d="M403.69,198.75L403.69,195.96L403.80,195.34L403.92,195.10L404.09,194.92L404.42,194.76L404.82,194.75L405.42,194.97L403.69,195.96"/><path style="stroke:#000000;stroke-width:0.353" d="M404.05,184.31L500.00,128.91"/><path style="stroke:#000000;stroke-width:0.353" d="M404.05,177.20L425.96,164.54L423.22,162.96"/><path style="stroke:#000000;stroke-width:0.353" d="M404.05,150.31L404.05,143.20L405.76,142.21L405.46,142.06L405.03,141.97L404.78,142.00L404.55,142.09L404.35,142.24L404.15,142.58L404.05,143.20"/><path style="stroke:#000000;stroke-width:0.353" d="M403.64,151.20L412.49,146.09"/><path style="stroke:#000000;stroke-width:0.353" d="M405.41,134.11L407.83,135.51L419.46,128.79L419.46,125.99L405.41,134.11L405.11,133.91L404.68,133.50L404.30,133.01L404.00,132.45L403.80,131.88L403.69,131.14L403.69,128.35L415.33,121.63L414.01,120.29L413.33,119.70L412.63,119.17L411.40,118.39L410.52,117.95L409.83,117.68L409.14,117.48L408.47,117.35L407.83,117.30L403.69,119.68L403.42,120.27L403.19,120.91L403.02,121.61L402.91,122.35L402.85,123.94L403.02,125.65L403.19,126.54L403.69,128.35"/><path style="stroke:#000000;stroke-width:0.353" d="M403.69,131.14L417.76,123.02L415.33,121.63"/><path style="stroke:#000000;stroke-width:0.353" d="M403.69,119.68L403.69,116.89L403.80,116.27L403.92,116.03L404.09,115.85L404.42,115.69L404.82,115.68L405.42,115.91L403.69,116.89"/><path style="stroke:#000000;stroke-width:0.353" d="M405.42,194.97L407.83,196.37"/><path style="stroke:#000000;stroke-width:0.353" d="M405.76,187.28L419.45,195.18L421.16,194.19L421.14,194.52L421.00,194.94L420.85,195.15L420.66,195.30L420.43,195.39L420.17,195.41L419.75,195.33L419.45,195.18"/><path style="stroke:#000000;stroke-width:0.353" d="M405.76,142.21L411.92,145.76"/><path style="stroke:#000000;stroke-width:0.353" d="M405.42,115.91L407.83,117.30"/><path style="stroke:#000000;stroke-width:0.353" d="M407.83,214.57L409.14,215.91L409.83,216.50L411.22,217.50L412.63,218.25L413.33,218.52L414.01,218.72L414.68,218.85L415.33,218.91L417.75,220.30L419.46,219.31L419.36,219.93L419.23,220.17L418.96,220.42L418.73,220.51L418.33,220.52L417.75,220.30"/><path style="stroke:#000000;stroke-width:0.353" d="M407.83,135.51L409.14,136.84L409.83,137.43L411.22,138.44L412.63,139.18L413.33,139.45L414.01,139.65L414.68,139.78L415.33,139.84L419.46,137.45L419.46,140.25L417.75,141.23L415.33,139.84"/><path style="stroke:#000000;stroke-width:0.353" d="M415.33,218.91L419.46,216.52L419.46,219.31"/><path style="stroke:#000000;stroke-width:0.353" d="M417.75,202.09L418.33,202.55L418.73,203.02L418.96,203.37L419.23,203.94L419.36,204.33L419.46,205.06"/><path style="stroke:#000000;stroke-width:0.353" d="M417.75,141.23L418.05,141.38L418.47,141.47L418.73,141.44L418.98,141.34L419.23,141.10L419.36,140.86L419.46,140.25"/><path style="stroke:#000000;stroke-width:0.353" d="M417.76,123.02L418.19,123.35L418.47,123.63L418.96,124.30L419.23,124.87L419.36,125.26L419.46,125.99"/><path style="stroke:#000000;stroke-width:0.353" d="M419.46,216.52L419.74,215.93L419.96,215.29L420.13,214.59L420.24,213.86L420.30,213.08L420.24,211.42L420.13,210.55L419.96,209.66L419.46,207.86"/><path style="stroke:#000000;stroke-width:0.353" d="M420.49,151.13L420.93,151.96L421.11,152.53L421.16,152.90L421.16,158.61"/><path style="stroke:#000000;stroke-width:0.353" d="M419.46,137.45L419.74,136.86L419.96,136.22L420.13,135.53L420.24,134.79L420.30,133.20L420.24,132.35L419.99,130.74L419.74,129.70L419.46,128.79"/><path style="stroke:#000000;stroke-width:0.353" d="M421.16,194.19L421.17,187.30L421.22,187.00L421.32,186.73L421.47,186.52L421.67,186.37L422.02,186.25L422.29,186.27L422.58,186.34L424.25,187.28L427.13,188.95L427.71,189.46L428.19,190.13L428.54,190.90L428.64,191.28L428.70,191.82L428.70,235.31L428.64,235.79L428.54,236.05L428.39,236.26L428.19,236.42"/><path style="stroke:#000000;stroke-width:0.353" d="M500.00,141.14L421.67,186.37"/><path style="stroke:#000000;stroke-width:0.353" d="M422.87,186.48L500.00,141.96"/><path style="stroke:#000000;stroke-width:0.353" d="M426.98,188.86L500.00,146.70"/><path style="stroke:#000000;stroke-width:0.353" d="M428.70,120.66L428.69,164.32L428.64,164.63L428.47,165.00L428.19,165.26L427.84,165.37L427.43,165.32L427.13,165.22L425.96,164.54"/><path style="stroke:#000000;stroke-width:0.353" d="M426.98,117.70L500.00,75.54"/><path style="stroke:#000000;stroke-width:0.353" d="M428.70,235.31L500.00,194.14"/><path style="stroke:#000000;stroke-width:0.353" d="M428.70,191.82L500.00,150.65"/><path style="stroke:#000000;stroke-width:0.353" d="M428.19,165.26L500.00,123.80"/><path style="stroke:#000000;stroke-width:0.353" d="M428.70,164.15L500.00,122.98"/><path style="stroke:#000000;stroke-width:0.353" d="M500.00,194.96L428.19,236.42L427.97,236.51L427.71,236.53L427.43,236.49L426.98,236.30L389.32,214.55L388.88,214.23L388.34,213.63L388.11,213.28L387.84,212.71L387.67,212.13L387.62,211.77L387.62,206.68L387.67,206.37L387.84,205.99L388.11,205.74L396.85,200.69L396.83,192.06L396.63,191.29L396.24,190.55L395.73,189.91L395.14,189.45L390.72,186.89L366.57,200.84L366.21,200.95L365.94,200.94L365.36,200.72L327.69,178.97L327.25,178.65L326.71,178.05L326.38,177.51L326.14,176.94L326.04,176.55L325.98,176.01L325.98,132.52L326.09,131.90L326.21,131.66L326.48,131.41L350.63,117.47L350.63,112.18L350.53,111.62L350.40,111.24L350.23,110.86L349.90,110.32L349.37,109.72L348.92,109.39L341.76,105.26L333.01,110.30L332.66,110.41L332.25,110.37L331.95,110.26L327.55,107.72L327.25,107.49L326.85,107.07L326.59,106.71L326.29,106.16L326.04,105.39L325.98,104.85L325.98,61.36L326.04,60.88L326.14,60.62L326.29,60.40L326.48,60.25L430.84,-0.00"/><path style="stroke:#000000;stroke-width:0.353" d="M224.27,296.20L224.31,296.44L224.42,296.68L224.60,296.90L224.98,297.19L224.98,500.00"/><path style="stroke:#000000;stroke-width:0.353" d="M224.98,297.19L262.80,319.01L263.14,319.15L263.73,319.29L264.56,319.33L265.38,319.21L266.07,318.93L266.07,367.77L264.61,368.69L263.54,369.54L262.86,370.27L262.13,371.47L261.70,372.46L261.36,373.54L261.15,374.56L260.98,375.94L260.93,377.25L260.98,378.60L261.12,380.01L261.36,381.45L261.70,382.91L262.13,384.40L262.89,386.48L263.58,387.63L264.00,388.10L264.35,388.40L264.87,388.70L265.28,388.83L265.70,388.82L266.07,388.72L266.07,500.00"/><path style="stroke:#000000;stroke-width:0.353" d="M243.45,297.19L242.97,296.79L242.82,296.56L242.74,296.20L242.82,295.84L242.97,295.61L243.45,295.21L243.45,297.19L245.87,298.59L246.24,299.12L246.69,299.63L247.79,300.59L249.14,301.44L250.70,302.15L251.56,302.44L253.37,302.92L253.37,289.48L251.56,289.95L250.70,290.25L249.14,290.96L248.20,291.52L247.20,292.27L246.69,292.76L245.87,293.81L243.45,295.21"/><path style="stroke:#000000;stroke-width:0.353" d="M245.87,293.81L245.87,298.59"/><path style="stroke:#000000;stroke-width:0.353" d="M253.37,302.92L255.79,304.33L256.48,304.59L257.30,304.72L257.95,304.70L258.53,304.59L259.22,304.31L259.22,288.08L258.53,287.80L257.95,287.70L257.30,287.68L256.48,287.80L255.79,288.08L253.37,289.48"/><path style="stroke:#000000;stroke-width:0.353" d="M255.79,304.33L255.79,288.08"/><path style="stroke:#000000;stroke-width:0.353" d="M259.22,304.31L261.64,302.92L263.25,302.50L264.33,302.14L265.89,301.43L267.24,300.59L268.33,299.63L269.16,298.57L269.14,293.81L271.71,295.30L272.12,295.72L272.23,295.96L272.27,296.20L272.19,296.56L271.83,297.00L269.16,298.57"/><path style="stroke:#000000;stroke-width:0.353" d="M259.22,288.08L261.64,289.48L261.64,302.92"/><path style="stroke:#000000;stroke-width:0.353" d="M262.64,500.00L262.64,385.89"/><path style="stroke:#000000;stroke-width:0.353" d="M262.64,370.58L262.64,318.93"/><path style="stroke:#000000;stroke-width:0.353" d="M269.14,293.81L268.77,293.29L268.33,292.76L267.81,292.27L266.58,291.37L265.12,290.59L264.31,290.25L263.46,289.95L261.64,289.48"/><path style="stroke:#000000;stroke-width:0.353" d="M264.35,310.95L264.35,311.22L263.97,310.93L263.79,310.71L263.68,310.48L263.65,310.24L263.68,309.99L263.79,309.75L264.08,309.43L264.35,309.24L264.35,310.95"/><path style="stroke:#000000;stroke-width:0.353" d="M264.35,311.22L270.32,314.67L270.74,315.09L270.87,315.45L270.87,315.69L270.80,315.93L270.56,316.27L270.32,316.47L266.07,318.93"/><path style="stroke:#000000;stroke-width:0.353" d="M264.35,309.24L278.05,301.34L278.05,500.00"/><path style="stroke:#000000;stroke-width:0.353" d="M264.35,283.15L264.35,281.18L263.87,281.57L263.73,281.80L263.65,282.04L263.65,282.29L263.73,282.53L263.97,282.86L264.35,283.15L270.20,286.52L270.17,277.81L264.35,281.18"/><path style="stroke:#000000;stroke-width:0.353" d="M266.07,388.72L270.34,386.20L270.60,385.89L270.76,385.54L270.86,385.08L270.88,384.61L270.88,500.00"/><path style="stroke:#000000;stroke-width:0.353" d="M266.07,367.77L266.56,367.49L265.95,367.84"/><path style="stroke:#000000;stroke-width:0.353" d="M265.34,368.21L266.59,367.49L265.57,368.07"/><path style="stroke:#000000;stroke-width:0.353" d="M266.59,367.49L266.78,367.38L265.68,368.00"/><path style="stroke:#000000;stroke-width:0.353" d="M266.78,367.38L269.67,365.71L269.27,365.94"/><path style="stroke:#000000;stroke-width:0.353" d="M266.07,273.47L266.07,273.50"/><path style="stroke:#000000;stroke-width:0.353" d="M270.88,384.61L270.81,383.80L270.59,382.80L269.66,380.05L269.23,378.56L268.90,377.10L268.66,375.66L268.51,374.25L268.47,372.79L268.51,371.59L268.66,370.36L268.90,369.20L269.23,368.11L269.66,367.12L270.17,366.16"/><path style="stroke:#000000;stroke-width:0.353" d="M270.17,386.32L270.17,500.00"/><path style="stroke:#000000;stroke-width:0.353" d="M270.17,366.23L270.88,365.10L270.81,365.08L270.51,365.22L270.66,365.14"/><path style="stroke:#000000;stroke-width:0.353" d="M269.67,365.71L270.31,365.32L270.18,365.42L270.17,316.56"/><path style="stroke:#000000;stroke-width:0.353" d="M270.31,365.32L270.35,365.32L270.18,365.42"/><path style="stroke:#000000;stroke-width:0.353" d="M270.20,286.52L270.88,286.92"/><path style="stroke:#000000;stroke-width:0.353" d="M270.17,277.81L270.56,277.53L270.74,277.31L270.85,277.07L270.88,276.83"/><path style="stroke:#000000;stroke-width:0.353" d="M270.48,365.23L270.51,365.22L270.35,365.32"/><path style="stroke:#000000;stroke-width:0.353" d="M270.88,365.10L270.88,315.57"/><path style="stroke:#000000;stroke-width:0.353" d="M271.56,297.19L271.56,295.21"/><path style="stroke:#000000;stroke-width:0.353" d="M278.05,301.34L278.37,301.18L278.93,301.01L279.76,300.93L280.79,301.06L281.47,301.34L281.47,500.00"/><path style="stroke:#000000;stroke-width:0.353" d="M281.47,301.34L287.63,304.90L287.63,330.20L290.37,328.62L290.37,307.42L290.37,304.90L289.67,305.16L289.00,305.22L288.19,305.12L287.63,304.90"/><path style="stroke:#000000;stroke-width:0.353" d="M285.90,500.00L285.90,401.06L285.91,400.81L285.96,400.70L286.61,399.72L286.61,500.00"/><path style="stroke:#000000;stroke-width:0.353" d="M286.61,399.72L287.12,398.83L287.65,397.53L287.64,387.77L287.12,385.90L286.43,383.91L286.11,382.84L285.93,381.84L285.91,381.07"/><path style="stroke:#000000;stroke-width:0.353" d="M285.90,381.20L285.90,366.54L285.69,365.09L285.59,363.69L285.59,362.35L285.69,361.05L285.90,359.84L285.90,331.78L285.94,332.02L286.05,332.26L286.22,332.48L286.61,332.77L324.27,354.51L324.27,500.00"/><path style="stroke:#000000;stroke-width:0.353" d="M285.90,359.84L285.90,366.54"/><path style="stroke:#000000;stroke-width:0.353" d="M287.63,330.20L286.61,330.79L286.22,331.08L285.98,331.42L285.90,331.78"/><path style="stroke:#000000;stroke-width:0.353" d="M290.72,287.70L290.72,263.98L291.41,264.26L292.22,264.38L293.06,264.34L293.64,264.20L294.14,263.98L299.96,260.62L299.97,290.97L299.01,291.08L298.17,291.08L297.34,290.99L296.17,290.71L295.17,290.27L290.25,287.43L289.51,287.21L288.84,287.18L288.04,287.32L287.63,287.50L285.92,288.49"/><path style="stroke:#000000;stroke-width:0.353" d="M285.90,260.62L285.94,260.86L286.05,261.10L286.22,261.32L286.61,261.61L286.61,288.09"/><path style="stroke:#000000;stroke-width:0.353" d="M287.65,397.53L287.88,396.76L288.13,395.60L288.27,394.36L288.32,393.06L288.27,391.70L288.13,390.30L287.89,388.86L287.64,387.77"/><path style="stroke:#000000;stroke-width:0.353" d="M286.61,384.43L286.61,332.77"/><path style="stroke:#000000;stroke-width:0.353" d="M286.61,261.61L290.72,263.98"/><path style="stroke:#000000;stroke-width:0.353" d="M290.37,328.62L291.04,328.26L291.80,328.06L292.64,328.01L293.06,328.06L293.64,328.20L294.14,328.42L300.13,331.87L300.46,332.00L301.05,332.14L301.91,332.18L302.50,332.10L303.23,331.86L310.92,327.43L310.92,318.34L310.61,318.11L310.42,317.84L310.35,317.55L310.38,317.35L310.53,317.07L310.80,316.83L315.71,313.99L315.71,310.04L302.02,302.13L302.02,332.17"/><path style="stroke:#000000;stroke-width:0.353" d="M290.37,304.90L295.18,302.12L295.17,329.01"/><path style="stroke:#000000;stroke-width:0.353" d="M294.14,289.67L294.14,263.98"/><path style="stroke:#000000;stroke-width:0.353" d="M295.18,302.12L296.17,301.68L296.94,301.48L297.75,301.35L298.59,301.31L299.84,301.40L300.64,301.57L301.37,301.81L302.02,302.13"/><path style="stroke:#000000;stroke-width:0.353" d="M299.97,290.97L300.66,290.82L301.37,290.58L302.02,290.27L303.38,289.48L303.38,260.62L303.06,260.46L302.50,260.29L301.67,260.21L300.85,260.29L300.46,260.39L299.96,260.62"/><path style="stroke:#000000;stroke-width:0.353" d="M303.38,289.48L310.92,285.13L310.92,275.64L310.53,275.32L310.42,275.14L310.35,274.85L310.38,285.44"/><path style="stroke:#000000;stroke-width:0.353" d="M303.38,260.62L317.08,268.55L317.08,270.50L317.56,270.10L317.71,269.87L317.79,269.51L317.75,269.27L317.56,268.92L317.35,268.71L317.08,268.55"/><path style="stroke:#000000;stroke-width:0.353" d="M310.92,327.43L317.08,323.87L317.08,321.90L317.56,322.29L317.75,322.64L317.79,322.88L317.75,323.13L317.64,323.36L317.35,323.69L317.08,323.87"/><path style="stroke:#000000;stroke-width:0.353" d="M310.35,327.76L310.35,317.55"/><path style="stroke:#000000;stroke-width:0.353" d="M310.92,318.34L317.08,321.90"/><path style="stroke:#000000;stroke-width:0.353" d="M310.92,285.13L315.72,282.35L315.71,278.41L310.92,275.64"/><path style="stroke:#000000;stroke-width:0.353" d="M310.35,274.85L310.47,274.47L310.80,274.13L317.08,270.50"/><path style="stroke:#000000;stroke-width:0.353" d="M311.93,336.74L311.44,336.32L311.30,336.09L311.22,335.74L311.25,335.49L311.44,335.14L311.93,334.74L311.93,336.74L314.35,338.12L314.35,333.35L311.93,334.74"/><path style="stroke:#000000;stroke-width:0.353" d="M311.93,296.82L311.93,297.19L311.44,296.79L311.30,296.56L311.22,296.20L311.30,295.84L311.44,295.61L311.93,295.21L311.93,296.82"/><path style="stroke:#000000;stroke-width:0.353" d="M311.93,297.19L314.35,298.59L315.13,299.59L315.68,300.13L316.91,301.03L318.37,301.81L320.03,302.44L321.85,302.92L324.30,304.33L324.79,304.54L325.37,304.68L325.98,304.72L326.59,304.68L327.19,304.53L327.69,304.31L330.11,302.92L331.07,302.69L332.60,302.21L333.59,301.81L334.35,301.44L335.61,300.65L336.29,300.13L336.82,299.61L337.60,298.62L337.62,293.81L336.80,292.76L335.70,291.80L334.35,290.96L333.59,290.59L331.93,289.95L330.11,289.48L330.11,302.92"/><path style="stroke:#000000;stroke-width:0.353" d="M311.93,295.21L314.35,293.81L314.35,298.59"/><path style="stroke:#000000;stroke-width:0.353" d="M311.93,255.67L314.35,254.28L314.35,259.05L311.93,257.65L311.93,255.67L311.44,256.07L311.30,256.30L311.22,256.66L311.30,257.02L311.44,257.25L311.93,257.65"/><path style="stroke:#000000;stroke-width:0.353" d="M314.35,338.12L314.72,338.66L315.17,339.17L316.26,340.13L317.61,340.97L318.39,341.35L320.05,341.98L321.85,342.45L324.27,343.86L324.96,344.13L325.78,344.25L326.41,344.23L327.01,344.12L327.69,343.85L327.69,327.62L327.01,327.34L326.40,327.23L325.77,327.21L324.96,327.34L324.27,327.62L321.85,329.01L320.03,329.49L318.37,330.12L316.91,330.90L315.68,331.80L315.16,332.30L314.72,332.81L314.35,333.35"/><path style="stroke:#000000;stroke-width:0.353" d="M314.35,293.81L315.16,292.76L315.68,292.27L316.68,291.52L317.61,290.96L319.18,290.25L320.03,289.95L321.85,289.48L321.85,302.92"/><path style="stroke:#000000;stroke-width:0.353" d="M314.35,259.05L314.72,259.59L315.17,260.11L315.69,260.60L316.92,261.50L318.02,262.10L319.20,262.62L320.05,262.92L321.85,263.38L321.85,249.95L320.03,250.42L319.18,250.72L318.37,251.05L316.91,251.83L315.68,252.74L315.16,253.23L314.72,253.74L314.35,254.28"/><path style="stroke:#000000;stroke-width:0.353" d="M315.71,313.99L316.48,313.41L316.83,312.97L317.05,312.50L317.13,312.01L317.05,311.53L316.84,311.06L316.48,310.61L315.71,310.04"/><path style="stroke:#000000;stroke-width:0.353" d="M315.72,282.35L316.47,281.79L316.83,281.35L317.05,280.87L317.13,280.38L317.11,280.14L316.96,279.66L316.67,279.20L316.25,278.78L315.71,278.41"/><path style="stroke:#000000;stroke-width:0.353" d="M321.85,342.45L321.85,329.01"/><path style="stroke:#000000;stroke-width:0.353" d="M321.85,289.48L324.27,288.08L324.30,304.33"/><path style="stroke:#000000;stroke-width:0.353" d="M321.85,249.95L324.27,248.55L324.96,248.27L325.77,248.14L326.40,248.16L327.01,248.27L327.69,248.55L327.69,264.78L327.01,265.06L326.41,265.17L325.78,265.18L324.96,265.06L324.27,264.78L321.85,263.38"/><path style="stroke:#000000;stroke-width:0.353" d="M324.27,354.51L324.77,354.73L325.15,354.84L325.98,354.92L326.81,354.84L327.19,354.73L327.69,354.51L327.69,500.00"/><path style="stroke:#000000;stroke-width:0.353" d="M324.27,343.86L324.27,327.62"/><path style="stroke:#000000;stroke-width:0.353" d="M324.27,288.08L324.96,287.80L325.56,287.70L326.19,287.68L327.00,287.80L327.69,288.08L330.11,289.48"/><path style="stroke:#000000;stroke-width:0.353" d="M324.27,264.78L324.27,248.55"/><path style="stroke:#000000;stroke-width:0.353" d="M366.05,381.07L366.05,381.63L365.92,382.54L365.72,383.32L365.36,384.42L365.36,332.77L327.69,354.51"/><path style="stroke:#000000;stroke-width:0.353" d="M327.69,343.85L330.14,342.45L330.11,329.01L327.69,327.62"/><path style="stroke:#000000;stroke-width:0.353" d="M327.69,304.31L327.69,288.08"/><path style="stroke:#000000;stroke-width:0.353" d="M327.69,264.78L330.14,263.38L330.11,249.95L327.69,248.55"/><path style="stroke:#000000;stroke-width:0.353" d="M330.14,342.45L331.95,341.97L332.80,341.67L333.61,341.34L335.06,340.57L336.29,339.66L336.80,339.17L337.64,338.11L340.31,336.53L340.60,336.21L340.71,335.98L340.75,335.73L340.66,335.37L340.31,334.93L337.62,333.35L337.24,332.81L336.80,332.30L336.28,331.80L335.06,330.90L334.35,330.49L332.79,329.78L331.93,329.49L330.11,329.01"/><path style="stroke:#000000;stroke-width:0.353" d="M330.14,263.38L332.16,262.83L333.61,262.27L334.37,261.90L335.70,261.06L336.29,260.59L336.80,260.10L337.24,259.58L337.62,259.05L337.62,254.28L337.24,253.74L336.80,253.23L336.29,252.74L335.06,251.83L333.92,251.21L332.79,250.72L331.93,250.42L330.11,249.95"/><path style="stroke:#000000;stroke-width:0.353" d="M341.05,318.34L341.05,327.43L334.74,323.78L334.40,323.47L334.21,323.13L334.18,322.76L334.26,322.52L334.40,322.29L334.74,321.99L341.05,318.34L341.43,318.02L341.61,317.64L341.55,317.26L341.35,316.99L341.16,316.83L335.97,313.81L335.49,313.42L335.13,312.97L335.00,312.74L334.85,312.26L334.85,311.77L335.00,311.29L335.48,310.61L336.25,310.04L336.25,313.99"/><path style="stroke:#000000;stroke-width:0.353" d="M334.88,323.87L334.88,321.90"/><path style="stroke:#000000;stroke-width:0.353" d="M336.25,278.41L335.48,278.99L335.13,279.43L334.91,279.90L334.85,280.14L334.85,280.63L335.00,281.11L335.13,281.35L335.49,281.79L335.98,282.19L341.06,285.13L341.05,275.64L336.25,278.41L336.25,282.36"/><path style="stroke:#000000;stroke-width:0.353" d="M334.88,270.50L334.40,270.10L334.21,269.76L334.18,269.51L334.21,269.27L334.32,269.03L334.50,268.81L334.84,268.55L334.88,268.55L334.88,270.50L341.26,274.21L341.55,274.56L341.61,274.95L341.43,275.32L341.05,275.64"/><path style="stroke:#000000;stroke-width:0.353" d="M341.06,285.13L348.59,289.48L348.58,260.62L334.88,268.55"/><path style="stroke:#000000;stroke-width:0.353" d="M336.25,310.04L349.96,302.12L349.95,332.17L350.92,332.14L351.33,332.05L351.87,331.85L357.82,328.42L358.32,328.20L358.91,328.06L359.95,328.03L360.36,328.09L360.92,328.26L364.33,330.20L364.33,304.90L363.62,305.16L362.96,305.22L362.30,305.16L361.59,304.90L361.61,328.63"/><path style="stroke:#000000;stroke-width:0.353" d="M337.64,338.11L337.62,333.35"/><path style="stroke:#000000;stroke-width:0.353" d="M337.60,298.62L340.04,297.18L340.04,295.21L337.62,293.81"/><path style="stroke:#000000;stroke-width:0.353" d="M337.62,259.05L340.04,257.65L340.04,255.68L337.62,254.28"/><path style="stroke:#000000;stroke-width:0.353" d="M340.04,336.72L340.04,334.74"/><path style="stroke:#000000;stroke-width:0.353" d="M340.04,295.21L340.52,295.61L340.71,295.96L340.75,296.20L340.71,296.44L340.60,296.68L340.31,297.00L340.04,297.18"/><path style="stroke:#000000;stroke-width:0.353" d="M340.04,255.68L340.52,256.07L340.66,256.30L340.75,256.66L340.71,256.91L340.52,257.25L340.04,257.65"/><path style="stroke:#000000;stroke-width:0.353" d="M341.05,327.43L348.58,331.78L349.27,332.06L349.95,332.17"/><path style="stroke:#000000;stroke-width:0.353" d="M341.61,317.55L341.61,327.76"/><path style="stroke:#000000;stroke-width:0.353" d="M341.61,274.85L341.61,285.46"/><path style="stroke:#000000;stroke-width:0.353" d="M348.59,289.48L349.95,290.27L350.59,290.58L351.33,290.82L352.00,290.97L352.00,260.62L351.50,260.39L351.12,260.29L350.29,260.21L349.46,260.29L348.90,260.46L348.58,260.62"/><path style="stroke:#000000;stroke-width:0.353" d="M349.96,302.12L350.95,301.68L351.72,301.48L352.53,301.35L353.79,301.32L355.12,301.50L355.79,301.68L356.48,301.96L361.59,304.90"/><path style="stroke:#000000;stroke-width:0.353" d="M352.00,290.97L353.37,291.09L354.21,291.04L355.03,290.92L355.79,290.71L356.48,290.43L357.82,289.68L357.82,284.45L357.82,263.98L352.00,260.62"/><path style="stroke:#000000;stroke-width:0.353" d="M356.80,329.01L356.80,302.13"/><path style="stroke:#000000;stroke-width:0.353" d="M357.82,263.98L358.32,264.20L358.71,264.30L359.53,264.39L360.36,264.30L360.75,264.20L361.25,263.98L361.25,287.70L357.82,289.68"/><path style="stroke:#000000;stroke-width:0.353" d="M361.25,287.70L361.85,287.37L362.30,287.24L362.96,287.17L363.46,287.21L364.20,287.44L366.06,288.50"/><path style="stroke:#000000;stroke-width:0.353" d="M361.25,263.98L365.36,261.61L365.36,288.09"/><path style="stroke:#000000;stroke-width:0.353" d="M364.33,397.53L364.08,396.76L363.84,395.60L363.69,394.36L363.64,393.06L363.69,391.72L363.84,390.30L364.08,388.86L364.32,387.77L364.33,397.57L364.84,398.83L365.36,399.72L365.36,500.00"/><path style="stroke:#000000;stroke-width:0.353" d="M366.06,500.00L366.06,401.06L366.03,400.75L365.36,399.72"/><path style="stroke:#000000;stroke-width:0.353" d="M365.36,384.42L364.84,385.90L364.32,387.77"/><path style="stroke:#000000;stroke-width:0.353" d="M365.36,332.77L365.72,332.49L365.97,332.16L366.06,331.78L365.98,331.42L365.74,331.08L365.50,330.88L364.33,330.20"/><path style="stroke:#000000;stroke-width:0.353" d="M364.33,304.90L370.49,301.34L370.49,500.00"/><path style="stroke:#000000;stroke-width:0.353" d="M365.36,261.61L365.72,261.33L365.92,261.10L366.03,260.86L366.06,260.62"/><path style="stroke:#000000;stroke-width:0.353" d="M366.06,381.42L366.06,366.55L366.34,364.29L366.38,363.01L366.06,362.84L366.06,366.55"/><path style="stroke:#000000;stroke-width:0.353" d="M366.38,363.01L366.34,361.78L366.21,360.61L366.06,359.85L366.06,362.84"/><path style="stroke:#000000;stroke-width:0.353" d="M366.06,359.85L366.06,331.78"/><path style="stroke:#000000;stroke-width:0.353" d="M370.49,301.34L370.81,301.18L371.38,301.01L371.99,300.93L372.62,300.95L373.59,301.18L374.56,301.71L387.61,309.24L387.61,311.22L387.97,310.95L388.17,310.71L388.28,310.48L388.32,310.23L388.28,309.99L388.17,309.75L387.88,309.43L387.61,309.24"/><path style="stroke:#000000;stroke-width:0.353" d="M373.91,500.00L373.91,301.34"/><path style="stroke:#000000;stroke-width:0.353" d="M379.70,296.08L379.77,295.84L379.92,295.61L380.40,295.21L380.41,297.19L380.13,297.00L379.84,296.68L379.70,296.32L379.70,296.08"/><path style="stroke:#000000;stroke-width:0.353" d="M381.08,500.00L381.08,384.76L381.14,385.27L381.26,385.67L381.45,386.01L381.71,386.27L385.90,388.71L386.28,388.82L386.63,388.83L387.00,388.74L387.35,388.57L387.84,388.22L388.58,387.37L388.84,386.93L389.32,385.89L389.32,500.00"/><path style="stroke:#000000;stroke-width:0.353" d="M381.08,384.76L381.14,383.89L381.36,382.85L382.30,380.05L382.73,378.56L383.07,377.10L383.31,375.66L383.45,374.25L383.50,372.90L383.45,371.59L383.31,370.36L383.07,369.20L382.73,368.11L382.30,367.12L381.08,365.10L381.20,365.09L381.60,365.31L381.48,365.23"/><path style="stroke:#000000;stroke-width:0.353" d="M381.53,365.25L381.60,365.31L381.32,365.14"/><path style="stroke:#000000;stroke-width:0.353" d="M381.60,365.31L381.63,365.33L381.28,365.13"/><path style="stroke:#000000;stroke-width:0.353" d="M386.33,368.02L386.15,367.92L386.61,368.21L381.79,365.42L381.79,316.56L381.40,316.27L381.23,316.05L381.12,315.81L381.08,315.57L381.08,365.10"/><path style="stroke:#000000;stroke-width:0.353" d="M387.61,311.22L381.63,314.69L381.23,315.09L381.12,315.33L381.08,315.57"/><path style="stroke:#000000;stroke-width:0.353" d="M380.41,297.19L382.82,298.59L383.20,299.12L383.64,299.64L384.16,300.13L385.40,301.04L386.84,301.81L387.67,302.15L388.53,302.45L390.32,302.92L390.32,289.48L388.51,289.95L387.65,290.25L386.09,290.96L384.74,291.80L384.15,292.27L383.64,292.76L382.82,293.81L380.40,295.21"/><path style="stroke:#000000;stroke-width:0.353" d="M381.09,286.92L387.61,283.16L387.99,282.86L388.17,282.64L388.28,282.41L388.32,282.16L388.28,281.92L388.17,281.69L387.75,281.26L381.65,277.73L381.23,277.31L381.12,277.07L381.08,276.83"/><path style="stroke:#000000;stroke-width:0.353" d="M381.79,500.00L381.79,386.32"/><path style="stroke:#000000;stroke-width:0.353" d="M381.79,366.23L381.79,366.17"/><path style="stroke:#000000;stroke-width:0.353" d="M382.69,365.94L381.63,365.33L381.79,365.42L381.68,365.34"/><path style="stroke:#000000;stroke-width:0.353" d="M382.31,365.72L382.36,365.72"/><path style="stroke:#000000;stroke-width:0.353" d="M381.79,316.56L385.90,318.93L386.40,319.15L386.98,319.29L387.82,319.33L388.63,319.21L389.32,318.93L389.32,370.58L388.88,370.01L388.27,369.41L387.35,368.69L386.61,368.21"/><path style="stroke:#000000;stroke-width:0.353" d="M382.82,298.59L382.82,293.81"/><path style="stroke:#000000;stroke-width:0.353" d="M381.79,286.51L381.79,277.81"/><path style="stroke:#000000;stroke-width:0.353" d="M385.16,367.37L385.98,367.82L385.90,367.77L385.90,318.93"/><path style="stroke:#000000;stroke-width:0.353" d="M385.90,500.00L385.90,388.71"/><path style="stroke:#000000;stroke-width:0.353" d="M386.24,367.97L385.41,367.49L386.15,367.92L385.98,367.82"/><path style="stroke:#000000;stroke-width:0.353" d="M386.42,368.09L385.41,367.49L385.90,367.77"/><path style="stroke:#000000;stroke-width:0.353" d="M386.06,367.86L385.41,367.49"/><path style="stroke:#000000;stroke-width:0.353" d="M387.61,283.16L387.61,281.18"/><path style="stroke:#000000;stroke-width:0.353" d="M389.32,385.89L389.84,384.40L390.26,382.91L390.60,381.45L390.84,380.01L390.99,378.60L391.03,377.25L390.99,375.94L390.84,374.71L390.60,373.54L390.26,372.46L389.84,371.47L389.32,370.58"/><path style="stroke:#000000;stroke-width:0.353" d="M389.32,318.93L426.98,297.19L426.98,500.00"/><path style="stroke:#000000;stroke-width:0.353" d="M390.32,302.92L392.74,304.31L392.74,288.08L390.32,289.48"/><path style="stroke:#000000;stroke-width:0.353" d="M392.74,304.31L393.43,304.59L394.46,304.72L395.48,304.59L396.17,304.31L396.17,288.08L395.48,287.80L394.46,287.67L393.43,287.80L392.74,288.08"/><path style="stroke:#000000;stroke-width:0.353" d="M396.17,304.31L398.59,302.92L398.59,289.48L396.17,288.08"/><path style="stroke:#000000;stroke-width:0.353" d="M398.59,302.92L400.41,302.44L401.26,302.15L402.83,301.44L403.53,301.03L404.76,300.13L405.28,299.63L405.72,299.12L406.09,298.59L406.09,293.81L408.51,295.21L408.51,297.19L406.09,298.59"/><path style="stroke:#000000;stroke-width:0.353" d="M398.59,289.48L400.41,289.95L401.26,290.25L402.07,290.59L403.53,291.37L404.76,292.27L405.28,292.76L405.72,293.29L406.09,293.81"/><path style="stroke:#000000;stroke-width:0.353" d="M408.51,297.19L408.78,297.00L409.08,296.68L409.18,296.44L409.22,296.20L409.14,295.84L408.99,295.61L408.51,295.21"/><path style="stroke:#000000;stroke-width:0.353" d="M426.98,297.19L427.37,296.90L427.55,296.68L427.65,296.44L427.69,296.20"/><path style="stroke:#000000;stroke-width:0.353" d="M224.27,500.00L224.27,296.20L224.35,295.84L224.60,295.50L224.98,295.21L262.64,273.47L263.14,273.24L263.93,273.08L264.98,273.10L265.57,273.24L265.91,273.38L270.32,275.93L270.56,276.13L270.80,276.46L270.88,276.83L270.88,286.92L278.37,291.22L279.15,291.42L279.97,291.46L280.79,291.34L281.47,291.06L285.90,288.50L285.90,260.62L285.98,260.26L286.13,260.03L286.61,259.63L324.27,237.88L324.77,237.66L325.15,237.56L325.98,237.48L326.81,237.56L327.19,237.66L327.69,237.88L365.36,259.63L365.84,260.03L365.98,260.26L366.06,260.62L366.06,288.50L370.49,291.06L371.18,291.34L371.99,291.46L372.83,291.42L373.59,291.22L381.08,286.92L381.08,276.83L381.16,276.46L381.40,276.13L381.79,275.84L386.05,273.38L386.40,273.24L386.98,273.10L388.03,273.08L388.82,273.24L389.32,273.47L426.98,295.21L427.37,295.50L427.61,295.84L427.69,296.20L427.69,500.00"/><g id="paperID" visibility="hidden" opacity="0.00" transform="scale(0.000100)"><path style="stroke:#000000;stroke-width:0.500;fill:#e6e6e6;fill-rule:evenodd" d="M-2000.00,-2000.00L2500.00,-2000.00L2500.00,2500.00L-2000.00,2500.00zM0.00,0.00L500.00,0.00L500.00,500.00L0.00,500.00z"/><path style="fill:#000000;fill-opacity:0.118" d="M3.00,500.00L500.00,500.00L500.00,3.00L503.00,3.00L503.00,503.00L3.00,503.00z"/></g></g></svg>
