<?xml version="1.0" encoding="UTF-8" standalone="no"?>
<svg
   width="430.70303mm"
   height="396.65302mm"
   viewBox="0 0 430.70303 396.65302"
   stroke-linejoin="round"
   stroke-linecap="round"
   fill="none"
   fill-rule="evenodd"
   version="1.1"
   id="svg990"
   sodipodi:docname="blind_joint_prepare_horizontal_extrusions_1.svg"
   xmlns:inkscape="http://www.inkscape.org/namespaces/inkscape"
   xmlns:sodipodi="http://sodipodi.sourceforge.net/DTD/sodipodi-0.dtd"
   xmlns="http://www.w3.org/2000/svg"
   xmlns:svg="http://www.w3.org/2000/svg">
  <sodipodi:namedview
     id="namedview992"
     pagecolor="#ffffff"
     bordercolor="#000000"
     borderopacity="0.25"
     inkscape:showpageshadow="2"
     inkscape:pageopacity="0.0"
     inkscape:pagecheckerboard="0"
     inkscape:deskcolor="#d1d1d1"
     inkscape:document-units="mm"
     showgrid="false" />
  <desc
     id="desc563">Composer Export</desc>
  <script
     type="text/ecmascript"
     id="script565"><![CDATA[
if(typeof(top) != "undefined")
{
	top.ShowPaper = ShowPaper;
}
function ShowPaper()
{
  var svgDocument = getDocument();
  var paper = svgDocument.getElementById("paperID");
  if(paper)
  {
    paper.setAttribute("transform","scale(1)");
    paper.setAttribute("opacity","1");
    paper.setAttribute("visibility","visible");
  }
  var svg = svgDocument.getRootElement();
  if(svg)
  {
    svg.setAttribute("width","510.000mm");
    svg.setAttribute("height","510.000mm");
    svg.setAttribute("viewBox","-5.000000 -5.000000 510.000000 510.000000");
  }
}
]]></script>
  <defs
     id="defs567" />
  <g
     id="g988"
     transform="translate(-69.473496,0.17649999)">
    <path
       style="fill:#97fa98"
       d="m 161.4,272.75 5.94,3.18 3.61,3.13 3.18,4.76 1.52,3.64 0.64,3.01 v 7.17 l -0.73,3.32 -1.88,2.49 -3.7,1.85 -1.61,1.17 -2.1,1.16 -1.03,0.06 -0.07,0.23 -0.48,0.54 -0.28,0.03 -0.47,0.61 -2.01,0.9 -0.54,-0.35 -0.26,0.58 -1.29,1.2 -2.96,1.41 -2.25,1.72 -1.76,0.52 -0.41,-0.29 -0.49,1.01 -4.04,2.38 -3.09,1.75 -1.03,0.06 -0.08,0.25 -1.92,1.73 -2.4,0.78 -1,0.99 -2.96,1.4 -1,0.98 -2.96,1.41 -1.62,1.16 -2.09,1.16 -1.04,0.06 -0.07,0.25 -0.57,0.73 -3.98,2.06 -0.23,0.14 0.33,1.13 0.09,1.09 0.23,1.61 v 6.73 l -0.22,1.59 -0.4,2 -0.74,2.52 -2.42,3.93 -3.19,2.76 -3.91,2.04 -2.52,0.57 -6.76,-0.23 -5.31,-1.12 -5.14,-2.01 -5.11,-2.82 -3.18,-2.38 -4.37,-3.96 -3.56,-4.77 -2.84,-5.11 -1.99,-5.54 -0.33,-1.75 -0.04,-1.04 -0.18,-0.12 -0.18,-0.84 -0.05,-1.02 -0.18,-0.14 -0.17,-1.98 v -7.17 l 0.41,-2.76 1.11,-5.32 3.19,-7.13 3.22,-3.53 5.37,-2.95 1.48,-0.2 4.35,-0.24 1.61,0.23 3.82,1.02 3.98,1.97 4.98,3.47 0.19,0.56 0.49,0.12 3.19,-1.19 1.46,-0.14 -0.72,-0.56 2.18,-1.46 2.15,-1.02 1.82,-1.35 2.39,-1.19 3.92,-1.98 0.3,-0.12 2.28,0.11 -2.28,-0.11 0.5,-0.7 1.98,-1.18 1.08,-0.22 3.48,-0.17 -2.76,-0.52 2.18,-1.47 1.04,-0.22 1.51,-0.16 -0.65,-0.25 1.42,-1.23 3.23,-1.53 1.8,-1.37 2.17,-0.9 1.96,0.12 -1.58,-0.53 2.32,-1.36 1.32,-0.33 2.71,-0.17 -2.28,-0.19 1.45,-1.28 2.11,-0.74 1.46,-0.13 -0.65,-0.56 0.44,-0.42 3.82,-2.07 1.8,-1.36 1.09,-0.2 0.78,-0.32 0.02,-0.3 1.96,-0.99 2.4,-0.24 z"
       id="path571" />
    <path
       style="fill:#000020"
       d="m 191.92,249.5 0.41,-10.9 v 21.23 z"
       id="path573" />
    <path
       style="fill:#000020"
       d="m 154.37,273.83 -0.78,0.32 0.8,-0.62 z"
       id="path575" />
    <path
       style="fill:#000020"
       d="m 146.28,275.69 0.41,-12.09 0.19,14.18 -0.44,0.42 z"
       id="path577" />
    <path
       style="fill:#000020"
       d="m 147.09,278.76 -1.46,0.13 0.81,-0.69 z"
       id="path579" />
    <path
       style="fill:#000020"
       d="m 141.64,281.27 0.43,-0.36 2.28,0.19 z"
       id="path581" />
    <path
       style="fill:#000020"
       d="m 139.58,283.49 -1.96,-0.12 0.38,-0.41 z"
       id="path583" />
    <path
       style="fill:#000020"
       d="m 128.14,288.81 0.86,-0.41 0.65,0.25 z"
       id="path585" />
    <path
       style="fill:#000020"
       d="m 127.68,291.02 -3.48,0.17 0.72,-0.69 z"
       id="path587" />
    <path
       style="fill:#000020"
       d="m 176.29,297.64 v -7.17 l 0.16,0.15 z"
       id="path589" />
    <path
       style="fill:#000020"
       d="m 108.6,300.97 -1.46,0.14 0.74,-0.7 z"
       id="path591" />
    <path
       style="fill:#000020"
       d="m 103.27,301.62 0.57,-36.04 0.11,36.72 -0.49,-0.12 z"
       id="path593" />
    <path
       style="fill:#000020"
       d="m 165.17,307.92 0.07,-0.23 1.03,-0.06 z"
       id="path595" />
    <path
       style="fill:#000020"
       d="m 164.68,308.76 -0.74,0.34 0.47,-0.61 0.28,-0.03 z"
       id="path597" />
    <path
       style="fill:#000020"
       d="m 161.93,310 -0.8,0.23 0.26,-0.58 z"
       id="path599" />
    <path
       style="fill:#000020"
       d="m 152.87,315.08 -0.9,0.72 0.49,-1.01 z"
       id="path601" />
    <path
       style="fill:#000020"
       d="m 143.73,320.24 0.08,-0.25 1.03,-0.06 z"
       id="path603" />
    <path
       style="fill:#000020"
       d="m 70.15,327.37 -0.23,-1.16 0.18,0.14 z"
       id="path605" />
    <path
       style="fill:#000020"
       d="m 70.55,329.37 -0.22,-1.16 0.18,0.12 z"
       id="path607" />
    <path
       style="fill:#000020"
       d="m 126.67,330.16 0.07,-0.25 1.04,-0.06 z"
       id="path609" />
    <path
       style="fill:#000020"
       d="m 122.48,333.87 -0.26,0.35 -0.33,-1.13 0.23,-0.14 z"
       id="path611" />
    <path
       style="fill:#000020"
       d="m 122.54,336.92 -0.23,-1.61 0.17,0.14 z"
       id="path613" />
    <path
       style="fill:#000020"
       d="m 191.92,351.48 0.41,-11.29 v 21.63 z"
       id="path615" />
    <path
       style="stroke:#000000;stroke-width:0.353"
       d="m 113.27,271.79 27.81,-16.05 1.65,0.97 0.74,0.58 0.7,0.7 1.21,1.68 0.73,1.56 -32.84,18.96 v -8.4 l -0.08,-0.68 -0.21,-0.72 -0.48,-0.93 -0.64,-0.8 -0.73,-0.57 25.67,-14.82 -1.02,-0.71 -0.51,-0.63 -0.3,-0.56 -0.29,-0.95 -0.02,-1.84 -28.67,16.54 -0.9,-0.29 -0.61,0.15"
       id="path617" />
    <path
       style="stroke:#000000;stroke-width:0.353"
       d="m 500,30.23 -354.22,204.51 -0.73,-0.57 -0.64,-0.8 -0.57,-1.17 -0.19,-0.94 -0.01,-19.98 2.14,-1.24 7.46,4.3 0.72,0.19 0.61,-0.14 0.42,-0.46 0.2,-0.71 0.01,-6.14 -0.08,-0.68 -0.21,-0.72 -0.63,-1.15 -0.67,-0.76 -0.55,-0.4 -47.07,-27.17 -0.9,-0.29 -0.61,0.14"
       id="path619" />
    <path
       style="stroke:#000000;stroke-width:0.353"
       d="m 111.13,268.09 -5.14,-2.97"
       id="path621" />
    <path
       style="stroke:#000000;stroke-width:0.353"
       d="M 105.99,176.2 411.18,0"
       id="path623" />
    <path
       style="stroke:#000000;stroke-width:0.353"
       d="m 125.92,289.97 -10.89,-6.32 -0.69,-0.7 -0.57,-0.88 -0.37,-0.96 -0.13,-0.92"
       id="path625" />
    <path
       style="stroke:#000000;stroke-width:0.353"
       d="m 112.64,238.6 0.43,-0.46 0.19,-0.72 0.01,-8.61 0.07,-0.59 0.31,-0.6 0.53,-0.3 0.67,0.02 0.59,0.26 -2.17,1.21"
       id="path627" />
    <path
       style="stroke:#000000;stroke-width:0.353"
       d="m 113.27,237.21 9.41,-5.43 -7.24,-4.18"
       id="path629" />
    <path
       style="stroke:#000000;stroke-width:0.353"
       d="m 117.41,294.93 -0.78,-0.23 -0.32,0.03 -0.42,0.2 -0.37,0.53 -0.13,0.88"
       id="path631" />
    <path
       style="stroke:#000000;stroke-width:0.353"
       d="m 115.39,296.23 0.97,-0.56"
       id="path633" />
    <path
       style="stroke:#000000;stroke-width:0.353"
       d="m 115.4,283.9 31.24,-18.03 v 10.86 l -10.27,5.93 -0.72,-0.23 -0.49,0.11 -0.27,0.26 -0.21,0.52 -0.02,1.62"
       id="path635" />
    <path
       style="stroke:#000000;stroke-width:0.353"
       d="m 135.1,226.61 -0.13,0.77 -0.26,0.42 -0.24,0.2 -0.28,0.11 -0.5,0.01 -0.73,-0.27 2.14,-1.24 v -3.49 l -5.14,3 -1.67,-0.25 -0.82,-0.24 -1.78,-0.77 -1.76,-1.1 -1.73,-1.4 -1.64,-1.67 -3.21,-1.87 -0.55,-0.45 -0.64,-0.8 -0.48,-0.93 -0.25,-0.96 -0.04,-3.94 -0.62,-2.26 -0.21,-1.11 -0.22,-2.14 v -1.01 l 0.22,-1.9 0.21,-0.87 0.62,-1.53 v -3.5 l 0.13,-0.77 0.37,-0.53 0.42,-0.19 0.49,-0.02 0.73,0.28 -2.14,1.23"
       id="path637" />
    <path
       style="stroke:#000000;stroke-width:0.353"
       d="m 115.39,215.23 17.58,-10.15 -3.01,-1.72 -14.57,8.38"
       id="path639" />
    <path
       style="stroke:#000000;stroke-width:0.353"
       d="m 115.39,200.92 5.17,-2.99 -3.03,-1.74"
       id="path641" />
    <path
       style="stroke:#000000;stroke-width:0.353"
       d="m 120.56,220.69 14.54,-8.4 v -3.49 l -17.57,10.14"
       id="path643" />
    <path
       style="stroke:#000000;stroke-width:0.353"
       d="m 120.56,197.93 1.64,0.23 0.86,0.25 0.87,0.34 1.76,0.93 1.74,1.26 0.86,0.74 1.67,1.68"
       id="path645" />
    <path
       style="stroke:#000000;stroke-width:0.353"
       d="m 123.56,232.29 -0.88,-0.51"
       id="path647" />
    <path
       style="stroke:#000000;stroke-width:0.353"
       d="m 129.96,226.12 3,1.73"
       id="path649" />
    <path
       style="stroke:#000000;stroke-width:0.353"
       d="m 134.59,325.71 0.51,-0.29 -0.13,0.77 -0.16,0.3 -0.34,0.31 -0.61,0.14 -0.77,-0.22"
       id="path651" />
    <path
       style="stroke:#000000;stroke-width:0.353"
       d="m 132.97,205.08 0.89,0.77 0.61,0.84 0.5,1.19 0.13,0.92"
       id="path653" />
    <path
       style="stroke:#000000;stroke-width:0.353"
       d="m 135.1,325.42 v -0.25"
       id="path655" />
    <path
       style="stroke:#000000;stroke-width:0.353"
       d="m 135.16,282.54 11.48,-6.61"
       id="path657" />
    <path
       style="stroke:#000000;stroke-width:0.353"
       d="m 134.66,248.58 v -0.97"
       id="path659" />
    <path
       style="stroke:#000000;stroke-width:0.353"
       d="m 135.1,223.12 0.62,-1.54 0.21,-0.87 0.15,-0.92 0.07,-1.99 -0.22,-2.14 -0.21,-1.11 -0.62,-2.26"
       id="path661" />
    <path
       style="stroke:#000000;stroke-width:0.353"
       d="m 136.37,282.66 1.24,0.72"
       id="path663" />
    <path
       style="stroke:#000000;stroke-width:0.353"
       d="m 136.8,253.27 4.28,2.47"
       id="path665" />
    <path
       style="stroke:#000000;stroke-width:0.353"
       d="m 154.57,351.73 0.43,-0.46 0.23,-0.95 v -5.93 l -0.24,-1.13 -0.42,-0.95 -0.61,-0.85 -0.72,-0.63 -7.83,-4.57 -0.53,-0.5 -0.47,-0.62 -0.57,-1.17 -0.2,-1.16 v -12.62"
       id="path667" />
    <path
       style="stroke:#000000;stroke-width:0.353"
       d="m 143.64,332.81 31.24,-18.03 -9.42,-5.44 -10.23,5.91 -0.2,0.76 -0.34,0.37 11.48,-6.63"
       id="path669" />
    <path
       style="stroke:#000000;stroke-width:0.353"
       d="M 143.64,231.05 500,25.29"
       id="path671" />
    <path
       style="stroke:#000000;stroke-width:0.353"
       d="m 143.64,211.28 0.2,-0.93 0.43,-0.46 0.61,-0.14 0.9,0.29"
       id="path673" />
    <path
       style="stroke:#000000;stroke-width:0.353"
       d="m 145.78,336.51 32.85,-18.96 0.98,1.41 0.85,1.89 0.26,0.96 0.13,0.92 0.02,1.93 -27.81,16.05"
       id="path675" />
    <path
       style="stroke:#000000;stroke-width:0.353"
       d="m 146.11,261.23 0.46,1.76 0.07,2.88"
       id="path677" />
    <path
       style="stroke:#000000;stroke-width:0.353"
       d="m 145.78,234.74 7.85,4.54 0.58,0.51 0.48,0.67 0.34,0.77 0.2,0.9 -0.03,6.97 0.14,1.33 0.43,1.44 0.43,0.95 0.84,1.38 0.97,1.14 0.72,0.64 0.74,0.5 17.12,9.88 0.74,0.35 0.72,0.2 0.68,0.02 0.61,-0.14 0.53,-0.3 0.42,-0.46 0.32,-0.6 0.19,-0.72 0.07,-0.82 -4.28,2.47"
       id="path679" />
    <path
       style="stroke:#000000;stroke-width:0.353"
       d="m 146.64,278.12 v -1.39"
       id="path681" />
    <path
       style="stroke:#000000;stroke-width:0.353"
       d="m 154.69,316.38 -0.35,0.11 -0.56,-0.09 -1.74,-0.98"
       id="path683" />
    <path
       style="stroke:#000000;stroke-width:0.353"
       d="M 153.06,203.37 500,3.06"
       id="path685" />
    <path
       style="stroke:#000000;stroke-width:0.353"
       d="m 155.23,350.32 28.63,-16.52 -1.55,-0.93 -0.71,-0.74 -0.34,-0.54 -0.29,-0.76 -0.1,-1.23 -25.64,14.79"
       id="path687" />
    <path
       style="stroke:#000000;stroke-width:0.353"
       d="m 155.19,313.99 0.04,1.26"
       id="path689" />
    <path
       style="stroke:#000000;stroke-width:0.353"
       d="m 155.2,249.1 29.09,-16.83 -1.66,-0.99 -0.85,-0.9 -0.41,-0.68 -0.3,-0.72 -0.17,-0.71 -0.03,-0.94 -25.64,14.8"
       id="path691" />
    <path
       style="stroke:#000000;stroke-width:0.353"
       d="m 153.48,239.19 27.39,-15.81 v 3.95"
       id="path693" />
    <path
       style="stroke:#000000;stroke-width:0.353"
       d="M 155.2,213.01 500,13.93"
       id="path695" />
    <path
       style="stroke:#000000;stroke-width:0.353"
       d="M 154.57,214.39 500,14.95"
       id="path697" />
    <path
       style="stroke:#000000;stroke-width:0.353"
       d="M 155.2,207.08 500,8"
       id="path699" />
    <path
       style="stroke:#000000;stroke-width:0.353"
       d="m 158.18,272.41 0.03,-1.29 0.1,-0.36 0.26,-0.43 0.27,-0.21 0.41,-0.11 0.51,0.05 0.56,0.23 -2.14,1.24"
       id="path701" />
    <path
       style="stroke:#000000;stroke-width:0.353"
       d="m 160.32,270.29 3.02,1.75 0.37,0.03 -0.48,0.28 -0.04,-0.22 -0.63,1.34"
       id="path703" />
    <path
       style="stroke:#000000;stroke-width:0.353"
       d="m 180.87,263.89 v -7.09 l 0.1,-0.44 0.2,-0.34 0.55,-0.26 0.41,0.04 0.45,0.18 9.84,-5.68 v -10.87 l -0.13,-0.91 -0.3,-0.81 -32.52,18.77"
       id="path705" />
    <path
       style="stroke:#000000;stroke-width:0.353"
       d="m 161.57,273.06 1.62,-0.93"
       id="path707" />
    <path
       style="stroke:#000000;stroke-width:0.353"
       d="m 164.24,308.63 1.22,0.71"
       id="path709" />
    <path
       style="stroke:#000000;stroke-width:0.353"
       d="m 163.23,272.35 -0.54,1.18"
       id="path711" />
    <path
       style="stroke:#000000;stroke-width:0.353"
       d="m 163.52,273.97 0.66,-1.86 -0.47,-0.04"
       id="path713" />
    <path
       style="stroke:#000000;stroke-width:0.353"
       d="m 164.18,272.11 0.81,0.16 1.41,0.46 -0.22,1.2 -0.07,1.52"
       id="path715" />
    <path
       style="stroke:#000000;stroke-width:0.353"
       d="m 166.25,275.53 0.08,-1.64 0.17,-1.12 1,0.47 -0.08,1.55 0.06,1.49"
       id="path717" />
    <path
       style="stroke:#000000;stroke-width:0.353"
       d="m 166.4,272.73 0.1,0.04"
       id="path719" />
    <path
       style="stroke:#000000;stroke-width:0.353"
       d="m 170.4,278.79 0.74,-0.43 -0.61,-3.05 -1.18,-0.93 -1.85,-1.14"
       id="path721" />
    <path
       style="stroke:#000000;stroke-width:0.353"
       d="m 171.14,278.36 0.07,-0.28 -0.5,-2.61 -0.18,-0.16"
       id="path723" />
    <path
       style="stroke:#000000;stroke-width:0.353"
       d="m 171.21,278.08 1.17,-0.68 0.04,0.22 0.3,-0.17 3.02,1.75 -3.4,1.96"
       id="path725" />
    <path
       style="stroke:#000000;stroke-width:0.353"
       d="m 172.72,277.45 -2.01,-1.98"
       id="path727" />
    <path
       style="stroke:#000000;stroke-width:0.353"
       d="m 172.38,277.4 -0.1,-0.42"
       id="path729" />
    <path
       style="stroke:#000000;stroke-width:0.353"
       d="m 174.88,314.78 2.45,1.49 1.3,1.28"
       id="path731" />
    <path
       style="stroke:#000000;stroke-width:0.353"
       d="m 174.98,301.51 1.13,0.62 0.36,0.09 0.5,-0.01 0.29,-0.11 0.33,-0.31 0.22,-0.48 0.07,-0.6 -2.14,1.24"
       id="path733" />
    <path
       style="stroke:#000000;stroke-width:0.353"
       d="m 175.56,287.74 0.29,-0.17 0.25,0.1 1.14,1.3 1.56,1.45 -0.29,-1.76 -0.63,-2.26 v -3.5 l -3.4,1.97"
       id="path735" />
    <path
       style="stroke:#000000;stroke-width:0.353"
       d="m 176.23,297.29 0.85,0.15 -0.93,0.54"
       id="path737" />
    <path
       style="stroke:#000000;stroke-width:0.353"
       d="m 178.6,295.29 -1.37,-0.58 -0.92,-0.53"
       id="path739" />
    <path
       style="stroke:#000000;stroke-width:0.353"
       d="m 176.31,294.35 1.33,0.72 0.93,0.36 -0.34,1.06 -0.35,0.73 v 3.49"
       id="path741" />
    <path
       style="stroke:#000000;stroke-width:0.353"
       d="m 178.57,295.43 0.24,-1.2 -0.98,-0.51 -1.52,-1.02"
       id="path743" />
    <path
       style="stroke:#000000;stroke-width:0.353"
       d="m 176.1,287.67 1.17,-0.67 1.15,1.29"
       id="path745" />
    <path
       style="stroke:#000000;stroke-width:0.353"
       d="m 178.81,294.23 0.12,-1.31 -0.1,-2.3 -1.4,-1.27 -1.58,-1.78"
       id="path747" />
    <path
       style="stroke:#000000;stroke-width:0.353"
       d="m 175.74,279.2 0.75,0.58 0.77,1.02 0.49,1.18 0.13,0.92"
       id="path749" />
    <path
       style="stroke:#000000;stroke-width:0.353"
       d="m 177.88,297.22 -0.55,0.32 -0.25,-0.1"
       id="path751" />
    <path
       style="stroke:#000000;stroke-width:0.353"
       d="m 177.88,286.4 -0.76,0.44 0.15,0.16"
       id="path753" />
    <path
       style="stroke:#000000;stroke-width:0.353"
       d="m 178.83,290.62 -0.03,-0.2"
       id="path755" />
    <path
       style="stroke:#000000;stroke-width:0.353"
       d="m 192.42,361.01 -2.14,1.19 0.73,0.28 0.64,-0.06 0.48,-0.38 0.21,-0.47 0.08,-0.64 v -8.36 L 183,358 l -0.9,-0.29 -0.61,0.14"
       id="path757" />
    <path
       style="stroke:#000000;stroke-width:0.353"
       d="m 180.87,324.66 v 4.94"
       id="path759" />
    <path
       style="stroke:#000000;stroke-width:0.353"
       d="m 181.37,255.87 11.05,-6.37"
       id="path761" />
    <path
       style="stroke:#000000;stroke-width:0.353"
       d="m 180.87,223.38 0.07,-2.08 0.21,-0.47 0.34,-0.32 0.61,-0.14 0.9,0.29 317,-183.02"
       id="path763" />
    <path
       style="stroke:#000000;stroke-width:0.353"
       d="M 181.49,220.51 500,36.62"
       id="path765" />
    <path
       style="stroke:#000000;stroke-width:0.353"
       d="m 183,358 7.28,4.2"
       id="path767" />
    <path
       style="stroke:#000000;stroke-width:0.353"
       d="m 184.75,334.31 -0.89,-0.51"
       id="path769" />
    <path
       style="stroke:#000000;stroke-width:0.353"
       d="m 182.58,255.98 8.07,4.63 0.7,0.11 0.57,-0.22 0.37,-0.53 0.13,-0.77 -2.14,1.23"
       id="path771" />
    <path
       style="stroke:#000000;stroke-width:0.353"
       d="m 183,220.66 47.25,27.29 0.89,0.83 0.57,0.88 0.37,0.96 0.13,0.92 L 500,96.93"
       id="path773" />
    <path
       style="stroke:#000000;stroke-width:0.353"
       d="m 191.99,237.71 -0.64,-1.03 -0.89,-0.83 -6.17,-3.58"
       id="path775" />
    <path
       style="stroke:#000000;stroke-width:0.353"
       d="m 500,163.62 -296.46,171.16 -0.55,-0.4 -0.68,-0.75 -0.52,-0.91 -0.31,-0.96 -0.08,-0.68 v -9.07 l -0.15,-0.71 -0.35,-0.8 -0.49,-0.68 -0.57,-0.51 -6.14,-3.55 -1.11,-0.8 -0.7,-0.7 -0.94,-1.24 -0.53,-0.91 -0.6,-1.44 -0.25,-0.95 -0.15,-1.37 v -19.76 l 0.07,-0.82 0.19,-0.72 0.32,-0.6 0.42,-0.46 0.53,-0.3 0.61,-0.14 0.68,0.02 0.72,0.2 0.74,0.35 -4.28,2.47"
       id="path777" />
    <path
       style="stroke:#000000;stroke-width:0.353"
       d="m 189.42,308.35 32.52,-18.77 -0.55,-0.66 -0.73,-0.57 -9.47,-5.41 -9.79,5.65 -0.06,0.48 -0.17,0.38 -0.5,0.34 -0.39,0.01 -0.44,-0.14 -6.14,-3.54"
       id="path779" />
    <path
       style="stroke:#000000;stroke-width:0.353"
       d="M 192.42,352.57 V 351.6"
       id="path781" />
    <path
       style="stroke:#000000;stroke-width:0.353"
       d="m 192.42,259.2 v -8.9"
       id="path783" />
    <path
       style="stroke:#000000;stroke-width:0.353"
       d="m 193.7,315.76 29.09,-16.79 v -7.14 l -0.27,-1.14 -0.58,-1.11"
       id="path785" />
    <path
       style="stroke:#000000;stroke-width:0.353"
       d="m 200.96,363.44 17.57,-10.14 0.73,0.57 0.78,1.03 0.5,1.19 0.13,0.92 -17.57,10.14 -0.73,-0.57 -0.5,-0.59 -0.41,-0.67 -0.37,-0.96 -0.13,-0.92 v -3.49 l -0.6,-2.17 -0.23,-1.2 -0.15,-1.09 -0.07,-2.06 0.22,-1.9 0.23,-0.93 0.6,-1.47 v -3.5 l 2.16,-1.23 -0.75,-0.28 -0.49,0.02 -0.29,0.11 -0.24,0.19 -0.26,0.42 -0.13,0.77"
       id="path787" />
    <path
       style="stroke:#000000;stroke-width:0.353"
       d="m 199.69,319.22 25.67,-14.82 3.43,1.98 -27.39,15.81"
       id="path789" />
    <path
       style="stroke:#000000;stroke-width:0.353"
       d="m 220.67,272.56 -5.17,2.94 3.03,1.75 2.14,-1.24 v -3.45 l 0.62,-1.58 0.21,-0.86 0.21,-1.9 -0.07,-2.07 -0.14,-1.08 -0.21,-1.11 -0.61,-2.23 -0.01,-3.53 -17.57,10.14 -0.55,-0.4 -0.52,-0.55 -0.68,-1.11 -0.35,-1.19 -0.04,-3.95 -0.62,-2.26 -0.21,-1.11 -0.17,-1.45 -0.05,-1.7 0.22,-1.9 0.23,-0.93 0.6,-1.47 v -3.49 l 0.13,-0.77 0.37,-0.53 0.41,-0.2 0.5,-0.01 0.75,0.28 -2.16,1.23"
       id="path791" />
    <path
       style="stroke:#000000;stroke-width:0.353"
       d="m 200.96,359.95 14.54,-8.39 3.03,1.74"
       id="path793" />
    <path
       style="stroke:#000000;stroke-width:0.353"
       d="m 200.96,349.13 5.17,-2.99 -3.01,-1.74"
       id="path795" />
    <path
       style="stroke:#000000;stroke-width:0.353"
       d="M 201.4,331.08 500,158.68"
       id="path797" />
    <path
       style="stroke:#000000;stroke-width:0.353"
       d="m 200.9,289.7 11.05,-6.38"
       id="path799" />
    <path
       style="stroke:#000000;stroke-width:0.353"
       d="m 201.4,288.59 0.03,-9.3 0.26,-0.66 0.48,-0.38 0.64,-0.06 0.76,0.29 -2.17,1.22"
       id="path801" />
    <path
       style="stroke:#000000;stroke-width:0.353"
       d="m 200.96,264.64 17.59,-10.13 -3.05,-1.76 -14.54,8.39"
       id="path803" />
    <path
       style="stroke:#000000;stroke-width:0.353"
       d="m 200.96,250.32 5.17,-2.98 0.81,0.07 0.83,0.16 1.62,0.54 1.88,0.99 0.86,0.58 1.52,1.22 1.85,1.85"
       id="path805" />
    <path
       style="stroke:#000000;stroke-width:0.353"
       d="m 203.1,367.15 3.03,1.75 1.64,1.67 0.86,0.74 0.87,0.66 1.69,1.06 1.81,0.8 0.86,0.25 1.64,0.23 5.17,-2.98 0.34,-0.74 0.28,-0.8 0.35,-1.79 0.07,-1.99 -0.21,-2.14 -0.49,-2.23 -0.34,-1.14 -14.54,8.4"
       id="path807" />
    <path
       style="stroke:#000000;stroke-width:0.353"
       d="m 203.54,334.78 17.12,9.88 2.13,-1.23 -0.2,0.93 -0.42,0.45 -0.61,0.14 -0.53,-0.11 -0.37,-0.18"
       id="path809" />
    <path
       style="stroke:#000000;stroke-width:0.353"
       d="m 203.57,278.48 7.62,4.46"
       id="path811" />
    <path
       style="stroke:#000000;stroke-width:0.353"
       d="m 203.1,268.34 3.03,1.75 14.55,-8.36"
       id="path813" />
    <path
       style="stroke:#000000;stroke-width:0.353"
       d="m 206.13,247.34 -3.01,-1.74"
       id="path815" />
    <path
       style="stroke:#000000;stroke-width:0.353"
       d="m 206.13,346.14 1.64,0.23 0.86,0.25 0.87,0.34 1.69,0.9 1.81,1.29 0.86,0.73 1.64,1.68"
       id="path817" />
    <path
       style="stroke:#000000;stroke-width:0.353"
       d="m 215.5,275.5 -1.64,-0.23 -0.86,-0.25 -1.75,-0.76 -1.75,-1.1 -0.87,-0.66 -0.86,-0.74 -1.64,-1.67"
       id="path819" />
    <path
       style="stroke:#000000;stroke-width:0.353"
       d="m 215.5,374.31 3.03,1.75 2.14,-1.24 -0.13,0.77 -0.16,0.3 -0.34,0.32 -0.44,0.13 -0.34,-0.01 -0.73,-0.27"
       id="path821" />
    <path
       style="stroke:#000000;stroke-width:0.353"
       d="m 218.53,277.25 0.73,0.27 0.34,0.02 0.44,-0.14 0.34,-0.32 0.16,-0.3 0.13,-0.77"
       id="path823" />
    <path
       style="stroke:#000000;stroke-width:0.353"
       d="m 220.67,258.2 -0.13,-0.92 -0.5,-1.19 -0.61,-0.84 -0.88,-0.74"
       id="path825" />
    <path
       style="stroke:#000000;stroke-width:0.353"
       d="m 220.67,374.82 v -3.49"
       id="path827" />
    <path
       style="stroke:#000000;stroke-width:0.353"
       d="m 220.67,360.5 v -3.49"
       id="path829" />
    <path
       style="stroke:#000000;stroke-width:0.353"
       d="m 222.79,343.43 0.01,-8.61 0.19,-0.72 0.43,-0.45 0.61,-0.15 0.72,0.2 5.69,3.31 0.7,0.7 0.57,0.88 0.37,0.96 0.13,0.91 L 500,185.85"
       id="path831" />
    <path
       style="stroke:#000000;stroke-width:0.353"
       d="M 223.42,333.65 500,173.96"
       id="path833" />
    <path
       style="stroke:#000000;stroke-width:0.353"
       d="m 225.36,304.4 -0.8,-0.5 -0.53,-0.5 -0.47,-0.62 -0.38,-0.69 -0.35,-1.19 -0.04,-1.93"
       id="path835" />
    <path
       style="stroke:#000000;stroke-width:0.353"
       d="M 224.93,333.8 500,174.99"
       id="path837" />
    <path
       style="stroke:#000000;stroke-width:0.353"
       d="m 228.79,306.38 1.46,0.84 0.37,0.13 0.52,0.06 0.44,-0.14 0.34,-0.32 0.21,-0.47 0.07,-0.39 0.01,-54.55"
       id="path839" />
    <path
       style="stroke:#000000;stroke-width:0.353"
       d="M 230.07,336.76 500,180.91"
       id="path841" />
    <path
       style="stroke:#000000;stroke-width:0.353"
       d="M 230.07,247.83 500,91.99"
       id="path843" />
    <path
       style="stroke:#000000;stroke-width:0.353"
       d="m 231.58,396.19 0.43,-0.45 0.2,-0.93 v -54.35"
       id="path845" />
    <path
       style="stroke:#000000;stroke-width:0.353"
       d="M 232.21,394.81 500,240.2"
       id="path847" />
    <path
       style="stroke:#000000;stroke-width:0.353"
       d="M 231.58,307.27 500,152.3"
       id="path849" />
    <path
       style="stroke:#000000;stroke-width:0.353"
       d="M 232.21,305.88 500,151.27"
       id="path851" />
    <path
       style="stroke:#000000;stroke-width:0.353"
       d="m 409.41,0 -305.17,176.24 -0.26,0.42 -0.12,0.56 -0.01,5.09 v 49.47 l 0.08,0.68 0.31,0.96 0.68,1.12 0.89,0.83 5.5,3.18 0.37,0.13 0.52,0.05 0.44,-0.13 10.92,-6.31 8.96,5.17 0.55,0.4 0.68,0.75 0.62,1.15 0.28,1.18 0.01,6.61 -30.18,17.43 -0.43,0.45 -0.2,0.93 v 35.93"
       id="path853" />
    <path
       style="stroke:#000000;stroke-width:0.353"
       d="m 500,241.22 -268.71,155.08 -0.67,-0.02 -0.55,-0.24 -47.07,-27.17 -0.55,-0.4 -0.67,-0.75 -0.63,-1.15 -0.28,-1.18 v -6.36 l 0.07,-0.39 0.21,-0.47 0.34,-0.32 10.93,-6.3 v -10.34 l -0.08,-0.69 -0.31,-0.95 -0.68,-1.12 -0.89,-0.83 -5.71,-3.31 -30.18,17.42 -0.61,0.14 -0.9,-0.29 -31.12,-17.96"
       id="path855" />
    <path
       style="stroke:#000000;stroke-width:0.353"
       d="m 72.05,332.67 0.43,1.45 0.52,1.44 0.6,1.44 0.41,0.85 0.27,0.57 0.76,1.39 0.82,1.35 0.89,1.3 0.95,1.24 0.99,1.17 1.03,1.09 1.07,1.01 1.09,0.91 1.11,0.81 1.12,0.7 1.12,0.59 1.11,0.47 1.1,0.35 1.06,0.23 1.04,0.1 0.71,-0.01 0.28,-0.01 0.95,-0.15 0.88,-0.27 0.83,-0.4 0.76,-0.52 0.68,-0.63 0.6,-0.74 0.52,-0.85 0.42,-0.95 0.34,-1.04 0.24,-1.12 0.15,-1.2 0.05,-1.26 -0.05,-1.32 -0.14,-1.31 -0.25,-1.46 -0.34,-1.43 -0.5,-1.66 -0.44,-1.22 -0.6,-1.44 -0.68,-1.42 -0.76,-1.39 -0.83,-1.35 -0.89,-1.3 -0.94,-1.24 -0.45,-0.53 -0.54,-0.64 -1.04,-1.09 -1.07,-1.01 -0.79,-0.66 -0.3,-0.25 -1.11,-0.81 -1.12,-0.7 -1.12,-0.59 -1.11,-0.47 -1.09,-0.36 -1.07,-0.22 -1.03,-0.11 -1.07,0.04 -0.87,0.14 -0.89,0.27 -0.82,0.4 -0.76,0.52 -0.68,0.63 -0.6,0.74 -0.52,0.85 -0.43,0.95 -0.33,1.03 -0.25,1.13 -0.14,1.19 -0.05,1.27 0.05,1.32 0.14,1.36 0.25,1.41 0.33,1.42"
       id="path857" />
    <path
       style="stroke:#000000;stroke-width:0.353"
       d="m 75.81,335.94 -0.25,-0.61 0.54,-1.71 0.39,-1.52 0.14,-0.71 0.16,-1.07 0.08,-0.86 0.01,-0.6 -0.01,-0.58 -0.05,-0.56 -0.08,-0.56 -0.11,-0.54 -0.14,-0.54 -0.17,-0.54 -0.22,-0.53 -0.54,-1.09 0.46,-0.57 0.52,-0.48 0.59,-0.4 0.63,-0.31 0.69,-0.21 0.72,-0.11 0.77,-0.02 0.79,0.08 0.83,0.17 0.84,0.27 0.85,0.37 0.86,0.45 -0.5,-0.22 -0.58,-0.14 -0.33,-0.04 -0.35,-0.02 -0.76,0.01 -0.6,0.04 -0.78,0.1 -1.09,0.19 -1.26,0.27 -2.3,0.57 -0.4,0.66 -0.33,0.73 -0.26,0.8 -0.19,0.86 -0.11,0.92 -0.04,0.97 0.04,1.02 0.11,1.05 0.19,1.08 0.26,1.1 0.33,1.11 0.4,1.11 9.88,-5.7 8.47,10.53 -0.02,0.18 -9.78,5.64 -0.86,-0.54 -0.85,-0.63 -0.84,-0.7 -0.83,-0.77 -0.79,-0.84 -0.77,-0.9 -0.72,-0.96 -0.69,-1 -0.63,-1.04 -0.59,-1.07 -0.52,-1.09 -0.21,-0.5"
       id="path859" />
    <path
       style="stroke:#000000;stroke-width:0.353"
       d="m 75.56,335.33 1.59,0.99 0.71,0.49 0.65,0.5 0.61,0.5 0.57,0.5 0.52,0.51 0.49,0.53 0.46,0.54 0.43,0.56 0.39,0.58 0.37,0.6 0.35,0.63 0.33,0.67 0.3,0.69 0.28,0.74 0.5,1.62 1.6,-0.41 1.36,-0.31 1.17,-0.23 1.48,-0.2 0.82,-0.04 h 0.37 l 0.67,0.06 0.59,0.14 0.5,0.22 -0.46,0.58 -0.53,0.48 -0.58,0.4 -0.64,0.31 -0.21,0.06 -0.47,0.15 -0.73,0.11 -0.76,0.02 -0.8,-0.08 -0.82,-0.17 -0.84,-0.27 -0.86,-0.37 -0.86,-0.45"
       id="path861" />
    <path
       style="stroke:#000000;stroke-width:0.353"
       d="m 78.87,297.77 1.57,-0.75 1.69,-0.52 1.79,-0.29 1.89,-0.04 1.96,0.19 2.03,0.44 2.08,0.66 2.11,0.9 2.13,1.12 2.12,1.33 2.11,1.54 1.07,0.9 1.01,0.83 2.03,1.91 1.96,2.08 1.89,2.22 1.8,2.37 1.68,2.46 1.57,2.57 1.44,2.63 1.29,2.7 1.14,2.73 0.99,2.75 0.81,2.74 0.64,2.71 0.46,2.67 0.28,2.59 0.09,2.51 -0.09,2.4 -0.28,2.28 -0.46,2.13 -0.64,1.97 -0.82,1.81 -0.98,1.6 -1.14,1.41 -1.29,1.21 -1.44,0.98"
       id="path863" />
    <path
       style="stroke:#000000;stroke-width:0.353"
       d="m 84.11,323.16 0.86,0.54 0.47,0.34 v 5.59"
       id="path865" />
    <path
       style="stroke:#000000;stroke-width:0.353"
       d="m 85.44,324.04 0.39,0.28 0.84,0.71 0.82,0.77 0.86,0.91 0.71,0.84 0.72,0.94 0.68,1.01 0.64,1.04 0.58,1.07 0.53,1.09 0.46,1.1 0.4,1.12 0.33,1.11 0.26,1.1 0.18,1.08 0.12,1.05 0.03,1.01 -0.03,0.98 -0.1,0.76 -0.2,1.02 -0.26,0.8 -0.33,0.73 -0.4,0.65 0.55,-1.71 0.21,-0.78 0.32,-1.45 0.14,-0.93"
       id="path867" />
    <path
       style="stroke:#000000;stroke-width:0.353"
       d="m 93.16,356.14 -0.14,-0.06"
       id="path869" />
    <path
       style="stroke:#000000;stroke-width:0.353"
       d="m 93.18,350.43 -0.82,0.26"
       id="path871" />
    <path
       style="stroke:#000000;stroke-width:0.353"
       d="m 93.91,340.16 0.06,-0.64"
       id="path873" />
    <path
       style="stroke:#000000;stroke-width:0.353"
       d="m 104.2,302.57 0.34,0.29 1.19,1.12 0.67,0.13 0.8,0.2 0.81,0.27 0.81,0.33 0.82,0.38 0.81,0.45 0.82,0.5 0.81,0.56 0.8,0.61 0.78,0.65 0.78,0.71 0.76,0.74 0.74,0.78 0.71,0.82 0.7,0.85 0.66,0.87 0.64,0.9 0.6,0.92 0.57,0.94 0.53,0.96 0.59,1.16 0.36,0.77 0.4,0.98 0.36,0.97 0.31,0.97 0.27,0.97 0.22,0.95 0.17,0.94 0.13,0.92 0.09,0.9 0.03,0.87 -0.01,0.85 -0.05,0.81 -0.1,0.77 -0.21,0.94 -0.14,0.49 -0.24,0.65 -0.28,0.59 -0.34,0.54 -0.12,0.16 -0.64,-2.73 -0.82,-2.74 -0.98,-2.75 -0.12,-0.29 -0.17,-0.9 -0.19,-0.76 -0.22,-0.77 -0.26,-0.78 -0.3,-0.78 -0.33,-0.78 -0.37,-0.77 -0.41,-0.77 -0.43,-0.77 -0.47,-0.74 -0.49,-0.74 -0.52,-0.72 -0.55,-0.7 -0.56,-0.68 -0.59,-0.65 -0.43,-0.45 -0.72,-1.05 -1.8,-2.36 -1.88,-2.22 -1.97,-2.08 -0.84,-0.79"
       id="path875" />
    <path
       style="stroke:#000000;stroke-width:0.353"
       d="m 106.42,359.11 -0.24,-0.02"
       id="path877" />
    <path
       style="stroke:#000000;stroke-width:0.353"
       d="m 122.39,332.42 0.43,-0.66 0.28,-0.55 0.24,-0.63 0.21,-0.69 0.15,-0.73 0.11,-0.76 0.07,-0.81 0.02,-0.84 -0.03,-0.87 -0.14,-1.34 v -0.88 l -0.05,-0.7 -0.09,-0.72 -0.13,-0.74 -0.16,-0.76 -0.2,-0.77 -0.24,-0.77 -0.27,-0.79 -0.31,-0.78 -0.34,-0.79 -0.37,-0.78 -0.4,-0.77 -0.44,-0.76 -0.46,-0.75 -0.49,-0.73 -0.52,-0.72 -0.55,-0.69 -0.57,-0.67 -0.59,-0.64 -0.61,-0.61 -0.62,-0.58 -0.64,-0.54 -0.65,-0.52 -0.66,-0.47 -1,-0.64 -0.54,-0.42 -0.81,-0.57 -0.81,-0.51 -0.81,-0.45 -0.82,-0.4 -0.82,-0.34 -0.81,-0.27 -0.8,-0.22 -0.79,-0.16 -0.78,-0.1 -0.35,-0.02"
       id="path879" />
    <path
       style="stroke:#000000;stroke-width:0.353"
       d="m 124.52,331.66 0.48,-0.34 0.45,-0.39 0.41,-0.45 0.37,-0.5 0.33,-0.55 0.29,-0.6 0.25,-0.64 0.19,-0.69 0.15,-0.73 0.1,-0.77 0.05,-1.09 v -0.57 l -0.05,-0.88 -0.1,-0.9 -0.15,-0.93 -0.2,-0.94 -0.24,-0.96 -0.28,-0.98 -0.33,-0.98 -0.37,-0.98 -0.41,-0.98 -0.45,-0.97 -0.49,-0.97 -0.53,-0.96 -0.57,-0.93 -0.6,-0.92 -0.64,-0.89 -0.67,-0.86 -0.69,-0.84 -0.73,-0.8 -0.74,-0.76 -0.77,-0.73 -0.78,-0.69 -0.8,-0.64 -0.8,-0.6 -0.82,-0.55 -0.82,-0.5 -0.82,-0.44 -0.82,-0.39 -0.81,-0.33 -0.81,-0.27 -0.79,-0.21 -0.78,-0.14 -0.77,-0.07 -0.75,-0.02 -0.73,0.06 -0.7,0.11 -0.68,0.17 -0.65,0.24 -0.62,0.29"
       id="path881" />
    <path
       style="stroke:#000000;stroke-width:0.353"
       d="m 107.21,301.2 0.3,-0.08 0.71,-0.1 0.73,-0.04 0.76,0.02 0.76,0.09 0.79,0.15 0.8,0.22 0.81,0.28 0.81,0.34 0.82,0.4 0.82,0.45 0.82,0.51 0.81,0.56 0.53,0.4 0.39,0.22 0.67,0.42 0.65,0.46 0.65,0.5 0.64,0.54 0.62,0.57 0.61,0.61 0.59,0.64 0.56,0.66 0.55,0.7 0.52,0.71 0.5,0.74 0.48,0.75 0.44,0.77 0.42,0.77 0.38,0.78 0.36,0.78 0.32,0.79 0.28,0.78 0.25,0.77 0.21,0.77 0.17,0.75 0.1,0.61 0.11,0.85 0.05,0.7 v 0.87 l -0.07,-0.47 -0.19,-0.94 -0.23,-0.96 -0.28,-0.97 -0.32,-0.98 -0.36,-0.98 -0.4,-0.98 -0.45,-0.98 -0.48,-0.96 -0.52,-0.96 -0.56,-0.94 -0.6,-0.92 -0.63,-0.9 -0.67,-0.87 -0.69,-0.83 -0.72,-0.81 -0.74,-0.77 -0.76,-0.74 -0.78,-0.69 -1.07,-0.86"
       id="path883" />
    <path
       style="stroke:#000000;stroke-width:0.353"
       d="m 128.54,329.4 0.44,-0.27 0.41,-0.31 0.44,-0.41 0.39,-0.47 0.35,-0.52 0.32,-0.57 0.27,-0.62 0.23,-0.66 0.18,-0.71 0.14,-0.74 0.1,-0.78 0.05,-0.82 v -0.85 l -0.05,-0.87 -0.1,-0.9 -0.15,-0.92 -0.2,-0.94 -0.25,-0.96 -0.29,-0.97 -0.35,-0.97 -0.38,-0.98 -0.43,-0.99 -0.44,-0.9 -0.54,-1.04 -0.54,-0.96 -0.58,-0.93 -0.61,-0.93 -0.64,-0.89 -0.67,-0.87 -0.69,-0.83 -0.73,-0.8 -0.74,-0.76 -0.76,-0.72 -0.78,-0.67 -0.8,-0.63 -0.8,-0.58 -0.82,-0.52 -0.82,-0.48 -0.82,-0.43 -0.82,-0.37 -0.82,-0.31 -0.72,-0.23 -0.89,-0.23 -0.79,-0.14 -0.76,-0.08 -0.75,-0.01 -0.73,0.05 -0.7,0.11 -0.79,0.23 -0.52,0.2 -0.61,0.31"
       id="path885" />
    <path
       style="stroke:#000000;stroke-width:0.353"
       d="m 111.46,298.69 0.17,-0.05 0.71,-0.1 0.74,-0.04 0.74,0.03 0.77,0.09 0.79,0.15 0.8,0.21 0.81,0.27 0.82,0.32 0.82,0.39 0.83,0.43 0.81,0.49 0.82,0.53 0.67,0.49 0.92,0.56 0.65,0.46 0.65,0.5 0.64,0.54 0.62,0.58 0.62,0.61 0.59,0.63 0.58,0.67 0.55,0.68 0.54,0.71 0.57,0.82 0.88,1.41 0.42,0.77 0.39,0.77 0.36,0.78 0.32,0.78 0.28,0.78 0.24,0.77 0.21,0.77 0.17,0.76 0.13,0.74 0.1,0.7 0.06,0.74 0.02,0.8 -0.07,-0.44 -0.19,-0.94 -0.24,-0.95 -0.29,-0.97 -0.33,-0.98 -0.38,-0.97 -0.48,-1.11 -0.41,-0.85 -0.5,-0.97 -0.53,-0.96 -0.58,-0.94 -0.56,-0.86 -0.68,-0.97 -0.66,-0.87 -0.69,-0.84 -0.93,-1.03 -0.53,-0.54 -0.75,-0.73 -0.78,-0.68 -0.93,-0.73"
       id="path889" />
    <path
       style="stroke:#000000;stroke-width:0.353"
       d="m 112.94,312.48 0.97,1.42 1.57,2.56 1.43,2.64 1.3,2.7 1.02,2.44"
       id="path891" />
    <path
       style="stroke:#000000;stroke-width:0.353"
       d="m 113.37,306.97 1.04,0.86 0.77,0.71 0.76,0.75 0.73,0.79 0.72,0.82 0.69,0.86 0.66,0.88 0.63,0.9 0.6,0.93 0.56,0.94 0.52,0.96 0.48,0.94 0.45,0.99 0.4,0.98 0.35,0.97 0.3,0.97 0.26,0.96 0.21,0.96 0.17,0.93 0.06,0.47"
       id="path893" />
    <path
       style="stroke:#000000;stroke-width:0.353"
       d="m 132.79,326.9 0.5,-0.29 0.48,-0.35 0.43,-0.41 0.4,-0.46 0.35,-0.52 0.3,-0.57 0.26,-0.63 0.22,-0.67 0.16,-0.72 0.12,-0.76 0.08,-0.8 0.03,-0.83 -0.02,-0.86 -0.06,-0.89 -0.11,-0.91 -0.15,-0.93 -0.21,-0.95 -0.34,-1.27 -0.2,-0.65 -0.34,-0.98 -0.38,-0.97 -0.44,-0.97 -0.47,-0.97 -0.52,-0.96 -0.55,-0.95 -0.59,-0.93 -0.62,-0.9 -0.66,-0.89 -0.68,-0.87 -0.71,-0.83 -0.73,-0.79 -0.75,-0.76 -0.77,-0.72 -0.78,-0.68 -0.78,-0.62 -0.82,-0.59 -0.81,-0.52 -0.81,-0.47 -0.82,-0.41 -0.82,-0.35 -0.81,-0.29 -0.8,-0.23 -0.8,-0.18 -0.78,-0.11 -0.76,-0.06 -0.75,0.01 -0.73,0.06 -0.7,0.12 -0.67,0.18 -0.65,0.25 -0.61,0.3"
       id="path895" />
    <path
       style="stroke:#000000;stroke-width:0.353"
       d="m 113.84,296.94 -0.12,0.07"
       id="path897" />
    <path
       style="stroke:#000000;stroke-width:0.353"
       d="m 126.19,299.54 0.6,0.48 0.78,0.69 0.77,0.73 0.74,0.76 0.73,0.81 0.7,0.83 0.68,0.87 0.65,0.89 0.61,0.92 0.59,0.93 0.55,0.95 0.51,0.96 0.46,0.97 0.43,0.97 0.38,0.97 0.33,0.98 0.28,0.96 0.24,0.96 0.2,0.95 0.15,0.97 v -0.55 l -0.03,-0.7 -0.07,-0.71 -0.11,-0.73 -0.15,-0.75 -0.19,-0.77 -0.22,-0.77 -0.26,-0.78 -0.29,-0.79 -0.33,-0.78 -0.35,-0.79 -0.39,-0.77 -0.42,-0.77 -0.46,-0.75 -0.48,-0.74 -0.51,-0.72 -0.54,-0.7 -0.56,-0.68 -0.52,-0.59 -0.66,-0.68 -0.62,-0.6 -0.63,-0.56 -0.65,-0.53 -0.65,-0.49 -0.66,-0.46 -0.63,-0.39 -0.99,-0.74 -0.81,-0.53 -0.82,-0.48 -0.82,-0.42 -0.81,-0.36 -0.81,-0.3 -0.81,-0.25 -0.8,-0.18 -0.78,-0.13 -0.77,-0.07 h -0.75 l -0.73,0.05 -0.75,0.12"
       id="path899" />
    <path
       style="stroke:#000000;stroke-width:0.353"
       d="m 117.31,294.99 0.6,-0.33 0.64,-0.26 0.66,-0.21 0.7,-0.15 0.71,-0.09 0.74,-0.03 0.75,0.04 0.63,0.08 0.93,0.19 0.8,0.23 0.81,0.29 0.82,0.36 0.82,0.41 0.82,0.47 0.82,0.52 0.81,0.57 0.8,0.62 0.79,0.66 0.77,0.71 0.77,0.74 0.73,0.78 0.71,0.82 0.69,0.84 0.66,0.88 0.62,0.9 0.59,0.92 0.55,0.95 0.51,0.96 0.48,0.97 0.43,0.97 0.4,0.99 0.35,0.98 0.31,0.98 0.26,0.96 0.22,0.96 0.18,0.94 0.13,0.91 0.08,0.9 0.03,0.86 -0.02,0.84 -0.07,0.79 -0.12,0.76 -0.17,0.71 -0.21,0.67 -0.27,0.63 -0.3,0.57 -0.35,0.53 -0.39,0.48 -0.42,0.43 -0.47,0.37 -0.49,0.31"
       id="path901" />
    <path
       style="stroke:#000000;stroke-width:0.353"
       d="m 130.32,296.99 0.6,0.47 0.79,0.67 0.77,0.71 0.76,0.75 0.73,0.79 0.76,0.89 0.63,0.79 0.65,0.88 0.62,0.9 0.58,0.93 0.55,0.94 0.5,0.97 0.47,0.97 0.43,0.98 0.38,0.98 0.35,0.98 0.24,0.77 0.32,1.17 0.21,0.95 0.18,1.04 0.01,-0.61 -0.04,-0.69 -0.07,-0.71 -0.11,-0.73 -0.15,-0.75 -0.2,-0.76 -0.23,-0.77 -0.27,-0.78 -0.3,-0.78 -0.34,-0.79 -0.37,-0.78 -0.41,-0.78 -0.43,-0.77 -0.46,-0.75 -0.49,-0.75 -0.51,-0.72 -0.54,-0.7 -0.37,-0.46 -0.77,-0.87 -0.6,-0.62 -0.61,-0.59 -0.64,-0.55 -0.64,-0.51 -0.65,-0.48 -0.67,-0.44 -0.66,-0.39 -1.01,-0.74 -0.82,-0.53 -0.82,-0.47 -0.82,-0.43 -0.81,-0.36 -0.81,-0.31 -0.8,-0.24 -0.79,-0.17 -0.78,-0.12 -0.76,-0.04 -0.74,0.01 -0.72,0.08 -0.59,0.12"
       id="path903" />
    <path
       style="stroke:#000000;stroke-width:0.353"
       d="m 121.79,332.75 0.05,0.28"
       id="path905" />
    <path
       style="stroke:#000000;stroke-width:0.353"
       d="m 121.47,292.56 0.59,-0.35 0.63,-0.28 0.65,-0.22 0.68,-0.16 0.71,-0.08 0.74,-0.03 0.76,0.05 0.77,0.1 0.79,0.16 0.81,0.23 0.81,0.28 0.82,0.34 0.82,0.39 0.82,0.45 0.82,0.5 0.81,0.55 0.81,0.6 0.79,0.64 0.77,0.69 0.76,0.74 0.73,0.77 0.71,0.82 0.69,0.85 0.65,0.88 0.63,0.9 0.6,0.93 0.56,0.95 0.53,0.96 0.42,0.83 0.52,1.12 0.41,0.98 0.37,0.98 0.33,0.97 0.28,0.97 0.23,0.95 0.18,0.94 0.12,0.91 0.08,0.89 0.03,0.86 -0.02,0.83 -0.07,0.81 -0.11,0.76 -0.16,0.73 -0.21,0.69 -0.24,0.64 -0.3,0.6 -0.32,0.55 -0.38,0.5 -0.41,0.44 -0.45,0.39 -0.41,0.28"
       id="path907" />
    <path
       style="stroke:#000000;stroke-width:0.353"
       d="m 122.16,292.16 0.03,-0.02"
       id="path909" />
    <path
       style="stroke:#000000;stroke-width:0.353"
       d="m 124.3,291.28 0.46,-0.1 0.71,-0.08 0.74,-0.01 0.76,0.05 0.78,0.12 0.8,0.18 0.8,0.23 0.82,0.29 0.82,0.35 0.82,0.41 0.82,0.46 0.82,0.5 1.11,0.79 0.57,0.33 0.66,0.44 0.65,0.47 0.64,0.52 0.63,0.55 0.62,0.59 0.61,0.62 0.59,0.65 0.57,0.68 0.54,0.69 0.53,0.72 0.5,0.74 0.47,0.75 0.44,0.76 0.41,0.77 0.38,0.78 0.34,0.77 0.31,0.78 0.26,0.78 0.23,0.77 0.19,0.76 0.16,0.76 0.12,0.73 0.07,0.73 0.05,0.7 v 0.46 l -0.17,-0.93 -0.22,-0.94 -0.33,-1.17 -0.26,-0.78 -0.36,-0.98 -0.4,-0.98 -0.43,-0.94 -0.5,-1.01 -0.52,-0.97 -0.56,-0.95 -0.59,-0.93 -0.62,-0.91 -0.65,-0.88 -0.68,-0.86 -0.71,-0.82 -0.73,-0.78 -0.75,-0.74 -0.77,-0.7 -0.79,-0.65 -0.5,-0.38"
       id="path911" />
    <path
       style="stroke:#000000;stroke-width:0.353"
       d="m 126.26,289.77 0.07,-0.05"
       id="path913" />
    <path
       style="stroke:#000000;stroke-width:0.353"
       d="m 145.92,319.33 0.49,-0.33 0.45,-0.38 0.41,-0.44 0.37,-0.49 0.32,-0.56 0.28,-0.6 0.23,-0.65 0.19,-0.71 0.14,-0.74 0.1,-0.78 0.05,-0.82 v -0.85 l -0.04,-0.88 -0.09,-0.9 -0.14,-0.92 -0.18,-0.94 -0.23,-0.95 -0.27,-0.97 -0.32,-0.97 -0.37,-0.98 -0.42,-0.97 -0.45,-0.97 -0.51,-0.96 -0.53,-0.96 -0.58,-0.93 -0.61,-0.92 -0.64,-0.9 -0.67,-0.87 -0.7,-0.85 -0.72,-0.81 -0.74,-0.78 -0.76,-0.73 -0.78,-0.7 -0.78,-0.65 -0.81,-0.6 -0.8,-0.54 -0.82,-0.49 -0.81,-0.43 -0.82,-0.37 -0.81,-0.32 -0.81,-0.26 -0.8,-0.2 -0.79,-0.14 -0.77,-0.08 -0.76,-0.02 -0.74,0.03 -0.71,0.1 -0.68,0.16 -0.66,0.21 -0.63,0.28 -0.59,0.34"
       id="path915" />
    <path
       style="stroke:#000000;stroke-width:0.353"
       d="m 128,321.91 0.07,0.46 0.09,0.9 0.04,0.87 v 0.84 l -0.06,0.78 -0.11,0.79 -0.16,0.72 -0.2,0.68 -0.26,0.64 -0.29,0.59 -0.34,0.54 -0.17,0.23"
       id="path917" />
    <path
       style="stroke:#000000;stroke-width:0.353"
       d="m 128.58,288.84 0.33,-0.07 0.71,-0.08 0.74,-0.03 0.76,0.04 0.78,0.09 0.79,0.15 0.8,0.21 0.81,0.27 0.67,0.27 0.96,0.44 0.82,0.44 0.81,0.5 0.81,0.55 0.69,0.53 0.87,0.55 0.66,0.47 0.65,0.51 0.64,0.55 0.62,0.57 0.62,0.61 0.59,0.64 0.57,0.66 0.56,0.69 0.52,0.71 0.5,0.72 0.47,0.75 0.44,0.76 0.41,0.77 0.38,0.78 0.34,0.78 0.31,0.79 0.28,0.78 0.24,0.78 0.21,0.77 0.17,0.76 0.13,0.74 0.09,0.73 0.06,0.7 0.01,0.95 0.13,1.24 0.03,0.87 -0.01,0.85 -0.06,0.8 -0.1,0.78 -0.15,0.74 -0.19,0.69 -0.24,0.65 -0.29,0.59 -0.33,0.55 -0.13,0.16"
       id="path919" />
    <path
       style="stroke:#000000;stroke-width:0.353"
       d="m 132.27,319.23 0.07,0.48 0.09,0.9 0.04,0.86 -0.01,0.85 -0.05,0.81 -0.11,0.77 -0.15,0.74 -0.19,0.7 -0.24,0.65 -0.28,0.61 -0.32,0.57 -0.19,0.27"
       id="path921" />
    <path
       style="stroke:#000000;stroke-width:0.353"
       d="m 130.39,287.43 0.62,-0.3 0.65,-0.24 0.67,-0.18 0.71,-0.12 0.72,-0.06 h 0.75 l 0.76,0.06 0.78,0.12 0.79,0.2 0.81,0.25 0.81,0.32 0.82,0.38 0.81,0.43 0.82,0.49 0.82,0.55 0.87,0.64 0.73,0.59 0.79,0.68 0.77,0.72 0.74,0.76 0.73,0.8 0.71,0.83 0.67,0.86 0.64,0.88 0.62,0.91 0.51,0.83 0.6,1.05 0.49,0.97 0.46,0.97 0.42,0.98 0.37,0.98 0.34,0.98 0.37,1.29 0.16,0.65 0.21,0.95 0.15,0.93 0.11,0.91 0.06,0.88 0.01,0.85 -0.04,0.82 -0.08,0.78 -0.14,0.74 -0.19,0.7 -0.24,0.65 -0.28,0.61 -0.32,0.55 -0.37,0.51 -0.4,0.45 -0.45,0.41 -0.47,0.34"
       id="path923" />
    <path
       style="stroke:#000000;stroke-width:0.353"
       d="m 132.88,286.38 0.89,-0.16 0.74,-0.05 0.74,0.01 0.58,0.06 0.97,0.15 0.79,0.2 0.81,0.27 0.81,0.33 0.82,0.39 0.82,0.44 0.82,0.5 0.81,0.55 0.72,0.54 0.89,0.54 0.67,0.46 0.64,0.49 0.64,0.53 0.63,0.56 0.61,0.6 0.59,0.64 0.57,0.66 0.55,0.68 0.53,0.72 0.5,0.73 0.48,0.75 0.45,0.76 0.42,0.77 0.39,0.78 0.36,0.79 0.32,0.78 0.29,0.78 0.26,0.78 0.21,0.77 0.18,0.76 0.14,0.74 0.09,0.72 0.06,0.7 v 1.03 l 0.14,1.16 0.05,0.88 0.01,0.85 -0.05,0.81 -0.1,0.78 -0.14,0.74 -0.2,0.68 -0.24,0.64 -0.29,0.6 -0.33,0.54 -0.24,0.32"
       id="path925" />
    <path
       style="stroke:#000000;stroke-width:0.353"
       d="m 136.57,317.09 0.09,0.86 0.06,0.88 0.01,0.84 -0.04,0.84 -0.08,0.8 -0.13,0.75 -0.18,0.71 -0.22,0.67 -0.27,0.61 -0.31,0.57 -0.27,0.38"
       id="path927" />
    <path
       style="stroke:#000000;stroke-width:0.353"
       d="m 154.26,314.54 0.41,-0.25 0.46,-0.36 0.43,-0.42 0.39,-0.48 0.35,-0.53 0.3,-0.57 0.27,-0.63 0.22,-0.67 0.18,-0.71 0.14,-0.75 0.09,-0.79 0.04,-0.82 -0.01,-0.85 -0.06,-0.88 -0.11,-0.9 -0.16,-0.93 -0.21,-0.94 -0.26,-0.97 -0.3,-0.97 -0.36,-0.98 -0.39,-0.98 -0.43,-0.98 -0.48,-0.97 -0.51,-0.97 -0.55,-0.95 -0.58,-0.94 -0.61,-0.91 -0.65,-0.89 -0.67,-0.87 -0.7,-0.82 -0.73,-0.79 -0.74,-0.76 -0.77,-0.7 -0.79,-0.67 -0.8,-0.61 -0.45,-0.33 -0.35,-0.25 -0.82,-0.52 -0.82,-0.47 -0.83,-0.41 -0.82,-0.37 -0.81,-0.3 -0.81,-0.25 -0.8,-0.19 -0.78,-0.13 -0.76,-0.07 h -0.75 l -0.69,0.06 -0.72,0.13 -0.67,0.19 -0.63,0.26 -0.61,0.32"
       id="path929" />
    <path
       style="stroke:#000000;stroke-width:0.353"
       d="m 137.14,283.86 0.75,-0.13 0.72,-0.05 0.75,0.01 0.77,0.08 0.78,0.14 0.8,0.2 0.81,0.26 0.82,0.32 0.82,0.37 0.82,0.43 0.82,0.48 0.82,0.53 0.79,0.57 0.83,0.5 0.66,0.45 0.64,0.49 0.64,0.53 0.63,0.57 0.61,0.6 0.6,0.64 0.58,0.66 0.56,0.68 0.54,0.71 0.51,0.73 0.49,0.74 0.53,0.89 0.36,0.63 0.4,0.77 0.36,0.78 0.33,0.78 0.36,1 0.18,0.55 0.21,0.77 0.18,0.76 0.14,0.74 0.1,0.73 0.06,0.72 0.03,0.9 -0.1,-0.57 -0.2,-0.95 -0.25,-0.96 -0.3,-0.97 -0.34,-0.97 -0.39,-0.98 -0.42,-0.99 -0.47,-0.97 -0.51,-0.97 -0.54,-0.96 -0.57,-0.94 -0.61,-0.92 -0.45,-0.63 -0.86,-1.13 -0.69,-0.83 -0.72,-0.8 -0.75,-0.75 -0.76,-0.72 -0.79,-0.67 -0.81,-0.64"
       id="path931" />
    <path
       style="stroke:#000000;stroke-width:0.353"
       d="m 137.63,324.09 0.03,-0.02"
       id="path933" />
    <path
       style="stroke:#000000;stroke-width:0.353"
       d="m 138.69,282.58 0.6,-0.31 0.64,-0.26 0.67,-0.19 0.7,-0.13 0.72,-0.07 0.75,-0.01 0.76,0.04 0.78,0.11 0.79,0.17 0.81,0.22 0.81,0.29 0.81,0.34 0.82,0.39 0.82,0.46 0.65,0.41 0.96,0.67 0.8,0.61 0.78,0.67 0.77,0.71 0.76,0.76 0.73,0.79 0.71,0.83 0.68,0.85 0.66,0.89 0.63,0.91 0.6,0.92 0.56,0.95 0.52,0.96 0.48,0.97 0.45,0.97 0.39,0.97 0.35,0.98 0.31,0.96 0.25,0.96 0.21,0.95 0.16,0.93 0.12,0.92 0.07,0.89 0.02,0.86 -0.02,0.84 -0.07,0.8 -0.12,0.77 -0.16,0.72 -0.2,0.69 -0.26,0.63 -0.31,0.62 -0.32,0.5 -0.39,0.47 -0.42,0.42 -0.47,0.36 -0.5,0.3"
       id="path935" />
    <path
       style="stroke:#000000;stroke-width:0.353"
       d="m 140.84,314.52 0.1,0.81 0.08,0.89 0.02,0.86 -0.03,0.9 -0.07,0.72 -0.13,0.75 -0.18,0.7 -0.22,0.67 -0.27,0.61 -0.11,0.2 -0.21,0.38 -0.37,0.53"
       id="path937" />
    <path
       style="stroke:#000000;stroke-width:0.353"
       d="m 139.06,292.15 0.89,0.74 0.78,0.7 0.75,0.74 0.74,0.79 0.72,0.82 0.69,0.85 0.66,0.87 0.64,0.91 0.6,0.92 0.57,0.94 0.53,0.96 0.51,0.98 0.44,0.95 0.41,0.98 0.36,0.97 0.31,0.97 0.27,0.96 0.22,0.96 0.17,0.93 0.08,0.58"
       id="path939" />
    <path
       style="stroke:#000000;stroke-width:0.353"
       d="m 141.94,321.65 0.09,-0.04"
       id="path941" />
    <path
       style="stroke:#000000;stroke-width:0.353"
       d="m 141.41,281.42 0.62,-0.1 0.73,-0.06 h 0.75 l 0.77,0.06 0.78,0.11 0.79,0.18 0.81,0.24 0.81,0.29 0.82,0.35 0.82,0.41 0.81,0.46 0.81,0.52 0.81,0.58 0.33,0.26 0.51,0.31 0.66,0.45 0.65,0.49 0.65,0.52 0.89,0.81 0.97,0.96 0.58,0.65 0.57,0.67 0.54,0.7 0.52,0.72 0.49,0.73 0.46,0.75 0.42,0.77 0.49,0.97 0.27,0.58 0.33,0.79 0.3,0.78 0.26,0.78 0.23,0.78 0.18,0.76 0.16,0.76 0.12,0.73 0.08,0.72 0.04,0.7 v 0.65 l 0.08,0.72 0.07,0.89 0.01,0.86 -0.03,0.83 -0.08,0.8 -0.12,0.76 -0.17,0.72 -0.22,0.67 -0.26,0.63 -0.3,0.57 -0.31,0.47"
       id="path943" />
    <path
       style="stroke:#000000;stroke-width:0.353"
       d="m 143.77,320.03 0.38,-0.6 0.3,-0.59 0.25,-0.64 0.22,-0.68 0.2,-0.92 0.09,-0.56 0.07,-0.79 0.03,-0.83 -0.02,-0.86 -0.07,-0.88 -0.12,-0.91"
       id="path945" />
    <path
       style="stroke:#000000;stroke-width:0.353"
       d="m 143.2,289.61 0.88,0.71 0.78,0.69 0.77,0.73 0.74,0.77 0.73,0.8 0.76,0.91 0.61,0.79 0.64,0.89 0.6,0.92 0.57,0.93 0.53,0.95 0.49,0.97 0.45,0.97 0.33,0.8 0.45,1.16 0.32,0.98 0.28,0.97 0.26,1.05 0.18,0.86 0.1,0.67"
       id="path947" />
    <path
       style="stroke:#000000;stroke-width:0.353"
       d="m 162.9,309.5 0.5,-0.32 0.45,-0.38 0.43,-0.44 0.38,-0.48 0.34,-0.54 0.3,-0.58 0.25,-0.63 0.21,-0.68 0.16,-0.72 0.11,-0.77 0.06,-0.8 v -0.84 l -0.04,-0.88 -0.09,-0.89 -0.13,-0.93 -0.18,-0.94 -0.23,-0.96 -0.27,-0.96 -0.32,-0.98 -0.35,-0.98 -0.4,-0.98 -0.44,-0.98 -0.48,-0.97 -0.53,-0.95 -0.55,-0.94 -0.6,-0.92 -0.63,-0.9 -0.67,-0.87 -0.69,-0.84 -0.72,-0.81 -0.74,-0.78 -0.76,-0.74 -0.78,-0.7 -0.79,-0.66 -0.8,-0.61 -0.81,-0.56 -0.82,-0.51 -0.82,-0.46 -0.82,-0.4 -0.81,-0.35 -0.81,-0.28 -0.8,-0.21 -0.78,-0.15 -0.42,-0.05 -0.35,-0.04 -0.75,-0.03 -0.74,0.04 -0.71,0.1 -0.69,0.15 -0.66,0.22 -0.63,0.27 -0.6,0.33"
       id="path949" />
    <path
       style="stroke:#000000;stroke-width:0.353"
       d="m 156.02,282.19 0.43,0.33 0.79,0.67 0.78,0.71 0.76,0.75 0.73,0.78 0.72,0.82 0.68,0.84 0.66,0.88 0.63,0.9 0.59,0.92 0.55,0.94 0.52,0.96 0.47,0.97 0.43,0.98 0.39,0.98 0.35,0.98 0.26,0.82 0.31,1.12 0.22,0.96 0.22,1.26 0.01,-0.78 -0.04,-0.69 -0.08,-0.72 -0.12,-0.73 -0.16,-0.75 -0.21,-0.77 -0.24,-0.77 -0.27,-0.78 -0.31,-0.79 -0.34,-0.78 -0.38,-0.79 -0.41,-0.77 -0.44,-0.77 -0.46,-0.75 -0.49,-0.74 -0.52,-0.72 -0.54,-0.7 -0.56,-0.67 -0.58,-0.65 -0.61,-0.61 -0.62,-0.58 -0.63,-0.54 -0.65,-0.51 -0.66,-0.47 -0.66,-0.43 -0.52,-0.31 -1.18,-0.86 -0.82,-0.52 -0.81,-0.47 -0.82,-0.41 -0.82,-0.35 -0.8,-0.29 -0.8,-0.23 -0.79,-0.16 -0.78,-0.1 -0.75,-0.04 -0.74,0.03 -0.72,0.08 -0.47,0.1"
       id="path951" />
    <path
       style="stroke:#000000;stroke-width:0.353"
       d="m 167.3,307.01 0.48,-0.34 0.44,-0.4 0.41,-0.45 0.36,-0.51 0.33,-0.55 0.28,-0.61 0.24,-0.65 0.2,-0.69 0.16,-0.73 0.1,-0.78 0.06,-0.8 0.02,-0.84 -0.04,-0.87 -0.09,-0.89 -0.14,-0.92 -0.19,-0.94 -0.24,-0.95 -0.29,-0.97 -0.33,-0.98 -0.38,-0.98 -0.42,-0.98 -0.45,-0.98 -0.5,-0.97 -0.53,-0.96 -0.57,-0.94 -0.6,-0.93 -0.63,-0.9 -0.66,-0.87 -0.69,-0.84 -0.72,-0.81 -0.73,-0.76 -0.77,-0.73 -0.77,-0.68 -0.8,-0.64 -0.8,-0.59 -0.82,-0.54 -0.82,-0.5 -0.82,-0.44 -0.82,-0.38 -0.53,-0.22 -1.1,-0.39 -0.8,-0.22 -0.79,-0.15 -0.77,-0.1 -0.75,-0.02 -0.74,0.03 -0.7,0.11 -0.68,0.17 -0.65,0.23 -0.61,0.3"
       id="path953" />
    <path
       style="stroke:#000000;stroke-width:0.353"
       d="m 149.98,276.46 0.33,-0.08 0.71,-0.09 0.74,-0.03 0.75,0.04 0.78,0.11 0.79,0.16 0.8,0.23 0.81,0.28 0.82,0.35 0.83,0.39 0.82,0.45 0.82,0.51 0.81,0.55 0.42,0.31 0.48,0.28 0.66,0.42 0.65,0.47 0.65,0.5 0.63,0.55 0.62,0.58 0.61,0.62 0.59,0.64 0.57,0.67 0.55,0.7 0.53,0.72 0.81,1.21 0.62,1.03 0.42,0.78 0.38,0.76 0.35,0.78 0.31,0.78 0.27,0.78 0.24,0.77 0.2,0.77 0.16,0.75 0.12,0.74 0.09,0.72 0.05,0.71 v 0.61 l -0.21,-1.12 -0.23,-0.96 -0.32,-1.1 -0.28,-0.84 -0.37,-0.98 -0.41,-0.98 -0.45,-0.98 -0.37,-0.73 -0.64,-1.21 -0.56,-0.94 -0.6,-0.93 -0.62,-0.9 -0.66,-0.88 -0.68,-0.85 -0.72,-0.81 -0.73,-0.77 -0.76,-0.74 -0.77,-0.69 -0.79,-0.64 -0.39,-0.29"
       id="path955" />
    <path
       style="stroke:#000000;stroke-width:0.353"
       d="m 162.24,302.25 -0.18,-1.11 -0.2,-0.95 -0.32,-1.2 -0.22,-0.72 -0.34,-0.98 -0.39,-0.97 -0.47,-1.04 -0.44,-0.9 -0.34,-0.63 -0.73,-1.28 -0.59,-0.93 -0.63,-0.92 -0.65,-0.88 -0.68,-0.87 -0.7,-0.83 -0.73,-0.8 -0.75,-0.76 -0.77,-0.72 -0.78,-0.67 -0.46,-0.37"
       id="path957" />
    <path
       style="stroke:#000000;stroke-width:0.353"
       d="m 171.36,304.64 0.57,-0.34 0.51,-0.41 0.47,-0.49 0.41,-0.56 0.36,-0.63 0.27,-0.62 0.22,-0.66 0.18,-0.71 0.14,-0.75 0.09,-0.79 0.04,-0.82 v -0.85 l -0.05,-0.88 -0.1,-0.91 -0.14,-0.92 -0.19,-0.94 -0.23,-0.96 -0.29,-0.96 -0.33,-0.97 -0.38,-0.98 -0.42,-0.97 -0.47,-0.97 -0.51,-0.96 -0.54,-0.95 -0.59,-0.94 -0.61,-0.92 -0.65,-0.89 -0.67,-0.87 -0.7,-0.84 -0.72,-0.81 -0.74,-0.77 -0.77,-0.73 -0.78,-0.69 -0.79,-0.63 -0.8,-0.59 -0.81,-0.53 -0.81,-0.48 -0.82,-0.42 -0.82,-0.37 -0.81,-0.3 -0.81,-0.25 -0.8,-0.19 -0.79,-0.14 -0.77,-0.07 -0.75,-0.02 -0.73,0.05 -0.71,0.1 -0.68,0.17 -0.65,0.23 -0.62,0.29"
       id="path959" />
    <path
       style="stroke:#000000;stroke-width:0.353"
       d="M 155.05,314.08 155.19,314"
       id="path961" />
    <path
       style="stroke:#000000;stroke-width:0.353"
       d="m 172.41,304.03 0.29,-0.2 0.45,-0.38 0.4,-0.44 0.36,-0.49 0.32,-0.56 0.28,-0.6 0.23,-0.66 0.19,-0.69 0.07,-0.37 0.07,-0.38 0.1,-0.78 0.06,-1.03 v -0.64 l -0.04,-0.87 -0.09,-0.9 -0.11,-0.82 -0.2,-1.04 -0.34,-1.37 -0.16,-0.55 -0.32,-0.97 -0.5,-1.26 -0.29,-0.69 -0.46,-0.97 -0.5,-0.97 -0.54,-0.95 -0.58,-0.94 -0.61,-0.92 -0.64,-0.9 -0.67,-0.88 -0.69,-0.84 -0.72,-0.81 -0.74,-0.78 -0.76,-0.74 -0.77,-0.69 -0.79,-0.65 -0.8,-0.59 -0.95,-0.63 -0.68,-0.4 -0.8,-0.42 -0.83,-0.38 -0.82,-0.32 -0.81,-0.26 -0.8,-0.21 -0.79,-0.14 -0.77,-0.09 -0.76,-0.02 -0.73,0.03 -0.72,0.1 -0.68,0.15"
       id="path963" />
    <path
       style="stroke:#000000;stroke-width:0.353"
       d="m 156.6,312.61 0.25,-0.36 0.31,-0.57 0.28,-0.62 0.23,-0.66 0.19,-0.7 0.14,-0.75 0.1,-0.78 0.04,-0.81 0.01,-0.85 -0.05,-0.87 -0.16,-1.25"
       id="path965" />
    <path
       style="stroke:#000000;stroke-width:0.353"
       d="m 159.07,311.74 0.5,-0.29"
       id="path967" />
    <path
       style="stroke:#000000;stroke-width:0.353"
       d="m 163.42,309.2 -0.1,0.05"
       id="path969" />
    <path
       style="stroke:#000000;stroke-width:0.353"
       d="m 176.3,295.25 -0.08,-1.27 -0.18,-1.32 -0.26,-1.35 -0.35,-1.36 -0.44,-1.38 -0.6,-1.57 -0.51,-1.17 -0.67,-1.34 -0.73,-1.32 -0.8,-1.28 -0.86,-1.23 -0.9,-1.17 -0.96,-1.1 -0.98,-1.04 -1.02,-0.95 -0.28,-0.23 -0.77,-0.63 -1.05,-0.77 -1.07,-0.66"
       id="path971" />
    <path
       style="stroke:#000000;stroke-width:0.353"
       d="m 166.51,299.76 0.08,0.59 0.08,0.9 0.03,0.87 -0.02,0.92 -0.06,0.71 -0.12,0.76 -0.16,0.71 -0.22,0.67 -0.26,0.63 -0.31,0.57 -0.43,0.64"
       id="path973" />
    <path
       style="stroke:#000000;stroke-width:0.353"
       d="m 170.77,296.98 0.11,0.73 0.08,0.89 0.03,0.86 -0.02,0.86 -0.07,0.77 -0.12,0.77 -0.16,0.72 -0.2,0.67 -0.25,0.66 -0.3,0.6 -0.44,0.7"
       id="path975" />
    <path
       style="stroke:#000000;stroke-width:0.353"
       d="m 89.72,354.49 -1.71,-0.99 -3.19,-2.17 -1.5,-1.2 -2.34,-2.13 -2.17,-2.34 -1.57,-1.98 -1.82,-2.67 -1.27,-2.22 -0.94,-1.95 -0.18,-0.38 -0.85,-2.03 -0.87,-2.48 -0.51,-1.89 -0.5,-2.36 -0.33,-1.97 -0.18,-2 -0.14,-2.63 0.05,-2.04 0.22,-2.83 0.3,-2.06 0.63,-2.94 0.43,-1.45 0.49,-1.54 0.52,-1.48 1.33,-3 0.39,-0.77 0.98,-1.62 1.15,-1.42 1.29,-1.2 1.44,-0.98 2.12,-1.22 1.57,-0.75 1.68,-0.53 1.8,-0.28 1.88,-0.04 1.97,0.19 2.03,0.43 2.08,0.67 2.11,0.9 2.12,1.12 2.13,1.33 2.11,1.54 1.73,1.44 1.34,-0.78 0.63,-0.28 0.66,-0.22 0.38,-0.09 0.15,-0.17 0.5,-0.48 0.54,-0.43 0.58,-0.36 0.71,-0.41 0.62,-0.3 0.65,-0.24 0.5,-0.12 0.55,-0.55 0.53,-0.43 0.58,-0.36 0.72,-0.41 0.61,-0.29 0.65,-0.24 0.64,-0.16 0.46,-0.45 0.54,-0.43 0.57,-0.38 0.71,-0.42 0.61,-0.31 0.65,-0.26 0.77,-0.22 0.35,-0.36 0.52,-0.46 0.55,-0.4 1.31,-0.75 0.63,-0.27 0.66,-0.21 0.23,-0.05 0.25,-0.27 0.51,-0.47 0.55,-0.4 1.31,-0.75 0.63,-0.26 0.66,-0.21 0.37,-0.08 0.16,-0.17 0.51,-0.47 0.55,-0.41 1.31,-0.77 0.62,-0.28 0.66,-0.23 0.49,-0.13 0.56,-0.56 0.54,-0.44 0.57,-0.38 0.72,-0.41 0.61,-0.31 0.64,-0.25 0.62,-0.17 0.45,-0.46 0.53,-0.44 0.57,-0.38 0.71,-0.41 0.61,-0.31 0.65,-0.24 0.75,-0.2 0.37,-0.37 0.53,-0.44 0.57,-0.39 0.71,-0.41 0.61,-0.32 0.63,-0.27 0.67,-0.2 0.22,-0.05 0.26,-0.28 0.52,-0.47 0.55,-0.41 1.3,-0.76 0.63,-0.29 0.65,-0.22 0.35,-0.08 0.16,-0.19 0.51,-0.47 0.54,-0.42 1.3,-0.76 0.62,-0.28 0.66,-0.22 0.53,-0.47 0.74,-0.48 0.8,-0.37 0.86,-0.25 0.34,-0.04 0.58,-0.09 0.95,-0.01 1,0.11 1.03,0.22 1.05,0.34 1.07,0.46 1.07,0.57 2.9,1.67 0.84,0.53 0.83,0.6 0.82,0.69 0.49,0.46 0.31,0.29 0.78,0.82 0.74,0.88 0.71,0.93 0.67,0.97 0.61,1.01 0.24,0.43 0.33,0.62 0.51,1.06 0.45,1.08 0.39,1.08 0.32,1.09 0.26,1.07 0.18,1.05 0.11,1.02 0.03,1 -0.01,4.02 -0.1,1.17 -0.18,1.11 -0.28,1.03 -0.36,0.95 -0.45,0.86 -0.52,0.77 -0.61,0.66 -0.67,0.56 -0.91,0.57 -0.86,0.48 -0.6,0.27 -0.65,0.19 -0.68,0.11 -0.26,0.34 -0.42,0.44 -0.45,0.39 -0.48,0.33 -0.52,0.3 -0.41,0.23 -0.43,0.19 -0.45,0.14 -0.47,0.1 -0.42,0.06 -0.31,0.36 -0.42,0.43 -0.47,0.36 -1.02,0.62 -0.52,0.26 -0.56,0.21 -0.58,0.15 -0.33,0.05 -0.43,0.52 -0.43,0.41 -0.48,0.35 -1.02,0.59 -0.54,0.24 -0.57,0.18 -0.59,0.13 -0.25,0.02 -0.11,0.16 -0.39,0.46 -0.44,0.41 -0.47,0.36 -0.93,0.54 -0.43,0.22 -0.46,0.16 -0.48,0.13 -0.61,0.08 -0.14,0.18 -0.41,0.45 -0.45,0.39 -0.48,0.34 -1.04,0.58 -0.54,0.24 -0.57,0.17 -0.59,0.11 -0.25,0.32 -0.41,0.43 -0.46,0.37 -0.5,0.32 -0.52,0.3 -0.52,0.26 -0.55,0.21 -0.59,0.15 -0.49,0.08 -0.34,0.43 -0.42,0.43 -0.45,0.38 -0.94,0.57 -0.43,0.24 -0.47,0.19 -0.48,0.14 -0.51,0.1 -0.28,0.03 -0.38,0.45 -0.43,0.41 -0.47,0.36 -1.02,0.61 -0.53,0.26 -0.56,0.2 -0.59,0.14 -0.24,0.03 -0.09,0.12 -0.4,0.46 -0.44,0.39 -0.48,0.34 -1.03,0.59 -0.55,0.23 -0.57,0.18 -0.74,0.13 -0.17,0.24 -0.4,0.45 -0.44,0.4 -0.47,0.34 -0.91,0.53 -0.46,0.21 -0.5,0.16 -0.52,0.12 -0.45,0.06 -0.21,0.26 -0.42,0.44 -0.45,0.38 -0.49,0.33 -1.03,0.59 -0.55,0.22 -0.57,0.16 -0.5,0.09 -0.32,0.38 -0.23,0.23 0.41,2.36 0.28,2.6 0.09,2.51 -0.09,2.4 -0.28,2.27 -0.46,2.14 -0.64,1.97 -0.82,1.8 -0.55,0.91 -0.43,0.7 -1.14,1.41 -1.3,1.2 -1.43,0.99 -2.12,1.22 -1.57,0.75 -1.68,0.52 -1.8,0.29 -1.89,0.04 -0.3,-0.03"
       id="path977" />
    <path
       style="stroke:#000000;stroke-width:0.353"
       d="m 93.02,356.08 -3.33,-1.61"
       id="path979" />
    <path
       style="stroke:#000000;stroke-width:0.353"
       d="m 93.16,356.14 1.79,0.7 2.55,0.82 2.61,0.64 1.96,0.36 1.5,0.22 2.85,0.23"
       id="path981" />
  </g>
</svg>
