<?xml version="1.0" encoding="UTF-8" standalone="no"?>
<svg
   width="297.000mm"
   height="210.000mm"
   viewBox="0.000000 0.000000 297.000000 210.000000"
   stroke-linejoin="round"
   stroke-linecap="round"
   fill="none"
   fill-rule="evenodd"
   version="1.1"
   id="svg3788"
   sodipodi:docname="nut_traps_2.svg"
   inkscape:version="1.2.2 (732a01da63, 2022-12-09)"
   xmlns:inkscape="http://www.inkscape.org/namespaces/inkscape"
   xmlns:sodipodi="http://sodipodi.sourceforge.net/DTD/sodipodi-0.dtd"
   xmlns="http://www.w3.org/2000/svg"
   xmlns:svg="http://www.w3.org/2000/svg">
  <sodipodi:namedview
     id="namedview3790"
     pagecolor="#ffffff"
     bordercolor="#000000"
     borderopacity="0.25"
     inkscape:showpageshadow="2"
     inkscape:pageopacity="0.0"
     inkscape:pagecheckerboard="0"
     inkscape:deskcolor="#d1d1d1"
     inkscape:document-units="mm"
     showgrid="false"
     inkscape:zoom="1.0873115"
     inkscape:cx="480.54306"
     inkscape:cy="397.31024"
     inkscape:window-width="1920"
     inkscape:window-height="1017"
     inkscape:window-x="1912"
     inkscape:window-y="-8"
     inkscape:window-maximized="1"
     inkscape:current-layer="svg3788" />
  <desc
     id="desc3429">Composer Export</desc>
  <script
     type="text/ecmascript"
     id="script3431"><![CDATA[
if(typeof(top) != "undefined")
{
	top.ShowPaper = ShowPaper;
}
function ShowHotSpot(evt,hotspotid)
{
	var svgDocument = evt.target.ownerDocument;
	var strId = "hotspot."+hotspotid;
	var hotspot = svgDocument.getElementById(strId);
	if(hotspot)
		hotspot.setAttribute("opacity",".5");
}
function HideHotSpot(evt,hotspotid)
{
	var svgDocument = evt.target.ownerDocument;
	var strId = "hotspot."+hotspotid;
	var hotspot = svgDocument.getElementById(strId);
	if(hotspot)
		hotspot.setAttribute("opacity","0");

	var toolTip = svgDocument.getElementById('ToolTip');
	if(toolTip)
		toolTip.setAttribute("visibility","hidden");
}
function ShowToolTip(evt,hotspotid,strTooltip)
{
	if(strTooltip=="")
	return;

	// change text
	var svgDocument = evt.target.ownerDocument;
	var tiptext = svgDocument.getElementById('ToolTipText');
	if( !tiptext )
	return;
	tiptext.firstChild.nodeValue = " " + strTooltip + "  " ;

	// show tooltip before, else some refresh issue

	var toolTip = svgDocument.getElementById('ToolTip');
	if(!toolTip)
	return;

	toolTip.setAttribute("visibility","visible");
	toolTip.setAttribute("opacity",".95");

	// move tooltip
	// get viewbox

	var root = svgDocument.documentElement;
	var vbox = (root.getAttribute("viewBox")).split(' ');
	var x0 = parseFloat(vbox[0]);
	var y0 = parseFloat(vbox[1]);
	var vboxW = parseFloat(vbox[2]);
	var vboxH = parseFloat(vbox[3]);

	// get default width of svg

	var strW = root.getAttribute("width");
	var svgW = parseFloat(strW);
	if(strW.indexOf('mm') != -1)
	svgW *= 3.779;

	var strH = root.getAttribute("height");
	var svgH = parseFloat(strH);
	if(strH.indexOf('mm') != -1)
	svgH *= 3.779;  	// 96 dpi  -> 96/25.4 = 3.779

	// update the viewbox / width / height if svg is embedded in html with zoom fit all
	var realx0 = x0;
	var realy0 = y0;
	var realvboxW = vboxW;
	var realvboxH = vboxH;
	var realsvgW = svgW;
	var realsvgH = svgH;

	if ((typeof(top) == "undefined") || (typeof(top.svgctl1) != "undefined")) // embedded in html
	{
		// get window size in pxl

		svgW = window.innerWidth;
		svgH = window.innerHeight;

		// calculate real viewbox

		realsvgW = svgW;
		realsvgH = svgH;
		if((svgW / svgH) > (vboxW / vboxH))
		{
			realvboxW = (vboxH * svgW) / svgH;
			realvboxH = vboxH;
			realx0 = x0 - (realvboxW - vboxW)/2 ;
		}
		else
		{
			realvboxH = (vboxW * svgH) / svgW;
			realvboxW = vboxW;
			realy0 = y0 - (realvboxH - vboxH)/2 ;
		}
	}

	// get user zoom/pan

	var newScale = root.currentScale;
	var translation = root.currentTranslate;

	// transform pxl to user unit

	var xPos = (((evt.clientX+10- translation.x)/newScale) * realvboxW)/realsvgW  + realx0 ;
	var yPos = (((evt.clientY+5- translation.y)/newScale) * realvboxH)/ realsvgH  + realy0 ;
	var scaleForWidth = ( (1 / newScale) * realvboxH) / realsvgH;

	// move tooltip

	toolTip.setAttribute("transform", "translate(" + xPos + "," + yPos + ")" );

	// resize tooltip

	var fontsize = 12;
	tiptext.setAttribute("font-size",fontsize*scaleForWidth);
	tiptext.setAttribute("y", fontsize*scaleForWidth);
	var tipBG = svgDocument.getElementById('ToolTipBG');
	var outline = tiptext.getBBox();
	if(tipBG)
	{
		tipBG.setAttribute("stroke-width", 1*scaleForWidth);
		tipBG.setAttribute("width", Number(outline.width) );
		tipBG.setAttribute("height", Number(outline.height) + fontsize*.5*scaleForWidth );
	}
	var ToolTipShadow = svgDocument.getElementById('ToolTipShadow');
	if(ToolTipShadow)
	{
		ToolTipShadow.setAttribute("width", Number(outline.width) );
		ToolTipShadow.setAttribute("height", Number(outline.height) + fontsize*.5*scaleForWidth );
		ToolTipShadow.setAttribute("x", 3*scaleForWidth);
		ToolTipShadow.setAttribute("y", 3*scaleForWidth);
	}
}
function ShowPaper()
{
  var svgDocument = getDocument();
  var paper = svgDocument.getElementById("paperID");
  if(paper)
  {
    paper.setAttribute("transform","scale(1)");
    paper.setAttribute("opacity","1");
    paper.setAttribute("visibility","visible");
  }
  var svg = svgDocument.getRootElement();
  if(svg)
  {
    svg.setAttribute("width","307.000mm");
    svg.setAttribute("height","220.000mm");
    svg.setAttribute("viewBox","-5.000000 -5.000000 307.000000 220.000000");
  }
}
]]></script>
  <defs
     id="defs3433" />
  <g
     inkscape:groupmode="layer"
     id="layer3"
     inkscape:label="Fill">
    <path
       style="display:inline;fill:#97fa98"
       d="m 234.8,71.78 1.51,0.84 1.21,1.01 -0.01,0.39 -1.08,2.13 -5.27,0.83 h -0.86 l -3.48,-1.96 0.18,-0.88 0.9,-1.8 2.3,-0.73 1.01,-0.17 h 2.41 z"
       id="path3437" />
    <path
       style="display:inline;fill:#97fa98"
       d="m 208.54,87.77 2.02,1.5 -1,2.26 -0.29,0.26 -5.39,0.85 h -0.51 l -3.61,-2 -0.2,-0.18 1.34,-2.53 2.87,-0.83 h 2.92 z"
       id="path3439" />
    <path
       style="display:inline;fill:#97fa98"
       d="m 179.75,102.75 2.36,1.01 1.34,1.16 -1.15,2.45 -0.81,0.17 -4.38,0.67 -0.46,0.12 h -0.44 l -3.54,-2.05 0.13,-0.66 0.9,-1.96 2.12,-0.74 1.59,-0.32 z"
       id="path3441" />
    <path
       style="display:inline;fill:#97fa98"
       d="m 152.82,118.41 1.34,0.5 2.21,1.51 -0.01,0.23 -1.08,2.3 -1.06,0.25 -4.38,0.68 -0.91,-0.07 -3.41,-2.04 0.75,-1.76 0.41,-0.77 2.54,-0.83 2.59,-0.15 z"
       id="path3443" />
    <path
       style="display:inline;fill:#97fa98"
       d="m 125.88,134.07 1.85,0.84 1.67,1.17 -1.17,2.59 -2.47,0.35 -3.2,0.52 -0.57,-0.07 -3.36,-1.87 -0.01,-0.62 0.96,-2.08 2.54,-0.83 1.34,-0.17 h 1.57 z"
       id="path3445" />
    <path
       style="display:inline;fill:#97fa98"
       d="m 100.45,150.4 1.86,1.32 -1.16,2.5 -0.46,0.13 -5.4,0.85 -0.41,-0.07 -3.41,-1.99 0.05,-0.5 1.13,-2.25 2.19,-0.66 1.01,-0.17 2.59,-0.01 z"
       id="path3447" />
    <path
       style="display:inline;fill:#97fa98"
       d="m 72.84,165.72 1.18,0.67 1.18,0.99 -1.15,2.5 -0.65,0.12 -4.88,0.75 -0.51,0.01 -3.06,-1.69 -0.73,-0.47 0.54,-0.97 0.78,-1.58 3.04,-0.83 h 2.75 z"
       id="path3449" />
  </g>
  <g
     id="g3786">
    <path
       id="path3467"
       style="fill:#ffffff"
       d="m 71.68,169.62 0.01,0.18 -1.14,0.29 h -1.54 l -1.13,-0.34 0.52,-0.34 0.85,-0.15 h 1.23 z m 26.42,-15.86 0.69,0.33 -0.96,0.34 h -2.04 l -0.8,-0.34 0.69,-0.33 1.57,-0.16 z m 81.82,-46.63 -0.03,0.16 -1.42,0.33 h -0.69 l -1.59,-0.33 -0.03,-0.16 1.01,-0.33 h 1.74 z m 26.96,-15.63 -0.01,0.18 -1.13,0.28 -1.37,0.01 -1.13,-0.29 0.01,-0.18 1.19,-0.36 h 1.4 z m 27.1,-15.66 v 0.18 l -0.8,0.29 h -2.03 l -0.8,-0.29 v -0.18 l 0.52,-0.2 1.74,-0.16 z M 74.02,169.98 73.4,170 l 0.65,-0.12 z m 27.1,-15.65 -0.43,0.02 0.46,-0.13 z m 24.6,-15.91 -0.63,0.34 -0.5,0.1 -1.86,-0.1 -0.63,-0.34 0.69,-0.31 h 2.24 z m 27.26,-15.63 -0.63,0.3 -0.49,0.12 -2.19,-0.1 -0.61,-0.32 1,-0.34 h 1.91 z" />
    <g
       id="Actor_.0">
      <g
         style="stroke:#000000;stroke-width:0.353"
         id="g3497">
        <path
           id="path3495"
           d="m 74.26,169.57 -0.04,0.03 m -5.34,-4.35 0.23,-0.03 m -1.09,0.16 0.42,-0.08 v 0 m 2.26,0.85 -0.26,1.4 v 1.67 m 3.78,0.38 c -0.11,0.11 -0.11,0.11 -0.23,0.22 -0.14,0.11 -0.14,0.1 -0.27,0.21 -0.01,0 -0.01,0 -0.01,0.01 m -4.6,-4.82 c 0.34,-0.02 0.34,-0.02 0.68,-0.04 0.36,0 0.36,0 0.72,0 0.39,0.02 0.39,0.02 0.78,0.05 0.28,0.07 0.28,0.07 0.57,0.16 0.27,0.09 0.27,0.09 0.53,0.18 0.25,0.11 0.25,0.11 0.5,0.22 0.25,0.13 0.25,0.13 0.49,0.26 0.15,0.09 0.15,0.09 0.3,0.19 0.14,0.1 0.14,0.1 0.28,0.2 0.12,0.11 0.12,0.11 0.24,0.22 0.1,0.11 0.1,0.11 0.2,0.23 0.09,0.11 0.09,0.11 0.18,0.23 0.07,0.12 0.07,0.12 0.13,0.25 0.05,0.12 0.05,0.12 0.1,0.25 0.03,0.12 0.03,0.13 0.06,0.25 0.02,0.13 0.01,0.13 0.02,0.26 0,0.04 0,0.04 0,0.08 m -6.45,-2.91 c 0.22,-0.03 0.22,-0.03 0.44,-0.05 0.22,-0.02 0.22,-0.02 0.44,-0.04 0.22,-0.01 0.22,-0.01 0.44,-0.01 0.23,0 0.23,0 0.45,0.01 0.22,0.01 0.22,0.01 0.44,0.03 0.22,0.03 0.22,0.03 0.44,0.06 0.21,0.03 0.21,0.03 0.42,0.07 0.21,0.05 0.21,0.05 0.41,0.1 0.2,0.06 0.2,0.06 0.4,0.12 0.19,0.06 0.19,0.06 0.38,0.13 0.17,0.08 0.17,0.08 0.35,0.16 0.17,0.08 0.17,0.08 0.33,0.17 0.25,0.15 0.25,0.15 0.49,0.3 0.25,0.18 0.25,0.18 0.5,0.35 0.27,0.21 0.27,0.21 0.53,0.42 0.18,0.15 0.18,0.15 0.35,0.31 m -7.56,2.38 c -0.05,-0.04 -0.05,-0.04 -0.1,-0.09 -0.05,-0.05 -0.05,-0.05 -0.11,-0.11 -0.04,-0.06 -0.04,-0.06 -0.08,-0.12 -0.04,-0.06 -0.04,-0.06 -0.07,-0.12 -0.03,-0.06 -0.03,-0.06 -0.05,-0.13 -0.02,-0.06 -0.02,-0.06 -0.03,-0.12 -0.01,-0.07 -0.01,-0.07 -0.01,-0.13 0,-0.07 0,-0.07 0.01,-0.13 0.01,-0.07 0.01,-0.07 0.03,-0.13 0.02,-0.06 0.02,-0.06 0.04,-0.12 0.04,-0.07 0.04,-0.07 0.07,-0.13 0.04,-0.06 0.04,-0.06 0.08,-0.12 0.05,-0.05 0.05,-0.05 0.1,-0.11 0.06,-0.06 0.06,-0.06 0.12,-0.11 0.07,-0.05 0.07,-0.05 0.14,-0.1 0.07,-0.05 0.07,-0.05 0.15,-0.1 0.08,-0.04 0.08,-0.04 0.16,-0.08 0.07,-0.04 0.07,-0.03 0.14,-0.07 0.02,0 0.02,0 0.04,-0.01 0.09,-0.04 0.09,-0.04 0.18,-0.07 0.1,-0.03 0.1,-0.03 0.2,-0.06 0.1,-0.03 0.1,-0.03 0.21,-0.05 0.1,-0.02 0.1,-0.02 0.21,-0.04 0.11,-0.02 0.11,-0.02 0.21,-0.03 0.11,-0.01 0.11,-0.01 0.23,-0.02 0.11,0 0.11,0 0.22,0 0.11,0 0.11,0 0.22,0 0.11,0.01 0.11,0.01 0.22,0.02 0.11,0.01 0.11,0.01 0.22,0.02 0.1,0.02 0.1,0.02 0.21,0.04 0.1,0.03 0.1,0.03 0.21,0.05 0.1,0.03 0.1,0.03 0.2,0.06 0.09,0.03 0.09,0.03 0.18,0.07 0.09,0.04 0.09,0.04 0.18,0.08 0.08,0.04 0.08,0.04 0.17,0.08 0.07,0.05 0.07,0.05 0.15,0.1 0.07,0.05 0.07,0.05 0.13,0.1 0.06,0.05 0.06,0.05 0.12,0.11 0.06,0.05 0.06,0.05 0.11,0.11 0.04,0.06 0.04,0.06 0.08,0.12 0.04,0.06 0.04,0.06 0.07,0.12 0.03,0.06 0.03,0.06 0.05,0.13 0.02,0.06 0.02,0.06 0.03,0.12 0.01,0.07 0.01,0.07 0.01,0.13 0,0.07 0,0.07 -0.01,0.13 -0.01,0.06 -0.01,0.06 -0.02,0.13 -0.03,0.06 -0.03,0.06 -0.05,0.12 -0.03,0.06 -0.03,0.06 -0.07,0.13 -0.04,0.06 -0.04,0.06 -0.08,0.11 -0.05,0.06 -0.05,0.06 -0.1,0.12 -0.06,0.05 -0.06,0.05 -0.11,0.1 m -1.46,-0.59 c -0.11,-0.01 -0.11,-0.01 -0.22,-0.03 -0.11,-0.01 -0.11,-0.01 -0.22,-0.01 -0.11,-0.01 -0.11,-0.01 -0.22,-0.01 -0.11,0.01 -0.11,0.01 -0.22,0.01 -0.12,0.01 -0.12,0.01 -0.23,0.02 -0.1,0.01 -0.1,0.01 -0.21,0.02 -0.11,0.02 -0.11,0.02 -0.21,0.04 -0.11,0.03 -0.11,0.03 -0.21,0.05 -0.1,0.03 -0.1,0.03 -0.2,0.06 -0.09,0.04 -0.09,0.04 -0.18,0.07 -0.09,0.04 -0.09,0.04 -0.18,0.08 -0.08,0.05 -0.08,0.05 -0.16,0.09 -0.08,0.05 -0.08,0.05 -0.15,0.09 -0.07,0.06 -0.07,0.06 -0.14,0.11 m 2.75,-0.59 c 0.1,0.02 0.1,0.02 0.21,0.04 0.1,0.02 0.1,0.02 0.21,0.05 0.1,0.03 0.1,0.03 0.2,0.06 0.09,0.03 0.09,0.03 0.18,0.06 0.09,0.04 0.09,0.04 0.18,0.08 0.08,0.04 0.08,0.04 0.17,0.09 0.07,0.04 0.07,0.04 0.15,0.09 0.07,0.05 0.07,0.05 0.13,0.1 0.01,0.01 0.01,0.01 0.02,0.02 m -1.19,-3.66 c -0.15,-0.02 -0.16,-0.02 -0.31,-0.04 -0.15,-0.01 -0.15,-0.01 -0.31,-0.02 -0.15,0 -0.15,0 -0.31,-0.01 -0.15,0.01 -0.15,0.01 -0.31,0.01 -0.02,0 -0.02,0 -0.05,0.01 -0.13,0.01 -0.13,0.01 -0.26,0.02 -0.15,0.02 -0.15,0.02 -0.3,0.04 -0.15,0.02 -0.15,0.02 -0.3,0.05 -0.14,0.03 -0.14,0.03 -0.27,0.07 -0.15,0.04 -0.15,0.04 -0.29,0.08 -0.13,0.05 -0.13,0.05 -0.26,0.1 -0.13,0.06 -0.13,0.06 -0.25,0.11 -0.11,0.06 -0.11,0.06 -0.23,0.13 -0.1,0.06 -0.1,0.06 -0.21,0.13 -0.09,0.07 -0.09,0.07 -0.19,0.14 -0.08,0.08 -0.08,0.08 -0.16,0.15 -0.07,0.08 -0.07,0.08 -0.14,0.16 -0.06,0.09 -0.06,0.09 -0.12,0.17 -0.05,0.09 -0.05,0.09 -0.09,0.17 -0.04,0.09 -0.04,0.09 -0.07,0.18 -0.02,0.09 -0.02,0.09 -0.04,0.18 -0.01,0.09 -0.01,0.09 -0.01,0.18 0.01,0.09 0.01,0.09 0.01,0.18 0.02,0.09 0.02,0.09 0.05,0.17 0.03,0.09 0.03,0.09 0.07,0.18 0.04,0.09 0.04,0.09 0.09,0.17 0.06,0.09 0.06,0.09 0.12,0.17 0.07,0.08 0.07,0.08 0.15,0.16 0.08,0.07 0.08,0.07 0.17,0.15 0.09,0.07 0.09,0.07 0.19,0.14 0.1,0.07 0.1,0.07 0.21,0.13 0.11,0.06 0.11,0.06 0.23,0.12 0.12,0.06 0.12,0.06 0.25,0.11 0.13,0.05 0.13,0.05 0.26,0.1 0.14,0.04 0.14,0.04 0.28,0.08 0.14,0.03 0.14,0.03 0.29,0.07 0.15,0.02 0.15,0.02 0.3,0.05 0.15,0.02 0.15,0.02 0.3,0.04 0.15,0.01 0.15,0.01 0.31,0.02 0.16,0.01 0.16,0.01 0.31,0.01 0.16,-0.01 0.16,-0.01 0.31,-0.01 0.16,-0.01 0.16,-0.01 0.31,-0.03 0.15,-0.01 0.15,-0.01 0.3,-0.04 0.15,-0.02 0.15,-0.02 0.3,-0.05 0.15,-0.03 0.15,-0.03 0.29,-0.07 0.14,-0.04 0.14,-0.04 0.27,-0.08 0.14,-0.05 0.14,-0.05 0.27,-0.1 0.12,-0.06 0.12,-0.06 0.24,-0.11 0.12,-0.06 0.12,-0.06 0.23,-0.12 0.11,-0.07 0.11,-0.07 0.21,-0.14 0.1,-0.07 0.1,-0.07 0.19,-0.14 0.08,-0.08 0.08,-0.08 0.16,-0.15 0.08,-0.08 0.08,-0.08 0.15,-0.16 0.06,-0.09 0.06,-0.09 0.11,-0.17 0.05,-0.08 0.05,-0.09 0.1,-0.17 0.03,-0.09 0.03,-0.09 0.06,-0.18 0.02,-0.09 0.02,-0.09 0.04,-0.18 0.01,-0.09 0.01,-0.09 0.01,-0.18 0,-0.06 0,-0.06 -0.01,-0.13 0,-0.02 0,-0.02 0,-0.05 -0.02,-0.08 -0.02,-0.09 -0.04,-0.17 -0.04,-0.09 -0.04,-0.09 -0.07,-0.18 -0.05,-0.09 -0.05,-0.09 -0.1,-0.17 -0.06,-0.08 -0.06,-0.08 -0.12,-0.17 -0.07,-0.08 -0.07,-0.08 -0.14,-0.16 -0.03,-0.02 -0.03,-0.02 -0.05,-0.04 -0.06,-0.05 -0.06,-0.05 -0.12,-0.11 -0.1,-0.07 -0.1,-0.07 -0.19,-0.14 -0.11,-0.07 -0.11,-0.07 -0.22,-0.13 -0.11,-0.06 -0.11,-0.06 -0.23,-0.12 -0.12,-0.06 -0.12,-0.06 -0.25,-0.11 -0.13,-0.05 -0.13,-0.05 -0.26,-0.1 -0.14,-0.04 -0.14,-0.04 -0.28,-0.08 -0.14,-0.03 -0.14,-0.03 -0.29,-0.07 -0.14,-0.02 -0.14,-0.03 -0.29,-0.05 m -2.68,-0.77 c -0.21,0.05 -0.21,0.05 -0.41,0.1 -0.2,0.06 -0.2,0.06 -0.39,0.12 -0.19,0.07 -0.19,0.07 -0.38,0.14 -0.18,0.08 -0.18,0.08 -0.35,0.16 -0.16,0.09 -0.16,0.09 -0.33,0.17 -0.15,0.1 -0.15,0.1 -0.3,0.19 -0.13,0.11 -0.13,0.11 -0.27,0.21 -0.11,0.11 -0.11,0.11 -0.23,0.22 -0.11,0.11 -0.11,0.11 -0.21,0.22 -0.08,0.12 -0.08,0.12 -0.16,0.24 -0.07,0.12 -0.07,0.12 -0.14,0.25 -0.04,0.12 -0.04,0.12 -0.09,0.25 -0.03,0.13 -0.03,0.13 -0.06,0.25 -0.01,0.13 -0.01,0.13 -0.01,0.26 0.01,0.13 0.01,0.13 0.02,0.26 0.03,0.13 0.03,0.13 0.06,0.25 0.05,0.13 0.05,0.13 0.1,0.25 0.05,0.09 0.05,0.09 0.1,0.18 m 0.63,-2.97 c 0.39,-0.15 0.39,-0.15 0.78,-0.3 0.36,-0.11 0.36,-0.11 0.72,-0.23 0.34,-0.09 0.34,-0.08 0.68,-0.17 0.12,-0.02 0.12,-0.02 0.24,-0.05 m -3.69,3.35 c 0.09,-0.23 0.09,-0.23 0.17,-0.47 0.09,-0.23 0.09,-0.23 0.18,-0.46 0.09,-0.2 0.09,-0.2 0.17,-0.4 0.09,-0.18 0.09,-0.18 0.18,-0.36 0.09,-0.17 0.09,-0.17 0.18,-0.33 0.09,-0.15 0.09,-0.15 0.19,-0.3 0.1,-0.14 0.1,-0.14 0.2,-0.28" />
      </g>
    </g>
    <g
       id="Actor_.1">
      <g
         style="stroke:#000000;stroke-width:0.353"
         id="g3534">
        <path
           id="path3532"
           d="m 128.39,138.31 -0.03,0.04 m -0.91,-3.58 0.06,0.03 m -4.93,-0.75 h -0.01 m 2.26,0.85 -0.26,1.4 v 1.67 m -2.42,-3.84 -0.24,0.05 m 1.1,-0.19 0.23,-0.02 m 6.14,2.2 c -0.17,-0.15 -0.17,-0.15 -0.35,-0.3 -0.26,-0.21 -0.26,-0.21 -0.53,-0.42 -0.25,-0.18 -0.25,-0.18 -0.5,-0.35 -0.24,-0.15 -0.24,-0.15 -0.49,-0.3 m 0.85,3.55 c -0.12,0.11 -0.12,0.11 -0.24,0.22 -0.14,0.1 -0.14,0.1 -0.27,0.2 -0.01,0.01 -0.01,0.01 -0.01,0.01 m -0.33,-3.98 c 0.15,0.09 0.15,0.09 0.3,0.19 0.14,0.1 0.14,0.1 0.28,0.2 0.12,0.11 0.12,0.11 0.24,0.22 0.1,0.11 0.1,0.11 0.21,0.22 0.08,0.12 0.08,0.12 0.17,0.24 0.07,0.12 0.07,0.12 0.13,0.25 0.06,0.12 0.06,0.12 0.1,0.25 0.04,0.12 0.04,0.12 0.06,0.25 0.02,0.13 0.02,0.13 0.03,0.26 -0.01,0.04 -0.01,0.04 -0.01,0.08 m -7.2,1.6 c 0.07,-0.06 0.07,-0.06 0.14,-0.11 0.07,-0.05 0.07,-0.05 0.15,-0.09 0.08,-0.05 0.08,-0.05 0.16,-0.09 0.09,-0.04 0.09,-0.04 0.18,-0.08 0.09,-0.03 0.09,-0.03 0.18,-0.07 0.1,-0.03 0.1,-0.03 0.2,-0.06 0.1,-0.02 0.1,-0.02 0.21,-0.05 0.1,-0.02 0.1,-0.02 0.21,-0.04 0.11,-0.01 0.11,-0.01 0.22,-0.03 0.11,-0.01 0.11,-0.01 0.22,-0.01 0.11,-0.01 0.11,-0.01 0.22,-0.01 0.11,0 0.11,0 0.22,0 0.11,0.01 0.11,0.01 0.22,0.02 0.11,0.01 0.11,0.01 0.22,0.03 m -2.75,0.59 c -0.05,-0.05 -0.05,-0.05 -0.1,-0.09 -0.05,-0.06 -0.05,-0.06 -0.1,-0.11 -0.05,-0.06 -0.05,-0.06 -0.09,-0.12 -0.04,-0.06 -0.04,-0.06 -0.07,-0.12 -0.02,-0.07 -0.02,-0.07 -0.05,-0.13 -0.01,-0.06 -0.01,-0.06 -0.03,-0.13 -0.01,-0.06 -0.01,-0.06 -0.01,-0.13 0,-0.06 0,-0.06 0.01,-0.12 0.01,-0.07 0.01,-0.07 0.03,-0.13 0.02,-0.06 0.02,-0.06 0.04,-0.13 0.04,-0.06 0.04,-0.06 0.07,-0.12 0.04,-0.06 0.04,-0.06 0.08,-0.12 0.05,-0.06 0.05,-0.06 0.11,-0.11 0.05,-0.06 0.05,-0.06 0.11,-0.11 0.07,-0.05 0.07,-0.05 0.14,-0.1 0.07,-0.05 0.07,-0.05 0.15,-0.1 0.08,-0.04 0.08,-0.04 0.16,-0.09 0.09,-0.04 0.09,-0.04 0.18,-0.08 0.09,-0.03 0.09,-0.03 0.18,-0.07 0.1,-0.03 0.1,-0.03 0.2,-0.06 0.03,0 0.03,0 0.07,-0.01 0.07,-0.02 0.07,-0.02 0.14,-0.04 0.1,-0.02 0.1,-0.02 0.21,-0.03 0.11,-0.02 0.11,-0.02 0.22,-0.03 0.11,-0.01 0.11,-0.01 0.22,-0.02 0.11,0 0.11,0 0.22,-0.01 0.11,0.01 0.11,0.01 0.22,0.01 0.11,0.01 0.11,0.01 0.22,0.01 0.11,0.02 0.11,0.02 0.22,0.03 0.11,0.02 0.11,0.02 0.21,0.04 0.1,0.02 0.1,0.02 0.21,0.05 0.1,0.03 0.1,0.03 0.2,0.06 0.09,0.03 0.09,0.03 0.18,0.07 0.09,0.03 0.09,0.03 0.18,0.07 0.08,0.05 0.08,0.05 0.17,0.09 0.07,0.05 0.07,0.05 0.15,0.09 0.07,0.05 0.07,0.05 0.13,0.1 0.07,0.06 0.07,0.06 0.12,0.11 0.06,0.06 0.06,0.06 0.11,0.12 0.04,0.06 0.04,0.06 0.08,0.12 0.04,0.06 0.04,0.06 0.07,0.12 0.03,0.06 0.03,0.06 0.05,0.12 0.02,0.07 0.02,0.07 0.03,0.13 0.01,0.06 0.01,0.06 0.01,0.13 0,0.06 0,0.06 0,0.13 -0.02,0.06 -0.02,0.06 -0.03,0.12 -0.03,0.07 -0.03,0.07 -0.05,0.13 -0.03,0.06 -0.03,0.06 -0.07,0.12 -0.04,0.06 -0.04,0.06 -0.08,0.12 -0.05,0.06 -0.05,0.06 -0.1,0.12 -0.06,0.05 -0.06,0.05 -0.11,0.1 m -1.46,-0.59 c 0.11,0.02 0.11,0.02 0.21,0.04 0.1,0.02 0.1,0.02 0.21,0.04 0.1,0.03 0.1,0.03 0.2,0.06 0.09,0.04 0.09,0.04 0.18,0.07 0.09,0.04 0.09,0.04 0.18,0.08 0.08,0.04 0.08,0.04 0.17,0.09 0.07,0.04 0.07,0.04 0.15,0.09 0.07,0.05 0.07,0.05 0.13,0.1 0.01,0.01 0.01,0.01 0.02,0.02 m -1.19,-3.66 c -0.15,-0.03 -0.15,-0.02 -0.31,-0.04 -0.15,-0.01 -0.15,-0.01 -0.31,-0.02 -0.15,-0.01 -0.15,-0.01 -0.31,-0.01 -0.15,0 -0.15,0 -0.31,0.01 -0.15,0.01 -0.15,0.01 -0.31,0.02 -0.15,0.02 -0.15,0.02 -0.3,0.04 -0.04,0.01 -0.04,0.01 -0.08,0.02 -0.11,0.02 -0.11,0.02 -0.22,0.04 -0.14,0.03 -0.14,0.03 -0.29,0.07 -0.13,0.04 -0.13,0.04 -0.27,0.08 -0.13,0.05 -0.13,0.05 -0.26,0.1 -0.13,0.05 -0.13,0.05 -0.25,0.11 -0.11,0.06 -0.11,0.06 -0.23,0.12 -0.1,0.07 -0.1,0.07 -0.21,0.14 -0.09,0.07 -0.09,0.07 -0.19,0.14 -0.08,0.07 -0.08,0.07 -0.16,0.15 -0.07,0.08 -0.07,0.08 -0.14,0.16 -0.06,0.08 -0.06,0.08 -0.12,0.17 -0.05,0.08 -0.05,0.08 -0.09,0.17 -0.04,0.09 -0.04,0.09 -0.07,0.18 -0.02,0.08 -0.02,0.09 -0.04,0.17 -0.01,0.09 -0.01,0.09 -0.01,0.18 0.01,0.09 0.01,0.09 0.01,0.18 0.02,0.09 0.02,0.09 0.05,0.18 0.03,0.09 0.03,0.09 0.07,0.18 0.04,0.08 0.04,0.08 0.09,0.17 0.06,0.08 0.06,0.08 0.12,0.16 0.07,0.09 0.07,0.09 0.15,0.16 0.08,0.08 0.08,0.08 0.17,0.16 0.09,0.07 0.09,0.07 0.19,0.14 0.1,0.06 0.1,0.06 0.21,0.13 0.11,0.06 0.11,0.06 0.23,0.12 0.12,0.06 0.12,0.06 0.25,0.11 0.13,0.05 0.13,0.05 0.26,0.09 0.14,0.05 0.14,0.05 0.28,0.09 0.14,0.03 0.14,0.03 0.29,0.07 0.15,0.02 0.15,0.02 0.3,0.05 0.15,0.02 0.15,0.02 0.3,0.04 0.16,0.01 0.16,0.01 0.31,0.02 0.16,0 0.16,0 0.31,0.01 0.16,-0.01 0.16,-0.01 0.31,-0.01 0.16,-0.01 0.16,-0.01 0.31,-0.03 0.15,-0.02 0.15,-0.02 0.31,-0.04 0.14,-0.02 0.14,-0.02 0.29,-0.05 0.15,-0.04 0.15,-0.04 0.29,-0.07 0.14,-0.04 0.14,-0.04 0.28,-0.09 0.13,-0.04 0.13,-0.04 0.26,-0.09 0.12,-0.06 0.12,-0.06 0.24,-0.11 0.12,-0.06 0.12,-0.06 0.23,-0.13 0.07,-0.04 0.07,-0.04 0.13,-0.08 0.04,-0.02 0.04,-0.02 0.08,-0.05 0.1,-0.07 0.1,-0.07 0.19,-0.14 0.08,-0.08 0.08,-0.08 0.17,-0.16 0.07,-0.07 0.07,-0.07 0.14,-0.16 0.06,-0.08 0.06,-0.08 0.12,-0.16 0.04,-0.09 0.04,-0.09 0.09,-0.17 0.01,-0.04 0.01,-0.04 0.02,-0.07 0.02,-0.05 0.02,-0.05 0.04,-0.11 0.02,-0.09 0.02,-0.09 0.04,-0.18 0.01,-0.09 0.01,-0.09 0.01,-0.18 0,-0.09 0,-0.09 -0.01,-0.18 -0.02,-0.09 -0.02,-0.09 -0.04,-0.18 -0.04,-0.08 -0.04,-0.08 -0.07,-0.17 -0.05,-0.09 -0.05,-0.09 -0.1,-0.17 -0.06,-0.09 -0.06,-0.09 -0.12,-0.17 -0.07,-0.08 -0.07,-0.08 -0.14,-0.16 -0.09,-0.07 -0.09,-0.07 -0.17,-0.15 -0.1,-0.07 -0.1,-0.07 -0.19,-0.14 -0.11,-0.07 -0.11,-0.07 -0.22,-0.13 -0.11,-0.06 -0.11,-0.06 -0.23,-0.12 -0.12,-0.06 -0.12,-0.06 -0.24,-0.11 -0.14,-0.05 -0.14,-0.05 -0.27,-0.1 -0.14,-0.04 -0.14,-0.04 -0.28,-0.08 -0.14,-0.04 -0.14,-0.04 -0.28,-0.07 -0.15,-0.03 -0.15,-0.03 -0.3,-0.05 m -5.1,-0.03 c -0.1,0.14 -0.1,0.14 -0.2,0.28 -0.1,0.15 -0.1,0.16 -0.19,0.31 -0.09,0.16 -0.09,0.16 -0.18,0.32 -0.09,0.18 -0.09,0.18 -0.17,0.37 -0.05,0.12 -0.05,0.12 -0.1,0.25 -0.03,0.12 -0.03,0.12 -0.05,0.25 -0.01,0.13 -0.01,0.13 -0.02,0.26 0.01,0.13 0.01,0.13 0.02,0.26 0.03,0.12 0.03,0.12 0.06,0.25 0.05,0.13 0.05,0.13 0.1,0.25 0.05,0.09 0.05,0.09 0.1,0.18 m 2.81,-3.67 c -0.34,0.08 -0.34,0.08 -0.68,0.17 -0.36,0.11 -0.36,0.11 -0.72,0.23 -0.39,0.14 -0.39,0.14 -0.78,0.29 m 7.72,-0.1 c -0.13,-0.08 -0.13,-0.08 -0.27,-0.14 -0.18,-0.08 -0.18,-0.08 -0.35,-0.16 -0.19,-0.07 -0.19,-0.07 -0.38,-0.14 -0.2,-0.06 -0.2,-0.06 -0.4,-0.11 -0.2,-0.05 -0.2,-0.05 -0.41,-0.1 -0.21,-0.04 -0.21,-0.04 -0.42,-0.08 -0.22,-0.03 -0.22,-0.03 -0.44,-0.05 -0.22,-0.02 -0.22,-0.02 -0.44,-0.03 -0.22,-0.01 -0.22,-0.01 -0.45,-0.01 -0.22,0 -0.22,0 -0.44,0.01 -0.22,0.02 -0.22,0.02 -0.44,0.03 -0.22,0.03 -0.22,0.03 -0.43,0.06 -0.22,0.04 -0.22,0.04 -0.43,0.08 -0.21,0.05 -0.21,0.05 -0.41,0.1 -0.2,0.06 -0.2,0.06 -0.39,0.12 -0.19,0.07 -0.19,0.07 -0.38,0.14 -0.17,0.08 -0.17,0.08 -0.35,0.16 -0.16,0.08 -0.16,0.08 -0.33,0.17 -0.15,0.09 -0.15,0.1 -0.3,0.19 -0.13,0.1 -0.13,0.1 -0.26,0.21 -0.12,0.1 -0.12,0.1 -0.24,0.21 -0.1,0.12 -0.1,0.12 -0.2,0.23 -0.09,0.12 -0.09,0.12 -0.17,0.24 -0.07,0.12 -0.07,0.12 -0.13,0.25 -0.09,0.2 -0.09,0.2 -0.18,0.4 -0.09,0.23 -0.09,0.23 -0.18,0.46 -0.08,0.24 -0.08,0.24 -0.17,0.47 m 4.78,-3.51 c 0.34,-0.02 0.34,-0.02 0.68,-0.04 0.36,0 0.36,0 0.72,0 0.39,0.02 0.39,0.01 0.78,0.04 0.28,0.08 0.28,0.08 0.57,0.16 0.27,0.09 0.27,0.1 0.53,0.19 0.25,0.11 0.25,0.11 0.5,0.22 0.22,0.11 0.22,0.11 0.43,0.23" />
      </g>
    </g>
    <g
       id="Actor_.2">
      <g
         style="stroke:#000000;stroke-width:0.353"
         id="g3567">
        <path
           id="path3565"
           d="M 210.22,90.08 V 90 m -0.63,1.43 -0.04,0.04 -0.24,0.22 -0.28,0.21 m -5.68,-4.65 0.42,-0.08 v 0 m 2.25,0.85 -0.25,1.4 v 1.67 m 2.94,-3.17 c 0.24,0.15 0.24,0.15 0.49,0.3 0.25,0.18 0.25,0.18 0.5,0.35 0.26,0.21 0.26,0.21 0.53,0.42 0.17,0.15 0.17,0.15 0.35,0.31 m -0.36,0.7 c -0.01,-0.13 -0.01,-0.13 -0.02,-0.26 -0.03,-0.13 -0.03,-0.13 -0.06,-0.25 -0.05,-0.13 -0.05,-0.13 -0.1,-0.25 -0.07,-0.13 -0.07,-0.13 -0.14,-0.25 -0.08,-0.12 -0.08,-0.12 -0.17,-0.23 -0.1,-0.12 -0.1,-0.12 -0.21,-0.23 -0.12,-0.11 -0.12,-0.11 -0.24,-0.22 -0.13,-0.1 -0.13,-0.1 -0.27,-0.2 -0.15,-0.1 -0.15,-0.1 -0.3,-0.19 m -2.94,3.17 c 0.1,0.02 0.1,0.02 0.21,0.04 0.1,0.02 0.1,0.02 0.2,0.05 0.1,0.03 0.1,0.03 0.2,0.06 0.1,0.03 0.1,0.03 0.19,0.06 0.09,0.04 0.09,0.04 0.18,0.08 0.08,0.04 0.08,0.04 0.16,0.09 0.08,0.04 0.08,0.04 0.15,0.09 0.07,0.05 0.07,0.05 0.14,0.1 0.01,0.01 0.01,0.01 0.02,0.02 m 1.49,-3.76 c -0.25,-0.13 -0.25,-0.13 -0.49,-0.26 -0.25,-0.11 -0.25,-0.11 -0.5,-0.22 -0.27,-0.09 -0.27,-0.09 -0.53,-0.19 -0.29,-0.08 -0.29,-0.08 -0.58,-0.15 -0.39,-0.03 -0.39,-0.03 -0.78,-0.05 -0.36,0 -0.36,0 -0.72,0 -0.34,0.02 -0.34,0.02 -0.68,0.04 -0.11,0.01 -0.11,0.01 -0.23,0.03 -0.21,0.02 -0.21,0.02 -0.43,0.05 m 0.43,-0.05 c 0.22,-0.02 0.22,-0.02 0.45,-0.04 0.22,-0.01 0.22,-0.01 0.44,-0.01 0.22,0 0.22,0 0.45,0.01 0.22,0.01 0.22,0.01 0.44,0.03 0.21,0.03 0.21,0.03 0.43,0.05 0.21,0.04 0.22,0.04 0.43,0.08 0.2,0.05 0.2,0.05 0.41,0.1 0.2,0.06 0.2,0.06 0.4,0.12 0.18,0.06 0.18,0.06 0.37,0.13 0.18,0.08 0.18,0.08 0.36,0.16 0.16,0.08 0.16,0.08 0.33,0.17 m -1.49,3.76 c 0.06,-0.05 0.06,-0.05 0.11,-0.1 0.06,-0.06 0.06,-0.06 0.11,-0.12 0.04,-0.06 0.04,-0.06 0.08,-0.12 0.03,-0.06 0.03,-0.06 0.07,-0.12 0.02,-0.06 0.02,-0.06 0.04,-0.12 0.02,-0.07 0.02,-0.07 0.03,-0.13 0.01,-0.07 0.01,-0.07 0.01,-0.13 0,-0.06 0,-0.06 -0.01,-0.13 -0.02,-0.06 -0.02,-0.06 -0.03,-0.13 -0.03,-0.06 -0.03,-0.06 -0.05,-0.12 -0.03,-0.06 -0.03,-0.06 -0.07,-0.12 -0.04,-0.06 -0.04,-0.06 -0.09,-0.12 -0.05,-0.06 -0.05,-0.06 -0.1,-0.12 -0.06,-0.05 -0.06,-0.05 -0.12,-0.1 -0.05,-0.04 -0.05,-0.04 -0.1,-0.08 -0.02,-0.01 -0.02,-0.01 -0.04,-0.02 -0.07,-0.05 -0.07,-0.05 -0.15,-0.1 -0.08,-0.04 -0.08,-0.04 -0.16,-0.09 -0.09,-0.03 -0.09,-0.03 -0.18,-0.07 -0.09,-0.04 -0.09,-0.04 -0.19,-0.07 -0.1,-0.03 -0.1,-0.03 -0.2,-0.06 -0.1,-0.03 -0.1,-0.03 -0.2,-0.05 -0.11,-0.02 -0.11,-0.02 -0.21,-0.04 -0.11,-0.01 -0.11,-0.01 -0.22,-0.02 -0.11,-0.01 -0.11,-0.01 -0.22,-0.02 -0.11,0 -0.11,0 -0.23,-0.01 -0.11,0.01 -0.11,0.01 -0.22,0.01 -0.11,0.01 -0.11,0.01 -0.22,0.02 -0.11,0.01 -0.11,0.01 -0.22,0.03 -0.1,0.02 -0.1,0.02 -0.21,0.04 -0.1,0.02 -0.1,0.02 -0.2,0.05 -0.1,0.03 -0.1,0.03 -0.2,0.06 -0.09,0.03 -0.09,0.03 -0.19,0.07 -0.09,0.03 -0.09,0.03 -0.17,0.07 -0.08,0.05 -0.08,0.05 -0.17,0.09 -0.07,0.05 -0.07,0.05 -0.15,0.1 -0.06,0.05 -0.06,0.05 -0.13,0.1 -0.06,0.05 -0.06,0.05 -0.12,0.11 -0.05,0.06 -0.05,0.06 -0.1,0.11 -0.04,0.06 -0.04,0.06 -0.08,0.12 -0.04,0.06 -0.04,0.06 -0.07,0.12 -0.02,0.07 -0.02,0.07 -0.05,0.13 -0.01,0.06 -0.01,0.06 -0.03,0.13 0,0.06 0,0.06 0,0.13 0,0.06 0,0.06 0.01,0.12 0.01,0.07 0.01,0.07 0.03,0.13 0.02,0.06 0.02,0.06 0.05,0.13 0.03,0.06 0.03,0.06 0.06,0.12 0.05,0.06 0.05,0.06 0.09,0.12 0.05,0.06 0.05,0.06 0.11,0.11 0.04,0.05 0.04,0.05 0.09,0.09 m 2.76,-0.59 c -0.11,-0.01 -0.11,-0.01 -0.22,-0.03 -0.11,-0.01 -0.11,-0.01 -0.22,-0.01 -0.11,-0.01 -0.11,-0.01 -0.23,-0.01 -0.11,0 -0.11,0 -0.22,0.01 -0.11,0.01 -0.11,0.01 -0.22,0.02 -0.11,0.01 -0.11,0.01 -0.22,0.02 -0.1,0.02 -0.1,0.02 -0.21,0.04 -0.1,0.03 -0.1,0.03 -0.2,0.05 -0.1,0.03 -0.1,0.03 -0.2,0.06 -0.09,0.04 -0.09,0.04 -0.19,0.07 -0.09,0.04 -0.09,0.04 -0.17,0.08 -0.08,0.04 -0.08,0.04 -0.17,0.09 -0.07,0.05 -0.07,0.05 -0.15,0.09 -0.07,0.06 -0.07,0.06 -0.13,0.11 m 3,-3.66 c -0.15,-0.02 -0.15,-0.02 -0.3,-0.04 -0.16,-0.01 -0.16,-0.01 -0.31,-0.02 -0.16,-0.01 -0.16,-0.01 -0.31,-0.01 -0.16,0.01 -0.16,0.01 -0.31,0.01 -0.16,0.01 -0.16,0.01 -0.31,0.03 -0.15,0.01 -0.15,0.01 -0.31,0.04 -0.14,0.02 -0.14,0.02 -0.29,0.05 -0.1,0.02 -0.1,0.02 -0.19,0.05 -0.05,0.01 -0.05,0.01 -0.1,0.02 -0.14,0.04 -0.14,0.04 -0.28,0.08 -0.13,0.05 -0.13,0.05 -0.26,0.1 -0.12,0.06 -0.12,0.06 -0.24,0.11 -0.12,0.06 -0.12,0.06 -0.23,0.12 -0.11,0.07 -0.11,0.07 -0.21,0.14 -0.1,0.07 -0.1,0.07 -0.19,0.14 -0.08,0.08 -0.08,0.08 -0.17,0.15 -0.07,0.08 -0.07,0.08 -0.14,0.16 -0.06,0.09 -0.06,0.09 -0.12,0.17 -0.04,0.09 -0.04,0.09 -0.09,0.17 -0.03,0.09 -0.03,0.09 -0.06,0.18 -0.02,0.09 -0.02,0.09 -0.04,0.18 -0.01,0.09 -0.01,0.09 -0.01,0.18 0,0.09 0,0.09 0.01,0.18 0.02,0.08 0.02,0.09 0.04,0.17 0.04,0.09 0.04,0.09 0.07,0.18 0.05,0.09 0.05,0.09 0.1,0.17 0.06,0.08 0.06,0.08 0.12,0.17 0.07,0.08 0.07,0.08 0.14,0.16 0.09,0.07 0.09,0.07 0.17,0.15 0.1,0.07 0.1,0.07 0.19,0.14 0.11,0.07 0.11,0.07 0.22,0.13 0.11,0.06 0.11,0.06 0.23,0.12 0.12,0.06 0.12,0.06 0.24,0.11 0.14,0.05 0.14,0.05 0.27,0.1 0.14,0.04 0.14,0.04 0.28,0.08 0.14,0.03 0.14,0.03 0.28,0.07 0.15,0.02 0.15,0.02 0.3,0.05 0.15,0.02 0.15,0.02 0.31,0.04 0.15,0.01 0.15,0.01 0.31,0.02 0.15,0 0.15,0 0.31,0.01 0.15,-0.01 0.15,-0.01 0.31,-0.01 0.15,-0.01 0.15,-0.01 0.31,-0.03 0.15,-0.02 0.15,-0.02 0.3,-0.04 0.15,-0.02 0.15,-0.02 0.3,-0.05 0.14,-0.04 0.14,-0.04 0.29,-0.07 0.13,-0.04 0.13,-0.04 0.27,-0.08 0.13,-0.05 0.13,-0.05 0.26,-0.1 0.13,-0.06 0.13,-0.06 0.25,-0.11 0.11,-0.06 0.11,-0.06 0.23,-0.12 0.1,-0.07 0.1,-0.07 0.21,-0.14 0.09,-0.07 0.09,-0.07 0.19,-0.14 0.08,-0.08 0.08,-0.08 0.16,-0.15 0.07,-0.08 0.07,-0.08 0.14,-0.16 0.06,-0.09 0.06,-0.09 0.12,-0.17 0.05,-0.09 0.05,-0.09 0.09,-0.17 0.04,-0.09 0.04,-0.09 0.07,-0.18 0.02,-0.09 0.02,-0.09 0.04,-0.18 0.01,-0.09 0.01,-0.09 0.01,-0.18 -0.01,-0.09 -0.01,-0.09 -0.01,-0.18 -0.02,-0.09 -0.02,-0.09 -0.05,-0.17 -0.03,-0.09 -0.03,-0.09 -0.07,-0.18 -0.04,-0.09 -0.04,-0.09 -0.09,-0.17 -0.06,-0.08 -0.06,-0.08 -0.12,-0.17 -0.07,-0.08 -0.07,-0.08 -0.15,-0.16 -0.08,-0.07 -0.08,-0.07 -0.17,-0.15 -0.09,-0.07 -0.09,-0.07 -0.19,-0.14 -0.1,-0.07 -0.1,-0.07 -0.21,-0.13 -0.11,-0.06 -0.11,-0.06 -0.23,-0.12 -0.12,-0.06 -0.12,-0.06 -0.25,-0.11 -0.13,-0.05 -0.13,-0.05 -0.26,-0.1 -0.14,-0.04 -0.14,-0.04 -0.28,-0.08 -0.14,-0.03 -0.14,-0.03 -0.29,-0.07 -0.15,-0.02 -0.15,-0.03 -0.3,-0.05 m -2.67,-0.77 c -0.21,0.05 -0.21,0.05 -0.41,0.1 -0.2,0.06 -0.2,0.06 -0.4,0.12 -0.18,0.07 -0.19,0.07 -0.37,0.14 -0.18,0.08 -0.18,0.08 -0.35,0.16 -0.17,0.08 -0.17,0.08 -0.33,0.17 -0.15,0.1 -0.15,0.1 -0.3,0.19 -0.13,0.1 -0.13,0.1 -0.27,0.21 -0.12,0.11 -0.12,0.11 -0.24,0.22 -0.1,0.11 -0.1,0.11 -0.2,0.22 -0.08,0.12 -0.08,0.12 -0.17,0.24 -0.06,0.12 -0.06,0.12 -0.13,0.25 -0.09,0.2 -0.09,0.2 -0.17,0.4 -0.09,0.23 -0.09,0.23 -0.18,0.46 -0.09,0.24 -0.09,0.24 -0.17,0.47 m 1.27,-2.61 c 0.39,-0.14 0.39,-0.14 0.78,-0.29 0.36,-0.11 0.36,-0.11 0.72,-0.23 0.34,-0.09 0.34,-0.08 0.68,-0.17 0.12,-0.03 0.12,-0.03 0.24,-0.05 m -3.06,3.72 c -0.05,-0.09 -0.05,-0.09 -0.09,-0.18 -0.05,-0.12 -0.06,-0.12 -0.1,-0.25 -0.04,-0.12 -0.04,-0.12 -0.06,-0.25 -0.02,-0.13 -0.02,-0.13 -0.03,-0.26 0.01,-0.13 0.01,-0.13 0.02,-0.26 0.03,-0.12 0.03,-0.12 0.06,-0.25 0.04,-0.13 0.04,-0.13 0.09,-0.25 0.09,-0.18 0.09,-0.18 0.18,-0.36 0.08,-0.17 0.08,-0.17 0.17,-0.33 0.1,-0.15 0.1,-0.15 0.19,-0.3 0.1,-0.15 0.1,-0.15 0.21,-0.29" />
      </g>
    </g>
    <g
       id="Actor_.3">
      <g
         style="stroke:#000000;stroke-width:0.353"
         id="g3602">
        <path
           id="path3600"
           d="m 236.65,75.81 -0.03,0.04 m -3.53,-3.46 -0.26,1.41 v 1.66 m -2.42,-3.83 -0.24,0.04 m 0.67,-0.12 v 0 m 4.93,0.74 c 0.25,0.15 0.25,0.15 0.49,0.3 0.25,0.18 0.25,0.18 0.5,0.36 0.27,0.2 0.27,0.2 0.53,0.41 0.18,0.16 0.18,0.16 0.36,0.31 m -1.03,2.18 c -0.12,0.11 -0.12,0.11 -0.24,0.22 -0.13,0.1 -0.13,0.1 -0.27,0.2 -0.01,0 -0.01,0 -0.01,0.01 m -0.55,-4.1 c 0.11,0.06 0.11,0.06 0.22,0.11 0.15,0.1 0.15,0.1 0.3,0.19 0.14,0.1 0.14,0.1 0.28,0.21 0.12,0.1 0.12,0.1 0.24,0.21 0.1,0.11 0.1,0.11 0.21,0.23 0.08,0.12 0.08,0.12 0.17,0.24 0.07,0.12 0.07,0.12 0.14,0.24 0.05,0.13 0.05,0.13 0.09,0.25 0.04,0.13 0.04,0.13 0.06,0.26 0.02,0.12 0.02,0.12 0.03,0.25 -0.01,0.04 -0.01,0.04 -0.01,0.08 m -1.73,-2.27 c -0.13,-0.07 -0.13,-0.07 -0.27,-0.14 -0.25,-0.11 -0.25,-0.12 -0.5,-0.22 -0.26,-0.1 -0.26,-0.1 -0.53,-0.19 -0.28,-0.08 -0.28,-0.09 -0.57,-0.16 -0.39,-0.03 -0.39,-0.03 -0.78,-0.05 -0.36,0 -0.36,0 -0.72,0 -0.34,0.02 -0.34,0.02 -0.68,0.04 -0.12,0.02 -0.12,0.02 -0.23,0.03 m -0.43,0.06 c 0.21,-0.03 0.21,-0.03 0.43,-0.06 0.22,-0.02 0.22,-0.02 0.44,-0.04 0.22,0 0.22,0 0.45,-0.01 0.22,0.01 0.22,0.01 0.44,0.01 0.22,0.02 0.22,0.02 0.44,0.03 0.22,0.03 0.22,0.03 0.44,0.06 0.21,0.04 0.21,0.04 0.42,0.07 0.21,0.05 0.21,0.05 0.41,0.1 0.2,0.06 0.2,0.06 0.4,0.12 0.19,0.07 0.19,0.07 0.38,0.14 0.18,0.07 0.18,0.07 0.35,0.15 0.06,0.03 0.06,0.03 0.11,0.06 m -5.47,3.87 c 0.07,-0.05 0.07,-0.05 0.14,-0.1 0.07,-0.05 0.07,-0.05 0.15,-0.1 0.08,-0.04 0.08,-0.04 0.16,-0.08 0.09,-0.04 0.09,-0.04 0.18,-0.08 0.09,-0.04 0.09,-0.04 0.19,-0.07 0.09,-0.03 0.09,-0.03 0.19,-0.06 0.1,-0.03 0.1,-0.03 0.21,-0.05 0.1,-0.02 0.1,-0.02 0.21,-0.04 0.11,-0.02 0.11,-0.02 0.22,-0.03 0.11,-0.01 0.11,-0.01 0.22,-0.02 0.09,0 0.09,0 0.19,0 0.01,0 0.01,0 0.03,0 0.11,0 0.11,0 0.22,0 0.11,0.01 0.11,0.01 0.22,0.02 0.11,0.01 0.11,0.01 0.22,0.02 m 1.46,0.59 c 0.06,-0.05 0.06,-0.05 0.11,-0.1 0.05,-0.06 0.05,-0.06 0.1,-0.11 0.04,-0.06 0.04,-0.06 0.09,-0.12 0.03,-0.06 0.03,-0.06 0.06,-0.12 0.03,-0.07 0.03,-0.07 0.05,-0.13 0.01,-0.06 0.01,-0.06 0.03,-0.13 0,-0.06 0,-0.06 0,-0.13 0,-0.06 0,-0.06 -0.01,-0.12 -0.01,-0.07 -0.01,-0.07 -0.03,-0.13 -0.02,-0.06 -0.02,-0.06 -0.05,-0.13 -0.03,-0.06 -0.03,-0.06 -0.06,-0.12 -0.05,-0.06 -0.05,-0.06 -0.09,-0.12 -0.05,-0.06 -0.05,-0.06 -0.1,-0.11 -0.06,-0.06 -0.06,-0.06 -0.12,-0.11 -0.07,-0.05 -0.07,-0.05 -0.14,-0.1 -0.08,-0.05 -0.08,-0.05 -0.15,-0.1 -0.08,-0.04 -0.08,-0.04 -0.17,-0.08 -0.09,-0.04 -0.09,-0.04 -0.17,-0.08 -0.1,-0.03 -0.1,-0.03 -0.19,-0.07 -0.1,-0.03 -0.1,-0.03 -0.2,-0.06 -0.1,-0.02 -0.1,-0.02 -0.21,-0.05 -0.1,-0.01 -0.1,-0.01 -0.21,-0.03 -0.11,-0.02 -0.11,-0.02 -0.22,-0.03 -0.11,-0.01 -0.11,-0.01 -0.22,-0.02 -0.11,0 -0.11,0 -0.22,0 -0.11,0 -0.11,0 -0.22,0.01 -0.11,0 -0.11,0 -0.22,0.01 -0.11,0.02 -0.11,0.02 -0.22,0.03 -0.11,0.02 -0.11,0.02 -0.21,0.04 -0.11,0.02 -0.11,0.02 -0.21,0.05 -0.1,0.03 -0.1,0.03 -0.19,0.06 -0.1,0.03 -0.1,0.03 -0.19,0.07 -0.09,0.04 -0.09,0.04 -0.18,0.08 -0.08,0.04 -0.08,0.04 -0.16,0.09 -0.08,0.04 -0.08,0.04 -0.15,0.09 -0.07,0.05 -0.07,0.05 -0.13,0.1 -0.06,0.06 -0.06,0.06 -0.12,0.11 -0.05,0.06 -0.06,0.06 -0.11,0.12 -0.04,0.06 -0.04,0.06 -0.08,0.12 -0.03,0.06 -0.03,0.06 -0.07,0.12 -0.02,0.06 -0.02,0.06 -0.04,0.12 -0.02,0.07 -0.02,0.07 -0.03,0.13 -0.01,0.07 -0.01,0.07 -0.01,0.13 0.01,0.06 0.01,0.06 0.01,0.13 0.02,0.06 0.02,0.06 0.03,0.13 0.03,0.06 0.03,0.06 0.05,0.12 0.04,0.06 0.04,0.06 0.07,0.12 0.04,0.06 0.04,0.06 0.09,0.12 0.05,0.06 0.05,0.06 0.1,0.12 0.05,0.04 0.05,0.04 0.1,0.08 m 2.75,-0.59 c 0.11,0.02 0.11,0.02 0.21,0.04 0.11,0.03 0.11,0.03 0.21,0.05 0.1,0.03 0.1,0.03 0.2,0.06 0.09,0.03 0.09,0.03 0.19,0.07 0.08,0.04 0.08,0.04 0.17,0.07 0.09,0.05 0.09,0.05 0.17,0.09 0.07,0.05 0.07,0.05 0.15,0.1 0.07,0.05 0.07,0.05 0.14,0.1 0.01,0.01 0.01,0.01 0.02,0.01 m -1.2,-3.66 c -0.15,-0.02 -0.15,-0.02 -0.31,-0.03 -0.15,-0.02 -0.15,-0.02 -0.3,-0.03 -0.16,0 -0.16,0 -0.32,0 -0.15,0 -0.15,0 -0.31,0 -0.15,0.02 -0.15,0.02 -0.31,0.03 -0.15,0.02 -0.15,0.02 -0.3,0.04 -0.15,0.03 -0.15,0.03 -0.3,0.05 -0.14,0.04 -0.14,0.04 -0.28,0.07 -0.14,0.05 -0.14,0.05 -0.28,0.09 -0.13,0.05 -0.13,0.05 -0.26,0.1 -0.13,0.05 -0.13,0.05 -0.25,0.11 -0.11,0.06 -0.11,0.06 -0.23,0.12 -0.1,0.06 -0.1,0.06 -0.21,0.13 -0.09,0.07 -0.09,0.07 -0.18,0.14 -0.09,0.08 -0.09,0.08 -0.17,0.16 -0.07,0.08 -0.07,0.08 -0.14,0.16 -0.06,0.08 -0.06,0.08 -0.12,0.16 -0.05,0.09 -0.05,0.09 -0.09,0.18 -0.04,0.08 -0.04,0.08 -0.07,0.17 -0.02,0.09 -0.02,0.09 -0.04,0.18 0,0.09 0,0.09 -0.01,0.18 0.01,0.09 0.01,0.09 0.02,0.18 0.02,0.09 0.02,0.09 0.04,0.18 0.03,0.09 0.03,0.09 0.07,0.17 0.04,0.09 0.04,0.09 0.09,0.17 0.06,0.09 0.06,0.09 0.12,0.17 0.08,0.08 0.08,0.08 0.15,0.16 0.08,0.08 0.08,0.08 0.17,0.15 0.09,0.07 0.09,0.07 0.19,0.14 0.1,0.07 0.1,0.07 0.21,0.13 0.12,0.07 0.12,0.07 0.23,0.13 0.13,0.05 0.13,0.05 0.25,0.1 0.13,0.05 0.13,0.05 0.26,0.1 0.14,0.04 0.14,0.04 0.28,0.08 0.15,0.04 0.15,0.04 0.29,0.07 0.15,0.03 0.15,0.03 0.3,0.05 0.15,0.02 0.15,0.02 0.3,0.04 0.16,0.01 0.16,0.01 0.31,0.02 0.16,0.01 0.16,0.01 0.31,0.01 0.16,0 0.16,0 0.31,-0.01 0.16,-0.01 0.16,-0.01 0.31,-0.02 0.15,-0.02 0.15,-0.02 0.31,-0.04 0.15,-0.03 0.15,-0.03 0.29,-0.06 0.15,-0.03 0.15,-0.03 0.29,-0.07 0.14,-0.04 0.14,-0.04 0.28,-0.08 0.13,-0.05 0.13,-0.05 0.26,-0.1 0.12,-0.05 0.12,-0.05 0.24,-0.11 0.12,-0.06 0.12,-0.06 0.23,-0.12 0.07,-0.04 0.07,-0.04 0.13,-0.08 0.04,-0.03 0.04,-0.03 0.08,-0.05 0.1,-0.08 0.1,-0.08 0.19,-0.15 0.08,-0.07 0.08,-0.07 0.17,-0.15 0.07,-0.08 0.07,-0.08 0.14,-0.16 0.06,-0.08 0.06,-0.08 0.12,-0.17 0.04,-0.08 0.04,-0.08 0.09,-0.17 0.03,-0.09 0.03,-0.09 0.06,-0.17 0.03,-0.09 0.03,-0.09 0.04,-0.18 0.01,-0.09 0.01,-0.09 0.02,-0.18 -0.01,-0.09 -0.01,-0.09 -0.02,-0.18 -0.02,-0.09 -0.02,-0.09 -0.04,-0.18 -0.04,-0.09 -0.04,-0.09 -0.07,-0.18 -0.05,-0.08 -0.05,-0.08 -0.1,-0.17 -0.06,-0.08 -0.06,-0.08 -0.12,-0.16 -0.07,-0.08 -0.07,-0.08 -0.14,-0.16 -0.09,-0.08 -0.09,-0.08 -0.17,-0.15 -0.1,-0.08 -0.1,-0.08 -0.19,-0.15 -0.11,-0.06 -0.11,-0.06 -0.21,-0.13 -0.12,-0.06 -0.12,-0.06 -0.24,-0.12 -0.12,-0.05 -0.12,-0.05 -0.24,-0.11 -0.14,-0.05 -0.14,-0.05 -0.27,-0.09 -0.14,-0.05 -0.14,-0.05 -0.27,-0.09 -0.15,-0.03 -0.15,-0.03 -0.29,-0.06 -0.15,-0.03 -0.15,-0.03 -0.3,-0.06 m -5.1,-0.02 c -0.1,0.14 -0.1,0.14 -0.2,0.28 -0.1,0.15 -0.1,0.15 -0.19,0.3 -0.09,0.16 -0.09,0.16 -0.18,0.33 -0.09,0.18 -0.09,0.18 -0.17,0.36 -0.05,0.13 -0.05,0.13 -0.1,0.25 -0.03,0.13 -0.03,0.13 -0.05,0.26 -0.01,0.13 -0.01,0.13 -0.02,0.25 0.01,0.13 0.01,0.13 0.02,0.26 0.03,0.13 0.03,0.13 0.06,0.26 0.05,0.12 0.05,0.12 0.1,0.25 0.05,0.09 0.05,0.09 0.1,0.17 m 2.81,-3.67 c -0.34,0.09 -0.34,0.09 -0.68,0.18 -0.36,0.11 -0.36,0.11 -0.72,0.23 -0.39,0.14 -0.39,0.14 -0.78,0.29 m 2.85,-0.82 c -0.22,0.03 -0.22,0.03 -0.43,0.08 -0.2,0.04 -0.2,0.04 -0.41,0.09 -0.2,0.06 -0.2,0.06 -0.39,0.12 -0.19,0.07 -0.19,0.07 -0.38,0.14 -0.17,0.08 -0.17,0.08 -0.35,0.16 -0.16,0.09 -0.16,0.09 -0.33,0.18 -0.15,0.09 -0.15,0.09 -0.29,0.19 -0.14,0.1 -0.14,0.1 -0.27,0.2 -0.12,0.11 -0.12,0.11 -0.24,0.22 -0.1,0.11 -0.1,0.11 -0.2,0.23 -0.09,0.12 -0.09,0.12 -0.17,0.24 -0.07,0.12 -0.07,0.12 -0.13,0.24 -0.09,0.2 -0.09,0.2 -0.18,0.41 -0.09,0.23 -0.09,0.23 -0.18,0.46 -0.08,0.23 -0.08,0.23 -0.16,0.47" />
      </g>
    </g>
    <g
       id="Actor_.4">
      <g
         style="stroke:#000000;stroke-width:0.353"
         id="g3639">
        <path
           id="path3637"
           d="m 150.07,118.37 0.23,-0.03 m 1.59,0.93 -0.26,1.41 v 1.66 m -1.99,-3.92 v 0.01 m -0.42,0.07 -0.24,0.05 m 5.92,4.61 c 0.14,-0.11 0.14,-0.11 0.28,-0.22 0.12,-0.1 0.12,-0.1 0.24,-0.21 0.02,-0.02 0.02,-0.02 0.04,-0.05 m -0.86,-3.49 c 0.24,0.14 0.24,0.14 0.46,0.28 0.26,0.18 0.26,0.18 0.51,0.35 0.26,0.21 0.26,0.21 0.53,0.42 0.17,0.15 0.17,0.15 0.35,0.31 m -6.15,-2.21 c 0.34,-0.02 0.34,-0.02 0.68,-0.04 0.36,0 0.36,0 0.72,0 0.39,0.02 0.39,0.02 0.78,0.05 0.29,0.07 0.29,0.08 0.58,0.16 0.26,0.09 0.26,0.09 0.53,0.18 0.25,0.11 0.25,0.11 0.5,0.23 0.24,0.12 0.24,0.12 0.49,0.25 m -4.94,-0.75 c 0.22,-0.02 0.22,-0.02 0.43,-0.05 0.07,-0.01 0.07,-0.01 0.14,-0.01 0.15,-0.01 0.15,-0.02 0.3,-0.03 0.23,0 0.23,0 0.45,-0.01 0.22,0 0.22,0 0.44,0.01 0.23,0.02 0.23,0.02 0.45,0.03 0.21,0.03 0.21,0.03 0.43,0.06 0.21,0.03 0.21,0.03 0.43,0.07 0.2,0.05 0.2,0.05 0.41,0.1 0.2,0.06 0.2,0.06 0.4,0.12 0.18,0.06 0.18,0.06 0.37,0.13 0.18,0.08 0.18,0.08 0.36,0.16 0.16,0.08 0.16,0.09 0.33,0.17 0.01,0.01 0.01,0.01 0.02,0.02 0.14,0.08 0.14,0.08 0.28,0.17 0.14,0.1 0.14,0.1 0.27,0.2 0.12,0.11 0.12,0.11 0.24,0.22 0.11,0.11 0.11,0.11 0.21,0.23 0.09,0.11 0.09,0.11 0.17,0.23 0.07,0.11 0.06,0.11 0.13,0.23 0,0.01 0,0.01 0.01,0.02 0.05,0.12 0.05,0.12 0.1,0.25 0.03,0.13 0.03,0.13 0.06,0.25 0.01,0.13 0.01,0.13 0.02,0.26 0,0.04 0,0.04 0,0.08 m -3,1.6 c 0.06,-0.05 0.06,-0.05 0.11,-0.1 0.06,-0.06 0.06,-0.06 0.11,-0.11 0.04,-0.06 0.04,-0.06 0.08,-0.12 0.03,-0.06 0.03,-0.06 0.07,-0.13 0.02,-0.06 0.02,-0.06 0.04,-0.12 0.02,-0.07 0.02,-0.07 0.03,-0.13 0.01,-0.06 0.01,-0.06 0.01,-0.13 -0.01,-0.06 -0.01,-0.06 -0.01,-0.13 -0.02,-0.06 -0.02,-0.06 -0.03,-0.12 -0.03,-0.07 -0.03,-0.07 -0.05,-0.13 -0.03,-0.06 -0.03,-0.06 -0.07,-0.12 -0.04,-0.06 -0.04,-0.06 -0.09,-0.12 -0.05,-0.06 -0.05,-0.06 -0.1,-0.11 -0.06,-0.06 -0.06,-0.06 -0.12,-0.11 -0.07,-0.05 -0.07,-0.05 -0.14,-0.1 -0.07,-0.05 -0.07,-0.05 -0.15,-0.1 -0.08,-0.04 -0.08,-0.04 -0.16,-0.08 -0.09,-0.04 -0.09,-0.04 -0.18,-0.08 -0.09,-0.04 -0.09,-0.04 -0.19,-0.07 -0.1,-0.03 -0.1,-0.03 -0.2,-0.06 -0.1,-0.02 -0.1,-0.02 -0.2,-0.05 -0.11,-0.02 -0.11,-0.02 -0.22,-0.03 -0.1,-0.02 -0.1,-0.02 -0.21,-0.03 -0.11,-0.01 -0.11,-0.01 -0.22,-0.02 -0.12,0 -0.12,0 -0.23,0 -0.11,0 -0.11,0 -0.22,0 -0.11,0.01 -0.11,0.01 -0.22,0.02 -0.11,0.01 -0.11,0.01 -0.22,0.03 -0.1,0.02 -0.1,0.02 -0.21,0.04 -0.1,0.02 -0.1,0.02 -0.2,0.05 -0.1,0.03 -0.1,0.03 -0.2,0.06 -0.09,0.03 -0.09,0.03 -0.19,0.07 -0.09,0.04 -0.09,0.04 -0.17,0.08 -0.09,0.04 -0.09,0.04 -0.17,0.08 -0.07,0.05 -0.07,0.05 -0.15,0.1 -0.06,0.05 -0.06,0.05 -0.13,0.1 -0.06,0.06 -0.06,0.06 -0.12,0.11 -0.05,0.06 -0.05,0.06 -0.1,0.11 -0.04,0.06 -0.04,0.06 -0.09,0.12 -0.03,0.06 -0.03,0.07 -0.06,0.13 -0.03,0.06 -0.03,0.06 -0.05,0.12 -0.01,0.07 -0.01,0.07 -0.03,0.13 0,0.06 0,0.06 0,0.13 0,0.06 0,0.06 0.01,0.13 0.01,0.06 0.01,0.06 0.03,0.12 0.02,0.07 0.02,0.07 0.05,0.13 0.03,0.06 0.03,0.06 0.06,0.12 0.05,0.06 0.05,0.06 0.09,0.12 0.05,0.06 0.05,0.06 0.1,0.11 0.05,0.05 0.05,0.05 0.1,0.09 m 0,0 c 0.07,-0.05 0.07,-0.05 0.14,-0.1 0.08,-0.05 0.08,-0.05 0.15,-0.1 0.08,-0.04 0.08,-0.04 0.17,-0.09 0.08,-0.04 0.08,-0.04 0.17,-0.08 0.1,-0.03 0.1,-0.03 0.19,-0.06 0.1,-0.04 0.1,-0.04 0.2,-0.06 0.1,-0.03 0.1,-0.03 0.2,-0.05 0.11,-0.02 0.11,-0.02 0.21,-0.04 0.11,-0.02 0.11,-0.02 0.22,-0.03 0.11,-0.01 0.11,-0.01 0.22,-0.02 0.11,0 0.11,0 0.22,-0.01 0.11,0.01 0.11,0.01 0.23,0.01 0.11,0.01 0.11,0.01 0.22,0.01 0.11,0.02 0.11,0.02 0.21,0.03 m 0,0 c 0.11,0.02 0.11,0.02 0.22,0.04 0.1,0.02 0.1,0.02 0.2,0.05 0.1,0.03 0.1,0.03 0.2,0.06 0.1,0.03 0.1,0.03 0.19,0.07 0.09,0.03 0.09,0.03 0.18,0.07 0.08,0.05 0.08,0.05 0.16,0.09 0.08,0.05 0.08,0.05 0.15,0.09 0.07,0.05 0.07,0.05 0.14,0.11 0.01,0 0.01,0 0.02,0.01 m -1.2,-3.66 c -0.15,-0.02 -0.15,-0.02 -0.3,-0.04 -0.16,-0.01 -0.16,-0.01 -0.31,-0.02 -0.16,0 -0.16,0 -0.31,-0.01 -0.16,0.01 -0.16,0.01 -0.31,0.01 -0.16,0.01 -0.16,0.01 -0.31,0.03 -0.15,0.02 -0.15,0.02 -0.31,0.04 -0.14,0.02 -0.14,0.02 -0.29,0.05 -0.15,0.04 -0.15,0.04 -0.29,0.07 -0.14,0.04 -0.14,0.04 -0.28,0.09 -0.13,0.04 -0.13,0.04 -0.26,0.09 -0.12,0.06 -0.12,0.06 -0.24,0.11 -0.12,0.06 -0.12,0.06 -0.23,0.13 -0.11,0.06 -0.11,0.06 -0.21,0.13 -0.1,0.07 -0.1,0.07 -0.19,0.14 -0.08,0.08 -0.08,0.08 -0.17,0.16 -0.03,0.03 -0.03,0.03 -0.07,0.07 -0.03,0.04 -0.03,0.04 -0.07,0.09 -0.06,0.08 -0.06,0.08 -0.12,0.16 -0.04,0.09 -0.04,0.09 -0.09,0.17 -0.03,0.09 -0.03,0.09 -0.06,0.18 -0.02,0.09 -0.03,0.09 -0.04,0.18 -0.01,0.09 -0.01,0.09 -0.02,0.18 0.01,0.09 0.01,0.09 0.02,0.18 0.02,0.09 0.02,0.09 0.04,0.18 0.04,0.08 0.04,0.08 0.07,0.17 0.05,0.09 0.05,0.09 0.1,0.17 0.06,0.09 0.06,0.09 0.12,0.17 0.07,0.08 0.07,0.08 0.14,0.16 0.09,0.07 0.09,0.07 0.17,0.15 0.1,0.07 0.1,0.07 0.19,0.14 0.11,0.07 0.11,0.07 0.22,0.13 0.11,0.06 0.11,0.06 0.23,0.12 0.12,0.06 0.12,0.06 0.24,0.11 0.14,0.05 0.14,0.05 0.27,0.1 0.14,0.04 0.14,0.04 0.28,0.08 0.14,0.04 0.14,0.04 0.28,0.07 0.15,0.03 0.15,0.03 0.3,0.05 0.15,0.02 0.15,0.02 0.31,0.04 0.15,0.01 0.15,0.01 0.31,0.02 0.15,0.01 0.15,0.01 0.31,0.01 0.15,0 0.15,0 0.31,-0.01 0.15,-0.01 0.15,-0.01 0.31,-0.02 0.15,-0.02 0.15,-0.02 0.3,-0.04 0.15,-0.03 0.15,-0.03 0.3,-0.06 0.14,-0.03 0.14,-0.03 0.28,-0.07 0.14,-0.04 0.14,-0.04 0.28,-0.08 0.13,-0.05 0.13,-0.05 0.26,-0.1 0.13,-0.05 0.13,-0.05 0.25,-0.11 0.11,-0.06 0.11,-0.06 0.23,-0.12 0.1,-0.07 0.1,-0.07 0.21,-0.14 0.09,-0.07 0.09,-0.07 0.18,-0.14 0.09,-0.07 0.09,-0.07 0.17,-0.15 0.07,-0.08 0.07,-0.08 0.14,-0.16 0.06,-0.08 0.06,-0.08 0.12,-0.17 0.05,-0.08 0.05,-0.08 0.09,-0.17 0.04,-0.09 0.04,-0.09 0.07,-0.18 0.02,-0.08 0.02,-0.09 0.04,-0.17 0.01,-0.09 0.01,-0.09 0.01,-0.18 -0.01,-0.09 -0.01,-0.09 -0.02,-0.18 -0.02,-0.09 -0.02,-0.09 -0.04,-0.18 -0.03,-0.09 -0.03,-0.09 -0.07,-0.18 -0.04,-0.08 -0.04,-0.08 -0.09,-0.17 -0.06,-0.08 -0.06,-0.08 -0.12,-0.16 -0.08,-0.09 -0.08,-0.09 -0.15,-0.16 -0.08,-0.08 -0.08,-0.08 -0.17,-0.16 -0.09,-0.07 -0.09,-0.07 -0.19,-0.14 -0.1,-0.06 -0.1,-0.06 -0.21,-0.13 -0.12,-0.06 -0.12,-0.06 -0.23,-0.12 -0.13,-0.06 -0.13,-0.06 -0.25,-0.11 -0.13,-0.05 -0.13,-0.05 -0.26,-0.09 -0.14,-0.05 -0.14,-0.05 -0.28,-0.09 -0.14,-0.03 -0.14,-0.03 -0.29,-0.07 -0.15,-0.02 -0.15,-0.03 -0.3,-0.05 m -5.84,1.25 c 0.06,-0.12 0.06,-0.12 0.13,-0.25 0.08,-0.12 0.08,-0.12 0.17,-0.23 0.1,-0.12 0.1,-0.12 0.2,-0.23 0.12,-0.11 0.12,-0.11 0.24,-0.22 0.13,-0.1 0.13,-0.1 0.27,-0.2 0.15,-0.1 0.15,-0.1 0.3,-0.2 0.16,-0.08 0.16,-0.08 0.33,-0.17 0.12,-0.06 0.12,-0.06 0.24,-0.11 0.05,-0.02 0.05,-0.02 0.11,-0.05 0.18,-0.07 0.18,-0.07 0.37,-0.14 0.2,-0.06 0.2,-0.06 0.4,-0.12 0.2,-0.05 0.2,-0.05 0.41,-0.1 0.21,-0.04 0.21,-0.04 0.42,-0.08 m -2.84,0.83 c -0.11,0.14 -0.11,0.14 -0.21,0.28 -0.09,0.15 -0.09,0.15 -0.19,0.3 -0.09,0.16 -0.09,0.16 -0.18,0.33 -0.08,0.18 -0.08,0.18 -0.17,0.36 m 2.93,-1.97 c -0.34,0.09 -0.34,0.09 -0.68,0.18 -0.36,0.11 -0.36,0.11 -0.72,0.22 -0.39,0.15 -0.39,0.15 -0.78,0.3 m -0.75,1.27 c -0.09,0.2 -0.09,0.2 -0.17,0.41 -0.09,0.22 -0.09,0.23 -0.18,0.46 -0.09,0.23 -0.09,0.23 -0.17,0.46 m 0.63,0.37 c -0.05,-0.09 -0.05,-0.09 -0.1,-0.18 -0.05,-0.12 -0.05,-0.12 -0.09,-0.25 -0.04,-0.12 -0.04,-0.12 -0.06,-0.25 -0.02,-0.13 -0.02,-0.13 -0.03,-0.26 0.01,-0.13 0.01,-0.13 0.02,-0.25 0.03,-0.13 0.03,-0.13 0.06,-0.26 0.04,-0.13 0.04,-0.13 0.09,-0.25" />
      </g>
    </g>
    <g
       id="Actor_.5">
      <g
         style="stroke:#000000;stroke-width:0.353"
         id="g3676">
        <path
           id="path3674"
           d="m 101.95,152.58 0.01,-0.08 m -0.63,1.44 -0.04,0.04 -0.24,0.22 -0.28,0.21 m -5.26,-4.73 v 0 m 2.25,0.84 -0.26,1.41 v 1.66 m -2.42,-3.83 -0.23,0.04 m 5.29,0.46 -0.02,-0.01 m -4.18,-0.63 0.23,-0.03 m 5.79,2.91 c -0.01,-0.12 -0.01,-0.13 -0.02,-0.25 -0.03,-0.13 -0.03,-0.13 -0.06,-0.26 -0.05,-0.12 -0.05,-0.12 -0.1,-0.25 -0.07,-0.12 -0.07,-0.12 -0.14,-0.24 -0.08,-0.12 -0.08,-0.12 -0.17,-0.24 -0.1,-0.12 -0.1,-0.12 -0.21,-0.23 -0.12,-0.11 -0.12,-0.11 -0.24,-0.21 -0.13,-0.11 -0.13,-0.11 -0.27,-0.21 -0.15,-0.09 -0.15,-0.09 -0.3,-0.19 m -0.31,-0.16 c 0.15,0.08 0.15,0.08 0.31,0.16 0.24,0.15 0.24,0.15 0.48,0.31 0.26,0.17 0.26,0.17 0.5,0.35 0.27,0.2 0.27,0.2 0.54,0.41 0.17,0.16 0.17,0.16 0.35,0.31 m -7.57,2.38 c 0.07,-0.05 0.07,-0.05 0.14,-0.1 0.08,-0.05 0.08,-0.05 0.15,-0.1 0.08,-0.04 0.08,-0.04 0.17,-0.08 0.08,-0.04 0.08,-0.04 0.17,-0.08 0.09,-0.04 0.1,-0.04 0.19,-0.07 0.1,-0.03 0.1,-0.03 0.2,-0.06 0.1,-0.03 0.1,-0.03 0.2,-0.05 0.11,-0.02 0.11,-0.02 0.21,-0.04 0.11,-0.02 0.11,-0.02 0.22,-0.03 0.11,-0.01 0.11,-0.01 0.22,-0.02 0.11,0 0.11,0 0.22,0 0.11,0 0.11,0 0.23,0 0.11,0.01 0.11,0.01 0.22,0.02 0.1,0.01 0.1,0.01 0.21,0.02 m 1.46,0.59 c 0.06,-0.05 0.06,-0.05 0.11,-0.1 0.05,-0.05 0.05,-0.05 0.11,-0.11 0.04,-0.06 0.04,-0.06 0.08,-0.12 0.03,-0.06 0.03,-0.06 0.07,-0.12 0.02,-0.07 0.02,-0.07 0.04,-0.13 0.02,-0.06 0.02,-0.06 0.03,-0.13 0.01,-0.06 0.01,-0.06 0.01,-0.13 -0.01,-0.06 -0.01,-0.06 -0.01,-0.12 -0.02,-0.07 -0.02,-0.07 -0.03,-0.13 -0.03,-0.06 -0.03,-0.06 -0.05,-0.13 -0.04,-0.06 -0.04,-0.06 -0.07,-0.12 -0.04,-0.06 -0.04,-0.06 -0.09,-0.12 -0.05,-0.05 -0.05,-0.05 -0.1,-0.11 -0.06,-0.06 -0.06,-0.06 -0.12,-0.11 -0.07,-0.05 -0.07,-0.05 -0.14,-0.1 -0.07,-0.05 -0.07,-0.05 -0.15,-0.09 -0.08,-0.05 -0.08,-0.05 -0.16,-0.09 -0.09,-0.04 -0.09,-0.04 -0.18,-0.08 -0.1,-0.03 -0.1,-0.03 -0.19,-0.07 -0.1,-0.03 -0.1,-0.03 -0.2,-0.06 -0.1,-0.02 -0.1,-0.02 -0.2,-0.04 -0.11,-0.02 -0.11,-0.02 -0.22,-0.04 -0.11,-0.02 -0.11,-0.02 -0.21,-0.03 -0.11,-0.01 -0.11,-0.01 -0.22,-0.02 -0.12,0 -0.12,0 -0.23,0 -0.11,0 -0.11,0 -0.22,0.01 -0.11,0 -0.11,0 -0.22,0.01 -0.11,0.02 -0.11,0.02 -0.22,0.03 -0.1,0.02 -0.1,0.02 -0.21,0.04 -0.1,0.03 -0.1,0.03 -0.2,0.05 -0.1,0.03 -0.1,0.03 -0.2,0.06 -0.09,0.04 -0.1,0.04 -0.19,0.07 -0.09,0.04 -0.09,0.04 -0.17,0.08 -0.09,0.04 -0.09,0.04 -0.17,0.09 -0.07,0.04 -0.07,0.04 -0.15,0.09 -0.06,0.05 -0.06,0.05 -0.13,0.1 -0.06,0.06 -0.06,0.06 -0.12,0.11 -0.05,0.06 -0.05,0.06 -0.1,0.12 -0.04,0.06 -0.04,0.06 -0.09,0.12 -0.03,0.06 -0.03,0.06 -0.06,0.12 -0.03,0.06 -0.03,0.06 -0.05,0.12 -0.01,0.07 -0.01,0.07 -0.03,0.13 0,0.07 0,0.07 -0.01,0.13 0.01,0.06 0.01,0.07 0.02,0.13 0.01,0.06 0.01,0.06 0.03,0.13 0.02,0.06 0.02,0.06 0.05,0.12 0.03,0.06 0.03,0.06 0.06,0.12 0.05,0.06 0.05,0.06 0.09,0.12 0.05,0.06 0.05,0.06 0.1,0.12 0.05,0.04 0.05,0.04 0.1,0.08 m 2.75,-0.59 c 0.11,0.02 0.11,0.02 0.22,0.04 0.1,0.03 0.1,0.03 0.2,0.05 0.1,0.03 0.1,0.03 0.2,0.06 0.09,0.03 0.09,0.03 0.19,0.07 0.09,0.04 0.09,0.04 0.18,0.08 0.08,0.04 0.08,0.04 0.16,0.08 0.08,0.05 0.08,0.05 0.15,0.1 0.07,0.05 0.07,0.05 0.14,0.1 0.01,0.01 0.01,0.01 0.02,0.02 m -1.2,-3.67 c -0.15,-0.02 -0.15,-0.02 -0.3,-0.03 -0.16,-0.02 -0.16,-0.02 -0.31,-0.03 -0.16,0 -0.16,0 -0.31,0 -0.16,0 -0.16,0 -0.31,0.01 -0.16,0.01 -0.16,0.01 -0.31,0.02 -0.15,0.02 -0.15,0.02 -0.31,0.04 -0.15,0.03 -0.15,0.03 -0.29,0.05 -0.15,0.04 -0.15,0.04 -0.29,0.07 -0.14,0.05 -0.14,0.05 -0.28,0.09 -0.13,0.05 -0.13,0.05 -0.26,0.1 -0.12,0.05 -0.12,0.05 -0.24,0.11 -0.12,0.06 -0.12,0.06 -0.23,0.12 -0.11,0.06 -0.11,0.06 -0.21,0.13 -0.1,0.07 -0.1,0.07 -0.19,0.15 -0.08,0.07 -0.08,0.07 -0.17,0.15 -0.07,0.08 -0.07,0.08 -0.14,0.16 -0.06,0.08 -0.06,0.08 -0.12,0.16 -0.04,0.09 -0.04,0.09 -0.09,0.18 -0.03,0.08 -0.03,0.08 -0.06,0.17 -0.03,0.09 -0.03,0.09 -0.04,0.18 -0.01,0.09 -0.01,0.09 -0.02,0.18 0.01,0.09 0.01,0.09 0.02,0.18 0.02,0.09 0.02,0.09 0.04,0.18 0.04,0.09 0.04,0.09 0.07,0.17 0.05,0.09 0.05,0.09 0.1,0.18 0.06,0.08 0.06,0.08 0.12,0.16 0.07,0.08 0.07,0.08 0.14,0.16 0.09,0.08 0.09,0.08 0.17,0.15 0.1,0.07 0.1,0.07 0.19,0.14 0.11,0.07 0.11,0.07 0.21,0.14 0.12,0.06 0.12,0.06 0.24,0.12 0.12,0.05 0.12,0.05 0.24,0.11 0.14,0.04 0.14,0.04 0.27,0.09 0.14,0.04 0.14,0.04 0.27,0.08 0.15,0.04 0.15,0.04 0.29,0.07 0.15,0.03 0.15,0.03 0.3,0.05 0.15,0.02 0.15,0.02 0.31,0.04 0.15,0.01 0.15,0.01 0.3,0.02 0.16,0.01 0.16,0.01 0.32,0.01 0.15,0 0.15,0 0.31,-0.01 0.15,-0.01 0.15,-0.01 0.31,-0.02 0.15,-0.02 0.15,-0.02 0.3,-0.04 0.15,-0.03 0.15,-0.03 0.3,-0.06 0.14,-0.03 0.14,-0.03 0.28,-0.07 0.14,-0.04 0.14,-0.04 0.28,-0.08 0.13,-0.05 0.13,-0.05 0.26,-0.1 0.12,-0.05 0.13,-0.05 0.25,-0.11 0.11,-0.06 0.11,-0.06 0.23,-0.12 0.06,-0.04 0.06,-0.04 0.13,-0.08 0.04,-0.03 0.04,-0.03 0.08,-0.05 0.09,-0.07 0.09,-0.07 0.18,-0.15 0.09,-0.07 0.09,-0.07 0.17,-0.15 0.07,-0.08 0.07,-0.08 0.14,-0.16 0.06,-0.08 0.06,-0.08 0.12,-0.17 0.05,-0.08 0.05,-0.08 0.09,-0.17 0.04,-0.09 0.04,-0.09 0.07,-0.17 0.02,-0.09 0.02,-0.09 0.04,-0.18 0,-0.09 0,-0.09 0.01,-0.18 -0.01,-0.09 -0.01,-0.09 -0.02,-0.18 -0.02,-0.09 -0.02,-0.09 -0.04,-0.18 -0.03,-0.09 -0.03,-0.09 -0.07,-0.18 -0.04,-0.08 -0.04,-0.08 -0.09,-0.17 -0.06,-0.08 -0.06,-0.08 -0.12,-0.16 -0.08,-0.08 -0.08,-0.08 -0.15,-0.16 -0.08,-0.08 -0.08,-0.08 -0.17,-0.15 -0.09,-0.07 -0.09,-0.07 -0.19,-0.15 -0.1,-0.06 -0.1,-0.06 -0.21,-0.13 -0.12,-0.06 -0.12,-0.06 -0.23,-0.12 -0.13,-0.05 -0.13,-0.05 -0.25,-0.11 -0.13,-0.05 -0.13,-0.05 -0.26,-0.09 -0.14,-0.04 -0.14,-0.04 -0.28,-0.08 -0.15,-0.04 -0.15,-0.04 -0.29,-0.07 -0.15,-0.03 -0.15,-0.03 -0.3,-0.06 m -5.09,-0.02 c -0.11,0.14 -0.11,0.14 -0.21,0.28 -0.09,0.15 -0.09,0.15 -0.19,0.3 -0.09,0.17 -0.09,0.17 -0.18,0.33 -0.08,0.18 -0.08,0.18 -0.17,0.36 -0.09,0.2 -0.09,0.2 -0.17,0.41 -0.09,0.23 -0.09,0.23 -0.18,0.46 -0.09,0.23 -0.09,0.23 -0.17,0.47 m 3.45,-3.31 c -0.34,0.09 -0.34,0.09 -0.68,0.18 -0.36,0.11 -0.36,0.11 -0.72,0.23 -0.39,0.14 -0.39,0.14 -0.78,0.29 m 7.45,-0.25 c -0.18,-0.08 -0.18,-0.08 -0.36,-0.15 -0.19,-0.07 -0.19,-0.07 -0.38,-0.14 -0.19,-0.06 -0.19,-0.06 -0.39,-0.12 -0.21,-0.05 -0.21,-0.05 -0.41,-0.09 -0.22,-0.04 -0.22,-0.04 -0.43,-0.08 -0.22,-0.03 -0.22,-0.03 -0.43,-0.06 -0.23,-0.01 -0.23,-0.01 -0.45,-0.03 -0.22,0 -0.22,0 -0.44,-0.01 -0.22,0.01 -0.22,0.01 -0.45,0.02 -0.22,0.01 -0.22,0.01 -0.44,0.03 -0.21,0.03 -0.21,0.03 -0.43,0.06 -0.21,0.04 -0.21,0.04 -0.43,0.08 -0.2,0.04 -0.2,0.04 -0.41,0.1 -0.19,0.05 -0.19,0.05 -0.39,0.12 -0.19,0.06 -0.19,0.06 -0.37,0.13 -0.18,0.08 -0.18,0.08 -0.36,0.16 -0.16,0.09 -0.16,0.09 -0.32,0.18 -0.15,0.09 -0.15,0.09 -0.3,0.19 -0.14,0.1 -0.14,0.1 -0.27,0.2 -0.12,0.11 -0.12,0.11 -0.24,0.22 -0.1,0.11 -0.1,0.11 -0.2,0.23 -0.09,0.12 -0.09,0.12 -0.17,0.24 -0.07,0.12 -0.07,0.12 -0.13,0.24 -0.05,0.13 -0.05,0.13 -0.09,0.25 -0.03,0.13 -0.03,0.13 -0.06,0.26 -0.01,0.13 -0.01,0.13 -0.02,0.26 0.01,0.12 0.01,0.12 0.02,0.25 0.03,0.13 0.03,0.13 0.07,0.26 0.04,0.12 0.04,0.12 0.09,0.25 0.05,0.08 0.05,0.09 0.1,0.17 m 4.14,-3.88 c 0.34,-0.02 0.34,-0.02 0.68,-0.04 0.36,0 0.36,0 0.72,0 0.39,0.03 0.39,0.02 0.78,0.05 0.29,0.07 0.29,0.08 0.58,0.16 0.26,0.09 0.26,0.09 0.53,0.19 0.25,0.11 0.25,0.11 0.5,0.22 0.09,0.04 0.09,0.04 0.18,0.09" />
      </g>
    </g>
    <g
       id="Actor_.6">
      <g
         style="stroke:#000000;stroke-width:0.353"
         id="g3713">
        <path
           id="path3711"
           d="m 182.52,107.06 -0.03,0.04 m -3.79,-0.38 v -1.67 m 0.26,-1.4 -0.26,1.4 m -2.42,-2.17 -0.24,0.05 m 0.67,-0.13 h -0.01 m 4.94,0.75 c 0.15,0.09 0.15,0.09 0.3,0.18 0.14,0.1 0.14,0.1 0.28,0.21 0.12,0.1 0.12,0.1 0.24,0.21 0.1,0.12 0.1,0.12 0.21,0.23 0.08,0.12 0.08,0.12 0.17,0.24 0.07,0.12 0.07,0.12 0.14,0.24 0.05,0.13 0.05,0.13 0.09,0.25 0.04,0.13 0.04,0.13 0.06,0.26 0.02,0.13 0.02,0.13 0.03,0.25 -0.01,0.05 -0.01,0.05 -0.01,0.09 m 0.36,-0.79 c -0.17,-0.15 -0.17,-0.15 -0.35,-0.3 -0.26,-0.21 -0.26,-0.21 -0.53,-0.42 -0.25,-0.18 -0.25,-0.18 -0.5,-0.35 -0.24,-0.16 -0.24,-0.16 -0.49,-0.3 m 0.85,3.55 c -0.12,0.11 -0.12,0.11 -0.24,0.22 -0.13,0.1 -0.14,0.1 -0.27,0.2 -0.01,0.01 -0.01,0.01 -0.01,0.01 m -3.27,-2.48 c 0.11,0.02 0.11,0.02 0.21,0.04 0.11,0.02 0.11,0.02 0.21,0.05 0.1,0.02 0.1,0.02 0.2,0.05 0.09,0.04 0.09,0.04 0.18,0.07 0.09,0.04 0.09,0.04 0.18,0.08 0.06,0.03 0.06,0.03 0.11,0.06 0.03,0.01 0.03,0.01 0.06,0.03 0.07,0.04 0.07,0.04 0.15,0.09 0.07,0.05 0.07,0.05 0.13,0.1 0.07,0.06 0.07,0.06 0.13,0.11 0.05,0.06 0.05,0.06 0.1,0.11 0.04,0.06 0.04,0.06 0.09,0.12 0.03,0.06 0.03,0.06 0.06,0.13 0.03,0.06 0.03,0.06 0.05,0.12 0.02,0.06 0.02,0.06 0.03,0.13 0.01,0.06 0.01,0.06 0.01,0.13 0,0.06 0,0.06 0,0.12 -0.02,0.07 -0.02,0.07 -0.03,0.13 -0.02,0.07 -0.02,0.07 -0.05,0.13 -0.03,0.06 -0.03,0.06 -0.06,0.12 -0.05,0.06 -0.05,0.06 -0.09,0.12 -0.05,0.06 -0.05,0.06 -0.1,0.11 -0.06,0.06 -0.06,0.06 -0.11,0.11 m 1.48,-3.76 c -0.24,-0.13 -0.24,-0.13 -0.49,-0.26 -0.25,-0.11 -0.25,-0.11 -0.5,-0.22 -0.26,-0.1 -0.26,-0.1 -0.53,-0.19 -0.28,-0.08 -0.28,-0.09 -0.57,-0.16 -0.39,-0.03 -0.39,-0.02 -0.78,-0.04 -0.36,-0.01 -0.36,-0.01 -0.72,-0.01 -0.34,0.02 -0.34,0.02 -0.68,0.05 -0.12,0.01 -0.12,0.01 -0.23,0.02 -0.22,0.03 -0.22,0.03 -0.43,0.06 m 0.43,-0.06 c 0.22,-0.02 0.22,-0.02 0.44,-0.03 0.22,-0.01 0.22,-0.01 0.44,-0.02 0.23,0.01 0.23,0.01 0.45,0.01 0.22,0.02 0.22,0.02 0.44,0.04 0.22,0.02 0.22,0.02 0.44,0.05 0.21,0.04 0.21,0.04 0.42,0.08 0.21,0.04 0.21,0.04 0.42,0.09 0.19,0.06 0.19,0.06 0.39,0.12 0.18,0.06 0.18,0.06 0.35,0.13 0.01,0 0.01,0 0.03,0.01 0.17,0.08 0.18,0.07 0.35,0.15 0.17,0.09 0.17,0.09 0.33,0.18 m -5.69,3.76 c 0.07,-0.06 0.07,-0.06 0.14,-0.11 0.07,-0.05 0.07,-0.05 0.15,-0.1 0.08,-0.04 0.08,-0.04 0.16,-0.08 0.09,-0.04 0.09,-0.04 0.18,-0.08 0.09,-0.04 0.09,-0.04 0.18,-0.07 0.1,-0.03 0.1,-0.03 0.2,-0.06 0.1,-0.03 0.1,-0.03 0.21,-0.05 0.1,-0.02 0.1,-0.02 0.21,-0.04 0.11,-0.01 0.11,-0.01 0.22,-0.03 0.11,-0.01 0.11,-0.01 0.22,-0.02 0.11,0 0.11,0 0.22,0 0.11,0 0.11,0 0.22,0 0.11,0.01 0.11,0.01 0.22,0.02 0.11,0.01 0.11,0.01 0.22,0.03 0.11,0.01 0.11,0.01 0.21,0.03 0.11,0.03 0.11,0.03 0.21,0.05 0.1,0.03 0.1,0.03 0.2,0.06 0.09,0.03 0.09,0.03 0.18,0.07 0.09,0.04 0.09,0.04 0.18,0.08 0.08,0.04 0.09,0.04 0.17,0.08 0.07,0.05 0.07,0.05 0.15,0.1 0.07,0.05 0.07,0.05 0.14,0.1 0.01,0.01 0.01,0.01 0.01,0.02 m -1.45,-2.26 c -0.11,-0.02 -0.11,-0.02 -0.22,-0.03 -0.11,-0.01 -0.11,-0.01 -0.22,-0.01 -0.11,-0.01 -0.11,-0.01 -0.22,-0.01 -0.11,0 -0.11,0 -0.22,0.01 -0.11,0.01 -0.11,0.01 -0.22,0.01 -0.11,0.02 -0.11,0.02 -0.22,0.03 -0.11,0.02 -0.11,0.02 -0.21,0.04 -0.11,0.03 -0.11,0.03 -0.21,0.05 -0.1,0.03 -0.1,0.03 -0.2,0.06 -0.09,0.04 -0.09,0.04 -0.18,0.07 -0.09,0.04 -0.09,0.04 -0.18,0.08 -0.08,0.04 -0.08,0.04 -0.16,0.09 -0.08,0.05 -0.08,0.05 -0.15,0.09 -0.07,0.05 -0.07,0.05 -0.14,0.11 -0.06,0.05 -0.06,0.05 -0.11,0.1 -0.06,0.06 -0.06,0.06 -0.11,0.12 -0.04,0.06 -0.04,0.06 -0.08,0.12 -0.03,0.06 -0.03,0.06 -0.07,0.12 -0.02,0.06 -0.02,0.06 -0.04,0.13 -0.02,0.06 -0.02,0.06 -0.03,0.12 -0.01,0.07 -0.01,0.07 -0.01,0.13 0.01,0.07 0.01,0.07 0.01,0.13 0.02,0.06 0.02,0.06 0.03,0.13 0.03,0.06 0.03,0.06 0.05,0.12 0.03,0.06 0.03,0.06 0.07,0.13 0.04,0.06 0.04,0.06 0.09,0.11 0.05,0.06 0.05,0.06 0.1,0.12 0.05,0.04 0.05,0.04 0.1,0.08 m 3.01,-3.65 c -0.15,-0.03 -0.15,-0.02 -0.31,-0.04 -0.15,-0.01 -0.15,-0.01 -0.31,-0.02 -0.15,-0.01 -0.15,-0.01 -0.31,-0.01 -0.15,0 -0.15,0 -0.31,0.01 -0.15,0.01 -0.15,0.01 -0.31,0.02 -0.15,0.02 -0.15,0.02 -0.3,0.04 -0.15,0.03 -0.15,0.03 -0.3,0.06 -0.14,0.03 -0.14,0.03 -0.28,0.07 -0.14,0.04 -0.14,0.04 -0.28,0.08 -0.13,0.05 -0.13,0.05 -0.26,0.1 -0.13,0.05 -0.13,0.05 -0.25,0.11 -0.11,0.06 -0.11,0.06 -0.23,0.12 -0.1,0.07 -0.1,0.07 -0.21,0.13 -0.09,0.07 -0.09,0.07 -0.18,0.15 -0.09,0.07 -0.09,0.07 -0.17,0.15 -0.07,0.08 -0.07,0.08 -0.14,0.16 -0.06,0.08 -0.06,0.08 -0.12,0.17 -0.05,0.08 -0.05,0.08 -0.09,0.17 -0.04,0.09 -0.04,0.09 -0.07,0.17 -0.02,0.09 -0.02,0.09 -0.04,0.18 -0.01,0.09 -0.01,0.09 -0.01,0.18 0.01,0.09 0.01,0.09 0.02,0.18 0.02,0.09 0.02,0.09 0.04,0.18 0.03,0.09 0.03,0.09 0.07,0.18 0.04,0.08 0.04,0.08 0.09,0.17 0.06,0.08 0.06,0.08 0.12,0.16 0.07,0.08 0.08,0.08 0.15,0.16 0.08,0.08 0.08,0.08 0.17,0.15 0.09,0.07 0.09,0.07 0.19,0.15 0.1,0.06 0.1,0.06 0.21,0.13 0.12,0.06 0.12,0.06 0.23,0.12 0.13,0.05 0.13,0.05 0.25,0.11 0.13,0.05 0.13,0.05 0.26,0.09 0.14,0.04 0.14,0.04 0.28,0.08 0.14,0.04 0.14,0.04 0.29,0.07 0.15,0.03 0.15,0.03 0.3,0.06 0.15,0.02 0.15,0.02 0.3,0.03 0.16,0.02 0.16,0.02 0.31,0.03 0.16,0 0.16,0 0.31,0 0.16,0 0.16,0 0.31,-0.01 0.16,-0.01 0.16,-0.01 0.31,-0.02 0.15,-0.02 0.15,-0.02 0.31,-0.04 0.14,-0.03 0.14,-0.03 0.29,-0.06 0.15,-0.03 0.15,-0.03 0.29,-0.06 0.14,-0.05 0.14,-0.05 0.28,-0.09 0.13,-0.05 0.13,-0.05 0.26,-0.1 0.12,-0.05 0.12,-0.05 0.24,-0.11 0.12,-0.06 0.12,-0.06 0.23,-0.12 0.07,-0.04 0.07,-0.04 0.13,-0.08 0.04,-0.03 0.04,-0.03 0.08,-0.05 0.1,-0.07 0.1,-0.07 0.19,-0.15 0.08,-0.07 0.08,-0.07 0.17,-0.15 0.07,-0.08 0.07,-0.08 0.14,-0.16 0.06,-0.08 0.06,-0.08 0.12,-0.16 0.04,-0.09 0.04,-0.09 0.09,-0.18 0.03,-0.08 0.03,-0.08 0.06,-0.17 0.02,-0.09 0.02,-0.09 0.04,-0.18 0.01,-0.09 0.01,-0.09 0.02,-0.18 -0.01,-0.09 -0.01,-0.09 -0.02,-0.18 -0.02,-0.09 -0.02,-0.09 -0.04,-0.18 -0.04,-0.09 -0.04,-0.09 -0.07,-0.17 -0.05,-0.09 -0.05,-0.09 -0.1,-0.18 -0.06,-0.08 -0.06,-0.08 -0.12,-0.16 -0.07,-0.08 -0.07,-0.08 -0.14,-0.16 -0.09,-0.08 -0.09,-0.08 -0.17,-0.15 -0.1,-0.07 -0.1,-0.07 -0.19,-0.14 -0.11,-0.07 -0.11,-0.07 -0.22,-0.14 -0.11,-0.06 -0.11,-0.06 -0.23,-0.12 -0.12,-0.05 -0.12,-0.05 -0.24,-0.11 -0.14,-0.04 -0.14,-0.04 -0.27,-0.09 -0.14,-0.04 -0.14,-0.04 -0.28,-0.08 -0.14,-0.04 -0.14,-0.04 -0.28,-0.07 -0.15,-0.03 -0.15,-0.03 -0.3,-0.05 m -5.1,-0.03 c -0.1,0.14 -0.1,0.14 -0.2,0.28 -0.1,0.15 -0.1,0.15 -0.19,0.3 -0.09,0.17 -0.09,0.17 -0.18,0.33 -0.09,0.18 -0.09,0.18 -0.17,0.36 -0.05,0.13 -0.05,0.13 -0.1,0.25 -0.03,0.13 -0.03,0.13 -0.05,0.26 -0.01,0.13 -0.01,0.13 -0.02,0.26 0.01,0.13 0.01,0.13 0.02,0.25 0.03,0.13 0.03,0.13 0.06,0.26 0.05,0.12 0.05,0.12 0.1,0.25 0.05,0.09 0.05,0.09 0.1,0.18 m 2.81,-3.67 c -0.34,0.08 -0.34,0.08 -0.68,0.17 -0.36,0.11 -0.36,0.11 -0.72,0.23 -0.39,0.14 -0.39,0.14 -0.78,0.29 m -1.26,2.61 c 0.08,-0.24 0.08,-0.24 0.16,-0.47 0.09,-0.23 0.09,-0.23 0.18,-0.46 0.09,-0.2 0.09,-0.2 0.18,-0.41 0.06,-0.12 0.06,-0.12 0.13,-0.24 0.08,-0.12 0.08,-0.12 0.17,-0.24 0.1,-0.12 0.1,-0.12 0.2,-0.23 0.12,-0.11 0.12,-0.11 0.24,-0.22 0.13,-0.1 0.13,-0.1 0.27,-0.2 0.14,-0.1 0.14,-0.1 0.29,-0.19 0.17,-0.09 0.17,-0.09 0.33,-0.18 0.18,-0.08 0.18,-0.08 0.35,-0.15 0.19,-0.07 0.19,-0.07 0.38,-0.14 0.19,-0.06 0.19,-0.06 0.39,-0.12 0.21,-0.05 0.21,-0.05 0.41,-0.1 0.21,-0.04 0.21,-0.04 0.43,-0.08" />
      </g>
    </g>
    <g
       id="Actor_.7">
      <g
         style="stroke:#000000;stroke-width:0.353"
         id="g3774">
        <path
           id="path3772"
           d="m 249.68,73.64 -0.07,0.04 m -21.9,-2.51 5.98,-0.93 m -5.98,2.54 v -1.61 l -1.6,3.45 4.37,2.53 5.98,-0.93 1.6,-3.45 -4.37,-2.53 v 1.23 m -10.66,17.56 -0.53,0.3 m -15.88,-3.46 v 1.23 m -5.98,-0.3 5.98,-0.93 4.38,2.53 -1.62,3.45 -5.96,0.92 -4.38,-2.52 1.6,-3.45 v 1.6 m -21.08,13.1 v 1.22 m -5.98,-0.3 v 1.61 m -1.46,1.54 -0.14,0.3 4.37,2.53 5.98,-0.93 1.6,-3.45 -4.37,-2.52 -5.98,0.92 -1.46,3.15 m -19.64,11.55 0.01,1.23 m -5.98,-0.3 5.97,-0.93 4.39,2.53 -1.61,3.45 -5.97,0.92 -4.38,-2.52 1.6,-3.45 v 1.6 m -21.08,13.1 v 1.23 m -5.98,-0.31 5.98,-0.92 4.37,2.53 -1.6,3.45 -5.98,0.92 -4.37,-2.52 1.6,-3.46 v 1.61 m -21.09,13.1 v 1.22 m -5.98,-0.3 -1.6,3.45 4.38,2.53 5.97,-0.93 1.61,-3.45 -4.38,-2.52 -5.98,0.92 v 1.61 M 67.44,174.49 249.68,69.27 M 65.32,164.93 71.3,164 m 0,1.23 V 164 l 4.37,2.53 -1.6,3.45 -5.98,0.92 -4.37,-2.52 1.6,-3.45 v 1.6 m 2.12,12.33 v -4.37 m -10.67,-0.32 v -4.37 m 0.03,4.63 -0.02,-0.36 m 0.73,-3.23 v 4.37 m 9.93,3.65 182.24,-105.22 v -4.37 l -9.93,-5.73 m -182.24,107.3 6.32,3.64 0.02,4.39 m 3.59,-4.38 c -0.27,0.12 -0.27,0.12 -0.53,0.23 -0.2,0.06 -0.2,0.06 -0.4,0.11 -0.44,0.05 -0.44,0.05 -0.88,0.09 -0.22,-0.01 -0.22,-0.01 -0.44,-0.03 -0.21,-0.03 -0.22,-0.03 -0.43,-0.06 -0.2,-0.06 -0.2,-0.05 -0.4,-0.11 -0.27,-0.12 -0.27,-0.12 -0.53,-0.24 m -6.32,0.73 c 3.43,1.99 3.43,1.99 6.86,3.96 0.18,0.09 0.18,0.09 0.37,0.17 0.21,0.05 0.22,0.05 0.43,0.1 0.15,0.02 0.15,0.02 0.31,0.03 0.15,0 0.15,0 0.31,0 0.23,-0.03 0.23,-0.02 0.45,-0.06 0.27,-0.08 0.28,-0.08 0.54,-0.18 0.33,-0.18 0.33,-0.18 0.66,-0.37 m -9.93,-3.65 c -0.2,-0.15 -0.2,-0.15 -0.4,-0.3 -0.1,-0.11 -0.1,-0.12 -0.19,-0.23 -0.06,-0.13 -0.06,-0.13 -0.12,-0.25 M 239.75,63.54 c -91.12,52.6 -91.12,52.6 -182.24,105.22 -0.2,0.14 -0.2,0.14 -0.4,0.3 -0.1,0.11 -0.1,0.11 -0.19,0.23 -0.06,0.12 -0.06,0.13 -0.11,0.25 -0.03,0.13 -0.03,0.13 -0.04,0.26 0.01,0.12 0.01,0.13 0.03,0.25 0.06,0.13 0.06,0.13 0.12,0.25 0.09,0.12 0.09,0.12 0.19,0.23 0.2,0.16 0.2,0.16 0.4,0.31 m 6.34,8.03 c 0.25,0.12 0.25,0.12 0.51,0.22 0.2,0.06 0.2,0.06 0.4,0.11 0.21,0.04 0.22,0.04 0.43,0.07 0.22,0.01 0.22,0.01 0.44,0.02 0.44,-0.04 0.44,-0.04 0.88,-0.09 0.2,-0.05 0.2,-0.05 0.4,-0.11 0.26,-0.11 0.26,-0.11 0.53,-0.23" />
      </g>
    </g>
  </g>
</svg>
