<?xml version="1.0" encoding="UTF-8" standalone="no"?>
<svg
   width="297.000mm"
   height="210.000mm"
   viewBox="0.000000 0.000000 297.000000 210.000000"
   stroke-linejoin="round"
   stroke-linecap="round"
   fill="none"
   fill-rule="evenodd"
   version="1.1"
   id="svg2412"
   sodipodi:docname="nut_traps.svg"
   inkscape:version="1.2.2 (732a01da63, 2022-12-09)"
   xmlns:inkscape="http://www.inkscape.org/namespaces/inkscape"
   xmlns:sodipodi="http://sodipodi.sourceforge.net/DTD/sodipodi-0.dtd"
   xmlns="http://www.w3.org/2000/svg"
   xmlns:svg="http://www.w3.org/2000/svg">
  <sodipodi:namedview
     id="namedview2414"
     pagecolor="#ffffff"
     bordercolor="#000000"
     borderopacity="0.25"
     inkscape:showpageshadow="2"
     inkscape:pageopacity="0.0"
     inkscape:pagecheckerboard="0"
     inkscape:deskcolor="#d1d1d1"
     inkscape:document-units="mm"
     showgrid="false"
     inkscape:zoom="1.0873115"
     inkscape:cx="451.11267"
     inkscape:cy="250.1583"
     inkscape:window-width="1920"
     inkscape:window-height="1017"
     inkscape:window-x="1912"
     inkscape:window-y="-8"
     inkscape:window-maximized="1"
     inkscape:current-layer="layer2" />
  <desc
     id="desc1791">Composer Export</desc>
  <script
     type="text/ecmascript"
     id="script1793"><![CDATA[
if(typeof(top) != "undefined")
{
	top.ShowPaper = ShowPaper;
}
function ShowHotSpot(evt,hotspotid)
{
	var svgDocument = evt.target.ownerDocument;
	var strId = "hotspot."+hotspotid;
	var hotspot = svgDocument.getElementById(strId);
	if(hotspot)
		hotspot.setAttribute("opacity",".5");
}
function HideHotSpot(evt,hotspotid)
{
	var svgDocument = evt.target.ownerDocument;
	var strId = "hotspot."+hotspotid;
	var hotspot = svgDocument.getElementById(strId);
	if(hotspot)
		hotspot.setAttribute("opacity","0");

	var toolTip = svgDocument.getElementById('ToolTip');
	if(toolTip)
		toolTip.setAttribute("visibility","hidden");
}
function ShowToolTip(evt,hotspotid,strTooltip)
{
	if(strTooltip=="")
	return;

	// change text
	var svgDocument = evt.target.ownerDocument;
	var tiptext = svgDocument.getElementById('ToolTipText');
	if( !tiptext )
	return;
	tiptext.firstChild.nodeValue = " " + strTooltip + "  " ;

	// show tooltip before, else some refresh issue

	var toolTip = svgDocument.getElementById('ToolTip');
	if(!toolTip)
	return;

	toolTip.setAttribute("visibility","visible");
	toolTip.setAttribute("opacity",".95");

	// move tooltip
	// get viewbox

	var root = svgDocument.documentElement;
	var vbox = (root.getAttribute("viewBox")).split(' ');
	var x0 = parseFloat(vbox[0]);
	var y0 = parseFloat(vbox[1]);
	var vboxW = parseFloat(vbox[2]);
	var vboxH = parseFloat(vbox[3]);

	// get default width of svg

	var strW = root.getAttribute("width");
	var svgW = parseFloat(strW);
	if(strW.indexOf('mm') != -1)
	svgW *= 3.779;

	var strH = root.getAttribute("height");
	var svgH = parseFloat(strH);
	if(strH.indexOf('mm') != -1)
	svgH *= 3.779;  	// 96 dpi  -> 96/25.4 = 3.779

	// update the viewbox / width / height if svg is embedded in html with zoom fit all
	var realx0 = x0;
	var realy0 = y0;
	var realvboxW = vboxW;
	var realvboxH = vboxH;
	var realsvgW = svgW;
	var realsvgH = svgH;

	if ((typeof(top) == "undefined") || (typeof(top.svgctl1) != "undefined")) // embedded in html
	{
		// get window size in pxl

		svgW = window.innerWidth;
		svgH = window.innerHeight;

		// calculate real viewbox

		realsvgW = svgW;
		realsvgH = svgH;
		if((svgW / svgH) > (vboxW / vboxH))
		{
			realvboxW = (vboxH * svgW) / svgH;
			realvboxH = vboxH;
			realx0 = x0 - (realvboxW - vboxW)/2 ;
		}
		else
		{
			realvboxH = (vboxW * svgH) / svgW;
			realvboxW = vboxW;
			realy0 = y0 - (realvboxH - vboxH)/2 ;
		}
	}

	// get user zoom/pan

	var newScale = root.currentScale;
	var translation = root.currentTranslate;

	// transform pxl to user unit

	var xPos = (((evt.clientX+10- translation.x)/newScale) * realvboxW)/realsvgW  + realx0 ;
	var yPos = (((evt.clientY+5- translation.y)/newScale) * realvboxH)/ realsvgH  + realy0 ;
	var scaleForWidth = ( (1 / newScale) * realvboxH) / realsvgH;

	// move tooltip

	toolTip.setAttribute("transform", "translate(" + xPos + "," + yPos + ")" );

	// resize tooltip

	var fontsize = 12;
	tiptext.setAttribute("font-size",fontsize*scaleForWidth);
	tiptext.setAttribute("y", fontsize*scaleForWidth);
	var tipBG = svgDocument.getElementById('ToolTipBG');
	var outline = tiptext.getBBox();
	if(tipBG)
	{
		tipBG.setAttribute("stroke-width", 1*scaleForWidth);
		tipBG.setAttribute("width", Number(outline.width) );
		tipBG.setAttribute("height", Number(outline.height) + fontsize*.5*scaleForWidth );
	}
	var ToolTipShadow = svgDocument.getElementById('ToolTipShadow');
	if(ToolTipShadow)
	{
		ToolTipShadow.setAttribute("width", Number(outline.width) );
		ToolTipShadow.setAttribute("height", Number(outline.height) + fontsize*.5*scaleForWidth );
		ToolTipShadow.setAttribute("x", 3*scaleForWidth);
		ToolTipShadow.setAttribute("y", 3*scaleForWidth);
	}
}
function ShowPaper()
{
  var svgDocument = getDocument();
  var paper = svgDocument.getElementById("paperID");
  if(paper)
  {
    paper.setAttribute("transform","scale(1)");
    paper.setAttribute("opacity","1");
    paper.setAttribute("visibility","visible");
  }
  var svg = svgDocument.getRootElement();
  if(svg)
  {
    svg.setAttribute("width","307.000mm");
    svg.setAttribute("height","220.000mm");
    svg.setAttribute("viewBox","-5.000000 -5.000000 307.000000 220.000000");
  }
}
]]></script>
  <defs
     id="defs1795" />
  <g
     inkscape:groupmode="layer"
     id="layer1"
     inkscape:label="Nuts_fill"
     style="display:inline">
    <path
       style="display:inline;fill:#97fa98"
       d="m 234.47,50.73 1.68,0.84 1.69,1.34 v 3.11 l -0.51,1.33 -0.86,1.51 -1.16,0.51 -2.3,0.43 -2.37,0.01 -0.73,-0.15 -1.68,-0.84 -1.73,-1.3 0.04,-3.21 1.04,-2.32 0.42,-0.59 1.97,-0.6 0.85,-0.17 2.53,-0.09 z"
       id="path1799" />
    <path
       style="display:inline;fill:#97fa98"
       d="m 127.56,113.87 2.04,1.49 -0.02,3.11 -0.51,1.34 -0.9,1.63 -2.18,0.68 -1.75,0.24 -2.02,-0.09 -1.39,-0.49 -1.68,-1.02 -0.85,-0.66 -0.01,-3.32 1.04,-2.34 0.47,-0.53 1.47,-0.55 1.63,-0.27 h 2.53 l 0.62,0.1 z"
       id="path1801" />
    <path
       style="display:inline;fill:#97fa98"
       d="m 99.11,128.84 0.84,0.35 2.02,1.34 0.6,0.62 v 2.54 l -0.27,0.93 -1.14,2.4 -1.09,0.42 -1.74,0.41 -0.51,0.08 h -2.54 l -0.73,-0.15 -1.68,-0.85 -1.5,-1.17 -0.16,-0.23 -0.01,-2.88 0.85,-2.21 0.62,-0.9 2.17,-0.69 0.78,-0.09 2.37,-0.1 z"
       id="path1803" />
    <path
       style="display:inline;fill:#97fa98"
       d="m 180.93,82.22 1.17,0.67 1.62,1.28 v 2.88 l -0.44,1.28 -0.83,1.69 -0.51,0.33 -2.8,0.7 -3.1,-0.07 -1.51,-0.68 -1.34,-0.86 -0.83,-0.71 -0.01,-2.88 0.92,-2.31 0.52,-0.83 1.86,-0.67 2.3,-0.26 h 1.02 l 0.95,0.09 z"
       id="path1813" />
    <path
       style="display:inline;fill:#97fa98"
       d="m 155.34,98.71 1.36,1.17 -0.01,2.77 -0.57,1.45 -0.84,1.68 -1.46,0.56 -2.13,0.36 -2.59,-0.06 -1.68,-0.68 -1.84,-1.37 -0.17,-0.15 -0.02,-3.32 0.85,-2.02 0.67,-0.85 2.26,-0.64 1.17,-0.17 h 2.03 l 0.61,0.1 z"
       id="path1815" />
    <path
       style="display:inline;fill:#97fa98"
       d="m 73.52,145.18 1.94,1.46 0.01,2.87 -0.27,0.94 -1.01,2.03 -0.73,0.45 -2.41,0.58 -0.67,0.07 h -1.86 l -1.41,-0.31 -2,-1.2 -1,-0.88 -0.01,-2.71 0.77,-2.12 0.69,-1.16 2.01,-0.7 0.78,-0.08 3.15,-0.08 z"
       id="path1817" />
    <path
       style="display:inline;fill:#97fa98"
       d="m 207.86,66.56 2.02,1.18 0.94,0.95 0.01,2.54 -0.44,1.44 -1.02,1.84 -1.22,0.47 -1.74,0.41 -0.84,0.07 h -1.69 l -1.41,-0.31 -1.83,-1.03 -1.17,-1.05 -0.01,-2.88 0.83,-2.23 0.61,-0.91 2.03,-0.66 1.28,-0.19 2.65,0.02 z"
       id="path1811" />
  </g>
  <g
     inkscape:groupmode="layer"
     id="layer2"
     inkscape:label="Stroke">
    <g
       id="Actor_.0">
      <g
         style="stroke:#000000;stroke-width:0.353"
         id="g1915">
        <path
           d="M68.30,150.97 C68.69,150.83 68.69,150.83 69.08,150.68 C69.44,150.56 69.44,150.56 69.80,150.45 C70.14,150.36 70.14,150.36 70.48,150.28 C70.81,150.21 70.81,150.21 71.14,150.15 "
           id="path1847" />
        <path
           d="M71.14,150.15 C70.92,150.18 70.92,150.18 70.70,150.21 C70.48,150.23 70.48,150.23 70.26,150.24 C70.04,150.25 70.04,150.25 69.82,150.26 C69.60,150.25 69.60,150.25 69.37,150.25 C69.15,150.23 69.15,150.23 68.93,150.22 C68.71,150.19 68.71,150.19 68.50,150.16 C68.28,150.12 68.28,150.12 68.07,150.09 C67.87,150.04 67.87,150.04 67.66,149.99 C67.46,149.93 67.46,149.93 67.26,149.87 C67.07,149.80 67.07,149.80 66.89,149.73 C66.71,149.66 66.71,149.66 66.53,149.58 C66.37,149.49 66.37,149.49 66.20,149.41 "
           id="path1849" />
        <path
           d="M66.20,149.41 C66.45,149.55 66.45,149.55 66.69,149.71 C66.94,149.88 66.94,149.88 67.19,150.06 C67.46,150.27 67.46,150.27 67.72,150.48 C68.01,150.72 68.01,150.72 68.30,150.97 "
           id="path1851" />
        <path
           d="M68.30,153.56 C68.01,153.49 68.01,153.49 67.72,153.40 C67.46,153.31 67.46,153.31 67.19,153.22 C66.94,153.11 66.94,153.11 66.69,153.00 C66.45,152.87 66.45,152.87 66.20,152.74 C65.96,152.59 65.96,152.59 65.71,152.44 C65.46,152.26 65.46,152.26 65.21,152.09 C64.95,151.88 64.95,151.88 64.68,151.67 C64.39,151.42 64.39,151.42 64.11,151.17 "
           id="path1853" />
        <path
           d="M64.11,148.58 C64.21,148.27 64.21,148.27 64.31,147.96 C64.41,147.69 64.41,147.69 64.50,147.43 C64.59,147.20 64.59,147.20 64.68,146.97 C64.77,146.77 64.77,146.77 64.85,146.56 "
           id="path1855" />
        <path
           d="M64.85,146.56 C64.81,146.69 64.81,146.69 64.76,146.81 C64.73,146.94 64.73,146.94 64.70,147.07 C64.69,147.20 64.69,147.20 64.69,147.33 C64.70,147.45 64.70,147.46 64.71,147.58 C64.74,147.71 64.74,147.71 64.77,147.84 C64.82,147.96 64.82,147.96 64.87,148.09 C64.94,148.21 64.94,148.21 65.01,148.33 C65.09,148.45 65.09,148.45 65.18,148.57 C65.28,148.69 65.28,148.69 65.39,148.80 C65.51,148.91 65.51,148.91 65.63,149.01 C65.76,149.12 65.76,149.12 65.90,149.22 C66.05,149.31 66.05,149.31 66.20,149.41 "
           id="path1857" />
        <path
           d="M66.20,149.41 C65.96,149.28 65.96,149.28 65.71,149.15 C65.46,149.04 65.46,149.04 65.21,148.93 C64.95,148.83 64.95,148.83 64.68,148.74 C64.40,148.66 64.40,148.66 64.11,148.58 "
           id="path1859" />
        <path
           d="M67.78,144.60 C67.44,144.68 67.44,144.68 67.10,144.77 C66.74,144.88 66.74,144.88 66.38,145.00 C65.99,145.14 65.99,145.14 65.60,145.29 "
           id="path1861" />
        <path
           d="M65.60,145.29 C65.50,145.43 65.50,145.43 65.40,145.57 C65.30,145.72 65.30,145.72 65.21,145.87 C65.12,146.04 65.12,146.04 65.03,146.20 C64.94,146.38 64.94,146.38 64.85,146.56 "
           id="path1863" />
        <path
           d="M64.85,146.56 C64.92,146.44 64.92,146.44 64.99,146.32 C65.07,146.20 65.07,146.20 65.15,146.08 C65.25,145.96 65.25,145.96 65.36,145.85 C65.47,145.74 65.48,145.74 65.59,145.63 C65.73,145.53 65.73,145.53 65.86,145.43 C66.01,145.33 66.01,145.33 66.16,145.24 C66.33,145.15 66.33,145.15 66.49,145.06 C66.66,144.98 66.66,144.98 66.84,144.91 C67.03,144.84 67.03,144.84 67.22,144.77 C67.41,144.71 67.41,144.71 67.61,144.65 C67.81,144.60 67.81,144.60 68.02,144.55 C68.23,144.51 68.23,144.51 68.45,144.47 "
           id="path1865" />
        <path
           d="M70.70,145.32 C70.55,145.29 70.54,145.30 70.39,145.28 C70.24,145.27 70.24,145.27 70.08,145.25 C69.93,145.25 69.93,145.25 69.77,145.25 C69.62,145.25 69.62,145.25 69.46,145.26 C69.31,145.27 69.31,145.27 69.15,145.28 C69.00,145.30 69.00,145.30 68.85,145.32 C68.70,145.35 68.70,145.35 68.55,145.38 C68.41,145.41 68.41,145.41 68.28,145.44 C68.13,145.49 68.13,145.49 67.99,145.53 C67.86,145.58 67.86,145.58 67.73,145.63 C67.60,145.68 67.60,145.68 67.48,145.74 C67.37,145.80 67.37,145.80 67.25,145.86 C67.15,145.93 67.15,145.93 67.04,145.99 C66.95,146.06 66.95,146.06 66.85,146.14 C66.77,146.21 66.77,146.21 66.69,146.29 C66.62,146.37 66.62,146.37 66.55,146.45 C66.49,146.53 66.49,146.53 66.43,146.62 C66.38,146.70 66.38,146.70 66.34,146.79 C66.30,146.88 66.30,146.88 66.27,146.96 C66.25,147.05 66.25,147.05 66.23,147.14 C66.22,147.23 66.22,147.23 66.22,147.32 C66.23,147.41 66.23,147.41 66.23,147.50 C66.25,147.59 66.25,147.59 66.28,147.68 C66.31,147.77 66.31,147.77 66.35,147.86 C66.39,147.94 66.39,147.94 66.44,148.03 C66.50,148.11 66.50,148.11 66.56,148.19 C66.63,148.27 66.63,148.27 66.71,148.35 C66.79,148.43 66.79,148.43 66.88,148.50 C66.97,148.57 66.97,148.57 67.07,148.65 C67.17,148.71 67.17,148.71 67.28,148.78 C67.39,148.84 67.39,148.84 67.51,148.90 C67.63,148.95 67.63,148.95 67.76,149.01 C67.89,149.06 67.89,149.06 68.02,149.10 C68.16,149.14 68.16,149.14 68.30,149.18 C68.44,149.22 68.44,149.22 68.59,149.25 C68.74,149.28 68.74,149.28 68.89,149.31 C69.04,149.33 69.04,149.33 69.19,149.34 C69.34,149.36 69.34,149.36 69.50,149.37 C69.66,149.37 69.66,149.37 69.81,149.37 C69.97,149.37 69.97,149.37 70.12,149.36 C70.28,149.35 70.28,149.35 70.43,149.34 C70.58,149.32 70.58,149.32 70.73,149.30 C70.88,149.27 70.88,149.27 71.03,149.24 C71.18,149.21 71.18,149.21 71.32,149.18 C71.46,149.13 71.46,149.13 71.59,149.09 C71.73,149.04 71.73,149.04 71.86,148.99 C71.98,148.94 71.98,148.94 72.10,148.88 C72.22,148.82 72.22,148.82 72.33,148.76 C72.44,148.70 72.44,148.70 72.54,148.63 C72.64,148.56 72.64,148.56 72.73,148.48 C72.81,148.41 72.81,148.41 72.89,148.33 C72.97,148.25 72.97,148.25 73.04,148.17 C73.10,148.09 73.10,148.09 73.15,148.01 C73.20,147.92 73.20,147.92 73.25,147.83 C73.28,147.75 73.28,147.75 73.31,147.66 C73.33,147.57 73.33,147.57 73.35,147.48 C73.36,147.39 73.36,147.39 73.36,147.30 C73.36,147.21 73.36,147.21 73.35,147.12 C73.33,147.03 73.33,147.03 73.31,146.94 C73.27,146.85 73.27,146.85 73.24,146.77 C73.19,146.68 73.19,146.68 73.14,146.59 C73.08,146.51 73.08,146.51 73.02,146.43 C72.95,146.35 72.95,146.35 72.88,146.27 C72.79,146.19 72.79,146.19 72.71,146.12 C72.61,146.05 72.61,146.05 72.52,145.98 C72.41,145.91 72.41,145.91 72.30,145.84 C72.19,145.78 72.19,145.78 72.07,145.72 C71.95,145.67 71.95,145.67 71.82,145.61 C71.69,145.57 71.69,145.57 71.56,145.52 C71.42,145.48 71.42,145.48 71.28,145.44 C71.14,145.40 71.14,145.40 70.99,145.37 C70.85,145.34 70.85,145.34 70.70,145.32 "
           id="path1867" />
        <path
           d="M70.44,148.39 C70.33,148.37 70.33,148.37 70.22,148.36 C70.11,148.35 70.11,148.35 70.00,148.34 C69.89,148.34 69.89,148.34 69.78,148.34 C69.67,148.34 69.67,148.34 69.56,148.34 C69.44,148.35 69.44,148.35 69.33,148.36 C69.23,148.37 69.23,148.37 69.12,148.39 C69.01,148.41 69.01,148.41 68.91,148.43 C68.80,148.45 68.80,148.45 68.70,148.48 C68.60,148.51 68.60,148.51 68.50,148.54 C68.41,148.57 68.41,148.57 68.32,148.61 C68.23,148.65 68.23,148.65 68.14,148.69 C68.06,148.73 68.06,148.73 67.98,148.77 C67.90,148.82 67.90,148.82 67.83,148.87 C67.76,148.92 67.76,148.92 67.69,148.98 "
           id="path1869" />
        <path
           d="M71.90,148.98 C71.95,148.93 71.95,148.92 72.01,148.87 C72.06,148.82 72.06,148.82 72.11,148.76 C72.15,148.70 72.15,148.70 72.19,148.64 C72.23,148.58 72.23,148.58 72.26,148.52 C72.28,148.46 72.28,148.45 72.31,148.39 C72.32,148.33 72.32,148.33 72.33,148.26 C72.34,148.20 72.34,148.20 72.34,148.14 C72.34,148.07 72.34,148.07 72.33,148.01 C72.32,147.94 72.32,147.94 72.30,147.88 C72.28,147.82 72.28,147.82 72.25,147.76 C72.22,147.69 72.22,147.69 72.18,147.63 C72.14,147.57 72.14,147.57 72.10,147.51 C72.05,147.46 72.05,147.46 71.99,147.40 C71.93,147.35 71.93,147.35 71.87,147.29 C71.81,147.24 71.81,147.24 71.74,147.19 C71.66,147.14 71.66,147.14 71.59,147.10 C71.50,147.05 71.50,147.05 71.42,147.01 C71.33,146.97 71.33,146.97 71.24,146.93 C71.15,146.90 71.15,146.90 71.06,146.86 C70.96,146.83 70.96,146.83 70.86,146.81 C70.75,146.78 70.75,146.78 70.65,146.76 C70.54,146.74 70.54,146.74 70.44,146.72 C70.33,146.70 70.33,146.70 70.22,146.69 C70.11,146.68 70.11,146.68 70.00,146.68 C69.89,146.67 69.89,146.67 69.78,146.67 C69.67,146.67 69.67,146.67 69.56,146.68 C69.44,146.69 69.44,146.69 69.33,146.69 C69.23,146.71 69.23,146.71 69.12,146.72 C69.01,146.74 69.01,146.74 68.91,146.76 C68.80,146.79 68.80,146.79 68.70,146.81 C68.60,146.84 68.60,146.84 68.50,146.87 C68.41,146.91 68.41,146.91 68.32,146.94 C68.23,146.98 68.23,146.98 68.14,147.02 C68.06,147.06 68.06,147.06 67.98,147.11 C67.90,147.16 67.90,147.16 67.83,147.20 C67.76,147.25 67.76,147.25 67.69,147.31 C67.63,147.36 67.63,147.36 67.57,147.41 C67.52,147.47 67.52,147.47 67.47,147.53 C67.43,147.59 67.43,147.59 67.39,147.65 C67.36,147.71 67.35,147.71 67.32,147.77 C67.30,147.83 67.30,147.83 67.28,147.90 C67.26,147.96 67.26,147.96 67.25,148.02 C67.24,148.09 67.24,148.09 67.24,148.15 C67.24,148.22 67.24,148.22 67.25,148.28 C67.26,148.34 67.26,148.34 67.28,148.41 C67.30,148.47 67.30,148.47 67.33,148.53 C67.36,148.59 67.36,148.59 67.40,148.66 C67.44,148.72 67.44,148.72 67.48,148.77 C67.54,148.83 67.54,148.83 67.59,148.89 C67.64,148.93 67.64,148.93 67.69,148.97 "
           id="path1871" />
        <path
           d="M67.73,148.96 C67.86,148.91 67.86,148.91 67.99,148.86 C68.13,148.82 68.13,148.82 68.26,148.78 C68.41,148.74 68.41,148.74 68.55,148.71 C68.70,148.68 68.70,148.68 68.85,148.65 C69.00,148.63 69.00,148.63 69.15,148.61 C69.31,148.60 69.31,148.60 69.46,148.59 C69.62,148.59 69.62,148.59 69.77,148.58 C69.93,148.58 69.93,148.58 70.08,148.59 C70.24,148.60 70.24,148.60 70.39,148.61 C70.54,148.63 70.54,148.63 70.70,148.65 C70.85,148.67 70.85,148.67 70.99,148.70 C71.14,148.74 71.14,148.74 71.28,148.77 C71.42,148.81 71.42,148.81 71.56,148.85 C71.69,148.90 71.69,148.90 71.82,148.95 C71.86,148.96 71.86,148.96 71.89,148.98 "
           id="path1873" />
        <path
           d="M68.30,153.56 C68.69,153.59 68.69,153.59 69.08,153.61 C69.44,153.61 69.44,153.61 69.80,153.61 C70.14,153.59 70.14,153.59 70.48,153.57 C70.51,153.57 70.51,153.56 70.55,153.56 C70.85,153.52 70.85,153.53 71.14,153.49 C71.41,153.44 71.41,153.44 71.69,153.38 "
           id="path1875" />
        <path
           d="M71.69,153.38 C71.41,153.44 71.41,153.44 71.14,153.49 C70.92,153.52 70.92,153.51 70.70,153.54 C70.63,153.55 70.63,153.55 70.55,153.56 "
           id="path1877" />
        <path
           d="M68.88,144.41 C69.10,144.39 69.10,144.39 69.32,144.38 C69.54,144.37 69.54,144.37 69.76,144.36 C69.99,144.37 69.99,144.37 70.21,144.37 C70.43,144.39 70.43,144.39 70.65,144.41 C70.87,144.43 70.87,144.43 71.09,144.46 C71.30,144.50 71.30,144.50 71.51,144.54 C71.72,144.58 71.72,144.58 71.92,144.63 C72.12,144.69 72.12,144.69 72.32,144.75 C72.51,144.82 72.51,144.82 72.70,144.89 C72.87,144.96 72.87,144.96 73.05,145.04 C73.22,145.13 73.22,145.13 73.38,145.22 "
           id="path1879" />
        <path
           d="M73.38,145.22 C73.14,145.09 73.14,145.09 72.89,144.96 C72.64,144.85 72.64,144.85 72.39,144.74 C72.13,144.64 72.13,144.64 71.86,144.55 C71.57,144.47 71.57,144.46 71.29,144.39 C70.90,144.36 70.90,144.37 70.51,144.35 C70.15,144.34 70.15,144.34 69.79,144.34 C69.45,144.36 69.45,144.36 69.11,144.39 "
           id="path1881" />
        <path
           d="M70.44,148.39 C70.54,148.40 70.54,148.40 70.65,148.42 C70.75,148.45 70.75,148.45 70.86,148.47 C70.96,148.50 70.96,148.50 71.06,148.53 C71.15,148.56 71.15,148.56 71.24,148.60 C71.33,148.64 71.33,148.64 71.42,148.68 C71.50,148.72 71.50,148.72 71.59,148.76 C71.66,148.81 71.66,148.81 71.74,148.86 C71.81,148.91 71.81,148.91 71.87,148.96 C71.88,148.97 71.88,148.97 71.89,148.98 "
           id="path1883" />
        <path
           d="M71.80,153.36 C72.14,153.27 72.14,153.27 72.48,153.19 C72.84,153.07 72.84,153.07 73.20,152.96 C73.59,152.81 73.59,152.81 73.98,152.66 "
           id="path1885" />
        <path
           d="M73.98,152.66 C74.08,152.52 74.08,152.52 74.19,152.38 C74.28,152.23 74.28,152.23 74.37,152.08 C74.47,151.92 74.47,151.92 74.55,151.75 C74.64,151.57 74.64,151.57 74.73,151.39 C74.82,151.19 74.82,151.19 74.90,150.99 C74.99,150.76 74.99,150.76 75.08,150.53 C75.18,150.26 75.18,150.26 75.27,150.00 C75.37,149.68 75.37,149.68 75.48,149.37 "
           id="path1887" />
        <path
           d="M75.48,146.78 C75.37,146.92 75.37,146.92 75.27,147.07 C75.17,147.22 75.17,147.22 75.08,147.37 C74.99,147.53 74.99,147.53 74.90,147.70 C74.81,147.88 74.81,147.88 74.73,148.06 C74.64,148.26 74.64,148.26 74.55,148.46 C74.46,148.69 74.46,148.69 74.37,148.92 C74.28,149.19 74.28,149.19 74.19,149.45 C74.08,149.76 74.08,149.76 73.98,150.08 "
           id="path1889" />
        <path
           d="M73.98,150.08 C73.59,150.05 73.59,150.05 73.20,150.03 C72.84,150.03 72.84,150.03 72.48,150.03 C72.14,150.05 72.14,150.05 71.80,150.07 C71.47,150.11 71.47,150.11 71.14,150.15 "
           id="path1891" />
        <path
           d="M71.14,150.15 C71.35,150.11 71.35,150.11 71.56,150.07 C71.77,150.03 71.77,150.03 71.97,149.97 C72.17,149.92 72.17,149.92 72.37,149.85 C72.55,149.79 72.55,149.79 72.74,149.72 C72.78,149.70 72.78,149.70 72.83,149.68 C72.96,149.62 72.96,149.62 73.09,149.56 C73.26,149.47 73.26,149.47 73.42,149.38 C73.57,149.29 73.57,149.29 73.72,149.19 C73.85,149.09 73.85,149.09 73.99,148.99 C74.11,148.88 74.11,148.88 74.22,148.77 C74.33,148.66 74.33,148.66 74.43,148.54 C74.51,148.42 74.51,148.42 74.60,148.30 C74.66,148.18 74.66,148.18 74.73,148.06 C74.78,147.93 74.78,147.93 74.82,147.81 C74.85,147.68 74.85,147.68 74.88,147.55 C74.89,147.42 74.89,147.42 74.89,147.29 C74.89,147.17 74.89,147.17 74.87,147.04 C74.84,146.91 74.84,146.91 74.81,146.78 C74.76,146.66 74.76,146.66 74.71,146.53 C74.65,146.41 74.65,146.41 74.58,146.29 C74.49,146.17 74.49,146.17 74.40,146.05 C74.30,145.94 74.30,145.94 74.20,145.82 C74.08,145.71 74.08,145.71 73.96,145.61 C73.82,145.50 73.82,145.50 73.68,145.40 C73.53,145.31 73.53,145.31 73.38,145.22 "
           id="path1893" />
        <path
           d="M73.38,145.22 C73.63,145.36 73.63,145.36 73.87,145.52 C74.12,145.69 74.12,145.69 74.37,145.87 C74.64,146.08 74.64,146.08 74.90,146.29 C75.19,146.53 75.19,146.53 75.48,146.78 "
           id="path1895" />
        <path
           d="M68.30,150.97 L68.30,153.56 "
           id="path1897" />
        <path
           d="M64.11,151.17 L64.11,148.58 "
           id="path1899" />
        <path
           d="M68.02,144.55 L67.78,144.60 "
           id="path1901" />
        <path
           d="M70.70,145.32 L70.44,146.72 L70.44,148.39 "
           id="path1903" />
        <path
           d="M67.69,148.98 L67.73,148.96 "
           id="path1905" />
        <path
           d="M69.11,144.39 L68.88,144.41 L68.44,144.47 "
           id="path1907" />
        <path
           d="M71.69,153.38 L71.80,153.36 "
           id="path1909" />
        <path
           d="M75.48,149.37 L75.48,146.78 "
           id="path1911" />
        <path
           d="M73.98,152.66 L73.98,150.08 "
           id="path1913" />
      </g>
    </g>
    <g
       id="Actor_.1">
      <g
         style="stroke:#000000;stroke-width:0.353"
         id="g1972">
        <path
           id="path1970"
           d="m 128.11,121.41 v -2.59 m -2.18,3.29 -0.24,0.05 -0.42,0.07 m 0.75,-4.5 -0.06,-0.03 m -1.13,-3.64 -0.26,1.41 v 1.66 m -2.14,2.59 v 2.59 m 7.18,-4.19 v -2.59 m -4.44,6.72 0.1,-0.02 m -7.03,-2.31 v -2.59 m 6.37,4.99 0.23,-0.03 0.33,-0.04 m 4.44,-6.72 c -0.29,-0.25 -0.29,-0.25 -0.58,-0.5 -0.26,-0.21 -0.26,-0.21 -0.53,-0.41 -0.25,-0.18 -0.25,-0.18 -0.5,-0.36 -0.24,-0.15 -0.24,-0.15 -0.49,-0.3 m -0.06,-0.03 c -0.21,-0.11 -0.21,-0.11 -0.43,-0.22 -0.25,-0.12 -0.25,-0.12 -0.5,-0.22 -0.26,-0.1 -0.26,-0.1 -0.53,-0.19 -0.29,-0.08 -0.29,-0.09 -0.57,-0.16 -0.39,-0.03 -0.39,-0.03 -0.78,-0.05 -0.36,0 -0.36,0 -0.72,0 -0.34,0.02 -0.34,0.02 -0.68,0.04 -0.12,0.02 -0.12,0.02 -0.23,0.03 m 2.95,4.54 c -0.14,-0.05 -0.14,-0.05 -0.27,-0.1 -0.14,-0.04 -0.14,-0.04 -0.28,-0.08 -0.14,-0.04 -0.14,-0.04 -0.28,-0.07 -0.15,-0.03 -0.15,-0.03 -0.3,-0.05 -0.15,-0.02 -0.15,-0.02 -0.31,-0.04 -0.15,-0.01 -0.15,-0.01 -0.31,-0.02 -0.15,-0.01 -0.15,-0.01 -0.31,-0.01 -0.15,0 -0.15,0 -0.31,0.01 -0.15,0.01 -0.15,0.01 -0.31,0.02 -0.15,0.02 -0.15,0.02 -0.3,0.04 -0.15,0.03 -0.15,0.03 -0.3,0.06 -0.14,0.03 -0.14,0.03 -0.29,0.07 -0.13,0.04 -0.13,0.04 -0.27,0.08 -0.13,0.05 -0.13,0.05 -0.26,0.1 -0.02,0.01 -0.02,0.01 -0.04,0.01 m 2.75,-0.59 c -0.11,-0.01 -0.11,-0.01 -0.22,-0.02 -0.11,-0.01 -0.11,-0.01 -0.22,-0.02 -0.11,0 -0.11,0 -0.22,0 -0.11,0 -0.11,0 -0.22,0 -0.11,0.01 -0.11,0.01 -0.22,0.02 -0.11,0.01 -0.11,0.01 -0.22,0.03 -0.11,0.02 -0.11,0.02 -0.21,0.04 -0.11,0.02 -0.11,0.02 -0.21,0.05 -0.1,0.03 -0.1,0.03 -0.2,0.06 -0.09,0.03 -0.09,0.03 -0.18,0.07 -0.09,0.03 -0.09,0.03 -0.18,0.07 -0.08,0.05 -0.08,0.05 -0.16,0.09 -0.08,0.05 -0.08,0.05 -0.15,0.1 -0.07,0.05 -0.07,0.05 -0.14,0.1 m 0.61,2 c 0.39,-0.15 0.39,-0.15 0.78,-0.29 0.36,-0.12 0.36,-0.12 0.72,-0.23 0.34,-0.09 0.34,-0.09 0.68,-0.17 0.54,-0.11 0.54,-0.1 1.08,-0.21 0.21,-0.05 0.21,-0.05 0.41,-0.1 0.2,-0.06 0.2,-0.06 0.4,-0.12 0.19,-0.07 0.19,-0.07 0.37,-0.14 0.18,-0.07 0.18,-0.07 0.35,-0.15 0.17,-0.09 0.17,-0.09 0.33,-0.18 0.15,-0.09 0.15,-0.09 0.3,-0.19 0.13,-0.1 0.13,-0.1 0.27,-0.2 0.12,-0.11 0.12,-0.11 0.24,-0.22 0.1,-0.12 0.1,-0.12 0.2,-0.23 0.08,-0.12 0.08,-0.12 0.17,-0.24 0.06,-0.12 0.06,-0.12 0.13,-0.24 0.05,-0.13 0.05,-0.13 0.09,-0.26 0.03,-0.12 0.03,-0.12 0.06,-0.25 0.01,-0.13 0.01,-0.13 0.02,-0.26 -0.01,-0.13 -0.01,-0.13 -0.03,-0.26 -0.03,-0.12 -0.03,-0.12 -0.06,-0.25 -0.04,-0.13 -0.04,-0.13 -0.1,-0.25 -0.06,-0.12 -0.06,-0.12 -0.13,-0.24 -0.09,-0.12 -0.09,-0.12 -0.17,-0.24 -0.11,-0.12 -0.11,-0.12 -0.21,-0.23 -0.12,-0.11 -0.12,-0.11 -0.24,-0.22 -0.14,-0.1 -0.14,-0.1 -0.28,-0.2 -0.15,-0.09 -0.15,-0.09 -0.3,-0.19 -0.16,-0.08 -0.16,-0.08 -0.33,-0.17 -0.18,-0.08 -0.18,-0.08 -0.35,-0.15 -0.19,-0.07 -0.19,-0.07 -0.38,-0.14 -0.2,-0.06 -0.2,-0.06 -0.4,-0.12 -0.2,-0.05 -0.2,-0.05 -0.41,-0.1 -0.21,-0.04 -0.21,-0.04 -0.42,-0.07 -0.22,-0.03 -0.22,-0.03 -0.44,-0.06 -0.22,-0.01 -0.22,-0.01 -0.44,-0.03 -0.22,0 -0.22,0 -0.45,-0.01 -0.22,0.01 -0.22,0.01 -0.44,0.01 -0.22,0.02 -0.22,0.02 -0.44,0.04 -0.22,0.03 -0.22,0.03 -0.44,0.06 m 3.46,4.5 c 0.05,-0.05 0.05,-0.05 0.11,-0.1 0.05,-0.06 0.05,-0.06 0.1,-0.11 0.04,-0.06 0.04,-0.06 0.08,-0.12 0.04,-0.06 0.04,-0.06 0.07,-0.12 0.02,-0.07 0.02,-0.07 0.05,-0.13 0.01,-0.06 0.01,-0.06 0.03,-0.13 0,-0.06 0,-0.06 0,-0.13 0,-0.06 0,-0.06 -0.01,-0.12 -0.01,-0.07 -0.01,-0.07 -0.03,-0.13 -0.02,-0.07 -0.02,-0.07 -0.05,-0.13 -0.03,-0.06 -0.03,-0.06 -0.07,-0.12 -0.04,-0.06 -0.04,-0.06 -0.08,-0.12 -0.05,-0.06 -0.05,-0.06 -0.11,-0.11 -0.05,-0.06 -0.06,-0.06 -0.12,-0.11 -0.06,-0.05 -0.06,-0.05 -0.13,-0.1 -0.08,-0.05 -0.08,-0.05 -0.15,-0.1 -0.09,-0.04 -0.09,-0.04 -0.17,-0.08 -0.09,-0.04 -0.09,-0.04 -0.18,-0.08 -0.09,-0.03 -0.09,-0.03 -0.18,-0.07 -0.1,-0.03 -0.1,-0.03 -0.2,-0.06 -0.11,-0.02 -0.11,-0.02 -0.21,-0.05 -0.1,-0.02 -0.1,-0.02 -0.21,-0.03 -0.11,-0.02 -0.11,-0.02 -0.22,-0.03 -0.11,-0.01 -0.11,-0.01 -0.22,-0.02 -0.11,0 -0.11,0 -0.22,0 -0.11,0 -0.11,0 -0.22,0 -0.11,0.01 -0.11,0.01 -0.22,0.02 -0.11,0.02 -0.11,0.02 -0.22,0.03 -0.11,0.02 -0.11,0.02 -0.21,0.04 -0.11,0.02 -0.11,0.02 -0.21,0.05 -0.1,0.03 -0.1,0.03 -0.2,0.06 -0.09,0.03 -0.09,0.03 -0.18,0.07 -0.09,0.04 -0.09,0.04 -0.18,0.08 -0.08,0.04 -0.08,0.04 -0.16,0.09 -0.08,0.04 -0.08,0.04 -0.15,0.09 -0.07,0.05 -0.07,0.05 -0.14,0.1 -0.06,0.06 -0.06,0.06 -0.11,0.11 -0.06,0.06 -0.06,0.06 -0.11,0.12 -0.04,0.06 -0.04,0.06 -0.08,0.12 -0.03,0.06 -0.03,0.06 -0.07,0.12 -0.02,0.06 -0.02,0.06 -0.04,0.12 -0.02,0.07 -0.02,0.07 -0.03,0.13 -0.01,0.07 -0.01,0.07 -0.01,0.13 0,0.06 0,0.06 0.01,0.13 0.02,0.06 0.02,0.06 0.03,0.13 0.03,0.06 0.03,0.06 0.05,0.12 0.03,0.06 0.03,0.06 0.07,0.12 0.04,0.06 0.04,0.06 0.09,0.12 0.05,0.06 0.05,0.06 0.1,0.12 0.05,0.04 0.05,0.04 0.1,0.08 m 2.75,-0.59 c 0.11,0.02 0.11,0.02 0.21,0.04 0.1,0.02 0.1,0.02 0.21,0.05 0.1,0.03 0.1,0.03 0.2,0.06 0.09,0.03 0.09,0.03 0.18,0.07 0.09,0.04 0.09,0.04 0.18,0.07 0.08,0.05 0.08,0.05 0.17,0.09 0.07,0.05 0.07,0.05 0.15,0.1 0.07,0.05 0.07,0.05 0.13,0.1 0.01,0.01 0.01,0.01 0.02,0.01 m -1.19,-3.66 c -0.15,-0.02 -0.15,-0.02 -0.31,-0.03 -0.15,-0.02 -0.15,-0.02 -0.31,-0.03 -0.15,0 -0.15,0 -0.31,0 -0.15,0 -0.15,0 -0.31,0 -0.15,0.02 -0.15,0.02 -0.31,0.03 -0.15,0.02 -0.15,0.02 -0.3,0.04 -0.15,0.03 -0.15,0.03 -0.3,0.05 -0.14,0.04 -0.14,0.04 -0.29,0.07 -0.13,0.04 -0.13,0.04 -0.27,0.09 -0.13,0.05 -0.13,0.05 -0.26,0.1 -0.13,0.05 -0.13,0.05 -0.25,0.11 -0.11,0.06 -0.11,0.06 -0.23,0.12 -0.1,0.06 -0.1,0.06 -0.21,0.13 -0.09,0.07 -0.09,0.07 -0.19,0.14 -0.08,0.08 -0.08,0.08 -0.16,0.16 -0.07,0.08 -0.07,0.08 -0.14,0.16 -0.06,0.08 -0.06,0.08 -0.12,0.16 -0.05,0.09 -0.05,0.09 -0.09,0.18 -0.04,0.08 -0.04,0.08 -0.07,0.17 -0.02,0.09 -0.02,0.09 -0.04,0.18 -0.01,0.09 -0.01,0.09 -0.01,0.18 0.01,0.09 0.01,0.09 0.01,0.18 0.02,0.09 0.02,0.09 0.05,0.18 0.03,0.09 0.03,0.09 0.07,0.17 0.04,0.09 0.04,0.09 0.09,0.17 0.06,0.09 0.06,0.09 0.12,0.17 0.07,0.08 0.07,0.08 0.15,0.16 0.08,0.08 0.08,0.08 0.17,0.15 0.09,0.07 0.09,0.07 0.19,0.14 0.1,0.07 0.1,0.07 0.21,0.13 0.11,0.07 0.11,0.07 0.23,0.13 0.12,0.05 0.12,0.05 0.25,0.1 0.13,0.05 0.13,0.05 0.26,0.1 0.14,0.04 0.14,0.04 0.28,0.08 0.14,0.04 0.14,0.04 0.29,0.07 0.15,0.03 0.15,0.03 0.3,0.05 0.15,0.02 0.15,0.02 0.3,0.04 0.16,0.01 0.16,0.01 0.31,0.02 0.16,0.01 0.16,0.01 0.31,0.01 0.05,0 0.05,0 0.09,0 0.11,-0.01 0.11,0 0.22,-0.01 0.16,-0.01 0.16,-0.01 0.31,-0.02 0.15,-0.02 0.15,-0.02 0.31,-0.04 0.14,-0.03 0.14,-0.03 0.29,-0.06 0.15,-0.03 0.15,-0.03 0.29,-0.07 0.14,-0.04 0.14,-0.04 0.27,-0.08 0.14,-0.05 0.14,-0.05 0.27,-0.1 0.12,-0.05 0.12,-0.05 0.24,-0.11 0.12,-0.06 0.12,-0.06 0.23,-0.12 0.11,-0.07 0.11,-0.07 0.21,-0.13 0.1,-0.08 0.1,-0.08 0.19,-0.15 0.08,-0.07 0.08,-0.07 0.17,-0.15 0.07,-0.08 0.07,-0.08 0.14,-0.16 0.06,-0.08 0.06,-0.08 0.12,-0.17 0.04,-0.08 0.04,-0.08 0.09,-0.17 0.03,-0.09 0.03,-0.09 0.06,-0.17 0.02,-0.09 0.02,-0.09 0.04,-0.18 0.01,-0.09 0.01,-0.09 0.01,-0.18 0,-0.09 0,-0.09 -0.01,-0.18 -0.02,-0.09 -0.02,-0.09 -0.04,-0.18 -0.04,-0.09 -0.04,-0.09 -0.07,-0.18 -0.05,-0.08 -0.05,-0.08 -0.1,-0.17 -0.06,-0.08 -0.06,-0.08 -0.12,-0.16 -0.07,-0.08 -0.07,-0.08 -0.14,-0.16 -0.09,-0.08 -0.09,-0.08 -0.17,-0.15 -0.1,-0.08 -0.1,-0.08 -0.19,-0.15 -0.11,-0.06 -0.11,-0.06 -0.22,-0.13 -0.11,-0.06 -0.11,-0.06 -0.23,-0.12 -0.12,-0.05 -0.12,-0.05 -0.24,-0.11 -0.14,-0.05 -0.14,-0.05 -0.27,-0.09 -0.14,-0.05 -0.14,-0.05 -0.28,-0.09 -0.14,-0.03 -0.14,-0.03 -0.28,-0.06 -0.15,-0.03 -0.15,-0.03 -0.3,-0.06 m -4.5,4.09 c 0.25,0.15 0.25,0.15 0.49,0.3 0.25,0.18 0.25,0.18 0.5,0.36 0.27,0.2 0.27,0.2 0.53,0.41 0.29,0.25 0.29,0.25 0.58,0.5 m 5.68,-0.9 c -0.39,-0.02 -0.39,-0.02 -0.78,-0.04 -0.36,-0.01 -0.36,-0.01 -0.72,0 -0.34,0.01 -0.34,0.01 -0.68,0.04 -0.33,0.04 -0.33,0.04 -0.66,0.08 -0.22,0.03 -0.22,0.03 -0.43,0.06 -0.22,0.02 -0.23,0.02 -0.45,0.03 -0.22,0.01 -0.22,0.01 -0.44,0.01 -0.22,0 -0.22,0 -0.44,-0.01 -0.23,-0.01 -0.23,-0.01 -0.45,-0.03 -0.21,-0.02 -0.21,-0.02 -0.43,-0.05 -0.21,-0.04 -0.21,-0.04 -0.43,-0.08 -0.2,-0.04 -0.2,-0.04 -0.41,-0.09 -0.2,-0.06 -0.2,-0.06 -0.4,-0.12 -0.18,-0.07 -0.18,-0.07 -0.37,-0.14 -0.18,-0.08 -0.18,-0.08 -0.36,-0.15 -0.16,-0.09 -0.16,-0.09 -0.33,-0.18 m 9.28,-2.62 c -0.11,0.14 -0.11,0.14 -0.21,0.28 -0.09,0.15 -0.09,0.15 -0.19,0.31 -0.09,0.16 -0.09,0.16 -0.18,0.32 -0.09,0.18 -0.09,0.18 -0.17,0.37 -0.09,0.2 -0.09,0.2 -0.18,0.4 -0.09,0.23 -0.09,0.23 -0.17,0.46 -0.1,0.27 -0.1,0.27 -0.19,0.53 -0.11,0.31 -0.11,0.31 -0.21,0.62 m 0,2.59 c 0.11,-0.14 0.11,-0.14 0.21,-0.28 0.09,-0.15 0.09,-0.15 0.19,-0.3 0.09,-0.16 0.09,-0.16 0.17,-0.33 0.09,-0.18 0.09,-0.18 0.18,-0.36 0.09,-0.2 0.09,-0.2 0.17,-0.41 0.09,-0.23 0.09,-0.23 0.18,-0.46 0.1,-0.26 0.1,-0.26 0.19,-0.53 0.1,-0.31 0.1,-0.31 0.21,-0.62 m -4.34,4.11 c 0.33,-0.06 0.33,-0.06 0.66,-0.12 0.34,-0.09 0.34,-0.09 0.68,-0.18 0.36,-0.11 0.36,-0.11 0.72,-0.22 0.39,-0.15 0.39,-0.15 0.78,-0.3 m -8.38,-7.37 c 0.39,-0.15 0.39,-0.15 0.78,-0.3 0.36,-0.11 0.36,-0.11 0.72,-0.22 0.34,-0.09 0.34,-0.09 0.68,-0.18 0.12,-0.02 0.12,-0.02 0.24,-0.05 m -1.82,4.86 c -0.15,-0.09 -0.15,-0.09 -0.3,-0.19 -0.14,-0.1 -0.14,-0.1 -0.27,-0.2 -0.12,-0.11 -0.12,-0.11 -0.24,-0.21 -0.11,-0.12 -0.11,-0.12 -0.21,-0.23 -0.09,-0.12 -0.09,-0.12 -0.17,-0.24 -0.07,-0.12 -0.07,-0.12 -0.14,-0.24 -0.05,-0.13 -0.05,-0.13 -0.1,-0.25 -0.03,-0.13 -0.03,-0.13 -0.06,-0.26 -0.01,-0.13 -0.01,-0.13 -0.02,-0.26 0.01,-0.12 0.01,-0.12 0.02,-0.25 0.02,-0.13 0.02,-0.13 0.05,-0.26 0.05,-0.12 0.05,-0.12 0.1,-0.25 0.08,-0.18 0.08,-0.18 0.17,-0.36 0.09,-0.17 0.09,-0.17 0.18,-0.33 0.09,-0.15 0.09,-0.15 0.19,-0.3 0.1,-0.14 0.1,-0.14 0.2,-0.28 m -1.49,3.29 c 0.29,0.08 0.29,0.08 0.57,0.16 0.27,0.09 0.27,0.09 0.53,0.19 0.25,0.1 0.25,0.1 0.5,0.22 0.25,0.12 0.25,0.12 0.49,0.25 m -2.09,-0.82 c 0.1,-0.31 0.1,-0.31 0.2,-0.62 0.1,-0.27 0.1,-0.27 0.19,-0.53 0.09,-0.23 0.09,-0.23 0.18,-0.46 0.09,-0.21 0.09,-0.21 0.18,-0.41 0.06,-0.12 0.06,-0.12 0.13,-0.24 0.08,-0.12 0.08,-0.12 0.16,-0.24 0.08,-0.09 0.08,-0.09 0.16,-0.18 0.03,-0.03 0.03,-0.03 0.05,-0.05 0.12,-0.11 0.12,-0.11 0.24,-0.22 0.13,-0.1 0.13,-0.1 0.26,-0.2 0.15,-0.1 0.15,-0.1 0.3,-0.19 0.17,-0.09 0.17,-0.09 0.33,-0.18 0.18,-0.08 0.18,-0.08 0.35,-0.16 0.19,-0.07 0.19,-0.07 0.38,-0.14 0.19,-0.06 0.19,-0.06 0.39,-0.12 0.2,-0.05 0.2,-0.05 0.41,-0.1 0.21,-0.04 0.21,-0.04 0.43,-0.07 m 2.59,9.03 c -0.28,0.03 -0.28,0.03 -0.56,0.07 -0.34,0.02 -0.34,0.02 -0.68,0.04 -0.36,0 -0.36,0 -0.72,0 -0.39,-0.02 -0.39,-0.02 -0.78,-0.05 -0.29,-0.07 -0.29,-0.08 -0.58,-0.16 -0.26,-0.09 -0.26,-0.09 -0.53,-0.19 -0.25,-0.1 -0.25,-0.1 -0.5,-0.22 -0.24,-0.12 -0.24,-0.12 -0.49,-0.25 -0.24,-0.15 -0.24,-0.15 -0.49,-0.3 -0.25,-0.18 -0.25,-0.18 -0.5,-0.36 -0.26,-0.2 -0.26,-0.2 -0.53,-0.41 -0.29,-0.25 -0.29,-0.25 -0.57,-0.5" />
      </g>
    </g>
    <g
       id="Actor_.2">
      <g
         style="stroke:#000000;stroke-width:0.353"
         id="g2041">
        <path
           id="path2039"
           d="m 209.31,74.53 v -2.59 m -5.11,-5.66 0.23,-0.03 m 6.37,4.99 v -2.59 m -3.7,6.58 -0.21,0.05 -0.42,0.08 m -3.12,-8.94 0.42,-0.08 m -0.75,4.51 0.03,-0.02 m 2.97,-3.65 -0.26,1.41 v 1.66 m -2.14,2.59 v 2.59 m -0.27,-9.01 -0.24,0.04 m -3.68,6.58 v -2.59 m 6.37,4.99 0.23,-0.03 0.44,-0.05 m 2.84,-3.42 c 0.1,-0.31 0.1,-0.31 0.2,-0.62 0.1,-0.26 0.1,-0.26 0.19,-0.53 0.09,-0.23 0.09,-0.23 0.18,-0.46 0.09,-0.2 0.09,-0.2 0.17,-0.4 0.05,-0.13 0.05,-0.13 0.1,-0.25 0.03,-0.13 0.03,-0.13 0.05,-0.26 0.01,-0.09 0.01,-0.09 0.02,-0.18 0,-0.04 0,-0.04 0,-0.08 -0.01,-0.12 -0.01,-0.12 -0.02,-0.25 -0.03,-0.13 -0.03,-0.13 -0.06,-0.26 -0.05,-0.12 -0.05,-0.12 -0.1,-0.25 -0.07,-0.12 -0.07,-0.12 -0.14,-0.24 -0.08,-0.12 -0.08,-0.12 -0.17,-0.24 -0.1,-0.11 -0.1,-0.11 -0.21,-0.23 -0.12,-0.11 -0.12,-0.11 -0.24,-0.21 -0.13,-0.11 -0.13,-0.11 -0.27,-0.21 -0.15,-0.09 -0.15,-0.09 -0.3,-0.18 m -2.24,4.93 c 0.21,-0.04 0.21,-0.04 0.42,-0.08 0.2,-0.05 0.21,-0.05 0.41,-0.1 0.2,-0.06 0.2,-0.06 0.39,-0.12 0.19,-0.06 0.19,-0.06 0.38,-0.14 0.17,-0.07 0.17,-0.07 0.35,-0.15 0.16,-0.09 0.16,-0.09 0.33,-0.18 0.15,-0.09 0.15,-0.09 0.3,-0.19 0.13,-0.1 0.13,-0.1 0.26,-0.2 0.12,-0.11 0.12,-0.11 0.24,-0.22 0.1,-0.11 0.1,-0.11 0.2,-0.23 0.09,-0.12 0.09,-0.12 0.17,-0.24 0.07,-0.12 0.07,-0.12 0.13,-0.24 0.09,-0.18 0.09,-0.18 0.18,-0.36 0.09,-0.17 0.09,-0.17 0.18,-0.33 0.09,-0.15 0.09,-0.15 0.19,-0.3 0.1,-0.15 0.1,-0.15 0.2,-0.29 m -1.49,3.29 c -0.39,-0.02 -0.39,-0.02 -0.78,-0.04 -0.36,0 -0.36,0 -0.72,0 -0.34,0.02 -0.34,0.02 -0.68,0.04 -0.33,0.04 -0.33,0.04 -0.66,0.08 m -2.04,-5.77 c 0.34,-0.02 0.34,-0.02 0.68,-0.04 0.36,0 0.36,0 0.72,0 0.39,0.03 0.39,0.02 0.78,0.05 0.29,0.07 0.29,0.08 0.58,0.16 0.26,0.09 0.26,0.09 0.53,0.19 0.25,0.11 0.25,0.11 0.5,0.22 0.14,0.07 0.14,0.07 0.27,0.14 m 2.31,1.68 c -0.28,-0.25 -0.28,-0.25 -0.57,-0.49 -0.27,-0.21 -0.27,-0.21 -0.53,-0.42 -0.25,-0.18 -0.25,-0.18 -0.5,-0.35 -0.25,-0.16 -0.25,-0.16 -0.49,-0.3 -0.17,-0.09 -0.17,-0.09 -0.33,-0.18 -0.18,-0.08 -0.18,-0.08 -0.36,-0.15 -0.19,-0.07 -0.19,-0.07 -0.37,-0.14 -0.2,-0.06 -0.2,-0.06 -0.4,-0.12 -0.21,-0.05 -0.21,-0.05 -0.41,-0.09 -0.22,-0.04 -0.22,-0.04 -0.43,-0.08 -0.22,-0.03 -0.22,-0.03 -0.43,-0.05 -0.22,-0.02 -0.22,-0.02 -0.44,-0.04 -0.23,0 -0.23,0 -0.45,-0.01 -0.22,0.01 -0.22,0.01 -0.44,0.02 -0.23,0.01 -0.23,0.01 -0.45,0.03 -0.21,0.03 -0.21,0.03 -0.43,0.06 m 5.54,8.19 c 0.1,-0.14 0.1,-0.14 0.2,-0.28 0.1,-0.15 0.1,-0.15 0.19,-0.3 0.09,-0.16 0.09,-0.16 0.18,-0.33 0.09,-0.18 0.09,-0.18 0.17,-0.36 0.09,-0.2 0.09,-0.2 0.18,-0.4 0.09,-0.23 0.09,-0.23 0.18,-0.47 0.09,-0.26 0.09,-0.26 0.19,-0.53 0.1,-0.31 0.1,-0.31 0.2,-0.62 m -4.33,4.12 c 0.33,-0.07 0.33,-0.07 0.66,-0.13 0.34,-0.09 0.34,-0.09 0.68,-0.17 0.36,-0.12 0.36,-0.12 0.72,-0.23 0.39,-0.15 0.39,-0.15 0.78,-0.3 m -2.09,-3.69 c 0.06,-0.05 0.06,-0.05 0.11,-0.1 0.06,-0.05 0.06,-0.05 0.11,-0.11 0.04,-0.06 0.04,-0.06 0.08,-0.12 0.03,-0.06 0.03,-0.06 0.07,-0.12 0.02,-0.07 0.02,-0.07 0.04,-0.13 0.02,-0.06 0.02,-0.06 0.03,-0.13 0.01,-0.06 0.01,-0.06 0.01,-0.12 0,-0.07 0,-0.07 -0.01,-0.13 -0.02,-0.07 -0.02,-0.07 -0.03,-0.13 -0.03,-0.06 -0.03,-0.06 -0.05,-0.13 -0.03,-0.06 -0.03,-0.06 -0.07,-0.12 -0.04,-0.06 -0.04,-0.06 -0.09,-0.12 -0.05,-0.05 -0.05,-0.05 -0.1,-0.11 -0.06,-0.05 -0.06,-0.05 -0.12,-0.11 -0.07,-0.05 -0.07,-0.05 -0.14,-0.1 -0.07,-0.05 -0.07,-0.05 -0.15,-0.09 -0.08,-0.05 -0.08,-0.05 -0.16,-0.09 -0.09,-0.04 -0.09,-0.04 -0.18,-0.08 -0.09,-0.03 -0.09,-0.03 -0.19,-0.07 -0.1,-0.03 -0.1,-0.03 -0.2,-0.06 -0.1,-0.02 -0.1,-0.02 -0.2,-0.04 -0.11,-0.02 -0.11,-0.02 -0.22,-0.04 -0.1,-0.02 -0.1,-0.02 -0.21,-0.03 -0.11,-0.01 -0.11,-0.01 -0.22,-0.01 -0.11,-0.01 -0.11,-0.01 -0.23,-0.01 -0.11,0 -0.11,0 -0.22,0.01 -0.11,0 -0.11,0 -0.22,0.01 -0.11,0.02 -0.11,0.02 -0.22,0.03 -0.1,0.02 -0.1,0.02 -0.21,0.04 -0.1,0.03 -0.1,0.03 -0.2,0.05 -0.1,0.03 -0.1,0.03 -0.2,0.06 -0.09,0.04 -0.09,0.04 -0.19,0.07 -0.09,0.04 -0.09,0.04 -0.17,0.08 -0.08,0.04 -0.08,0.04 -0.17,0.09 -0.07,0.04 -0.07,0.04 -0.15,0.09 -0.06,0.05 -0.06,0.05 -0.13,0.1 -0.06,0.06 -0.06,0.06 -0.12,0.11 -0.05,0.06 -0.05,0.06 -0.1,0.12 -0.04,0.06 -0.04,0.06 -0.08,0.12 -0.04,0.06 -0.04,0.06 -0.07,0.12 -0.02,0.06 -0.02,0.06 -0.05,0.13 -0.01,0.06 -0.01,0.06 -0.03,0.12 0,0.07 0,0.07 0,0.13 0,0.07 0,0.07 0.01,0.13 0.01,0.06 0.01,0.06 0.03,0.13 0.02,0.06 0.02,0.06 0.05,0.12 0.03,0.06 0.03,0.06 0.06,0.12 0.05,0.06 0.05,0.06 0.09,0.12 0.05,0.06 0.05,0.06 0.1,0.12 0.05,0.04 0.05,0.04 0.1,0.08 m 0.04,-0.01 c 0.13,-0.05 0.13,-0.05 0.26,-0.1 0.14,-0.04 0.14,-0.04 0.28,-0.08 0.14,-0.04 0.14,-0.04 0.29,-0.07 0.15,-0.03 0.15,-0.03 0.29,-0.06 0.16,-0.02 0.16,-0.02 0.31,-0.04 0.15,-0.01 0.15,-0.01 0.31,-0.02 0.15,-0.01 0.15,-0.01 0.31,-0.01 0.15,0 0.15,0 0.31,0.01 0.15,0.01 0.15,0.01 0.31,0.02 0.15,0.02 0.15,0.02 0.3,0.04 0.15,0.02 0.15,0.02 0.3,0.05 0.15,0.03 0.15,0.03 0.29,0.07 0.14,0.04 0.14,0.04 0.28,0.08 0.13,0.05 0.13,0.05 0.26,0.1 0.03,0.01 0.03,0.01 0.07,0.03 m -4.2,0 c 0.06,-0.06 0.06,-0.06 0.13,-0.11 0.08,-0.05 0.08,-0.05 0.15,-0.1 0.09,-0.04 0.09,-0.04 0.17,-0.08 0.08,-0.04 0.08,-0.04 0.17,-0.08 0.1,-0.04 0.1,-0.04 0.19,-0.07 0.1,-0.03 0.1,-0.03 0.2,-0.06 0.1,-0.03 0.1,-0.03 0.2,-0.05 0.11,-0.02 0.11,-0.02 0.21,-0.04 0.11,-0.02 0.11,-0.02 0.22,-0.03 0.11,-0.01 0.11,-0.01 0.22,-0.02 0.11,0 0.11,0 0.22,0 0.12,0 0.12,0 0.23,0 0.11,0.01 0.11,0.01 0.22,0.02 0.11,0.01 0.11,0.01 0.21,0.02 m 0,0 c 0.11,0.02 0.11,0.02 0.22,0.04 0.1,0.03 0.1,0.03 0.2,0.05 0.1,0.03 0.1,0.03 0.2,0.06 0.1,0.03 0.1,0.03 0.19,0.07 0.09,0.04 0.09,0.04 0.18,0.08 0.08,0.04 0.08,0.04 0.16,0.08 0.08,0.05 0.08,0.05 0.15,0.1 0.07,0.05 0.07,0.05 0.14,0.1 0.01,0.01 0.01,0.01 0.02,0.02 m -1.2,-3.67 c 0.15,0.03 0.15,0.03 0.3,0.06 0.15,0.03 0.15,0.03 0.29,0.07 0.14,0.04 0.14,0.04 0.28,0.08 0.13,0.05 0.13,0.05 0.26,0.09 0.13,0.06 0.13,0.06 0.25,0.11 0.12,0.06 0.12,0.06 0.23,0.12 0.11,0.07 0.11,0.07 0.21,0.14 0.1,0.07 0.1,0.07 0.19,0.14 0.09,0.07 0.09,0.07 0.17,0.15 0.08,0.08 0.08,0.08 0.15,0.16 0.06,0.08 0.06,0.08 0.12,0.16 0.05,0.09 0.05,0.09 0.09,0.18 0.04,0.08 0.04,0.08 0.07,0.17 0.03,0.09 0.03,0.09 0.05,0.18 0,0.09 0,0.09 0.01,0.18 0,0.09 0,0.09 -0.01,0.18 -0.02,0.09 -0.02,0.09 -0.04,0.18 -0.03,0.09 -0.03,0.09 -0.07,0.17 -0.04,0.09 -0.04,0.09 -0.09,0.17 -0.06,0.09 -0.06,0.09 -0.12,0.17 -0.07,0.08 -0.07,0.08 -0.14,0.16 -0.08,0.08 -0.08,0.08 -0.16,0.15 -0.1,0.08 -0.1,0.08 -0.19,0.15 -0.04,0.02 -0.04,0.02 -0.08,0.05 -0.07,0.04 -0.07,0.04 -0.13,0.08 -0.12,0.06 -0.12,0.06 -0.23,0.12 -0.12,0.06 -0.12,0.06 -0.25,0.11 -0.13,0.05 -0.13,0.05 -0.26,0.1 -0.14,0.04 -0.14,0.04 -0.27,0.08 -0.15,0.04 -0.15,0.04 -0.29,0.07 -0.15,0.03 -0.15,0.03 -0.3,0.06 -0.15,0.02 -0.15,0.02 -0.3,0.04 -0.16,0.01 -0.16,0.01 -0.31,0.02 -0.16,0.01 -0.16,0.01 -0.31,0.01 -0.16,0 -0.16,0 -0.31,0 -0.16,-0.01 -0.16,-0.01 -0.31,-0.03 -0.16,-0.02 -0.16,-0.02 -0.31,-0.03 -0.15,-0.03 -0.15,-0.03 -0.3,-0.06 -0.14,-0.03 -0.14,-0.03 -0.28,-0.07 -0.14,-0.04 -0.14,-0.04 -0.28,-0.08 -0.13,-0.05 -0.13,-0.05 -0.27,-0.09 -0.12,-0.06 -0.12,-0.06 -0.24,-0.11 -0.1,-0.05 -0.1,-0.05 -0.2,-0.11 -0.02,-0.01 -0.02,-0.01 -0.03,-0.01 -0.11,-0.07 -0.11,-0.07 -0.22,-0.14 -0.09,-0.07 -0.09,-0.07 -0.19,-0.14 -0.08,-0.07 -0.08,-0.07 -0.17,-0.15 -0.07,-0.08 -0.07,-0.08 -0.14,-0.16 -0.06,-0.08 -0.06,-0.08 -0.12,-0.16 -0.05,-0.09 -0.05,-0.09 -0.1,-0.18 -0.03,-0.08 -0.03,-0.08 -0.07,-0.17 -0.02,-0.09 -0.02,-0.09 -0.04,-0.18 -0.01,-0.09 -0.01,-0.09 -0.01,-0.18 0,-0.09 0,-0.09 0.01,-0.18 0.02,-0.09 0.02,-0.09 0.04,-0.18 0.03,-0.09 0.03,-0.09 0.06,-0.17 0.05,-0.09 0.05,-0.09 0.09,-0.18 0.06,-0.08 0.06,-0.08 0.12,-0.16 0.07,-0.08 0.07,-0.08 0.14,-0.16 0.09,-0.08 0.09,-0.08 0.17,-0.15 0.09,-0.08 0.09,-0.08 0.19,-0.15 0.1,-0.06 0.1,-0.06 0.21,-0.13 0.11,-0.06 0.11,-0.06 0.23,-0.12 0.12,-0.06 0.12,-0.06 0.24,-0.11 0.13,-0.05 0.13,-0.05 0.26,-0.1 0.14,-0.04 0.14,-0.04 0.28,-0.08 0.05,-0.02 0.05,-0.02 0.1,-0.03 0.09,-0.02 0.09,-0.02 0.19,-0.04 0.15,-0.03 0.15,-0.03 0.29,-0.06 0.16,-0.02 0.16,-0.02 0.31,-0.04 0.15,-0.01 0.15,-0.01 0.31,-0.02 0.15,-0.01 0.15,-0.01 0.31,-0.01 0.15,0 0.15,0 0.31,0 0.15,0.01 0.15,0.01 0.31,0.03 0.15,0.01 0.15,0.01 0.3,0.03 m -4.49,4.09 c 0.24,0.15 0.24,0.15 0.49,0.31 0.25,0.17 0.25,0.17 0.5,0.35 0.26,0.21 0.26,0.21 0.53,0.42 0.29,0.24 0.29,0.24 0.57,0.49 m 2.85,-0.82 c -0.22,0.03 -0.22,0.03 -0.44,0.06 -0.22,0.02 -0.22,0.02 -0.44,0.03 -0.22,0.01 -0.22,0.01 -0.44,0.02 -0.23,-0.01 -0.23,-0.01 -0.45,-0.01 -0.22,-0.02 -0.22,-0.02 -0.44,-0.04 -0.22,-0.02 -0.22,-0.02 -0.44,-0.05 -0.21,-0.04 -0.21,-0.04 -0.42,-0.08 -0.21,-0.04 -0.21,-0.04 -0.41,-0.09 -0.2,-0.06 -0.2,-0.06 -0.4,-0.12 -0.19,-0.07 -0.19,-0.07 -0.38,-0.14 -0.17,-0.07 -0.17,-0.07 -0.35,-0.15 -0.17,-0.09 -0.17,-0.09 -0.33,-0.18 m 2.09,1.57 c 0.39,-0.15 0.39,-0.15 0.78,-0.29 0.36,-0.12 0.36,-0.12 0.72,-0.23 0.34,-0.09 0.34,-0.09 0.68,-0.17 0.33,-0.07 0.33,-0.07 0.67,-0.13 m -5.54,-4.86 c -0.11,0.14 -0.11,0.14 -0.21,0.28 -0.09,0.15 -0.09,0.15 -0.19,0.3 -0.09,0.17 -0.09,0.17 -0.17,0.33 -0.09,0.18 -0.09,0.18 -0.18,0.36 m 2.93,-1.97 c -0.34,0.09 -0.34,0.09 -0.68,0.18 -0.36,0.11 -0.36,0.11 -0.72,0.23 -0.39,0.14 -0.39,0.14 -0.78,0.29 m -0.75,1.27 c 0.07,-0.12 0.07,-0.12 0.13,-0.24 0.09,-0.12 0.09,-0.12 0.17,-0.24 0.1,-0.12 0.1,-0.12 0.2,-0.23 0.12,-0.11 0.12,-0.11 0.24,-0.22 0.14,-0.1 0.14,-0.1 0.27,-0.2 0.15,-0.1 0.15,-0.1 0.3,-0.19 0.12,-0.07 0.13,-0.07 0.25,-0.14 0.04,-0.02 0.04,-0.02 0.08,-0.04 0.17,-0.08 0.17,-0.08 0.35,-0.15 0.18,-0.08 0.18,-0.08 0.37,-0.14 0.2,-0.06 0.2,-0.06 0.4,-0.12 0.2,-0.05 0.2,-0.05 0.41,-0.1 m -3.17,2.01 c -0.09,0.21 -0.09,0.21 -0.17,0.41 -0.09,0.23 -0.09,0.23 -0.18,0.46 -0.1,0.26 -0.1,0.26 -0.19,0.53 -0.1,0.31 -0.1,0.31 -0.21,0.62 m 2.1,0.82 c -0.15,-0.09 -0.15,-0.09 -0.3,-0.18 -0.14,-0.1 -0.14,-0.1 -0.28,-0.21 -0.12,-0.1 -0.12,-0.1 -0.24,-0.21 -0.1,-0.12 -0.1,-0.12 -0.21,-0.23 -0.08,-0.12 -0.08,-0.12 -0.17,-0.24 -0.07,-0.12 -0.07,-0.12 -0.13,-0.24 -0.06,-0.13 -0.06,-0.13 -0.1,-0.25 -0.04,-0.13 -0.04,-0.13 -0.06,-0.26 -0.02,-0.13 -0.02,-0.13 -0.03,-0.25 0.01,-0.13 0.01,-0.13 0.02,-0.26 0.03,-0.13 0.03,-0.13 0.06,-0.26 0.04,-0.12 0.04,-0.12 0.09,-0.25 m -0.75,2.02 c 0.29,0.08 0.29,0.08 0.58,0.16 0.26,0.09 0.26,0.09 0.53,0.19 0.25,0.11 0.25,0.11 0.5,0.22 0.25,0.12 0.25,0.12 0.49,0.25 m 4.94,4.09 c -0.34,0.04 -0.34,0.04 -0.67,0.08 -0.34,0.02 -0.34,0.02 -0.68,0.04 -0.36,0 -0.36,0 -0.72,0 -0.39,-0.02 -0.39,-0.02 -0.78,-0.05 -0.28,-0.07 -0.28,-0.08 -0.57,-0.16 -0.27,-0.09 -0.27,-0.09 -0.53,-0.18 -0.25,-0.11 -0.25,-0.11 -0.5,-0.22 -0.25,-0.13 -0.25,-0.13 -0.49,-0.26 -0.25,-0.15 -0.25,-0.15 -0.49,-0.3 -0.25,-0.18 -0.25,-0.18 -0.5,-0.36 -0.27,-0.2 -0.27,-0.2 -0.53,-0.41 -0.29,-0.25 -0.29,-0.25 -0.58,-0.5" />
      </g>
    </g>
    <g
       id="Actor_.3">
      <g
         style="stroke:#000000;stroke-width:0.353"
         id="g2098">
        <path
           id="path2096"
           d="m 234.19,59.6 -0.24,0.05 -0.42,0.08 m -3.45,-4.51 0.04,-0.02 m 3.41,4.53 -0.43,0.06 -0.23,0.02 m 0.22,-8.25 -0.26,1.4 v 1.67 m -6.33,2.78 v -2.59 m 4.19,2.4 v 2.59 m 7.18,-4.19 v -2.59 m -1.5,3.29 v 2.59 m -0.6,-7.45 c 0.25,0.15 0.25,0.15 0.49,0.3 0.25,0.17 0.25,0.17 0.5,0.35 0.27,0.21 0.27,0.21 0.53,0.42 0.29,0.25 0.29,0.25 0.58,0.5 m -4.34,6.7 c 0.33,-0.06 0.33,-0.06 0.66,-0.13 0.34,-0.08 0.34,-0.08 0.68,-0.17 0.36,-0.11 0.36,-0.11 0.72,-0.23 0.39,-0.14 0.39,-0.14 0.78,-0.29 m -0.82,-7.57 c -0.13,-0.07 -0.13,-0.07 -0.27,-0.14 -0.25,-0.11 -0.25,-0.11 -0.5,-0.22 -0.26,-0.09 -0.26,-0.09 -0.53,-0.19 -0.28,-0.08 -0.28,-0.08 -0.57,-0.16 -0.39,-0.03 -0.39,-0.02 -0.78,-0.04 -0.36,0 -0.36,0 -0.72,0 -0.34,0.02 -0.34,0.02 -0.68,0.04 -0.12,0.01 -0.12,0.01 -0.23,0.02 m -1.15,4.55 c 0.13,-0.05 0.13,-0.05 0.26,-0.09 0.14,-0.05 0.14,-0.05 0.28,-0.09 0.14,-0.03 0.14,-0.03 0.28,-0.07 0.15,-0.03 0.15,-0.03 0.3,-0.05 0.15,-0.02 0.15,-0.02 0.3,-0.04 0.16,-0.02 0.16,-0.02 0.31,-0.03 0.16,0 0.16,0 0.31,-0.01 0.16,0.01 0.16,0.01 0.32,0.01 0.15,0.01 0.15,0.01 0.3,0.02 0.16,0.02 0.16,0.02 0.31,0.04 0.15,0.03 0.15,0.03 0.3,0.06 0.14,0.03 0.14,0.03 0.29,0.06 0.13,0.04 0.13,0.04 0.27,0.09 0.13,0.04 0.13,0.04 0.27,0.09 0.03,0.02 0.03,0.02 0.06,0.03 m -4.2,0 c 0.07,-0.05 0.07,-0.05 0.14,-0.11 0.07,-0.05 0.07,-0.05 0.15,-0.09 0.08,-0.05 0.08,-0.05 0.16,-0.09 0.09,-0.04 0.09,-0.04 0.18,-0.08 0.09,-0.03 0.09,-0.03 0.19,-0.07 0.09,-0.03 0.09,-0.03 0.19,-0.06 0.1,-0.02 0.1,-0.02 0.21,-0.05 0.1,-0.02 0.1,-0.02 0.21,-0.04 0.11,-0.01 0.11,-0.01 0.22,-0.03 0.11,0 0.11,0 0.22,-0.01 0.11,-0.01 0.11,-0.01 0.22,-0.01 0.11,0 0.11,0 0.22,0.01 0.11,0 0.11,0 0.22,0.01 0.11,0.01 0.11,0.01 0.22,0.03 m -2.14,2.59 c 0.39,-0.15 0.39,-0.15 0.78,-0.3 0.36,-0.11 0.36,-0.11 0.72,-0.22 0.34,-0.09 0.34,-0.09 0.68,-0.18 0.54,-0.1 0.54,-0.1 1.08,-0.2 0.21,-0.05 0.21,-0.05 0.42,-0.1 0.19,-0.06 0.19,-0.06 0.39,-0.12 0.19,-0.07 0.19,-0.07 0.37,-0.14 0.18,-0.08 0.18,-0.08 0.35,-0.16 0.17,-0.09 0.17,-0.09 0.33,-0.17 0.15,-0.1 0.15,-0.1 0.3,-0.19 0.14,-0.11 0.14,-0.11 0.27,-0.21 0.12,-0.11 0.12,-0.11 0.24,-0.22 0.1,-0.11 0.1,-0.11 0.2,-0.23 0.09,-0.11 0.09,-0.11 0.17,-0.23 0.07,-0.13 0.07,-0.13 0.13,-0.25 0.05,-0.12 0.05,-0.12 0.09,-0.25 0.03,-0.13 0.03,-0.13 0.06,-0.26 0.01,-0.12 0.01,-0.12 0.02,-0.25 -0.01,-0.13 -0.01,-0.13 -0.03,-0.26 -0.02,-0.13 -0.02,-0.13 -0.06,-0.25 -0.04,-0.13 -0.04,-0.13 -0.09,-0.25 -0.07,-0.13 -0.07,-0.13 -0.14,-0.25 -0.09,-0.12 -0.09,-0.12 -0.17,-0.24 -0.04,-0.04 -0.04,-0.03 -0.07,-0.07 -0.07,-0.08 -0.07,-0.08 -0.14,-0.15 -0.12,-0.11 -0.12,-0.11 -0.24,-0.22 -0.14,-0.1 -0.14,-0.1 -0.28,-0.2 -0.15,-0.1 -0.15,-0.1 -0.3,-0.19 -0.16,-0.09 -0.16,-0.09 -0.33,-0.17 -0.17,-0.08 -0.17,-0.08 -0.35,-0.16 -0.19,-0.07 -0.19,-0.07 -0.38,-0.14 -0.2,-0.06 -0.2,-0.06 -0.4,-0.11 -0.2,-0.05 -0.2,-0.05 -0.41,-0.1 -0.21,-0.04 -0.21,-0.04 -0.42,-0.08 -0.22,-0.02 -0.22,-0.02 -0.44,-0.05 -0.22,-0.02 -0.22,-0.02 -0.44,-0.03 -0.22,-0.01 -0.22,-0.01 -0.44,-0.01 -0.23,0 -0.23,0 -0.45,0.01 -0.22,0.02 -0.22,0.02 -0.44,0.03 -0.22,0.03 -0.22,0.03 -0.44,0.06 m -0.14,9.1 c 0.39,0.02 0.39,0.02 0.78,0.04 0.36,0.01 0.36,0.01 0.72,0 0.34,-0.02 0.34,-0.02 0.68,-0.04 0.33,-0.04 0.33,-0.04 0.66,-0.08 m 0.76,-4.51 c 0.06,-0.05 0.06,-0.05 0.11,-0.1 0.05,-0.06 0.05,-0.06 0.1,-0.12 0.04,-0.06 0.04,-0.06 0.09,-0.12 0.03,-0.06 0.03,-0.06 0.06,-0.12 0.03,-0.06 0.03,-0.06 0.05,-0.13 0.01,-0.06 0.01,-0.06 0.03,-0.12 0,-0.07 0,-0.07 0,-0.13 0,-0.07 0,-0.07 -0.01,-0.13 -0.01,-0.06 -0.01,-0.06 -0.03,-0.13 -0.02,-0.06 -0.02,-0.06 -0.05,-0.12 -0.03,-0.06 -0.03,-0.06 -0.06,-0.12 -0.05,-0.06 -0.05,-0.06 -0.09,-0.12 -0.05,-0.06 -0.05,-0.06 -0.1,-0.12 -0.06,-0.05 -0.06,-0.05 -0.12,-0.1 -0.07,-0.06 -0.07,-0.06 -0.14,-0.11 -0.08,-0.04 -0.08,-0.04 -0.15,-0.09 -0.08,-0.04 -0.08,-0.04 -0.17,-0.09 -0.09,-0.04 -0.09,-0.04 -0.17,-0.07 -0.1,-0.04 -0.1,-0.04 -0.19,-0.07 -0.1,-0.03 -0.1,-0.03 -0.2,-0.06 -0.1,-0.03 -0.1,-0.03 -0.21,-0.05 -0.1,-0.02 -0.1,-0.02 -0.21,-0.04 -0.11,-0.01 -0.11,-0.01 -0.22,-0.03 -0.11,0 -0.11,0 -0.22,-0.01 -0.11,0 -0.11,0 -0.22,-0.01 -0.11,0.01 -0.11,0.01 -0.22,0.01 -0.11,0.01 -0.11,0.01 -0.22,0.02 -0.11,0.01 -0.11,0.01 -0.22,0.03 -0.11,0.02 -0.11,0.02 -0.21,0.04 -0.11,0.02 -0.11,0.02 -0.21,0.05 -0.1,0.02 -0.1,0.02 -0.19,0.06 -0.1,0.03 -0.1,0.03 -0.19,0.06 -0.09,0.04 -0.09,0.04 -0.18,0.08 -0.08,0.05 -0.08,0.05 -0.16,0.09 -0.08,0.05 -0.08,0.05 -0.15,0.1 -0.07,0.05 -0.07,0.05 -0.14,0.1 -0.05,0.05 -0.05,0.05 -0.11,0.11 -0.06,0.05 -0.06,0.05 -0.11,0.11 -0.04,0.06 -0.04,0.06 -0.08,0.12 -0.03,0.06 -0.03,0.06 -0.07,0.12 -0.02,0.07 -0.02,0.07 -0.04,0.13 -0.02,0.06 -0.02,0.06 -0.03,0.13 -0.01,0.06 -0.01,0.06 -0.01,0.13 0.01,0.06 0.01,0.06 0.01,0.12 0.02,0.07 0.02,0.07 0.03,0.13 0.03,0.06 0.03,0.06 0.05,0.13 0.04,0.06 0.04,0.06 0.07,0.12 0.04,0.06 0.04,0.06 0.09,0.12 0.05,0.05 0.05,0.05 0.1,0.11 0.05,0.04 0.05,0.04 0.1,0.09 m 2.75,-0.59 c 0.11,0.02 0.11,0.02 0.21,0.04 0.11,0.02 0.11,0.02 0.21,0.05 0.1,0.02 0.1,0.02 0.2,0.05 0.09,0.04 0.09,0.04 0.19,0.07 0.08,0.04 0.08,0.04 0.17,0.08 0.09,0.04 0.09,0.04 0.17,0.09 0.07,0.04 0.07,0.04 0.15,0.09 0.07,0.05 0.07,0.05 0.14,0.1 0.01,0.01 0.01,0.01 0.02,0.02 m -1.2,-3.66 c -0.15,-0.02 -0.15,-0.02 -0.31,-0.04 -0.15,-0.01 -0.15,-0.01 -0.3,-0.02 -0.16,-0.01 -0.16,-0.01 -0.32,-0.01 -0.15,0 -0.15,0 -0.31,0.01 -0.15,0.01 -0.15,0.01 -0.31,0.02 -0.15,0.02 -0.15,0.02 -0.3,0.04 -0.15,0.03 -0.15,0.03 -0.3,0.06 -0.14,0.03 -0.14,0.03 -0.28,0.07 -0.14,0.04 -0.14,0.04 -0.28,0.08 -0.13,0.05 -0.13,0.05 -0.26,0.1 -0.13,0.05 -0.13,0.05 -0.25,0.11 -0.11,0.06 -0.11,0.06 -0.23,0.12 -0.09,0.06 -0.09,0.06 -0.17,0.12 -0.02,0.01 -0.02,0.01 -0.04,0.02 -0.09,0.07 -0.09,0.07 -0.18,0.14 -0.09,0.08 -0.09,0.08 -0.17,0.15 -0.07,0.08 -0.07,0.08 -0.14,0.16 -0.06,0.08 -0.06,0.08 -0.12,0.17 -0.05,0.08 -0.05,0.08 -0.09,0.17 -0.04,0.09 -0.04,0.09 -0.07,0.18 -0.02,0.09 -0.02,0.09 -0.04,0.18 0,0.08 0,0.09 -0.01,0.17 0.01,0.09 0.01,0.09 0.02,0.18 0.02,0.09 0.02,0.09 0.04,0.18 0.03,0.09 0.03,0.09 0.07,0.18 0.04,0.08 0.04,0.08 0.09,0.17 0.06,0.08 0.06,0.08 0.12,0.17 0.08,0.08 0.08,0.08 0.15,0.15 0.08,0.08 0.08,0.08 0.17,0.16 0.09,0.07 0.09,0.07 0.19,0.14 0.1,0.06 0.1,0.06 0.21,0.13 0.12,0.06 0.12,0.06 0.23,0.12 0.13,0.06 0.13,0.06 0.25,0.11 0.13,0.05 0.13,0.05 0.26,0.1 0.14,0.04 0.14,0.04 0.28,0.08 0.14,0.03 0.15,0.03 0.29,0.07 0.15,0.02 0.15,0.02 0.3,0.05 0.15,0.02 0.15,0.02 0.3,0.04 0.16,0.01 0.16,0.01 0.31,0.02 0.16,0 0.16,0 0.31,0.01 0.16,-0.01 0.16,-0.01 0.31,-0.01 0.16,-0.01 0.16,-0.01 0.31,-0.03 0.15,-0.02 0.15,-0.02 0.31,-0.04 0.14,-0.02 0.15,-0.02 0.29,-0.05 0.15,-0.04 0.15,-0.04 0.29,-0.07 0.14,-0.04 0.14,-0.04 0.28,-0.09 0.13,-0.04 0.13,-0.04 0.26,-0.09 0.12,-0.06 0.12,-0.06 0.24,-0.11 0.12,-0.06 0.12,-0.06 0.23,-0.13 0.11,-0.06 0.11,-0.06 0.21,-0.13 0.1,-0.07 0.1,-0.07 0.19,-0.14 0.08,-0.08 0.08,-0.08 0.17,-0.15 0.04,-0.05 0.04,-0.05 0.08,-0.09 0.03,-0.04 0.03,-0.04 0.06,-0.07 0.06,-0.09 0.06,-0.09 0.12,-0.17 0.04,-0.09 0.04,-0.09 0.09,-0.17 0.03,-0.09 0.03,-0.09 0.06,-0.18 0.03,-0.09 0.03,-0.09 0.04,-0.18 0.01,-0.09 0.01,-0.09 0.02,-0.18 -0.01,-0.09 -0.01,-0.09 -0.02,-0.18 -0.02,-0.09 -0.02,-0.09 -0.04,-0.18 -0.04,-0.08 -0.04,-0.08 -0.07,-0.17 -0.04,-0.07 -0.04,-0.07 -0.08,-0.14 -0.01,-0.02 -0.01,-0.02 -0.02,-0.03 -0.06,-0.09 -0.06,-0.09 -0.12,-0.17 -0.07,-0.08 -0.07,-0.08 -0.14,-0.16 -0.09,-0.07 -0.09,-0.07 -0.17,-0.15 -0.1,-0.07 -0.1,-0.07 -0.19,-0.14 -0.11,-0.07 -0.11,-0.07 -0.21,-0.13 -0.12,-0.06 -0.12,-0.06 -0.24,-0.12 -0.12,-0.06 -0.12,-0.06 -0.24,-0.11 -0.14,-0.05 -0.14,-0.05 -0.27,-0.1 -0.14,-0.04 -0.14,-0.04 -0.27,-0.08 -0.15,-0.04 -0.15,-0.04 -0.29,-0.07 -0.15,-0.03 -0.15,-0.03 -0.3,-0.05 m -5.1,-0.03 c 0.39,-0.15 0.39,-0.15 0.78,-0.29 0.36,-0.12 0.36,-0.12 0.72,-0.23 0.34,-0.09 0.34,-0.09 0.68,-0.17 0.12,-0.03 0.12,-0.03 0.24,-0.05 m -3.91,4.03 c 0.1,-0.31 0.1,-0.31 0.2,-0.62 0.1,-0.26 0.1,-0.26 0.19,-0.53 0.09,-0.23 0.09,-0.23 0.18,-0.46 0.09,-0.2 0.09,-0.2 0.18,-0.4 0.08,-0.18 0.08,-0.18 0.17,-0.37 0.09,-0.16 0.09,-0.16 0.18,-0.32 0.09,-0.15 0.09,-0.15 0.19,-0.3 0.1,-0.15 0.1,-0.15 0.2,-0.29 m 0.6,4.12 c -0.15,-0.09 -0.15,-0.09 -0.3,-0.19 -0.14,-0.1 -0.14,-0.1 -0.27,-0.2 -0.12,-0.11 -0.12,-0.11 -0.24,-0.22 -0.11,-0.11 -0.11,-0.11 -0.21,-0.23 -0.09,-0.11 -0.09,-0.11 -0.17,-0.23 -0.07,-0.12 -0.07,-0.13 -0.14,-0.25 -0.05,-0.12 -0.05,-0.12 -0.1,-0.25 -0.03,-0.13 -0.03,-0.13 -0.06,-0.25 -0.01,-0.13 -0.01,-0.13 -0.02,-0.26 0.01,-0.13 0.01,-0.13 0.02,-0.26 0.02,-0.12 0.02,-0.13 0.05,-0.25 0.05,-0.13 0.05,-0.13 0.1,-0.25 0.06,-0.13 0.06,-0.13 0.13,-0.25 0.08,-0.12 0.08,-0.12 0.17,-0.24 0.1,-0.11 0.1,-0.11 0.2,-0.23 0.12,-0.11 0.12,-0.11 0.24,-0.21 0.13,-0.11 0.13,-0.11 0.27,-0.21 0.14,-0.09 0.14,-0.09 0.29,-0.19 0.17,-0.09 0.17,-0.09 0.33,-0.17 0.18,-0.08 0.18,-0.08 0.35,-0.16 0.19,-0.07 0.19,-0.07 0.38,-0.14 0.19,-0.06 0.19,-0.06 0.39,-0.12 0.21,-0.05 0.21,-0.05 0.41,-0.1 0.21,-0.04 0.21,-0.04 0.43,-0.08 m -4.34,4.11 c 0.29,0.08 0.29,0.08 0.57,0.16 0.27,0.1 0.27,0.1 0.53,0.19 0.26,0.11 0.26,0.11 0.51,0.22 0.24,0.13 0.24,0.13 0.48,0.26 m 2.1,4.16 c -0.29,-0.08 -0.29,-0.08 -0.58,-0.16 -0.26,-0.09 -0.26,-0.09 -0.53,-0.19 -0.25,-0.11 -0.25,-0.11 -0.5,-0.22 -0.24,-0.13 -0.24,-0.13 -0.49,-0.26 -0.24,-0.15 -0.24,-0.15 -0.48,-0.3 -0.26,-0.17 -0.26,-0.17 -0.51,-0.35 -0.26,-0.21 -0.26,-0.21 -0.53,-0.42 -0.28,-0.25 -0.28,-0.25 -0.57,-0.5 m 2.09,-1.76 c 0.25,0.15 0.25,0.15 0.49,0.3 0.25,0.17 0.25,0.17 0.5,0.35 0.27,0.21 0.27,0.21 0.53,0.42 0.29,0.25 0.29,0.25 0.58,0.5 m 5.68,-0.9 c -0.39,-0.03 -0.39,-0.03 -0.78,-0.05 -0.36,0 -0.36,0 -0.72,0 -0.34,0.02 -0.34,0.02 -0.68,0.04 -0.33,0.04 -0.33,0.04 -0.66,0.09 -0.22,0.02 -0.22,0.03 -0.43,0.05 -0.22,0.02 -0.22,0.02 -0.44,0.04 -0.23,0 -0.23,0 -0.45,0.01 -0.22,0 -0.22,0 -0.44,-0.01 -0.22,-0.01 -0.22,-0.01 -0.45,-0.03 -0.21,-0.03 -0.21,-0.03 -0.43,-0.06 -0.21,-0.03 -0.21,-0.03 -0.43,-0.07 -0.2,-0.05 -0.2,-0.05 -0.41,-0.1 -0.2,-0.06 -0.2,-0.06 -0.39,-0.12 -0.19,-0.06 -0.19,-0.06 -0.38,-0.13 -0.18,-0.08 -0.18,-0.08 -0.36,-0.16 -0.16,-0.08 -0.16,-0.08 -0.33,-0.17 m 9.28,-2.62 c -0.11,0.14 -0.11,0.14 -0.21,0.28 -0.09,0.15 -0.09,0.15 -0.19,0.3 -0.09,0.16 -0.09,0.16 -0.18,0.33 -0.08,0.18 -0.08,0.18 -0.17,0.36 -0.09,0.2 -0.09,0.2 -0.17,0.41 -0.09,0.23 -0.09,0.23 -0.18,0.46 -0.1,0.26 -0.1,0.26 -0.19,0.53 -0.11,0.31 -0.11,0.31 -0.21,0.62 m 0,2.59 c 0.11,-0.14 0.11,-0.14 0.21,-0.28 0.09,-0.15 0.09,-0.15 0.19,-0.31 0.09,-0.16 0.09,-0.16 0.18,-0.32 0.08,-0.18 0.08,-0.18 0.17,-0.37 0.09,-0.2 0.09,-0.2 0.17,-0.4 0.09,-0.23 0.09,-0.23 0.18,-0.46 0.1,-0.27 0.1,-0.27 0.19,-0.53 0.1,-0.31 0.1,-0.31 0.21,-0.62" />
      </g>
    </g>
    <g
       id="Actor_.4">
      <g
         style="stroke:#000000;stroke-width:0.353"
         id="g2165">
        <path
           id="path2163"
           d="m 156.67,102.49 v -2.58 m -1.49,5.88 v -2.59 m -2.85,3.41 -0.43,0.05 -0.23,0.03 m -1.6,-9.16 0.23,-0.02 m -1.08,0.16 0.42,-0.08 m -0.75,4.51 0.03,-0.02 m 2.97,-3.64 -0.26,1.4 v 1.67 m 1.37,4.97 -0.24,0.05 -0.28,0.05 m -2.99,-2.48 v 2.58 m -0.27,-9.01 -0.24,0.05 m -3.68,6.57 v -2.59 m 9.88,4.09 c 0.1,-0.14 0.1,-0.14 0.2,-0.29 0.1,-0.15 0.1,-0.15 0.19,-0.3 0.09,-0.16 0.09,-0.16 0.18,-0.33 0.09,-0.18 0.09,-0.18 0.17,-0.36 0.09,-0.2 0.09,-0.2 0.18,-0.4 0.09,-0.23 0.09,-0.23 0.18,-0.46 0.09,-0.27 0.09,-0.27 0.19,-0.53 0.1,-0.31 0.1,-0.31 0.2,-0.63 m -3.67,3.99 c 0.34,-0.08 0.34,-0.08 0.68,-0.17 0.36,-0.11 0.36,-0.11 0.72,-0.23 0.39,-0.15 0.39,-0.15 0.78,-0.29 m 1.49,-5.88 c -0.29,-0.25 -0.29,-0.25 -0.57,-0.5 -0.27,-0.21 -0.27,-0.21 -0.53,-0.42 -0.25,-0.18 -0.25,-0.18 -0.51,-0.35 -0.24,-0.15 -0.24,-0.15 -0.48,-0.3 m 0.6,4.86 c 0.1,-0.31 0.1,-0.31 0.2,-0.62 0.1,-0.27 0.1,-0.27 0.19,-0.54 0.09,-0.23 0.09,-0.23 0.18,-0.46 0.09,-0.2 0.09,-0.2 0.17,-0.4 0.09,-0.18 0.09,-0.18 0.18,-0.36 0.09,-0.17 0.09,-0.17 0.18,-0.33 0.09,-0.15 0.09,-0.15 0.19,-0.3 0.1,-0.14 0.1,-0.14 0.2,-0.28 m -4.33,3.36 c 0.33,-0.04 0.33,-0.04 0.66,-0.08 0.34,-0.02 0.34,-0.02 0.68,-0.04 0.36,0 0.36,0 0.72,0 0.39,0.02 0.39,0.02 0.78,0.05 m -0.42,-4.75 c 0.06,0.04 0.06,0.04 0.12,0.08 0.14,0.1 0.14,0.1 0.27,0.2 0.12,0.11 0.12,0.11 0.24,0.21 0.11,0.12 0.11,0.12 0.21,0.23 0.09,0.12 0.09,0.12 0.17,0.24 0.07,0.12 0.07,0.12 0.14,0.24 0.05,0.13 0.05,0.13 0.1,0.25 0.03,0.13 0.03,0.13 0.06,0.26 0.01,0.13 0.01,0.13 0.02,0.26 -0.01,0.12 -0.01,0.12 -0.02,0.25 -0.02,0.13 -0.02,0.13 -0.05,0.26 -0.05,0.12 -0.05,0.12 -0.1,0.25 -0.06,0.12 -0.06,0.12 -0.13,0.24 -0.08,0.12 -0.08,0.12 -0.17,0.24 -0.1,0.12 -0.1,0.12 -0.2,0.23 -0.12,0.11 -0.12,0.11 -0.24,0.22 -0.13,0.1 -0.13,0.1 -0.27,0.2 -0.14,0.1 -0.14,0.1 -0.29,0.19 -0.17,0.09 -0.17,0.09 -0.33,0.18 -0.18,0.08 -0.18,0.08 -0.35,0.16 -0.19,0.07 -0.19,0.07 -0.38,0.14 -0.19,0.06 -0.19,0.06 -0.39,0.12 -0.21,0.05 -0.21,0.05 -0.41,0.1 -0.21,0.04 -0.21,0.04 -0.42,0.07 m 2.24,-4.93 c -0.17,-0.09 -0.17,-0.09 -0.33,-0.18 -0.18,-0.07 -0.18,-0.07 -0.36,-0.15 -0.19,-0.07 -0.19,-0.07 -0.38,-0.14 -0.19,-0.06 -0.19,-0.06 -0.39,-0.12 -0.21,-0.04 -0.21,-0.04 -0.41,-0.09 -0.22,-0.04 -0.22,-0.04 -0.43,-0.08 -0.22,-0.03 -0.22,-0.03 -0.43,-0.05 -0.22,-0.02 -0.22,-0.02 -0.45,-0.03 -0.22,-0.01 -0.22,-0.01 -0.44,-0.01 -0.22,0 -0.22,0 -0.45,0.01 -0.22,0.01 -0.22,0.01 -0.44,0.03 -0.21,0.03 -0.21,0.03 -0.43,0.06 m 0.66,-0.08 c 0.34,-0.03 0.34,-0.03 0.68,-0.04 0.36,-0.01 0.36,-0.01 0.72,0 0.39,0.02 0.39,0.01 0.78,0.04 0.29,0.08 0.29,0.08 0.58,0.16 0.26,0.09 0.26,0.09 0.53,0.19 0.25,0.11 0.25,0.11 0.5,0.22 0.24,0.13 0.24,0.13 0.49,0.26 m -1.49,3.76 c 0.06,-0.05 0.06,-0.05 0.11,-0.1 0.06,-0.06 0.06,-0.06 0.11,-0.12 0.04,-0.06 0.04,-0.06 0.08,-0.12 0.03,-0.06 0.03,-0.06 0.07,-0.12 0.02,-0.06 0.02,-0.06 0.04,-0.13 0.02,-0.06 0.02,-0.06 0.03,-0.12 0.01,-0.07 0.01,-0.07 0.01,-0.13 -0.01,-0.07 -0.01,-0.07 -0.01,-0.13 -0.02,-0.06 -0.02,-0.06 -0.03,-0.13 -0.03,-0.06 -0.03,-0.06 -0.05,-0.12 -0.03,-0.07 -0.04,-0.07 -0.07,-0.13 -0.04,-0.06 -0.04,-0.06 -0.09,-0.11 -0.05,-0.06 -0.05,-0.06 -0.1,-0.12 -0.06,-0.05 -0.06,-0.05 -0.12,-0.11 -0.07,-0.05 -0.07,-0.05 -0.14,-0.1 -0.07,-0.05 -0.07,-0.05 -0.15,-0.09 -0.08,-0.05 -0.08,-0.05 -0.16,-0.09 -0.07,-0.03 -0.07,-0.03 -0.14,-0.06 -0.02,-0.01 -0.02,-0.01 -0.04,-0.02 -0.09,-0.03 -0.09,-0.03 -0.19,-0.06 -0.1,-0.03 -0.1,-0.03 -0.2,-0.06 -0.1,-0.03 -0.1,-0.03 -0.2,-0.05 -0.11,-0.02 -0.11,-0.02 -0.22,-0.04 -0.1,-0.01 -0.1,-0.01 -0.21,-0.03 -0.11,-0.01 -0.11,-0.01 -0.22,-0.01 -0.12,-0.01 -0.12,-0.01 -0.23,-0.01 -0.11,0 -0.11,0 -0.22,0.01 -0.11,0.01 -0.11,0.01 -0.22,0.02 -0.11,0.01 -0.11,0.01 -0.22,0.02 -0.1,0.02 -0.1,0.02 -0.21,0.04 -0.1,0.03 -0.1,0.03 -0.2,0.05 -0.1,0.03 -0.1,0.03 -0.2,0.06 -0.09,0.04 -0.09,0.04 -0.19,0.07 -0.09,0.04 -0.09,0.04 -0.17,0.08 -0.09,0.05 -0.09,0.05 -0.17,0.09 -0.07,0.05 -0.07,0.05 -0.15,0.09 -0.06,0.06 -0.06,0.06 -0.13,0.11 -0.06,0.05 -0.06,0.05 -0.12,0.11 -0.05,0.05 -0.05,0.05 -0.1,0.11 -0.04,0.06 -0.04,0.06 -0.09,0.12 -0.03,0.06 -0.03,0.06 -0.06,0.12 -0.03,0.06 -0.03,0.06 -0.05,0.13 -0.01,0.06 -0.01,0.06 -0.03,0.13 0,0.06 0,0.06 0,0.12 0,0.07 0,0.07 0.01,0.13 0.01,0.07 0.01,0.07 0.03,0.13 0.02,0.06 0.02,0.06 0.05,0.12 0.03,0.07 0.03,0.07 0.06,0.13 0.05,0.06 0.05,0.06 0.09,0.12 0.05,0.05 0.05,0.05 0.1,0.11 0.05,0.04 0.05,0.04 0.1,0.09 m 0.04,-0.02 c 0.13,-0.05 0.13,-0.05 0.26,-0.09 0.14,-0.05 0.14,-0.05 0.28,-0.09 0.14,-0.03 0.14,-0.03 0.29,-0.07 0.15,-0.03 0.15,-0.03 0.29,-0.05 0.16,-0.02 0.16,-0.02 0.31,-0.04 0.15,-0.02 0.15,-0.02 0.31,-0.03 0.15,0 0.15,0 0.31,-0.01 0.15,0.01 0.15,0.01 0.31,0.01 0.15,0.01 0.15,0.01 0.31,0.02 0.15,0.02 0.15,0.02 0.3,0.04 0.15,0.03 0.15,0.03 0.3,0.05 0.15,0.04 0.15,0.04 0.29,0.07 0.14,0.04 0.14,0.04 0.28,0.08 0.13,0.05 0.13,0.05 0.26,0.1 0.03,0.01 0.03,0.01 0.07,0.03 m -1.46,-0.59 c -0.1,-0.02 -0.1,-0.02 -0.21,-0.03 -0.11,-0.01 -0.11,-0.01 -0.22,-0.02 -0.12,0 -0.12,0 -0.23,0 -0.11,0 -0.11,0 -0.22,0.01 -0.11,0 -0.11,0 -0.22,0.01 -0.11,0.02 -0.11,0.02 -0.22,0.03 -0.1,0.02 -0.1,0.02 -0.21,0.04 -0.1,0.02 -0.1,0.02 -0.2,0.05 -0.1,0.03 -0.1,0.03 -0.2,0.06 -0.09,0.03 -0.09,0.03 -0.19,0.07 -0.09,0.04 -0.09,0.04 -0.17,0.08 -0.09,0.04 -0.09,0.04 -0.17,0.09 -0.07,0.04 -0.07,0.04 -0.15,0.09 -0.07,0.05 -0.07,0.05 -0.14,0.11 m 2.75,-0.59 c 0.11,0.02 0.11,0.02 0.22,0.04 0.1,0.02 0.1,0.02 0.2,0.04 0.1,0.03 0.1,0.03 0.2,0.06 0.1,0.04 0.1,0.04 0.19,0.07 0.09,0.04 0.09,0.04 0.18,0.08 0.08,0.04 0.08,0.04 0.16,0.08 0.08,0.05 0.08,0.05 0.15,0.1 0.07,0.05 0.07,0.05 0.14,0.1 0.01,0.01 0.01,0.01 0.02,0.02 m -1.2,-3.66 c -0.15,-0.03 -0.15,-0.02 -0.3,-0.04 -0.16,-0.01 -0.16,-0.01 -0.31,-0.02 -0.16,-0.01 -0.16,-0.01 -0.31,-0.01 -0.16,0 -0.16,0 -0.31,0.01 -0.16,0.01 -0.16,0.01 -0.31,0.02 -0.07,0.01 -0.07,0.01 -0.14,0.02 -0.08,0.01 -0.08,0.01 -0.17,0.02 -0.14,0.03 -0.14,0.03 -0.29,0.06 -0.15,0.03 -0.15,0.03 -0.29,0.07 -0.14,0.04 -0.14,0.04 -0.28,0.08 -0.13,0.05 -0.13,0.05 -0.26,0.1 -0.12,0.05 -0.12,0.05 -0.24,0.11 -0.12,0.06 -0.12,0.06 -0.23,0.12 -0.11,0.07 -0.11,0.07 -0.21,0.13 -0.1,0.08 -0.1,0.08 -0.19,0.15 -0.08,0.07 -0.08,0.07 -0.17,0.15 -0.07,0.08 -0.07,0.08 -0.14,0.16 -0.06,0.08 -0.06,0.08 -0.12,0.17 -0.04,0.08 -0.04,0.08 -0.09,0.17 -0.03,0.09 -0.03,0.09 -0.06,0.17 -0.03,0.09 -0.03,0.09 -0.04,0.18 -0.01,0.09 -0.01,0.09 -0.02,0.18 0.01,0.09 0.01,0.09 0.02,0.18 0.02,0.09 0.02,0.09 0.04,0.18 0.04,0.09 0.04,0.09 0.07,0.18 0.05,0.08 0.05,0.08 0.1,0.17 0.06,0.08 0.06,0.08 0.12,0.16 0.07,0.08 0.07,0.08 0.14,0.16 0.09,0.08 0.09,0.08 0.17,0.15 0.1,0.08 0.1,0.08 0.19,0.15 0.11,0.06 0.11,0.06 0.21,0.13 0.12,0.06 0.12,0.06 0.24,0.12 0.12,0.05 0.12,0.05 0.24,0.11 0.14,0.05 0.14,0.05 0.27,0.09 0.14,0.05 0.14,0.05 0.28,0.09 0.14,0.03 0.14,0.03 0.28,0.06 0.15,0.03 0.15,0.03 0.3,0.06 0.15,0.02 0.15,0.02 0.31,0.04 0.15,0.01 0.15,0.01 0.31,0.02 0.15,0 0.15,0 0.31,0 0.15,0 0.15,0 0.31,0 0.15,-0.02 0.15,-0.02 0.31,-0.03 0.15,-0.02 0.15,-0.02 0.3,-0.04 0.15,-0.03 0.15,-0.03 0.3,-0.05 0.14,-0.04 0.14,-0.04 0.28,-0.07 0.14,-0.04 0.14,-0.04 0.28,-0.09 0.13,-0.05 0.13,-0.05 0.26,-0.09 0.13,-0.06 0.13,-0.06 0.25,-0.12 0.11,-0.06 0.11,-0.06 0.23,-0.12 0.1,-0.06 0.1,-0.06 0.21,-0.13 0.09,-0.07 0.09,-0.07 0.18,-0.14 0.09,-0.08 0.09,-0.08 0.17,-0.16 0.07,-0.08 0.07,-0.08 0.14,-0.16 0.06,-0.08 0.06,-0.08 0.12,-0.16 0.05,-0.09 0.05,-0.09 0.09,-0.18 0.04,-0.08 0.04,-0.08 0.07,-0.17 0.02,-0.09 0.02,-0.09 0.04,-0.18 0.01,-0.09 0.01,-0.09 0.01,-0.18 -0.01,-0.09 -0.01,-0.09 -0.02,-0.18 -0.02,-0.09 -0.02,-0.09 -0.04,-0.18 -0.03,-0.09 -0.03,-0.09 -0.07,-0.17 -0.04,-0.09 -0.04,-0.09 -0.09,-0.17 -0.06,-0.09 -0.06,-0.09 -0.12,-0.17 -0.08,-0.08 -0.08,-0.08 -0.15,-0.16 -0.08,-0.08 -0.08,-0.08 -0.17,-0.15 -0.09,-0.07 -0.09,-0.07 -0.19,-0.14 -0.1,-0.07 -0.1,-0.07 -0.21,-0.13 -0.12,-0.07 -0.12,-0.07 -0.23,-0.13 -0.13,-0.05 -0.13,-0.05 -0.25,-0.1 -0.13,-0.05 -0.13,-0.05 -0.26,-0.1 -0.14,-0.04 -0.14,-0.04 -0.28,-0.08 -0.14,-0.04 -0.14,-0.04 -0.29,-0.07 -0.15,-0.03 -0.15,-0.03 -0.3,-0.05 m 0.45,4.83 c -0.22,0.03 -0.22,0.03 -0.44,0.06 -0.22,0.02 -0.22,0.02 -0.44,0.04 -0.22,0 -0.22,0 -0.45,0.01 -0.22,-0.01 -0.22,-0.01 -0.44,-0.01 -0.22,-0.02 -0.22,-0.02 -0.44,-0.03 -0.22,-0.03 -0.22,-0.03 -0.44,-0.06 -0.21,-0.03 -0.21,-0.03 -0.42,-0.07 -0.21,-0.05 -0.21,-0.05 -0.41,-0.1 -0.2,-0.06 -0.2,-0.06 -0.4,-0.12 -0.19,-0.07 -0.19,-0.07 -0.38,-0.14 -0.17,-0.07 -0.18,-0.07 -0.35,-0.15 -0.41,-0.21 -0.41,-0.22 -0.82,-0.43 -0.25,-0.11 -0.25,-0.11 -0.5,-0.22 -0.27,-0.1 -0.27,-0.1 -0.53,-0.19 -0.29,-0.08 -0.29,-0.08 -0.58,-0.16 m 4.19,2.4 c 0.39,-0.15 0.39,-0.15 0.78,-0.3 0.36,-0.11 0.36,-0.11 0.72,-0.23 0.34,-0.08 0.34,-0.08 0.68,-0.17 0.33,-0.06 0.33,-0.07 0.67,-0.13 m -2.85,3.41 c 0.39,0.03 0.39,0.03 0.78,0.05 0.36,0 0.36,0 0.72,0 0.34,-0.02 0.34,-0.02 0.68,-0.04 0.33,-0.04 0.33,-0.04 0.66,-0.08 0.34,-0.06 0.34,-0.06 0.67,-0.13 m -5.9,-4.14 c 0.39,0.24 0.39,0.24 0.79,0.49 0.25,0.17 0.25,0.17 0.5,0.35 0.26,0.21 0.26,0.21 0.53,0.42 0.29,0.24 0.29,0.25 0.57,0.5 m -2.69,-5.69 c -0.11,0.14 -0.11,0.14 -0.21,0.28 -0.09,0.15 -0.09,0.15 -0.19,0.31 -0.09,0.16 -0.09,0.16 -0.18,0.32 -0.08,0.18 -0.08,0.18 -0.17,0.37 -0.05,0.12 -0.05,0.12 -0.09,0.25 -0.03,0.12 -0.03,0.12 -0.06,0.25 -0.01,0.13 -0.01,0.13 -0.02,0.26 0.01,0.13 0.01,0.13 0.03,0.25 0.02,0.13 0.02,0.13 0.06,0.26 0.04,0.13 0.04,0.13 0.09,0.25 0.07,0.12 0.07,0.12 0.14,0.24 0.09,0.12 0.09,0.12 0.17,0.24 0.11,0.12 0.11,0.12 0.21,0.23 0.12,0.11 0.12,0.11 0.24,0.22 0.14,0.1 0.14,0.1 0.28,0.2 m 1.88,-4.62 c -0.34,0.08 -0.34,0.08 -0.68,0.17 -0.36,0.11 -0.36,0.11 -0.72,0.23 -0.39,0.14 -0.39,0.14 -0.78,0.29 m -1.5,3.29 c 0.11,-0.31 0.11,-0.31 0.21,-0.62 0.09,-0.26 0.09,-0.26 0.19,-0.53 0.09,-0.23 0.09,-0.23 0.18,-0.46 0.08,-0.2 0.08,-0.2 0.17,-0.4 0.06,-0.13 0.06,-0.13 0.13,-0.25 0.08,-0.12 0.08,-0.12 0.17,-0.24 0.1,-0.11 0.1,-0.11 0.2,-0.23 0.12,-0.11 0.12,-0.11 0.24,-0.21 0.13,-0.11 0.13,-0.11 0.27,-0.21 0.15,-0.1 0.15,-0.1 0.3,-0.19 0.16,-0.09 0.16,-0.09 0.33,-0.17 0.17,-0.08 0.17,-0.08 0.35,-0.16 0.18,-0.07 0.18,-0.07 0.37,-0.14 0.2,-0.06 0.2,-0.06 0.4,-0.12 0.2,-0.05 0.2,-0.05 0.41,-0.1 m 0.27,9.01 c -0.29,-0.07 -0.29,-0.07 -0.57,-0.15 -0.27,-0.1 -0.27,-0.1 -0.53,-0.19 -0.25,-0.11 -0.25,-0.11 -0.5,-0.22 -0.25,-0.13 -0.25,-0.13 -0.49,-0.26 -0.25,-0.15 -0.25,-0.15 -0.49,-0.3 -0.25,-0.17 -0.25,-0.18 -0.5,-0.35 -0.27,-0.21 -0.27,-0.21 -0.53,-0.42 -0.29,-0.25 -0.29,-0.25 -0.58,-0.5" />
      </g>
    </g>
    <g
       id="Actor_.5">
      <g
         style="stroke:#000000;stroke-width:0.353"
         id="g2222">
        <path
           id="path2220"
           d="m 98.87,137.73 -0.67,0.13 m -3.44,-4.51 0.03,-0.02 m 3.41,4.53 -0.43,0.06 -0.23,0.02 m 0.22,-8.25 -0.26,1.4 v 1.67 m 3.55,4.28 v -2.59 m 1.49,-3.29 v 2.59 m -11.37,1.79 v -2.58 m 4.19,2.39 v 2.59 m -0.28,-9.02 -0.23,0.05 m 5.6,0.62 c 0.24,0.15 0.24,0.15 0.48,0.3 0.26,0.17 0.26,0.18 0.51,0.35 0.26,0.21 0.26,0.21 0.53,0.42 0.28,0.25 0.28,0.25 0.57,0.5 m -4.34,6.7 c 0.22,-0.04 0.22,-0.04 0.43,-0.08 0.12,-0.02 0.12,-0.02 0.24,-0.05 0.34,-0.08 0.34,-0.08 0.68,-0.17 0.36,-0.11 0.36,-0.11 0.72,-0.23 0.39,-0.14 0.39,-0.14 0.78,-0.29 m -0.91,-7.61 c -0.09,-0.05 -0.09,-0.05 -0.18,-0.1 -0.25,-0.11 -0.25,-0.11 -0.5,-0.22 -0.27,-0.09 -0.27,-0.09 -0.53,-0.19 -0.29,-0.08 -0.29,-0.08 -0.58,-0.15 -0.39,-0.03 -0.39,-0.03 -0.78,-0.05 -0.36,0 -0.36,0 -0.72,0 -0.34,0.02 -0.34,0.02 -0.68,0.04 -0.11,0.01 -0.11,0.01 -0.23,0.03 m -1.15,4.54 c 0.13,-0.04 0.13,-0.04 0.26,-0.09 0.14,-0.05 0.14,-0.05 0.28,-0.09 0.14,-0.03 0.14,-0.03 0.29,-0.07 0.14,-0.02 0.14,-0.02 0.29,-0.05 0.15,-0.02 0.16,-0.02 0.31,-0.04 0.15,-0.01 0.15,-0.01 0.31,-0.03 0.15,0 0.15,0 0.31,0 0.15,0 0.15,0 0.31,0 0.15,0.01 0.15,0.01 0.31,0.02 0.15,0.02 0.15,0.02 0.3,0.04 0.15,0.03 0.15,0.03 0.3,0.06 0.14,0.03 0.14,0.03 0.29,0.06 0.14,0.04 0.14,0.04 0.28,0.09 0.13,0.04 0.13,0.04 0.26,0.09 0.03,0.02 0.03,0.02 0.07,0.03 m -4.21,0 c 0.07,-0.05 0.07,-0.05 0.14,-0.11 0.02,-0.01 0.02,-0.01 0.03,-0.01 0.06,-0.04 0.06,-0.04 0.12,-0.08 0.08,-0.05 0.08,-0.05 0.17,-0.09 0.08,-0.04 0.08,-0.04 0.17,-0.08 0.09,-0.03 0.09,-0.03 0.19,-0.07 0.1,-0.03 0.1,-0.03 0.2,-0.06 0.1,-0.02 0.1,-0.02 0.2,-0.05 0.11,-0.02 0.11,-0.02 0.21,-0.04 0.11,-0.01 0.11,-0.01 0.22,-0.02 0.11,-0.01 0.11,-0.01 0.22,-0.02 0.05,0 0.05,0 0.1,-0.01 0.06,0 0.06,0 0.12,0 0.11,0 0.11,0 0.23,0.01 0.11,0 0.11,0 0.22,0.01 0.1,0.02 0.1,0.02 0.21,0.03 m -2.14,2.59 c 0.39,-0.15 0.39,-0.15 0.78,-0.3 0.36,-0.11 0.36,-0.11 0.72,-0.22 0.34,-0.09 0.34,-0.09 0.68,-0.18 0.54,-0.1 0.55,-0.1 1.09,-0.2 0.2,-0.05 0.2,-0.05 0.41,-0.1 0.2,-0.06 0.2,-0.06 0.39,-0.12 0.19,-0.07 0.19,-0.07 0.38,-0.14 0.17,-0.08 0.17,-0.08 0.35,-0.16 0.16,-0.08 0.16,-0.09 0.33,-0.17 0.15,-0.1 0.15,-0.1 0.29,-0.19 0.14,-0.11 0.14,-0.11 0.27,-0.21 0.12,-0.11 0.12,-0.11 0.24,-0.22 0.1,-0.11 0.1,-0.11 0.2,-0.22 0.09,-0.12 0.09,-0.12 0.17,-0.24 0.07,-0.12 0.07,-0.12 0.13,-0.25 0.05,-0.12 0.05,-0.12 0.1,-0.25 0.03,-0.13 0.03,-0.13 0.05,-0.25 0.01,-0.13 0.01,-0.13 0.02,-0.26 -0.01,-0.13 -0.01,-0.13 -0.02,-0.26 -0.03,-0.13 -0.03,-0.13 -0.06,-0.25 -0.05,-0.13 -0.05,-0.13 -0.1,-0.25 -0.07,-0.13 -0.07,-0.13 -0.14,-0.25 -0.08,-0.12 -0.08,-0.12 -0.17,-0.24 -0.1,-0.11 -0.1,-0.11 -0.21,-0.22 -0.12,-0.11 -0.12,-0.11 -0.24,-0.22 -0.13,-0.1 -0.13,-0.1 -0.27,-0.2 -0.15,-0.1 -0.15,-0.1 -0.3,-0.19 -0.17,-0.09 -0.17,-0.09 -0.33,-0.17 -0.18,-0.08 -0.18,-0.08 -0.36,-0.16 -0.19,-0.07 -0.19,-0.07 -0.38,-0.14 -0.19,-0.06 -0.19,-0.06 -0.39,-0.11 -0.21,-0.05 -0.21,-0.05 -0.41,-0.1 -0.22,-0.04 -0.22,-0.04 -0.43,-0.08 -0.22,-0.02 -0.22,-0.02 -0.43,-0.05 -0.23,-0.02 -0.23,-0.02 -0.45,-0.03 -0.22,-0.01 -0.22,-0.01 -0.44,-0.01 -0.22,0 -0.22,0 -0.45,0.01 -0.22,0.02 -0.22,0.02 -0.44,0.04 -0.22,0.02 -0.22,0.02 -0.43,0.05 m -0.15,9.1 c 0.39,0.02 0.39,0.02 0.78,0.04 0.36,0.01 0.36,0.01 0.72,0 0.34,-0.01 0.34,-0.01 0.68,-0.04 0.33,-0.04 0.33,-0.04 0.66,-0.08 m 0.76,-4.51 c 0.06,-0.05 0.06,-0.05 0.11,-0.1 0.05,-0.06 0.05,-0.06 0.11,-0.12 0.04,-0.06 0.04,-0.06 0.08,-0.12 0.03,-0.06 0.03,-0.06 0.06,-0.12 0.03,-0.06 0.03,-0.06 0.05,-0.12 0.02,-0.07 0.02,-0.07 0.03,-0.13 0.01,-0.07 0.01,-0.07 0.01,-0.13 -0.01,-0.06 -0.01,-0.06 -0.01,-0.13 -0.02,-0.06 -0.02,-0.06 -0.03,-0.13 -0.03,-0.06 -0.03,-0.06 -0.05,-0.12 -0.04,-0.06 -0.04,-0.06 -0.07,-0.12 -0.04,-0.06 -0.04,-0.06 -0.09,-0.12 -0.05,-0.06 -0.05,-0.06 -0.1,-0.12 -0.06,-0.05 -0.06,-0.05 -0.12,-0.1 -0.07,-0.06 -0.07,-0.06 -0.14,-0.11 -0.07,-0.04 -0.07,-0.04 -0.15,-0.09 -0.08,-0.04 -0.08,-0.04 -0.16,-0.09 -0.09,-0.04 -0.09,-0.04 -0.18,-0.07 -0.1,-0.04 -0.1,-0.04 -0.19,-0.07 -0.1,-0.03 -0.1,-0.03 -0.2,-0.06 -0.03,-0.01 -0.03,-0.01 -0.06,-0.02 -0.07,-0.01 -0.07,-0.01 -0.14,-0.03 -0.11,-0.02 -0.11,-0.02 -0.22,-0.04 -0.11,-0.01 -0.11,-0.01 -0.21,-0.02 -0.11,-0.01 -0.11,-0.01 -0.22,-0.02 -0.12,0 -0.12,0 -0.23,-0.01 -0.11,0.01 -0.11,0.01 -0.22,0.01 -0.11,0.01 -0.11,0.01 -0.22,0.02 -0.11,0.01 -0.11,0.01 -0.22,0.03 -0.1,0.02 -0.1,0.02 -0.21,0.04 -0.1,0.02 -0.1,0.02 -0.2,0.05 -0.1,0.03 -0.1,0.03 -0.2,0.06 -0.1,0.03 -0.1,0.03 -0.19,0.07 -0.09,0.03 -0.09,0.03 -0.17,0.07 -0.09,0.05 -0.09,0.05 -0.17,0.09 -0.07,0.05 -0.07,0.05 -0.15,0.1 -0.06,0.05 -0.06,0.05 -0.13,0.1 -0.06,0.05 -0.06,0.05 -0.12,0.11 -0.05,0.05 -0.05,0.05 -0.1,0.11 -0.04,0.06 -0.04,0.06 -0.09,0.12 -0.03,0.06 -0.03,0.06 -0.06,0.12 -0.03,0.07 -0.03,0.07 -0.05,0.13 -0.01,0.06 -0.01,0.06 -0.03,0.13 0,0.06 0,0.06 -0.01,0.13 0.01,0.06 0.01,0.06 0.02,0.12 0.01,0.07 0.01,0.07 0.03,0.13 0.02,0.06 0.02,0.06 0.05,0.13 0.03,0.06 0.03,0.06 0.06,0.12 0.05,0.06 0.05,0.06 0.09,0.12 0.05,0.06 0.05,0.06 0.1,0.11 0.05,0.05 0.05,0.05 0.1,0.09 m 2.75,-0.59 c 0.11,0.02 0.11,0.02 0.22,0.04 0.1,0.02 0.1,0.02 0.2,0.05 0.1,0.02 0.1,0.02 0.2,0.05 0.09,0.04 0.09,0.04 0.19,0.07 0.09,0.04 0.09,0.04 0.18,0.08 0.08,0.04 0.08,0.04 0.16,0.09 0.08,0.04 0.08,0.04 0.15,0.09 0.07,0.05 0.07,0.05 0.14,0.1 0.01,0.01 0.01,0.01 0.02,0.02 m -1.2,-3.66 c -0.15,-0.02 -0.15,-0.02 -0.3,-0.04 -0.16,-0.01 -0.16,-0.01 -0.31,-0.02 -0.16,-0.01 -0.16,-0.01 -0.31,-0.01 -0.16,0.01 -0.16,0.01 -0.31,0.01 -0.16,0.01 -0.16,0.01 -0.31,0.03 -0.15,0.01 -0.16,0.01 -0.31,0.04 -0.15,0.02 -0.15,0.02 -0.29,0.05 -0.15,0.03 -0.15,0.03 -0.29,0.07 -0.14,0.04 -0.14,0.04 -0.28,0.08 -0.13,0.05 -0.13,0.05 -0.26,0.1 -0.12,0.06 -0.12,0.06 -0.24,0.11 -0.05,0.03 -0.05,0.03 -0.1,0.05 -0.07,0.04 -0.07,0.04 -0.13,0.07 -0.11,0.07 -0.11,0.07 -0.21,0.14 -0.1,0.07 -0.1,0.07 -0.19,0.14 -0.08,0.08 -0.08,0.08 -0.17,0.15 -0.07,0.08 -0.07,0.08 -0.14,0.16 -0.06,0.09 -0.06,0.09 -0.12,0.17 -0.04,0.08 -0.04,0.08 -0.09,0.17 -0.03,0.09 -0.03,0.09 -0.06,0.18 -0.03,0.09 -0.03,0.09 -0.04,0.18 -0.01,0.09 -0.01,0.09 -0.02,0.18 0.01,0.09 0.01,0.09 0.02,0.18 0.02,0.08 0.02,0.08 0.04,0.17 0.04,0.09 0.04,0.09 0.07,0.18 0.05,0.09 0.05,0.09 0.1,0.17 0.06,0.08 0.06,0.08 0.12,0.17 0.07,0.08 0.07,0.08 0.14,0.16 0.09,0.07 0.09,0.07 0.17,0.15 0.1,0.07 0.1,0.07 0.19,0.14 0.11,0.07 0.11,0.07 0.21,0.13 0.12,0.06 0.12,0.06 0.24,0.12 0.12,0.06 0.12,0.06 0.24,0.11 0.14,0.05 0.14,0.05 0.27,0.1 0.14,0.04 0.14,0.04 0.27,0.08 0.15,0.03 0.15,0.03 0.29,0.07 0.15,0.02 0.15,0.02 0.3,0.05 0.15,0.02 0.15,0.02 0.31,0.04 0.15,0.01 0.15,0.01 0.3,0.02 0.16,0 0.16,0 0.32,0.01 0.15,-0.01 0.15,-0.01 0.31,-0.01 0.15,-0.01 0.15,-0.01 0.31,-0.03 0.15,-0.02 0.15,-0.02 0.3,-0.04 0.15,-0.02 0.15,-0.02 0.3,-0.05 0.14,-0.04 0.14,-0.04 0.28,-0.07 0.14,-0.04 0.14,-0.04 0.28,-0.09 0.13,-0.04 0.13,-0.04 0.26,-0.09 0.12,-0.06 0.13,-0.06 0.25,-0.11 0.11,-0.06 0.11,-0.06 0.23,-0.13 0.1,-0.06 0.1,-0.06 0.21,-0.13 0.09,-0.07 0.09,-0.07 0.18,-0.14 0.09,-0.08 0.09,-0.08 0.17,-0.15 0.07,-0.08 0.07,-0.08 0.14,-0.16 0.06,-0.09 0.06,-0.09 0.12,-0.17 0.05,-0.09 0.05,-0.09 0.09,-0.17 0.04,-0.09 0.04,-0.09 0.07,-0.18 0.02,-0.09 0.02,-0.09 0.04,-0.18 0,-0.09 0,-0.09 0.01,-0.18 -0.01,-0.09 -0.01,-0.09 -0.02,-0.18 -0.02,-0.09 -0.02,-0.09 -0.04,-0.17 -0.03,-0.09 -0.03,-0.09 -0.07,-0.18 -0.04,-0.09 -0.04,-0.09 -0.09,-0.17 -0.06,-0.09 -0.06,-0.09 -0.12,-0.17 -0.08,-0.08 -0.08,-0.08 -0.15,-0.16 -0.06,-0.05 -0.06,-0.05 -0.11,-0.1 -0.03,-0.02 -0.03,-0.02 -0.06,-0.05 -0.09,-0.07 -0.09,-0.07 -0.19,-0.14 -0.1,-0.07 -0.1,-0.07 -0.21,-0.13 -0.12,-0.06 -0.12,-0.06 -0.23,-0.12 -0.13,-0.06 -0.13,-0.06 -0.25,-0.11 -0.13,-0.05 -0.13,-0.05 -0.26,-0.1 -0.14,-0.04 -0.14,-0.04 -0.28,-0.08 -0.15,-0.03 -0.15,-0.03 -0.29,-0.07 -0.15,-0.03 -0.15,-0.03 -0.3,-0.05 m 3.29,4.76 c -0.39,-0.03 -0.39,-0.03 -0.78,-0.05 -0.36,0 -0.36,0 -0.72,0 -0.34,0.02 -0.34,0.02 -0.68,0.04 -0.33,0.04 -0.33,0.04 -0.67,0.09 -0.21,0.02 -0.21,0.03 -0.43,0.05 -0.22,0.02 -0.22,0.02 -0.44,0.04 -0.22,0.01 -0.22,0.01 -0.45,0.01 -0.22,0 -0.22,0 -0.44,-0.01 -0.22,-0.01 -0.22,-0.01 -0.44,-0.03 -0.22,-0.03 -0.22,-0.03 -0.44,-0.06 -0.21,-0.03 -0.21,-0.03 -0.42,-0.07 -0.21,-0.05 -0.21,-0.05 -0.42,-0.1 -0.19,-0.06 -0.19,-0.06 -0.39,-0.12 -0.19,-0.06 -0.19,-0.06 -0.38,-0.13 -0.18,-0.08 -0.18,-0.08 -0.35,-0.16 -0.41,-0.21 -0.41,-0.22 -0.82,-0.43 -0.25,-0.11 -0.25,-0.11 -0.5,-0.22 -0.27,-0.09 -0.27,-0.09 -0.53,-0.19 -0.29,-0.08 -0.29,-0.08 -0.58,-0.15 m 11.37,0.79 c -0.1,0.31 -0.1,0.31 -0.2,0.62 -0.1,0.26 -0.1,0.26 -0.19,0.53 -0.09,0.23 -0.09,0.23 -0.18,0.46 -0.09,0.2 -0.09,0.2 -0.18,0.41 -0.08,0.18 -0.08,0.18 -0.17,0.36 -0.09,0.16 -0.09,0.16 -0.18,0.32 -0.09,0.16 -0.09,0.16 -0.19,0.31 -0.1,0.14 -0.1,0.14 -0.2,0.28 m 0,-2.59 c 0.1,-0.31 0.1,-0.31 0.2,-0.62 0.1,-0.27 0.1,-0.27 0.19,-0.53 0.09,-0.23 0.09,-0.23 0.18,-0.46 0.09,-0.21 0.09,-0.21 0.17,-0.41 0.09,-0.18 0.09,-0.18 0.18,-0.36 0.09,-0.16 0.09,-0.16 0.18,-0.33 0.09,-0.15 0.09,-0.15 0.19,-0.3 0.1,-0.14 0.1,-0.14 0.2,-0.28 m -11.37,1.8 c 0.1,-0.32 0.1,-0.32 0.21,-0.63 0.09,-0.26 0.09,-0.26 0.19,-0.53 0.09,-0.23 0.09,-0.23 0.18,-0.46 0.08,-0.2 0.08,-0.2 0.17,-0.4 0.06,-0.13 0.06,-0.13 0.13,-0.25 0.08,-0.12 0.08,-0.12 0.17,-0.24 0.1,-0.11 0.1,-0.11 0.2,-0.22 0.12,-0.11 0.12,-0.11 0.24,-0.22 0.13,-0.11 0.13,-0.11 0.27,-0.21 0.15,-0.09 0.15,-0.09 0.3,-0.19 0.16,-0.09 0.16,-0.09 0.33,-0.17 0.03,-0.02 0.03,-0.02 0.07,-0.03 0.14,-0.07 0.14,-0.07 0.28,-0.13 0.18,-0.07 0.18,-0.07 0.37,-0.14 0.2,-0.06 0.2,-0.06 0.39,-0.12 0.21,-0.05 0.21,-0.05 0.41,-0.1 0.22,-0.04 0.22,-0.04 0.43,-0.08 m -0.15,9.1 c -0.29,-0.08 -0.29,-0.08 -0.57,-0.16 -0.27,-0.09 -0.27,-0.09 -0.53,-0.19 -0.25,-0.11 -0.25,-0.11 -0.5,-0.22 -0.25,-0.13 -0.25,-0.13 -0.49,-0.26 -0.25,-0.15 -0.25,-0.15 -0.49,-0.3 -0.25,-0.17 -0.25,-0.17 -0.5,-0.35 -0.27,-0.21 -0.27,-0.21 -0.53,-0.42 -0.29,-0.25 -0.29,-0.25 -0.58,-0.5 m 1.8,-1.95 c 0.39,0.24 0.39,0.24 0.79,0.49 0.25,0.17 0.25,0.17 0.5,0.35 0.26,0.21 0.26,0.21 0.53,0.42 0.29,0.25 0.29,0.25 0.57,0.5 m -2.69,-5.69 c -0.11,0.14 -0.11,0.14 -0.21,0.29 -0.09,0.15 -0.09,0.15 -0.19,0.3 -0.09,0.16 -0.09,0.16 -0.18,0.33 -0.08,0.18 -0.08,0.18 -0.17,0.36 -0.05,0.12 -0.05,0.12 -0.09,0.25 -0.03,0.13 -0.03,0.13 -0.06,0.25 -0.01,0.13 -0.01,0.13 -0.02,0.26 0.01,0.13 0.01,0.13 0.02,0.26 0.03,0.12 0.03,0.13 0.07,0.25 0.04,0.13 0.04,0.13 0.09,0.25 0.07,0.13 0.07,0.13 0.14,0.25 0.09,0.12 0.09,0.12 0.17,0.23 0.11,0.12 0.11,0.12 0.21,0.23 0.12,0.11 0.12,0.11 0.24,0.22 0.14,0.1 0.14,0.1 0.28,0.2 m 1.88,-4.62 c -0.34,0.08 -0.34,0.08 -0.68,0.17 -0.36,0.11 -0.36,0.11 -0.72,0.23 -0.39,0.15 -0.39,0.15 -0.78,0.29" />
      </g>
    </g>
    <g
       id="Actor_.6">
      <g
         style="stroke:#000000;stroke-width:0.353"
         id="g2283">
        <path
           id="path2281"
           d="m 182.24,90.16 v -2.59 m 1.5,-3.29 v 2.59 m -4.34,4.11 0.42,-0.08 0.24,-0.05 -0.66,0.13 m 0.75,-4.51 -0.06,-0.03 m -1.13,-3.63 -0.01,0.05 -0.25,1.35 v 1.67 m -2.14,2.59 v 2.59 m -4.19,-2.39 v -2.59 m 6.37,4.98 0.23,-0.02 0.43,-0.06 m 2.84,-0.82 c -0.39,0.15 -0.39,0.15 -0.78,0.29 -0.36,0.12 -0.36,0.12 -0.72,0.23 -0.34,0.09 -0.34,0.09 -0.68,0.17 m 3.68,-3.98 c -0.11,0.31 -0.11,0.31 -0.21,0.62 -0.09,0.27 -0.09,0.27 -0.19,0.53 -0.09,0.23 -0.09,0.23 -0.18,0.46 -0.08,0.2 -0.08,0.2 -0.17,0.41 -0.09,0.18 -0.09,0.18 -0.17,0.36 -0.09,0.16 -0.09,0.16 -0.18,0.33 -0.1,0.15 -0.1,0.15 -0.19,0.3 -0.1,0.14 -0.1,0.14 -0.21,0.28 m 0,-2.59 c 0.1,-0.31 0.1,-0.31 0.21,-0.62 0.09,-0.27 0.09,-0.27 0.19,-0.53 0.08,-0.23 0.08,-0.23 0.18,-0.46 0.08,-0.2 0.08,-0.2 0.17,-0.41 0.09,-0.18 0.09,-0.18 0.17,-0.36 0.09,-0.16 0.09,-0.16 0.18,-0.33 0.1,-0.15 0.1,-0.15 0.19,-0.3 0.1,-0.14 0.1,-0.14 0.21,-0.28 m -4.34,3.37 c 0.33,-0.05 0.33,-0.05 0.66,-0.09 0.34,-0.02 0.34,-0.02 0.68,-0.04 0.36,0 0.36,0 0.72,0 0.39,0.03 0.39,0.03 0.78,0.05 m -0.6,-4.86 c 0.15,0.09 0.15,0.09 0.3,0.19 0.14,0.1 0.14,0.1 0.28,0.2 0.12,0.11 0.12,0.11 0.24,0.22 0.1,0.11 0.1,0.11 0.21,0.23 0.08,0.11 0.08,0.11 0.17,0.23 0.07,0.12 0.07,0.12 0.13,0.25 0.06,0.12 0.06,0.12 0.1,0.25 0.04,0.13 0.04,0.13 0.06,0.25 0.02,0.13 0.02,0.13 0.03,0.26 -0.01,0.13 -0.01,0.13 -0.02,0.26 -0.03,0.12 -0.03,0.12 -0.06,0.25 -0.04,0.13 -0.04,0.13 -0.09,0.25 -0.06,0.13 -0.07,0.13 -0.13,0.25 -0.08,0.12 -0.09,0.12 -0.17,0.24 -0.1,0.11 -0.1,0.11 -0.2,0.23 -0.12,0.1 -0.12,0.1 -0.24,0.21 -0.13,0.11 -0.13,0.11 -0.27,0.21 -0.15,0.09 -0.15,0.09 -0.3,0.19 -0.16,0.09 -0.16,0.09 -0.33,0.17 -0.17,0.08 -0.17,0.08 -0.35,0.16 -0.18,0.07 -0.18,0.07 -0.37,0.14 -0.2,0.06 -0.2,0.06 -0.4,0.12 -0.2,0.05 -0.2,0.05 -0.41,0.1 -0.21,0.04 -0.21,0.04 -0.42,0.08 m 4.34,-3.37 c -0.29,-0.25 -0.29,-0.25 -0.58,-0.5 -0.26,-0.21 -0.26,-0.21 -0.53,-0.42 -0.25,-0.17 -0.25,-0.17 -0.5,-0.35 -0.24,-0.15 -0.24,-0.15 -0.49,-0.3 m 0,0 c -0.24,-0.13 -0.24,-0.13 -0.49,-0.26 -0.25,-0.11 -0.25,-0.11 -0.5,-0.22 -0.26,-0.09 -0.26,-0.09 -0.53,-0.18 -0.28,-0.09 -0.28,-0.09 -0.57,-0.16 -0.39,-0.03 -0.39,-0.03 -0.78,-0.05 -0.36,0 -0.36,0 -0.72,0 -0.34,0.02 -0.34,0.02 -0.68,0.04 -0.12,0.01 -0.12,0.01 -0.23,0.03 -0.22,0.03 -0.22,0.03 -0.44,0.05 m 0.44,-0.05 c 0.22,-0.02 0.22,-0.02 0.44,-0.04 0.22,-0.01 0.22,-0.01 0.44,-0.01 0.23,0 0.23,0 0.45,0.01 0.22,0.01 0.22,0.01 0.44,0.03 0.22,0.03 0.22,0.03 0.44,0.06 0.21,0.03 0.21,0.03 0.42,0.07 0.21,0.05 0.21,0.05 0.42,0.1 0.19,0.06 0.19,0.06 0.39,0.12 0.18,0.06 0.18,0.06 0.35,0.12 0.01,0.01 0.01,0.01 0.03,0.01 0.17,0.08 0.18,0.08 0.35,0.16 0.17,0.08 0.17,0.08 0.33,0.17 m -1.48,3.76 c 0.05,-0.05 0.05,-0.05 0.11,-0.1 0.05,-0.06 0.05,-0.06 0.1,-0.12 0.04,-0.05 0.04,-0.05 0.09,-0.11 0.03,-0.07 0.03,-0.07 0.06,-0.13 0.03,-0.06 0.03,-0.06 0.05,-0.12 0.01,-0.07 0.01,-0.07 0.03,-0.13 0,-0.06 0,-0.06 0,-0.13 0,-0.06 0,-0.06 -0.01,-0.13 -0.01,-0.06 -0.01,-0.06 -0.03,-0.12 -0.02,-0.07 -0.02,-0.07 -0.05,-0.13 -0.03,-0.06 -0.03,-0.06 -0.06,-0.12 -0.05,-0.06 -0.05,-0.06 -0.09,-0.12 -0.05,-0.06 -0.05,-0.06 -0.1,-0.11 -0.06,-0.06 -0.06,-0.06 -0.13,-0.11 -0.06,-0.05 -0.06,-0.05 -0.13,-0.1 -0.08,-0.05 -0.08,-0.05 -0.15,-0.1 -0.09,-0.04 -0.09,-0.04 -0.17,-0.08 -0.09,-0.04 -0.09,-0.04 -0.18,-0.08 -0.09,-0.04 -0.09,-0.04 -0.18,-0.07 -0.1,-0.03 -0.1,-0.03 -0.2,-0.06 -0.1,-0.02 -0.1,-0.02 -0.21,-0.05 -0.1,-0.02 -0.1,-0.02 -0.21,-0.04 -0.11,-0.01 -0.11,-0.01 -0.22,-0.02 -0.11,-0.01 -0.11,-0.01 -0.22,-0.02 -0.11,0 -0.11,0 -0.22,0 -0.11,0 -0.11,0 -0.22,0 -0.11,0.01 -0.11,0.01 -0.22,0.02 -0.11,0.01 -0.11,0.01 -0.22,0.03 -0.11,0.02 -0.11,0.02 -0.21,0.04 -0.11,0.02 -0.11,0.02 -0.21,0.05 -0.1,0.03 -0.1,0.03 -0.2,0.06 -0.09,0.03 -0.09,0.03 -0.18,0.07 -0.09,0.04 -0.09,0.04 -0.18,0.08 -0.08,0.04 -0.08,0.04 -0.16,0.08 -0.08,0.05 -0.08,0.05 -0.15,0.1 -0.07,0.05 -0.07,0.05 -0.14,0.1 -0.06,0.05 -0.06,0.05 -0.11,0.11 -0.06,0.06 -0.06,0.06 -0.11,0.11 -0.04,0.06 -0.04,0.06 -0.08,0.12 -0.03,0.06 -0.03,0.06 -0.07,0.13 -0.02,0.06 -0.02,0.06 -0.04,0.12 -0.02,0.06 -0.02,0.06 -0.03,0.13 -0.01,0.06 -0.01,0.06 -0.01,0.13 0.01,0.06 0.01,0.06 0.01,0.13 0.02,0.06 0.02,0.06 0.03,0.12 0.03,0.07 0.03,0.07 0.05,0.13 0.03,0.06 0.03,0.06 0.07,0.12 0.04,0.06 0.04,0.06 0.09,0.12 0.05,0.06 0.05,0.06 0.1,0.11 0.05,0.05 0.05,0.05 0.1,0.09 m 4.14,-0.03 c -0.14,-0.05 -0.14,-0.05 -0.27,-0.09 -0.14,-0.04 -0.14,-0.04 -0.28,-0.08 -0.14,-0.04 -0.14,-0.04 -0.28,-0.07 -0.15,-0.03 -0.15,-0.03 -0.3,-0.06 -0.15,-0.02 -0.15,-0.02 -0.3,-0.03 -0.16,-0.02 -0.16,-0.02 -0.32,-0.03 -0.15,0 -0.15,0 -0.31,0 -0.15,0 -0.15,0 -0.31,0.01 -0.15,0.01 -0.15,0.01 -0.31,0.02 -0.15,0.02 -0.15,0.02 -0.3,0.04 -0.15,0.03 -0.15,0.03 -0.3,0.06 -0.14,0.03 -0.14,0.03 -0.28,0.06 -0.14,0.05 -0.14,0.05 -0.28,0.09 -0.13,0.05 -0.13,0.05 -0.26,0.1 -0.02,0 -0.02,0 -0.04,0.01 m 2.75,-0.59 c -0.11,-0.01 -0.11,-0.01 -0.22,-0.03 -0.11,0 -0.11,0 -0.22,-0.01 -0.11,-0.01 -0.11,-0.01 -0.22,-0.01 -0.11,0.01 -0.11,0.01 -0.22,0.01 -0.11,0.01 -0.11,0.01 -0.22,0.02 -0.11,0.01 -0.11,0.01 -0.22,0.03 -0.11,0.01 -0.11,0.01 -0.21,0.03 -0.11,0.03 -0.11,0.03 -0.21,0.05 -0.1,0.03 -0.1,0.03 -0.2,0.06 -0.09,0.04 -0.09,0.04 -0.18,0.07 -0.09,0.04 -0.09,0.04 -0.18,0.08 -0.08,0.05 -0.08,0.05 -0.16,0.09 -0.08,0.05 -0.08,0.05 -0.15,0.1 -0.07,0.05 -0.07,0.05 -0.14,0.1 m 2.75,-0.59 c 0.11,0.02 0.11,0.02 0.21,0.04 0.11,0.02 0.11,0.02 0.21,0.05 0.1,0.03 0.1,0.03 0.2,0.06 0.09,0.03 0.09,0.03 0.18,0.06 0.09,0.04 0.09,0.04 0.18,0.08 0.08,0.04 0.08,0.04 0.17,0.09 0.07,0.05 0.07,0.05 0.15,0.09 0.07,0.05 0.07,0.05 0.14,0.1 0,0.01 0,0.01 0.01,0.02 m -1.19,-3.66 c -0.15,-0.02 -0.15,-0.02 -0.3,-0.04 -0.16,-0.01 -0.16,-0.01 -0.32,-0.02 -0.15,0 -0.15,0 -0.31,-0.01 -0.15,0.01 -0.15,0.01 -0.31,0.01 -0.15,0.01 -0.15,0.01 -0.31,0.03 -0.15,0.02 -0.15,0.02 -0.3,0.04 -0.15,0.02 -0.15,0.02 -0.3,0.05 -0.14,0.04 -0.14,0.04 -0.28,0.07 -0.14,0.04 -0.14,0.04 -0.28,0.09 -0.13,0.04 -0.13,0.04 -0.26,0.09 -0.13,0.06 -0.13,0.06 -0.25,0.11 -0.11,0.06 -0.11,0.06 -0.23,0.13 -0.1,0.06 -0.1,0.06 -0.21,0.13 -0.09,0.07 -0.09,0.07 -0.18,0.14 -0.09,0.08 -0.09,0.08 -0.17,0.15 -0.07,0.08 -0.07,0.08 -0.14,0.16 -0.06,0.09 -0.06,0.09 -0.12,0.17 -0.05,0.09 -0.05,0.09 -0.09,0.17 -0.04,0.09 -0.04,0.09 -0.07,0.18 -0.02,0.09 -0.02,0.09 -0.04,0.18 -0.01,0.09 -0.01,0.09 -0.01,0.18 0.01,0.09 0.01,0.09 0.02,0.18 0.02,0.09 0.02,0.09 0.04,0.18 0.03,0.08 0.03,0.08 0.07,0.17 0.04,0.09 0.04,0.09 0.09,0.17 0.06,0.09 0.06,0.09 0.12,0.17 0.07,0.08 0.08,0.08 0.15,0.16 0.08,0.07 0.08,0.07 0.17,0.15 0.09,0.07 0.09,0.07 0.19,0.14 0.1,0.07 0.1,0.07 0.21,0.13 0.02,0.01 0.02,0.01 0.03,0.02 0.1,0.05 0.1,0.05 0.2,0.1 0.12,0.06 0.13,0.06 0.25,0.11 0.13,0.05 0.13,0.05 0.26,0.1 0.14,0.04 0.14,0.04 0.28,0.08 0.14,0.03 0.14,0.03 0.29,0.07 0.15,0.03 0.15,0.03 0.3,0.05 0.15,0.02 0.15,0.02 0.3,0.04 0.16,0.01 0.16,0.01 0.31,0.02 0.16,0.01 0.16,0.01 0.31,0.01 0.16,-0.01 0.16,-0.01 0.31,-0.01 0.16,-0.01 0.16,-0.01 0.31,-0.02 0.15,-0.02 0.15,-0.02 0.31,-0.04 0.14,-0.03 0.14,-0.03 0.29,-0.06 0.15,-0.03 0.15,-0.03 0.29,-0.07 0.14,-0.04 0.14,-0.04 0.28,-0.08 0.13,-0.05 0.13,-0.05 0.26,-0.1 0.12,-0.06 0.12,-0.06 0.24,-0.11 0.12,-0.06 0.12,-0.06 0.23,-0.12 0.07,-0.04 0.07,-0.05 0.13,-0.09 0.04,-0.02 0.04,-0.02 0.08,-0.05 0.1,-0.07 0.1,-0.07 0.19,-0.14 0.08,-0.08 0.08,-0.08 0.17,-0.15 0.07,-0.08 0.07,-0.08 0.14,-0.16 0.06,-0.09 0.06,-0.09 0.12,-0.17 0.04,-0.08 0.04,-0.08 0.09,-0.17 0.03,-0.09 0.03,-0.09 0.06,-0.18 0.02,-0.09 0.02,-0.09 0.04,-0.18 0.01,-0.09 0.01,-0.09 0.01,-0.18 0,-0.09 0,-0.09 -0.01,-0.18 -0.02,-0.08 -0.02,-0.08 -0.04,-0.17 -0.04,-0.09 -0.04,-0.09 -0.07,-0.18 -0.05,-0.09 -0.05,-0.09 -0.1,-0.17 -0.06,-0.08 -0.06,-0.08 -0.12,-0.17 -0.07,-0.08 -0.07,-0.08 -0.14,-0.16 -0.09,-0.07 -0.09,-0.07 -0.17,-0.15 -0.1,-0.07 -0.1,-0.07 -0.19,-0.14 -0.11,-0.07 -0.11,-0.07 -0.22,-0.13 -0.11,-0.06 -0.11,-0.06 -0.23,-0.12 -0.12,-0.06 -0.12,-0.06 -0.24,-0.11 -0.14,-0.05 -0.14,-0.05 -0.27,-0.1 -0.14,-0.04 -0.14,-0.04 -0.28,-0.08 -0.14,-0.03 -0.14,-0.03 -0.28,-0.07 -0.15,-0.02 -0.15,-0.03 -0.3,-0.05 m -4.5,4.09 c 0.25,0.15 0.25,0.15 0.49,0.3 0.25,0.18 0.25,0.18 0.5,0.35 0.27,0.21 0.27,0.21 0.53,0.42 0.29,0.25 0.29,0.25 0.58,0.5 m 2.84,-0.82 c -0.22,0.03 -0.22,0.03 -0.43,0.05 -0.22,0.02 -0.22,0.02 -0.44,0.04 -0.23,0.01 -0.23,0.01 -0.45,0.01 -0.22,0 -0.22,0 -0.44,-0.01 -0.06,0 -0.06,0 -0.12,-0.01 -0.16,-0.01 -0.16,-0.01 -0.33,-0.02 -0.21,-0.03 -0.21,-0.03 -0.43,-0.05 -0.21,-0.04 -0.21,-0.04 -0.43,-0.08 -0.2,-0.05 -0.2,-0.05 -0.41,-0.1 -0.2,-0.05 -0.2,-0.05 -0.4,-0.11 -0.18,-0.07 -0.18,-0.07 -0.37,-0.14 -0.18,-0.08 -0.18,-0.08 -0.36,-0.16 -0.16,-0.08 -0.16,-0.08 -0.33,-0.17 m 2.1,1.57 c 0.39,-0.15 0.39,-0.15 0.78,-0.29 0.36,-0.12 0.36,-0.12 0.72,-0.23 0.34,-0.09 0.34,-0.09 0.68,-0.18 0.33,-0.06 0.33,-0.06 0.66,-0.12 m -5.54,-4.86 c 0.39,-0.15 0.39,-0.15 0.78,-0.3 0.36,-0.11 0.36,-0.11 0.72,-0.23 0.34,-0.08 0.34,-0.08 0.68,-0.17 0.12,-0.02 0.12,-0.02 0.24,-0.05 m -1.82,4.86 c -0.15,-0.09 -0.15,-0.09 -0.3,-0.19 -0.14,-0.1 -0.14,-0.1 -0.27,-0.2 -0.12,-0.11 -0.12,-0.11 -0.24,-0.22 -0.01,-0.01 -0.01,-0.01 -0.02,-0.02 -0.1,-0.1 -0.1,-0.1 -0.19,-0.2 -0.09,-0.12 -0.09,-0.12 -0.17,-0.24 -0.07,-0.12 -0.07,-0.12 -0.14,-0.25 -0.05,-0.12 -0.05,-0.12 -0.1,-0.25 -0.03,-0.12 -0.03,-0.12 -0.06,-0.25 -0.01,-0.13 -0.01,-0.13 -0.02,-0.26 0.01,-0.13 0.01,-0.13 0.02,-0.26 0.02,-0.12 0.02,-0.12 0.05,-0.25 0.05,-0.13 0.05,-0.13 0.1,-0.25 0.08,-0.18 0.08,-0.18 0.17,-0.36 0.09,-0.17 0.09,-0.17 0.18,-0.33 0.09,-0.15 0.09,-0.15 0.19,-0.3 0.1,-0.14 0.1,-0.14 0.2,-0.28 m -1.49,3.29 c 0.29,0.07 0.29,0.07 0.57,0.16 0.27,0.09 0.27,0.09 0.53,0.18 0.26,0.11 0.26,0.11 0.51,0.22 0.24,0.13 0.24,0.13 0.48,0.26 m -2.09,-0.82 c 0.1,-0.31 0.1,-0.31 0.2,-0.63 0.1,-0.26 0.1,-0.26 0.19,-0.53 0.09,-0.23 0.09,-0.23 0.18,-0.46 0.09,-0.2 0.09,-0.2 0.18,-0.4 0.06,-0.12 0.06,-0.13 0.13,-0.25 0.08,-0.12 0.08,-0.12 0.17,-0.23 0.1,-0.12 0.1,-0.12 0.2,-0.23 0.12,-0.11 0.12,-0.11 0.24,-0.22 0.13,-0.1 0.13,-0.1 0.27,-0.21 0.14,-0.09 0.14,-0.09 0.29,-0.19 0.17,-0.08 0.17,-0.08 0.33,-0.17 0.18,-0.08 0.18,-0.08 0.35,-0.16 0.19,-0.07 0.19,-0.07 0.38,-0.14 0.19,-0.06 0.19,-0.06 0.39,-0.12 0.21,-0.05 0.21,-0.05 0.41,-0.1 0.21,-0.04 0.21,-0.04 0.43,-0.08 m 2.69,9.02 c -0.33,0.04 -0.33,0.04 -0.66,0.08 -0.34,0.03 -0.34,0.03 -0.68,0.05 -0.36,0 -0.36,0 -0.72,-0.01 -0.39,-0.02 -0.39,-0.01 -0.78,-0.04 -0.29,-0.07 -0.29,-0.08 -0.58,-0.16 -0.26,-0.09 -0.26,-0.09 -0.53,-0.19 -0.25,-0.11 -0.25,-0.11 -0.5,-0.22 -0.24,-0.13 -0.24,-0.13 -0.49,-0.26 -0.24,-0.14 -0.24,-0.14 -0.48,-0.3 -0.26,-0.17 -0.26,-0.17 -0.51,-0.35 -0.26,-0.21 -0.26,-0.21 -0.53,-0.42 -0.28,-0.24 -0.28,-0.24 -0.57,-0.49" />
      </g>
    </g>
    <g
       id="Actor_.7"
       style="display:inline">
      <g
         style="stroke:#000000;stroke-width:0.353"
         id="g2398">
        <path
           id="path2396"
           d="m 249.68,73.64 -0.07,0.04 m -12.77,1.72 -3.15,-1.82 m -1.83,3.35 -0.57,0.06 -0.54,0.11 m -0.83,-0.28 v -1.04 l -0.34,0.23 -0.36,0.4 m -1.51,-5.24 5.98,-0.93 m -5.98,4.26 v -3.33 l -1.6,3.45 4.37,2.53 5.98,-0.93 1.6,-3.45 -4.37,-2.53 v 3.34 l -5.98,0.92 -0.38,0.82 m -4.3,13.71 -0.53,0.3 m -15.88,-0.13 3.16,1.83 m -6.09,1.7 0.54,-0.12 0.56,-0.05 m -2.64,-0.52 0.36,-0.4 0.34,-0.23 v 1.04 m -2.57,-1.49 3.14,1.81 5.96,-0.92 1.62,-3.45 -4.38,-2.53 m -5.98,0.93 -1.6,3.45 1.24,0.71 0.36,-0.83 V 86.8 l 5.98,-0.93 v 3.33 l -5.98,0.93 m -21.08,14.7 3.15,1.82 m -6.92,1.42 v -1.04 l -0.34,0.24 -0.37,0.4 m -1.5,-1.91 5.98,-0.93 v -3.33 m -5.98,0.92 v 3.34 l -0.38,0.82 m 4.53,1.61 -0.21,0.03 4.81,-0.75 1.6,-3.45 -4.37,-2.52 -5.98,0.92 -1.6,3.45 4.37,2.53 1.17,-0.18 -0.36,0.02 -0.54,0.12 m -24.14,12.1 3.17,1.82 m -4.99,1.53 -0.56,0.06 -0.54,0.11 m -0.84,-0.28 v -1.04 l -0.34,0.23 -0.36,0.4 m 4.46,-6.17 v 3.34 l -5.97,0.92 m 0,-3.33 5.97,-0.93 4.39,2.53 -1.61,3.45 -5.97,0.92 -4.38,-2.52 1.6,-3.45 v 3.33 l -0.38,0.82 m -17.55,15.7 1.22,-2.62 -4.37,-2.53 m -1.83,6.69 -0.57,0.05 -0.54,0.12 m -0.83,-0.28 v -1.05 l -0.34,0.24 -0.37,0.4 m -1.5,-5.25 5.98,-0.92 v 3.33 m -5.98,0.93 v -3.34 l -1.6,3.46 4.37,2.52 5.98,-0.92 0.38,-0.83 -3.15,-1.82 -5.98,0.93 -0.38,0.82 m -20.71,13.88 3.16,1.82 m -6.93,1.42 v -1.04 l -0.34,0.24 -0.36,0.39 m -1.51,-5.24 5.98,-0.92 m -5.98,4.25 5.98,-0.92 v -3.33 l 4.38,2.52 -1.61,3.45 -5.54,0.86 0.38,-0.09 0.56,-0.06 m -1.1,0.17 0.16,-0.02 -0.43,0.07 -4.38,-2.53 1.6,-3.45 v 3.33 L 92,153.45 M 71.3,164 l 4.37,2.53 -1.22,2.63 m -3.15,-1.83 3.15,1.83 -0.38,0.82 -4.66,0.72 0.06,-0.01 m -2.03,3.8 L 249.68,69.27 M 67.53,170.58 v -1.04 l -0.34,0.23 -0.37,0.4 m -1.5,-1.91 5.98,-0.93 V 164 l -5.98,0.93 m -0.38,4.15 0.38,-0.82 v -3.33 l -1.6,3.45 4.37,2.52 1.32,-0.2 -0.51,0.05 -0.54,0.11 m -0.92,8 v -4.37 m -10.67,-0.32 v -4.37 m 0.03,4.63 -0.02,-0.36 m 0.73,-3.23 v 4.37 m 9.27,4.02 182.9,-105.59 v -4.37 l -9.93,-5.73 m -182.24,107.3 6.32,3.64 0.02,4.39 M 229.92,75.78 c 0.31,-0.15 0.31,-0.15 0.63,-0.28 0.37,-0.1 0.37,-0.1 0.74,-0.18 0.4,-0.03 0.4,-0.04 0.8,-0.06 0.39,0.03 0.39,0.03 0.79,0.06 0.25,0.05 0.25,0.05 0.5,0.11 0.34,0.12 0.34,0.11 0.67,0.24 0.28,0.17 0.28,0.17 0.54,0.34 0.14,0.13 0.14,0.14 0.27,0.27 0.06,0.09 0.06,0.09 0.12,0.17 m -27.07,15.63 c -0.11,-0.16 -0.11,-0.16 -0.24,-0.31 -0.24,-0.19 -0.24,-0.19 -0.48,-0.36 -0.32,-0.15 -0.32,-0.15 -0.64,-0.29 -0.37,-0.09 -0.37,-0.09 -0.74,-0.17 -0.39,-0.04 -0.39,-0.04 -0.79,-0.06 -0.4,0.02 -0.4,0.02 -0.79,0.06 -0.37,0.08 -0.37,0.08 -0.74,0.17 -0.32,0.14 -0.32,0.14 -0.64,0.29 m -27.06,15.62 c 0.31,-0.14 0.31,-0.15 0.63,-0.28 0.37,-0.09 0.37,-0.09 0.74,-0.18 0.4,-0.03 0.4,-0.03 0.8,-0.06 0.39,0.03 0.39,0.03 0.79,0.06 0.25,0.05 0.25,0.05 0.5,0.11 0.34,0.12 0.34,0.12 0.67,0.25 0.28,0.16 0.28,0.16 0.54,0.34 0.14,0.13 0.14,0.13 0.27,0.26 0.06,0.09 0.06,0.09 0.12,0.17 m -32.13,14.96 c 0.21,-0.1 0.21,-0.1 0.41,-0.2 0.23,-0.08 0.23,-0.08 0.47,-0.16 0.25,-0.05 0.25,-0.05 0.5,-0.1 0.26,-0.03 0.26,-0.03 0.52,-0.05 0.27,-0.01 0.27,-0.01 0.54,0 0.26,0.02 0.26,0.02 0.52,0.05 0.25,0.05 0.25,0.05 0.5,0.11 0.23,0.07 0.23,0.07 0.47,0.15 0.2,0.1 0.2,0.1 0.4,0.2 0.18,0.11 0.18,0.11 0.35,0.23 0.07,0.07 0.07,0.07 0.14,0.13 0.12,0.15 0.12,0.16 0.24,0.31 m -32.12,14.95 c 0.2,-0.1 0.2,-0.1 0.41,-0.19 0.23,-0.08 0.23,-0.08 0.46,-0.16 0.25,-0.05 0.25,-0.05 0.5,-0.1 0.26,-0.03 0.26,-0.03 0.53,-0.06 0.26,0 0.26,0 0.53,0 0.26,0.03 0.26,0.03 0.53,0.06 0.25,0.05 0.25,0.05 0.5,0.1 0.23,0.08 0.23,0.08 0.46,0.16 0.21,0.09 0.21,0.09 0.41,0.19 0.17,0.12 0.17,0.12 0.34,0.24 0.14,0.13 0.14,0.13 0.27,0.27 0.06,0.08 0.06,0.08 0.12,0.17 m -27.07,15.62 c -0.11,-0.15 -0.11,-0.16 -0.24,-0.3 -0.24,-0.19 -0.24,-0.19 -0.49,-0.37 -0.31,-0.15 -0.31,-0.15 -0.63,-0.28 -0.37,-0.1 -0.37,-0.1 -0.74,-0.18 -0.39,-0.03 -0.39,-0.03 -0.79,-0.06 -0.4,0.03 -0.4,0.03 -0.79,0.06 -0.37,0.08 -0.37,0.08 -0.74,0.18 -0.32,0.13 -0.32,0.13 -0.64,0.28 m -27.06,15.63 c 0.31,-0.15 0.31,-0.15 0.63,-0.28 0.37,-0.1 0.37,-0.1 0.74,-0.18 0.4,-0.04 0.4,-0.04 0.79,-0.06 0.4,0.02 0.4,0.02 0.8,0.06 0.25,0.05 0.25,0.05 0.5,0.1 0.34,0.12 0.34,0.12 0.67,0.25 0.28,0.16 0.28,0.17 0.54,0.34 0.14,0.13 0.14,0.13 0.27,0.27 0.06,0.08 0.06,0.08 0.11,0.17 m -5.14,4.28 c -0.27,0.12 -0.27,0.12 -0.53,0.23 -0.2,0.06 -0.2,0.06 -0.4,0.11 -0.44,0.05 -0.44,0.05 -0.88,0.09 -0.22,-0.01 -0.22,-0.01 -0.44,-0.03 -0.21,-0.03 -0.22,-0.03 -0.43,-0.06 -0.2,-0.06 -0.2,-0.05 -0.4,-0.11 -0.27,-0.12 -0.27,-0.12 -0.53,-0.24 m -6.32,0.73 c 3.17,1.84 3.17,1.84 6.34,3.66 0.25,0.12 0.25,0.12 0.51,0.22 0.2,0.06 0.2,0.06 0.4,0.11 0.21,0.04 0.22,0.04 0.43,0.07 0.44,0 0.44,0 0.89,0 0.21,-0.03 0.21,-0.03 0.43,-0.07 0.2,-0.05 0.2,-0.05 0.4,-0.11 0.26,-0.11 0.26,-0.11 0.53,-0.23 m -9.93,-3.65 c -0.2,-0.15 -0.2,-0.15 -0.4,-0.3 -0.1,-0.11 -0.1,-0.12 -0.19,-0.23 -0.06,-0.13 -0.06,-0.13 -0.12,-0.25 M 239.75,63.54 c -91.12,52.6 -91.12,52.6 -182.24,105.22 -0.2,0.14 -0.2,0.14 -0.4,0.3 -0.1,0.11 -0.1,0.11 -0.19,0.23 -0.06,0.12 -0.06,0.13 -0.11,0.25 -0.03,0.13 -0.03,0.13 -0.04,0.26 0.01,0.12 0.01,0.13 0.03,0.25 0.06,0.13 0.06,0.13 0.12,0.25 0.09,0.12 0.09,0.12 0.19,0.23 0.2,0.16 0.2,0.16 0.4,0.31 m 6.34,8.03 c 0.38,0.21 0.38,0.21 0.76,0.42 0.13,0.05 0.13,0.04 0.27,0.09 0.22,0.04 0.22,0.04 0.44,0.08 0.24,0.01 0.24,0.01 0.47,0.01 0.15,-0.01 0.15,-0.01 0.31,-0.03 0.21,-0.05 0.21,-0.05 0.43,-0.1 0.12,-0.05 0.12,-0.05 0.25,-0.11" />
      </g>
    </g>
  </g>
</svg>
