<?xml version="1.0" encoding="UTF-8" standalone="no"?>
<svg xmlns="http://www.w3.org/2000/svg" xmlns:xlink="http://www.w3.org/1999/xlink" width="297.000mm" height="210.000mm" viewBox="0.000000 0.000000 297.000000 210.000000" stroke-linejoin="round" stroke-linecap="round" fill="none" fill-rule="evenodd"><desc>Composer Export</desc><script type="text/ecmascript"><![CDATA[
if(typeof(top) != "undefined")
{
	top.ShowPaper = ShowPaper;
}
function ShowHotSpot(evt,hotspotid)
{
	var svgDocument = evt.target.ownerDocument;
	var strId = "hotspot."+hotspotid;
	var hotspot = svgDocument.getElementById(strId);
	if(hotspot)
		hotspot.setAttribute("opacity",".5");
}
function HideHotSpot(evt,hotspotid)
{
	var svgDocument = evt.target.ownerDocument;
	var strId = "hotspot."+hotspotid;
	var hotspot = svgDocument.getElementById(strId);
	if(hotspot)
		hotspot.setAttribute("opacity","0");

	var toolTip = svgDocument.getElementById('ToolTip');
	if(toolTip)
		toolTip.setAttribute("visibility","hidden");
}
function ShowToolTip(evt,hotspotid,strTooltip)
{
	if(strTooltip=="")
	return;

	// change text
	var svgDocument = evt.target.ownerDocument;
	var tiptext = svgDocument.getElementById('ToolTipText');
	if( !tiptext )
	return;
	tiptext.firstChild.nodeValue = " " + strTooltip + "  " ;

	// show tooltip before, else some refresh issue

	var toolTip = svgDocument.getElementById('ToolTip');
	if(!toolTip)
	return;

	toolTip.setAttribute("visibility","visible");
	toolTip.setAttribute("opacity",".95");

	// move tooltip
	// get viewbox

	var root = svgDocument.documentElement;
	var vbox = (root.getAttribute("viewBox")).split(' ');
	var x0 = parseFloat(vbox[0]);
	var y0 = parseFloat(vbox[1]);
	var vboxW = parseFloat(vbox[2]);
	var vboxH = parseFloat(vbox[3]);

	// get default width of svg

	var strW = root.getAttribute("width");
	var svgW = parseFloat(strW);
	if(strW.indexOf('mm') != -1)
	svgW *= 3.779;

	var strH = root.getAttribute("height");
	var svgH = parseFloat(strH);
	if(strH.indexOf('mm') != -1)
	svgH *= 3.779;  	// 96 dpi  -> 96/25.4 = 3.779

	// update the viewbox / width / height if svg is embedded in html with zoom fit all
	var realx0 = x0;
	var realy0 = y0;
	var realvboxW = vboxW;
	var realvboxH = vboxH;
	var realsvgW = svgW;
	var realsvgH = svgH;

	if ((typeof(top) == "undefined") || (typeof(top.svgctl1) != "undefined")) // embedded in html
	{
		// get window size in pxl

		svgW = window.innerWidth;
		svgH = window.innerHeight;

		// calculate real viewbox

		realsvgW = svgW;
		realsvgH = svgH;
		if((svgW / svgH) > (vboxW / vboxH))
		{
			realvboxW = (vboxH * svgW) / svgH;
			realvboxH = vboxH;
			realx0 = x0 - (realvboxW - vboxW)/2 ;
		}
		else
		{
			realvboxH = (vboxW * svgH) / svgW;
			realvboxW = vboxW;
			realy0 = y0 - (realvboxH - vboxH)/2 ;
		}
	}

	// get user zoom/pan

	var newScale = root.currentScale;
	var translation = root.currentTranslate;

	// transform pxl to user unit

	var xPos = (((evt.clientX+10- translation.x)/newScale) * realvboxW)/realsvgW  + realx0 ;
	var yPos = (((evt.clientY+5- translation.y)/newScale) * realvboxH)/ realsvgH  + realy0 ;
	var scaleForWidth = ( (1 / newScale) * realvboxH) / realsvgH;

	// move tooltip

	toolTip.setAttribute("transform", "translate(" + xPos + "," + yPos + ")" );

	// resize tooltip

	var fontsize = 12;
	tiptext.setAttribute("font-size",fontsize*scaleForWidth);
	tiptext.setAttribute("y", fontsize*scaleForWidth);
	var tipBG = svgDocument.getElementById('ToolTipBG');
	var outline = tiptext.getBBox();
	if(tipBG)
	{
		tipBG.setAttribute("stroke-width", 1*scaleForWidth);
		tipBG.setAttribute("width", Number(outline.width) );
		tipBG.setAttribute("height", Number(outline.height) + fontsize*.5*scaleForWidth );
	}
	var ToolTipShadow = svgDocument.getElementById('ToolTipShadow');
	if(ToolTipShadow)
	{
		ToolTipShadow.setAttribute("width", Number(outline.width) );
		ToolTipShadow.setAttribute("height", Number(outline.height) + fontsize*.5*scaleForWidth );
		ToolTipShadow.setAttribute("x", 3*scaleForWidth);
		ToolTipShadow.setAttribute("y", 3*scaleForWidth);
	}
}
function ShowPaper()
{
  var svgDocument = getDocument();
  var paper = svgDocument.getElementById("paperID");
  if(paper)
  {
    paper.setAttribute("transform","scale(1)");
    paper.setAttribute("opacity","1");
    paper.setAttribute("visibility","visible");
  }
  var svg = svgDocument.getRootElement();
  if(svg)
  {
    svg.setAttribute("width","307.000mm");
    svg.setAttribute("height","220.000mm");
    svg.setAttribute("viewBox","-5.000000 -5.000000 307.000000 220.000000");
  }
}
]]></script><defs/><g><path style="fill:#ffffff" d="M239.07,209.91L160.11,209.91L160.05,142.30L159.94,209.91L0.05,209.89L0.05,0.05L239.07,0.03z"/><path style="fill:#000020" d="M239.24,209.91L239.07,209.91L239.07,0.03L239.24,0.03z"/><path style="fill:#97fa98" d="M137.15,54.94L142.73,58.12L147.27,60.82L156.52,66.07L156.96,66.07L160.50,64.01L160.89,64.01L170.82,69.76L170.99,74.47L182.94,81.38L194.74,101.90L194.74,140.53L194.40,141.37L193.65,142.31L180.21,150.07L178.39,150.07L177.07,149.54L131.02,122.91L130.80,122.77L110.73,111.16L109.54,109.83L108.52,107.82L108.38,106.91L108.38,71.88L108.70,70.48L109.30,69.57L119.09,63.87L134.90,54.76L136.65,54.77z"/><path style="fill:#97fa98" d="M104.90,118.15L105.84,118.41L108.36,119.76L110.55,121.27L111.75,122.60L112.76,124.12L113.92,126.49L114.18,127.62L114.28,128.11L114.36,128.46L114.44,129.64L114.44,131.82L114.26,133.79L113.75,135.13L112.76,136.33L99.97,143.74L83.50,153.21L83.20,153.11L83.30,153.55L83.37,154.04L83.47,154.72L83.55,155.39L83.64,157.08L83.55,158.94L83.47,159.61L83.37,160.10L82.95,162.08L82.05,163.87L80.85,165.37L79.40,166.44L77.17,167.58L75.77,167.89L73.23,167.89L71.89,167.72L70.88,167.55L68.29,166.90L65.77,165.89L63.60,164.69L61.24,163.02L58.71,160.66L56.70,157.96L54.82,154.45L53.98,151.92L53.83,151.36L53.82,150.90L53.74,150.85L53.51,149.67L53.48,149.23L53.40,149.17L53.33,148.50L53.31,147.54L53.24,147.48L53.33,143.27L53.60,141.48L54.32,138.83L55.67,135.64L57.03,133.80L58.15,132.90L60.50,131.55L61.62,131.28L62.63,131.11L63.98,131.11L65.10,131.21L67.45,131.88L70.31,133.40L72.67,135.10L73.11,135.08L102.24,118.24L102.70,118.15L104.21,118.05z"/><path style="fill:#ffffff" d="M272.57,209.91L239.24,209.91L239.24,0.03L272.57,0.03z"/><path style="fill:#000020" d="M131.02,122.91L130.54,122.97L130.80,122.77z"/><path style="fill:#000020" d="M114.28,128.11L114.18,127.62L114.26,127.68z"/><path style="fill:#000020" d="M114.44,129.64L114.36,128.46L114.42,128.52z"/><path style="fill:#000020" d="M53.33,148.50L53.24,147.48L53.31,147.54z"/><path style="fill:#000020" d="M53.51,149.67L53.40,149.17L53.48,149.23z"/><path style="fill:#000020" d="M53.83,151.36L53.74,150.85L53.82,150.90z"/><path style="fill:#000020" d="M83.50,153.21L83.30,153.55L83.20,153.11z"/><path style="fill:#000020" d="M83.47,154.72L83.37,154.04L83.45,154.10z"/><path style="fill:#000020" d="M83.64,157.08L83.55,155.39L83.61,155.45z"/><path style="fill:#000020" d="M272.74,209.91L272.57,209.91L272.57,0.03L272.74,0.03z"/><path style="fill:#000020" d="M160.11,209.91L159.94,209.91L160.05,142.30z"/><path style="fill:#ffffff" d="M296.93,209.89L272.74,209.91L272.74,0.03L296.93,0.05z"/><g id="Actor_.0"><g style="stroke:#000000;stroke-width:0.353"><path d="M127.29,120.73 L127.29,123.07 "/><path d="M126.79,120.43 L126.79,122.95 "/><path d="M126.79,-0.00 L126.79,59.51 "/><path d="M127.29,59.22 L127.29,-0.00 "/><path d="M154.29,64.89 L154.29,0.00 "/><path d="M156.75,-0.00 L156.75,66.31 "/><path d="M159.69,64.61 L159.69,0.00 "/><path d="M160.20,64.31 L160.20,-0.00 "/><path d="M165.34,66.73 L165.34,-0.00 "/><path d="M167.79,68.15 L167.79,-0.00 "/><path d="M171.48,74.81 L171.48,-0.00 "/><path d="M170.97,0.00 L170.97,74.52 "/><path d="M198.48,210.00 L198.48,-0.00 "/><path d="M200.93,-0.00 L200.93,210.00 "/><path d="M227.93,-0.00 L227.93,210.00 "/><path d="M228.44,0.00 L228.44,210.00 "/><path d="M231.61,-0.00 L231.61,210.00 "/><path d="M234.07,210.00 L234.07,-0.00 "/><path d="M239.71,210.00 L239.71,0.00 "/><path d="M239.21,210.00 L239.21,-0.00 "/><path d="M242.66,210.00 L242.66,-0.00 "/><path d="M245.11,210.00 L245.11,-0.00 "/><path d="M272.12,210.00 L272.12,-0.00 "/><path d="M272.62,210.00 L272.62,-0.00 "/></g></g><g id="Actor_.1"><g style="stroke:#000000;stroke-width:0.353"><path d="M74.14,167.95 C74.23,167.96 74.23,167.96 74.31,167.97 C74.85,167.96 74.85,167.96 75.39,167.94 C75.91,167.87 75.91,167.87 76.42,167.78 C76.91,167.64 76.91,167.64 77.39,167.48 C77.84,167.27 77.84,167.27 78.29,167.05 C78.90,166.70 78.90,166.70 79.50,166.35 C79.91,166.07 79.92,166.07 80.32,165.79 C80.70,165.45 80.70,165.45 81.07,165.10 C81.40,164.70 81.40,164.69 81.73,164.29 C82.01,163.83 82.01,163.83 82.29,163.36 C82.53,162.85 82.53,162.85 82.76,162.33 C82.95,161.76 82.95,161.76 83.12,161.20 C83.26,160.59 83.26,160.59 83.39,159.97 C83.47,159.32 83.47,159.32 83.55,158.67 C83.58,157.98 83.58,157.98 83.60,157.29 C83.58,156.57 83.58,156.57 83.55,155.85 C83.47,155.11 83.47,155.11 83.39,154.36 C83.26,153.60 83.26,153.60 83.12,152.83 C82.95,152.05 82.95,152.05 82.76,151.28 C82.53,150.49 82.53,150.49 82.29,149.71 C82.01,148.92 82.01,148.92 81.73,148.13 C81.40,147.34 81.40,147.34 81.07,146.56 C80.70,145.79 80.70,145.79 80.33,145.02 C79.92,144.26 79.92,144.26 79.50,143.50 C79.06,142.76 79.06,142.76 78.60,142.03 C78.12,141.32 78.12,141.32 77.63,140.61 C77.12,139.93 77.12,139.93 76.61,139.26 C76.07,138.62 76.07,138.62 75.52,137.98 C74.96,137.39 74.96,137.39 74.40,136.79 C73.82,136.24 73.82,136.24 73.23,135.70 C72.64,135.20 72.64,135.20 72.04,134.70 C71.44,134.26 71.44,134.26 70.83,133.82 C70.22,133.43 70.22,133.43 69.61,133.06 C69.00,132.73 69.00,132.73 68.39,132.41 C67.79,132.15 67.79,132.15 67.18,131.90 C66.59,131.70 66.59,131.70 65.99,131.52 C65.41,131.39 65.41,131.39 64.83,131.27 C64.26,131.21 64.26,131.20 63.70,131.16 C63.16,131.16 63.15,131.16 62.61,131.18 C62.10,131.26 62.10,131.26 61.59,131.34 C61.10,131.49 61.10,131.49 60.62,131.64 C60.16,131.85 60.16,131.86 59.72,132.08 C59.11,132.42 59.11,132.42 58.50,132.78 C58.09,133.05 58.09,133.06 57.68,133.34 C57.52,133.48 57.52,133.49 57.36,133.64 C57.15,133.83 57.14,133.83 56.93,134.03 C56.60,134.43 56.60,134.43 56.28,134.84 C55.99,135.30 55.99,135.30 55.71,135.77 C55.60,135.99 55.60,135.99 55.49,136.21 C55.11,137.07 55.10,137.07 54.73,137.93 C54.58,138.36 54.58,138.36 54.43,138.78 C54.29,139.23 54.29,139.23 54.15,139.67 C54.02,140.08 54.02,140.08 53.90,140.50 C53.72,141.34 53.72,141.34 53.54,142.19 C53.45,142.78 53.45,142.78 53.37,143.37 C53.30,144.18 53.30,144.18 53.24,144.99 C53.22,145.58 53.22,145.58 53.21,146.16 C53.25,146.92 53.25,146.92 53.29,147.67 C53.34,148.25 53.34,148.25 53.39,148.82 C53.48,149.38 53.49,149.38 53.58,149.95 C53.73,150.63 53.73,150.63 53.87,151.30 C54.02,151.84 54.02,151.84 54.17,152.39 C54.41,153.10 54.41,153.10 54.66,153.81 "/><path d="M54.17,150.39 C54.15,150.02 54.16,150.02 54.15,149.64 C54.16,149.27 54.16,149.27 54.17,148.91 C54.21,148.57 54.21,148.57 54.26,148.22 C54.32,147.90 54.32,147.90 54.40,147.58 C54.49,147.28 54.49,147.28 54.59,146.99 C54.71,146.71 54.71,146.71 54.84,146.44 C54.98,146.20 54.98,146.20 55.13,145.95 C55.30,145.74 55.30,145.74 55.48,145.53 C55.67,145.34 55.67,145.34 55.87,145.17 C56.08,145.01 56.08,145.01 56.30,144.87 C56.54,144.75 56.54,144.75 56.78,144.64 C57.03,144.56 57.03,144.56 57.29,144.48 C57.56,144.44 57.56,144.44 57.83,144.40 C58.11,144.39 58.11,144.39 58.40,144.39 C58.69,144.41 58.70,144.41 58.99,144.44 C59.30,144.51 59.30,144.51 59.60,144.57 C59.92,144.67 59.92,144.67 60.23,144.78 C60.55,144.91 60.55,144.91 60.87,145.05 C61.19,145.21 61.19,145.21 61.51,145.39 C61.76,145.54 61.76,145.54 62.00,145.69 C62.08,145.74 62.08,145.74 62.15,145.79 C62.47,146.02 62.47,146.02 62.79,146.25 C63.10,146.51 63.10,146.51 63.42,146.78 C63.72,147.06 63.72,147.06 64.03,147.35 C64.33,147.66 64.33,147.66 64.62,147.98 C64.92,148.33 64.92,148.33 65.22,148.69 C65.48,149.02 65.48,149.02 65.73,149.36 C65.99,149.73 65.99,149.73 66.24,150.11 C66.48,150.49 66.48,150.49 66.72,150.88 C66.94,151.28 66.94,151.28 67.15,151.68 C67.35,152.09 67.35,152.09 67.54,152.49 C67.72,152.91 67.72,152.91 67.89,153.32 C68.04,153.73 68.04,153.73 68.18,154.15 C68.31,154.56 68.31,154.56 68.43,154.98 C68.53,155.38 68.53,155.39 68.62,155.79 C68.70,156.20 68.70,156.20 68.76,156.60 C68.81,156.99 68.81,156.99 68.85,157.38 C68.86,157.76 68.86,157.76 68.87,158.14 C68.86,158.50 68.86,158.50 68.85,158.86 C68.81,159.21 68.81,159.21 68.76,159.55 C68.70,159.87 68.70,159.87 68.62,160.20 C68.53,160.49 68.53,160.49 68.43,160.79 C68.33,161.01 68.33,161.01 68.23,161.23 C68.21,161.28 68.21,161.29 68.18,161.33 C68.04,161.58 68.04,161.58 67.89,161.82 C67.72,162.04 67.72,162.04 67.54,162.25 C67.35,162.43 67.35,162.43 67.15,162.61 C66.94,162.76 66.94,162.76 66.72,162.91 C66.48,163.02 66.48,163.02 66.24,163.13 C65.99,163.22 65.99,163.22 65.73,163.29 C65.46,163.34 65.46,163.34 65.19,163.38 C64.91,163.39 64.91,163.39 64.62,163.39 C64.33,163.37 64.33,163.37 64.03,163.33 C63.72,163.27 63.72,163.27 63.42,163.20 C63.10,163.10 63.10,163.10 62.79,163.00 C62.47,162.87 62.47,162.87 62.15,162.73 C61.83,162.56 61.83,162.56 61.51,162.39 C61.19,162.19 61.19,162.19 60.87,161.99 C60.55,161.76 60.55,161.76 60.23,161.52 C59.92,161.26 59.92,161.26 59.60,161.00 C59.30,160.72 59.30,160.71 58.99,160.43 C58.69,160.11 58.69,160.11 58.40,159.80 C58.11,159.46 58.11,159.46 57.83,159.13 C57.69,158.94 57.69,158.94 57.55,158.76 C57.42,158.59 57.42,158.59 57.29,158.42 C57.03,158.04 57.03,158.04 56.78,157.67 C56.54,157.28 56.54,157.28 56.30,156.89 C56.08,156.50 56.08,156.50 55.87,156.10 C55.67,155.69 55.67,155.69 55.48,155.28 C55.30,154.87 55.30,154.87 55.13,154.46 C54.98,154.04 54.98,154.04 54.84,153.63 C54.71,153.22 54.71,153.22 54.59,152.80 C54.49,152.39 54.49,152.39 54.40,151.98 C54.33,151.58 54.32,151.58 54.26,151.18 C54.21,150.79 54.20,150.79 54.17,150.39 "/><path d="M54.66,153.82 C54.91,154.40 54.91,154.40 55.15,154.97 C55.47,155.64 55.47,155.64 55.80,156.31 C56.16,156.95 56.15,156.95 56.52,157.59 C57.04,158.35 57.04,158.36 57.57,159.12 C58.02,159.69 58.02,159.69 58.47,160.25 C59.09,160.93 59.09,160.93 59.71,161.59 C60.38,162.21 60.38,162.21 61.05,162.81 C61.48,163.16 61.48,163.16 61.91,163.50 C62.06,163.60 62.06,163.60 62.21,163.70 "/><path d="M61.51,147.34 C61.37,147.28 61.37,147.28 61.22,147.22 C61.06,147.17 61.05,147.17 60.89,147.14 C60.69,147.12 60.69,147.12 60.50,147.10 C60.28,147.10 60.28,147.10 60.06,147.11 C59.94,147.11 59.94,147.11 59.82,147.12 C59.54,147.16 59.54,147.15 59.27,147.19 C58.78,147.28 58.78,147.28 58.30,147.37 C57.91,147.45 57.91,147.46 57.52,147.55 C57.06,147.66 57.06,147.66 56.60,147.78 "/><path d="M56.60,147.78 C56.76,148.09 56.76,148.09 56.91,148.40 C56.98,148.56 56.98,148.56 57.04,148.71 C57.09,148.86 57.09,148.86 57.14,149.02 C57.18,149.17 57.18,149.17 57.22,149.33 C57.25,149.48 57.25,149.48 57.28,149.64 C57.30,149.80 57.30,149.80 57.33,149.96 C57.34,150.12 57.34,150.12 57.35,150.28 C57.36,150.45 57.36,150.45 57.36,150.61 C57.36,150.79 57.36,150.79 57.35,150.96 C57.34,151.14 57.34,151.14 57.33,151.31 C57.30,151.50 57.30,151.50 57.28,151.68 C57.21,152.08 57.21,152.08 57.14,152.47 C57.03,152.91 57.03,152.91 56.91,153.34 C56.76,153.84 56.76,153.84 56.60,154.33 "/><path d="M56.60,154.33 C57.06,154.61 57.06,154.61 57.52,154.89 C57.72,155.03 57.72,155.04 57.92,155.18 C58.11,155.32 58.11,155.32 58.30,155.46 C58.47,155.60 58.47,155.60 58.65,155.75 C58.81,155.89 58.81,155.89 58.97,156.04 C59.12,156.18 59.12,156.18 59.27,156.33 C59.41,156.48 59.41,156.48 59.55,156.63 C59.69,156.79 59.69,156.79 59.82,156.94 C59.94,157.10 59.94,157.10 60.06,157.26 C60.17,157.43 60.17,157.43 60.29,157.59 C60.40,157.77 60.40,157.77 60.50,157.94 C60.60,158.12 60.60,158.12 60.70,158.30 C60.79,158.49 60.79,158.49 60.89,158.68 C60.97,158.88 60.97,158.88 61.06,159.08 C61.14,159.29 61.14,159.29 61.22,159.50 C61.37,159.97 61.37,159.97 61.51,160.43 "/><path d="M61.51,160.43 C61.97,160.32 61.97,160.32 62.43,160.20 C62.82,160.11 62.82,160.11 63.21,160.02 C63.55,159.95 63.55,159.95 63.88,159.89 C64.17,159.85 64.17,159.85 64.46,159.80 C64.59,159.79 64.59,159.79 64.72,159.78 C64.85,159.77 64.85,159.77 64.97,159.76 C65.19,159.75 65.19,159.75 65.41,159.75 C65.60,159.77 65.60,159.77 65.80,159.79 C65.96,159.83 65.96,159.83 66.13,159.87 C66.28,159.93 66.28,159.93 66.42,160.00 "/><path d="M66.42,160.00 C66.30,160.17 66.29,160.16 66.15,160.32 C66.01,160.47 66.01,160.47 65.85,160.60 C65.69,160.72 65.69,160.72 65.52,160.83 C65.37,160.91 65.37,160.90 65.22,160.97 C65.19,160.99 65.19,160.99 65.15,161.01 C64.96,161.07 64.96,161.07 64.76,161.13 C64.55,161.16 64.55,161.16 64.34,161.19 C64.13,161.20 64.12,161.20 63.91,161.20 C63.68,161.18 63.68,161.18 63.45,161.16 C63.21,161.11 63.21,161.11 62.98,161.06 C62.74,160.98 62.74,160.98 62.49,160.90 C62.25,160.80 62.25,160.80 62.00,160.69 C61.76,160.57 61.76,160.57 61.51,160.43 C61.26,160.28 61.26,160.28 61.02,160.12 C60.77,159.95 60.77,159.95 60.53,159.77 C60.28,159.57 60.28,159.57 60.04,159.36 C59.81,159.14 59.81,159.14 59.57,158.92 C59.34,158.68 59.34,158.68 59.11,158.44 C58.89,158.18 58.89,158.18 58.68,157.92 C58.47,157.65 58.47,157.65 58.26,157.37 C58.06,157.09 58.06,157.09 57.87,156.80 C57.68,156.50 57.68,156.50 57.50,156.20 C57.33,155.90 57.33,155.90 57.17,155.59 C57.02,155.28 57.02,155.28 56.87,154.96 C56.73,154.64 56.73,154.64 56.60,154.33 C56.49,154.03 56.49,154.03 56.39,153.73 C56.28,153.39 56.28,153.39 56.18,153.05 C56.11,152.74 56.11,152.74 56.03,152.42 C55.98,152.11 55.98,152.11 55.93,151.80 C55.89,151.50 55.89,151.50 55.86,151.20 C55.85,150.91 55.85,150.91 55.84,150.62 C55.85,150.34 55.85,150.34 55.86,150.06 C55.89,149.79 55.89,149.79 55.93,149.53 C55.98,149.28 55.98,149.28 56.03,149.03 C56.11,148.80 56.11,148.80 56.19,148.56 C56.28,148.36 56.28,148.36 56.37,148.16 C56.48,147.97 56.48,147.97 56.60,147.78 C56.73,147.62 56.73,147.62 56.87,147.45 C57.01,147.31 57.02,147.31 57.17,147.17 C57.33,147.06 57.33,147.06 57.50,146.95 C57.68,146.86 57.68,146.85 57.87,146.77 C58.06,146.71 58.06,146.71 58.26,146.65 C58.47,146.61 58.47,146.61 58.68,146.58 C58.89,146.58 58.90,146.58 59.11,146.57 C59.34,146.59 59.34,146.59 59.57,146.62 C59.81,146.67 59.81,146.67 60.04,146.72 C60.28,146.79 60.29,146.79 60.53,146.87 C60.77,146.98 60.77,146.98 61.02,147.08 C61.26,147.21 61.26,147.21 61.51,147.34 C61.76,147.50 61.76,147.50 62.00,147.65 C62.25,147.83 62.25,147.83 62.50,148.01 C62.74,148.21 62.74,148.21 62.98,148.41 C63.22,148.63 63.22,148.63 63.45,148.86 C63.68,149.10 63.68,149.10 63.91,149.34 C64.13,149.60 64.13,149.60 64.34,149.86 C64.55,150.13 64.55,150.13 64.76,150.40 C64.96,150.69 64.96,150.69 65.15,150.98 C65.34,151.27 65.34,151.27 65.52,151.57 C65.69,151.88 65.69,151.88 65.85,152.19 C66.00,152.50 66.00,152.50 66.15,152.82 C66.29,153.13 66.29,153.13 66.42,153.45 C66.54,153.77 66.54,153.77 66.65,154.09 C66.74,154.41 66.74,154.41 66.84,154.73 C66.91,155.04 66.91,155.04 66.99,155.36 C67.04,155.66 67.04,155.66 67.09,155.97 C67.13,156.28 67.13,156.28 67.16,156.58 C67.17,156.87 67.17,156.87 67.18,157.16 C67.17,157.44 67.17,157.44 67.16,157.72 C67.13,157.98 67.13,157.98 67.09,158.25 C67.04,158.50 67.04,158.50 66.99,158.74 C66.91,158.97 66.91,158.97 66.84,159.20 C66.74,159.41 66.74,159.41 66.65,159.62 C66.54,159.81 66.54,159.82 66.42,160.00 "/><path d="M66.42,160.00 C66.58,159.50 66.58,159.50 66.73,159.01 C66.85,158.58 66.85,158.58 66.96,158.14 C67.03,157.75 67.03,157.75 67.10,157.35 C67.13,157.04 67.13,157.04 67.16,156.73 "/><path d="M58.50,132.78 C58.95,132.56 58.95,132.55 59.40,132.34 C59.80,132.21 59.80,132.22 60.20,132.10 C60.29,132.07 60.29,132.07 60.37,132.05 C60.88,131.96 60.88,131.96 61.40,131.88 C61.94,131.86 61.94,131.86 62.48,131.86 C63.05,131.91 63.05,131.91 63.61,131.97 C64.19,132.09 64.19,132.09 64.78,132.22 C65.37,132.40 65.37,132.40 65.97,132.60 C66.57,132.85 66.57,132.85 67.18,133.12 C67.79,133.43 67.79,133.43 68.40,133.76 C69.01,134.14 69.01,134.14 69.62,134.52 C70.22,134.96 70.22,134.96 70.83,135.41 C71.42,135.90 71.43,135.90 72.02,136.40 C72.64,136.98 72.64,136.98 73.25,137.56 C73.78,138.12 73.78,138.12 74.31,138.69 C74.85,139.32 74.85,139.32 75.39,139.96 C75.91,140.63 75.91,140.63 76.42,141.31 C76.91,142.02 76.91,142.02 77.39,142.73 C77.84,143.46 77.84,143.46 78.29,144.20 C78.71,144.96 78.71,144.96 79.11,145.72 C79.49,146.49 79.49,146.49 79.86,147.26 C80.19,148.05 80.19,148.05 80.51,148.83 C80.80,149.62 80.80,149.62 81.08,150.41 C81.28,151.06 81.27,151.06 81.47,151.72 C81.51,151.85 81.51,151.85 81.54,151.98 C81.73,152.76 81.73,152.76 81.91,153.53 C82.05,154.30 82.05,154.30 82.17,155.06 C82.26,155.81 82.26,155.81 82.33,156.55 C82.37,157.27 82.37,157.27 82.39,157.99 C82.37,158.68 82.37,158.68 82.33,159.37 C82.26,160.02 82.26,160.02 82.17,160.67 C82.05,161.29 82.05,161.29 81.91,161.90 C81.73,162.47 81.73,162.47 81.54,163.03 C81.31,163.55 81.31,163.55 81.07,164.07 C80.80,164.53 80.80,164.53 80.51,164.99 C80.39,165.14 80.39,165.14 80.27,165.29 C80.06,165.54 80.07,165.54 79.86,165.80 C79.49,166.14 79.49,166.15 79.11,166.49 C78.71,166.77 78.70,166.77 78.29,167.05 "/><path d="M66.70,166.27 C67.21,166.47 67.21,166.47 67.73,166.67 C68.46,166.91 68.46,166.91 69.19,167.14 C69.92,167.32 69.92,167.32 70.66,167.49 "/><path d="M70.70,167.50 C71.26,167.61 71.26,167.61 71.81,167.71 C72.24,167.77 72.24,167.78 72.67,167.84 C73.46,167.90 73.46,167.90 74.25,167.96 "/><path d="M72.81,135.34 C87.32,126.96 87.32,126.96 101.84,118.58 C102.07,118.46 102.07,118.46 102.31,118.35 C102.56,118.27 102.56,118.27 102.82,118.20 C103.09,118.15 103.09,118.15 103.36,118.11 C103.65,118.10 103.65,118.10 103.93,118.10 C104.23,118.12 104.23,118.12 104.52,118.16 C104.83,118.22 104.83,118.22 105.14,118.29 C105.45,118.38 105.45,118.38 105.76,118.49 C106.08,118.62 106.08,118.62 106.40,118.76 C106.72,118.93 106.72,118.93 107.04,119.10 C107.37,119.30 107.37,119.30 107.68,119.50 C108.00,119.73 108.00,119.73 108.32,119.96 C108.64,120.22 108.64,120.22 108.95,120.49 C109.26,120.77 109.26,120.77 109.56,121.06 C109.86,121.38 109.86,121.38 110.15,121.69 C110.44,122.02 110.44,122.02 110.72,122.36 C111.00,122.72 111.00,122.72 111.27,123.07 C111.52,123.44 111.52,123.45 111.78,123.82 C112.02,124.21 112.02,124.21 112.25,124.59 C112.47,124.99 112.47,124.99 112.68,125.39 C112.88,125.80 112.88,125.80 113.07,126.21 C113.25,126.62 113.25,126.62 113.42,127.03 C113.57,127.44 113.57,127.44 113.72,127.86 C113.84,128.27 113.84,128.27 113.96,128.69 C114.06,129.10 114.06,129.10 114.16,129.51 C114.23,129.91 114.23,129.91 114.29,130.31 C114.34,130.70 114.34,130.70 114.38,131.09 C114.40,131.47 114.40,131.47 114.41,131.85 C114.40,132.21 114.40,132.21 114.38,132.58 C114.34,132.92 114.34,132.92 114.29,133.26 C114.23,133.59 114.23,133.59 114.16,133.91 C114.06,134.21 114.06,134.21 113.96,134.50 C113.84,134.78 113.84,134.78 113.72,135.05 C113.57,135.29 113.57,135.29 113.42,135.53 C113.25,135.75 113.25,135.75 113.07,135.96 C112.88,136.14 112.88,136.14 112.68,136.32 C112.47,136.47 112.47,136.47 112.25,136.62 "/><path d="M107.04,119.10 C107.96,119.63 107.96,119.63 108.88,120.16 C109.13,120.31 109.13,120.31 109.37,120.46 C109.61,120.64 109.61,120.64 109.84,120.81 C110.08,121.00 110.08,121.01 110.31,121.20 C110.54,121.42 110.54,121.42 110.77,121.64 C111.00,121.87 111.00,121.87 111.22,122.10 C111.43,122.36 111.43,122.36 111.65,122.61 C111.85,122.87 111.85,122.87 112.05,123.14 C112.24,123.42 112.24,123.42 112.43,123.70 C112.61,123.99 112.61,123.99 112.79,124.28 C112.95,124.58 112.95,124.58 113.11,124.88 C113.26,125.19 113.26,125.19 113.41,125.49 C113.54,125.80 113.54,125.80 113.67,126.11 C113.78,126.42 113.78,126.42 113.89,126.73 C113.98,127.04 113.98,127.04 114.07,127.35 C114.15,127.66 114.15,127.66 114.22,127.97 C114.27,128.27 114.27,128.27 114.32,128.57 C114.36,128.86 114.36,128.86 114.39,129.16 C114.40,129.44 114.40,129.44 114.41,129.73 C114.41,130.79 114.41,131.03 114.41,131.85 "/><path d="M62.21,163.70 L62.02,163.58 "/><path d="M67.13,157.10 L62.27,151.05 L56.60,154.33 "/><path d="M61.51,160.43 L67.12,157.20 "/><path d="M62.21,163.70 L63.63,164.67 "/><path d="M62.67,164.02 L62.98,164.23 "/><path d="M63.21,164.39 L63.75,164.75 L64.80,165.35 "/><path d="M62.27,151.05 L62.27,147.85 "/><path d="M64.71,165.31 L65.35,165.62 "/><path d="M65.89,165.88 L66.22,166.04 L65.22,165.55 "/><path d="M65.76,163.28 L65.73,163.29 "/><path d="M66.51,166.17 L66.70,166.27 L66.22,166.04 "/><path d="M66.68,163.00 L66.71,162.99 L66.24,163.13 "/><path d="M74.25,167.96 L74.18,167.96 "/><path d="M112.25,136.62 L83.22,153.38 "/><path d="M77.37,166.49 L78.66,166.17 L79.86,165.80 "/></g></g><g id="Actor_.2"><g style="stroke:#000000;stroke-width:0.353"><path d="M125.61,122.55 C125.80,122.63 125.80,122.63 126.00,122.71 C126.21,122.78 126.21,122.78 126.41,122.85 C126.63,122.91 126.63,122.91 126.85,122.97 C127.07,123.02 127.07,123.02 127.30,123.07 C127.53,123.11 127.53,123.11 127.76,123.14 C128.00,123.17 128.00,123.17 128.24,123.19 C128.48,123.21 128.48,123.21 128.72,123.22 C128.96,123.22 128.96,123.22 129.20,123.22 C129.44,123.21 129.44,123.21 129.68,123.20 C129.92,123.18 129.92,123.18 130.15,123.16 C130.39,123.12 130.39,123.12 130.62,123.09 C130.90,123.03 130.90,123.03 131.18,122.97 "/><path d="M129.36,160.14 C129.48,160.72 129.49,160.72 129.63,161.29 C129.80,161.87 129.80,161.87 129.98,162.46 C130.18,163.03 130.18,163.03 130.39,163.61 C130.63,164.19 130.63,164.19 130.88,164.76 C131.15,165.34 131.15,165.34 131.42,165.92 C131.72,166.47 131.72,166.47 132.03,167.03 C132.36,167.57 132.36,167.57 132.69,168.12 C133.05,168.64 133.05,168.64 133.41,169.16 C133.78,169.65 133.78,169.65 134.17,170.15 C134.56,170.62 134.56,170.62 134.96,171.08 C135.38,171.52 135.38,171.52 135.79,171.96 C136.22,172.37 136.22,172.37 136.65,172.78 C137.09,173.14 137.09,173.14 137.53,173.50 C137.97,173.83 137.97,173.83 138.42,174.16 C138.87,174.45 138.87,174.44 139.32,174.72 C139.77,174.96 139.77,174.97 140.22,175.20 C140.66,175.39 140.66,175.38 141.11,175.56 C141.55,175.72 141.55,175.72 141.99,175.86 C142.42,175.95 142.42,175.95 142.85,176.03 C143.26,176.08 143.26,176.08 143.68,176.11 C144.08,176.11 144.08,176.11 144.48,176.10 C144.85,176.05 144.86,176.05 145.23,175.98 C145.59,175.88 145.59,175.88 145.95,175.77 C146.28,175.61 146.28,175.61 146.61,175.45 C146.92,175.25 146.92,175.25 147.22,175.04 C147.49,174.78 147.49,174.78 147.76,174.51 C148.01,174.22 148.01,174.22 148.25,173.92 C148.46,173.58 148.46,173.58 148.66,173.25 C148.84,172.86 148.84,172.86 149.01,172.47 C149.12,172.15 149.11,172.15 149.22,171.82 C149.25,171.73 149.25,171.73 149.28,171.64 C149.38,171.19 149.38,171.19 149.47,170.74 C149.54,170.26 149.54,170.26 149.59,169.78 C149.61,169.27 149.61,169.27 149.63,168.76 C149.61,168.23 149.61,168.23 149.59,167.71 C149.54,167.16 149.54,167.16 149.47,166.61 C149.38,166.05 149.38,166.05 149.28,165.49 C149.15,164.91 149.15,164.91 149.01,164.33 C148.84,163.75 148.84,163.75 148.66,163.18 C148.46,162.60 148.46,162.60 148.25,162.03 C148.01,161.45 148.01,161.45 147.76,160.87 C147.49,160.29 147.49,160.29 147.22,159.72 C146.92,159.16 146.92,159.16 146.61,158.61 C146.28,158.06 146.28,158.06 145.95,157.52 C145.59,157.00 145.59,157.00 145.23,156.48 C144.86,155.98 144.86,155.98 144.48,155.49 C144.08,155.01 144.08,155.01 143.68,154.53 C143.26,154.10 143.26,154.10 142.85,153.67 C142.42,153.26 142.42,153.26 141.99,152.85 C141.55,152.48 141.55,152.48 141.11,152.12 C140.67,151.79 140.67,151.79 140.22,151.47 C139.77,151.19 139.77,151.19 139.32,150.91 C138.87,150.67 138.87,150.67 138.42,150.43 C137.98,150.24 137.98,150.24 137.53,150.05 C137.09,149.91 137.09,149.91 136.65,149.77 C136.22,149.68 136.22,149.68 135.79,149.60 C135.38,149.55 135.38,149.55 134.96,149.50 C134.56,149.51 134.56,149.52 134.17,149.54 C133.79,149.59 133.78,149.59 133.41,149.65 C133.05,149.75 133.05,149.75 132.69,149.87 C132.36,150.02 132.36,150.02 132.03,150.19 C131.72,150.39 131.72,150.39 131.42,150.60 C131.15,150.85 131.15,150.86 130.88,151.12 C130.65,151.39 130.65,151.39 130.44,151.66 C130.20,152.02 130.20,152.02 129.98,152.39 C129.80,152.76 129.80,152.76 129.63,153.14 C129.49,153.57 129.49,153.57 129.36,153.99 C129.26,154.44 129.26,154.44 129.17,154.89 C129.10,155.37 129.10,155.37 129.05,155.85 C129.03,156.35 129.03,156.35 129.01,156.86 C129.03,157.39 129.03,157.39 129.05,157.92 C129.11,158.47 129.11,158.47 129.17,159.02 C129.26,159.58 129.25,159.59 129.36,160.14 "/><path d="M149.57,167.54 C149.20,167.26 149.20,167.26 148.82,166.98 C148.38,166.62 148.38,166.62 147.94,166.26 C147.51,165.86 147.51,165.85 147.09,165.44 C146.67,165.01 146.67,165.00 146.25,164.56 C145.85,164.10 145.85,164.10 145.46,163.63 C145.07,163.13 145.07,163.13 144.70,162.64 C144.34,162.12 144.34,162.12 143.98,161.60 C143.65,161.06 143.65,161.06 143.32,160.51 C143.02,159.96 143.01,159.96 142.71,159.40 C142.44,158.82 142.44,158.82 142.17,158.24 C141.92,157.67 141.92,157.67 141.68,157.09 C141.47,156.52 141.47,156.51 141.27,155.94 C141.09,155.35 141.09,155.35 140.92,154.77 C140.79,154.20 140.79,154.20 140.65,153.62 C140.55,153.06 140.55,153.06 140.46,152.50 C140.41,152.04 140.41,152.04 140.36,151.57 "/><path d="M147.44,160.19 C147.34,160.05 147.34,160.05 147.23,159.91 C147.03,159.62 147.03,159.62 146.82,159.32 C146.63,159.01 146.63,159.01 146.45,158.70 C146.27,158.38 146.27,158.38 146.10,158.06 C145.94,157.73 145.94,157.73 145.79,157.40 C145.72,157.25 145.72,157.25 145.65,157.09 "/><path d="M159.25,139.17 C159.14,139.33 159.14,139.33 159.04,139.50 C158.98,139.63 158.98,139.63 158.92,139.76 C158.88,139.90 158.88,139.90 158.84,140.04 C158.82,140.18 158.82,140.18 158.81,140.32 C158.81,140.45 158.81,140.46 158.81,140.59 C158.83,140.73 158.83,140.73 158.86,140.87 C158.90,141.01 158.90,141.01 158.94,141.14 C159.01,141.28 159.01,141.28 159.07,141.41 C159.16,141.54 159.16,141.54 159.24,141.67 C159.34,141.80 159.34,141.80 159.45,141.92 C159.57,142.05 159.57,142.05 159.69,142.16 C159.83,142.28 159.83,142.28 159.97,142.39 "/><path d="M123.12,210.00 L123.12,123.99 L125.61,122.55 "/><path d="M123.12,125.12 L155.52,143.83 L155.52,210.00 "/><path d="M125.61,122.58 L125.61,122.55 "/><path d="M155.52,143.83 L157.48,143.83 L159.97,142.39 L159.97,210.00 "/><path d="M157.48,143.83 L157.48,210.00 "/><path d="M159.40,141.87 L159.40,139.26 "/><path d="M161.85,210.00 L161.85,140.68 "/><path d="M167.76,144.09 L167.76,210.00 "/><path d="M179.08,210.00 L179.08,150.15 "/></g></g><g id="Actor_.3"><g style="stroke:#000000;stroke-width:0.353"><path d="M108.86,108.52 C108.97,108.76 108.97,108.76 109.08,109.00 C109.17,109.16 109.17,109.16 109.26,109.32 C109.35,109.47 109.35,109.47 109.45,109.63 C109.65,109.92 109.65,109.92 109.87,110.21 C110.00,110.37 110.00,110.37 110.14,110.53 C110.36,110.74 110.36,110.75 110.58,110.96 C110.83,111.16 110.83,111.16 111.08,111.35 C111.21,111.44 111.21,111.44 111.34,111.52 "/><path d="M111.34,111.52 C143.25,129.94 143.25,129.94 175.16,148.36 C175.29,148.43 175.29,148.43 175.41,148.50 C175.67,148.59 175.67,148.59 175.92,148.69 C176.04,148.71 176.04,148.71 176.17,148.74 C176.29,148.75 176.29,148.75 176.41,148.76 C176.52,148.76 176.52,148.76 176.63,148.76 C176.74,148.74 176.74,148.74 176.85,148.72 C176.95,148.69 176.95,148.69 177.05,148.66 C177.15,148.62 177.15,148.61 177.24,148.57 C177.33,148.51 177.33,148.51 177.41,148.45 C177.49,148.38 177.49,148.38 177.57,148.30 C177.64,148.22 177.64,148.22 177.71,148.13 C177.77,148.04 177.77,148.04 177.83,147.94 C177.88,147.83 177.88,147.83 177.93,147.72 C177.97,147.60 177.97,147.60 178.00,147.48 C178.03,147.35 178.03,147.35 178.06,147.23 C178.08,146.94 178.09,146.94 178.10,146.66 C178.11,130.83 178.11,130.83 178.10,115.00 C178.09,114.69 178.08,114.69 178.06,114.38 C178.03,114.22 178.03,114.22 178.00,114.06 C177.92,113.73 177.92,113.73 177.83,113.40 C177.70,113.07 177.70,113.07 177.57,112.74 C177.41,112.42 177.41,112.41 177.24,112.09 "/><path d="M193.36,102.79 C193.50,103.05 193.50,103.05 193.65,103.32 C193.78,103.59 193.78,103.59 193.91,103.86 C194.02,104.14 194.02,104.14 194.14,104.41 C194.24,104.69 194.24,104.69 194.34,104.97 "/><path d="M165.39,91.57 C165.30,91.41 165.30,91.41 165.20,91.26 C164.99,90.96 164.99,90.96 164.78,90.67 C164.55,90.41 164.55,90.41 164.31,90.15 C164.07,89.93 164.07,89.93 163.82,89.71 C163.56,89.54 163.56,89.54 163.31,89.37 "/><path d="M163.31,89.37 C143.25,77.79 143.25,77.79 123.19,66.21 C123.06,66.14 123.06,66.14 122.93,66.07 C122.68,65.97 122.68,65.97 122.43,65.88 C122.31,65.85 122.31,65.85 122.18,65.83 C122.06,65.82 122.06,65.82 121.95,65.81 C121.83,65.81 121.83,65.81 121.72,65.81 C121.61,65.83 121.61,65.83 121.50,65.85 C121.40,65.88 121.40,65.88 121.30,65.91 C121.20,65.95 121.20,65.95 121.11,66.00 C115.18,69.42 115.18,69.42 109.26,72.84 C109.17,72.90 109.17,72.90 109.08,72.96 C109.00,73.03 109.00,73.03 108.93,73.11 C108.86,73.19 108.86,73.19 108.79,73.28 C108.73,73.37 108.73,73.37 108.67,73.47 C108.62,73.58 108.62,73.58 108.57,73.69 C108.53,73.81 108.53,73.81 108.49,73.93 C108.46,74.06 108.46,74.06 108.44,74.18 C108.41,74.47 108.41,74.47 108.39,74.75 C108.39,90.58 108.39,90.58 108.39,106.41 C108.41,106.72 108.41,106.72 108.44,107.03 C108.46,107.19 108.46,107.19 108.49,107.35 C108.58,107.68 108.58,107.68 108.67,108.01 C108.76,108.26 108.76,108.26 108.86,108.52 "/><path d="M108.39,74.35 C108.39,73.39 108.39,73.42 108.39,72.48 C108.40,72.24 108.40,72.24 108.41,72.00 C108.44,71.77 108.44,71.77 108.47,71.54 C108.51,71.33 108.51,71.33 108.56,71.11 C108.62,70.91 108.62,70.91 108.69,70.71 C108.77,70.53 108.77,70.53 108.85,70.35 C108.95,70.19 108.95,70.19 109.05,70.03 C109.16,69.88 109.16,69.88 109.28,69.74 C109.41,69.62 109.41,69.62 109.54,69.50 C109.69,69.40 109.69,69.40 109.84,69.30 "/><path d="M175.02,148.28 C176.07,148.89 176.07,148.89 177.12,149.50 C177.34,149.61 177.33,149.61 177.55,149.72 C177.76,149.81 177.76,149.81 177.97,149.90 C178.18,149.97 178.18,149.97 178.39,150.04 C178.60,150.08 178.60,150.08 178.80,150.12 C179.00,150.14 179.00,150.14 179.20,150.16 C179.39,150.16 179.39,150.16 179.58,150.15 C179.76,150.13 179.76,150.13 179.94,150.10 C180.11,150.05 180.11,150.05 180.28,149.99 C180.44,149.92 180.44,149.92 180.59,149.84 C180.74,149.74 180.74,149.74 180.88,149.64 C181.01,149.52 181.01,149.52 181.14,149.40 C181.26,149.26 181.26,149.26 181.37,149.12 C181.47,148.95 181.47,148.95 181.57,148.79 C181.66,148.61 181.66,148.61 181.74,148.43 C181.80,148.23 181.80,148.23 181.86,148.03 C181.91,147.82 181.91,147.82 181.96,147.60 C181.99,147.37 181.99,147.37 182.01,147.14 C182.02,146.90 182.02,146.90 182.03,146.66 C182.03,146.18 182.03,146.37 182.03,145.69 "/><path d="M182.03,145.69 C182.03,130.35 182.03,130.35 182.03,115.00 C182.02,114.74 182.02,114.74 182.01,114.49 C181.99,114.23 181.99,114.23 181.96,113.97 C181.91,113.70 181.91,113.70 181.86,113.43 C181.80,113.16 181.80,113.16 181.74,112.89 C181.65,112.61 181.65,112.61 181.57,112.34 C181.47,112.06 181.47,112.06 181.37,111.78 C181.26,111.51 181.26,111.51 181.14,111.23 C181.01,110.96 181.01,110.96 180.88,110.69 C180.74,110.42 180.74,110.42 180.59,110.16 C174.67,99.89 174.67,99.89 168.74,89.63 C168.59,89.37 168.59,89.37 168.43,89.11 C168.26,88.86 168.26,88.86 168.09,88.62 C167.91,88.38 167.91,88.38 167.72,88.14 C167.54,87.92 167.54,87.92 167.34,87.70 C167.15,87.49 167.15,87.48 166.95,87.28 C166.75,87.08 166.75,87.08 166.54,86.89 C166.33,86.72 166.33,86.72 166.12,86.54 C165.91,86.39 165.91,86.39 165.70,86.23 C165.48,86.10 165.48,86.10 165.27,85.97 C145.21,74.38 145.21,74.38 125.15,62.81 C124.94,62.69 124.94,62.69 124.73,62.58 C124.51,62.49 124.51,62.49 124.30,62.40 C124.09,62.33 124.09,62.33 123.88,62.26 C123.68,62.22 123.68,62.22 123.47,62.18 C123.28,62.16 123.28,62.16 123.08,62.14 C122.89,62.14 122.89,62.14 122.70,62.15 C122.52,62.17 122.52,62.17 122.34,62.20 C122.17,62.25 122.17,62.25 122.00,62.31 C121.84,62.38 121.84,62.38 121.68,62.46 "/><path d="M121.68,62.46 C127.91,58.86 127.91,58.86 134.15,55.26 C134.45,55.10 134.45,55.10 134.76,54.94 C134.93,54.88 134.93,54.89 135.10,54.84 C135.28,54.80 135.28,54.80 135.46,54.78 C135.65,54.77 135.65,54.77 135.84,54.77 C136.04,54.79 136.04,54.79 136.24,54.81 C136.44,54.85 136.44,54.85 136.65,54.90 C136.86,54.96 136.86,54.96 137.07,55.03 C137.28,55.12 137.28,55.12 137.49,55.21 C137.70,55.32 137.71,55.32 137.92,55.44 "/><path d="M143.25,118.60 C142.80,118.32 142.80,118.32 142.35,118.04 C141.90,117.71 141.90,117.71 141.46,117.39 C141.02,117.02 141.02,117.02 140.58,116.66 C140.15,116.25 140.15,116.25 139.72,115.85 C139.30,115.41 139.30,115.41 138.89,114.97 C138.49,114.50 138.49,114.50 138.09,114.03 C137.71,113.53 137.71,113.53 137.34,113.03 C136.98,112.51 136.98,112.51 136.62,111.99 C136.29,111.45 136.29,111.45 135.96,110.91 C135.65,110.35 135.65,110.35 135.35,109.79 C135.07,109.22 135.07,109.22 134.80,108.65 C134.56,108.07 134.56,108.07 134.32,107.49 C134.14,107.00 134.14,107.00 133.97,106.51 C133.76,105.84 133.76,105.84 133.56,105.17 C133.42,104.60 133.42,104.60 133.29,104.03 C133.19,103.47 133.19,103.47 133.10,102.90 C133.03,102.35 133.03,102.35 132.98,101.81 C132.96,101.28 132.96,101.27 132.94,100.74 C132.96,100.24 132.96,100.24 132.98,99.73 C133.03,99.25 133.03,99.25 133.10,98.77 C133.19,98.32 133.19,98.32 133.29,97.87 C133.42,97.45 133.42,97.45 133.56,97.03 C133.73,96.65 133.73,96.65 133.90,96.27 C134.11,95.93 134.11,95.93 134.32,95.59 C134.56,95.29 134.56,95.29 134.80,94.99 C135.07,94.74 135.07,94.73 135.35,94.49 C135.65,94.27 135.65,94.27 135.96,94.07 C136.29,93.91 136.29,93.91 136.62,93.75 C136.98,93.64 136.98,93.64 137.34,93.53 C137.71,93.47 137.71,93.47 138.09,93.41 C138.49,93.40 138.49,93.40 138.89,93.39 C139.31,93.43 139.31,93.43 139.72,93.47 C140.15,93.56 140.15,93.56 140.58,93.66 C141.02,93.79 141.02,93.79 141.46,93.94 C141.91,94.13 141.91,94.13 142.35,94.32 C142.80,94.55 142.80,94.55 143.25,94.79 C143.77,95.12 143.77,95.12 144.29,95.46 "/><path d="M144.29,95.46 C144.03,95.35 144.03,95.35 143.76,95.24 C143.41,95.12 143.41,95.12 143.05,95.01 C142.71,94.93 142.71,94.93 142.36,94.86 C142.02,94.82 142.02,94.82 141.69,94.79 C141.36,94.80 141.36,94.80 141.04,94.81 C140.73,94.85 140.73,94.85 140.42,94.91 C140.13,94.99 140.13,94.99 139.85,95.08 C139.58,95.21 139.58,95.21 139.31,95.34 C139.06,95.51 139.06,95.51 138.82,95.68 C138.59,95.88 138.59,95.88 138.38,96.09 C138.18,96.33 138.18,96.33 137.98,96.57 C137.81,96.85 137.81,96.85 137.65,97.12 C137.51,97.43 137.51,97.43 137.37,97.74 C137.26,98.08 137.26,98.08 137.15,98.41 C137.07,98.78 137.07,98.78 136.99,99.14 C136.94,99.53 136.94,99.53 136.90,99.92 C136.88,100.33 136.88,100.33 136.87,100.74 C136.88,101.17 136.88,101.17 136.90,101.60 C136.94,102.05 136.94,102.05 136.99,102.49 C137.07,102.95 137.07,102.95 137.15,103.40 C137.26,103.87 137.26,103.87 137.37,104.33 C137.51,104.80 137.51,104.80 137.65,105.27 C137.81,105.74 137.81,105.74 137.98,106.21 C138.18,106.68 138.18,106.68 138.38,107.14 C138.59,107.61 138.59,107.61 138.82,108.07 C139.06,108.52 139.06,108.52 139.31,108.97 C139.58,109.41 139.58,109.41 139.85,109.85 C140.13,110.27 140.13,110.27 140.42,110.69 C140.73,111.10 140.73,111.10 141.04,111.50 C141.36,111.88 141.36,111.88 141.69,112.26 C142.02,112.62 142.02,112.62 142.36,112.97 C142.70,113.30 142.70,113.30 143.05,113.62 C143.41,113.92 143.41,113.92 143.76,114.22 C144.12,114.48 144.12,114.48 144.49,114.74 C144.85,114.97 144.85,114.97 145.21,115.20 "/><path d="M143.25,118.60 C143.70,118.84 143.70,118.84 144.15,119.07 C144.59,119.27 144.59,119.27 145.04,119.45 C145.48,119.60 145.48,119.60 145.92,119.74 C146.34,119.83 146.34,119.83 146.77,119.92 C147.19,119.96 147.19,119.97 147.61,120.00 C148.00,120.00 148.00,120.00 148.40,119.98 C148.78,119.93 148.78,119.93 149.16,119.86 C149.52,119.76 149.52,119.76 149.88,119.64 C150.21,119.49 150.21,119.49 150.54,119.32 C150.84,119.12 150.85,119.12 151.15,118.91 C151.42,118.66 151.42,118.66 151.69,118.40 C151.94,118.11 151.94,118.10 152.18,117.80 C152.39,117.47 152.39,117.46 152.59,117.12 C152.77,116.74 152.77,116.74 152.94,116.36 C153.07,115.96 153.07,115.96 153.20,115.55 C153.30,115.09 153.30,115.09 153.40,114.63 C153.46,114.15 153.46,114.15 153.52,113.67 C153.54,113.16 153.54,113.16 153.56,112.65 C153.54,112.12 153.54,112.12 153.52,111.59 C153.46,111.04 153.46,111.04 153.40,110.49 C153.31,109.93 153.31,109.93 153.21,109.36 C153.07,108.79 153.07,108.79 152.94,108.22 C152.77,107.64 152.77,107.64 152.59,107.06 C152.39,106.48 152.39,106.48 152.18,105.90 C151.94,105.32 151.94,105.32 151.69,104.74 C151.42,104.17 151.42,104.17 151.15,103.60 C150.84,103.04 150.84,103.04 150.54,102.49 C150.21,101.94 150.21,101.94 149.88,101.40 C149.52,100.88 149.52,100.88 149.16,100.36 C148.78,99.86 148.78,99.86 148.40,99.36 C148.01,98.89 148.01,98.89 147.61,98.42 C147.19,97.98 147.19,97.98 146.77,97.55 C146.35,97.14 146.35,97.14 145.92,96.74 C145.48,96.37 145.48,96.37 145.04,96.01 C144.67,95.73 144.67,95.73 144.29,95.46 "/><path d="M145.21,115.20 C145.57,115.39 145.57,115.39 145.94,115.58 C146.30,115.74 146.30,115.74 146.66,115.89 C147.02,116.01 147.02,116.01 147.37,116.12 C147.72,116.20 147.72,116.20 148.07,116.27 C148.40,116.30 148.40,116.30 148.74,116.33 C149.06,116.33 149.06,116.33 149.38,116.32 C149.69,116.27 149.69,116.27 150.00,116.22 C150.29,116.14 150.29,116.14 150.58,116.04 C150.85,115.92 150.85,115.92 151.11,115.78 C151.36,115.62 151.36,115.62 151.60,115.45 C151.83,115.25 151.83,115.25 152.05,115.04 C152.25,114.80 152.25,114.80 152.44,114.55 C152.61,114.28 152.61,114.28 152.78,114.00 C152.92,113.70 152.92,113.70 153.05,113.39 C153.17,113.05 153.17,113.05 153.27,112.71 C153.36,112.35 153.36,112.35 153.43,111.98 C153.47,111.70 153.47,111.70 153.50,111.42 "/><path d="M178.03,78.60 C178.25,78.73 178.25,78.73 178.46,78.87 C178.67,79.02 178.67,79.03 178.89,79.18 C180.75,80.22 180.75,80.22 182.61,81.26 "/><path d="M180.85,81.25 C180.67,81.01 180.67,81.01 180.49,80.77 C180.30,80.55 180.30,80.55 180.11,80.33 C179.91,80.12 179.91,80.12 179.71,79.91 "/><path d="M194.79,139.29 C194.79,139.53 194.79,139.53 194.78,139.77 C194.75,140.00 194.75,140.00 194.72,140.23 C194.68,140.45 194.67,140.45 194.63,140.67 C194.56,140.87 194.56,140.87 194.50,141.06 C194.42,141.24 194.42,141.24 194.34,141.42 C194.24,141.59 194.24,141.59 194.14,141.75 C194.02,141.89 194.02,141.89 193.91,142.03 C193.78,142.15 193.78,142.15 193.65,142.27 C193.50,142.37 193.50,142.37 193.36,142.47 "/><path d="M194.80,107.51 C194.76,107.06 194.76,107.06 194.72,106.60 C194.68,106.33 194.68,106.33 194.63,106.06 C194.56,105.79 194.55,105.79 194.50,105.52 C194.63,103.74 194.63,103.73 194.80,101.96 "/><path d="M177.24,112.09 L193.36,102.79 "/><path d="M194.34,104.97 L194.80,101.96 L182.94,81.43 L165.39,91.57 "/><path d="M108.39,104.50 L108.39,104.15 L108.39,104.16 "/><path d="M108.39,103.49 L108.39,104.15 "/><path d="M108.39,75.36 L108.39,74.35 L108.39,74.75 "/><path d="M109.84,69.30 L121.68,62.46 L121.11,66.00 "/><path d="M109.26,72.84 L109.84,69.30 "/><path d="M137.92,55.44 L125.15,62.81 L123.19,66.21 "/><path d="M145.21,115.20 L143.25,118.60 "/><path d="M137.92,55.44 L154.52,65.02 L153.52,64.44 "/><path d="M142.84,58.28 L142.64,58.16 "/><path d="M142.81,58.26 L142.83,58.27 L142.78,58.24 "/><path d="M142.83,58.27 L142.48,58.07 "/><path d="M156.53,66.18 L156.76,66.32 L154.52,65.02 "/><path d="M156.75,66.31 L160.68,64.04 L170.97,69.98 "/><path d="M156.76,66.32 L169.02,73.39 L170.97,72.27 "/><path d="M163.31,89.37 L165.27,85.97 L178.03,78.60 "/><path d="M182.61,81.26 L179.30,79.52 L179.71,79.91 L182.94,81.43 L180.85,81.25 "/><path d="M165.39,91.57 L177.24,112.09 "/><path d="M169.02,73.39 L169.57,73.71 L168.95,73.35 "/><path d="M170.69,74.35 L171.58,74.87 L169.57,73.71 "/><path d="M171.05,74.56 L171.58,74.87 L170.97,74.52 L171.05,74.56 "/><path d="M171.58,74.87 L178.60,78.92 L177.65,78.37 "/><path d="M178.10,146.66 L182.03,146.66 L194.79,139.29 "/><path d="M193.36,142.47 L180.61,149.83 "/><path d="M178.10,115.00 L182.03,115.00 L194.79,107.63 L194.80,107.51 L194.79,139.29 "/><path d="M178.46,78.87 L180.61,80.09 L178.60,78.92 "/><path d="M179.30,79.52 L178.89,79.18 "/><path d="M194.78,107.12 L194.80,104.50 L194.80,107.51 "/><path d="M194.80,101.96 L193.36,102.79 L181.51,82.26 L181.19,81.74 L182.94,81.43 L180.11,80.33 "/><path d="M180.49,80.77 L182.94,81.43 L180.61,80.09 L181.61,80.67 "/><path d="M181.19,81.74 L180.85,81.25 "/><path d="M182.61,81.26 L182.87,81.39 "/><path d="M193.65,103.32 L194.80,101.96 L194.14,104.41 "/><path d="M194.63,106.06 L194.80,101.96 L193.91,103.86 "/><path d="M194.34,104.97 L194.50,105.50 "/><path d="M194.79,133.72 L194.80,133.64 L194.79,133.65 "/><path d="M194.80,133.64 L194.80,132.63 "/><path d="M194.80,108.52 L194.79,107.63 "/><path d="M194.72,106.60 L194.80,102.49 L194.80,104.50 "/><path d="M194.80,101.96 L194.80,102.49 "/></g></g><g id="paperID" visibility="hidden" opacity="0.00" transform="scale(0.000100)"><path style="stroke:#000000;stroke-width:0.500;fill:#e6e6e6;fill-rule:evenodd" d="M-2000.00,-2000.00L2297.00,-2000.00L2297.00,2210.00L-2000.00,2210.00zM0.00,0.00L297.00,0.00L297.00,210.00L0.00,210.00z"/><path style="fill:#000000;fill-opacity:0.118" d="M3.00,210.00L297.00,210.00L297.00,3.00L300.00,3.00L300.00,213.00L3.00,213.00z"/></g><g id="ToolTip" visibility="hidden" opacity="0" transform="translate(0,0)"><rect id="ToolTipShadow" opacity="0.20" fill="black" stroke="none" x="0" y="0" width="30" height="8"/><rect id="ToolTipBG" fill="#ffffe1" stroke="black" x="0" y="0" width="30" height="8"/><text xml:space="preserve" id="ToolTipText" fill="black" x="0" y="0" width="30" height="8">tooltip</text></g></g></svg>
