<?xml version="1.0" encoding="UTF-8" standalone="no"?>
<svg xmlns="http://www.w3.org/2000/svg" xmlns:xlink="http://www.w3.org/1999/xlink" width="1500.000mm" height="1000.000mm" viewBox="0.000000 0.000000 1500.000000 1000.000000" stroke-linejoin="round" stroke-linecap="round" fill="none" fill-rule="evenodd"><desc>Composer Export</desc><script type="text/ecmascript"><![CDATA[
if(typeof(top) != "undefined")
{
	top.ShowPaper = ShowPaper;
}
function ShowHotSpot(evt,hotspotid)
{
	var svgDocument = evt.target.ownerDocument;
	var strId = "hotspot."+hotspotid;
	var hotspot = svgDocument.getElementById(strId);
	if(hotspot)
		hotspot.setAttribute("opacity",".5");
}
function HideHotSpot(evt,hotspotid)
{
	var svgDocument = evt.target.ownerDocument;
	var strId = "hotspot."+hotspotid;
	var hotspot = svgDocument.getElementById(strId);
	if(hotspot)
		hotspot.setAttribute("opacity","0");

	var toolTip = svgDocument.getElementById('ToolTip');
	if(toolTip)
		toolTip.setAttribute("visibility","hidden");
}
function ShowToolTip(evt,hotspotid,strTooltip)
{
	if(strTooltip=="")
	return;

	// change text
	var svgDocument = evt.target.ownerDocument;
	var tiptext = svgDocument.getElementById('ToolTipText');
	if( !tiptext )
	return;
	tiptext.firstChild.nodeValue = " " + strTooltip + "  " ;

	// show tooltip before, else some refresh issue

	var toolTip = svgDocument.getElementById('ToolTip');
	if(!toolTip)
	return;

	toolTip.setAttribute("visibility","visible");
	toolTip.setAttribute("opacity",".95");

	// move tooltip
	// get viewbox

	var root = svgDocument.documentElement;
	var vbox = (root.getAttribute("viewBox")).split(' ');
	var x0 = parseFloat(vbox[0]);
	var y0 = parseFloat(vbox[1]);
	var vboxW = parseFloat(vbox[2]);
	var vboxH = parseFloat(vbox[3]);

	// get default width of svg

	var strW = root.getAttribute("width");
	var svgW = parseFloat(strW);
	if(strW.indexOf('mm') != -1)
	svgW *= 3.779;

	var strH = root.getAttribute("height");
	var svgH = parseFloat(strH);
	if(strH.indexOf('mm') != -1)
	svgH *= 3.779;  	// 96 dpi  -> 96/25.4 = 3.779

	// update the viewbox / width / height if svg is embedded in html with zoom fit all
	var realx0 = x0;
	var realy0 = y0;
	var realvboxW = vboxW;
	var realvboxH = vboxH;
	var realsvgW = svgW;
	var realsvgH = svgH;

	if ((typeof(top) == "undefined") || (typeof(top.svgctl1) != "undefined")) // embedded in html
	{
		// get window size in pxl

		svgW = window.innerWidth;
		svgH = window.innerHeight;

		// calculate real viewbox

		realsvgW = svgW;
		realsvgH = svgH;
		if((svgW / svgH) > (vboxW / vboxH))
		{
			realvboxW = (vboxH * svgW) / svgH;
			realvboxH = vboxH;
			realx0 = x0 - (realvboxW - vboxW)/2 ;
		}
		else
		{
			realvboxH = (vboxW * svgH) / svgW;
			realvboxW = vboxW;
			realy0 = y0 - (realvboxH - vboxH)/2 ;
		}
	}

	// get user zoom/pan

	var newScale = root.currentScale;
	var translation = root.currentTranslate;

	// transform pxl to user unit

	var xPos = (((evt.clientX+10- translation.x)/newScale) * realvboxW)/realsvgW  + realx0 ;
	var yPos = (((evt.clientY+5- translation.y)/newScale) * realvboxH)/ realsvgH  + realy0 ;
	var scaleForWidth = ( (1 / newScale) * realvboxH) / realsvgH;

	// move tooltip

	toolTip.setAttribute("transform", "translate(" + xPos + "," + yPos + ")" );

	// resize tooltip

	var fontsize = 12;
	tiptext.setAttribute("font-size",fontsize*scaleForWidth);
	tiptext.setAttribute("y", fontsize*scaleForWidth);
	var tipBG = svgDocument.getElementById('ToolTipBG');
	var outline = tiptext.getBBox();
	if(tipBG)
	{
		tipBG.setAttribute("stroke-width", 1*scaleForWidth);
		tipBG.setAttribute("width", Number(outline.width) );
		tipBG.setAttribute("height", Number(outline.height) + fontsize*.5*scaleForWidth );
	}
	var ToolTipShadow = svgDocument.getElementById('ToolTipShadow');
	if(ToolTipShadow)
	{
		ToolTipShadow.setAttribute("width", Number(outline.width) );
		ToolTipShadow.setAttribute("height", Number(outline.height) + fontsize*.5*scaleForWidth );
		ToolTipShadow.setAttribute("x", 3*scaleForWidth);
		ToolTipShadow.setAttribute("y", 3*scaleForWidth);
	}
}
function ShowPaper()
{
  var svgDocument = getDocument();
  var paper = svgDocument.getElementById("paperID");
  if(paper)
  {
    paper.setAttribute("transform","scale(1)");
    paper.setAttribute("opacity","1");
    paper.setAttribute("visibility","visible");
  }
  var svg = svgDocument.getRootElement();
  if(svg)
  {
    svg.setAttribute("width","1510.000mm");
    svg.setAttribute("height","1010.000mm");
    svg.setAttribute("viewBox","-5.000000 -5.000000 1510.000000 1010.000000");
  }
}
]]></script><defs/><g><path style="fill:#ffffff" d="M1500.04,999.94L0.26,999.94L0.26,0.26L1500.04,0.26z"/><path style="fill:#97fa98" d="M1376.82,699.59L1376.74,701.52L1333.30,726.38L1331.01,726.38L1287.89,701.29L1287.90,648.12L1330.73,623.60L1332.76,623.56z"/><path style="fill:#97fa98" d="M1446.54,733.32L1448.34,732.78L1450.52,731.42L1455.22,731.42L1458.66,735.74L1459.09,739.79L1459.12,742.42L1457.76,746.41L1453.96,751.23L1447.74,753.81L1445.08,753.80L1442.99,753.08L1441.29,751.39L1440.59,748.45L1440.54,745.12L1423.30,734.88L1422.42,734.03L1422.34,727.38L1424.69,724.55L1426.38,723.66L1430.20,723.66z"/><path style="fill:#97fa98" d="M1068.98,856.40L1078.41,873.29L1035.02,898.83L1031.87,898.72L988.80,873.47L988.92,820.96L1033.67,795.24z"/><path style="fill:#97fa98" d="M1147.67,905.59L1148.27,906.86L1149.29,905.48L1152.19,903.87L1156.01,903.87L1157.74,904.73L1159.90,908.79L1160.40,911.37L1160.29,916.28L1157.34,921.95L1153.39,924.90L1148.52,926.24L1145.87,926.27L1143.09,924.56L1142.11,922.95L1141.77,918.32L1142.32,916.05L1140.71,916.64L1124.12,907.38L1123.30,906.24L1123.26,900.97L1125.44,897.81L1127.17,896.10L1131.87,896.12z"/><path style="fill:#000020" d="M1248.23,605.59L1247.49,606.83L1247.31,602.96z"/><path style="fill:#000020" d="M1459.12,742.42L1459.09,739.79L1459.50,740.16z"/><path style="fill:#000020" d="M929.12,778.82L928.28,781.78L928.30,775.39z"/><path style="fill:#000020" d="M929.12,814.17L928.28,817.13L928.30,810.74z"/><path style="fill:#000020" d="M988.80,873.47L988.44,821.14L988.92,820.96z"/><path style="fill:#000020" d="M1148.27,906.86L1147.67,905.59L1149.29,905.48z"/><path style="fill:#000020" d="M1160.40,911.37L1159.90,908.79L1160.31,909.08z"/><path style="fill:#000020" d="M1140.71,916.64L1142.32,916.05L1141.77,918.32z"/><g id="Actor_.0"><g style="stroke:#000000;stroke-width:0.705"><path d="M1423.75,725.45 C1423.07,726.34 1423.06,726.35 1422.43,727.27 C1422.03,728.29 1422.04,728.30 1421.68,729.35 C1421.61,729.83 1421.62,729.84 1421.58,730.33 C1421.58,730.98 1421.58,730.98 1421.58,731.62 "/><path d="M1421.58,731.62 C1421.72,730.54 1421.72,730.52 1421.92,729.45 C1422.38,728.32 1422.38,728.31 1422.89,727.21 C1423.60,726.21 1423.60,726.21 1424.35,725.25 C1425.18,724.54 1425.19,724.53 1426.06,723.86 "/><path d="M1448.83,732.36 C1447.50,733.32 1447.49,733.33 1446.20,734.36 C1444.99,735.71 1444.99,735.72 1443.83,737.12 C1442.86,738.73 1442.86,738.74 1441.95,740.38 C1441.31,742.09 1441.31,742.09 1440.74,743.82 C1440.50,745.45 1440.49,745.46 1440.32,747.10 C1440.49,748.49 1440.49,748.51 1440.74,749.90 "/><path d="M1444.57,753.45 C1445.76,753.48 1445.76,753.48 1446.94,753.48 C1447.69,753.38 1447.69,753.39 1448.43,753.26 C1449.78,752.77 1449.79,752.77 1451.13,752.24 C1452.36,751.55 1452.37,751.56 1453.57,750.83 C1454.49,749.99 1454.50,749.99 1455.38,749.11 "/><path d="M1449.28,747.62 C1449.44,746.45 1449.44,746.44 1449.67,745.29 C1450.18,744.09 1450.19,744.08 1450.76,742.92 C1451.54,741.90 1451.55,741.89 1452.38,740.91 C1453.28,740.24 1453.29,740.23 1454.23,739.61 "/><path d="M1458.14,741.42 C1458.18,740.36 1458.18,742.51 1458.14,743.58 C1457.80,744.78 1457.79,744.79 1457.39,745.98 C1456.72,747.11 1456.72,747.12 1456.00,748.22 C1455.14,749.08 1455.13,749.07 1454.23,749.90 C1453.58,750.36 1453.58,750.36 1452.91,750.79 "/><path d="M1441.48,750.32 C1441.23,748.94 1441.23,748.92 1441.06,747.53 C1441.23,745.89 1441.23,745.88 1441.48,744.25 C1442.05,742.52 1442.05,742.51 1442.69,740.81 C1443.60,739.17 1443.60,739.16 1444.57,737.55 C1445.73,736.15 1445.73,736.14 1446.94,734.78 C1448.23,733.76 1448.24,733.75 1449.57,732.78 "/><path d="M1455.49,747.48 C1455.53,746.79 1455.53,746.79 1455.59,746.11 C1455.73,745.55 1455.73,745.55 1455.89,744.99 C1456.13,744.50 1456.14,744.49 1456.40,744.01 C1456.80,743.52 1456.80,743.51 1457.21,743.04 "/><path d="M1457.21,743.04 C1456.80,742.62 1456.80,742.62 1456.40,742.19 C1456.14,741.87 1456.14,741.87 1455.89,741.54 C1455.73,741.29 1455.73,741.29 1455.59,741.03 C1455.53,740.81 1455.53,740.81 1455.49,740.59 "/><path d="M1457.00,741.80 C1457.13,742.41 1457.13,742.42 1457.21,743.04 C1457.13,743.78 1457.12,743.78 1457.00,744.52 C1456.80,745.10 1456.78,745.09 1456.56,745.66 C1456.48,745.86 1456.49,745.87 1456.40,746.06 C1455.95,746.78 1455.95,746.78 1455.49,747.48 "/><path d="M1455.49,747.48 C1454.85,747.63 1454.85,747.63 1454.22,747.80 C1453.76,748.00 1453.76,748.00 1453.30,748.21 C1452.94,748.47 1452.94,748.47 1452.59,748.74 C1452.31,749.10 1452.31,749.10 1452.04,749.47 "/><path d="M1452.04,749.47 C1451.63,749.05 1451.63,749.05 1451.23,748.62 C1450.97,748.30 1450.97,748.30 1450.71,747.98 C1450.56,747.73 1450.56,747.72 1450.42,747.46 C1450.36,747.25 1450.36,747.24 1450.31,747.02 "/><path d="M1450.31,747.02 C1450.40,746.28 1450.40,746.27 1450.52,745.54 C1450.80,744.76 1450.81,744.76 1451.12,743.99 C1451.56,743.28 1451.57,743.27 1452.04,742.58 C1452.59,742.00 1452.59,742.00 1453.16,741.45 C1453.75,741.09 1453.76,741.09 1454.36,740.76 "/><path d="M1457.39,745.98 C1457.71,745.37 1457.71,745.36 1458.00,744.74 C1458.35,743.48 1458.36,743.48 1458.66,742.21 C1458.69,741.08 1458.66,741.07 1458.66,739.93 C1458.59,738.78 1458.60,738.78 1458.51,737.64 C1458.27,736.66 1458.26,736.66 1458.00,735.68 C1457.84,735.29 1457.84,735.29 1457.67,734.90 C1457.07,733.88 1457.07,733.87 1456.46,732.86 "/><path d="M1441.07,742.88 L1421.58,731.62 L1421.92,733.41 L1422.89,734.52 L1440.62,744.75 "/><path d="M1426.06,723.86 L1425.35,724.30 L1423.75,725.45 "/><path d="M1426.06,723.86 L1427.78,723.27 L1429.23,723.55 L1446.90,733.82 "/><path d="M1448.83,732.36 L1451.46,731.32 L1453.84,731.34 L1454.58,731.77 L1452.20,731.74 L1449.57,732.78 L1448.83,732.36 "/><path d="M1440.74,749.90 L1441.95,751.94 L1444.57,753.45 "/><path d="M1455.38,749.11 L1454.23,749.90 L1452.38,750.75 L1450.76,750.60 L1449.67,749.50 L1449.28,747.62 "/><path d="M1454.23,739.61 L1456.00,739.26 L1457.39,739.90 L1458.14,741.42 "/><path d="M1443.10,752.60 L1442.69,752.36 L1441.48,750.32 "/><path d="M1444.57,753.45 L1444.22,753.25 "/><path d="M1442.08,752.02 L1442.35,752.17 "/><path d="M1455.49,740.59 L1456.40,740.94 L1457.00,741.80 "/><path d="M1452.04,749.47 L1453.16,749.30 L1454.36,748.61 L1455.49,747.48 L1452.04,745.49 L1453.73,741.13 "/><path d="M1450.31,747.02 L1450.52,748.26 L1451.12,749.11 L1452.04,749.47 "/><path d="M1454.36,740.76 L1455.49,740.59 L1454.22,740.91 L1453.74,741.12 "/><path d="M1452.04,745.49 L1450.40,746.44 "/><path d="M1456.00,748.22 L1455.38,749.11 "/><path d="M1456.46,732.86 L1454.58,731.77 "/><path d="M1456.18,747.92 L1456.77,747.05 L1457.08,746.48 "/><path d="M1457.21,743.04 L1453.82,741.08 "/></g></g><g id="Actor_.1"><g style="stroke:#000000;stroke-width:0.705"><path d="M1122.91,904.06 C1123.06,902.97 1123.06,902.96 1123.26,901.88 C1123.71,900.75 1123.72,900.75 1124.23,899.64 C1124.93,898.65 1124.93,898.64 1125.68,897.68 C1126.52,896.97 1126.52,896.96 1127.39,896.30 "/><path d="M1125.08,897.89 C1124.40,898.77 1124.39,898.78 1123.76,899.70 C1123.36,900.73 1123.37,900.74 1123.01,901.78 C1122.95,902.27 1122.96,902.27 1122.91,902.76 C1122.91,903.41 1122.90,903.41 1122.91,904.06 C1123.07,904.95 1123.07,904.95 1123.26,905.84 "/><path d="M1145.90,925.89 C1147.09,925.91 1147.09,925.91 1148.28,925.91 C1149.02,925.82 1149.03,925.82 1149.76,925.70 C1151.12,925.21 1151.12,925.20 1152.46,924.67 C1153.69,923.99 1153.70,923.99 1154.90,923.26 C1155.83,922.43 1155.82,922.41 1156.72,921.54 C1157.04,921.11 1157.04,921.10 1157.34,920.65 "/><path d="M1150.62,920.05 C1150.78,918.89 1150.78,918.88 1151.00,917.72 C1151.52,916.53 1151.52,916.52 1152.10,915.35 C1152.88,914.33 1152.88,914.32 1153.71,913.34 C1154.61,912.67 1154.62,912.66 1155.56,912.05 "/><path d="M1159.48,913.86 C1159.51,912.79 1159.51,914.94 1159.48,916.01 C1159.13,917.22 1159.13,917.23 1158.72,918.41 C1158.06,919.54 1158.05,919.55 1157.34,920.65 "/><path d="M1142.81,922.76 C1142.56,921.37 1142.56,921.36 1142.40,919.96 C1142.56,918.32 1142.57,918.31 1142.81,916.68 C1143.38,914.96 1143.39,914.95 1144.02,913.24 C1144.93,911.60 1144.94,911.59 1145.90,909.98 C1147.06,908.58 1147.07,908.57 1148.28,907.22 C1149.57,906.19 1149.57,906.18 1150.91,905.22 C1152.20,904.66 1152.22,904.66 1153.54,904.18 "/><path d="M1157.79,905.29 C1158.41,906.31 1158.41,906.31 1159.00,907.33 C1159.18,907.72 1159.18,907.72 1159.33,908.11 C1159.60,909.09 1159.61,909.09 1159.84,910.07 C1159.94,911.21 1159.92,911.22 1159.99,912.36 C1160.00,913.51 1160.02,913.51 1159.99,914.65 C1159.69,915.92 1159.68,915.92 1159.33,917.18 C1159.05,917.80 1159.04,917.81 1158.72,918.41 "/><path d="M1142.07,922.33 C1141.82,920.95 1141.82,920.93 1141.66,919.53 C1141.82,917.90 1141.83,917.88 1142.07,916.26 C1142.64,914.53 1142.65,914.52 1143.28,912.82 C1144.19,911.17 1144.20,911.17 1145.17,909.56 C1146.32,908.15 1146.33,908.15 1147.54,906.79 C1148.83,905.76 1148.84,905.76 1150.17,904.79 "/><path d="M1153.37,921.91 C1153.64,921.54 1153.64,921.53 1153.93,921.18 C1154.27,920.90 1154.28,920.90 1154.63,920.65 C1155.09,920.43 1155.09,920.43 1155.56,920.24 C1156.19,920.07 1156.19,920.07 1156.82,919.92 "/><path d="M1153.37,921.91 C1152.97,921.49 1152.97,921.49 1152.56,921.06 C1152.30,920.74 1152.30,920.74 1152.05,920.42 C1151.89,920.16 1151.89,920.16 1151.75,919.90 C1151.69,919.68 1151.69,919.68 1151.65,919.46 "/><path d="M1151.65,919.46 C1151.73,918.71 1151.73,918.71 1151.86,917.97 C1152.14,917.20 1152.15,917.20 1152.45,916.43 C1152.48,916.39 1152.48,916.39 1152.51,916.34 C1152.94,915.68 1152.93,915.67 1153.37,915.01 C1153.92,914.44 1153.92,914.43 1154.50,913.89 C1155.08,913.53 1155.09,913.52 1155.70,913.20 "/><path d="M1158.34,914.23 C1158.46,914.84 1158.46,914.85 1158.54,915.47 C1158.46,916.21 1158.46,916.22 1158.34,916.96 C1158.06,917.73 1158.05,917.74 1157.74,918.50 C1157.29,919.22 1157.29,919.22 1156.82,919.92 "/><path d="M1156.82,919.92 C1156.86,919.23 1156.86,919.23 1156.92,918.54 C1157.06,917.98 1157.06,917.98 1157.22,917.43 C1157.47,916.93 1157.47,916.93 1157.74,916.44 C1158.13,915.95 1158.13,915.95 1158.54,915.47 "/><path d="M1158.54,915.47 C1158.14,915.05 1158.14,915.05 1157.74,914.62 C1157.48,914.30 1157.47,914.30 1157.22,913.98 C1157.07,913.72 1157.06,913.72 1156.92,913.46 C1156.86,913.24 1156.86,913.24 1156.82,913.02 "/><path d="M1142.41,915.31 L1122.91,904.06 "/><path d="M1127.39,896.30 L1126.68,896.74 L1125.08,897.89 "/><path d="M1123.26,905.84 L1124.23,906.96 L1141.95,917.19 "/><path d="M1127.39,896.30 L1129.11,895.70 L1130.56,895.98 L1148.24,906.26 "/><path d="M1144.37,925.00 L1144.12,924.86 L1145.90,925.89 L1145.51,925.66 "/><path d="M1157.34,920.65 L1155.56,922.34 L1153.71,923.18 L1152.10,923.04 L1151.00,921.93 L1150.62,920.05 "/><path d="M1155.56,912.05 L1157.34,911.69 L1158.72,912.33 L1159.48,913.86 "/><path d="M1144.12,924.86 L1144.02,924.80 L1142.81,922.76 "/><path d="M1153.54,904.18 L1155.91,904.21 L1157.79,905.29 "/><path d="M1144.02,924.80 L1143.28,924.37 L1142.07,922.33 "/><path d="M1150.17,904.79 L1150.91,905.22 "/><path d="M1143.28,924.37 L1143.77,924.65 "/><path d="M1151.86,920.70 L1152.45,921.55 L1153.37,921.91 "/><path d="M1156.82,919.92 L1155.70,921.04 L1154.50,921.73 L1153.37,921.91 "/><path d="M1151.65,919.46 L1151.86,920.70 "/><path d="M1155.70,913.20 L1156.82,913.02 L1157.74,913.38 L1158.34,914.23 "/><path d="M1156.82,919.92 L1153.37,917.93 L1155.06,913.56 "/><path d="M1151.73,918.87 L1153.37,917.93 "/><path d="M1150.17,904.79 L1152.80,903.75 L1155.17,903.78 L1155.91,904.21 "/><path d="M1156.82,913.02 L1155.56,913.34 L1155.08,913.55 "/><path d="M1156.72,921.54 L1155.56,922.34 L1154.25,923.23 "/><path d="M1157.52,920.36 L1158.10,919.49 L1158.41,918.92 "/><path d="M1158.54,915.47 L1155.16,913.52 "/></g></g><g id="Actor_.2"><g style="stroke:#000000;stroke-width:0.705"><path d="M932.01,806.60 C932.00,802.98 932.00,805.39 932.01,804.18 C932.07,803.83 932.07,803.82 932.16,803.47 C932.44,802.86 932.45,802.86 932.76,802.26 "/><path d="M919.92,822.03 C920.46,821.93 920.47,821.93 920.99,821.79 C921.56,821.48 921.57,821.48 922.12,821.14 C922.66,820.66 922.67,820.65 923.19,820.14 "/><path d="M918.12,820.99 C917.94,820.48 917.94,820.47 917.79,819.94 C917.77,819.30 917.77,819.29 917.79,818.64 C917.94,817.93 917.94,817.92 918.12,817.21 "/><path d="M925.00,817.02 C925.17,816.31 925.17,816.31 925.32,815.59 C925.34,814.95 925.34,814.94 925.32,814.29 C925.18,813.77 925.18,813.76 925.00,813.24 "/><path d="M923.19,812.20 C922.65,812.30 922.65,812.31 922.12,812.44 C921.55,812.75 921.55,812.76 920.99,813.09 C920.45,813.58 920.47,813.60 919.92,814.09 C919.40,814.41 919.40,814.41 918.86,814.70 "/><path d="M923.19,785.66 C922.67,786.17 922.66,786.17 922.12,786.66 C921.57,786.99 921.56,787.00 920.99,787.30 C920.47,787.44 920.46,787.44 919.92,787.55 "/><path d="M918.12,782.73 C917.94,783.67 917.94,783.67 917.79,784.62 C917.78,785.04 917.78,785.04 917.79,785.45 C917.94,785.98 917.94,785.99 918.12,786.50 "/><path d="M919.92,779.60 C920.45,779.10 920.45,779.09 920.99,778.61 C921.55,778.27 921.55,778.26 922.12,777.96 C922.65,777.82 922.65,777.82 923.19,777.72 "/><path d="M925.00,778.76 C925.17,779.28 925.17,779.28 925.32,779.81 C925.33,780.07 925.32,780.08 925.32,780.35 C925.32,780.73 925.33,780.73 925.32,781.10 C925.17,781.82 925.17,781.82 925.00,782.53 "/><path d="M933.05,791.35 C932.87,792.06 932.87,792.06 932.72,792.78 C932.71,793.42 932.71,793.43 932.72,794.08 C932.87,794.60 932.87,794.61 933.05,795.13 "/><path d="M934.85,796.17 C935.39,796.06 935.40,796.06 935.93,795.93 C936.50,795.62 936.50,795.61 937.05,795.28 C937.60,794.79 937.58,794.76 938.13,794.28 C938.64,793.96 938.65,793.96 939.18,793.67 "/><path d="M933.42,789.17 C934.14,788.71 934.15,788.71 934.85,788.23 C935.40,787.74 935.38,787.71 935.93,787.23 C936.48,786.89 936.48,786.89 937.05,786.58 C937.58,786.44 937.60,786.47 938.13,786.34 C938.66,786.05 938.67,786.04 939.18,785.73 "/><path d="M939.93,791.16 C940.11,790.45 940.11,790.44 940.26,789.73 C940.27,789.08 940.27,789.07 940.26,788.43 C940.11,787.90 940.11,787.89 939.93,787.38 "/><path d="M943.96,790.39 C943.94,786.94 943.94,786.94 943.96,783.49 C944.03,783.03 944.04,783.02 944.15,782.57 C944.41,782.06 944.41,782.06 944.70,781.57 "/><path d="M949.79,804.79 C950.32,804.69 950.33,804.68 950.86,804.55 C951.43,804.24 951.43,804.23 951.98,803.90 C952.53,803.41 952.53,803.41 953.06,802.90 "/><path d="M947.98,803.75 C947.80,803.23 947.80,803.22 947.66,802.70 C947.64,802.05 947.64,802.05 947.66,801.40 C947.80,800.68 947.81,800.68 947.98,799.97 "/><path d="M954.86,801.00 C954.85,800.39 954.85,800.38 954.86,799.78 C955.01,799.06 955.04,799.06 955.19,798.35 C955.20,797.70 955.21,797.70 955.19,797.05 C955.04,796.52 955.04,796.52 954.86,796.00 "/><path d="M949.79,796.85 C950.31,796.34 950.32,796.34 950.86,795.85 C951.41,795.51 951.42,795.51 951.98,795.20 C952.51,795.06 952.52,795.06 953.06,794.96 "/><path d="M947.98,769.26 C947.80,768.74 947.80,768.74 947.66,768.21 C947.64,767.57 947.64,767.56 947.66,766.91 C947.80,766.20 947.84,766.20 947.98,765.48 C948.00,764.88 948.00,764.87 947.98,764.26 "/><path d="M949.79,770.30 C950.32,770.20 950.33,770.20 950.86,770.06 C951.43,769.75 951.43,769.75 951.98,769.41 C952.53,768.93 952.53,768.92 953.06,768.41 "/><path d="M949.79,762.36 C950.31,761.85 950.32,761.85 950.86,761.36 C951.41,761.03 951.42,761.02 951.98,760.71 C952.51,760.58 952.53,760.61 953.06,760.47 C953.59,760.18 953.60,760.18 954.12,759.86 "/><path d="M954.86,765.29 C955.04,764.58 955.04,764.58 955.19,763.86 C955.20,763.21 955.21,763.21 955.19,762.56 C955.04,762.04 955.04,762.03 954.86,761.51 "/><path d="M914.19,829.56 L914.09,829.19 L77.82,346.37 L77.92,346.74 L914.46,829.72 L931.64,819.80 L932.01,818.84 L931.91,816.40 L931.64,816.24 L931.26,816.34 L928.72,817.81 L927.98,817.38 L927.98,810.48 L928.08,809.99 L928.65,809.25 L931.71,807.37 L932.01,806.60 "/><path d="M932.76,802.26 L944.26,808.84 L941.72,810.31 L932.01,804.70 "/><path d="M77.82,346.37 L77.82,327.40 L914.09,810.22 L914.09,829.19 "/><path d="M914.09,810.22 L914.19,809.73 L914.84,808.93 L78.57,326.11 L80.74,324.97 L917.00,807.79 L916.63,807.89 L80.36,325.07 "/><path d="M77.82,327.40 L78.20,326.44 L78.57,326.11 "/><path d="M338.20,465.98 L341.70,467.99 L77.92,315.70 L77.82,296.36 L78.20,295.40 L78.57,295.07 L914.84,777.89 L914.19,778.69 L914.09,779.18 L77.82,296.36 "/><path d="M77.82,315.33 L914.09,798.15 L914.19,798.52 L914.46,798.68 L916.58,797.69 L925.44,802.81 L925.14,803.07 L924.84,803.84 L924.84,806.94 L88.58,324.13 L88.20,325.09 L87.83,325.42 L84.67,327.24 "/><path d="M78.57,295.07 L95.00,285.59 L95.46,285.54 L98.46,287.27 L95.46,285.54 "/><path d="M87.83,325.42 L924.10,808.24 L918.12,811.69 L917.38,811.25 L917.38,808.32 L917.28,807.95 L917.00,807.79 "/><path d="M88.58,321.85 L88.58,324.13 "/><path d="M95.00,285.59 L931.26,768.40 L914.84,777.89 "/><path d="M98.46,287.27 L817.66,702.50 "/><path d="M932.01,770.73 L940.97,775.91 L941.27,775.14 L941.57,774.87 L944.26,773.32 L107.99,290.50 L106.02,291.64 "/><path d="M107.99,290.50 L108.36,290.17 L108.74,289.21 L108.74,285.56 "/><path d="M108.74,289.21 L945.00,772.03 L944.63,772.99 L944.26,773.32 "/><path d="M941.07,766.10 L940.97,765.73 L104.70,282.91 L104.80,283.29 L941.34,766.26 L944.26,764.70 L945.00,765.13 L945.00,772.03 "/><path d="M940.97,765.73 L940.97,763.66 L104.70,280.84 L105.08,279.88 L121.88,270.07 L958.14,752.89 L941.72,762.37 L105.45,279.55 "/><path d="M104.70,280.84 L104.70,282.91 "/><path d="M952.32,772.28 L955.60,774.18 L955.70,774.55 L955.98,774.71 L958.14,773.58 L958.79,772.77 L958.79,752.94 L122.25,269.97 L125.21,271.68 "/><path d="M122.25,269.97 L121.88,270.07 "/><path d="M341.70,467.99 L364.86,481.37 L364.08,480.92 "/><path d="M914.19,798.52 L364.86,481.37 "/><path d="M808.92,768.79 L806.58,767.43 "/><path d="M816.60,701.89 L931.64,768.30 L931.26,768.40 "/><path d="M914.46,829.72 L909.27,826.72 "/><path d="M914.84,808.93 L916.63,807.89 "/><path d="M915.06,806.67 L917.28,807.95 "/><path d="M914.46,798.68 L912.74,797.69 "/><path d="M914.09,798.15 L914.09,779.18 "/><path d="M918.86,822.64 L919.92,822.03 L918.12,820.99 L918.22,822.58 L918.49,822.74 L918.86,822.64 L918.12,822.21 "/><path d="M923.19,820.14 L918.12,817.21 L918.12,815.99 L924.25,819.53 L923.19,820.14 "/><path d="M918.12,815.99 L918.22,815.51 L918.86,814.70 L920.85,815.85 L925.00,818.24 L924.90,818.73 L924.25,819.53 "/><path d="M919.92,814.09 L925.00,817.02 "/><path d="M925.00,813.24 L923.19,812.20 "/><path d="M917.38,811.25 L917.48,811.63 L917.75,811.79 L918.12,811.69 "/><path d="M915.28,798.32 L924.84,803.84 "/><path d="M925.44,802.81 L927.53,801.60 L917.38,795.74 "/><path d="M917.69,792.47 L929.02,799.01 L928.82,799.99 L928.28,800.94 L927.53,801.60 "/><path d="M921.41,790.13 L924.84,792.11 L924.84,789.01 L924.09,788.58 L918.12,792.03 L917.75,792.36 L917.38,793.32 L917.28,796.74 L917.00,797.21 L916.38,797.69 "/><path d="M918.86,788.16 L918.12,787.72 L918.12,786.50 L919.92,787.55 L918.49,788.26 L918.22,788.10 L918.12,787.72 "/><path d="M923.19,785.66 L924.25,785.05 L918.12,781.51 L918.12,782.73 L923.19,785.66 "/><path d="M918.12,781.51 L918.49,780.54 L918.86,780.21 L925.00,783.75 L924.90,784.24 L924.25,785.05 "/><path d="M925.00,783.75 L925.00,782.53 L919.92,779.60 L918.86,780.21 "/><path d="M923.19,777.72 L925.00,778.76 "/><path d="M925.00,818.24 L925.00,817.02 "/><path d="M923.19,812.20 L924.25,811.59 L925.00,812.02 L925.00,813.24 "/><path d="M925.00,812.02 L924.90,811.65 L924.62,811.49 L924.25,811.59 "/><path d="M924.10,808.24 L924.47,807.91 L924.84,806.94 "/><path d="M929.02,799.01 L929.02,792.11 L927.53,791.25 L925.44,792.46 L925.14,792.54 L924.92,792.41 L924.84,792.11 "/><path d="M924.92,792.41 L924.05,791.91 L925.03,792.47 "/><path d="M924.84,789.01 L924.74,788.64 L924.47,788.48 L924.09,788.58 "/><path d="M924.05,791.91 L921.19,790.26 "/><path d="M925.00,777.54 L924.90,777.16 L924.62,777.01 L924.25,777.11 L925.00,777.54 L925.00,778.76 "/><path d="M924.25,777.11 L923.19,777.72 "/><path d="M927.98,817.38 L928.08,817.75 L928.35,817.91 L928.72,817.81 "/><path d="M931.26,816.34 L927.98,814.44 "/><path d="M931.64,816.24 L927.98,814.13 "/><path d="M930.96,807.89 L940.97,813.67 L941.07,814.04 L941.34,814.20 L958.52,804.28 L958.89,803.32 L958.79,783.98 L958.52,783.82 L958.14,783.92 L948.14,778.15 "/><path d="M932.01,806.43 L940.97,811.60 L940.97,813.67 "/><path d="M930.69,808.05 L941.07,814.04 "/><path d="M929.02,792.11 L928.82,791.37 L928.28,791.05 L927.53,791.25 "/><path d="M932.01,783.49 L932.21,784.24 L932.76,784.55 L933.50,784.35 L932.01,783.49 L932.01,781.08 L931.71,780.65 L928.72,782.29 L928.35,782.39 L928.08,782.23 L927.98,781.85 L928.72,782.29 "/><path d="M931.64,768.30 L931.91,768.46 L932.00,768.79 L931.91,771.39 L931.26,772.20 L928.72,773.66 L928.06,774.57 L927.98,781.85 "/><path d="M931.41,780.73 L927.98,778.75 "/><path d="M931.71,780.65 L931.18,780.35 L931.86,780.74 "/><path d="M928.14,774.36 L939.48,780.91 L933.50,784.35 "/><path d="M931.18,780.35 L927.98,778.50 "/><path d="M932.01,769.35 L941.57,774.87 "/><path d="M939.48,780.91 L940.22,780.24 L940.77,779.30 L940.97,778.32 L930.82,772.46 "/><path d="M944.26,808.84 L944.63,808.51 L945.00,807.55 L934.10,801.25 "/><path d="M932.76,802.26 L933.50,801.60 L939.48,798.15 L940.97,799.01 L940.97,801.43 L937.39,799.36 "/><path d="M937.17,799.48 L941.27,801.85 L944.26,800.22 L945.00,800.65 L945.00,807.55 "/><path d="M938.13,794.28 L933.05,791.35 "/><path d="M933.05,795.13 L934.85,796.17 "/><path d="M939.18,793.67 L933.05,790.13 L933.05,791.35 "/><path d="M934.85,796.17 L933.42,796.88 L933.15,796.72 L933.05,796.35 L933.80,796.78 "/><path d="M933.05,795.13 L933.05,796.35 "/><path d="M933.05,790.13 L933.42,789.17 "/><path d="M939.18,785.73 L939.87,786.13 L939.93,787.38 L938.13,786.34 "/><path d="M933.80,788.84 L939.93,792.38 L939.83,792.86 L939.18,793.67 "/><path d="M934.85,788.23 L939.93,791.16 "/><path d="M940.97,811.60 L941.34,810.64 L941.72,810.31 "/><path d="M941.05,801.72 L940.97,801.43 "/><path d="M940.97,799.01 L940.77,798.27 L940.22,797.95 L939.48,798.15 "/><path d="M939.93,792.38 L939.93,791.16 "/><path d="M943.96,787.98 L947.54,790.04 L945.45,791.25 L943.96,790.39 L944.16,791.14 L944.70,791.45 L945.45,791.25 "/><path d="M939.87,786.13 L939.83,785.78 L939.55,785.63 L939.18,785.73 "/><path d="M944.70,781.57 L945.45,780.91 L947.54,779.70 L948.06,779.06 L948.24,775.07 L948.88,774.27 L954.86,770.82 L955.60,771.25 L955.50,770.88 L955.23,770.72 L954.86,770.82 "/><path d="M943.96,787.72 L947.84,789.96 L947.54,790.04 "/><path d="M943.96,784.18 L954.86,790.48 L948.88,793.92 L948.14,793.49 L948.24,793.87 L948.51,794.02 L948.88,793.92 "/><path d="M940.97,778.32 L940.97,775.91 "/><path d="M940.97,763.66 L941.07,763.17 L941.72,762.37 "/><path d="M947.98,804.97 L948.08,805.34 L948.36,805.50 L949.79,804.79 L947.98,803.75 L947.98,804.97 L948.73,805.40 "/><path d="M953.06,802.90 L947.98,799.97 L947.98,798.75 L954.12,802.29 L953.06,802.90 "/><path d="M945.00,800.65 L944.90,800.28 L944.63,800.12 L944.26,800.22 "/><path d="M947.98,798.75 L948.08,798.26 L948.73,797.46 L954.86,801.00 "/><path d="M954.86,796.00 L953.06,794.96 L954.11,794.35 L954.86,794.78 L954.86,796.00 "/><path d="M948.14,793.49 L948.14,790.39 L948.06,790.09 L947.84,789.96 "/><path d="M948.73,797.46 L949.79,796.85 L954.86,799.78 "/><path d="M944.15,782.57 L955.60,789.21 L955.23,790.15 L954.86,790.48 "/><path d="M958.14,783.92 L956.35,784.96 L947.39,779.79 "/><path d="M945.90,780.65 L955.60,786.25 L955.60,789.21 "/><path d="M958.52,783.82 L948.14,777.83 "/><path d="M948.73,770.91 L947.98,770.48 L948.08,770.85 L948.36,771.01 L949.79,770.30 L947.98,769.26 "/><path d="M947.98,764.26 L954.12,767.80 L953.06,768.41 L947.98,765.48 "/><path d="M947.98,769.26 L947.98,770.48 "/><path d="M945.00,765.13 L944.90,764.75 L944.63,764.60 L944.26,764.70 "/><path d="M948.69,763.01 L954.86,766.51 L954.86,765.29 L949.79,762.36 L948.36,763.30 L947.98,764.26 "/><path d="M954.12,759.86 L954.86,760.29 L954.76,759.92 L954.49,759.76 L954.12,759.86 "/><path d="M954.86,801.00 L954.49,801.96 L954.12,802.29 "/><path d="M954.86,794.78 L954.76,794.41 L954.49,794.25 L954.11,794.35 "/><path d="M955.60,786.25 L955.98,785.29 L956.35,784.96 "/><path d="M955.60,771.25 L955.60,774.18 "/><path d="M952.05,772.44 L955.70,774.55 "/><path d="M954.12,767.80 L954.49,767.47 L954.86,766.51 "/><path d="M954.86,761.51 L953.06,760.47 "/><path d="M954.86,760.29 L954.86,761.51 "/><path d="M958.79,783.98 L955.60,782.14 "/><path d="M958.14,752.89 L958.52,752.79 L958.79,752.94 "/><path d="M958.52,752.79 L956.20,751.45 "/></g></g><g id="Actor_.3"><g style="stroke:#000000;stroke-width:0.705"><path d="M1320.02,672.65 C1319.67,670.87 1319.67,670.87 1319.39,669.09 C1319.36,667.45 1319.35,667.44 1319.39,665.81 C1319.67,664.39 1319.67,664.38 1320.02,662.98 C1320.60,661.85 1320.61,661.83 1321.25,660.74 "/><path d="M1325.24,658.44 C1326.51,658.44 1326.52,658.44 1327.79,658.49 C1328.54,658.70 1328.54,658.73 1329.29,658.96 C1329.92,659.16 1329.93,659.14 1330.56,659.36 C1331.99,660.16 1332.00,660.15 1333.40,661.00 C1334.80,662.14 1334.80,662.15 1336.16,663.32 C1337.02,664.26 1337.00,664.27 1337.84,665.22 C1338.28,665.72 1338.29,665.71 1338.72,666.22 C1339.84,667.87 1339.84,667.88 1340.94,669.54 "/><path d="M1324.32,658.75 C1324.44,659.40 1324.44,659.41 1324.51,660.06 C1324.32,661.79 1324.33,661.80 1324.07,663.51 C1323.48,665.33 1323.47,665.34 1322.80,667.13 C1321.84,668.86 1321.83,668.86 1320.82,670.56 C1320.35,671.14 1320.35,671.14 1319.85,671.69 "/><path d="M1340.94,669.54 C1341.85,671.32 1341.85,671.33 1342.71,673.13 C1343.35,674.95 1343.35,674.95 1343.94,676.79 C1344.28,678.56 1344.28,678.57 1344.57,680.35 C1344.59,681.21 1344.57,681.22 1344.57,682.08 C1344.57,682.85 1344.59,682.86 1344.57,683.63 C1344.28,685.04 1344.29,685.06 1343.94,686.46 C1343.36,687.59 1343.35,687.60 1342.71,688.70 "/><path d="M1338.72,691.00 C1337.45,691.01 1337.43,691.01 1336.16,690.94 C1334.78,690.55 1334.77,690.53 1333.40,690.08 C1332.71,689.71 1332.72,689.69 1332.05,689.30 C1331.30,688.87 1331.29,688.88 1330.56,688.44 C1329.17,687.29 1329.16,687.29 1327.79,686.11 C1326.50,684.68 1326.50,684.68 1325.24,683.21 C1324.11,681.57 1324.11,681.57 1323.02,679.89 "/><path d="M1341.98,689.34 C1341.48,688.91 1341.47,688.90 1340.94,688.51 C1339.35,687.82 1339.35,687.80 1337.73,687.17 C1335.86,686.78 1335.85,686.78 1333.96,686.46 C1331.98,686.42 1331.98,686.44 1330.00,686.46 C1329.27,686.58 1329.26,686.58 1328.53,686.73 "/><path d="M1291.51,703.08 L1287.18,700.58 L1287.18,648.85 L1331.98,726.45 L1291.51,703.08 "/><path d="M1287.18,648.85 L1331.98,622.99 L1369.43,687.86 L1376.78,700.58 L1331.98,726.45 "/><path d="M1321.25,660.74 L1323.02,659.20 L1325.24,658.44 "/><path d="M1340.94,669.54 L1323.02,679.89 L1321.25,676.31 L1320.02,672.65 "/><path d="M1319.39,666.75 L1319.66,666.31 L1320.52,663.59 L1320.52,662.07 "/><path d="M1342.71,688.70 L1340.94,690.24 L1338.72,691.00 "/><path d="M1332.52,689.57 L1335.24,689.99 L1337.33,690.97 "/></g></g><g id="Actor_.4"><g style="stroke:#000000;stroke-width:0.705"><path d="M1221.86,647.71 C1221.33,648.22 1221.33,648.22 1220.78,648.71 C1220.23,649.04 1220.23,649.05 1219.66,649.36 C1219.13,649.49 1219.12,649.49 1218.59,649.60 "/><path d="M1216.78,648.56 C1216.60,648.04 1216.60,648.03 1216.46,647.51 C1216.44,646.86 1216.44,646.85 1216.46,646.21 C1216.60,645.49 1216.61,645.49 1216.78,644.78 "/><path d="M1223.66,644.59 C1223.84,643.88 1223.84,643.87 1223.99,643.16 C1224.00,642.51 1224.01,642.50 1223.99,641.86 C1223.84,641.33 1223.84,641.33 1223.66,640.81 "/><path d="M1221.86,639.77 C1221.32,639.87 1221.31,639.87 1220.78,640.01 C1220.22,640.32 1220.21,640.32 1219.66,640.66 C1219.14,641.13 1219.15,641.15 1218.63,641.62 C1218.09,641.95 1218.08,641.96 1217.53,642.27 "/><path d="M1218.59,615.11 C1219.12,615.01 1219.13,615.01 1219.66,614.87 C1220.23,614.56 1220.23,614.56 1220.78,614.22 C1221.33,613.73 1221.31,613.71 1221.86,613.22 C1222.38,612.90 1222.38,612.90 1222.91,612.61 "/><path d="M1216.78,614.07 C1216.60,613.55 1216.60,613.55 1216.46,613.02 C1216.44,612.37 1216.44,612.37 1216.46,611.72 C1216.60,611.01 1216.61,611.00 1216.78,610.29 "/><path d="M1218.59,607.17 C1219.11,606.66 1219.12,606.66 1219.66,606.17 C1220.21,605.83 1220.22,605.83 1220.78,605.52 C1221.31,605.38 1221.33,605.42 1221.86,605.28 C1222.39,604.99 1222.40,604.99 1222.91,604.67 "/><path d="M1223.66,610.10 C1223.84,609.39 1223.84,609.39 1223.99,608.67 C1224.00,608.02 1224.01,608.02 1223.99,607.37 C1223.84,606.85 1223.84,606.84 1223.66,606.32 "/><path d="M1231.72,618.91 C1231.54,619.62 1231.54,619.63 1231.39,620.34 C1231.37,620.99 1231.37,621.00 1231.39,621.64 C1231.54,622.17 1231.54,622.17 1231.72,622.69 "/><path d="M1233.52,623.73 C1234.06,623.63 1234.06,623.63 1234.59,623.49 C1235.16,623.18 1235.17,623.18 1235.72,622.84 C1236.26,622.36 1236.27,622.35 1236.79,621.84 "/><path d="M1233.52,615.79 C1234.04,615.28 1234.05,615.28 1234.59,614.79 C1235.15,614.46 1235.15,614.45 1235.72,614.14 C1236.25,614.01 1236.26,614.04 1236.79,613.90 C1237.33,613.61 1237.33,613.61 1237.85,613.29 "/><path d="M1238.59,618.72 C1238.77,618.01 1238.77,618.01 1238.92,617.29 C1238.94,616.64 1238.94,616.64 1238.92,615.99 C1238.78,615.47 1238.77,615.46 1238.59,614.94 "/><path d="M1248.45,632.35 C1248.99,632.25 1249.00,632.25 1249.53,632.11 C1250.09,631.81 1250.10,631.80 1250.65,631.46 C1251.20,630.98 1251.18,630.95 1251.73,630.46 C1252.24,630.15 1252.25,630.15 1252.78,629.86 "/><path d="M1247.02,625.35 C1247.74,624.89 1247.75,624.89 1248.45,624.41 C1249.00,623.92 1248.98,623.90 1249.53,623.41 C1250.08,623.08 1250.08,623.07 1250.65,622.77 C1251.18,622.63 1251.19,622.63 1251.73,622.52 "/><path d="M1253.53,623.56 C1253.71,624.08 1253.71,624.09 1253.86,624.62 C1253.87,625.26 1253.87,625.27 1253.86,625.91 C1253.71,626.63 1253.71,626.63 1253.53,627.34 "/><path d="M1246.65,626.32 C1246.67,626.92 1246.67,626.93 1246.65,627.54 C1246.50,628.25 1246.47,628.25 1246.32,628.96 C1246.31,629.61 1246.31,629.62 1246.32,630.26 C1246.47,630.79 1246.47,630.80 1246.65,631.31 "/><path d="M1246.65,596.83 C1246.48,596.11 1246.47,596.10 1246.32,595.38 C1246.31,594.93 1246.31,594.92 1246.32,594.48 C1246.47,593.76 1246.47,593.76 1246.65,593.05 "/><path d="M1251.73,595.98 C1251.20,596.49 1251.20,596.49 1250.65,596.98 C1250.10,597.31 1250.09,597.32 1249.53,597.63 C1249.00,597.76 1248.98,597.73 1248.45,597.87 C1247.92,598.16 1247.91,598.16 1247.40,598.48 "/><path d="M1248.45,589.93 C1248.98,589.42 1248.98,589.41 1249.53,588.93 C1250.08,588.59 1250.08,588.59 1250.65,588.28 C1251.18,588.14 1251.19,588.14 1251.73,588.04 "/><path d="M1253.53,592.86 C1253.71,592.15 1253.71,592.14 1253.86,591.43 C1253.87,590.78 1253.87,590.77 1253.86,590.13 C1253.71,589.60 1253.71,589.59 1253.53,589.08 "/><path d="M1105.90,595.38 L1213.13,657.28 L1212.86,657.13 L1212.76,656.75 L376.49,173.93 L376.59,174.31 L1105.90,595.38 L1105.24,595.00 "/><path d="M376.49,173.93 L376.49,154.97 L1212.76,637.78 L1212.76,656.75 "/><path d="M1212.76,637.78 L1212.86,637.30 L1213.50,636.49 L1204.63,631.37 L377.24,153.67 L376.86,154.00 L376.49,154.97 "/><path d="M1213.50,636.49 L1215.29,635.46 L379.03,152.64 L379.40,152.54 L382.24,154.18 L379.40,152.54 "/><path d="M379.03,152.64 L377.24,153.67 "/><path d="M382.24,154.18 L1215.94,635.51 L1216.04,638.82 L1216.14,639.19 L1216.41,639.35 L1216.79,639.25 L1216.04,638.82 "/><path d="M636.87,293.54 L637.07,293.65 L376.59,143.27 L376.49,142.90 L1212.76,625.71 L1212.86,626.09 L1213.13,626.25 L1215.29,625.11 L1215.95,624.28 L1216.04,620.89 L1216.22,620.27 L1216.79,619.59 L1219.85,617.82 L1223.69,620.04 "/><path d="M1212.76,625.71 L1212.76,606.75 L376.49,123.93 L376.49,142.90 "/><path d="M376.49,123.93 L376.86,122.97 L377.24,122.64 L393.66,113.15 L1229.93,595.97 L1213.50,605.45 L377.24,122.64 "/><path d="M1213.95,625.89 L1223.51,631.40 L1223.51,634.51 L387.24,151.69 L387.14,152.18 L386.50,152.98 L1222.70,635.84 L1216.79,639.25 "/><path d="M386.50,152.98 L383.33,154.81 "/><path d="M387.24,151.69 L387.24,149.42 "/><path d="M393.66,113.15 L394.12,113.10 L398.46,115.61 L394.12,113.10 "/><path d="M398.46,115.61 L1116.32,530.06 "/><path d="M404.69,119.20 L407.03,117.73 L407.40,116.77 L1243.67,599.59 L1243.57,600.08 L1242.92,600.88 L406.66,118.07 "/><path d="M405.41,111.65 L403.37,110.48 L403.47,110.85 L1239.74,593.67 L1239.64,593.30 L405.41,111.65 "/><path d="M403.37,110.48 L403.47,107.92 L404.12,107.12 L420.54,97.63 L1256.76,580.42 L1240.38,589.93 L1240.01,590.27 L1239.64,591.23 L403.37,108.41 "/><path d="M404.12,107.12 L1240.38,589.93 "/><path d="M407.40,116.77 L407.40,113.12 "/><path d="M1256.76,580.42 L1257.18,580.35 L1257.46,580.51 L420.92,97.53 L420.54,97.63 "/><path d="M422.19,98.27 L420.92,97.53 "/><path d="M637.07,293.65 L666.02,310.37 L662.75,308.48 "/><path d="M666.02,310.37 L1213.13,626.25 "/><path d="M1111.97,527.55 L1230.30,595.87 L1229.93,595.97 "/><path d="M1210.42,655.72 L1212.86,657.13 "/><path d="M1210.42,632.33 L1215.67,635.36 L1215.29,635.46 "/><path d="M1213.13,657.28 L1230.27,647.40 L1230.68,646.41 L1230.58,643.96 L1230.30,643.81 L1229.93,643.91 L1226.64,642.01 "/><path d="M1215.94,635.51 L1215.67,635.36 "/><path d="M1223.51,631.40 L1223.59,631.01 L1224.11,630.37 L1215.15,625.20 "/><path d="M1212.86,626.09 L1210.42,624.68 "/><path d="M1224.11,630.37 L1226.20,629.16 L1216.04,623.30 "/><path d="M1212.76,606.75 L1212.86,606.26 L1213.50,605.45 "/><path d="M1217.53,650.21 L1216.78,649.78 L1216.78,648.56 L1218.59,649.60 L1217.16,650.31 L1216.88,650.15 L1216.78,649.78 "/><path d="M1216.78,643.56 L1222.91,647.10 L1223.29,646.77 L1223.66,645.81 L1217.53,642.27 L1216.88,643.07 L1216.78,644.78 L1221.86,647.71 L1222.91,647.10 "/><path d="M1218.52,641.62 L1223.66,644.59 "/><path d="M1223.66,640.81 L1221.86,639.77 L1222.91,639.16 L1223.66,639.59 L1223.66,640.81 "/><path d="M1216.35,620.03 L1227.69,626.58 L1227.69,619.68 L1226.20,618.82 L1223.81,620.10 L1223.59,619.98 L1223.51,619.68 L1220.07,617.70 "/><path d="M1218.59,615.11 L1217.53,615.72 L1216.78,615.29 L1216.78,614.07 L1218.59,615.11 "/><path d="M1222.91,612.61 L1216.78,609.07 L1216.78,610.29 L1221.86,613.22 "/><path d="M1216.78,615.29 L1216.88,615.66 L1217.16,615.82 L1217.53,615.72 "/><path d="M1219.85,617.82 L1222.76,616.14 L1223.51,616.58 L1223.51,619.68 "/><path d="M1223.66,611.32 L1223.66,610.10 L1218.59,607.17 L1217.53,607.78 L1223.66,611.32 L1223.29,612.28 L1222.91,612.61 "/><path d="M1222.91,604.67 L1223.66,605.10 L1223.66,606.32 L1221.86,605.28 "/><path d="M1217.53,607.78 L1217.16,608.11 L1216.78,609.07 "/><path d="M1226.64,644.94 L1226.74,645.31 L1227.02,645.47 L1227.39,645.37 L1226.64,644.94 L1226.64,641.62 L1230.30,643.81 "/><path d="M1226.64,641.62 L1226.74,637.55 L1227.39,636.75 L1230.38,634.93 L1230.68,634.16 L1230.68,631.75 L1230.88,630.77 L1231.42,629.83 L1242.92,636.41 L1240.38,637.87 L1230.68,632.27 "/><path d="M1227.39,645.37 L1229.93,643.91 "/><path d="M1223.66,645.81 L1223.66,644.59 "/><path d="M1222.91,639.16 L1223.29,639.06 L1223.56,639.22 L1223.66,639.59 "/><path d="M1222.70,635.84 L1223.13,635.47 L1223.51,634.51 "/><path d="M1226.20,629.16 L1226.94,628.50 L1227.49,627.55 L1227.69,626.58 "/><path d="M1227.69,619.68 L1227.49,618.93 L1226.94,618.62 L1226.20,618.82 "/><path d="M1223.59,619.98 L1222.01,619.07 "/><path d="M1223.51,616.58 L1223.41,616.20 L1223.13,616.04 L1222.76,616.14 "/><path d="M1230.30,595.87 L1230.58,596.03 L1230.68,596.40 L1230.58,598.96 L1229.93,599.76 L1227.39,601.23 L1226.74,602.03 L1226.64,609.42 L1227.39,609.85 L1227.02,609.95 L1226.74,609.79 L1226.64,609.42 "/><path d="M1227.39,609.85 L1230.08,608.30 L1226.64,606.32 "/><path d="M1223.66,605.10 L1223.56,604.73 L1223.29,604.57 L1222.91,604.67 "/><path d="M1226.81,601.93 L1238.14,608.47 L1232.17,611.92 L1231.42,612.12 L1230.88,611.80 L1230.68,611.06 L1232.17,611.92 "/><path d="M1226.64,606.06 L1230.53,608.31 L1230.08,608.30 "/><path d="M1246.80,605.71 L1256.76,611.46 L1257.18,611.39 L1257.46,611.55 L1257.56,630.89 L1257.18,631.85 L1240.01,641.76 L1239.74,641.61 L1239.64,641.23 L1229.63,635.46 "/><path d="M1239.74,641.61 L1229.36,635.61 "/><path d="M1230.68,633.99 L1239.64,639.16 L1239.64,641.23 "/><path d="M1232.77,628.82 L1243.67,635.11 L1243.43,635.84 L1242.92,636.41 "/><path d="M1232.35,624.28 L1232.46,624.34 L1232.09,624.44 L1231.82,624.28 L1231.72,623.91 L1232.35,624.28 "/><path d="M1236.05,626.92 L1239.64,628.99 L1239.64,626.58 L1238.14,625.71 L1232.17,629.16 L1231.42,629.83 "/><path d="M1232.46,624.34 L1233.52,623.73 L1231.72,622.69 L1231.72,623.91 "/><path d="M1233.59,618.78 L1231.72,617.69 L1231.72,618.91 L1236.79,621.84 L1237.85,621.23 L1233.59,618.78 "/><path d="M1231.72,617.69 L1232.09,616.73 L1233.52,615.79 L1238.59,618.72 L1238.59,619.94 L1232.46,616.40 "/><path d="M1237.85,613.29 L1238.59,613.72 L1238.49,613.35 L1238.22,613.19 L1237.85,613.29 "/><path d="M1230.38,608.22 L1228.16,606.94 "/><path d="M1230.68,611.06 L1230.68,608.64 L1230.53,608.31 "/><path d="M1238.14,608.47 L1238.89,607.81 L1239.38,606.96 L1239.64,605.88 L1229.48,600.02 "/><path d="M1230.68,598.30 L1239.64,603.47 L1239.72,603.08 L1240.23,602.44 L1230.68,596.92 "/><path d="M1238.14,625.71 L1238.89,625.51 L1239.38,625.80 L1239.64,626.58 "/><path d="M1235.83,627.05 L1239.93,629.42 L1242.92,627.78 L1243.67,628.21 L1243.67,635.11 "/><path d="M1238.59,614.94 L1236.79,613.90 "/><path d="M1238.59,619.94 L1238.22,620.90 L1237.85,621.23 "/><path d="M1238.59,613.72 L1238.59,614.94 "/><path d="M1239.64,639.16 L1239.74,638.68 L1240.38,637.87 "/><path d="M1243.67,628.21 L1243.57,627.84 L1243.29,627.68 L1242.92,627.78 "/><path d="M1239.64,628.99 L1239.72,629.29 "/><path d="M1243.56,618.50 L1244.12,618.82 L1243.37,619.02 L1242.82,618.70 L1242.62,617.95 L1243.56,618.50 "/><path d="M1244.12,618.82 L1246.21,617.61 L1242.62,615.54 "/><path d="M1247.55,621.49 L1247.18,621.59 L1246.90,621.43 L1246.80,621.06 L1247.55,621.49 L1253.52,618.04 L1242.62,611.75 "/><path d="M1242.62,617.95 L1242.62,611.06 L1242.82,610.08 L1254.27,616.75 L1254.17,617.24 L1253.52,618.04 "/><path d="M1242.62,615.29 L1246.51,617.53 L1246.21,617.61 "/><path d="M1244.56,608.21 L1254.27,613.82 L1254.27,616.75 "/><path d="M1257.18,611.39 L1246.80,605.40 L1246.80,606.23 L1246.51,607.00 L1244.12,608.47 L1243.37,609.13 L1242.82,610.08 "/><path d="M1240.23,602.44 L1242.92,600.88 "/><path d="M1239.64,603.47 L1239.64,605.88 "/><path d="M1243.67,592.69 L1242.92,592.26 L1243.29,592.16 L1243.57,592.32 L1243.67,592.69 L1243.67,599.59 "/><path d="M1239.74,593.67 L1240.01,593.83 L1240.38,593.73 L1242.92,592.26 "/><path d="M1239.64,593.30 L1239.64,591.23 "/><path d="M1247.40,632.96 L1248.45,632.35 L1246.65,631.31 L1246.75,632.91 L1247.02,633.06 L1247.40,632.96 L1246.65,632.53 "/><path d="M1252.78,629.86 L1246.65,626.32 L1247.02,625.35 "/><path d="M1251.73,622.52 L1253.53,623.56 "/><path d="M1253.53,627.34 L1248.45,624.41 "/><path d="M1247.40,625.02 L1253.53,628.56 L1253.53,627.34 "/><path d="M1246.65,627.54 L1251.73,630.46 "/><path d="M1246.80,621.06 L1246.80,617.95 L1246.72,617.66 L1246.51,617.53 "/><path d="M1246.06,607.35 L1255.02,612.52 L1254.37,613.33 L1254.27,613.82 "/><path d="M1257.46,580.51 L1257.46,600.34 L1257.18,600.81 L1256.76,601.11 L1254.64,602.28 L1254.37,602.12 L1254.27,601.75 L1250.97,599.86 L1247.18,602.16 L1246.80,603.13 L1246.80,605.40 "/><path d="M1248.45,597.87 L1246.65,596.83 "/><path d="M1246.65,593.05 L1251.73,595.98 "/><path d="M1247.40,598.48 L1246.65,598.05 L1246.65,596.83 "/><path d="M1250.97,599.86 L1253.52,598.38 L1254.27,598.81 L1254.27,601.75 "/><path d="M1246.65,598.05 L1246.75,598.42 L1247.02,598.58 L1247.40,598.48 "/><path d="M1250.71,600.01 L1254.64,602.28 "/><path d="M1251.73,595.98 L1252.77,595.38 L1246.65,591.83 L1246.65,593.05 "/><path d="M1247.40,590.54 L1253.53,594.07 L1253.53,592.86 L1248.45,589.93 L1247.02,590.87 L1246.65,591.83 "/><path d="M1251.73,588.04 L1253.53,589.08 L1253.43,587.48 L1253.15,587.33 L1252.78,587.43 L1253.53,587.86 "/><path d="M1252.78,629.86 L1253.15,629.52 L1253.53,628.56 "/><path d="M1253.53,622.35 L1252.78,621.91 L1253.15,621.81 L1253.43,621.97 L1253.53,623.56 "/><path d="M1252.78,621.91 L1251.73,622.52 "/><path d="M1255.02,612.52 L1256.76,611.46 "/><path d="M1256.76,611.14 L1257.46,611.55 "/><path d="M1254.37,602.12 L1252.70,601.16 "/><path d="M1254.27,598.81 L1254.17,598.44 L1253.90,598.28 L1253.52,598.38 "/><path d="M1252.77,595.38 L1253.15,595.04 L1253.53,594.07 "/><path d="M1251.73,588.04 L1252.78,587.43 "/><path d="M1256.76,580.10 L1257.18,580.35 "/></g></g><g id="Actor_.5"><g style="stroke:#000000;stroke-width:0.705"><path d="M1024.35,852.33 C1023.45,850.55 1023.44,850.54 1022.58,848.74 C1021.94,846.92 1021.94,846.92 1021.35,845.08 C1021.01,843.31 1021.01,843.30 1020.72,841.52 C1020.69,839.89 1020.69,839.88 1020.72,838.24 C1021.00,836.83 1021.00,836.81 1021.35,835.42 C1021.93,834.28 1021.94,834.27 1022.58,833.17 "/><path d="M1026.57,830.87 C1027.84,830.86 1027.86,830.86 1029.13,830.93 C1030.52,831.32 1030.53,831.33 1031.89,831.79 C1033.33,832.58 1033.33,832.59 1034.73,833.43 C1036.13,834.57 1036.14,834.58 1037.50,835.76 C1038.80,837.19 1038.80,837.19 1040.06,838.66 C1041.18,840.30 1041.19,840.31 1042.27,841.98 "/><path d="M1042.27,841.98 C1043.18,843.76 1043.18,843.76 1044.04,845.56 C1044.68,847.38 1044.69,847.39 1045.27,849.23 C1045.62,851.00 1045.62,851.00 1045.91,852.78 C1045.94,854.42 1045.94,854.43 1045.91,856.06 C1045.62,857.48 1045.62,857.49 1045.27,858.89 C1044.70,860.02 1044.69,860.04 1044.04,861.13 "/><path d="M1040.06,863.43 C1038.78,863.44 1038.77,863.44 1037.50,863.38 C1036.11,862.98 1036.10,862.98 1034.73,862.51 C1033.30,861.72 1033.30,861.72 1031.89,860.87 C1030.50,859.74 1030.49,859.73 1029.13,858.55 C1027.83,857.12 1027.83,857.11 1026.57,855.65 C1025.44,854.00 1025.44,854.00 1024.35,852.33 "/><path d="M1025.65,831.19 C1025.77,831.83 1025.78,831.84 1025.85,832.50 C1025.65,834.22 1025.66,834.23 1025.41,835.95 C1024.81,837.76 1024.80,837.77 1024.14,839.57 C1023.18,841.30 1023.16,841.29 1022.15,843.00 C1021.69,843.57 1021.68,843.58 1021.18,844.13 "/><path d="M1029.87,859.17 C1030.59,859.01 1030.60,859.01 1031.33,858.90 C1033.31,858.88 1033.32,858.86 1035.30,858.90 C1037.18,859.21 1037.19,859.21 1039.07,859.60 C1040.68,860.24 1040.68,860.25 1042.27,860.95 C1042.80,861.34 1042.81,861.34 1043.31,861.77 "/><path d="M1033.31,898.88 L988.51,873.02 L988.51,867.05 L988.51,821.29 L1033.31,795.42 L1078.11,873.02 L1048.26,890.25 L1033.31,898.88 L988.51,821.29 "/><path d="M1025.10,851.90 L1024.35,852.33 "/><path d="M1022.58,833.17 L1024.35,831.63 L1025.10,831.38 L1026.57,830.87 "/><path d="M1042.27,841.98 L1025.10,851.90 "/><path d="M1044.04,861.13 L1042.27,862.67 L1040.06,863.43 "/><path d="M1020.72,839.18 L1020.99,838.74 L1021.85,836.02 L1021.85,834.50 "/><path d="M1038.66,863.40 L1036.57,862.43 L1033.86,862.01 "/></g></g><g id="Actor_.6"><g style="stroke:#000000;stroke-width:0.705"><path d="M388.35,116.22 L399.42,109.83 L376.49,123.06 L376.49,174.79 L331.69,148.93 L334.52,147.30 "/><path d="M331.69,148.93 L336.18,146.34 "/><path d="M376.49,123.06 L335.91,146.50 L338.95,144.74 "/><path d="M347.49,139.81 L364.53,129.97 L364.45,130.02 "/><path d="M366.67,128.73 L367.53,128.24 L359.37,132.95 L364.86,129.78 L364.53,129.97 L364.77,129.83 "/><path d="M369.38,127.17 L370.66,126.43 L364.86,129.78 "/><path d="M367.53,128.24 L369.38,127.17 L366.73,128.70 "/><path d="M369.75,126.96 L369.38,127.17 L370.66,126.43 L369.75,126.96 "/><path d="M371.30,126.06 L370.66,126.43 L372.43,125.41 "/><path d="M370.66,126.43 L373.60,124.73 "/><path d="M377.53,122.47 L377.91,122.25 L375.07,123.88 L377.91,122.25 L377.53,122.47 "/><path d="M371.30,126.06 L370.66,126.43 L373.60,124.73 "/><path d="M370.66,126.43 L372.43,125.41 "/><path d="M376.49,174.79 L376.96,174.52 "/><path d="M377.91,122.25 L379.40,121.39 L378.36,121.98 "/><path d="M377.91,122.25 L379.40,121.39 L378.36,121.98 "/><path d="M382.11,119.82 L379.40,121.39 "/><path d="M382.11,119.82 L379.40,121.39 "/><path d="M388.41,116.18 L388.45,116.16 "/><path d="M389.41,115.61 L389.08,115.79 "/><path d="M399.61,109.71 L399.42,109.83 L405.41,106.37 L399.61,109.71 "/><path d="M405.41,106.37 L416.99,99.68 L414.55,101.09 "/><path d="M414.60,101.06 L416.99,99.68 L415.04,100.81 "/><path d="M418.63,98.73 L419.44,98.27 L416.99,99.68 "/><path d="M420.82,97.47 L421.29,97.20 L419.44,98.27 L421.29,97.20 L420.82,97.47 L421.29,97.20 L420.82,97.47 L421.29,97.20 L421.29,97.75 "/></g></g><g id="Actor_.7"><g style="stroke:#000000;stroke-width:0.705"><path d="M78.30,346.96 L77.82,347.23 L33.02,321.36 L75.29,296.96 L69.03,300.58 L53.81,309.36 "/><path d="M49.18,312.04 L57.92,306.99 "/><path d="M59.02,306.36 L58.14,306.87 "/><path d="M68.05,301.14 L68.86,300.67 L63.71,303.65 L65.23,302.77 L65.20,302.79 "/><path d="M71.08,299.39 L75.29,296.96 L69.03,300.58 "/><path d="M71.08,299.39 L75.29,296.96 L69.50,300.31 L76.41,296.32 L77.82,295.50 L70.78,299.57 "/><path d="M75.29,296.96 L79.04,294.80 L77.82,295.50 L77.82,347.23 "/><path d="M73.64,297.92 L75.29,296.96 "/><path d="M76.41,296.32 L79.04,294.80 L77.82,295.50 L79.45,294.56 "/><path d="M78.34,295.20 L77.82,295.50 L78.91,294.87 "/><path d="M75.29,296.96 L79.04,294.80 L77.82,295.50 L75.29,296.96 "/><path d="M76.41,296.32 L77.88,295.46 L77.82,295.50 "/><path d="M79.04,294.80 L79.85,294.33 "/><path d="M78.34,295.20 L77.88,295.46 L78.91,294.87 "/><path d="M79.04,294.80 L104.25,280.24 L89.70,288.64 "/><path d="M79.04,294.80 L79.85,294.33 "/><path d="M79.45,294.56 L79.04,294.80 L104.25,280.24 L99.06,283.24 "/><path d="M90.41,288.24 L91.64,287.52 "/><path d="M89.78,288.59 L89.81,288.58 "/><path d="M104.25,280.24 L109.08,277.46 L104.25,280.24 L105.18,279.71 L115.83,273.56 L109.08,277.46 "/><path d="M116.37,273.24 L119.09,271.68 L117.07,272.84 "/><path d="M115.83,273.56 L119.09,271.68 L118.91,271.78 "/><path d="M119.09,271.68 L122.62,269.64 L122.62,270.18 "/><path d="M121.62,270.21 L122.62,269.64 L122.15,269.91 "/></g></g><g id="paperID" visibility="hidden" opacity="0.00" transform="scale(0.000100)"><path style="stroke:#000000;stroke-width:0.500;fill:#e6e6e6;fill-rule:evenodd" d="M-2000.00,-2000.00L3500.00,-2000.00L3500.00,3000.00L-2000.00,3000.00zM0.00,0.00L1500.00,0.00L1500.00,1000.00L0.00,1000.00z"/><path style="fill:#000000;fill-opacity:0.118" d="M3.00,1000.00L1500.00,1000.00L1500.00,3.00L1503.00,3.00L1503.00,1003.00L3.00,1003.00z"/></g><g id="ToolTip" visibility="hidden" opacity="0" transform="translate(0,0)"><rect id="ToolTipShadow" opacity="0.20" fill="black" stroke="none" x="0" y="0" width="30" height="8"/><rect id="ToolTipBG" fill="#ffffe1" stroke="black" x="0" y="0" width="30" height="8"/><text xml:space="preserve" id="ToolTipText" fill="black" x="0" y="0" width="30" height="8">tooltip</text></g></g></svg>
