<?xml version="1.0" encoding="UTF-8" standalone="no"?>
<svg xmlns="http://www.w3.org/2000/svg" xmlns:xlink="http://www.w3.org/1999/xlink" width="841.000mm" height="1189.000mm" viewBox="0.000000 0.000000 841.000000 1189.000000" stroke-linejoin="round" stroke-linecap="round" fill="none" fill-rule="evenodd"><desc>Composer Export</desc><script type="text/ecmascript"><![CDATA[
if(typeof(top) != "undefined")
{
	top.ShowPaper = ShowPaper;
}
function ShowHotSpot(evt,hotspotid)
{
	var svgDocument = evt.target.ownerDocument;
	var strId = "hotspot."+hotspotid;
	var hotspot = svgDocument.getElementById(strId);
	if(hotspot)
		hotspot.setAttribute("opacity",".5");
}
function HideHotSpot(evt,hotspotid)
{
	var svgDocument = evt.target.ownerDocument;
	var strId = "hotspot."+hotspotid;
	var hotspot = svgDocument.getElementById(strId);
	if(hotspot)
		hotspot.setAttribute("opacity","0");

	var toolTip = svgDocument.getElementById('ToolTip');
	if(toolTip)
		toolTip.setAttribute("visibility","hidden");
}
function ShowToolTip(evt,hotspotid,strTooltip)
{
	if(strTooltip=="")
	return;

	// change text
	var svgDocument = evt.target.ownerDocument;
	var tiptext = svgDocument.getElementById('ToolTipText');
	if( !tiptext )
	return;
	tiptext.firstChild.nodeValue = " " + strTooltip + "  " ;

	// show tooltip before, else some refresh issue

	var toolTip = svgDocument.getElementById('ToolTip');
	if(!toolTip)
	return;

	toolTip.setAttribute("visibility","visible");
	toolTip.setAttribute("opacity",".95");

	// move tooltip
	// get viewbox

	var root = svgDocument.documentElement;
	var vbox = (root.getAttribute("viewBox")).split(' ');
	var x0 = parseFloat(vbox[0]);
	var y0 = parseFloat(vbox[1]);
	var vboxW = parseFloat(vbox[2]);
	var vboxH = parseFloat(vbox[3]);

	// get default width of svg

	var strW = root.getAttribute("width");
	var svgW = parseFloat(strW);
	if(strW.indexOf('mm') != -1)
	svgW *= 3.779;

	var strH = root.getAttribute("height");
	var svgH = parseFloat(strH);
	if(strH.indexOf('mm') != -1)
	svgH *= 3.779;  	// 96 dpi  -> 96/25.4 = 3.779

	// update the viewbox / width / height if svg is embedded in html with zoom fit all
	var realx0 = x0;
	var realy0 = y0;
	var realvboxW = vboxW;
	var realvboxH = vboxH;
	var realsvgW = svgW;
	var realsvgH = svgH;

	if ((typeof(top) == "undefined") || (typeof(top.svgctl1) != "undefined")) // embedded in html
	{
		// get window size in pxl

		svgW = window.innerWidth;
		svgH = window.innerHeight;

		// calculate real viewbox

		realsvgW = svgW;
		realsvgH = svgH;
		if((svgW / svgH) > (vboxW / vboxH))
		{
			realvboxW = (vboxH * svgW) / svgH;
			realvboxH = vboxH;
			realx0 = x0 - (realvboxW - vboxW)/2 ;
		}
		else
		{
			realvboxH = (vboxW * svgH) / svgW;
			realvboxW = vboxW;
			realy0 = y0 - (realvboxH - vboxH)/2 ;
		}
	}

	// get user zoom/pan

	var newScale = root.currentScale;
	var translation = root.currentTranslate;

	// transform pxl to user unit

	var xPos = (((evt.clientX+10- translation.x)/newScale) * realvboxW)/realsvgW  + realx0 ;
	var yPos = (((evt.clientY+5- translation.y)/newScale) * realvboxH)/ realsvgH  + realy0 ;
	var scaleForWidth = ( (1 / newScale) * realvboxH) / realsvgH;

	// move tooltip

	toolTip.setAttribute("transform", "translate(" + xPos + "," + yPos + ")" );

	// resize tooltip

	var fontsize = 12;
	tiptext.setAttribute("font-size",fontsize*scaleForWidth);
	tiptext.setAttribute("y", fontsize*scaleForWidth);
	var tipBG = svgDocument.getElementById('ToolTipBG');
	var outline = tiptext.getBBox();
	if(tipBG)
	{
		tipBG.setAttribute("stroke-width", 1*scaleForWidth);
		tipBG.setAttribute("width", Number(outline.width) );
		tipBG.setAttribute("height", Number(outline.height) + fontsize*.5*scaleForWidth );
	}
	var ToolTipShadow = svgDocument.getElementById('ToolTipShadow');
	if(ToolTipShadow)
	{
		ToolTipShadow.setAttribute("width", Number(outline.width) );
		ToolTipShadow.setAttribute("height", Number(outline.height) + fontsize*.5*scaleForWidth );
		ToolTipShadow.setAttribute("x", 3*scaleForWidth);
		ToolTipShadow.setAttribute("y", 3*scaleForWidth);
	}
}
function ShowPaper()
{
  var svgDocument = getDocument();
  var paper = svgDocument.getElementById("paperID");
  if(paper)
  {
    paper.setAttribute("transform","scale(1)");
    paper.setAttribute("opacity","1");
    paper.setAttribute("visibility","visible");
  }
  var svg = svgDocument.getRootElement();
  if(svg)
  {
    svg.setAttribute("width","851.000mm");
    svg.setAttribute("height","1199.000mm");
    svg.setAttribute("viewBox","-5.000000 -5.000000 851.000000 1199.000000");
  }
}
]]></script><defs/><g><path style="fill:#ffffff" d="M841.07,1188.81L0.26,1188.81L0.26,0.26L841.07,0.26z"/><path style="fill:#97fa98" d="M193.19,375.29L192.37,382.80L193.75,383.26L196.05,383.79L197.09,383.01L198.03,379.36L199.79,379.06L210.57,385.30L211.29,473.37L211.29,1135.94L210.57,1152.39L200.41,1158.33L198.03,1158.34L197.12,1154.69L194.65,1153.69L193.58,1147.49L193.19,1162.41L183.50,1168.12L181.13,1168.12L171.45,1162.41L171.34,1147.49L169.98,1153.69L167.52,1154.69L166.61,1158.34L164.23,1158.33L154.45,1152.90L153.65,1087.00L147.33,1082.65L147.35,1066.95L151.57,1064.03L152.69,1063.41L152.83,1061.98L153.50,587.11L152.17,587.14L147.33,584.61L147.38,568.05L152.32,560.53L153.62,559.16L154.45,384.80L164.84,379.06L166.09,379.01L166.97,379.95L167.55,383.01L168.59,383.79L170.89,383.26L172.26,382.80L171.45,375.29L181.73,369.29L182.91,369.29z"/><path style="fill:#000020" d="M752.85,60.27L751.84,60.00L752.98,52.70z"/><path style="fill:#000020" d="M752.39,72.01L750.01,71.39L752.03,71.37z"/><path style="fill:#000020" d="M752.98,87.82L752.39,72.01L753.03,72.31z"/><path style="fill:#000020" d="M172.26,382.80L170.89,383.26L171.45,375.29z"/><path style="fill:#000020" d="M193.75,383.26L192.37,382.80L193.19,375.29L193.61,375.55z"/><path style="fill:#000020" d="M712.07,738.83L711.92,264.34L712.81,264.21z"/><path style="fill:#000020" d="M152.83,1061.98L152.17,587.14L153.50,587.11z"/><path style="fill:#000020" d="M194.65,1153.69L193.19,1162.41L193.58,1147.49z"/><path style="fill:#000020" d="M169.98,1153.69L171.34,1147.49L171.45,1162.41z"/><g id="Actor_.0"><g style="stroke:#000000;stroke-width:0.353"><path d="M153.38,559.73 C153.30,559.78 153.30,559.78 153.21,559.83 C153.13,559.89 153.13,559.89 153.05,559.95 C152.97,560.02 152.97,560.02 152.89,560.09 C152.81,560.16 152.81,560.16 152.73,560.24 C152.65,560.32 152.65,560.32 152.58,560.40 C152.50,560.48 152.50,560.48 152.43,560.57 C152.36,560.66 152.36,560.66 152.29,560.75 C152.23,560.85 152.23,560.85 152.16,560.94 C152.10,561.04 152.10,561.04 152.04,561.14 "/><path d="M147.46,569.07 C147.41,569.17 147.41,569.17 147.35,569.28 C147.30,569.38 147.30,569.38 147.25,569.49 C147.20,569.59 147.20,569.59 147.16,569.70 C147.12,569.81 147.12,569.81 147.08,569.91 C147.05,570.02 147.05,570.02 147.02,570.13 C147.00,570.23 147.00,570.23 146.97,570.34 C146.95,570.44 146.95,570.44 146.94,570.54 C146.92,570.64 146.92,570.64 146.91,570.75 C146.91,570.84 146.91,570.84 146.91,570.94 "/><path d="M146.91,583.17 C146.91,583.26 146.91,583.26 146.91,583.36 C146.92,583.44 146.92,583.44 146.94,583.53 C146.95,583.62 146.95,583.62 146.97,583.70 C147.00,583.78 147.00,583.78 147.02,583.85 C147.05,583.92 147.05,583.92 147.08,583.99 C147.12,584.06 147.12,584.06 147.16,584.12 C147.20,584.17 147.20,584.17 147.25,584.23 C147.30,584.27 147.30,584.27 147.35,584.32 C147.41,584.36 147.41,584.36 147.46,584.40 "/><path d="M152.39,587.24 C152.45,587.27 152.45,587.27 152.51,587.30 C152.58,587.32 152.58,587.32 152.64,587.34 C152.71,587.35 152.71,587.35 152.78,587.36 C152.86,587.37 152.86,587.37 152.93,587.37 C153.01,587.36 153.01,587.36 153.08,587.35 C153.16,587.34 153.16,587.34 153.24,587.32 C153.32,587.29 153.32,587.29 153.40,587.27 C153.48,587.23 153.49,587.23 153.57,587.20 "/><path d="M147.24,568.94 C147.21,569.01 147.21,569.01 147.17,569.07 C147.14,569.13 147.14,569.13 147.11,569.19 C147.09,569.26 147.09,569.26 147.06,569.32 C147.04,569.38 147.04,569.38 147.01,569.45 C146.99,569.51 146.99,569.51 146.98,569.58 C146.96,569.64 146.96,569.64 146.95,569.70 C146.93,569.76 146.93,569.76 146.92,569.83 C146.92,569.89 146.92,569.89 146.91,569.95 C146.91,570.01 146.91,570.00 146.91,570.06 "/><path d="M151.84,586.20 C151.85,586.29 151.85,586.29 151.86,586.38 C151.88,586.46 151.88,586.46 151.90,586.55 C151.92,586.62 151.92,586.62 151.95,586.70 "/><path d="M151.95,586.70 C151.98,586.77 151.98,586.77 152.01,586.84 C152.05,586.90 152.05,586.90 152.09,586.96 C152.13,587.02 152.13,587.02 152.18,587.07 C152.21,587.11 152.21,587.11 152.25,587.14 "/><path d="M152.28,572.12 C152.23,572.23 152.23,572.23 152.18,572.33 C152.13,572.44 152.13,572.44 152.09,572.55 C152.05,572.65 152.05,572.65 152.01,572.76 C151.98,572.87 151.98,572.87 151.95,572.97 C151.92,573.08 151.92,573.08 151.90,573.18 C151.88,573.29 151.88,573.29 151.86,573.39 C151.85,573.49 151.85,573.49 151.84,573.59 C151.84,573.69 151.84,573.69 151.84,573.79 "/><path d="M152.62,560.17 C152.57,560.20 152.57,560.20 152.52,560.23 C152.47,560.26 152.47,560.26 152.42,560.30 C152.38,560.34 152.38,560.34 152.33,560.38 C152.28,560.43 152.28,560.43 152.23,560.47 C152.19,560.52 152.19,560.52 152.14,560.57 C152.10,560.62 152.10,560.62 152.05,560.67 C152.01,560.73 152.01,560.73 151.97,560.78 C151.93,560.84 151.93,560.84 151.89,560.90 C151.85,560.96 151.85,560.96 151.82,561.02 "/><path d="M154.01,560.09 L153.38,559.73 "/><path d="M152.04,561.14 L151.82,561.02 L147.24,568.94 L147.46,569.07 "/><path d="M146.91,570.94 L146.91,580.00 L146.91,583.17 "/><path d="M147.46,584.40 L152.39,587.24 "/><path d="M153.57,587.20 L154.01,586.94 "/><path d="M146.91,583.17 L151.84,586.02 L154.01,586.02 "/><path d="M146.91,570.06 L146.91,570.94 L151.84,573.79 L154.01,573.79 "/><path d="M146.91,570.06 L146.91,570.08 "/><path d="M154.01,562.28 L152.04,561.14 L147.46,569.07 L152.39,571.92 L152.28,572.12 L154.01,572.98 "/><path d="M154.01,586.10 L151.84,586.20 "/><path d="M151.95,586.70 L154.01,586.32 "/><path d="M151.90,586.55 L154.01,586.25 "/><path d="M152.25,587.14 L152.28,587.17 L152.39,587.24 L154.01,586.63 "/><path d="M151.86,586.38 L154.01,586.17 "/><path d="M151.84,573.79 L151.84,586.02 L151.84,586.20 "/><path d="M152.01,586.84 L154.01,586.38 "/><path d="M152.09,586.96 L154.01,586.45 "/><path d="M152.18,587.07 L154.01,586.51 "/><path d="M152.01,572.76 L154.01,573.33 "/><path d="M151.95,572.97 L154.01,573.43 "/><path d="M154.01,573.52 L151.90,573.18 "/><path d="M151.86,573.39 L154.01,573.62 "/><path d="M154.01,573.70 L151.84,573.59 "/><path d="M152.18,572.33 L154.01,573.10 "/><path d="M152.09,572.55 L154.01,573.22 "/><path d="M152.64,560.16 L154.01,559.36 L152.62,560.17 "/><path d="M152.93,587.37 L154.01,586.83 "/><path d="M152.64,587.34 L154.01,586.73 "/><path d="M153.40,587.27 L154.01,586.93 "/><path d="M152.78,587.36 L154.01,586.78 "/><path d="M153.08,587.35 L154.01,586.87 "/><path d="M153.24,587.32 L154.01,586.90 "/><path d="M154.01,586.68 L152.51,587.30 "/><path d="M153.57,587.20 L153.73,587.11 L154.01,586.95 L153.73,587.11 "/><path d="M152.28,587.17 L154.01,586.57 "/><path d="M154.01,569.11 L152.39,571.92 L154.01,572.85 "/></g></g><g id="Actor_.1"><g style="stroke:#000000;stroke-width:0.353"><path d="M152.59,1061.52 L152.59,1060.92 L152.59,1061.52 L153.55,1062.08 L154.01,1061.92 "/><path d="M153.55,1062.08 L153.55,587.20 "/><path d="M152.59,587.33 L152.59,1060.92 "/></g></g><g id="Actor_.2"><g style="stroke:#000000;stroke-width:0.353"><path d="M148.80,1065.90 C148.72,1065.95 148.72,1065.95 148.64,1066.00 C148.56,1066.06 148.55,1066.06 148.47,1066.12 C148.39,1066.19 148.39,1066.19 148.31,1066.26 C148.23,1066.33 148.23,1066.33 148.15,1066.41 C148.08,1066.49 148.08,1066.49 148.00,1066.57 C147.93,1066.65 147.93,1066.65 147.86,1066.74 C147.78,1066.83 147.78,1066.83 147.71,1066.92 C147.65,1067.02 147.65,1067.02 147.58,1067.12 C147.52,1067.21 147.52,1067.21 147.46,1067.31 C147.41,1067.42 147.41,1067.42 147.35,1067.52 C147.30,1067.63 147.30,1067.63 147.25,1067.73 C147.20,1067.84 147.20,1067.84 147.16,1067.94 C147.12,1068.05 147.12,1068.05 147.08,1068.16 C147.05,1068.26 147.05,1068.26 147.02,1068.37 C147.00,1068.47 147.00,1068.47 146.97,1068.58 C146.95,1068.68 146.95,1068.68 146.94,1068.79 C146.92,1068.89 146.92,1068.89 146.91,1068.99 C146.91,1069.09 146.91,1069.09 146.91,1069.18 "/><path d="M146.91,1081.41 C146.91,1081.51 146.91,1081.51 146.91,1081.60 C146.92,1081.69 146.92,1081.69 146.94,1081.78 C146.95,1081.86 146.95,1081.86 146.97,1081.94 C147.00,1082.02 147.00,1082.02 147.02,1082.10 C147.05,1082.17 147.05,1082.17 147.08,1082.24 C147.12,1082.30 147.12,1082.30 147.16,1082.36 C147.20,1082.42 147.20,1082.42 147.25,1082.47 C147.30,1082.52 147.30,1082.52 147.35,1082.56 C147.41,1082.60 147.41,1082.60 147.46,1082.64 "/><path d="M151.84,1084.26 C151.84,1084.35 151.84,1084.35 151.84,1084.45 C151.85,1084.53 151.85,1084.53 151.86,1084.62 C151.88,1084.71 151.88,1084.71 151.90,1084.79 C151.92,1084.86 151.93,1084.87 151.95,1084.94 "/><path d="M148.04,1066.34 C148.00,1066.37 148.00,1066.37 147.95,1066.40 C147.90,1066.44 147.90,1066.44 147.85,1066.47 C147.80,1066.51 147.80,1066.51 147.75,1066.55 C147.70,1066.60 147.70,1066.60 147.66,1066.64 C147.61,1066.69 147.61,1066.69 147.56,1066.74 C147.52,1066.79 147.52,1066.79 147.48,1066.84 C147.43,1066.90 147.43,1066.90 147.39,1066.95 C147.35,1067.01 147.35,1067.01 147.31,1067.07 C147.28,1067.13 147.28,1067.13 147.24,1067.19 C147.21,1067.25 147.21,1067.25 147.17,1067.31 C147.14,1067.37 147.14,1067.37 147.11,1067.44 C147.09,1067.50 147.09,1067.50 147.06,1067.56 C147.04,1067.63 147.04,1067.63 147.01,1067.69 C146.99,1067.76 146.99,1067.76 146.98,1067.82 C146.96,1067.88 146.96,1067.88 146.95,1067.95 C146.93,1068.01 146.93,1068.01 146.92,1068.07 C146.92,1068.13 146.92,1068.13 146.91,1068.19 C146.91,1068.25 146.91,1068.26 146.91,1068.32 "/><path d="M152.39,1085.49 C152.34,1085.45 152.34,1085.45 152.28,1085.41 C152.23,1085.36 152.23,1085.36 152.18,1085.32 C152.13,1085.26 152.13,1085.26 152.09,1085.21 C152.05,1085.15 152.05,1085.15 152.02,1085.08 C151.98,1085.01 151.98,1085.01 151.95,1084.94 "/><path d="M151.84,1072.03 C151.84,1071.93 151.84,1071.93 151.84,1071.83 C151.85,1071.73 151.85,1071.73 151.86,1071.63 C151.88,1071.53 151.88,1071.53 151.90,1071.43 "/><path d="M151.90,1071.43 C151.92,1071.32 151.92,1071.32 151.95,1071.22 C151.98,1071.11 151.98,1071.11 152.01,1071.00 C152.05,1070.90 152.05,1070.90 152.09,1070.79 C152.13,1070.68 152.13,1070.68 152.18,1070.58 C152.23,1070.47 152.23,1070.47 152.28,1070.37 "/><path d="M152.93,1069.41 C152.86,1069.50 152.86,1069.50 152.78,1069.59 C152.71,1069.68 152.71,1069.68 152.64,1069.77 C152.58,1069.87 152.58,1069.87 152.51,1069.96 "/><path d="M154.01,1069.23 L153.73,1068.75 L148.80,1065.90 L149.06,1065.75 L148.04,1066.34 L148.80,1065.90 "/><path d="M146.91,1069.18 L146.91,1081.41 "/><path d="M147.46,1082.64 L152.04,1085.29 "/><path d="M146.91,1081.41 L151.84,1084.26 "/><path d="M151.95,1084.94 L154.01,1084.56 "/><path d="M146.91,1068.31 L146.91,1069.18 L151.84,1072.03 L151.84,1084.26 L154.01,1084.26 "/><path d="M149.83,1084.01 L152.39,1085.49 "/><path d="M149.06,1065.75 L154.01,1062.89 "/><path d="M152.18,1085.32 L154.01,1084.76 "/><path d="M152.09,1085.21 L154.01,1084.69 "/><path d="M151.69,1085.08 L152.25,1085.40 L152.04,1085.28 "/><path d="M152.25,1085.40 L154.01,1086.42 L152.25,1085.40 "/><path d="M152.02,1085.08 L154.01,1084.63 "/><path d="M151.84,1084.45 L154.01,1084.34 "/><path d="M151.90,1084.79 L154.01,1084.49 "/><path d="M151.86,1084.62 L154.01,1084.42 "/><path d="M154.01,1072.03 L151.84,1072.03 "/><path d="M151.90,1071.43 L154.01,1071.77 "/><path d="M151.84,1071.83 L154.01,1071.95 "/><path d="M152.28,1070.37 L154.01,1071.23 "/><path d="M152.09,1070.79 L154.01,1071.46 "/><path d="M151.86,1071.63 L154.01,1071.86 "/><path d="M152.01,1071.00 L154.01,1071.57 "/><path d="M151.95,1071.22 L154.01,1071.67 "/><path d="M152.18,1070.58 L154.01,1071.35 "/><path d="M154.01,1084.87 L152.39,1085.49 L154.01,1086.42 "/><path d="M152.28,1085.41 L154.01,1084.82 "/><path d="M154.01,1070.46 L152.93,1069.41 "/><path d="M152.51,1069.96 L154.01,1070.96 "/><path d="M154.01,1070.64 L152.78,1069.59 "/><path d="M152.64,1069.77 L154.01,1070.80 "/><path d="M152.51,1069.96 L152.39,1070.16 L154.01,1071.10 "/><path d="M154.01,1068.59 L153.73,1068.75 L153.57,1068.85 L154.01,1069.53 "/><path d="M152.93,1069.41 L153.08,1069.25 L153.24,1069.10 L154.01,1070.05 "/><path d="M153.08,1069.25 L154.01,1070.26 "/><path d="M153.24,1069.10 L153.40,1068.97 L153.57,1068.85 "/><path d="M153.40,1068.97 L154.01,1069.80 "/><path d="M152.39,1070.16 L152.28,1070.37 "/></g></g><g id="Actor_.3"><g style="stroke:#000000;stroke-width:0.353"><path d="M164.22,406.86 C164.12,407.37 164.12,407.37 164.05,407.89 C164.12,408.68 164.12,408.69 164.22,409.48 C164.43,410.16 164.43,410.16 164.67,410.82 "/><path d="M166.91,410.28 C166.60,409.28 166.60,409.28 166.31,408.28 C166.21,407.67 166.21,407.67 166.14,407.07 C166.17,406.53 166.16,406.53 166.22,406.00 C166.45,405.37 166.45,405.37 166.72,404.75 "/><path d="M165.11,379.29 C164.72,379.42 164.71,379.42 164.33,379.58 C160.70,381.66 160.71,381.67 157.08,383.76 C155.64,384.60 155.64,384.60 154.21,385.43 "/><path d="M163.69,387.95 C164.00,387.75 164.01,387.75 164.33,387.57 C164.93,387.35 164.94,387.37 165.53,387.15 C165.87,386.92 165.87,386.91 166.19,386.67 C166.32,386.52 166.32,386.52 166.43,386.36 "/><path d="M162.93,388.02 C162.50,387.78 162.50,387.78 162.07,387.56 C161.59,387.40 161.58,387.42 161.10,387.25 C160.73,387.03 160.72,387.03 160.36,386.79 C160.17,386.58 160.17,386.58 159.99,386.36 "/><path d="M164.63,1143.93 C164.45,1143.32 164.45,1143.32 164.28,1142.70 C164.21,1142.12 164.21,1142.12 164.16,1141.54 C164.21,1141.03 164.21,1141.02 164.28,1140.51 C164.44,1140.10 164.45,1140.09 164.63,1139.69 "/><path d="M166.72,1138.35 C166.49,1138.99 166.49,1138.99 166.30,1139.63 C166.26,1140.17 166.26,1140.18 166.26,1140.71 C166.57,1142.15 166.57,1142.16 166.92,1143.59 "/><path d="M191.52,376.89 C191.73,376.84 191.73,376.84 191.94,376.78 C192.51,376.46 192.51,376.45 193.07,376.12 C193.16,376.04 193.16,376.04 193.25,375.95 "/><path d="M171.10,375.95 C171.18,376.04 171.18,376.04 171.27,376.12 C171.84,376.45 171.84,376.46 172.41,376.78 C172.61,376.84 172.61,376.84 172.82,376.89 "/><path d="M171.07,395.55 C171.03,402.07 171.03,402.54 171.08,409.52 C171.27,410.53 171.34,410.53 171.56,411.54 C171.58,412.41 171.58,412.45 171.55,413.29 "/><path d="M171.27,414.11 C171.22,49.41 171.22,778.82 171.27,1143.52 C171.45,1144.53 171.52,1144.53 171.73,1145.54 C171.73,1146.08 171.72,1146.08 171.69,1146.62 C171.62,1146.93 171.62,1146.93 171.53,1147.24 "/><path d="M182.45,388.02 C183.37,387.65 183.37,387.65 184.28,387.25 C184.66,387.03 184.66,387.03 185.02,386.79 C185.21,386.58 185.22,386.58 185.39,386.36 "/><path d="M193.07,1147.92 C192.89,1147.43 192.88,1147.43 192.72,1146.94 C192.65,1146.43 192.65,1146.43 192.60,1145.92 C192.65,1145.34 192.65,1145.34 192.72,1144.75 C192.89,1144.14 192.89,1144.13 193.07,1143.52 "/><path d="M193.07,414.37 C192.88,413.96 192.88,413.96 192.72,413.54 C192.65,413.03 192.65,413.03 192.60,412.51 C192.65,411.94 192.65,411.93 192.72,411.36 C192.94,410.57 192.96,410.57 193.19,409.78 C193.23,409.46 193.23,409.46 193.26,409.14 "/><path d="M197.98,1139.31 C198.05,1139.82 198.05,1139.83 198.10,1140.34 C198.05,1140.92 198.05,1140.92 197.98,1141.50 C197.71,1142.56 197.71,1142.57 197.43,1143.63 "/><path d="M197.43,1135.83 C197.37,1498.65 197.37,773.00 197.43,410.18 C197.65,409.14 197.71,409.14 197.98,408.10 C198.05,407.52 198.05,407.52 198.10,406.93 C198.05,406.42 198.05,406.42 197.98,405.91 "/><path d="M199.64,406.20 C199.86,406.65 199.87,406.65 200.06,407.12 C200.14,407.62 200.13,407.63 200.18,408.14 C200.13,408.72 200.13,408.72 200.06,409.30 C199.90,409.92 199.90,409.92 199.71,410.54 "/><path d="M199.71,1139.69 C199.90,1140.09 199.90,1140.10 200.06,1140.51 C200.14,1141.03 200.13,1141.03 200.18,1141.54 C200.13,1142.12 200.13,1142.13 200.06,1142.70 C199.90,1143.32 199.90,1143.32 199.71,1143.93 "/><path d="M166.34,404.95 L164.63,406.07 L164.22,406.86 "/><path d="M164.67,410.82 L164.63,1139.69 L165.11,1139.22 L166.75,1138.26 L166.65,410.83 L166.88,410.59 L166.91,410.28 "/><path d="M166.72,404.75 L165.58,405.38 L165.58,391.99 L165.05,392.11 L164.63,391.99 L154.21,385.97 L154.21,1152.21 L164.68,1158.26 L165.44,1158.29 L166.71,1157.58 L166.72,1144.09 L165.40,1144.76 L165.01,1144.55 L164.63,1143.93 L164.68,1158.26 "/><path d="M154.03,1151.84 L154.03,1152.04 L154.21,1152.21 "/><path d="M154.01,1151.94 L154.01,385.70 L154.21,385.97 "/><path d="M165.07,381.56 L165.11,382.09 L164.93,381.91 L164.97,381.65 L166.72,380.61 L166.92,380.34 L166.83,380.14 L165.54,379.38 L165.11,379.29 "/><path d="M154.21,385.43 L154.01,385.70 "/><path d="M159.99,385.04 L159.99,386.36 L159.21,385.89 L159.12,385.70 L159.21,385.51 L159.99,385.04 L160.89,384.25 L162.07,383.84 L162.83,383.41 L163.38,383.35 L163.69,383.45 L163.69,387.95 "/><path d="M166.43,386.36 L166.43,385.04 L167.21,385.51 L167.30,385.70 L167.21,385.89 L166.43,386.36 "/><path d="M159.32,385.43 L159.32,385.97 "/><path d="M163.69,387.95 L162.93,388.02 "/><path d="M162.74,387.95 L162.74,383.45 "/><path d="M162.07,387.56 L162.07,383.84 "/><path d="M164.33,387.57 L164.36,383.84 L163.69,383.45 "/><path d="M165.54,1158.26 L165.58,1144.74 "/><path d="M166.71,1157.58 L166.91,1157.24 "/><path d="M166.72,1144.09 L166.92,1143.59 L166.91,1157.34 "/><path d="M166.72,1138.49 L166.88,1138.26 L165.41,1139.02 "/><path d="M165.58,1138.92 L165.58,411.48 L165.05,411.35 L164.67,410.82 "/><path d="M165.50,1138.97 L166.75,1138.26 L165.19,1139.17 "/><path d="M166.75,1138.26 L166.92,1138.18 L166.88,1138.26 "/><path d="M166.65,410.83 L165.58,411.48 "/><path d="M164.63,406.07 L164.63,391.99 "/><path d="M166.72,404.87 L166.81,404.76 L166.72,404.75 L166.72,391.34 L165.58,391.99 "/><path d="M165.41,405.48 L165.22,405.59 L166.81,404.76 L165.12,405.66 "/><path d="M165.49,405.43 L165.58,405.38 "/><path d="M165.11,389.86 L165.11,389.31 L164.93,389.49 L165.00,389.78 L166.83,390.87 L166.89,391.16 L166.72,391.34 "/><path d="M165.11,389.31 L168.99,387.08 L169.43,387.01 L169.85,387.12 L169.85,1153.36 L171.07,1154.07 "/><path d="M166.43,385.04 L165.53,384.25 L164.36,383.84 "/><path d="M165.11,382.09 L166.75,383.04 L166.72,380.61 "/><path d="M166.92,1154.51 L168.99,1153.32 L169.43,1153.25 L169.85,1153.36 "/><path d="M168.90,1153.36 L168.90,387.12 "/><path d="M166.92,1138.18 L166.91,410.39 "/><path d="M166.92,391.06 L166.92,403.58 L166.81,404.76 "/><path d="M188.43,375.85 L188.50,383.88 L184.75,381.65 L184.63,381.25 L184.75,380.99 L186.34,380.01 L186.50,379.76 L184.53,378.50 L184.46,378.21 L188.62,375.77 L189.29,375.80 L190.99,376.78 L191.52,376.89 "/><path d="M193.25,375.95 L193.25,375.75 L182.34,369.45 L181.70,369.55 L171.10,375.75 L171.10,375.95 "/><path d="M172.82,376.89 L173.36,376.78 L175.06,375.80 L175.72,375.77 L179.71,378.04 L179.71,378.58 L177.86,379.71 L178.00,380.01 L178.00,382.63 L175.05,384.24 L173.92,384.18 L172.31,383.29 L171.93,383.20 L171.55,383.29 L169.85,384.30 L169.20,384.38 L166.98,383.17 L166.92,380.34 "/><path d="M167.10,385.43 L167.10,385.97 "/><path d="M166.98,383.17 L166.75,383.04 "/><path d="M171.07,1161.79 L171.09,1148.09 L171.27,1147.77 L171.27,1162.06 L171.10,1161.89 L171.10,1161.69 "/><path d="M171.27,1162.06 L181.70,1168.08 L181.70,401.85 L171.27,395.82 L171.07,395.55 "/><path d="M171.55,413.29 L171.27,414.11 "/><path d="M171.53,1147.24 L171.55,1144.45 "/><path d="M171.27,1147.77 L171.53,1147.24 "/><path d="M171.27,1143.52 L171.09,1142.50 "/><path d="M171.07,1142.72 L171.07,1138.25 L171.07,1138.59 "/><path d="M171.27,414.26 L171.10,414.43 L171.07,415.67 L171.07,1138.25 L170.99,1137.79 L171.07,1136.72 "/><path d="M171.55,413.29 L171.56,411.54 "/><path d="M171.09,409.23 L171.08,409.52 "/><path d="M171.21,410.20 L171.27,395.82 "/><path d="M171.07,408.42 L171.07,409.42 "/><path d="M171.07,405.65 L170.87,404.13 L171.07,402.86 "/><path d="M170.87,404.13 L171.07,404.01 "/><path d="M171.07,395.55 L171.16,395.36 L171.55,395.11 L171.63,388.14 L169.85,387.12 "/><path d="M171.55,395.11 L172.50,394.58 L173.05,394.52 L174.97,395.62 L175.61,395.65 L175.54,387.34 L179.33,389.53 L179.59,389.75 L179.72,390.15 L179.48,390.52 L177.86,391.53 L178.00,391.83 L178.00,394.35 L175.91,395.60 L175.61,395.65 "/><path d="M171.26,383.46 L171.27,376.12 "/><path d="M171.07,375.85 L171.07,383.57 "/><path d="M172.31,394.68 L172.24,388.14 L171.63,388.14 "/><path d="M173.64,394.78 L173.64,387.34 L172.24,388.14 "/><path d="M173.64,387.34 L174.59,387.11 L175.54,387.34 "/><path d="M173.36,376.78 L173.36,383.89 "/><path d="M172.41,376.78 L172.41,383.35 "/><path d="M175.05,384.24 L174.97,375.85 "/><path d="M175.91,383.84 L175.91,375.85 "/><path d="M178.17,396.84 L178.08,396.65 L178.28,396.37 L178.28,396.93 L178.17,396.84 "/><path d="M178.28,396.37 L178.95,395.98 L179.66,395.31 L181.03,394.79 L181.70,394.40 L181.70,398.89 L182.45,398.97 L184.86,397.86 L185.39,397.31 L185.39,395.98 L186.08,396.38 L186.06,396.92 L185.39,397.31 "/><path d="M178.28,396.93 L178.95,397.31 L179.85,398.10 L181.03,398.51 L181.03,394.79 "/><path d="M178.00,394.35 L179.71,393.36 L179.90,393.09 L179.71,392.81 L178.00,391.83 "/><path d="M177.84,394.44 L177.84,391.61 "/><path d="M178.11,385.80 L178.28,385.97 L178.28,385.43 L178.11,385.60 L178.11,385.80 "/><path d="M178.28,385.43 L178.95,385.04 L178.95,386.36 L178.28,385.97 "/><path d="M178.00,380.01 L179.33,380.77 L179.33,381.87 L178.00,382.63 "/><path d="M177.84,379.79 L177.84,382.73 "/><path d="M178.08,374.75 L178.17,374.56 L178.28,374.58 L178.28,375.03 L178.08,374.75 "/><path d="M178.28,374.58 L178.28,374.48 L178.17,374.56 "/><path d="M178.28,375.03 L178.95,375.41 L179.66,376.09 L181.03,376.61 L181.03,372.89 L179.85,373.30 L178.95,374.09 L178.28,374.48 "/><path d="M178.95,397.31 L178.95,395.98 "/><path d="M181.03,398.51 L181.70,398.89 "/><path d="M179.71,393.36 L179.71,392.81 "/><path d="M179.33,389.53 L179.33,390.63 "/><path d="M178.95,385.04 L179.66,384.36 L181.03,383.84 L181.70,383.45 L181.70,387.95 L179.66,387.04 L178.95,386.36 "/><path d="M181.03,387.62 L181.03,383.84 "/><path d="M179.33,381.87 L179.72,381.39 L179.59,380.99 L179.33,380.77 "/><path d="M179.71,378.04 L179.90,378.31 L179.71,378.58 "/><path d="M181.03,376.61 L181.70,377.04 L182.65,377.05 L183.32,376.61 L184.68,376.09 L185.39,375.41 L185.39,374.09 L185.29,373.94 L184.49,373.30 L183.32,372.89 L183.32,376.61 "/><path d="M178.95,375.41 L178.95,374.09 "/><path d="M181.03,372.89 L182.11,372.39 L182.56,372.46 L183.32,372.89 "/><path d="M181.70,1168.08 L182.11,1168.20 L182.65,1168.08 L193.07,1162.06 L193.25,1161.89 L193.25,1161.69 "/><path d="M182.65,1168.08 L182.65,401.85 L182.11,401.96 L181.70,401.85 "/><path d="M182.65,401.85 L193.25,395.65 L193.18,395.36 L191.89,394.60 L191.46,394.51 L191.03,394.60 L189.29,395.59 L188.43,395.62 L184.64,393.36 L184.64,392.81 L184.44,393.09 L184.64,393.36 "/><path d="M181.70,394.40 L182.11,394.29 L182.65,394.40 L182.65,398.89 "/><path d="M182.65,394.40 L183.32,394.79 L183.32,398.57 "/><path d="M183.32,394.79 L184.49,395.19 L185.39,395.98 "/><path d="M181.70,387.95 L182.45,388.02 "/><path d="M185.39,386.36 L185.39,385.04 L185.29,384.89 L184.49,384.25 L183.32,383.84 L183.32,387.62 "/><path d="M182.65,387.95 L182.65,383.45 L182.23,383.34 L181.70,383.45 "/><path d="M183.32,383.84 L182.65,383.45 "/><path d="M181.70,377.04 L181.70,372.51 "/><path d="M182.65,377.05 L182.65,372.51 "/><path d="M186.08,396.38 L186.26,396.65 L186.06,396.92 "/><path d="M184.64,392.81 L186.34,391.83 L186.42,394.39 "/><path d="M190.70,394.78 L190.70,387.34 L189.87,387.12 L188.99,387.25 L184.75,389.75 L184.63,390.15 L184.75,390.40 L186.40,391.43 L186.49,391.66 L186.34,391.83 "/><path d="M185.02,389.53 L185.01,390.63 "/><path d="M185.39,385.04 L186.08,385.44 L186.06,385.97 L185.39,386.36 "/><path d="M186.06,385.97 L186.26,385.70 L186.08,385.44 "/><path d="M185.01,381.87 L185.02,380.77 "/><path d="M184.64,378.04 L184.64,378.58 "/><path d="M185.39,375.41 L186.06,375.03 L186.08,374.49 L185.39,374.09 "/><path d="M186.06,375.03 L186.26,374.75 L186.08,374.49 "/><path d="M186.49,391.66 L186.50,394.44 "/><path d="M186.49,379.84 L186.50,382.73 "/><path d="M188.50,383.88 L189.19,384.21 L189.87,384.28 L190.62,384.10 L192.23,383.22 L192.68,383.24 L193.33,383.61 L193.27,375.85 "/><path d="M186.41,382.68 L186.34,380.01 "/><path d="M188.84,395.66 L188.81,387.34 "/><path d="M190.70,387.34 L192.10,388.14 L192.03,394.68 "/><path d="M189.41,384.26 L189.38,375.85 "/><path d="M190.92,383.93 L190.99,376.78 "/><path d="M193.27,1161.79 L193.26,1148.09 L193.07,1147.92 L193.07,1162.06 "/><path d="M193.27,1154.07 L194.69,1153.29 L195.44,1153.36 L195.44,387.12 L194.69,387.05 L192.72,388.14 L192.10,388.14 "/><path d="M193.07,1143.52 L193.07,414.37 "/><path d="M192.81,1147.24 L192.79,1144.45 "/><path d="M193.26,1142.55 L193.07,1143.52 "/><path d="M193.27,1142.72 L193.32,1138.25 L193.27,1138.59 "/><path d="M193.27,1136.72 L193.32,1138.25 L193.27,415.67 L193.26,414.68 L193.07,414.37 "/><path d="M192.81,413.84 L192.79,411.05 "/><path d="M193.07,395.82 L193.07,410.00 "/><path d="M193.27,405.19 L193.31,403.58 L193.27,409.31 "/><path d="M193.27,403.32 L193.31,403.58 L193.27,395.55 "/><path d="M192.72,388.14 L192.79,395.11 "/><path d="M193.07,383.46 L193.07,376.12 "/><path d="M191.94,383.35 L191.94,376.78 "/><path d="M194.50,1153.36 L194.50,387.12 "/><path d="M195.44,1153.36 L197.43,1154.51 "/><path d="M195.44,387.12 L199.23,389.31 L199.43,389.59 L199.23,389.86 L199.23,389.31 "/><path d="M197.62,391.34 L197.58,404.84 L197.45,404.83 L197.43,403.58 L197.43,391.06 L197.62,391.34 L198.85,392.04 L199.62,392.04 L210.14,385.97 L210.31,385.80 L210.31,385.60 L199.41,379.30 L198.85,379.36 L197.45,380.24 L197.45,380.44 L197.62,380.61 L197.62,383.02 L195.14,384.38 L194.50,384.30 L193.33,383.61 "/><path d="M198.76,1158.23 L199.18,1158.35 L199.71,1158.23 L199.71,1143.93 L199.34,1144.55 L198.83,1144.74 L198.76,1145.50 L198.76,1158.23 L197.64,1157.58 L197.62,1144.08 L197.43,1143.63 L197.43,1157.34 L197.44,1157.24 "/><path d="M197.64,1157.58 L197.43,1157.34 "/><path d="M197.56,1138.40 L197.62,1138.22 L197.46,1138.25 L197.98,1139.31 "/><path d="M198.83,1144.74 L197.62,1144.08 "/><path d="M197.43,410.18 L197.62,410.69 L198.83,411.34 L198.79,1138.94 L197.46,1138.25 L197.43,1135.83 "/><path d="M197.98,405.91 L197.45,404.83 L199.02,405.67 L199.64,406.20 "/><path d="M199.71,410.54 L199.71,1139.69 "/><path d="M197.62,1138.22 L197.62,410.69 "/><path d="M197.62,404.91 L197.56,405.00 "/><path d="M197.43,391.06 L197.52,390.87 L199.23,389.86 "/><path d="M202.28,387.62 L202.28,383.84 L202.78,383.97 L203.82,384.48 L204.35,385.04 L204.35,386.36 L203.45,387.15 L201.52,387.99 L200.66,388.01 L198.62,387.04 L197.91,386.36 L197.24,385.97 L197.24,385.43 L197.04,385.70 L197.24,385.97 "/><path d="M197.24,385.43 L197.91,385.04 L198.62,384.36 L199.99,383.84 L199.99,387.62 "/><path d="M197.91,385.04 L197.91,386.36 "/><path d="M197.62,380.61 L199.27,381.56 L199.23,382.09 L197.62,383.02 "/><path d="M197.43,383.13 L197.43,380.34 "/><path d="M199.71,1158.23 L210.14,1152.21 L210.14,385.97 "/><path d="M199.71,1139.69 L198.79,1138.94 "/><path d="M198.88,1138.99 L198.17,1138.59 L198.97,1139.05 "/><path d="M199.06,1139.10 L198.17,1138.59 "/><path d="M198.83,411.34 L199.27,411.20 L199.71,410.54 "/><path d="M199.71,406.29 L199.71,391.99 "/><path d="M199.13,405.75 L198.17,405.19 L198.94,405.63 "/><path d="M198.76,405.52 L198.76,391.99 "/><path d="M199.02,405.67 L198.17,405.19 L198.86,405.57 "/><path d="M199.23,382.09 L199.43,381.83 L199.27,381.56 "/><path d="M199.99,383.84 L200.70,383.43 L201.19,383.34 L202.28,383.84 "/><path d="M201.61,387.95 L201.61,383.45 "/><path d="M200.66,388.01 L200.58,383.49 "/><path d="M204.35,385.04 L205.13,385.51 L205.22,385.70 L205.13,385.89 L204.35,386.36 "/><path d="M205.02,385.43 L205.02,385.97 "/><path d="M210.31,1151.84 L210.31,1152.04 L210.14,1152.21 "/><path d="M210.33,1151.94 L210.33,385.70 "/></g></g><g id="Actor_.4"><g style="stroke:#000000;stroke-width:0.353"><path d="M706.77,759.72 C706.71,759.69 706.71,759.69 706.66,759.65 C706.61,759.60 706.61,759.60 706.56,759.55 C706.51,759.50 706.51,759.50 706.47,759.45 C706.43,759.38 706.43,759.38 706.39,759.32 C706.36,759.25 706.36,759.25 706.33,759.18 C706.30,759.10 706.30,759.10 706.28,759.03 C706.26,758.94 706.26,758.94 706.24,758.86 C706.23,758.77 706.23,758.77 706.22,758.68 C706.22,758.59 706.22,758.60 706.21,758.50 "/><path d="M706.21,746.27 C706.22,746.18 706.22,746.17 706.22,746.07 C706.23,745.97 706.23,745.97 706.24,745.87 C706.26,745.77 706.26,745.77 706.28,745.66 C706.30,745.56 706.30,745.56 706.33,745.45 C706.36,745.35 706.36,745.35 706.39,745.24 C706.43,745.13 706.43,745.13 706.47,745.03 C706.51,744.92 706.51,744.92 706.56,744.82 C706.61,744.71 706.61,744.71 706.66,744.60 C706.71,744.50 706.71,744.50 706.77,744.40 C706.83,744.30 706.83,744.30 706.89,744.20 C706.95,744.10 706.95,744.10 707.02,744.01 C707.09,743.92 707.09,743.92 707.16,743.83 C707.23,743.74 707.23,743.74 707.31,743.65 C707.38,743.57 707.38,743.57 707.46,743.49 C707.54,743.42 707.54,743.42 707.62,743.34 C707.70,743.27 707.70,743.27 707.78,743.21 C707.86,743.15 707.86,743.15 707.94,743.09 C708.01,743.04 708.01,743.04 708.08,743.00 "/><path d="M707.35,743.42 C707.30,743.45 707.30,743.45 707.25,743.48 C707.20,743.52 707.20,743.52 707.15,743.56 C707.10,743.60 707.10,743.60 707.06,743.64 C707.01,743.68 707.01,743.68 706.96,743.73 C706.91,743.77 706.91,743.77 706.87,743.82 C706.83,743.87 706.83,743.87 706.78,743.93 C706.74,743.98 706.74,743.98 706.70,744.04 C706.66,744.09 706.66,744.09 706.62,744.15 C706.58,744.21 706.58,744.21 706.55,744.27 C706.51,744.33 706.51,744.33 706.48,744.39 C706.45,744.46 706.45,744.46 706.42,744.52 C706.39,744.58 706.39,744.58 706.37,744.65 C706.34,744.71 706.34,744.71 706.32,744.78 C706.30,744.84 706.30,744.84 706.28,744.90 C706.27,744.97 706.27,744.97 706.25,745.03 C706.24,745.09 706.24,745.09 706.23,745.15 C706.22,745.22 706.22,745.22 706.22,745.28 C706.21,745.34 706.21,745.34 706.21,745.40 "/><path d="M711.70,762.57 C711.64,762.53 711.64,762.53 711.59,762.49 C711.53,762.45 711.53,762.45 711.48,762.40 C711.44,762.35 711.44,762.35 711.40,762.29 C711.36,762.23 711.36,762.23 711.32,762.17 C711.29,762.10 711.29,762.10 711.26,762.03 C711.23,761.95 711.23,761.95 711.21,761.87 C711.19,761.79 711.19,761.79 711.17,761.71 C711.16,761.62 711.16,761.62 711.15,761.53 "/><path d="M712.24,746.50 C712.16,746.58 712.16,746.58 712.09,746.67 C712.06,746.71 712.06,746.71 712.03,746.75 C711.99,746.80 711.99,746.80 711.95,746.85 C711.88,746.95 711.88,746.95 711.82,747.05 "/><path d="M711.82,747.05 C711.76,747.15 711.76,747.15 711.70,747.25 C711.64,747.35 711.64,747.35 711.59,747.45 C711.53,747.56 711.53,747.56 711.48,747.66 C711.44,747.77 711.44,747.77 711.40,747.87 "/><path d="M711.14,749.11 C711.15,749.02 711.15,749.02 711.15,748.92 C711.16,748.82 711.16,748.82 711.17,748.72 C711.19,748.61 711.19,748.61 711.21,748.51 C711.23,748.41 711.23,748.41 711.26,748.30 C711.29,748.19 711.29,748.19 711.32,748.09 C711.36,747.98 711.36,747.98 711.40,747.87 "/><path d="M708.08,760.48 L710.50,761.88 L709.41,761.25 L706.77,759.72 "/><path d="M706.21,758.50 L711.14,761.34 L711.15,761.53 L713.32,761.42 "/><path d="M706.21,758.50 L706.21,746.27 "/><path d="M708.08,743.00 L707.35,743.42 "/><path d="M713.32,761.34 L711.14,761.34 L711.14,749.11 L706.21,746.27 L706.21,745.39 "/><path d="M711.34,762.37 L712.92,763.27 L710.50,761.88 L711.35,762.37 "/><path d="M709.41,761.25 L711.70,762.57 "/><path d="M708.11,742.98 L709.96,741.92 L708.08,743.00 L708.11,742.98 L713.04,745.83 L712.87,745.93 L713.32,746.62 "/><path d="M709.36,742.26 L713.32,739.98 "/><path d="M713.32,761.96 L711.70,762.57 L713.32,763.50 "/><path d="M711.59,762.49 L713.32,761.90 "/><path d="M711.26,762.03 L713.32,761.64 "/><path d="M711.32,762.17 L713.32,761.71 "/><path d="M711.40,762.29 L713.32,761.78 "/><path d="M711.48,762.40 L713.32,761.84 "/><path d="M711.17,761.71 L713.32,761.50 "/><path d="M713.32,761.57 L711.21,761.87 "/><path d="M713.32,747.54 L712.24,746.50 "/><path d="M711.82,747.05 L713.32,748.04 "/><path d="M711.40,747.87 L713.32,748.55 "/><path d="M711.95,746.85 L713.32,747.89 "/><path d="M713.32,749.11 L711.14,749.11 "/><path d="M711.17,748.72 L713.32,748.94 "/><path d="M711.15,748.92 L713.32,749.03 "/><path d="M711.21,748.51 L713.32,748.85 "/><path d="M713.32,747.72 L712.09,746.67 "/><path d="M711.59,747.45 L713.32,748.31 "/><path d="M711.48,747.66 L713.32,748.43 "/><path d="M711.70,747.25 L713.32,748.18 "/><path d="M711.32,748.09 L713.32,748.65 "/><path d="M711.26,748.30 L713.32,748.76 "/><path d="M712.24,746.50 L712.39,746.34 L713.32,747.35 "/><path d="M712.87,745.93 L712.71,746.05 L712.55,746.19 L713.32,747.13 "/><path d="M712.55,746.19 L712.39,746.34 "/><path d="M713.32,746.89 L712.71,746.05 "/><path d="M713.32,745.67 L713.04,745.83 L713.32,746.31 "/></g></g><g id="Actor_.5"><g style="stroke:#000000;stroke-width:0.353"><path d="M724.01,83.07 C723.82,83.36 723.81,83.36 723.64,83.66 C723.50,84.13 723.50,84.14 723.39,84.61 C723.36,84.98 723.36,84.99 723.36,85.36 C723.43,85.96 723.43,85.96 723.53,86.57 C723.74,87.24 723.74,87.24 723.97,87.91 "/><path d="M726.22,87.52 C725.90,86.45 725.90,86.44 725.61,85.36 C725.52,84.76 725.51,84.76 725.44,84.15 C725.51,83.45 725.51,83.44 725.61,82.74 "/><path d="M730.40,86.31 C730.39,86.55 730.39,86.56 730.40,86.80 C730.59,87.52 730.61,87.52 730.79,88.24 C730.87,88.83 730.87,88.83 730.93,89.42 "/><path d="M752.42,72.88 C752.47,79.85 752.47,79.97 752.44,87.04 C752.27,87.74 752.22,87.74 752.03,88.44 C751.95,89.02 751.95,89.02 751.90,89.60 C751.95,90.11 751.95,90.12 752.03,90.63 C752.19,91.04 752.19,91.05 752.38,91.45 "/><path d="M752.38,91.45 C752.44,455.95 752.44,455.95 752.44,820.44 C752.30,821.05 752.24,821.05 752.09,821.67 C752.07,822.87 752.07,822.87 752.09,824.08 "/><path d="M738.26,63.44 C738.36,63.59 738.36,63.60 738.48,63.73 C738.82,63.99 738.81,64.00 739.16,64.23 C740.07,64.64 740.08,64.65 741.00,65.03 "/><path d="M741.86,60.49 C742.24,60.72 742.24,60.72 742.62,60.92 C743.10,61.09 743.11,61.07 743.58,61.23 C743.96,61.45 743.97,61.46 744.33,61.70 C744.52,61.90 744.53,61.91 744.70,62.12 "/><path d="M741.95,54.13 C742.28,53.91 742.28,53.90 742.62,53.70 C742.99,53.58 742.99,53.60 743.36,53.48 C743.77,53.28 743.77,53.28 744.17,53.05 "/><path d="M741.76,65.11 C742.68,64.73 742.68,64.73 743.58,64.34 C743.96,64.11 743.96,64.11 744.33,63.87 C744.52,63.67 744.52,63.66 744.70,63.44 "/><path d="M756.73,820.71 C757.02,819.65 757.02,819.65 757.28,818.58 C757.35,818.01 757.35,818.00 757.40,817.42 C757.35,816.91 757.35,816.91 757.28,816.40 C757.12,815.92 757.12,815.92 756.93,815.45 "/><path d="M759.05,816.83 C759.00,456.04 759.00,452.22 759.01,87.62 C759.16,87.00 759.20,87.01 759.37,86.39 C759.44,85.81 759.44,85.80 759.49,85.22 C759.44,84.71 759.44,84.71 759.37,84.20 C759.20,83.74 759.20,83.74 759.01,83.28 "/><path d="M756.93,81.96 C757.15,82.64 757.16,82.64 757.35,83.32 C757.39,83.86 757.39,83.86 757.39,84.40 C757.08,85.85 757.08,85.86 756.73,87.30 "/><path d="M760.15,60.46 C759.73,60.70 759.73,60.70 759.29,60.92 C758.81,61.09 758.80,61.07 758.33,61.23 C757.95,61.45 757.95,61.46 757.58,61.70 C757.39,61.90 757.39,61.90 757.21,62.12 "/><path d="M760.91,65.03 C761.84,64.65 761.84,64.64 762.75,64.23 C763.10,64.00 763.10,63.99 763.43,63.74 C763.55,63.59 763.56,63.59 763.67,63.44 "/><path d="M724.89,82.47 L724.79,82.52 L725.00,82.41 L724.56,82.65 L725.00,82.41 L724.89,82.47 L724.89,69.08 L724.36,69.19 L723.94,69.08 L713.51,63.06 L713.51,796.46 "/><path d="M713.51,63.06 L713.33,62.85 L713.32,796.39 "/><path d="M713.33,62.85 L713.51,62.51 L723.98,56.47 L724.41,56.38 L724.84,56.47 L726.03,57.15 L726.22,57.39 L726.06,57.67 L724.26,58.77 L724.23,58.97 L724.41,59.18 L724.41,58.62 "/><path d="M718.49,62.95 L718.63,63.06 L718.63,62.51 L718.43,62.75 L718.49,62.95 "/><path d="M722.04,65.04 L722.80,65.11 L723.66,64.64 L724.84,64.23 L725.74,63.44 L726.54,62.95 L726.57,62.65 L725.74,62.12 L724.84,61.33 L723.66,60.92 L722.90,60.49 L722.46,60.42 L722.04,60.54 L722.04,65.04 L721.37,64.64 L720.00,64.12 L719.30,63.44 L718.63,63.06 "/><path d="M719.30,63.44 L719.30,62.12 L719.40,61.98 L720.20,61.33 L721.37,60.92 L721.37,64.64 "/><path d="M718.63,62.51 L719.30,62.12 "/><path d="M721.37,60.92 L722.04,60.54 "/><path d="M723.94,809.91 L723.94,805.11 "/><path d="M724.56,82.65 L724.01,83.07 "/><path d="M723.97,87.91 L724.39,88.46 L724.89,88.57 L724.89,809.37 "/><path d="M723.94,87.83 L723.94,802.53 "/><path d="M726.22,808.60 L726.22,87.52 L726.03,87.89 L724.89,88.57 "/><path d="M724.68,82.58 L724.79,82.52 "/><path d="M723.94,83.16 L723.94,69.08 "/><path d="M725.00,82.41 L726.19,81.76 L725.42,82.17 L726.19,81.76 L726.22,68.11 L726.03,67.87 L724.34,66.89 L724.22,66.64 L724.41,66.40 L724.41,66.94 "/><path d="M724.89,69.08 L726.21,68.21 "/><path d="M724.41,66.40 L728.29,64.16 L728.74,64.10 L729.15,64.21 L729.15,806.90 "/><path d="M722.99,60.54 L722.99,65.03 "/><path d="M723.66,64.64 L723.66,60.92 "/><path d="M724.41,59.18 L728.40,61.44 L729.15,61.38 L730.58,60.54 L730.58,53.21 L731.90,53.94 L732.66,53.86 L732.66,60.98 "/><path d="M726.03,87.89 L726.03,808.71 "/><path d="M725.61,82.74 L726.12,81.84 L726.03,81.84 L726.06,68.40 "/><path d="M725.42,82.17 L725.65,82.03 "/><path d="M726.03,81.84 L726.03,81.95 "/><path d="M726.45,63.03 L726.41,62.51 "/><path d="M725.74,63.44 L725.74,62.12 "/><path d="M726.29,60.25 L726.21,57.49 "/><path d="M726.06,57.67 L726.03,60.10 "/><path d="M728.21,64.21 L728.21,807.45 "/><path d="M729.15,64.21 L730.86,65.25 L730.86,72.20 "/><path d="M730.58,806.31 L730.58,91.34 L730.40,91.51 L730.38,91.83 L730.38,806.25 "/><path d="M730.86,90.38 L730.93,89.42 L730.86,90.38 L730.58,91.34 "/><path d="M730.93,89.42 L730.86,88.62 "/><path d="M730.58,87.47 L730.58,72.91 L730.39,72.70 L730.42,72.50 L731.71,71.71 L732.25,71.59 L732.66,71.71 L734.27,72.70 L735.22,72.68 L739.21,70.25 L739.09,69.95 L737.31,68.91 L737.37,71.40 "/><path d="M730.38,86.60 L730.38,84.58 L730.38,86.50 "/><path d="M730.38,79.94 L730.18,81.21 L730.38,82.73 "/><path d="M730.38,84.58 L730.39,72.70 "/><path d="M730.18,81.21 L730.38,81.10 "/><path d="M730.58,72.91 L741.00,78.93 L741.54,79.04 L741.95,78.93 L752.42,72.88 "/><path d="M752.09,824.08 L752.38,824.85 L752.45,839.10 L752.56,838.81 "/><path d="M731.62,71.76 L731.62,65.25 L730.86,65.25 "/><path d="M731.62,65.25 L733.22,64.30 L734.35,64.25 L734.84,64.43 L738.71,66.66 L739.01,67.03 L738.95,67.43 L737.31,68.48 L737.15,68.69 L737.31,68.91 "/><path d="M731.71,53.86 L731.71,60.43 L733.22,61.27 L734.24,61.34 L734.84,61.14 L737.37,59.68 L737.31,57.09 L737.15,56.87 L737.15,59.81 "/><path d="M731.71,60.43 L731.19,60.29 L730.58,60.54 "/><path d="M730.38,60.65 L730.44,52.77 L741.30,46.54 L741.95,46.64 L752.38,52.66 L752.57,52.90 L752.42,53.18 L751.24,53.86 L750.71,53.97 L750.29,53.86 L748.59,52.89 L747.92,52.86 L743.94,55.12 L743.77,55.29 L743.84,55.59 L745.65,56.65 L745.81,56.87 L745.68,57.07 L744.05,58.08 L743.93,58.34 L743.97,58.61 L744.33,58.96 L744.33,57.85 "/><path d="M730.58,53.21 L730.38,53.17 L730.38,52.97 "/><path d="M732.95,64.43 L732.95,71.87 "/><path d="M734.35,61.32 L734.27,52.93 L732.66,53.86 "/><path d="M734.27,52.93 L734.69,52.82 L735.13,52.89 L739.01,55.12 L739.05,55.64 L737.31,56.65 L737.15,56.87 "/><path d="M734.92,72.74 L734.84,64.43 "/><path d="M735.22,60.92 L735.22,52.93 "/><path d="M740.33,75.59 L738.96,75.07 L738.26,74.39 L737.51,73.95 L737.39,73.70 L738.96,72.39 L740.33,71.87 L740.33,75.59 L741.19,76.05 L741.95,75.98 L741.95,71.48 L741.19,71.41 L740.33,71.87 "/><path d="M738.26,73.07 L738.26,74.39 "/><path d="M737.59,74.01 L737.59,73.46 "/><path d="M739.05,70.42 L739.01,69.90 "/><path d="M737.15,71.52 L737.15,68.69 "/><path d="M738.63,66.61 L738.71,67.66 "/><path d="M738.26,63.44 L737.51,63.01 L737.39,62.75 L737.59,62.51 L738.26,62.12 L738.26,63.44 "/><path d="M741.00,65.03 L741.00,60.54 L741.30,60.44 L741.86,60.49 "/><path d="M744.70,62.12 L744.70,63.44 L745.57,62.86 L745.44,62.56 L744.70,62.12 "/><path d="M737.59,62.51 L737.59,63.06 "/><path d="M738.26,62.12 L739.16,61.33 L740.33,60.92 L741.00,60.54 "/><path d="M738.71,58.90 L738.63,57.86 L739.01,58.27 L738.94,58.67 L737.37,59.68 "/><path d="M738.63,57.86 L737.31,57.09 "/><path d="M739.05,55.64 L739.21,55.36 L739.01,55.12 "/><path d="M737.59,52.11 L737.39,51.80 L737.59,51.56 L737.59,52.11 L738.26,52.50 L738.96,53.18 L740.33,53.70 L741.00,54.13 L741.54,54.20 L741.95,54.13 "/><path d="M744.17,53.05 L744.70,52.50 L745.41,52.09 L745.37,51.56 L745.56,51.80 L745.41,52.09 "/><path d="M740.33,53.70 L740.33,49.98 L739.16,50.39 L738.26,51.18 L737.59,51.56 "/><path d="M738.26,51.18 L738.26,52.50 "/><path d="M741.95,78.93 L741.95,845.17 L741.30,845.27 "/><path d="M741.00,825.69 L741.00,832.08 "/><path d="M741.00,78.93 L741.00,812.38 "/><path d="M741.00,75.98 L741.00,71.48 "/><path d="M740.33,64.71 L740.33,60.92 "/><path d="M741.00,65.03 L741.76,65.11 "/><path d="M741.00,54.13 L741.00,49.59 L740.33,49.98 "/><path d="M741.00,49.59 L741.42,49.48 L741.95,49.59 L741.95,54.13 "/><path d="M741.95,845.17 L752.45,839.10 "/><path d="M742.62,75.65 L742.62,71.87 L743.79,72.28 L744.60,72.92 L744.70,73.07 L744.70,74.39 L743.79,75.18 L741.95,75.98 "/><path d="M743.94,70.45 L743.75,70.14 L743.94,69.90 L743.94,70.45 L747.73,72.71 L748.59,72.68 L750.34,71.68 L750.77,71.59 L751.20,71.68 L752.45,72.41 L752.57,72.60 L752.42,72.88 "/><path d="M741.95,71.48 L742.62,71.87 "/><path d="M743.94,69.90 L745.68,68.89 L745.72,71.47 "/><path d="M744.25,67.67 L743.97,67.36 L743.93,67.10 L744.33,66.61 L744.33,67.72 L744.25,67.67 "/><path d="M742.62,64.71 L742.62,60.92 "/><path d="M741.95,65.03 L741.95,60.54 "/><path d="M743.94,55.58 L743.94,55.12 "/><path d="M745.37,51.56 L744.70,51.18 L743.79,50.39 L742.62,49.98 L742.62,53.70 "/><path d="M741.95,49.59 L742.62,49.98 "/><path d="M744.70,73.07 L745.44,73.51 L745.57,73.79 L744.70,74.39 "/><path d="M745.41,73.98 L745.37,73.46 "/><path d="M745.81,71.52 L745.81,68.69 L745.68,68.89 "/><path d="M745.81,68.69 L745.65,68.48 L744.33,67.72 "/><path d="M744.33,66.61 L748.60,64.25 L749.73,64.30 L751.34,65.25 L751.34,71.76 "/><path d="M745.41,63.03 L745.37,62.51 "/><path d="M758.54,58.62 L758.58,59.15 L758.73,58.97 L758.62,58.68 L756.74,57.49 L756.73,60.22 L754.75,61.36 L754.33,61.47 L753.80,61.38 L751.76,60.29 L751.49,60.31 L749.73,61.27 L749.18,61.37 L748.49,61.30 L744.33,58.96 "/><path d="M745.72,59.76 L745.68,57.07 "/><path d="M745.81,56.87 L745.81,59.81 "/><path d="M744.70,51.18 L744.70,52.50 "/><path d="M748.15,72.75 L748.11,64.43 "/><path d="M748.71,61.34 L748.68,52.93 "/><path d="M747.73,52.93 L747.73,60.92 "/><path d="M750.01,64.43 L750.01,71.87 "/><path d="M752.09,72.20 L752.09,65.25 L751.34,65.25 "/><path d="M751.24,60.43 L751.24,53.86 "/><path d="M750.29,60.98 L750.29,53.86 "/><path d="M752.57,838.91 L752.57,825.17 L752.38,824.85 "/><path d="M756.73,831.59 L754.66,830.40 L754.22,830.33 L753.80,830.45 L753.80,64.21 L752.09,65.25 "/><path d="M752.58,831.15 L753.80,830.45 "/><path d="M752.09,824.08 L751.90,823.01 L752.09,821.54 "/><path d="M752.57,819.63 L752.44,820.44 "/><path d="M752.57,819.80 L752.65,814.42 L752.58,815.67 "/><path d="M752.58,813.80 L752.65,814.42 L752.58,91.83 L752.38,91.45 "/><path d="M752.09,88.14 L752.12,90.93 "/><path d="M752.44,87.04 L752.57,86.22 "/><path d="M752.57,86.39 L752.59,82.17 L752.58,82.28 "/><path d="M752.56,72.70 L752.59,82.17 L752.58,80.41 "/><path d="M753.80,64.21 L754.33,64.09 L754.75,64.21 L758.62,66.45 L758.73,66.64 L758.58,66.92 L758.54,66.40 "/><path d="M752.42,53.18 L752.38,60.54 "/><path d="M752.56,53.00 L752.58,60.65 "/><path d="M754.75,64.21 L754.75,830.45 "/><path d="M756.41,62.95 L756.39,62.65 L757.21,62.12 L757.21,63.44 L756.41,62.95 "/><path d="M758.58,66.92 L756.74,68.11 L756.93,68.42 L758.07,69.08 L758.48,69.19 L759.01,69.08 L769.48,63.03 L769.63,62.85 L769.64,828.99 L769.48,829.27 L759.01,835.32 L758.60,835.43 L758.16,835.36 L756.93,834.66 L756.93,821.17 L756.73,820.71 "/><path d="M756.93,815.45 L756.79,815.37 L756.93,815.35 L756.93,87.77 L756.73,87.30 L756.73,814.42 L756.79,815.37 L756.83,815.29 L758.33,816.17 L756.83,815.29 L758.10,816.02 L758.07,88.42 L756.93,87.77 "/><path d="M756.74,834.35 L756.74,834.45 L756.73,820.71 "/><path d="M756.93,834.66 L756.74,834.45 "/><path d="M758.07,835.32 L758.10,821.81 L758.51,821.74 L759.01,821.02 L759.01,835.32 "/><path d="M758.10,821.81 L756.93,821.17 "/><path d="M758.25,816.11 L758.10,816.02 "/><path d="M758.33,816.17 L759.05,816.83 L759.43,817.92 L759.43,819.38 L759.01,821.02 "/><path d="M756.93,815.35 L758.17,816.06 "/><path d="M756.83,815.29 L756.74,815.28 "/><path d="M759.01,83.28 L756.93,81.96 "/><path d="M758.07,88.42 L758.58,88.28 L759.01,87.62 "/><path d="M758.48,82.86 L757.32,82.17 L758.25,82.72 L757.32,82.17 L758.17,82.67 "/><path d="M758.25,82.72 L758.40,82.81 "/><path d="M758.10,82.62 L758.07,69.08 "/><path d="M756.87,81.91 L757.32,82.17 L756.78,81.87 L756.93,81.96 L756.93,68.42 "/><path d="M756.93,82.05 L756.79,81.96 L756.73,79.75 L756.74,68.21 "/><path d="M756.54,63.06 L756.54,62.51 "/><path d="M757.21,63.44 L757.92,64.12 L759.96,65.09 L760.49,65.14 L760.91,65.03 L760.91,60.54 L760.15,60.46 "/><path d="M756.73,60.22 L758.58,59.15 "/><path d="M756.93,57.69 L756.94,60.10 "/><path d="M769.63,62.85 L769.44,62.51 L758.93,56.45 L758.16,56.45 L756.93,57.15 L756.74,57.49 "/><path d="M759.01,83.28 L759.01,69.08 "/><path d="M763.67,63.44 L763.67,62.13 L762.95,61.45 L761.58,60.92 L760.91,60.54 "/><path d="M759.96,65.09 L759.96,60.54 "/><path d="M759.29,64.71 L759.29,60.92 "/><path d="M763.67,63.44 L764.37,63.03 L764.52,62.75 L764.40,62.56 L763.67,62.13 "/><path d="M761.58,64.71 L761.58,60.92 "/><path d="M764.37,63.03 L764.33,62.51 "/><path d="M769.48,829.27 L769.48,63.03 "/></g></g><g id="Actor_.6"><g style="stroke:#000000;stroke-width:0.353"><path d="M711.90,738.61 L711.90,737.08 L711.90,738.61 L712.86,739.16 L712.86,264.29 "/><path d="M712.86,739.16 L713.32,739.00 "/><path d="M711.90,737.08 L711.90,264.41 "/></g></g><g id="Actor_.7"><g style="stroke:#000000;stroke-width:0.353"><path d="M706.77,261.48 C706.71,261.44 706.71,261.44 706.66,261.41 C706.60,261.36 706.60,261.36 706.56,261.31 C706.51,261.26 706.51,261.26 706.47,261.20 C706.43,261.14 706.43,261.14 706.39,261.08 C706.36,261.01 706.36,261.01 706.33,260.94 C706.30,260.86 706.30,260.86 706.28,260.78 C706.26,260.70 706.26,260.70 706.24,260.62 C706.23,260.53 706.23,260.53 706.22,260.44 C706.22,260.35 706.22,260.35 706.21,260.25 "/><path d="M706.21,248.03 C706.22,247.93 706.22,247.93 706.22,247.83 C706.23,247.73 706.23,247.73 706.24,247.63 C706.26,247.52 706.26,247.52 706.28,247.42 C706.30,247.32 706.30,247.32 706.33,247.21 C706.36,247.10 706.36,247.10 706.39,247.00 C706.43,246.89 706.43,246.89 706.47,246.78 C706.51,246.68 706.51,246.68 706.56,246.57 C706.61,246.47 706.61,246.47 706.66,246.36 C706.71,246.26 706.71,246.26 706.77,246.16 "/><path d="M711.70,249.00 C711.64,249.10 711.64,249.10 711.59,249.21 C711.53,249.31 711.53,249.31 711.48,249.42 C711.44,249.52 711.44,249.52 711.40,249.63 C711.36,249.74 711.36,249.74 711.32,249.84 C711.29,249.95 711.29,249.95 711.26,250.06 C711.23,250.16 711.23,250.16 711.21,250.27 C711.19,250.37 711.19,250.37 711.17,250.47 "/><path d="M706.55,246.03 C706.51,246.09 706.51,246.09 706.48,246.15 C706.45,246.21 706.45,246.21 706.42,246.28 C706.39,246.34 706.39,246.34 706.36,246.40 C706.34,246.47 706.34,246.47 706.32,246.53 C706.30,246.60 706.30,246.60 706.28,246.66 C706.27,246.72 706.27,246.72 706.25,246.79 C706.24,246.85 706.24,246.85 706.23,246.91 C706.22,246.97 706.22,246.97 706.22,247.03 C706.21,247.09 706.21,247.09 706.21,247.15 "/><path d="M711.48,264.16 C711.44,264.10 711.44,264.10 711.40,264.05 C711.36,263.99 711.36,263.99 711.32,263.92 C711.29,263.85 711.29,263.85 711.26,263.78 C711.23,263.71 711.23,263.71 711.21,263.63 C711.19,263.55 711.19,263.55 711.17,263.46 C711.16,263.38 711.16,263.38 711.15,263.29 "/><path d="M712.39,264.44 C712.31,264.45 712.31,264.45 712.24,264.45 C712.16,264.45 712.16,264.45 712.09,264.45 C712.02,264.44 712.02,264.44 711.95,264.43 C711.88,264.41 711.88,264.41 711.82,264.39 C711.76,264.36 711.76,264.36 711.70,264.33 "/><path d="M713.32,264.03 C713.10,264.16 713.09,264.16 712.87,264.28 C712.79,264.32 712.79,264.32 712.71,264.35 C712.63,264.38 712.63,264.38 712.55,264.40 C712.47,264.42 712.47,264.42 712.39,264.44 "/><path d="M711.12,238.10 C711.16,238.04 711.16,238.04 711.20,237.98 C711.24,237.92 711.24,237.92 711.27,237.87 C711.32,237.81 711.32,237.81 711.36,237.75 C711.40,237.70 711.40,237.70 711.45,237.65 C711.49,237.60 711.49,237.60 711.54,237.56 C711.59,237.51 711.59,237.51 711.64,237.46 C711.68,237.42 711.68,237.42 711.73,237.38 C711.78,237.35 711.78,237.35 711.83,237.31 C711.88,237.28 711.88,237.28 711.93,237.25 "/><path d="M711.34,238.23 C711.41,238.13 711.41,238.13 711.47,238.03 C711.53,237.93 711.53,237.93 711.60,237.84 C711.67,237.75 711.67,237.75 711.74,237.65 C711.81,237.57 711.81,237.57 711.88,237.48 C711.96,237.40 711.96,237.40 712.04,237.32 C712.12,237.24 712.12,237.24 712.20,237.17 C712.28,237.10 712.28,237.10 712.36,237.04 C712.44,236.98 712.44,236.98 712.52,236.92 C712.60,236.86 712.60,236.86 712.69,236.81 "/><path d="M713.32,263.60 L711.48,264.16 L711.59,264.25 L711.70,264.33 L706.77,261.48 "/><path d="M706.21,260.25 L706.21,248.03 "/><path d="M706.77,246.16 L711.70,249.00 "/><path d="M711.17,250.47 L713.32,250.70 "/><path d="M706.21,260.25 L711.14,263.10 L713.32,263.10 "/><path d="M713.32,263.18 L711.15,263.29 L711.14,263.10 L711.14,250.87 L706.21,248.03 L706.21,247.15 L706.21,247.16 "/><path d="M706.55,246.03 L711.12,238.10 L711.34,238.23 L706.77,246.16 L706.55,246.03 "/><path d="M711.17,263.46 L713.32,263.26 "/><path d="M711.21,263.63 L713.32,263.33 "/><path d="M711.26,263.78 L713.32,263.40 "/><path d="M713.32,263.95 L712.39,264.44 "/><path d="M711.70,264.33 L713.32,263.71 "/><path d="M712.71,264.35 L713.32,264.01 "/><path d="M711.32,263.92 L713.32,263.47 "/><path d="M711.40,264.05 L713.32,263.53 "/><path d="M711.59,264.25 L713.32,263.66 "/><path d="M711.95,264.43 L713.32,263.82 "/><path d="M712.24,264.45 L713.32,263.91 "/><path d="M712.09,264.45 L713.32,263.87 "/><path d="M712.55,264.40 L713.32,263.98 "/><path d="M713.32,263.77 L711.82,264.39 "/><path d="M711.17,250.47 L711.15,250.68 L711.14,250.87 L713.32,250.87 "/><path d="M711.40,249.63 L713.32,250.30 "/><path d="M711.26,250.06 L713.32,250.51 "/><path d="M711.32,249.84 L713.32,250.41 "/><path d="M711.21,250.27 L713.32,250.61 "/><path d="M711.59,249.21 L713.32,250.07 "/><path d="M713.32,246.20 L711.70,249.00 L713.32,249.94 "/><path d="M711.15,250.68 L713.32,250.79 "/><path d="M711.48,249.42 L713.32,250.19 "/><path d="M711.93,237.25 L712.92,236.68 L711.93,237.25 "/><path d="M713.32,239.37 L711.34,238.23 "/><path d="M712.69,236.81 L713.32,237.18 "/><path d="M712.69,236.81 L713.32,236.45 "/><path d="M712.92,264.26 L713.14,264.13 "/><path d="M713.19,264.11 L713.32,264.03 L713.24,264.08 "/><path d="M713.32,264.03 L713.04,264.19 "/></g></g><g id="Actor_.8"><g style="stroke:#000000;stroke-width:0.353"><path d="M685.35,812.49 L210.33,538.24 "/><path d="M685.15,812.60 L210.33,538.47 "/><path d="M695.78,806.47 L210.33,526.20 "/><path d="M210.33,525.10 L696.73,805.92 "/><path d="M697.86,805.27 L210.33,523.79 "/><path d="M698.06,805.15 L210.33,523.56 "/><path d="M700.04,804.01 L210.33,521.27 "/><path d="M700.99,803.46 L210.33,520.18 "/><path d="M702.41,802.64 L210.33,518.54 "/><path d="M702.22,802.75 L210.33,518.76 "/><path d="M210.33,506.50 L712.84,796.62 "/><path d="M713.32,795.80 L210.33,505.40 "/><path d="M713.32,783.76 L210.33,493.36 "/><path d="M713.32,782.11 L210.33,491.72 "/><path d="M210.33,493.13 L713.32,783.53 "/><path d="M210.33,490.62 L713.32,781.02 "/><path d="M713.32,778.50 L210.33,488.11 "/><path d="M713.32,778.73 L210.33,488.33 "/><path d="M210.33,486.79 L713.32,777.19 "/><path d="M713.32,776.09 L210.33,485.70 "/><path d="M210.35,473.67 L713.32,764.05 "/><path d="M210.55,473.58 L210.37,473.48 "/><path d="M210.50,473.53 L713.32,763.83 "/><path d="M713.08,796.50 L713.27,796.12 "/></g></g><g id="Actor_.9"><g style="stroke:#000000;stroke-width:0.353"><path d="M210.33,1138.42 L741.00,832.03 L741.37,832.44 L741.48,832.85 L210.61,1139.35 L210.61,1151.39 L210.55,1151.63 L210.37,1151.73 "/><path d="M210.47,1151.70 L740.25,845.83 L741.39,845.16 L741.48,844.90 L210.61,1151.39 "/><path d="M210.61,1139.35 L210.55,1139.04 L210.32,1138.68 "/><path d="M210.33,1133.49 L734.65,830.78 L734.76,831.19 L735.04,831.54 L737.08,832.76 L739.53,831.34 L739.87,831.38 L210.33,1137.10 "/><path d="M737.08,832.76 L210.33,1136.88 "/><path d="M735.13,831.60 L210.33,1134.59 "/><path d="M210.37,1132.03 L210.55,1131.93 L210.61,1131.69 L210.61,1119.65 L210.55,1119.34 L210.32,1118.98 "/><path d="M210.61,1131.69 L741.48,825.19 L741.39,825.46 L741.24,825.53 "/><path d="M210.47,1132.00 L734.65,829.36 L734.65,830.78 "/><path d="M741.48,825.19 L741.48,813.15 L210.61,1119.65 "/><path d="M741.48,813.15 L741.37,812.74 L741.00,812.33 L210.33,1118.71 "/><path d="M210.33,1103.94 L721.85,808.61 L721.96,809.02 L722.33,809.43 L210.33,1105.03 "/><path d="M741.00,812.33 L730.58,806.31 L210.33,1106.67 "/><path d="M722.33,809.43 L723.55,810.14 L210.33,1106.45 "/><path d="M210.33,1100.10 L724.41,803.30 L724.41,804.61 L210.33,1101.42 "/><path d="M724.18,804.95 L724.24,804.94 L210.33,1101.64 "/><path d="M724.41,803.30 L724.30,802.88 L723.94,802.48 L210.33,1099.01 "/><path d="M210.33,1086.97 L713.51,796.46 L713.27,796.40 L713.10,796.50 "/><path d="M713.18,796.43 L210.33,1086.74 "/><path d="M723.94,802.48 L713.51,796.46 "/><path d="M721.85,808.61 L721.85,806.32 "/><path d="M723.55,810.14 L730.24,806.28 L730.16,806.35 "/><path d="M724.24,804.94 L724.41,804.61 "/><path d="M730.51,806.35 L730.41,806.25 L730.24,806.28 "/><path d="M734.65,829.36 L741.31,825.51 "/><path d="M741.48,844.90 L741.48,832.85 "/><path d="M741.31,845.22 L741.24,845.23 "/><path d="M739.87,831.38 L741.00,832.03 "/></g></g><g id="paperID" visibility="hidden" opacity="0.00" transform="scale(0.000100)"><path style="stroke:#000000;stroke-width:0.500;fill:#e6e6e6;fill-rule:evenodd" d="M-2000.00,-2000.00L2841.00,-2000.00L2841.00,3189.00L-2000.00,3189.00zM0.00,0.00L841.00,0.00L841.00,1189.00L0.00,1189.00z"/><path style="fill:#000000;fill-opacity:0.118" d="M3.00,1189.00L841.00,1189.00L841.00,3.00L844.00,3.00L844.00,1192.00L3.00,1192.00z"/></g><g id="ToolTip" visibility="hidden" opacity="0" transform="translate(0,0)"><rect id="ToolTipShadow" opacity="0.20" fill="black" stroke="none" x="0" y="0" width="30" height="8"/><rect id="ToolTipBG" fill="#ffffe1" stroke="black" x="0" y="0" width="30" height="8"/><text xml:space="preserve" id="ToolTipText" fill="black" x="0" y="0" width="30" height="8">tooltip</text></g></g></svg>
