<?xml version="1.0" encoding="UTF-8" standalone="no"?>
<svg xmlns="http://www.w3.org/2000/svg" xmlns:xlink="http://www.w3.org/1999/xlink" width="1500.000mm" height="1000.000mm" viewBox="0.000000 0.000000 1500.000000 1000.000000" stroke-linejoin="round" stroke-linecap="round" fill="none" fill-rule="evenodd"><desc>Composer Export</desc><script type="text/ecmascript"><![CDATA[
if(typeof(top) != "undefined")
{
	top.ShowPaper = ShowPaper;
}
function ShowHotSpot(evt,hotspotid)
{
	var svgDocument = evt.target.ownerDocument;
	var strId = "hotspot."+hotspotid;
	var hotspot = svgDocument.getElementById(strId);
	if(hotspot)
		hotspot.setAttribute("opacity",".5");
}
function HideHotSpot(evt,hotspotid)
{
	var svgDocument = evt.target.ownerDocument;
	var strId = "hotspot."+hotspotid;
	var hotspot = svgDocument.getElementById(strId);
	if(hotspot)
		hotspot.setAttribute("opacity","0");

	var toolTip = svgDocument.getElementById('ToolTip');
	if(toolTip)
		toolTip.setAttribute("visibility","hidden");
}
function ShowToolTip(evt,hotspotid,strTooltip)
{
	if(strTooltip=="")
	return;

	// change text
	var svgDocument = evt.target.ownerDocument;
	var tiptext = svgDocument.getElementById('ToolTipText');
	if( !tiptext )
	return;
	tiptext.firstChild.nodeValue = " " + strTooltip + "  " ;

	// show tooltip before, else some refresh issue

	var toolTip = svgDocument.getElementById('ToolTip');
	if(!toolTip)
	return;

	toolTip.setAttribute("visibility","visible");
	toolTip.setAttribute("opacity",".95");

	// move tooltip
	// get viewbox

	var root = svgDocument.documentElement;
	var vbox = (root.getAttribute("viewBox")).split(' ');
	var x0 = parseFloat(vbox[0]);
	var y0 = parseFloat(vbox[1]);
	var vboxW = parseFloat(vbox[2]);
	var vboxH = parseFloat(vbox[3]);

	// get default width of svg

	var strW = root.getAttribute("width");
	var svgW = parseFloat(strW);
	if(strW.indexOf('mm') != -1)
	svgW *= 3.779;

	var strH = root.getAttribute("height");
	var svgH = parseFloat(strH);
	if(strH.indexOf('mm') != -1)
	svgH *= 3.779;  	// 96 dpi  -> 96/25.4 = 3.779

	// update the viewbox / width / height if svg is embedded in html with zoom fit all
	var realx0 = x0;
	var realy0 = y0;
	var realvboxW = vboxW;
	var realvboxH = vboxH;
	var realsvgW = svgW;
	var realsvgH = svgH;

	if ((typeof(top) == "undefined") || (typeof(top.svgctl1) != "undefined")) // embedded in html
	{
		// get window size in pxl

		svgW = window.innerWidth;
		svgH = window.innerHeight;

		// calculate real viewbox

		realsvgW = svgW;
		realsvgH = svgH;
		if((svgW / svgH) > (vboxW / vboxH))
		{
			realvboxW = (vboxH * svgW) / svgH;
			realvboxH = vboxH;
			realx0 = x0 - (realvboxW - vboxW)/2 ;
		}
		else
		{
			realvboxH = (vboxW * svgH) / svgW;
			realvboxW = vboxW;
			realy0 = y0 - (realvboxH - vboxH)/2 ;
		}
	}

	// get user zoom/pan

	var newScale = root.currentScale;
	var translation = root.currentTranslate;

	// transform pxl to user unit

	var xPos = (((evt.clientX+10- translation.x)/newScale) * realvboxW)/realsvgW  + realx0 ;
	var yPos = (((evt.clientY+5- translation.y)/newScale) * realvboxH)/ realsvgH  + realy0 ;
	var scaleForWidth = ( (1 / newScale) * realvboxH) / realsvgH;

	// move tooltip

	toolTip.setAttribute("transform", "translate(" + xPos + "," + yPos + ")" );

	// resize tooltip

	var fontsize = 12;
	tiptext.setAttribute("font-size",fontsize*scaleForWidth);
	tiptext.setAttribute("y", fontsize*scaleForWidth);
	var tipBG = svgDocument.getElementById('ToolTipBG');
	var outline = tiptext.getBBox();
	if(tipBG)
	{
		tipBG.setAttribute("stroke-width", 1*scaleForWidth);
		tipBG.setAttribute("width", Number(outline.width) );
		tipBG.setAttribute("height", Number(outline.height) + fontsize*.5*scaleForWidth );
	}
	var ToolTipShadow = svgDocument.getElementById('ToolTipShadow');
	if(ToolTipShadow)
	{
		ToolTipShadow.setAttribute("width", Number(outline.width) );
		ToolTipShadow.setAttribute("height", Number(outline.height) + fontsize*.5*scaleForWidth );
		ToolTipShadow.setAttribute("x", 3*scaleForWidth);
		ToolTipShadow.setAttribute("y", 3*scaleForWidth);
	}
}
function ShowPaper()
{
  var svgDocument = getDocument();
  var paper = svgDocument.getElementById("paperID");
  if(paper)
  {
    paper.setAttribute("transform","scale(1)");
    paper.setAttribute("opacity","1");
    paper.setAttribute("visibility","visible");
  }
  var svg = svgDocument.getRootElement();
  if(svg)
  {
    svg.setAttribute("width","1510.000mm");
    svg.setAttribute("height","1010.000mm");
    svg.setAttribute("viewBox","-5.000000 -5.000000 1510.000000 1010.000000");
  }
}
]]></script><defs/><g><path style="fill:#ffffff" d="M1292.20,42.90L1292.49,0.17L1374.41,0.17L1374.97,207.58L1375.27,0.17L1408.90,0.17L1409.46,225.69L1409.76,0.17L1500.04,0.26L1500.04,999.94L0.26,999.94L0.26,0.26L164.69,0.17L164.24,744.68L163.36,745.31L164.24,746.12L165.26,810.29L165.55,0.17L199.18,0.17L199.74,861.16L200.04,0.17L278.50,0.17L279.07,810.29L279.86,345.12L279.36,0.17L1291.63,0.17z"/><path style="fill:#97fa98" d="M985.24,215.85L990.53,219.19L993.91,223.56L993.91,229.11L992.68,231.32L987.19,234.70L985.88,234.66L986.58,252.65L986.20,253.32L981.56,256.41L975.72,256.41L971.48,253.80L970.64,251.84L971.38,234.68L970.16,234.63L964.60,231.32L963.63,229.71L963.63,222.97L967.73,218.44L971.97,215.83L974.31,215.36L982.68,214.97z"/><path style="fill:#97fa98" d="M603.27,437.45L608.52,441.69L610.70,444.85L610.70,450.16L610.20,451.62L607.72,454.24L604.44,455.44L603.87,455.54L603.80,472.57L602.09,475.34L597.59,477.89L594.01,477.89L589.55,476.17L587.77,474.50L586.98,456.33L581.78,452.90L580.79,451.31L580.91,443.81L584.03,440.04L590.02,436.54L594.05,436.11L597.57,436.11L601.60,436.53z"/><path style="fill:#000020" d="M1292.20,42.90L1291.63,0.17L1292.49,0.17z"/><path style="fill:#000020" d="M1374.97,207.58L1374.41,0.17L1375.27,0.17z"/><path style="fill:#000020" d="M1409.46,225.69L1408.90,0.17L1409.76,0.17z"/><path style="fill:#000020" d="M1375.76,229.58L1374.97,245.52L1374.97,217.50z"/><path style="fill:#000020" d="M985.88,234.66L987.19,234.70L986.58,252.65z"/><path style="fill:#000020" d="M970.64,251.84L970.16,234.63L971.38,234.68z"/><path style="fill:#000020" d="M279.86,345.12L279.07,810.29L278.50,0.17L279.36,0.17z"/><path style="fill:#000020" d="M610.70,450.16L610.70,444.85L611.04,445.17z"/><path style="fill:#000020" d="M603.80,472.57L603.87,455.54L604.44,455.44z"/><path style="fill:#000020" d="M584.92,542.50L586.90,542.71L587.12,543.66L585.97,543.65z"/><path style="fill:#000020" d="M579.99,557.65L579.84,549.44L580.71,549.32z"/><path style="fill:#000020" d="M164.69,0.17L165.55,0.17L165.26,810.29L164.24,746.12L163.36,745.31L164.24,744.68z"/><path style="fill:#000020" d="M279.86,846.93L279.04,850.79L279.07,838.31z"/><path style="fill:#000020" d="M164.35,846.46L165.26,838.31L165.26,850.82z"/><path style="fill:#000020" d="M199.74,861.16L199.18,0.17L200.04,0.17z"/><g id="Actor_.0"><g style="stroke:#000000;stroke-width:0.705"><path d="M154.59,733.99 C154.58,735.86 154.58,735.86 154.59,737.73 C154.64,738.26 154.64,738.27 154.72,738.80 C154.89,739.23 154.90,739.23 155.10,739.65 "/><path d="M161.23,743.18 L160.85,742.34 L160.72,741.27 L154.59,737.73 L154.59,733.99 "/><path d="M155.10,739.65 L155.71,740.21 L161.84,743.75 L161.23,743.18 L165.15,742.13 "/><path d="M154.59,733.99 L154.59,711.25 L154.59,713.02 L160.72,716.56 L160.72,741.27 L165.15,741.27 "/><path d="M154.59,714.29 L154.59,713.02 L155.10,710.52 L156.50,708.09 L158.42,706.39 L156.89,707.27 L155.74,708.29 L154.90,709.75 L154.59,711.25 "/><path d="M157.89,706.69 L161.81,704.43 L158.42,706.39 L164.55,709.93 L165.15,710.98 "/><path d="M157.89,741.47 L162.00,743.84 L161.84,743.75 L165.15,742.49 "/><path d="M162.00,743.84 L165.15,745.66 L162.83,744.32 "/><path d="M165.15,716.56 L160.72,716.56 L161.23,714.05 L162.63,711.63 L165.15,713.79 "/><path d="M165.15,715.43 L161.23,714.05 "/><path d="M162.63,711.63 L164.55,709.93 L165.15,709.58 "/><path d="M165.15,702.50 L161.81,704.43 "/></g></g><g id="Actor_.1"><g style="stroke:#000000;stroke-width:0.705"><path d="M199.98,-0.00 C199.89,602.71 199.89,430.51 199.98,861.01 C200.32,862.65 200.44,862.65 200.83,864.30 C200.87,865.77 200.87,865.78 200.83,867.26 "/><path d="M244.03,-0.00 C244.11,602.71 244.11,430.51 244.03,861.01 C243.69,862.65 243.56,862.65 243.18,864.30 C243.14,865.77 243.14,865.79 243.18,867.26 "/><path d="M257.43,890.72 C257.36,873.64 257.36,876.27 257.43,861.83 C257.78,860.18 257.90,860.19 258.28,858.54 C258.32,857.07 258.32,857.65 258.28,855.57 "/><path d="M165.50,-0.00 L165.50,878.56 L165.15,878.21 "/><path d="M165.15,877.87 L165.15,-0.00 "/><path d="M165.50,878.56 L186.57,890.72 L187.18,890.92 L187.88,890.92 L188.49,890.72 L188.49,863.40 L190.78,862.07 L190.78,889.39 L188.49,890.72 "/><path d="M186.57,890.72 L186.57,861.83 L187.33,863.07 L187.89,863.43 L188.49,863.40 "/><path d="M186.57,861.83 L185.72,858.54 L185.72,855.57 L186.57,853.27 L187.33,852.47 L188.49,851.70 L188.49,-0.00 "/><path d="M186.57,853.27 L186.57,-0.00 "/><path d="M191.14,888.64 L191.14,889.04 L191.17,860.85 L191.13,861.55 L190.78,862.07 "/><path d="M191.14,889.04 L190.78,889.39 "/><path d="M195.19,-0.00 L195.19,880.88 L191.14,883.22 "/><path d="M191.17,860.85 L189.94,856.11 L189.94,853.14 L190.78,850.62 "/><path d="M188.49,851.70 L190.78,850.40 L190.78,-0.00 "/><path d="M190.78,850.40 L191.17,850.25 L190.78,850.83 "/><path d="M191.17,850.25 L191.17,-0.00 "/><path d="M195.19,880.88 L195.80,880.68 L196.50,880.68 L197.10,880.88 L199.61,882.33 "/><path d="M197.10,880.88 L197.10,-0.00 "/><path d="M199.98,898.46 L199.98,869.57 L199.60,870.15 L199.63,898.11 L199.98,898.46 L221.05,910.62 L221.05,-0.00 "/><path d="M200.55,868.01 L200.55,863.23 "/><path d="M200.83,867.26 L199.98,869.57 "/><path d="M199.98,861.01 L199.60,859.55 L199.60,847.33 L199.60,850.96 "/><path d="M199.60,847.33 L199.60,-0.00 "/><path d="M244.03,898.46 L244.38,898.11 L244.41,870.15 L244.03,869.57 L244.03,898.46 L222.96,910.62 L222.35,910.83 L221.65,910.83 L221.05,910.62 "/><path d="M222.96,910.62 L222.96,-0.00 "/><path d="M252.86,883.22 L248.82,880.88 L248.21,880.68 L247.51,880.68 L246.90,880.88 L244.40,882.33 "/><path d="M243.45,863.23 L243.45,868.01 "/><path d="M243.18,867.26 L244.03,869.57 "/><path d="M244.03,861.01 L244.41,859.56 L244.41,847.33 L244.41,850.96 "/><path d="M244.41,847.33 L244.41,-0.00 "/><path d="M248.82,880.88 L248.82,-0.00 "/><path d="M246.90,880.88 L246.90,-0.00 "/><path d="M253.22,889.39 L255.52,890.72 L255.52,863.41 L253.22,862.07 L253.22,889.39 L252.87,889.04 L252.87,888.64 "/><path d="M252.87,889.04 L252.84,860.85 L252.87,861.55 L253.22,862.07 "/><path d="M255.52,890.72 L256.13,890.92 L256.83,890.92 L257.43,890.72 "/><path d="M258.28,855.57 L257.43,853.27 L257.43,-0.00 "/><path d="M255.52,863.41 L256.12,863.43 L256.68,863.07 L257.43,861.83 "/><path d="M253.22,850.65 L254.07,853.14 L254.07,856.11 L252.84,860.85 "/><path d="M257.43,853.27 L256.68,852.47 L255.52,851.70 L255.52,-0.00 "/><path d="M253.22,850.47 L253.22,-0.00 "/><path d="M253.22,850.83 L252.84,850.25 L255.52,851.70 "/><path d="M252.84,-0.00 L252.84,850.25 "/><path d="M257.43,890.72 L278.50,878.56 L278.50,-0.00 "/><path d="M278.50,878.56 L278.85,878.21 "/><path d="M278.85,-0.00 L278.85,877.93 "/></g></g><g id="Actor_.2"><g style="stroke:#000000;stroke-width:0.705"><path d="M162.25,694.58 L162.25,689.66 L162.25,695.33 L164.19,696.45 L165.15,696.17 "/><path d="M162.25,689.66 L162.25,-0.00 "/><path d="M164.19,696.45 L164.19,-0.00 "/></g></g><g id="Actor_.3"><g style="stroke:#000000;stroke-width:0.705"><path d="M1292.22,39.41 L1292.22,42.94 L1292.22,-0.00 "/><path d="M1292.22,42.94 L1294.16,44.06 L1295.13,43.77 "/><path d="M1294.16,44.06 L1294.16,-0.00 "/></g></g><g id="Actor_.4"><g style="stroke:#000000;stroke-width:0.705"><path d="M1374.45,195.09 C1374.45,198.02 1374.45,196.07 1374.45,197.04 C1374.45,197.69 1374.45,197.69 1374.45,198.34 C1374.42,198.46 1374.42,198.46 1374.39,198.57 "/><path d="M1295.48,-0.00 L1295.48,159.82 "/><path d="M1295.13,-0.00 L1295.13,159.73 "/><path d="M1316.55,187.06 L1316.55,177.25 "/><path d="M1316.55,171.98 L1316.55,-0.00 "/><path d="M1318.46,-0.00 L1318.46,185.95 "/><path d="M1320.76,184.63 L1320.76,0.00 "/><path d="M1321.14,184.41 L1321.14,-0.00 "/><path d="M1325.17,-0.00 L1325.17,182.08 "/><path d="M1327.08,-0.00 L1327.08,180.98 "/><path d="M1329.95,179.72 L1329.95,-0.00 "/><path d="M1329.57,-0.00 L1329.57,179.62 "/><path d="M1352.94,-0.00 L1352.94,258.23 L1352.33,258.43 L1351.63,258.43 L1351.47,258.38 "/><path d="M1351.02,218.83 L1351.02,231.69 "/><path d="M1351.02,-0.00 L1351.02,191.89 "/><path d="M1352.94,258.23 L1374.00,246.07 L1374.35,245.72 L1374.39,217.76 L1374.00,217.18 L1374.00,246.07 "/><path d="M1374.37,229.93 L1376.88,228.49 L1377.48,228.28 L1378.19,228.28 L1378.79,228.49 L1378.79,-0.00 "/><path d="M1374.00,217.18 L1373.16,214.87 L1373.16,211.90 L1374.39,207.16 L1374.39,-0.00 "/><path d="M1373.43,215.62 L1373.43,210.84 "/><path d="M1374.00,208.61 L1374.00,-0.00 "/><path d="M1374.39,194.94 L1374.45,195.09 "/><path d="M1378.79,228.49 L1382.84,230.82 "/><path d="M1376.88,228.49 L1376.88,-0.00 "/><path d="M1382.85,236.25 L1382.85,236.65 L1383.20,237.00 L1385.50,238.33 L1385.50,211.02 L1386.10,211.04 L1386.66,210.67 L1387.41,209.44 L1387.41,238.33 L1386.80,238.53 L1386.10,238.53 L1385.50,238.33 "/><path d="M1383.20,237.00 L1383.20,209.68 L1385.50,211.02 "/><path d="M1382.85,236.45 L1382.82,208.46 L1382.85,209.16 L1383.20,209.68 "/><path d="M1383.20,198.26 L1383.20,198.44 L1384.05,200.75 L1384.05,203.72 L1382.82,208.46 "/><path d="M1383.20,-0.00 L1383.20,198.08 "/><path d="M1382.82,-0.00 L1382.82,197.86 L1382.85,197.80 L1383.20,197.98 L1385.50,199.30 L1385.50,-0.00 "/><path d="M1382.82,197.86 L1383.20,198.44 "/><path d="M1385.50,199.30 L1386.66,200.08 L1387.41,200.87 L1388.26,203.18 L1388.26,206.15 L1387.41,209.44 "/><path d="M1408.83,225.81 L1408.48,226.17 L1387.41,238.33 "/><path d="M1387.41,200.87 L1387.41,-0.00 "/><path d="M1408.48,226.17 L1408.48,0.00 "/><path d="M1408.83,-0.00 L1408.83,225.54 "/></g></g><g id="Actor_.5"><g style="stroke:#000000;stroke-width:0.705"><path d="M1295.13,90.10 L1291.81,91.36 L1285.69,87.82 L1285.08,87.25 L1284.69,86.41 L1284.56,85.34 L1284.56,60.63 L1285.08,58.12 L1286.48,55.70 L1288.40,54.00 L1286.86,54.88 L1285.71,55.90 L1284.87,57.36 L1284.56,58.86 L1284.56,60.63 L1290.69,64.17 L1295.13,64.17 "/><path d="M1284.56,85.34 L1290.69,88.88 L1290.82,89.95 L1291.21,90.79 L1295.13,89.74 "/><path d="M1287.83,89.05 L1292.76,91.90 L1291.81,91.36 L1291.21,90.79 "/><path d="M1288.07,54.19 L1292.76,51.47 L1288.40,54.00 L1294.52,57.54 L1292.61,59.23 L1291.21,61.66 L1290.69,64.17 L1290.69,88.88 L1295.13,88.88 "/><path d="M1292.76,91.90 L1295.13,93.27 L1292.76,91.90 "/><path d="M1292.61,59.23 L1295.13,61.40 "/><path d="M1291.21,61.66 L1295.13,63.04 "/><path d="M1295.13,58.59 L1294.52,57.54 L1295.13,57.19 "/><path d="M1295.13,50.11 L1292.76,51.47 "/></g></g><g id="Actor_.6"><g style="stroke:#000000;stroke-width:0.705"><path d="M905.67,-0.00 L1238.63,192.24 "/><path d="M1238.28,192.44 L904.96,-0.00 "/><path d="M1261.61,178.97 L951.63,-0.00 "/><path d="M947.80,-0.00 L1259.70,180.07 "/><path d="M956.23,-0.00 L1263.91,177.64 "/><path d="M956.93,-0.00 L1264.26,177.44 "/><path d="M1268.32,175.10 L965.04,-0.00 "/><path d="M1270.23,173.99 L968.87,-0.00 "/><path d="M974.61,-0.00 L1273.10,172.33 "/><path d="M973.91,-0.00 L1272.75,172.54 "/><path d="M1016.75,-0.00 L1294.17,160.17 "/><path d="M1295.13,158.51 L1020.58,0.00 "/><path d="M1062.71,0.00 L1295.13,134.19 "/><path d="M1063.41,-0.00 L1070.72,4.22 L1067.86,2.57 "/><path d="M1295.13,130.87 L1068.46,-0.00 "/><path d="M1072.29,-0.00 L1295.13,128.66 "/><path d="M1295.13,133.78 L1070.72,4.22 "/><path d="M1080.40,-0.00 L1295.13,123.98 "/><path d="M1295.13,123.57 L1081.10,-0.00 "/><path d="M1089.53,0.00 L1295.13,118.71 "/><path d="M1295.13,120.92 L1085.70,-0.00 "/><path d="M1131.66,-0.00 L1295.13,94.38 "/><path d="M1132.36,-0.00 L1295.13,93.97 "/><path d="M1295.13,159.03 L1295.00,159.14 L1294.65,159.75 L1294.62,159.91 "/></g></g><g id="Actor_.7"><g style="stroke:#000000;stroke-width:0.705"><path d="M278.85,851.22 L279.33,851.95 L279.46,852.57 L279.33,877.38 L700.66,634.12 L699.87,634.58 "/><path d="M279.46,876.90 L1351.97,257.70 L1351.85,258.16 L700.66,634.12 "/><path d="M279.33,877.38 L278.98,877.58 "/><path d="M279.46,852.57 L1351.97,233.36 L1351.85,232.73 L1351.02,231.69 L1348.72,230.37 L1348.24,230.24 L1347.98,230.39 "/><path d="M1348.72,230.37 L278.85,848.06 "/><path d="M1351.02,231.69 L278.85,850.71 "/><path d="M278.85,847.65 L1348.24,230.24 "/><path d="M278.85,842.97 L1339.15,230.81 L1338.32,229.78 L1338.19,229.15 L278.85,840.76 "/><path d="M278.98,837.77 L1351.85,218.35 L1351.97,217.89 L279.46,837.09 L279.46,812.81 L279.33,812.14 L278.85,811.42 "/><path d="M279.33,837.57 L279.46,837.09 "/><path d="M279.46,812.81 L1351.97,193.55 L1351.85,192.92 L1351.02,191.89 L1035.49,374.06 "/><path d="M594.51,628.66 L278.85,810.90 "/><path d="M278.85,783.26 L570.57,614.84 "/><path d="M278.85,786.58 L573.44,616.50 "/><path d="M573.10,616.29 L278.85,786.17 "/><path d="M568.66,613.73 L278.85,781.05 "/><path d="M564.25,611.19 L278.85,775.96 "/><path d="M347.80,736.56 L278.85,776.37 "/><path d="M560.04,608.76 L278.85,771.10 "/><path d="M278.85,773.31 L561.95,609.86 "/><path d="M278.85,746.77 L538.97,596.59 "/><path d="M278.85,746.37 L538.62,596.39 L537.83,596.85 "/><path d="M345.39,737.95 L564.60,611.39 "/><path d="M624.68,547.11 L922.01,375.44 "/><path d="M624.50,546.81 L921.66,375.24 L917.76,377.49 "/><path d="M945.00,388.71 L636.17,567.01 "/><path d="M635.21,565.35 L943.08,387.61 "/><path d="M640.48,574.48 L953.62,393.69 "/><path d="M639.52,572.82 L951.70,392.58 "/><path d="M947.30,390.04 L637.32,569.00 "/><path d="M947.65,390.24 L637.49,569.31 "/><path d="M641.91,576.96 L956.49,395.35 "/><path d="M641.74,576.66 L794.41,488.52 L792.70,489.50 "/><path d="M977.55,407.51 L652.45,595.21 "/><path d="M794.41,488.52 L956.14,395.14 L952.30,397.36 "/><path d="M1007.72,325.96 L1295.48,159.82 L1295.00,159.69 L1007.54,325.66 "/><path d="M1020.36,347.85 L1317.43,176.34 L1317.43,173.68 L1019.21,345.86 "/><path d="M1020.54,348.16 L1317.38,176.77 L1317.43,176.34 "/><path d="M1018.25,344.20 L1316.55,171.98 L1295.48,159.82 "/><path d="M1024.96,355.81 L1329.95,179.72 L1329.47,179.60 L1024.78,355.51 "/><path d="M1023.52,353.33 L1313.29,186.03 L1312.81,185.60 L1312.33,184.37 L1022.56,351.67 "/><path d="M1139.80,350.58 L1140.61,350.12 "/><path d="M1295.00,159.69 L1292.76,160.98 "/><path d="M1312.33,184.37 L1312.33,179.69 "/><path d="M1315.81,187.48 L1313.29,186.03 "/><path d="M1317.43,173.68 L1317.38,173.02 L1316.55,171.98 "/><path d="M1329.47,179.60 L1327.30,180.85 "/><path d="M1329.95,179.72 L1351.02,191.89 "/><path d="M1343.20,233.15 L1339.15,230.81 "/><path d="M1338.19,229.15 L1338.19,226.24 "/><path d="M1347.04,260.94 L1351.50,258.36 "/><path d="M1351.97,233.36 L1351.97,257.70 "/><path d="M1351.97,217.89 L1351.97,193.55 "/><path d="M1351.85,218.35 L1351.69,218.44 "/></g></g><g id="Actor_.8"><g style="stroke:#000000;stroke-width:0.705"><path d="M165.15,877.55 L165.02,877.58 L164.67,877.38 L164.55,876.90 L0.00,781.90 "/><path d="M-0.00,782.30 L165.02,877.58 "/><path d="M164.55,876.90 L164.55,852.57 L-0.00,757.57 "/><path d="M0.00,755.36 L165.15,850.71 "/><path d="M165.15,847.65 L-0.00,752.30 "/><path d="M165.15,842.97 L0.00,747.62 "/><path d="M165.15,848.06 L0.00,752.71 "/><path d="M0.00,745.41 L165.15,840.76 "/><path d="M-0.00,742.50 L164.67,837.57 L164.55,837.09 L164.55,812.77 L164.67,812.14 L165.02,811.53 L165.15,811.42 "/><path d="M164.55,837.09 L0.00,742.09 "/><path d="M164.55,812.77 L0.00,717.76 "/><path d="M165.15,810.90 L0.00,715.55 "/><path d="M165.15,783.26 L0.00,687.91 "/><path d="M-0.00,691.23 L165.15,786.58 "/><path d="M-0.00,690.82 L165.15,786.17 "/><path d="M0.00,685.70 L165.15,781.05 "/><path d="M165.15,773.31 L0.00,677.96 "/><path d="M0.00,680.61 L165.15,775.96 "/><path d="M0.00,681.02 L165.15,776.37 "/><path d="M165.15,771.10 L0.00,675.75 "/><path d="M0.00,651.42 L165.15,746.77 "/><path d="M-0.00,651.01 L165.15,746.37 "/><path d="M164.67,877.38 L163.76,876.85 "/><path d="M164.55,852.57 L164.67,851.95 L165.02,851.34 L165.15,851.22 "/><path d="M165.15,837.74 L165.02,837.77 L164.67,837.57 "/></g></g><g id="Actor_.9"><g style="stroke:#000000;stroke-width:0.705"><path d="M963.26,224.43 C963.99,223.10 964.00,223.10 964.76,221.78 C965.34,221.02 965.34,221.00 965.95,220.27 C967.36,219.08 967.37,219.07 968.82,217.93 C970.37,217.00 970.37,216.99 971.95,216.12 C973.47,215.63 973.48,215.64 975.02,215.21 C975.71,215.13 975.72,215.13 976.41,215.09 "/><path d="M972.77,222.94 C974.16,223.51 974.18,223.51 975.60,224.00 C977.26,224.20 977.27,224.20 978.94,224.31 C980.57,224.10 980.59,224.10 982.20,223.80 C983.53,223.23 983.54,223.23 984.83,222.58 "/><path d="M985.33,217.07 C984.15,216.36 984.14,216.36 982.94,215.69 C982.43,215.55 982.42,215.58 981.91,215.46 C980.85,215.23 980.85,215.19 979.78,214.99 C978.10,215.01 978.09,215.01 976.41,215.09 "/><path d="M976.41,215.09 C977.30,215.03 977.30,215.03 978.19,214.98 C978.99,214.98 978.99,214.98 979.78,214.99 C980.67,215.04 980.67,215.02 981.55,215.10 C983.17,215.52 983.18,215.51 984.78,215.99 C986.06,216.69 986.05,216.72 987.32,217.46 C988.55,218.27 988.56,218.26 989.77,219.09 C990.71,219.98 990.70,220.00 991.62,220.91 C991.95,221.34 991.95,221.34 992.27,221.78 C993.02,223.10 993.02,223.10 993.76,224.43 "/><path d="M992.27,229.87 C990.89,231.04 990.87,231.05 989.43,232.13 C987.51,232.99 987.49,233.00 985.52,233.77 C983.24,234.24 983.23,234.24 980.93,234.63 C978.52,234.67 978.51,234.67 976.10,234.63 C973.80,234.24 973.79,234.24 971.50,233.77 C969.54,233.00 969.54,232.96 967.60,232.13 C967.34,231.95 967.34,231.94 967.11,231.74 "/><path d="M992.27,230.97 C990.89,232.13 990.87,232.14 989.43,233.22 C987.51,234.09 987.49,234.09 985.52,234.86 C983.24,235.34 983.23,235.33 980.93,235.73 C978.96,235.77 978.95,235.73 976.97,235.73 C976.54,235.73 976.53,235.74 976.10,235.73 C973.80,235.31 973.79,235.34 971.50,234.86 C969.54,234.09 969.52,234.09 967.60,233.22 C966.15,232.14 966.14,232.13 964.76,230.97 "/><path d="M984.83,254.20 C983.54,254.85 983.53,254.86 982.20,255.43 C980.59,255.72 980.57,255.72 978.94,255.93 C977.27,255.82 977.26,255.82 975.60,255.63 C974.18,255.14 974.16,255.13 972.77,254.57 "/><path d="M976.89,216.14 C976.32,216.74 976.32,216.74 975.73,217.33 C975.21,217.72 975.21,217.73 974.68,218.10 C974.17,218.33 974.16,218.33 973.64,218.54 C973.06,218.63 973.05,218.63 972.47,218.69 "/><path d="M972.47,218.69 C972.68,219.41 972.68,219.41 972.90,220.13 C973.08,220.63 973.08,220.63 973.28,221.12 C973.47,221.45 973.46,221.46 973.66,221.78 C973.87,221.98 973.87,221.99 974.09,222.18 "/><path d="M974.09,222.18 C974.97,222.56 974.97,222.56 975.87,222.90 C976.91,223.08 976.92,223.08 977.97,223.22 C979.05,223.19 979.05,223.19 980.13,223.11 C981.12,222.87 981.13,222.87 982.10,222.58 C982.88,222.16 982.89,222.16 983.64,221.70 "/><path d="M976.89,216.14 C977.68,216.53 977.69,216.53 978.49,216.90 C979.20,217.11 979.20,217.11 979.91,217.29 C980.63,217.33 980.63,217.33 981.34,217.35 C982.14,217.22 982.14,217.22 982.94,217.07 "/><path d="M984.55,220.56 C984.34,220.37 984.33,220.37 984.13,220.16 C983.93,219.84 983.93,219.83 983.75,219.50 C983.55,219.01 983.55,219.01 983.36,218.51 C983.14,217.79 983.14,217.79 982.94,217.07 "/><path d="M982.94,217.07 C982.06,216.69 982.05,216.69 981.16,216.35 C980.11,216.17 980.11,216.17 979.06,216.03 C977.98,216.06 977.97,216.06 976.89,216.14 "/><path d="M967.11,231.74 L964.76,229.87 L963.26,227.22 L963.26,224.43 "/><path d="M976.41,215.09 L973.40,215.98 L971.27,217.49 L970.40,219.38 L970.93,221.31 L972.77,222.94 "/><path d="M984.83,222.58 L986.36,220.84 L986.54,218.89 L985.33,217.07 "/><path d="M993.76,224.43 L993.76,227.22 L992.27,229.87 "/><path d="M993.76,227.22 L993.76,228.32 L992.27,230.97 "/><path d="M964.76,230.97 L963.26,228.32 L963.26,227.22 "/><path d="M963.26,225.53 L963.26,224.43 L963.26,226.06 L963.26,225.53 "/><path d="M986.54,234.44 L986.54,250.51 L986.36,252.46 L984.83,254.20 "/><path d="M972.77,254.57 L970.93,252.93 L970.40,251.00 L970.40,234.40 "/><path d="M971.57,216.87 L973.40,215.98 L975.02,215.21 L975.01,215.21 "/><path d="M972.77,235.10 L972.77,254.57 L974.68,255.67 L977.11,256.48 L979.92,256.48 L982.34,255.67 L984.83,254.20 "/><path d="M974.79,222.46 L976.89,221.24 L976.89,216.14 "/><path d="M983.64,221.70 L984.55,220.56 L983.39,221.75 L982.84,222.15 "/><path d="M974.09,222.18 L972.84,221.15 L972.28,219.94 L972.47,218.69 L973.39,217.55 L974.78,216.75 L974.93,216.67 L976.89,216.14 "/><path d="M982.94,217.07 L982.94,222.09 "/><path d="M976.89,221.24 L982.83,222.16 "/><path d="M982.94,217.07 L984.18,218.10 L984.74,219.31 L984.55,220.56 "/><path d="M993.76,228.32 L993.76,224.43 "/></g></g><g id="Actor_.10"><g style="stroke:#000000;stroke-width:0.705"><path d="M581.71,451.02 C583.09,452.19 583.11,452.20 584.55,453.28 C586.48,454.14 586.50,454.15 588.46,454.92 C590.74,455.39 590.76,455.39 593.06,455.78 C595.47,455.82 595.48,455.82 597.89,455.78 C600.19,455.39 600.20,455.39 602.48,454.92 C604.44,454.15 604.46,454.14 606.39,453.28 C607.83,452.20 607.85,452.19 609.23,451.02 "/><path d="M609.23,452.12 C607.85,453.28 607.83,453.29 606.39,454.37 C604.46,455.24 604.44,455.24 602.48,456.01 C600.20,456.49 600.18,456.49 597.89,456.88 C595.48,456.92 595.46,456.92 593.05,456.88 C590.76,456.49 590.74,456.49 588.46,456.01 C586.50,455.24 586.48,455.24 584.55,454.37 C583.11,453.29 583.09,453.28 581.71,452.12 "/><path d="M580.22,445.58 C580.95,444.25 580.95,444.25 581.71,442.93 C582.30,442.17 582.29,442.15 582.91,441.42 C584.32,440.23 584.32,440.22 585.77,439.08 C587.32,438.15 587.33,438.14 588.91,437.27 C590.43,436.78 590.44,436.77 591.98,436.36 "/><path d="M601.78,475.35 C600.50,476.00 600.48,476.01 599.16,476.58 C597.54,476.87 597.53,476.87 595.90,477.08 C594.23,476.97 594.22,476.97 592.56,476.78 C591.13,476.29 591.12,476.28 589.72,475.72 "/><path d="M589.72,444.09 C590.74,444.47 590.74,444.47 591.75,444.85 C592.16,445.00 592.15,445.02 592.56,445.15 C594.22,445.32 594.23,445.35 595.90,445.46 C597.53,445.25 597.54,445.25 599.16,444.95 C600.48,444.38 600.50,444.38 601.79,443.73 "/><path d="M602.28,438.22 C601.12,437.50 601.10,437.49 599.90,436.84 C598.34,436.45 598.32,436.45 596.74,436.14 C595.06,436.15 595.05,436.15 593.37,436.24 "/><path d="M593.37,436.24 C594.26,436.18 594.26,436.18 595.15,436.13 C595.95,436.13 595.95,436.13 596.74,436.14 C597.62,436.19 597.63,436.17 598.51,436.25 C600.12,436.67 600.14,436.66 601.73,437.14 C603.02,437.84 603.01,437.87 604.27,438.61 C605.50,439.42 605.52,439.41 606.72,440.24 C607.66,441.13 607.66,441.15 608.57,442.06 C608.91,442.49 608.91,442.49 609.23,442.93 C609.98,444.25 609.98,444.25 610.72,445.58 "/><path d="M593.85,437.29 C593.28,437.89 593.28,437.89 592.68,438.48 C592.17,438.87 592.17,438.88 591.64,439.25 C591.12,439.48 591.12,439.48 590.59,439.69 C590.02,439.78 590.01,439.78 589.43,439.84 "/><path d="M593.85,437.29 C594.64,437.68 594.64,437.68 595.44,438.05 C596.15,438.26 596.16,438.26 596.87,438.44 C597.58,438.48 597.59,438.48 598.30,438.50 C599.10,438.37 599.10,438.37 599.89,438.22 "/><path d="M600.59,442.85 C599.84,443.31 599.83,443.31 599.06,443.73 C598.08,444.02 598.07,444.00 597.09,444.26 C597.06,444.26 597.06,444.26 597.04,444.26 C595.98,444.32 595.98,444.34 594.93,444.37 C593.88,444.23 593.87,444.23 592.83,444.05 C591.93,443.71 591.92,443.71 591.05,443.33 "/><path d="M591.05,443.33 C590.83,443.14 590.83,443.13 590.62,442.93 C590.42,442.61 590.42,442.60 590.24,442.27 C590.04,441.78 590.04,441.78 589.86,441.28 C589.64,440.56 589.64,440.56 589.43,439.84 "/><path d="M593.85,437.29 C594.93,437.22 594.93,437.22 596.02,437.18 C596.53,437.24 596.53,437.26 597.04,437.33 C597.58,437.42 597.58,437.40 598.11,437.50 C599.01,437.84 599.02,437.84 599.89,438.22 C600.53,438.71 600.54,438.72 601.14,439.25 "/><path d="M601.51,441.71 C601.29,441.52 601.29,441.52 601.09,441.31 C600.89,440.99 600.89,440.98 600.70,440.65 C600.51,440.16 600.51,440.16 600.32,439.66 C600.10,438.94 600.10,438.94 599.89,438.22 "/><path d="M609.23,451.02 L610.72,448.37 L610.72,449.47 L609.23,452.12 "/><path d="M581.71,452.12 L580.22,449.47 L580.22,448.37 L581.71,451.02 "/><path d="M580.22,448.37 L580.22,445.58 "/><path d="M591.98,436.36 L590.36,437.13 L593.37,436.24 L591.97,436.36 "/><path d="M580.22,445.58 L580.22,447.21 L580.22,445.58 "/><path d="M589.72,456.25 L589.72,475.72 L591.64,476.82 L594.07,477.63 L596.87,477.63 L599.30,476.82 L601.78,475.35 "/><path d="M589.72,475.72 L587.88,474.08 L587.36,472.15 L587.36,455.55 "/><path d="M588.53,438.02 L590.36,437.13 L588.23,438.64 L588.15,438.82 L587.36,440.53 L587.88,442.46 L589.72,444.09 "/><path d="M601.79,443.73 L603.32,441.99 L603.50,440.04 L602.28,438.22 "/><path d="M610.72,445.58 L610.72,448.37 "/><path d="M591.75,443.61 L593.85,442.39 L593.85,437.29 "/><path d="M589.43,439.84 L590.35,438.70 L590.83,438.42 L591.88,437.82 L593.85,437.29 "/><path d="M599.89,438.22 L599.89,443.24 "/><path d="M599.80,443.30 L600.35,442.90 L601.51,441.71 L600.59,442.85 "/><path d="M589.43,439.84 L589.24,441.09 L589.80,442.30 L591.05,443.33 "/><path d="M593.85,442.39 L599.79,443.31 "/><path d="M601.14,439.25 L601.70,440.46 L601.51,441.71 "/><path d="M601.78,475.35 L603.32,473.61 L603.50,471.66 L603.50,455.59 "/><path d="M610.72,449.47 L610.72,445.58 "/></g></g><g id="Actor_.11"><g style="stroke:#000000;stroke-width:0.705"><path d="M965.98,336.35 C966.58,335.45 966.58,335.45 967.15,334.53 C967.56,333.55 967.56,333.54 967.92,332.55 C968.08,331.60 968.08,331.60 968.19,330.65 C968.08,329.85 968.08,329.84 967.92,329.05 "/><path d="M968.19,330.65 C967.66,331.26 967.66,331.26 967.15,331.89 C966.81,332.51 966.81,332.52 966.49,333.15 C966.28,333.86 966.28,333.87 966.11,334.58 C966.03,335.46 966.03,335.47 965.98,336.35 "/><path d="M969.20,332.83 C969.66,331.23 969.66,331.21 970.04,329.59 C970.08,328.13 970.05,328.12 970.04,326.66 C969.95,325.19 969.97,325.18 969.85,323.72 C969.55,322.46 969.55,322.45 969.20,321.21 "/><path d="M963.45,339.87 L964.36,339.45 L963.50,340.03 "/><path d="M963.66,340.50 L965.84,338.43 L966.64,337.29 L964.36,339.45 L965.85,338.43 "/><path d="M966.64,337.29 L968.41,334.42 L968.90,332.87 L969.38,331.33 L969.38,328.58 L968.41,326.62 L966.64,325.80 L964.37,326.26 L963.06,327.17 "/><path d="M963.09,338.62 L964.53,337.79 L965.98,336.35 L964.36,336.76 L963.17,337.28 L962.89,337.49 "/><path d="M967.92,329.05 L967.15,327.96 L965.98,327.50 L966.11,328.07 L966.49,328.73 L967.15,329.56 L968.19,330.65 "/><path d="M965.98,336.35 L962.36,334.26 "/><path d="M968.01,335.06 L967.62,335.80 L966.87,336.91 "/><path d="M965.83,338.44 L965.84,338.43 "/><path d="M963.72,328.19 L962.36,331.70 "/><path d="M963.74,328.18 L964.36,327.91 L965.98,327.50 L964.53,327.73 L963.00,328.61 L962.66,328.95 "/><path d="M968.19,330.65 L963.84,328.14 "/><path d="M968.41,334.42 L969.20,332.83 "/><path d="M969.20,321.21 L969.15,321.08 "/></g></g><g id="Actor_.12"><g style="stroke:#000000;stroke-width:0.705"><path d="M581.32,560.60 C582.48,559.55 582.49,559.54 583.59,558.44 C584.51,557.03 584.52,557.02 585.37,555.57 C585.89,554.04 585.90,554.03 586.34,552.48 C586.39,551.12 586.39,551.10 586.34,549.73 "/><path d="M582.93,557.50 C582.98,556.61 582.98,556.61 583.06,555.73 C583.24,555.02 583.24,555.01 583.45,554.30 C583.76,553.67 583.76,553.66 584.11,553.04 C584.61,552.41 584.62,552.41 585.14,551.80 "/><path d="M585.14,551.80 C585.03,552.75 585.03,552.75 584.88,553.70 C584.52,554.69 584.51,554.70 584.11,555.68 C583.54,556.60 583.54,556.60 582.93,557.50 "/><path d="M585.14,551.80 C584.62,551.25 584.62,551.25 584.11,550.71 C583.77,550.30 583.77,550.30 583.45,549.88 C583.25,549.55 583.25,549.55 583.06,549.22 C582.99,548.94 582.99,548.93 582.93,548.65 "/><path d="M586.16,553.98 C586.61,552.38 586.62,552.36 587.00,550.74 C587.04,549.28 587.01,549.27 587.00,547.81 C586.91,546.34 586.93,546.33 586.81,544.87 C586.51,543.61 586.51,543.60 586.16,542.36 "/><path d="M580.40,561.02 L581.32,560.60 L582.80,559.58 L580.62,561.65 "/><path d="M580.46,561.18 L581.32,560.60 "/><path d="M586.34,549.73 L585.37,547.77 L583.59,546.95 L581.32,547.41 L580.02,548.32 "/><path d="M579.85,558.64 L580.13,558.43 L581.31,557.91 L582.93,557.50 L581.49,558.94 L580.05,559.77 "/><path d="M579.32,552.85 L580.68,549.34 "/><path d="M582.93,557.50 L579.32,555.41 "/><path d="M579.62,550.10 L579.95,549.76 L581.49,548.88 L582.93,548.65 L584.11,549.11 L584.88,550.20 L585.14,551.80 L580.80,549.29 "/><path d="M582.93,548.65 L581.31,549.06 L580.70,549.33 "/><path d="M583.59,558.44 L582.80,559.58 L582.80,559.58 "/><path d="M584.97,556.21 L584.58,556.95 L583.83,558.06 "/><path d="M582.79,559.59 L582.80,559.58 "/><path d="M585.37,555.57 L586.16,553.98 "/><path d="M586.16,542.36 L586.10,542.23 "/></g></g><g id="Actor_.13"><g style="stroke:#000000;stroke-width:0.705"><path d="M162.25,377.98 L-0.00,284.31 "/><path d="M-0.00,284.71 L162.25,378.39 "/><path d="M0.00,259.98 L162.25,353.66 "/><path d="M162.25,348.79 L-0.00,255.12 "/><path d="M-0.00,257.77 L162.25,351.45 "/><path d="M17.12,264.60 L-0.00,254.71 "/><path d="M162.25,338.18 L-0.00,244.50 "/><path d="M162.25,343.71 L0.00,250.03 "/><path d="M162.25,341.49 L0.00,247.82 "/><path d="M162.25,338.58 L-0.00,244.91 "/><path d="M162.25,313.85 L-0.00,220.18 "/><path d="M-0.00,217.96 L162.25,311.64 "/><path d="M-0.00,193.64 L162.25,287.31 "/><path d="M-0.00,193.23 L162.25,286.91 "/><path d="M162.25,284.00 L-0.00,190.32 "/><path d="M-0.00,188.11 L162.25,281.78 "/><path d="M162.25,274.04 L-0.00,180.37 "/><path d="M-0.00,183.02 L162.25,276.70 "/><path d="M162.25,277.10 L-0.00,183.43 "/><path d="M-0.00,178.16 L162.25,271.83 "/><path d="M0.00,153.83 L162.25,247.51 "/><path d="M-0.00,153.43 L162.25,247.10 "/><path d="M14.80,263.26 L162.25,348.39 "/><path d="M152.96,333.22 L153.46,333.51 "/><path d="M278.85,420.98 L538.01,570.61 L538.01,594.93 L278.85,445.31 "/><path d="M278.85,445.71 L538.01,595.34 "/><path d="M278.85,418.77 L538.01,568.39 "/><path d="M278.85,416.11 L538.01,565.74 "/><path d="M278.85,415.71 L538.01,565.33 "/><path d="M538.01,560.65 L278.85,411.03 "/><path d="M538.01,558.44 L278.85,408.82 "/><path d="M278.85,405.50 L538.01,555.12 L538.01,530.80 L278.85,381.17 "/><path d="M538.01,555.53 L278.85,405.90 "/><path d="M538.49,529.56 L538.97,529.14 L278.85,378.96 "/><path d="M560.52,516.85 L560.04,516.98 L278.85,354.63 "/><path d="M278.85,354.23 L560.39,516.77 "/><path d="M278.85,351.32 L562.91,515.32 "/><path d="M564.82,514.21 L278.85,349.10 "/><path d="M278.85,344.02 L569.23,511.67 "/><path d="M568.88,511.87 L278.85,344.42 "/><path d="M278.85,341.36 L571.53,510.34 "/><path d="M278.85,314.83 L594.51,497.07 L573.44,509.24 L278.85,339.15 "/><path d="M594.86,496.87 L278.85,314.42 "/><path d="M538.97,529.14 L560.04,516.98 "/><path d="M573.44,509.24 L572.97,509.66 "/><path d="M594.51,497.07 L594.99,496.95 "/></g></g><g id="Actor_.14"><g style="stroke:#000000;stroke-width:0.705"><path d="M967.02,348.35 C965.86,346.07 965.85,346.06 964.75,343.75 C963.93,341.42 963.93,341.41 963.17,339.06 C962.73,336.78 962.73,336.78 962.36,334.49 C962.32,332.40 962.35,332.39 962.36,330.29 C962.45,329.83 962.46,329.83 962.57,329.38 C962.87,328.02 962.83,328.00 963.17,326.66 C963.92,325.21 963.93,325.20 964.75,323.79 "/><path d="M969.87,320.83 C971.50,320.82 971.52,320.82 973.14,320.90 C974.92,321.41 974.94,321.42 976.69,322.02 C978.53,323.03 978.53,323.05 980.33,324.12 C981.13,324.76 981.12,324.78 981.91,325.44 C982.89,326.27 982.91,326.25 983.88,327.10 C985.54,328.94 985.55,328.94 987.16,330.82 C988.61,332.93 988.61,332.93 990.00,335.08 "/><path d="M967.02,348.35 C968.41,350.50 968.42,350.50 969.87,352.61 C971.48,354.49 971.48,354.50 973.14,356.33 C974.89,357.84 974.92,357.82 976.69,359.31 C976.83,359.40 976.83,359.39 976.97,359.47 C978.65,360.44 978.64,360.48 980.33,361.41 C982.09,362.01 982.10,362.02 983.88,362.53 C985.51,362.61 985.53,362.61 987.16,362.59 "/><path d="M992.27,359.64 C993.10,358.24 993.11,358.22 993.85,356.77 C994.30,354.97 994.30,354.96 994.66,353.14 C994.70,351.04 994.70,351.03 994.66,348.94 C994.29,346.65 994.29,346.64 993.85,344.37 C993.10,342.02 993.09,342.01 992.27,339.67 C991.17,337.37 991.17,337.36 990.00,335.08 "/><path d="M991.33,360.46 C990.69,359.91 990.68,359.90 990.00,359.41 C987.96,358.51 987.96,358.50 985.89,357.68 C983.49,357.18 983.47,357.18 981.05,356.77 C978.52,356.73 978.51,356.75 975.97,356.77 C975.03,356.92 975.02,356.93 974.09,357.13 "/><path d="M921.06,308.54 L921.06,374.89 L921.31,375.04 L978.51,408.06 L1035.97,374.89 L978.51,275.37 L977.90,275.72 L921.06,308.54 L978.51,408.06 "/><path d="M964.75,323.79 L967.02,321.81 L969.87,320.83 "/><path d="M990.00,335.08 L967.02,348.35 "/><path d="M987.16,362.59 L990.00,361.62 L992.27,359.64 "/><path d="M985.37,362.56 L982.69,361.30 L979.21,360.76 "/></g></g><g id="Actor_.15"><g style="stroke:#000000;stroke-width:0.705"><path d="M315.79,0.00 L921.06,349.46 L921.06,373.78 L278.85,3.01 "/><path d="M278.85,3.41 L921.06,374.19 "/><path d="M319.61,-0.00 L921.06,347.24 "/><path d="M324.21,0.00 L921.06,344.59 "/><path d="M324.91,-0.00 L921.06,344.18 "/><path d="M921.06,339.50 L333.02,-0.00 "/><path d="M921.06,337.29 L336.85,-0.00 "/><path d="M384.73,-0.00 L921.06,309.65 L921.06,333.97 L342.59,-0.00 "/><path d="M341.89,-0.00 L921.06,334.38 "/><path d="M388.56,-0.00 L922.01,307.99 L943.08,295.83 L943.56,295.70 "/><path d="M430.69,-0.00 L943.08,295.83 "/><path d="M431.40,-0.00 L943.43,295.62 "/><path d="M945.95,294.17 L436.44,-0.00 "/><path d="M440.27,-0.00 L947.87,293.06 "/><path d="M739.46,168.06 L740.13,168.44 L448.38,-0.00 "/><path d="M453.68,-0.00 L954.57,289.19 "/><path d="M449.08,-0.00 L952.27,290.52 "/><path d="M457.51,-0.00 L956.49,288.09 L956.01,288.51 "/><path d="M499.64,-0.00 L977.56,275.92 L956.49,288.09 "/><path d="M500.34,0.00 L570.91,40.74 "/><path d="M568.60,39.41 L594.75,54.50 "/><path d="M594.20,54.19 L977.90,275.72 "/><path d="M740.13,168.44 L951.92,290.72 "/><path d="M745.07,181.10 L745.47,181.33 "/><path d="M809.21,279.61 L810.02,280.08 "/><path d="M922.01,307.99 L921.54,308.41 "/><path d="M977.56,275.92 L978.03,275.80 "/></g></g><g id="Actor_.16"><g style="stroke:#000000;stroke-width:0.705"><path d="M582.24,565.97 C581.96,565.45 581.96,565.44 581.71,564.90 C580.91,562.56 580.88,562.56 580.13,560.21 C579.69,557.93 579.69,557.93 579.32,555.64 C579.28,553.55 579.28,553.53 579.32,551.44 C579.68,549.62 579.68,549.61 580.13,547.81 C580.87,546.36 580.88,546.34 581.71,544.94 "/><path d="M587.17,541.99 C588.63,541.98 588.65,541.98 590.10,542.05 C591.88,542.56 591.89,542.57 593.65,543.17 C595.48,544.18 595.49,544.19 597.29,545.27 C599.08,546.73 599.09,546.73 600.84,548.25 C602.50,550.08 602.50,550.09 604.11,551.97 C605.56,554.08 605.54,554.09 606.96,556.23 C607.10,556.50 607.10,556.50 607.23,556.78 C608.23,558.80 608.26,558.79 609.23,560.83 C610.05,563.16 610.05,563.17 610.81,565.52 C611.25,567.79 611.25,567.80 611.62,570.09 C611.66,572.18 611.66,572.19 611.62,574.29 C611.26,576.11 611.26,576.12 610.81,577.92 C610.07,579.37 610.06,579.39 609.23,580.79 "/><path d="M604.11,583.74 C602.48,583.76 602.46,583.76 600.84,583.68 C599.06,583.17 599.04,583.16 597.29,582.56 C595.45,581.55 595.45,581.54 593.65,580.46 C591.85,579.00 591.85,578.99 590.10,577.48 C588.44,575.65 588.43,575.64 586.82,573.76 C585.37,571.65 585.37,571.64 583.98,569.50 C583.08,567.75 583.08,567.75 582.24,565.97 "/><path d="M591.05,578.28 C591.98,578.08 591.99,578.07 592.93,577.92 C595.47,577.90 595.47,577.88 598.01,577.92 C600.43,578.33 600.45,578.33 602.85,578.83 C604.92,579.65 604.92,579.66 606.96,580.56 C607.64,581.05 607.65,581.06 608.29,581.61 "/><path d="M538.62,596.39 L538.01,596.04 L538.01,529.69 L595.47,629.21 L538.62,596.39 "/><path d="M538.01,529.69 L595.47,496.52 L652.93,596.04 L595.47,629.21 "/><path d="M581.71,544.94 L583.98,542.96 L586.82,541.98 L587.17,541.99 "/><path d="M609.23,580.79 L606.96,582.77 L606.91,582.79 L604.11,583.74 "/><path d="M606.96,556.23 L583.98,569.50 "/><path d="M596.17,581.91 L599.65,582.45 L602.33,583.71 "/></g></g><g id="paperID" visibility="hidden" opacity="0.00" transform="scale(0.000100)"><path style="stroke:#000000;stroke-width:0.500;fill:#e6e6e6;fill-rule:evenodd" d="M-2000.00,-2000.00L3500.00,-2000.00L3500.00,3000.00L-2000.00,3000.00zM0.00,0.00L1500.00,0.00L1500.00,1000.00L0.00,1000.00z"/><path style="fill:#000000;fill-opacity:0.118" d="M3.00,1000.00L1500.00,1000.00L1500.00,3.00L1503.00,3.00L1503.00,1003.00L3.00,1003.00z"/></g><g id="ToolTip" visibility="hidden" opacity="0" transform="translate(0,0)"><rect id="ToolTipShadow" opacity="0.20" fill="black" stroke="none" x="0" y="0" width="30" height="8"/><rect id="ToolTipBG" fill="#ffffe1" stroke="black" x="0" y="0" width="30" height="8"/><text xml:space="preserve" id="ToolTipText" fill="black" x="0" y="0" width="30" height="8">tooltip</text></g></g></svg>
