<?xml version="1.0" encoding="UTF-8" standalone="no"?>
<svg xmlns="http://www.w3.org/2000/svg" xmlns:xlink="http://www.w3.org/1999/xlink" width="500.000mm" height="500.000mm" viewBox="0.000000 0.000000 500.000000 500.000000" stroke-linejoin="round" stroke-linecap="round" fill="none" fill-rule="evenodd"><desc>Composer Export</desc><script type="text/ecmascript"><![CDATA[
if(typeof(top) != "undefined")
{
	top.ShowPaper = ShowPaper;
}
function ShowHotSpot(evt,hotspotid)
{
	var svgDocument = evt.target.ownerDocument;
	var strId = "hotspot."+hotspotid;
	var hotspot = svgDocument.getElementById(strId);
	if(hotspot)
		hotspot.setAttribute("opacity",".5");
}
function HideHotSpot(evt,hotspotid)
{
	var svgDocument = evt.target.ownerDocument;
	var strId = "hotspot."+hotspotid;
	var hotspot = svgDocument.getElementById(strId);
	if(hotspot)
		hotspot.setAttribute("opacity","0");

	var toolTip = svgDocument.getElementById('ToolTip');
	if(toolTip)
		toolTip.setAttribute("visibility","hidden");
}
function ShowToolTip(evt,hotspotid,strTooltip)
{
	if(strTooltip=="")
	return;

	// change text
	var svgDocument = evt.target.ownerDocument;
	var tiptext = svgDocument.getElementById('ToolTipText');
	if( !tiptext )
	return;
	tiptext.firstChild.nodeValue = " " + strTooltip + "  " ;

	// show tooltip before, else some refresh issue

	var toolTip = svgDocument.getElementById('ToolTip');
	if(!toolTip)
	return;

	toolTip.setAttribute("visibility","visible");
	toolTip.setAttribute("opacity",".95");

	// move tooltip
	// get viewbox

	var root = svgDocument.documentElement;
	var vbox = (root.getAttribute("viewBox")).split(' ');
	var x0 = parseFloat(vbox[0]);
	var y0 = parseFloat(vbox[1]);
	var vboxW = parseFloat(vbox[2]);
	var vboxH = parseFloat(vbox[3]);

	// get default width of svg

	var strW = root.getAttribute("width");
	var svgW = parseFloat(strW);
	if(strW.indexOf('mm') != -1)
	svgW *= 3.779;

	var strH = root.getAttribute("height");
	var svgH = parseFloat(strH);
	if(strH.indexOf('mm') != -1)
	svgH *= 3.779;  	// 96 dpi  -> 96/25.4 = 3.779

	// update the viewbox / width / height if svg is embedded in html with zoom fit all
	var realx0 = x0;
	var realy0 = y0;
	var realvboxW = vboxW;
	var realvboxH = vboxH;
	var realsvgW = svgW;
	var realsvgH = svgH;

	if ((typeof(top) == "undefined") || (typeof(top.svgctl1) != "undefined")) // embedded in html
	{
		// get window size in pxl

		svgW = window.innerWidth;
		svgH = window.innerHeight;

		// calculate real viewbox

		realsvgW = svgW;
		realsvgH = svgH;
		if((svgW / svgH) > (vboxW / vboxH))
		{
			realvboxW = (vboxH * svgW) / svgH;
			realvboxH = vboxH;
			realx0 = x0 - (realvboxW - vboxW)/2 ;
		}
		else
		{
			realvboxH = (vboxW * svgH) / svgW;
			realvboxW = vboxW;
			realy0 = y0 - (realvboxH - vboxH)/2 ;
		}
	}

	// get user zoom/pan

	var newScale = root.currentScale;
	var translation = root.currentTranslate;

	// transform pxl to user unit

	var xPos = (((evt.clientX+10- translation.x)/newScale) * realvboxW)/realsvgW  + realx0 ;
	var yPos = (((evt.clientY+5- translation.y)/newScale) * realvboxH)/ realsvgH  + realy0 ;
	var scaleForWidth = ( (1 / newScale) * realvboxH) / realsvgH;

	// move tooltip

	toolTip.setAttribute("transform", "translate(" + xPos + "," + yPos + ")" );

	// resize tooltip

	var fontsize = 12;
	tiptext.setAttribute("font-size",fontsize*scaleForWidth);
	tiptext.setAttribute("y", fontsize*scaleForWidth);
	var tipBG = svgDocument.getElementById('ToolTipBG');
	var outline = tiptext.getBBox();
	if(tipBG)
	{
		tipBG.setAttribute("stroke-width", 1*scaleForWidth);
		tipBG.setAttribute("width", Number(outline.width) );
		tipBG.setAttribute("height", Number(outline.height) + fontsize*.5*scaleForWidth );
	}
	var ToolTipShadow = svgDocument.getElementById('ToolTipShadow');
	if(ToolTipShadow)
	{
		ToolTipShadow.setAttribute("width", Number(outline.width) );
		ToolTipShadow.setAttribute("height", Number(outline.height) + fontsize*.5*scaleForWidth );
		ToolTipShadow.setAttribute("x", 3*scaleForWidth);
		ToolTipShadow.setAttribute("y", 3*scaleForWidth);
	}
}
function ShowPaper()
{
  var svgDocument = getDocument();
  var paper = svgDocument.getElementById("paperID");
  if(paper)
  {
    paper.setAttribute("transform","scale(1)");
    paper.setAttribute("opacity","1");
    paper.setAttribute("visibility","visible");
  }
  var svg = svgDocument.getRootElement();
  if(svg)
  {
    svg.setAttribute("width","510.000mm");
    svg.setAttribute("height","510.000mm");
    svg.setAttribute("viewBox","-5.000000 -5.000000 510.000000 510.000000");
  }
}
]]></script><defs/><g><path style="fill:#ffffff" d="M418.37,1.00L418.51,0.10L499.92,0.11L499.96,148.10L482.55,148.23L499.96,148.48L499.96,272.27L475.81,272.39L499.96,272.64L499.96,348.56L474.69,348.69L499.96,348.94L499.92,499.92L0.11,499.92L0.11,0.11L162.69,0.07L162.54,103.11L162.93,151.75L163.06,0.07L175.78,0.07L176.02,241.13L176.15,0.07L259.18,0.07L259.42,153.62L259.55,0.07L295.83,0.07L296.08,238.51L296.20,0.07L372.12,0.07L372.37,159.60L372.60,156.44L374.65,156.08L372.60,155.85L372.71,2.71L372.50,0.07L418.11,0.10z"/><path style="fill:#97fa98" d="M276.02,227.30L279.43,228.16L279.62,228.63L280.15,228.78L281.48,230.09L281.48,231.22L281.90,231.59L283.77,234.58L285.99,239.47L286.55,242.73L286.78,243.84L286.77,249.82L286.56,251.34L285.98,254.19L284.11,258.68L281.09,263.51L281.11,266.21L278.16,268.81L273.15,271.65L267.79,272.93L266.66,273.11L261.03,273.10L259.62,273.00L259.24,272.26L256.44,267.90L254.54,263.44L253.86,259.93L253.81,258.55L253.65,258.42L253.65,253.20L254.02,250.93L254.55,248.56L256.43,244.09L259.25,239.35L259.66,234.23L267.31,233.87L259.66,233.64L259.77,229.90L259.88,229.68L264.18,227.90L267.04,227.32L270.38,226.93L272.66,226.93z"/><path style="fill:#000020" d="M418.37,1.00L418.11,0.10L418.51,0.10z"/><path style="fill:#000020" d="M372.71,2.71L372.60,155.85L374.65,156.08L372.60,156.44L372.37,159.60L372.12,0.07L372.50,0.07z"/><path style="fill:#000020" d="M162.54,103.11L162.69,0.07L163.06,0.07L162.93,151.75z"/><path style="fill:#000020" d="M499.96,148.48L482.55,148.23L499.96,148.10z"/><path style="fill:#000020" d="M259.42,153.62L259.18,0.07L259.55,0.07z"/><path style="fill:#000020" d="M279.43,228.16L279.98,228.28L280.15,228.78L279.62,228.63z"/><path style="fill:#000020" d="M259.88,229.68L259.77,229.90L259.66,233.64L267.31,233.87L259.66,234.23L259.25,239.35L259.42,154.18z"/><path style="fill:#000020" d="M296.08,238.51L295.83,0.07L296.20,0.07z"/><path style="fill:#000020" d="M176.02,241.13L175.78,0.07L176.15,0.07z"/><path style="fill:#000020" d="M286.78,243.84L286.55,242.73L286.72,242.86z"/><path style="fill:#000020" d="M253.86,259.93L253.65,258.42L253.81,258.55z"/><path style="fill:#000020" d="M499.96,272.64L475.81,272.39L499.96,272.27z"/><path style="fill:#000020" d="M372.61,236.47L372.61,272.90L395.22,273.14L372.23,273.28L372.23,236.10L376.89,236.12z"/><path style="fill:#000020" d="M259.62,273.00L259.72,274.02L260.13,274.28L259.74,274.64L259.42,350.34L259.24,272.26z"/><path style="fill:#000020" d="M172.13,344.20L175.67,343.96L176.02,263.01L176.02,346.60L175.67,344.55z"/><path style="fill:#000020" d="M499.96,348.94L474.69,348.69L499.96,348.56z"/><g id="Actor_.0"><g style="stroke:#000000;stroke-width:0.353"><path d="M380.83,6.14 C380.89,5.96 380.89,5.96 380.95,5.78 C381.00,5.56 381.00,5.56 381.06,5.33 C381.11,5.06 381.11,5.06 381.16,4.80 "/><path d="M413.20,6.35 C413.26,6.27 413.26,6.27 413.32,6.18 C413.38,6.05 413.38,6.05 413.44,5.91 C413.50,5.73 413.50,5.73 413.56,5.55 C413.62,5.33 413.61,5.33 413.67,5.10 C413.72,4.84 413.72,4.84 413.78,4.57 C413.83,4.26 413.83,4.26 413.88,3.95 C413.92,3.60 413.92,3.60 413.97,3.26 "/><path d="M418.11,1.30 C418.15,1.25 418.15,1.25 418.19,1.20 C418.22,1.12 418.22,1.12 418.26,1.03 C418.30,0.93 418.29,0.93 418.33,0.82 C418.36,0.69 418.36,0.69 418.40,0.55 C418.43,0.39 418.43,0.39 418.46,0.23 C418.48,0.11 418.48,0.11 418.50,0.00 "/><path d="M373.82,0.00 L380.58,6.58 L380.46,6.66 L380.33,6.64 L372.40,2.50 "/><path d="M373.68,0.00 L380.33,6.64 "/><path d="M374.16,0.00 L380.83,6.14 "/><path d="M381.16,4.80 L375.15,0.00 "/><path d="M373.73,0.00 L380.46,6.66 L413.07,6.43 L413.20,6.35 "/><path d="M413.97,3.26 L381.36,3.49 L376.30,0.00 "/><path d="M373.97,0.00 L380.71,6.41 L380.58,6.58 "/><path d="M374.42,0.00 L380.95,5.78 "/><path d="M374.74,0.00 L381.06,5.33 "/><path d="M375.66,0.00 L381.26,4.18 L381.36,3.49 L381.79,0.00 "/><path d="M380.83,6.14 L380.71,6.41 "/><path d="M381.26,4.18 L381.16,4.80 "/><path d="M418.08,1.32 L418.11,1.30 L413.20,6.35 "/><path d="M414.37,0.00 L413.97,3.26 L417.90,0.00 "/></g></g><g id="Actor_.1"><g style="stroke:#000000;stroke-width:0.353"><path d="M171.20,261.90 C171.25,262.35 171.25,262.35 171.32,262.79 C171.41,263.18 171.41,263.18 171.51,263.56 C171.66,263.91 171.66,263.91 171.81,264.26 C172.06,264.68 172.06,264.69 172.33,265.10 C172.53,265.31 172.53,265.32 172.74,265.52 C173.13,265.77 173.13,265.77 173.53,266.01 C173.83,266.12 173.83,266.12 174.14,266.22 "/><path d="M171.20,261.90 C171.04,258.72 171.04,258.72 170.90,255.54 C170.84,252.39 170.84,252.39 170.81,249.23 C170.84,246.10 170.84,246.09 170.90,242.96 C171.03,240.06 171.02,240.06 171.17,237.17 C171.27,236.46 171.28,236.46 171.40,235.75 C171.52,235.39 171.52,235.39 171.65,235.03 C171.82,234.71 171.82,234.71 172.00,234.39 C172.22,234.13 172.22,234.13 172.46,233.87 C172.76,233.61 172.75,233.60 173.06,233.36 C173.49,233.15 173.49,233.15 173.93,232.97 "/><path d="M176.25,264.55 C176.39,261.51 176.39,261.51 176.52,258.48 C176.57,256.41 176.57,256.41 176.60,254.35 C176.59,251.18 176.59,251.18 176.57,248.00 C176.52,245.92 176.51,245.92 176.45,243.83 C176.35,241.83 176.34,241.83 176.25,239.83 C176.24,238.96 176.24,238.96 176.25,238.10 "/><path d="M187.73,350.92 C222.22,350.69 222.22,350.69 256.72,350.44 C257.85,350.40 257.85,350.40 258.99,350.35 C259.23,350.32 259.24,350.32 259.48,350.28 "/><path d="M256.72,268.11 C256.24,267.18 256.24,267.18 255.77,266.24 C255.37,265.23 255.38,265.23 254.99,264.22 C254.68,263.22 254.68,263.22 254.38,262.21 C254.15,261.17 254.15,261.17 253.94,260.12 C253.80,259.08 253.80,259.08 253.67,258.04 C253.62,257.00 253.62,257.00 253.58,255.95 C253.62,254.88 253.62,254.87 253.67,253.80 C253.80,252.75 253.80,252.75 253.94,251.71 C254.15,250.66 254.15,250.66 254.38,249.62 C254.68,248.61 254.68,248.61 254.99,247.60 C255.38,246.61 255.38,246.61 255.77,245.64 C256.24,244.66 256.24,244.66 256.72,243.68 "/><path d="M256.72,243.68 C257.38,242.55 257.38,242.55 258.06,241.43 C258.69,240.47 258.70,240.48 259.33,239.52 C259.43,239.29 259.43,239.29 259.51,239.05 "/><path d="M259.51,346.58 C273.09,346.49 273.09,346.49 286.67,346.42 C287.85,346.46 287.85,346.46 289.02,346.51 C289.79,346.57 289.79,346.57 290.55,346.65 C290.75,346.69 290.76,346.69 290.95,346.74 C291.48,347.01 291.48,347.01 292.00,347.29 "/><path d="M292.07,269.42 C292.30,269.25 292.30,269.25 292.51,269.07 C292.85,268.72 292.86,268.72 293.19,268.36 C293.70,267.70 293.70,267.70 294.21,267.04 C294.50,266.60 294.50,266.60 294.77,266.16 "/><path d="M259.51,274.21 C260.16,274.55 260.16,274.55 260.81,274.88 C261.82,275.32 261.82,275.32 262.83,275.74 C263.87,276.05 263.87,276.04 264.92,276.33 C265.99,276.57 265.99,276.57 267.06,276.79 C268.14,276.96 268.14,276.96 269.23,277.11 C270.32,277.15 270.32,277.14 271.41,277.16 C272.51,277.13 272.51,277.13 273.60,277.08 C274.68,276.92 274.69,276.91 275.77,276.73 C276.84,276.49 276.84,276.49 277.90,276.24 C278.95,275.94 278.95,275.94 279.99,275.62 C281.01,275.19 281.01,275.19 282.01,274.73 C283.29,274.06 283.29,274.07 284.55,273.37 C286.01,272.39 286.01,272.39 287.46,271.39 C289.00,270.22 288.99,270.20 290.54,269.03 C290.74,268.94 290.74,268.94 290.95,268.86 "/><path d="M259.51,272.94 C260.74,273.14 260.74,273.14 261.97,273.32 C263.06,273.36 263.06,273.35 264.16,273.37 C265.25,273.34 265.25,273.34 266.34,273.29 C267.43,273.13 267.43,273.12 268.52,272.94 C269.58,272.70 269.59,272.70 270.65,272.45 C271.69,272.15 271.70,272.16 272.74,271.83 C273.75,271.40 273.75,271.39 274.76,270.94 C275.73,270.44 275.73,270.43 276.70,269.92 C276.99,269.75 276.99,269.75 277.28,269.58 C277.86,269.17 277.86,269.17 278.43,268.75 C279.20,268.12 279.20,268.12 279.96,267.48 C280.56,266.88 280.57,266.88 281.15,266.26 C281.57,265.71 281.57,265.71 281.98,265.15 C282.14,264.85 282.14,264.85 282.29,264.55 "/><path d="M272.98,273.40 C271.55,273.70 271.54,273.70 270.10,273.97 C268.41,274.15 268.41,274.14 266.72,274.30 C265.94,274.31 265.94,274.31 265.15,274.31 C263.99,274.23 263.99,274.23 262.82,274.14 C262.36,274.09 262.36,274.09 261.90,274.03 C260.71,273.80 260.71,273.80 259.51,273.55 "/><path d="M280.42,228.42 C279.17,227.98 279.17,227.98 277.90,227.58 C276.84,227.33 276.84,227.34 275.77,227.12 C274.69,226.98 274.68,226.99 273.60,226.86 C272.51,226.80 272.51,226.79 271.41,226.75 C270.32,226.81 270.32,226.81 269.23,226.90 C268.14,227.03 268.14,227.03 267.06,227.18 C265.99,227.41 265.98,227.41 264.92,227.67 C263.87,228.00 263.87,228.00 262.83,228.35 C261.82,228.76 261.82,228.76 260.81,229.18 C260.16,229.51 260.16,229.51 259.51,229.86 "/><path d="M262.58,275.25 C263.98,275.58 263.98,275.58 265.38,275.89 C266.45,276.04 266.45,276.04 267.52,276.17 C268.05,276.21 268.06,276.21 268.59,276.24 C269.63,276.24 269.63,276.24 270.67,276.22 C271.19,276.19 271.19,276.19 271.71,276.14 C272.74,275.99 272.74,276.00 273.76,275.83 C274.42,275.69 274.42,275.69 275.07,275.53 C275.70,275.34 275.70,275.34 276.33,275.15 "/><path d="M272.98,273.40 C273.74,273.17 273.74,273.17 274.50,272.92 C275.24,272.62 275.24,272.62 275.98,272.31 C276.85,271.90 276.85,271.90 277.72,271.49 C278.73,270.94 278.73,270.94 279.74,270.38 "/><path d="M279.74,270.38 C279.96,270.53 279.96,270.53 280.18,270.68 C280.36,270.86 280.36,270.86 280.53,271.05 C280.71,271.34 280.71,271.34 280.89,271.64 "/><path d="M279.74,270.38 C280.32,269.91 280.32,269.91 280.89,269.42 C281.96,268.34 281.97,268.34 283.02,267.24 C283.98,266.04 283.98,266.03 284.91,264.81 C285.74,263.48 285.74,263.47 286.54,262.13 C287.22,260.70 287.22,260.70 287.87,259.26 C288.40,257.75 288.40,257.75 288.89,256.22 C289.25,254.69 289.25,254.69 289.58,253.14 C289.77,251.55 289.76,251.55 289.92,249.95 C289.95,248.77 289.95,248.77 289.96,247.59 C289.88,246.42 289.88,246.42 289.79,245.25 C289.69,244.48 289.69,244.48 289.58,243.72 C289.43,242.96 289.43,242.96 289.28,242.19 C289.09,241.43 289.09,241.43 288.89,240.68 C288.66,239.95 288.67,239.95 288.42,239.23 C287.84,237.86 287.85,237.85 287.24,236.49 C286.52,235.20 286.51,235.20 285.76,233.91 C285.35,233.33 285.34,233.34 284.91,232.77 C284.46,232.19 284.46,232.19 284.00,231.62 C283.51,231.09 283.51,231.08 283.02,230.55 C282.51,230.08 282.51,230.08 281.98,229.62 C281.21,229.02 281.21,229.02 280.42,228.42 "/><path d="M283.45,260.25 C283.98,259.31 283.98,259.31 284.50,258.36 C284.95,257.38 284.95,257.38 285.38,256.40 C285.75,255.39 285.75,255.39 286.10,254.37 C286.38,253.33 286.38,253.33 286.64,252.28 C286.83,251.21 286.83,251.21 287.01,250.13 C287.11,249.08 287.11,249.08 287.19,248.04 C287.20,246.96 287.20,246.96 287.19,245.88 C287.11,244.81 287.11,244.81 287.01,243.73 C286.83,242.65 286.83,242.65 286.64,241.58 C286.38,240.54 286.38,240.54 286.10,239.50 C285.75,238.49 285.75,238.49 285.38,237.48 C284.95,236.51 284.95,236.51 284.50,235.54 C283.98,234.59 283.98,234.59 283.45,233.66 C282.88,232.79 282.87,232.79 282.29,231.94 C281.76,231.22 281.76,231.22 281.22,230.50 "/><path d="M282.27,230.93 C281.98,230.54 281.98,230.54 281.68,230.16 C281.12,229.58 281.12,229.58 280.55,229.01 C279.94,228.51 279.94,228.51 279.32,228.02 "/><path d="M282.87,272.02 C283.60,271.63 283.60,271.63 284.32,271.21 C285.67,270.28 285.68,270.28 287.01,269.32 C288.22,268.25 288.22,268.25 289.40,267.15 C290.44,265.93 290.44,265.93 291.45,264.69 C292.31,263.36 292.30,263.35 293.13,262.01 C293.48,261.30 293.48,261.30 293.81,260.58 C294.12,259.85 294.12,259.85 294.41,259.11 C294.66,258.35 294.66,258.35 294.90,257.58 C295.10,256.85 295.10,256.85 295.28,256.12 C295.42,255.32 295.42,255.32 295.55,254.52 C295.64,253.75 295.64,253.75 295.72,252.98 C295.75,252.21 295.75,252.21 295.77,251.43 C295.75,250.62 295.75,250.62 295.72,249.82 C295.64,249.04 295.64,249.04 295.55,248.26 C295.42,247.48 295.42,247.48 295.28,246.70 C295.10,245.91 295.10,245.91 294.90,245.13 C294.66,244.34 294.66,244.34 294.41,243.56 C294.13,242.81 294.13,242.81 293.83,242.06 C293.48,241.33 293.48,241.33 293.13,240.60 C292.74,239.88 292.74,239.87 292.34,239.15 C291.41,237.76 291.42,237.75 290.47,236.37 C289.37,235.09 289.37,235.09 288.24,233.84 "/><path d="M288.24,233.84 C287.64,233.25 287.64,233.25 287.04,232.67 C286.38,232.12 286.38,232.12 285.71,231.58 C284.40,230.62 284.40,230.62 283.07,229.68 "/><path d="M283.07,229.68 C283.93,230.11 283.93,230.11 284.78,230.56 C285.81,231.23 285.81,231.23 286.83,231.93 C287.86,232.76 287.86,232.77 288.88,233.62 C289.78,234.47 289.78,234.47 290.67,235.33 "/><path d="M294.77,266.16 C295.30,265.22 295.30,265.22 295.82,264.27 C296.27,263.29 296.27,263.29 296.70,262.31 C297.07,261.30 297.07,261.30 297.42,260.29 C297.70,259.24 297.70,259.24 297.96,258.20 C298.15,257.12 298.15,257.12 298.33,256.04 C298.43,255.00 298.42,255.00 298.51,253.97 C298.52,253.31 298.51,253.31 298.51,252.65 C298.51,252.22 298.51,252.22 298.51,251.80 C298.42,250.72 298.43,250.72 298.33,249.64 C298.15,248.57 298.15,248.57 297.96,247.49 C297.70,246.45 297.70,246.45 297.42,245.41 C297.07,244.40 297.07,244.40 296.70,243.40 C296.27,242.42 296.27,242.42 295.82,241.45 C295.30,240.51 295.30,240.51 294.77,239.57 "/><path d="M296.24,271.52 C296.35,271.29 296.35,271.29 296.48,271.06 C297.19,269.97 297.20,269.97 297.91,268.88 C298.47,267.93 298.47,267.93 299.02,266.97 "/><path d="M297.23,272.11 C297.42,271.98 297.42,271.98 297.61,271.83 C298.15,271.26 298.15,271.26 298.69,270.68 C299.08,270.19 299.08,270.19 299.46,269.69 C300.05,268.75 300.05,268.75 300.62,267.81 "/><path d="M296.35,238.50 C297.01,239.42 297.02,239.42 297.67,240.35 C298.14,241.07 298.14,241.07 298.60,241.80 C298.81,242.17 298.81,242.17 299.02,242.54 C299.50,243.51 299.50,243.51 299.97,244.48 C300.36,245.46 300.37,245.46 300.75,246.43 C301.06,247.44 301.06,247.44 301.36,248.45 C301.59,249.49 301.59,249.49 301.80,250.53 C301.95,251.59 301.95,251.59 302.07,252.65 C302.13,253.71 302.13,253.71 302.16,254.77 C302.12,255.81 302.12,255.81 302.07,256.86 C301.95,257.90 301.95,257.90 301.80,258.94 C301.59,259.99 301.59,259.99 301.36,261.03 C301.06,262.05 301.06,262.05 300.75,263.06 C300.36,264.07 300.37,264.07 299.97,265.08 C299.50,266.03 299.50,266.03 299.02,266.97 "/><path d="M300.62,267.81 C301.10,266.87 301.10,266.87 301.56,265.92 C301.96,264.91 301.96,264.91 302.34,263.89 C302.65,262.90 302.65,262.90 302.95,261.90 C303.10,261.25 303.09,261.24 303.23,260.58 C303.32,260.18 303.32,260.18 303.40,259.78 C303.54,258.73 303.54,258.73 303.67,257.69 C303.72,256.65 303.72,256.65 303.76,255.60 C303.72,254.53 303.72,254.52 303.67,253.45 C303.54,252.41 303.54,252.40 303.40,251.36 C303.19,250.32 303.19,250.32 302.96,249.28 C302.66,248.27 302.66,248.27 302.34,247.27 C301.96,246.29 301.96,246.29 301.56,245.32 C301.10,244.35 301.10,244.35 300.63,243.39 C300.18,242.63 300.17,242.64 299.71,241.89 C299.20,241.17 299.21,241.17 298.69,240.45 C298.08,239.77 298.08,239.77 297.46,239.10 "/><path d="M176.23,344.09 L173.05,344.08 L171.21,343.95 L163.19,339.76 L163.20,339.71 L163.43,339.66 "/><path d="M163.19,0.00 L163.19,339.76 "/><path d="M171.17,343.93 L171.20,261.90 "/><path d="M174.14,266.22 L174.67,266.22 L174.67,344.10 "/><path d="M173.93,232.97 L174.60,232.90 L174.25,232.90 "/><path d="M171.17,237.17 L171.17,0.00 "/><path d="M173.73,233.03 L174.60,233.03 L173.83,233.03 "/><path d="M173.93,232.97 L174.60,232.96 L174.14,232.97 "/><path d="M173.43,233.16 L174.60,233.16 L173.53,233.16 "/><path d="M174.60,233.16 L176.23,233.14 "/><path d="M174.60,233.03 L176.23,233.02 "/><path d="M174.67,266.22 L176.23,266.21 "/><path d="M174.67,0.00 L174.67,232.90 L174.60,232.90 L175.93,232.89 L174.67,232.90 "/><path d="M175.93,232.89 L176.23,232.89 "/><path d="M176.23,232.95 L174.60,232.96 "/><path d="M187.73,0.00 L187.73,350.92 L185.41,350.88 L184.28,350.77 L176.25,346.58 L176.23,264.97 L176.33,266.08 L176.50,266.66 "/><path d="M176.25,346.58 L176.26,346.53 L176.49,346.49 "/><path d="M176.25,265.87 L176.25,264.55 L176.23,264.97 "/><path d="M176.25,238.10 L176.23,239.06 L176.28,238.29 L176.45,237.38 "/><path d="M176.25,239.42 L176.23,239.06 "/><path d="M176.25,238.10 L176.25,0.00 "/><path d="M184.23,350.75 L184.23,0.00 "/><path d="M259.48,350.28 L259.43,350.19 "/><path d="M256.72,350.44 L256.72,268.11 "/><path d="M256.72,243.68 L256.72,0.00 "/><path d="M259.33,272.17 L259.44,272.21 L257.83,269.98 L256.72,268.11 "/><path d="M259.51,239.05 L259.41,238.99 "/><path d="M259.48,350.28 L259.51,349.21 L259.49,350.23 "/><path d="M259.51,349.21 L259.51,346.58 "/><path d="M292.00,347.29 L291.98,269.40 L292.07,269.42 "/><path d="M294.77,266.16 L294.77,347.41 L292.91,347.37 L292.00,347.29 "/><path d="M259.51,346.58 L259.51,272.49 L259.49,272.32 L259.39,272.27 L259.48,272.26 L259.44,272.21 "/><path d="M290.95,268.86 L291.98,269.40 "/><path d="M262.58,275.64 L262.58,275.25 L261.07,274.79 L259.51,274.15 "/><path d="M282.29,264.55 L282.21,264.69 "/><path d="M272.98,275.95 L272.98,273.40 "/><path d="M259.49,272.32 L259.39,272.22 "/><path d="M259.51,272.38 L259.41,272.33 "/><path d="M259.51,239.05 L259.51,0.00 "/><path d="M280.38,228.39 L280.42,228.42 "/><path d="M276.33,275.15 L276.33,275.20 "/><path d="M280.89,271.64 L280.92,273.26 "/><path d="M276.33,275.15 L277.84,274.67 L280.76,273.37 L280.76,273.81 "/><path d="M277.42,274.80 L277.42,271.62 "/><path d="M280.42,228.42 L282.01,229.03 L283.07,229.57 L281.96,229.01 "/><path d="M283.45,260.58 L283.45,260.25 "/><path d="M281.22,230.50 L281.23,230.16 L281.22,230.50 L282.28,231.02 L282.27,230.93 "/><path d="M280.76,273.37 L282.12,272.60 L282.87,272.02 L283.20,272.26 "/><path d="M280.92,271.79 L281.23,273.13 "/><path d="M281.21,266.18 L281.23,263.68 L283.45,260.25 "/><path d="M282.29,264.73 L282.24,264.31 L281.23,263.78 "/><path d="M281.23,230.16 L281.23,229.71 "/><path d="M281.22,230.50 L281.75,230.80 L281.26,230.55 "/><path d="M281.30,230.61 L282.28,231.02 L282.25,230.61 "/><path d="M288.24,233.84 L290.74,235.34 L290.89,235.52 L292.08,236.17 L291.01,235.57 L292.02,236.13 "/><path d="M282.29,264.55 L282.24,264.31 "/><path d="M283.04,231.48 L282.28,231.02 L283.07,231.54 L282.29,230.97 L282.28,231.02 "/><path d="M282.25,230.31 L282.25,230.51 "/><path d="M282.29,230.97 L282.29,230.53 "/><path d="M282.29,230.25 L282.29,230.33 "/><path d="M282.23,230.89 L284.00,231.62 "/><path d="M282.01,229.03 L282.30,229.17 "/><path d="M282.13,229.11 L283.07,229.62 L282.46,229.30 L282.87,229.54 L282.94,229.50 "/><path d="M282.46,229.30 L282.34,229.19 L283.07,229.62 L282.61,229.36 "/><path d="M282.74,229.49 L283.07,229.68 L282.87,229.54 "/><path d="M283.07,229.57 L284.39,230.31 L283.07,229.62 "/><path d="M283.96,346.41 L283.96,273.71 "/><path d="M283.45,233.13 L283.45,233.66 "/><path d="M283.07,231.54 L284.91,232.77 "/><path d="M283.96,230.02 L283.96,0.00 "/><path d="M284.78,230.56 L284.39,230.31 "/><path d="M290.95,346.74 L290.95,268.86 "/><path d="M289.97,248.40 L295.57,248.36 "/><path d="M290.95,235.54 L290.95,0.00 "/><path d="M291.01,235.57 L292.29,236.33 L291.01,235.57 L292.23,236.30 "/><path d="M292.08,236.17 L292.12,236.21 "/><path d="M291.99,236.08 L291.97,0.00 "/><path d="M292.29,236.33 L293.59,237.88 L294.77,239.57 L294.77,0.00 "/><path d="M294.77,347.41 L296.23,347.40 "/><path d="M296.49,349.41 L296.26,349.46 L296.25,349.51 L297.12,349.96 L297.12,272.08 L296.25,271.63 L296.25,349.51 "/><path d="M296.25,271.63 L296.24,271.52 "/><path d="M299.02,266.97 L299.02,267.20 "/><path d="M296.24,238.30 L296.30,238.33 L296.23,238.34 L296.25,238.10 L296.23,238.34 L296.30,238.40 L297.32,238.93 "/><path d="M296.25,238.10 L296.25,0.00 "/><path d="M296.30,238.40 L297.29,238.87 L297.46,239.10 L296.35,238.50 L296.30,238.40 "/><path d="M297.12,349.96 L298.30,350.09 L300.62,350.13 L369.61,349.65 L369.61,0.00 "/><path d="M297.12,272.08 L297.23,272.11 "/><path d="M300.62,267.81 L300.62,350.13 "/><path d="M297.12,0.00 L297.15,238.78 L296.30,238.33 "/><path d="M297.37,238.95 L296.30,238.45 "/><path d="M297.15,238.78 L297.23,238.86 "/><path d="M299.02,242.54 L299.02,242.06 "/><path d="M300.63,243.39 L300.62,0.00 "/><path d="M369.61,349.65 L371.88,349.56 L372.37,349.49 L372.31,349.40 "/><path d="M372.37,349.49 L372.40,349.21 L372.38,349.44 "/><path d="M372.40,349.21 L372.40,0.00 "/></g></g><g id="Actor_.2"><g style="stroke:#000000;stroke-width:0.353"><path d="M372.47,349.38 C372.55,349.10 372.55,349.10 372.61,348.82 C372.66,348.42 372.66,348.42 372.69,348.03 C372.72,347.39 372.72,347.39 372.74,346.75 "/><path d="M372.74,277.15 C372.73,276.48 372.73,276.48 372.71,275.81 C372.67,275.24 372.67,275.24 372.61,274.67 C372.55,274.32 372.55,274.32 372.47,273.97 C372.44,273.89 372.44,273.89 372.40,273.81 "/><path d="M372.47,235.95 C372.55,235.67 372.55,235.67 372.61,235.39 C372.67,234.87 372.67,234.87 372.71,234.35 C372.73,233.70 372.73,233.70 372.74,233.04 "/><path d="M372.74,233.04 C372.75,200.12 372.75,198.24 372.74,163.44 C372.72,162.78 372.72,162.78 372.69,162.12 C372.66,161.68 372.66,161.68 372.61,161.24 C372.55,160.89 372.55,160.89 372.47,160.54 C372.44,160.46 372.44,160.46 372.40,160.38 "/><path d="M372.31,349.40 L372.41,349.44 L372.47,349.38 "/><path d="M372.74,346.75 L372.74,277.15 L500.00,276.26 "/><path d="M372.44,349.42 L373.02,349.44 L372.41,349.44 "/><path d="M373.02,349.44 L406.08,349.21 L404.76,349.22 "/><path d="M372.74,346.48 L500.00,345.59 "/><path d="M372.40,273.81 L372.31,273.78 "/><path d="M372.40,273.81 L500.00,272.92 "/><path d="M372.40,273.35 L496.03,272.49 L494.71,272.50 "/><path d="M500.00,269.66 L372.40,270.55 "/><path d="M372.40,271.09 L500.00,270.20 "/><path d="M500.00,262.97 L372.40,263.86 "/><path d="M372.40,238.65 L500.00,237.76 "/><path d="M372.31,235.97 L372.41,236.01 L372.47,235.95 "/><path d="M372.74,233.04 L500.00,232.15 "/><path d="M372.41,236.01 L373.02,236.00 L372.44,235.99 "/><path d="M372.40,160.38 L372.31,160.35 "/><path d="M372.74,163.72 L500.00,162.83 "/><path d="M500.00,159.49 L372.40,160.38 "/><path d="M372.40,156.16 L382.27,156.09 L380.95,156.10 "/><path d="M500.00,152.57 L372.40,153.47 "/><path d="M372.40,149.24 L500.00,148.35 "/><path d="M451.06,235.46 L452.38,235.45 L373.02,236.00 "/><path d="M382.27,156.09 L383.60,156.08 L382.27,156.09 "/><path d="M383.60,156.08 L500.00,155.26 "/><path d="M406.16,349.21 L406.08,349.21 L407.41,349.20 L406.16,349.21 "/><path d="M407.41,349.20 L500.00,348.55 "/><path d="M452.38,235.45 L500.00,235.12 "/><path d="M496.03,272.49 L497.35,272.48 L496.03,272.49 "/><path d="M497.35,272.48 L500.00,272.46 "/></g></g><g id="Actor_.3"><g style="stroke:#000000;stroke-width:0.353"><path d="M0.00,253.28 L163.17,338.50 "/><path d="M0.00,251.38 L162.83,336.42 L162.93,337.24 L163.19,337.89 "/><path d="M163.19,265.63 L162.93,266.29 L162.83,267.10 L0.00,182.06 "/><path d="M0.00,177.25 L163.17,262.47 "/><path d="M0.02,173.28 L163.17,258.49 "/><path d="M163.17,258.08 L0.00,172.86 "/><path d="M163.17,254.10 L0.00,168.88 "/><path d="M0.00,157.53 L163.17,242.75 "/><path d="M0.00,153.69 L163.17,238.90 "/><path d="M163.17,234.26 L0.00,149.04 "/><path d="M163.17,225.07 L0.00,139.85 "/><path d="M0.00,68.63 L162.83,153.67 L162.83,222.99 L0.00,137.95 "/><path d="M163.17,149.04 L0.00,63.82 "/><path d="M163.17,112.52 L0.00,27.30 "/><path d="M0.00,26.90 L163.17,112.11 "/><path d="M0.00,18.34 L163.17,103.56 "/><path d="M0.00,16.44 L163.17,101.66 "/><path d="M163.17,94.10 L0.00,8.88 "/><path d="M163.17,89.29 L0.00,4.07 "/><path d="M62.12,0.00 L163.17,52.77 "/><path d="M163.17,52.37 L62.90,0.00 "/><path d="M162.83,336.42 L162.83,267.10 "/><path d="M162.83,222.99 L162.93,223.80 L163.19,224.45 "/><path d="M162.83,153.67 L162.93,152.85 L163.19,152.20 "/></g></g><g id="Actor_.4"><g style="stroke:#000000;stroke-width:0.353"><path d="M253.81,259.12 C254.97,259.08 254.97,259.08 256.13,259.04 C256.90,259.02 256.90,259.02 257.68,259.00 C258.43,258.99 258.43,258.99 259.18,258.97 C259.92,258.97 259.92,258.96 260.67,258.96 C261.81,258.95 261.81,258.96 262.95,258.95 C263.75,258.96 263.75,258.96 264.55,258.97 C265.41,258.98 265.41,258.98 266.26,258.99 C267.20,259.01 267.20,259.01 268.13,259.02 "/><path d="M268.13,259.02 C268.67,258.68 268.67,258.68 269.20,258.33 C269.70,257.95 269.70,257.95 270.20,257.55 C270.67,257.13 270.67,257.13 271.13,256.69 C271.56,256.22 271.56,256.22 271.99,255.75 C272.37,255.25 272.37,255.24 272.76,254.74 C273.10,254.20 273.10,254.20 273.43,253.66 C273.73,253.10 273.73,253.10 274.02,252.53 C274.26,251.94 274.26,251.94 274.50,251.35 C274.70,250.75 274.70,250.75 274.88,250.14 C275.02,249.52 275.02,249.52 275.15,248.90 C275.24,248.27 275.24,248.27 275.32,247.64 C275.35,247.00 275.35,247.00 275.37,246.37 "/><path d="M275.37,246.37 C274.88,247.12 274.88,247.12 274.39,247.87 C274.17,248.23 274.17,248.23 273.94,248.59 C273.51,249.27 273.51,249.27 273.09,249.95 C272.69,250.61 272.69,250.61 272.29,251.28 C271.91,251.93 271.91,251.93 271.53,252.58 C271.34,252.91 271.34,252.91 271.16,253.23 C270.79,253.90 270.79,253.90 270.42,254.57 C270.05,255.26 270.05,255.26 269.68,255.95 C269.31,256.69 269.31,256.69 268.93,257.42 C268.53,258.22 268.53,258.22 268.13,259.02 "/><path d="M268.13,259.02 C267.57,259.33 267.57,259.33 267.01,259.62 C266.43,259.87 266.43,259.87 265.84,260.11 C265.24,260.31 265.24,260.31 264.64,260.50 C264.02,260.65 264.02,260.65 263.41,260.79 C262.78,260.88 262.78,260.88 262.15,260.96 C261.52,261.00 261.52,261.00 260.89,261.02 C260.26,261.01 260.26,261.01 259.63,260.98 C259.00,260.91 259.00,260.91 258.38,260.82 C257.76,260.69 257.76,260.69 257.14,260.55 C256.54,260.37 256.54,260.37 255.94,260.18 C255.35,259.95 255.35,259.95 254.77,259.70 C254.29,259.46 254.29,259.46 253.82,259.21 "/><path d="M255.09,264.48 C255.56,264.63 255.56,264.63 256.02,264.77 C256.82,264.94 256.82,264.95 257.62,265.11 C258.44,265.22 258.44,265.22 259.25,265.32 C260.07,265.35 260.07,265.35 260.89,265.38 C261.71,265.34 261.71,265.34 262.53,265.29 C263.34,265.19 263.35,265.19 264.16,265.07 C264.96,264.89 264.96,264.89 265.76,264.70 C266.48,264.47 266.48,264.47 267.20,264.23 C267.26,264.21 267.26,264.21 267.33,264.19 C268.08,263.87 268.09,263.88 268.84,263.55 C269.57,263.17 269.57,263.17 270.30,262.78 C270.99,262.34 270.99,262.34 271.68,261.88 C272.34,261.38 272.34,261.38 272.98,260.87 C273.59,260.31 273.59,260.31 274.19,259.75 C274.76,259.14 274.76,259.13 275.31,258.52 C275.81,257.87 275.81,257.86 276.30,257.21 C276.75,256.51 276.75,256.51 277.18,255.81 C277.57,255.08 277.57,255.08 277.94,254.34 C278.26,253.58 278.26,253.58 278.57,252.81 C278.82,252.03 278.82,252.03 279.06,251.24 C279.25,250.43 279.25,250.43 279.42,249.62 C279.53,248.81 279.53,248.81 279.63,247.99 C279.68,247.16 279.68,247.16 279.71,246.34 C279.68,245.52 279.68,245.51 279.63,244.69 C279.53,243.87 279.53,243.87 279.42,243.06 C279.25,242.25 279.25,242.25 279.06,241.45 C278.82,240.66 278.82,240.66 278.57,239.88 C278.26,239.12 278.26,239.12 277.94,238.36 C277.57,237.63 277.57,237.63 277.18,236.90 C276.75,236.21 276.75,236.21 276.30,235.52 C275.81,234.86 275.81,234.86 275.30,234.22 C274.75,233.61 274.75,233.61 274.19,233.01 C273.59,232.45 273.59,232.45 272.98,231.90 C272.34,231.40 272.34,231.40 271.68,230.91 C270.99,230.46 270.99,230.46 270.30,230.03 C269.57,229.65 269.57,229.65 268.84,229.28 C268.09,228.96 268.09,228.96 267.33,228.66 C266.55,228.41 266.55,228.41 265.76,228.18 C265.04,228.01 265.04,228.01 264.32,227.86 "/><path d="M259.51,233.76 C260.46,233.75 260.46,233.75 261.42,233.75 C262.58,233.75 262.58,233.75 263.74,233.75 C265.00,233.76 265.00,233.76 266.26,233.78 C267.20,233.80 267.20,233.80 268.13,233.82 "/><path d="M268.13,233.82 C267.57,233.52 267.57,233.52 267.01,233.24 C266.43,232.99 266.43,232.99 265.84,232.76 C265.24,232.57 265.24,232.57 264.64,232.39 C264.02,232.25 264.02,232.25 263.41,232.12 C262.78,232.04 262.78,232.04 262.15,231.96 C261.52,231.94 261.52,231.94 260.89,231.92 C260.26,231.94 260.26,231.95 259.63,231.98 C259.57,231.99 259.57,231.99 259.51,232.00 "/><path d="M275.37,246.37 C274.88,245.58 274.88,245.58 274.39,244.78 C273.74,243.70 273.74,243.70 273.09,242.62 C272.69,241.95 272.69,241.95 272.29,241.28 C271.91,240.63 271.91,240.63 271.53,239.98 C270.98,239.00 270.97,239.00 270.42,238.03 C270.05,237.37 270.05,237.37 269.68,236.70 C269.31,236.00 269.31,236.00 268.93,235.31 C268.53,234.56 268.53,234.56 268.13,233.82 "/><path d="M268.13,233.82 C268.67,234.15 268.67,234.15 269.20,234.49 C269.52,234.73 269.52,234.74 269.84,234.98 C270.02,235.12 270.02,235.12 270.20,235.26 C270.67,235.68 270.67,235.68 271.13,236.11 C271.56,236.57 271.56,236.57 271.99,237.04 C272.37,237.54 272.38,237.54 272.76,238.04 C273.10,238.57 273.10,238.57 273.43,239.11 C273.73,239.67 273.73,239.67 274.02,240.23 C274.26,240.81 274.26,240.81 274.50,241.40 C274.70,242.00 274.70,242.00 274.88,242.61 C275.01,243.17 275.01,243.17 275.13,243.74 C275.14,243.79 275.14,243.79 275.15,243.84 C275.24,244.47 275.24,244.47 275.32,245.10 C275.35,245.74 275.35,245.74 275.37,246.37 "/><path d="M253.70,258.24 L266.46,258.15 L268.13,259.02 "/><path d="M266.46,258.15 L273.70,245.49 L266.95,233.79 "/><path d="M275.37,246.37 L273.70,245.49 "/></g></g><g id="paperID" visibility="hidden" opacity="0.00" transform="scale(0.000100)"><path style="stroke:#000000;stroke-width:0.500;fill:#e6e6e6;fill-rule:evenodd" d="M-2000.00,-2000.00L2500.00,-2000.00L2500.00,2500.00L-2000.00,2500.00zM0.00,0.00L500.00,0.00L500.00,500.00L0.00,500.00z"/><path style="fill:#000000;fill-opacity:0.118" d="M3.00,500.00L500.00,500.00L500.00,3.00L503.00,3.00L503.00,503.00L3.00,503.00z"/></g><g id="ToolTip" visibility="hidden" opacity="0" transform="translate(0,0)"><rect id="ToolTipShadow" opacity="0.20" fill="black" stroke="none" x="0" y="0" width="30" height="8"/><rect id="ToolTipBG" fill="#ffffe1" stroke="black" x="0" y="0" width="30" height="8"/><text xml:space="preserve" id="ToolTipText" fill="black" x="0" y="0" width="30" height="8">tooltip</text></g></g></svg>
