<?xml version="1.0" encoding="utf-8"?>
<!-- Generator: Adobe Illustrator 27.2.0, SVG Export Plug-In . SVG Version: 6.00 Build 0)  -->
<svg version="1.1" xmlns="http://www.w3.org/2000/svg" xmlns:xlink="http://www.w3.org/1999/xlink" x="0px" y="0px"
	 viewBox="0 0 1417.3 1417.3" style="enable-background:new 0 0 1417.3 1417.3;" xml:space="preserve">
<style type="text/css">
	.st0{fill:#9f9f9f}
	.st1{fill:none;stroke:#000000;stroke-width:7.1169;stroke-linecap:round;stroke-linejoin:round;stroke-miterlimit:11.3386;}
</style>
<g id="fill">
	<path class="st0" d="M1414.1,656.8l-2.6-33.7l-5-34.6l-7.4-35.3c0,0,0,0,0-0.1l-9.7-35.9l-12-36.1l-14.1-36l-16.2-35.7l-18.1-35
		l-19.9-34.2l-21.6-33l-23-31.6l-24.2-29.8l-25.5-28.3l-26.3-26l-27-23.7l-27.7-21.4l-27.9-18.7l-27.9-15.9l-18.7-10.3c0,0,0,0,0,0
		l-29.4-13.8l-29-10.6l-28.5-7.4l-27.7-4.1l-26.6-0.8l-25.5,2.5l-24.1,5.8L846,82.3L560,247.4c0,0,0,0,0,0L539,259.8l-18.7,15.3
		l-16.8,18.4l-14.6,21.2l-12.3,23.9l-10,26.4l-7.4,28.6l-4.9,30.8l-2.4,32.6l-0.1,3.3c-0.1-0.1-0.2-0.2-0.4-0.2
		c-0.3,0-0.5,0.2-0.5,0.5l-0.4,17.1c0,0.2,0.1,0.3,0.2,0.4c0.1,0.1,0.2,0.1,0.4,0.1l-52.4,30.3l-23.1-12.2l-29.3-13.8l-29-10.6
		l-28.5-7.4l-27.6-4.1l-26.7-0.8l-25.4,2.5l-24.1,5.8l-22.5,9.1l-50,29.1l-1.3,0.5c-0.2,0.1-0.3,0.2-0.3,0.4l-20.5,11.9l-18.9,15.4
		l-16.8,18.4L40,573.9l-12.3,23.9l-9.9,26.4l-7.4,28.6l-4.9,30.8l-2.4,32.5l0.2,34.1L6,785.7l5.3,36.5l7.8,37.4l10.2,37.8L42,935.5
		l14.9,38l17.1,37.6L93,1048l21,36l22.7,34.8l24.3,33.4l25.6,31.6l26.8,29.7l27.8,27.5l28.5,25l29.1,22.5l29.4,19.7l29.4,16.8
		l26.3,12.3l3.1,1.5l29,10.6l28.5,7.4l27.7,4.1l26.6,0.8l25.5-2.5l24.1-5.9l22.4-9c0,0,0.1,0,0.1,0l51.4-29.7l20.8-12.3l18.8-15.4
		l16.8-18.4l14.6-21.2l12.3-23.9l9.9-26.3l7.5-28.6l4.9-30.8l2.4-32.6l0.8-21.3l52.3-30.2l23.2,12.2l29.3,13.8l29,10.6l28.4,7.4
		l27.6,4.1l26.7,0.8l25.5-2.5l24.1-5.8l22.4-9.1c0,0,0.1,0,0.1,0l286.1-165.2c0,0,0,0,0,0l20.7-12.3l18.9-15.4l16.8-18.4l14.6-21.2
		l12.3-23.9l9.9-26.4l7.5-28.6l4.9-30.8l2.4-32.5l0.4-21.1L1414.1,656.8z"/>
</g>
<g id="stroke" xmlns:svg="http://www.w3.org/2000/svg" xmlns:inkscape="http://www.inkscape.org/namespaces/inkscape" xmlns:sodipodi="http://sodipodi.sourceforge.net/DTD/sodipodi-0.dtd">
	
		<sodipodi:namedview  bordercolor="#000000" borderopacity="0.25" id="namedview10188" inkscape:deskcolor="#d1d1d1" inkscape:document-units="mm" inkscape:pagecheckerboard="0" inkscape:pageopacity="0.0" inkscape:showpageshadow="2" pagecolor="#ffffff" showgrid="false">
		</sodipodi:namedview>
	<script  id="script3515" type="text/ecmascript">
		<![CDATA[
if(typeof(top) != "undefined")
{
	top.ShowPaper = ShowPaper;
}
function ShowPaper()
{
  var svgDocument = getDocument();
  var paper = svgDocument.getElementById("paperID");
  if(paper)
  {
    paper.setAttribute("transform","scale(1)");
    paper.setAttribute("opacity","1");
    paper.setAttribute("visibility","visible");
  }
  var svg = svgDocument.getRootElement();
  if(svg)
  {
    svg.setAttribute("width","510.000mm");
    svg.setAttribute("height","510.000mm");
    svg.setAttribute("viewBox","-5.000000 -5.000000 510.000000 510.000000");
  }
}

			]]>
	</script>
	<g id="layer4" inkscape:groupmode="layer" inkscape:label="Layer 1">
		<path id="path3723" class="st1" d="M783.3,1053l-52.8,30.5 M783.3,1053l23.4,12.3L836,1079l29,10.6l28.4,7.4l27.6,4.1l26.6,0.8
			l25.4-2.5l24-5.8l22.4-9.1l286.1-165.2l20.7-12.3l18.8-15.4l16.7-18.3l14.5-21.1l12.3-23.8l9.9-26.3l7.5-28.6l4.9-30.7l2.4-32.5
			l0.4-21.1l-0.2-32.3l-2.6-33.6l-5-34.6l-7.4-35.4l-9.7-35.9l-12-36.1l-14.1-36l-16.2-35.7l-18.1-35l-19.9-34.1l-21.5-33l-23-31.6
			l-24.2-29.8l-25.5-28.2l-26.3-26l-26.9-23.7l-27.6-21.4l-27.8-18.7l-27.9-15.9l-18.7-10.3l-29.4-13.8l-29-10.6l-28.4-7.4
			l-27.6-4.1l-26.6-0.8l-25.4,2.5l-24,5.8l-22.5,9.1L560.2,247.9l-20.8,12.4l-18.7,15.3L504,293.8L489.4,315l-12.3,23.8l-9.9,26.3
			l-7.4,28.6l-4.9,30.7l-2.4,32.5l-0.8,21.5 M398.8,509l52.9-30.5 M730.5,1083.5l-0.8,21.5l-2.4,32.5l-4.9,30.7l-7.5,28.6l-9.9,26.3
			l-12.3,23.9l-14.6,21.1l-16.7,18.3l-18.8,15.3l-20.7,12.3l-51.4,29.7l-22.4,9l-24,5.9l-20.4,2l-5,0.5l-26.6-0.8l-27.6-4.1
			l-28.4-7.4l-29-10.6l-3.1-1.5l-26.3-12.3l-29.4-16.8L299,1288l-29.1-22.5l-28.5-25l-27.7-27.4l-26.8-29.7l-25.6-31.6l-24.3-33.3
			l-22.6-34.8l-21-36l-19.1-36.9l-17-37.6l-14.9-37.9l-12.6-38l-10.2-37.8l-7.8-37.3l-5.3-36.5l-2.8-35.5l-0.2-34.1l2.4-32.4
			l4.4-27.6l0.5-3.1l7.4-28.6l9.9-26.3l12.3-23.8L55,553l16.7-18.3l18.8-15.3l72.1-41.9l22.4-9.1l24.1-5.8l25.4-2.5l26.6,0.8
			l27.6,4.1l28.4,7.4l29,10.6l29.3,13.8l23.4,12.3 M1397.3,566.9l1.3-13.7 M1305.6,919.4l-1.2,0.5 M1298.6,656l0.5-2.9l0.7-8.1
			l0.2-8.1l-0.3-8l-0.8-7.8l-1.3-7.6l-1.3-5.5 M1296.1,608l-2.2-8.5l-1.3-4.3l-0.9-3l-1.1-2.9l-1.1-2.5l-1.8-3.6l-6.6-7.6
			 M1225.1,620.2l46.3,9.5 M1211.2,602.2l28.6-13.2l31.6,40.7l-14.2,61.8 M1195,579.7l5.1-5.2l4.2-3.6l7.6-5.2l4.4-2.4l4.3-1.9
			l8.9-2.7l4.6-0.8l4.6-0.4h4.6l4.5,0.4l4.6,0.8l4.4,1.2l4.4,1.6l4.3,2l4.1,2.4l7.3,5.5l3.1,3.2 M1194,746.9l9.8,1.8l4.8,0.4
			l5.1-0.1l5.1-0.5l5.1-0.9l5.1-1.3l5.1-1.7l5-2l4.9-2.5l4.8-2.8l4.7-3.2l8.9-7.6l4.2-4.3l7.9-9.6l3.6-5.1l6.6-11.1l5.5-11.8
			l2.4-6.1l3.8-12.6l2.1-9.9l-2.5,9.8l-4.1,12.2l-5.2,11.4l-6.1,10.5l-6.8,9.4l-7.5,8.2l-8,6.8l-4.1,2.8l-8.5,4.5l-8.6,3l-8.6,1.5
			l-8.4-0.1l-8.1-1.4l-7.7-2.8l-6.7-3.9l-3.8-3l-4.8-4.7 M1211,682l14.2-61.8l-14-18l-17.2,8l-14.2,61.8l14,18.1L1211,682l46.2,9.5
			l-45.8,21.1l-17.6-22.6 M1165.9,682.7l-2.2-9.5l-0.8-4.9l-0.5-4.9l-0.3-10.1l0.3-4.9l1.2-9.9l0.9-4.9l2.4-9.6l3.2-9.2l1.9-4.4
			l3.6-7.3l3-5l6.1-8.3l6.8-7l3.5-2.9l-5.3,6.4l-6.1,8.8l-5.1,9.5l-4,9.3l-2,5.8l-2.7,10.4l-2.3,11.9l-1,6.6l-0.6,6.6l-0.2,6.6
			l0.3,6.5l0.7,6.4l1.1,6.3l1.4,6.1l1.9,5.8l2.2,5.5l1.9,3.9l3.5,6.1l3.2,4.4l3.5,4l3.8,3.7l-6.1-5.7l-5.4-6.7l-2.5-3.7l-2.3-3.9
			l-3.5-7.3L1165.9,682.7 M1194,746.9l-9.6-3.8l-4.5-2.4l-4.3-2.9l-4.1-3.3l-13.9-12.9 M1336.5,602.1l-2.1-7.6l-3.6-10.3l-2.4-5.6
			l-5.6-10.7l-3.3-5.2l-6.8-9.2l-5-5.7l-8.2-7.8l-8.9-6.9l-5.1-3.3l-5.3-3l-8.1-3.8l-7-2.5l-9.1-2.4l-6.4-1.1l-8.6-0.6l-6.8,0.2
			l-6.7,0.7l-6.6,1.3l-6.4,1.9l-7.9,3.2l-5.6,2.9l-5.4,3.4l-6.9,5.3l-5.1,4.8l-4.9,5.3l-4.5,5.9l-6.9,10.7l-3.8,7.3l-3.8,8.8
			 M1336.5,602.1l1.5,7l1.2,8.1l0.9,9.6l0.2,12.4l-0.7,10.2l-1.4,10.2l-1.5,7.8l-1.9,7.8l-4.8,15.4l-5.8,13.9l-5.1,10.2l-4.8,8.3
			l-6.7,10.2l-7.1,9.4l-8.6,9.9l-6.2,6.2l-6,5.4l-5.8,4.6l-10.3,7.1l-8.2,4.5l-7.4,3.3l-5.7,2l-5.8,1.5l-5.7,1l-5.6,0.4l-3.8-0.1
			l-7.9-1l-7.7-2.3l-5.7-2.5l-6.4-3.9l-4-3l-3.8-3.4l-3.8-3.9l-3.6-4.3l-6.8-9.8l-4-7.1l-3.7-7.7l-4-9.8l-2.8-8.2l-3.9-13.9
			l-2.6-12.6l-2-13.1l-1.4-13.4l-0.6-20.2l0.2-7l0.9-13.4l1.7-13.1l1.1-6.5l2.4-10.6l2.8-10.1l3.6-9.8 M1059.1,102l29.5,16.8
			l29.3,19.7l29.1,22.4l28.6,25.2l27.6,27.3L1230,243l25.6,31.6l24.2,33.3l22.6,34.8l11.1,19.2l9.8,16.8l19.1,36.9l17,37.6
			l14.9,37.9l12.6,38l10.3,37.8l7.8,37.3l5.3,36.5l2.8,35.4l0.2,34.1 M989.8,877.6l0.1-3.7l-1.2-4.1l-2.4-3.9l-1.8-2l-1.9-1.5
			 M969.5,692.4l0.3-0.2 M958,825l35.5-20.5l0.9-0.7l0.9-1.5l0.5-3.5 M949.4,647.2l1.6-0.4l1.8,0.2l3.2,1.8l3,3.2l2.2,4
			 M947.6,705.1l23.1-13.5l1-1.5l0.5-1.9V686l-0.8-3.3 M938.7,963.2l-2.5,1.5L938.7,963.2l4.3-3.4l8.5-7.9 M927,172.3l-1.4-5.3
			 M920.3,194.9l2.5-3.7 M923.2,193l-0.4-1.8l2-3.5l1.3-3.1l1.4-6l0.1-2.9l-0.3-2.8l-0.7-2.7 M910,200.4l8.4-4.4l8.4-5.4l8.1-6.6
			l4.4-4.5l3.9-4.6l2.9-4.3l3-5.4l2.4-6.1l1.2-4.6l0.7-5.1l-0.1-6l-0.6-3.8l-1-3.7l-1.5-3.8l-1.9-3.6l-2.3-3.5l-2.7-3.3l-4.1-3.9
			l-4.7-3.5l-3.2-1.9l-3.4-1.7l-5.9-2.4l-10.5-2.9 M921.4,159.5l-2.8-2.3l-3.4-2.2l-3.9-1.9l-4.5-1.7l-7.3-1.8 M915.1,566.6
			l-16.3-24.3 M896.9,987.4l39.3-22.7l-7.5,4.3 M895.5,988.2l-5.3,3.1l6.7-3.9L895.5,988.2 M888.7,537.5l-0.2,0.2 M882,189.4
			l-5.8-24 M881,996.6l9.2-5.3L881,996.6 M863.3,147.5l-0.5,0.1 M871.7,1001.9l9.3-5.3L871.7,1001.9 M862.6,1007.2l9.1-5.2l-6.7,3.8
			 M873.2,546.4l-3.2-0.6l-4.5-1.7l-4.6-2.7l-4.6-3.5l-6.5-6.8L846,526l-3.3-5.6l-2.7-5.9l-2-6l-1.6-8.7l-0.1-2.7l0.4-5.1l1.1-4.5
			l1.9-3.8 M833.2,1024.2l29.5-17l-9.2,5.3 M818.4,168.5l57.8-3.1l9.6,21.9l-48.2,25.1l-8.5,0.5 M825.8,1028.5l7.4-4.3L825.8,1028.5
			 M815.4,450l19.9,18.1 M817.2,1033.4l8.6-4.9l-18.4,10.6 M802.4,1042l-1.1,0.6l6.2-3.5L802.4,1042 M786.3,217.8l20.8,0.7l15.2-0.2
			l11.8-0.6l18.8-1.8l4-0.6l7.6-2.4l15.4-6l13.9-6.8l8.2-4.9l7-5.2l3-2.6l5.1-5.3l3.7-5.3l1.3-2.7l1.5-5.1l0.1-2.5l-0.3-2.4
			l-0.8-2.4l-1.2-2.2l1.8,2.4l1.5,2.6l1.3,3.7l0.4,4.3l-0.3,2.9l-0.7,3l-2.5,6.1l-1.8,3.1l-4.8,6.3l-6.3,6.4l-12.4,5.1l-14.9,4.6
			l-13.5,3.1l-12.4,2.1 M779.8,217.4l6.6,0.4L779.8,217.4 M785.3,1051.8l15.9-9.2l-3.1,1.8 M770.6,193.5l-0.3,0.2l9.6,21.9l49.3-2.7
			l-10.7-44.4L770.6,193.5 M752.3,214.7l15.1,1.7l12.4,1l-3.2-0.2 M750.9,214.5l-1.1-3.6 M729.8,1027.7l260-150.1l-3.6,13.4
			l-2.1,6.4 M939.9,924.2L730.8,1045 M730.8,1043.6v-3.6l-2.4-30.9 M783.3,1053l2-1.2l-54.8,31.6 M730.7,1079.4l220.9-127.6l0.9-1.3
			l0.6-2.1l-0.3-3.9l-1.6-4.1l-2.6-3.8 M730.9,1062.4l217.7-125.7l-4-5l-4.6-7.5l42.6-24.6l0.8-0.7l0.9-1.6l-253.4,146.3l0.2,27.8
			l-0.5,12.1 M720,958l-3.8-18.3 M720.8,961.9l2.5,12.1l5,35.2l254.3-146.8L978,859l-4.4-4.1l-6-7.5l-3.4-5.5l-2.8-5.9l-2.2-6
			l-1.2-5L720.8,961.9L720,958l275.5-159.1l-1.4-16.7l-1-8.5 M710.4,918l272.5-157.3 M713.6,961.7l2.6-22l-1.4-5.2 M870.1,147.2
			l-13,0.9l-11.6,1.7l-12.1,2.4l-12.4,3.1l-12,3.6l-11.3,4l-15.4,6.7l-9,4.8l-7.7,4.9l-6.4,5l-5,4.9l-2,2.5l-3,4.7l-1.6,4.6
			l-0.2,4.2l0.5,2l0.8,2l2.3,3.9l1.3,1.5l-12.1-1.8l-11.3-2.1l-12.8-3l-7.1-2.2l-6-2.3l-4.7-2.5l-3.9-2.9l-1.4-1.7l-1-2l-0.5-2.6
			l0.3-2l0.8-2.1l1.4-2.3l1.9-2.5l4.2-4.2l5.7-4.6l12.5-8.6l18.6-11l22.1-11.7l20-9.5l22-9.3l18.4-6.8l13.5-4.2l18-4.7l13.6-2.6
			l16.8-1.9l10.8-0.3l5.2,0.2l8.7,0.9l5.9,1 M899.6,149.6l-9.2-1.6l-6.4-0.6l-6.7-0.3l-13.9,0.3h1.3 M679.1,416.6l40.6-23.4l2.2-0.4
			l1.9,0.5 M686.3,847.3l8.9,22.8l11.6,34.9l8,29.5l278.4-160.7l-0.4-1.6l-0.8-2.5l-1.3-2.5l-1.6-2.2l-1.8-1.8l-3.2-2l-3.5-0.8
			l-4.5-1.7l-4.6-2.7l-2.3-1.7l-6.6-6.2l-6-7.8l-4.7-8.6l-3.2-8.9l-1.6-8.7l-0.1-5.4l0.5-3.5L689.1,854.4 M637.7,380.5l12-1.1
			l6.2-0.1 M634.2,742.4l276-159.4 M669.5,808.7l-3.7-8.1l-17.5-33.9l-20.2-34.6 M620.7,1314.5l1.2-0.5 M612.2,707.8l15.9,24.5
			l286.9-165.6l0.5,0.8l1.2,2.5l0.8,2.5l0.3,3.1l-0.4,2l-1.2,2l-6,3.5l-1.6,1.7l-2.1,3.6l-1.4,4.3l-0.4,2.4l-0.2,5.2l0.7,5.7
			l1.4,5.9l2.2,6l2.9,5.9l5.3,8.2l6.3,7l4.5,3.7l2.3,1.6l4.6,2.4l4.5,1.5l2.2,0.3l4.1-0.1l3.7-1.2L669.5,808.7l12,26.5l4.7,12.1
			l285-164.6L961.2,656L675.1,821.1 M577.3,406l6-3.5 M560.2,247.9l22.4-9l24.1-5.9l25.4-2.5l26.6,0.8l27.6,4.1l28.4,7.4l29,10.6
			l29.3,13.7l29.5,16.8l29.4,19.7l29.1,22.4l28.5,25l27.7,27.4l26.8,29.7l25.6,31.6l24.3,33.3l22.6,34.8l21,36l19.1,36.9l17,37.6
			l14.9,38l12.6,38l10.2,37.8l7.8,37.3l4.9,33.8l3.2,38.1l0.2,34.1l-2.4,32.5l-4.9,30.7l-7.4,28.6l-9.9,26.3l-9.8,19.1l-2.5,4.7
			l-14.6,21.2l-16.7,18.3l-18.8,15.3l-20.7,12.3 M607.1,700.2l281.5-162.7l2.1-0.6l2.5,0.6l2.6,1.6l3,3.2L612.2,707.8l-4.1-6.3
			l-22-30.4l-22.7-28 M558.7,416.7l15.9-9.2 M534.9,612l3,2.9l14.8,16.4l282.6-163.2l1.8,2l1.5,2.3l1.4,3.3l0.6,2.5l-0.1,3l-0.9,2.3
			L563.3,643.1l-10.5-11.8 M531.2,608.3l0.1-0.3l246.2-142.1 M503.7,448.5l23.2-13.4 M489.2,569.3l23.3,20.4l22.5,22.3l280.5-162
			l-3.3-1.9l-1.8-0.4l-1.7,0.3l-31.2,18l-6.2-4.9l-4.3-4.5l-5.6-7.7l-3.2-5.9l-3.2-7.8l-1.8-7.1l-0.7-5.6l0.2-5.3 M485.2,459.1
			l9.2-5.3 M466.8,469.8l9.2-5.3 M474.9,557.9l11.4,8.9l2.8,2.5L578,518l174.6-100.8l-0.3-3.9l-1.6-4.2l-1.5-2.3l-1.8-2l-3.2-2.4
			 M783.7,1052.8l19.8,9.3l26.6,9.7l26.1,6.8l25.4,3.7l24.4,0.8l21-2.1l2.3-0.3l22-5.3l20.6-8.3l19-11.2l17.2-14.1l15.4-16.8
			l4.6-6.7l8.8-12.7l11.3-21.9l9.1-24.2l2.3-8.9l4.5-17.4l4.5-28.2l2.2-29.9l-0.2-31.3l-2.5-32.5l-4.8-33.5l-7.2-34.3l-9.6-35.1
			l-11.4-34.5l-13.7-34.9l-15.6-34.6l-17.6-33.9l-19.2-33.1l-5.3-8.1l-15.5-23.9L926,474.8l-23.5-29.1L878,418.6l-25.5-25.2
			l-26.2-23l-9.7-7.5l-16.9-13.1l-27-18.1l-27-15.4l-26.9-12.6l-26.6-9.7l-26.1-6.8l-25.4-3.8l-17.3-0.5l-7.2-0.2l-23.4,2.3l-22,5.3
			l-20.6,8.3l-19,11.2l-17.2,14.1l-15.4,16.8l-13.4,19.4L473.8,382l-9.1,24.2l-6.8,26.3l-4.5,28.2l-1.3,17.6 M457.5,544.7
			l221.7-128.1l-5.3-7.7l-3-5.8l-2.4-6l-1.7-6 M415.4,518.2l240.5-138.9l1.8,0.3l2.6,1.4l2.5,2.3l1.6,2.2l1.7,3.2l0.8,2.5
			L431.3,527.2 M407.1,513.4L593,406 M459.3,545.9l264.4-152.6l6.9,2.8l13.8,6.4L474.9,557.9l-15.3-11.9L432.6,528l-25.3-14.4
			 M463.1,471.9l-5.4,3.1l126.2-72.9l2.1-0.5l2.5,0.7l2.6,1.7l1.9,2l42.8-24.7l2-0.8L407.3,513.5l-8.3-4.4 M398.8,509l58.8-33.9
			l-6,3.4 M375.4,496.7l29.5,16.7l29.4,19.7l27.9,21.6l29.6,25.9l27.7,27.4l26.8,29.6l25.6,31.6l23.8,32.7l23.1,35.4l20.9,36
			l19.1,36.9l17,37.6l14.9,37.9l12.6,38l9.7,35.9l8.3,39.2l5.3,36.5l2.7,35.5l0.2,34.1 M349.2,684.7l-1.8-1.1 M476.6,994.8l-1-13.1
			l-2.1-14.7l-3.1-15l-4.1-15.2l-5.1-15.3l-6-15.3l-6.9-15.1l-7.7-14.9l-8.5-14.5l-9.1-14l-9.7-13.4l-10.3-12.8l-10.8-12l-11.1-11
			l-11.5-10.1l-11.7-9l-9.6-6.5 M351.5,1162.3l-4.3-2.4L351.5,1162.3 M338,1154.6l9.2,5.2l-7.7-4.3 M338,678.3l11.2,6.4l18.1,12.2
			l18.3,14.1l18,15.8l17.5,17.3l16.8,18.7l16.1,19.9l15.3,21l14.3,21.9l13.2,22.7l12,23.3l10.7,23.8l9.4,23.9l8,24l6.5,23.8
			l4.9,23.5l3.3,23l1.8,22.3l0.1,16 M207.3,876.9l1,6.9l3.2,15l4.1,15.2l5.1,15.3l6,15.3l6.9,15.1l7.7,14.9l8.4,14.5l9.1,14
			l9.8,13.4l10.3,12.8l10.8,12l11.2,11l11.4,10.1l11.7,9l11.9,7.9l11.9,6.8l11.8,5.5l11.7,4.3l3.6,1l7.8,2l11.1,1.7l10.7,0.3l10.2-1
			l9.7-2.3l9.1-3.7l8.3-4.9l7.6-6.2l6.8-7.4l5.9-8.5l4.9-9.5l4-10.7l3-11.5l2-12.4l1-13.1l-0.2-15l-0.7,9.2l-1.8,11.1l-2.6,10.2
			l-3.6,9.4l-4.4,8.6l-5.2,7.6l-6.1,6.6l-6.8,5.5l-7.4,4.4l-8.1,3.2l-8.6,2.1l-9.2,0.9l-9.5-0.3l-9.9-1.5l-10.2-2.7l-10.4-3.8
			l-10.5-4.9l-10.6-6l-10.5-7.1l-10.4-8.1l-10.2-9l-10-9.8l-9.6-10.7l-9.2-11.3l-8.7-12l-8.6-13.3l-7.1-12.2l-6.9-13.3l-6.1-13.5
			l-5.3-13.6l-4.5-13.7l-3.7-13.6l-1.5-7.2l-1.3-6.3l-1.9-13.2l-1-12.7l-0.1-12.3L235,830l1.8-10.9l2.7-10.4l3.6-9.5l4.4-8.6
			l5.2-7.6l6.1-6.6l6.8-5.5l7.6-4.4l7.9-3.2l8.7-2.1l10.4-0.9l8.3,0.3l9.9,1.5l10.2,2.6l10.5,3.9l9.2,4.3l-14.1-8.2l-11.8-5.5
			l-11.7-4.3l-11.4-3l-11.1-1.7l-10.7-0.3l-10.2,1l-9.7,2.3l-9,3.7l-8.3,4.9l-7.6,6.2l-6.7,7.4l-5.9,8.5l-4.9,9.6l-4,10.6l-3,11.5
			l-2,12.4l-1,13.1l0.1,13.8l1.1,14.3L207.3,876.9 M339.1,1155.3l0.4,0.3l-6.1-3.5l-17.4-11.7l-17.2-13.3l-16.9-14.8l-16.4-16.3
			l-15.8-17.6l-15.2-18.7l-13.5-18.6l-14.3-21.8l-12.5-21.3L182.9,976l-10.1-22.2l-8.8-22.5l-7.5-22.5l-6.1-22.4l-3.9-18.6
			l-3.9-25.1l-1.6-20.9l-0.1-20.4 M135,867.7l-1.6-7.4l-3.3-23l-1.7-22.3l-0.2-21.5l1.5-20.5l3.1-19.4l4.7-18l6.2-16.6l7.8-15
			l9.2-13.3l10.5-11.6l11.9-9.7l13-7.7l3.8-1.5l10.4-4.2l15.1-3.7l16-1.6l16.8,0.5l17.4,2.6l17.9,4.6l18.3,6.8l18.4,8.6l7.7,4.4
			l-19-9l-17.7-6.5l-17.4-4.5l-16.9-2.5l-16.3-0.5l-4.8,0.5l-10.7,1.1l-14.7,3.6l-13.7,5.5l-12.7,7.5l-11.5,9.4l-10.3,11.4
			l-8.8,12.8l-7.5,14.5l-6.1,16.1l-4.6,17.5l-3,18.8l-1.5,19.9v7.6l1.4-19.3l2.9-18.2l4.4-17l5.9-15.6l7.3-14.1l8.6-12.5l2.4-2.6
			l7.6-8.4l11-9l12.3-7.3l13.3-5.3l14.2-3.5l15.1-1.5l7.8,0.2l8,0.3l16.3,2.4l16.8,4.4l17.1,6.3l17.4,8.1l17.5,10l17.4,11.7
			l17.2,13.3l16.9,14.8l16.4,16.3l15.9,17.6l15.2,18.7l14.3,19.8l13.5,20.6l12.4,21.3l11.3,21.9l10.1,22.2l8.8,22.5l7.5,22.5
			l6.1,22.4l4.6,22.1l3.1,21.6l1.6,21l0.2,20.2l-1.4,19.3l-2.9,18.2l-4.4,17l-5.9,15.6l-7.3,14.1l-8.7,12.5l-9.9,10.9l-11.1,9.1
			l-12.3,7.3l-13.3,5.3l-14.2,3.5l-15.1,1.5l-15.7-0.5l-16.2-2.4l-17-4.4l-17.1-6.3l-16.7-7.8l6,3.5l18,8.4l17.7,6.5l17.4,4.5
			l16.8,2.5l16.3,0.5l15.5-1.6l14.7-3.5l13.7-5.5l12.7-7.5l11.5-9.4l10.2-11.2l8.9-12.9l7.5-14.6l6.1-16.1l4.6-17.5l3-18.8l1.4-17.8
			l0.1,5.5l-1.5,20.5l-3.1,19.3l-4.7,18.1l-6.3,16.6l-6.2,12.1l-1.5,3l-9.2,13.3l-10.6,11.6l-6.9,5.6l-4.9,4.1l-13.1,7.7l-14.1,5.7
			l-15.2,3.7l-16,1.6l-16.8-0.5l-17.4-2.6l-17.9-4.7l-18.3-6.7l-18.5-8.7l-18.6-10.6l-18.5-12.4l-18.3-14.2l-18-15.8l-17.5-17.2
			l-8-8.9l-8.8-9.8l-16.1-19.9l-15.3-21l-14.3-21.9l-13.2-22.7l-12.1-23.3l-10.7-23.7l-9.4-23.9l-7.9-24l-6.5-23.8L135,867.7
			 M111.2,507.1l22.4-9.1l24-5.8l25.4-2.5l26.6,0.8l27,4l29,7.5l29,10.6l29.3,13.8l29.5,16.8l29.4,19.7l29,22.4l28.5,25.1l27.7,27.4
			l24.8,27.5l27.6,33.7l24.2,33.3l22.7,34.8l20.9,36l19.1,37l17,37.5l14.9,37.9l12.7,38l1.7,6.2l8.6,31.6l7.8,37.3l5.3,36.5
			l2.7,35.4l0.2,34.1l-2.4,32.5l-4.9,30.7l-7.5,28.7l-9.8,26.2l-12.3,23.8l-14.6,21.1l-16.7,18.4l-14.3,11.7l-4.4,3.6l-20.7,12.3
			 M453.4,477.1l-2.3,0.6l0.4-17.1L453.4,477.1z"/>
	</g>
</g>
</svg>
