<?xml version="1.0" encoding="utf-8"?>
<!-- Generator: Adobe Illustrator 27.2.0, SVG Export Plug-In . SVG Version: 6.00 Build 0)  -->
<svg version="1.1" xmlns="http://www.w3.org/2000/svg" xmlns:xlink="http://www.w3.org/1999/xlink" x="0px" y="0px"
	 viewBox="0 0 1417.3 1417.3" style="enable-background:new 0 0 1417.3 1417.3;" xml:space="preserve">
<style type="text/css">
	.st0{fill:#686868}
	.st1{fill:none;stroke:#000000;stroke-width:5.322;stroke-linecap:round;stroke-linejoin:round;stroke-miterlimit:11.3386;}
</style>
<g id="fill">
	<path class="st0" d="M1415.2,349.9l-0.2-5.4l-0.6-5.6l-1.3-7.2l-2.8-10.3l-2.1-5.9l-5.2-11.7l-3.1-5.7l-6-9.3l-4.9-6.6l-4.1-4.8
		l-8.6-8.6l-4.4-3.6l-4.7-3.4l-4.6-2.9l-56.8-32.6l-0.5-0.4c-0.1-0.1-0.2-0.1-0.2-0.1l-9.4-5.4l-9.6-4.5l-9.5-3.5l-9.3-2.5l-9-1.5
		l-8.8-0.4l-8.4,0.6l-8,1.7l-7.5,2.7l-6.9,3.8l-2.8,2l-2.7,1.2l-6.9,4l-6.5,4.7l-6,5.4l-5.5,6.1l-5,6.7l-4.5,7.4l-3.3,6.6l-10.2-0.5
		l-8.5,0.5l-8.2,1.3l-7.9,2l-7.7,2.8l-7.1,3.5l-6.8,4.3l-6.3,5l-5.8,5.7l-5.3,6.4l-4.7,7l-4.1,7.7l-1.3,2.9l-5.9-0.5l-8.7,0
		l-8.4,0.8l-8.1,1.6l-7.8,2.3l-7.4,3.2l-6.9,3.9l-6.5,4.7l-6,5.5l-5.4,6.2l-5,7l-4.3,7.4l-2,4.2l-0.1,0c-0.1,0-0.3,0-0.4,0
		c-0.1,0.1-0.2,0.2-0.2,0.3l-0.4,1.4l-2.4-0.3l-8.8-0.4l-8.5,0.5l-8.3,1.4l-7.7,2.1l-6.6,2.6l-7.9,4.1l-6.7,4.4l-6.2,5.2l-5.8,5.9
		l-5.2,6.5l-4.7,7.1l-3.8,7.3l0,0c-0.1-0.1-0.3-0.1-0.4,0l-3.8,1.5c-0.1,0.1-0.2,0.2-0.3,0.3l-3.6-0.2l-8.6,0.2l-8.4,1l-8,1.7
		l-7.7,2.5l-7.4,3.2l-6.9,4l-6.5,4.7l-6,5.4l-5.5,6.1l-4.9,6.8l-4.3,7.5l-2.6,5.7l-2.8-0.3l-8.8-0.3l-8.5,0.5l-8.2,1.3l-7.9,2.1
		l-7.5,2.9l-7.1,3.7l-6.6,4.5l-6.1,5.2l-5.6,6l-5.1,6.7l-4.6,7.3l-3.1,6.3l-21.8,1.2c-0.3,0-0.5,0.2-0.5,0.5c0,0.3,0.2,0.5,0.5,0.5
		l0.3,0l-4.8,0.6l-8,1.9l-7.6,2.7l-7.3,3.4l-7,4.4l-6.2,4.7l-5.9,5.6l-5.4,6.3l-4.9,6.9l-4.4,7.5l-2.1,4.5l-3.9-0.4l-8.7-0.1
		l-8.5,0.7l-8.2,1.5l-7.9,2.2l-5.1,2l-2.4,0.9l-7.1,3.7l-6.8,4.6l-6,5l-5.7,5.9l-5.1,6.6l-4.5,7.2l-4.1,8.4l-8.5-0.5l-8.6,0.2
		l-8.3,1l-8,1.8l-7.6,2.5l-7.3,3.4l-6.8,4.2l-6.3,5l-5.8,5.7l-5.3,6.4l-4.7,7.1l-4.2,7.7l-1.6,3.6l-5.2-0.6l-8.7-0.1l-8.4,0.7
		l-8.1,1.6l-7.8,2.4l-7.3,3.2l-7.1,4l-6.4,4.6l-6.1,5.4l-5.6,6l-5.1,6.6l-4.5,7.3l-2.6,5.2l-5.1,1.5c-0.2,0-0.3,0.2-0.3,0.3
		l-5.1-0.2l-8.5,0.4l-8.3,1.2l-8,2l-7.6,2.7l-7.2,3.5l-6.8,4.2l-6.3,4.9l-5.8,5.7l-1.2,1.4l-18.9-14l-17.1-10.8l-17.1-9l-17-7.2
		l-16.7-5.4l-16.4-3.5l-15.9-1.6l-15.2,0.4l-14.5,2.3l-13.6,4.2l-12.6,6.1l-83.7,48.3l-7.2,4.5l-12.9,9.2l-12.1,10.4l-11,11.5
		l-3.8,4.4l-9.6,12.7l-8.5,13.6l-7.4,14.3l-6.2,14.9l-5,15.5l-3.8,15.8l-2,11.3L3,885.5l-0.7,12L2.2,914l0.6,12.5l1.6,16.3l1.9,12.8
		l2.5,13l3.7,15.6l3.6,12.9l4.2,13l4.8,13l5.3,12.9l5.8,12.8l4.2,8.5l8.9,16.7l7.2,12.2L64,1098l6.8,9.8l9.6,13l8.7,10.8l9,10.3
		l9.3,9.9l9.4,9.3l11.9,10.8l10.1,8.3l10.2,7.7l13.5,9.3l10.5,6.5l14.4,7.8l10.7,5l15.2,6.1l15.6,5l15.9,3.8l16.1,2.6l10.6,0.9
		l5.6,0.3l16.1-0.1l16-1.5l15.7-2.9l15.3-4.3l5.6-1.9l14.6-6.2l11.8-6.2l83.7-48.3l11.6-7.9l10.5-9.7l9.2-11.4l7.8-12.9l6.5-14.3
		l5.3-16.3l3.7-17.2l2.2-18.3l0.8-19.3l-0.8-20.2l-2.2-20.9l-1.3-7.8l1.4-3.4l2-6.8l1.4-7.3l0.9-7.9l0.2-9.3l6.5,3.7l7.2,3.4
		l7.1,2.5l6.9,1.7l6.6,0.9l6.4,0.1l6.1-0.7l5.7-1.5l5.4-2.2l5-2.9l4.2-3.4l4.4-4.6l3.5-5l3-5.7l2.4-6.3l1.8-6.9l1.2-7.5l0.5-8
		l-0.1-6.2l2.3,1.4l7.3,3.8l7.2,3.1l7.1,2.3l6.8,1.5l6.5,0.7l6.3-0.1l5.9-1l5.5-1.8l5.1-2.6l4.7-3.4l4.2-4.1l3.7-4.8l3.1-5.2
		l2.8-6.3l2.2-6.6l1.6-7.2l1-7.7l0.3-10l5.4,3l7.2,3.3l7.1,2.6l7.4,1.9l6.2,1l6.5,0.3l6.2-0.5l5.8-1.2l5.5-2l5-2.8l4.6-3.6l4-4.3
		l3.5-5.1l2.9-5.7l2.3-6.2l1.9-7.1l1.2-7.5l0.3-4.2c0.1,0,0.1,0.1,0.2,0.1c0.3,0,0.5-0.2,0.5-0.4l1.3-9.1l7.4,4.2l7.2,3.1l7,2.3
		l6.8,1.4l6.5,0.6l6.3-0.2l6-1l5.6-1.8l5.2-2.5l4.8-3.2l4.3-3.9l3.9-4.6l3.3-5.3l2.8-5.9l2.2-6.5l1.6-7.1l0.9-7.7l0.3-8.2l-0.1-3.2
		l4.8,2.8l7.3,3.5l7.2,2.8l7,2l6.8,1.3l6.5,0.4l6.2-0.4l5.8-1.2l5.4-2.1l5-2.9l4.5-3.6l4-4.4l3.6-5l3-5.7l2.5-6.3l2-6.9l1.4-7.4
		l0.8-7.9l0.2-7.1l8,4.3l7.2,3l7,2.3l6.9,1.6l6.6,0.8l6.4,0l6.1-0.8l5.7-1.5l5.3-2.3l4.9-3.1l4.4-3.8l3.8-4.6l3.3-5.3l2.7-6l2.2-6.6
		l1.6-7.2l1-7.7l0.5-8.2l-0.1-3.7l4.4,2.6l7.2,3.6l7.1,2.8l7,2l6.7,1.2l6.4,0.3l6.2-0.5l5.8-1.2l5.5-2l5.1-2.8l4.7-3.5l4.2-4.2
		l3.7-4.8l3.2-5.5l2.6-6.1l2-6.7l1.4-7.3l0.5-4.9c0.1,0,0.1,0,0.2,0c0.3,0,0.5-0.2,0.5-0.4l1.3-10.2l5.7,3.2l7.2,3.3l7.1,2.5
		l6.9,1.7l6.7,0.9l6.4,0.2l6.1-0.7l5.7-1.5l5.3-2.3l4.8-3.1l4.3-3.9l3.9-4.6l3.3-5.3l2.8-5.9l2.3-6.5l1.7-7.1l1.2-7.5l0.6-8l0-4.2
		l3.3,2l7.2,3.6l7.1,2.8l6.9,2l6.8,1.3l6.5,0.5l6.3-0.3l5.9-1l5.6-1.8l5.2-2.6l4.7-3.3l4.2-4.1l3.7-4.8l3.1-5.5l2.5-6.2l2-6.8
		l1.4-7.4l0.8-7.9l0.1-9l7,4l7.2,3.4l7,2.6l6.9,1.7l6.6,0.9l6.3,0.1l5.9-0.7l5.8-1.6l5.3-2.3l4.9-3l4.5-3.7l4-4.4l3.5-5.1l3-5.7
		l1-2.6l9.9,0.1l8.4-1.1l8-2.3l7.4-3.3l6.8-4.4l6.1-5.3l5.5-6.5l4.7-7.3l3.9-8.2l3.5-10.5l1.9-8.2l1.5-10.4l0.6-10.9
		c0,0,0-0.1,0-0.1l0-0.1L1415.2,349.9z"/>
</g>
<g id="stroke" xmlns:svg="http://www.w3.org/2000/svg" xmlns:inkscape="http://www.inkscape.org/namespaces/inkscape" xmlns:sodipodi="http://sodipodi.sourceforge.net/DTD/sodipodi-0.dtd">
	
		<sodipodi:namedview  bordercolor="#000000" borderopacity="0.25" id="namedview10550" inkscape:deskcolor="#d1d1d1" inkscape:document-units="mm" inkscape:pagecheckerboard="0" inkscape:pageopacity="0.0" inkscape:showpageshadow="2" pagecolor="#ffffff" showgrid="false">
		</sodipodi:namedview>
	<script  id="script1357" type="text/ecmascript">
		<![CDATA[
if(typeof(top) != "undefined")
{
	top.ShowPaper = ShowPaper;
}
function ShowPaper()
{
  var svgDocument = getDocument();
  var paper = svgDocument.getElementById("paperID");
  if(paper)
  {
    paper.setAttribute("transform","scale(1)");
    paper.setAttribute("opacity","1");
    paper.setAttribute("visibility","visible");
  }
  var svg = svgDocument.getRootElement();
  if(svg)
  {
    svg.setAttribute("width","510.000mm");
    svg.setAttribute("height","510.000mm");
    svg.setAttribute("viewBox","-5.000000 -5.000000 510.000000 510.000000");
  }
}

			]]>
	</script>
	<g id="layer5" inkscape:groupmode="layer" inkscape:label="Layer 1">
		<path id="path1459" class="st1" d="M353.2,722l1.5-1.8l5.8-5.6l6.3-4.9l6.8-4.1l7.2-3.4l7.6-2.7l8-2l8.2-1.2l8.5-0.4l9.7,0.5
			l3.8-7.5l4.5-7.2l5.1-6.6l5.6-6l6.1-5.3l6.4-4.5l7.1-4l7.2-3.1l7.8-2.4l8-1.6l8.3-0.7l8.6,0.1l5.5,0.6l1.8-3.9l4.2-7.6l4.7-7.1
			l5.2-6.4l5.8-5.7l6.2-4.9l6.7-4.1l7.2-3.4l7.6-2.5l8-1.8l8.3-1l8.6-0.2l8.8,0.6l4.3-8.7l4.5-7.2l5.1-6.6l5.7-5.8l6-5l6.8-4.6
			l7.1-3.7l2.3-0.9l5.1-2l7.8-2.2l8.1-1.5l8.4-0.7l8.6,0.1l4.2,0.4l2.3-4.8l4.3-7.4l4.9-6.9l5.4-6.2l5.9-5.6l6.1-4.7l7-4.3l7.2-3.4
			l7.5-2.7l7.9-1.8l8.2-1l8.6-0.2l8.6,0.7l4.4-8.9l4.5-7.2l5.1-6.6l5.6-5.9l6.1-5.2l6.6-4.5l7.1-3.6l7.5-2.8l7.8-2l8.2-1.2l8.5-0.5
			l8.7,0.3l3.1,0.4l2.8-6.1l4.3-7.4l4.9-6.8l5.4-6.1l6-5.4l6.4-4.7l6.9-4l7.3-3.2l7.7-2.5l8-1.7l8.3-1l8.6-0.2l7.3,0.5l5-9.6
			l4.7-7.1l5.2-6.4l5.7-5.8l6.1-5.1l6.6-4.4l7.8-4l6.6-2.6l7.6-2.1l8.3-1.4l8.4-0.5l8.7,0.4l2.9,0.4l2.9-6.3l4.3-7.3l4.9-7l5.4-6.2
			l5.9-5.5l6.4-4.7l6.9-3.9l7.3-3.1l7.7-2.3l8.1-1.5l8.4-0.8h8.7l6.2,0.5l1.4-3.3l4.1-7.7l4.7-7l5.3-6.3l5.8-5.6l6.3-4.9l6.8-4.2
			l7.1-3.5l7.6-2.8l7.9-2l8.2-1.3l8.4-0.5l10.4,0.5l3.5-6.9l4.5-7.3l5-6.7l5.5-6.1l6-5.4l6.4-4.7l6.9-4l2.7-1.2l2.8-2.1l6.9-3.7
			l7.4-2.7l7.9-1.7l8.3-0.6l8.7,0.4l9,1.5l9.3,2.5l9.4,3.5l9.5,4.5l66.9,38.4l4.6,2.9l4.6,3.4l4.3,3.6l8.6,8.6l4,4.8l4.9,6.6l6,9.3
			l3.1,5.7l5.2,11.7l2.1,5.9l2.8,10.2l1.3,7.2l0.6,5.6l0.2,5.4l0,73.4l-0.6,11l-1.5,10.4l-1.9,8.1l-3.5,10.5l-3.9,8.1l-4.7,7.2
			l-5.5,6.4l-6,5.2l-6.8,4.4l-1.5,0.6l-5.9,2.6l-7.9,2.2l-8.3,1.1l-10.1-0.2l-1.1,2.9l-2.9,5.7l-3.5,5.1l-4,4.4l-4.4,3.7l-4.9,3
			l-5.3,2.2l-5.8,1.5l-5.8,0.7l-6.3-0.1l-6.6-0.9l-6.8-1.7l-7-2.6l-7.2-3.4l-7.7-4.4l-0.2,9.9l-0.8,7.8l-1.4,7.4l-2,6.8l-2.5,6.1
			l-3.1,5.5l-3.6,4.8l-4.1,4l-4.6,3.2l-5.1,2.5l-5.5,1.8l-5.8,1l-6.2,0.3l-6.5-0.5l-6.7-1.3l-6.9-2l-7.1-2.8l-7.2-3.5l-4.1-2.4
			l0,5.1l-0.6,8l-1.2,7.5l-1.7,7l-2.3,6.4l-2.8,5.8l-3.3,5.2l-3.8,4.6l-4.3,3.8l-4.8,3.1l-5.2,2.3l-5.6,1.5l-6,0.7l-6.3-0.2
			l-6.6-0.9l-6.8-1.7l-7.1-2.5l-7.2-3.2l-8.1-4.5l0,9.4l-0.8,7.8l-1.4,7.3l-2,6.7l-2.6,6.1l-3.1,5.4l-3.7,4.8l-4.1,4.1l-4.6,3.4
			l-5,2.7l-5.4,2l-5.8,1.2l-6.1,0.5l-6.4-0.3l-6.6-1.2l-6.9-2l-7.1-2.8l-7.2-3.6l-5.2-3.1l0.1,4.6l-0.5,8.1l-1,7.7l-1.6,7.1
			l-2.1,6.6l-2.7,5.9l-3.3,5.2l-3.8,4.5l-4.3,3.7l-4.8,3l-5.2,2.3l-5.7,1.5l-6,0.8l-6.3,0l-6.6-0.8l-6.8-1.5l-7-2.3l-7.1-3l-8.6-4.7
			l-0.2,7.9l-0.8,7.8l-1.4,7.3l-2,6.8l-2.5,6.2l-3,5.6l-3.5,5l-4,4.3l-4.5,3.6l-4.9,2.8l-5.3,2l-5.7,1.2l-6.1,0.4l-6.4-0.4l-6.7-1.2
			l-6.9-2l-7.1-2.8l-7.2-3.5l-5.4-3.1h-0.2l0.1,4L849,771l-0.9,7.6l-1.6,7.1l-2.2,6.4l-2.8,5.8l-3.3,5.2l-3.8,4.6l-4.3,3.8l-4.8,3.2
			l-5.2,2.5l-5.5,1.7l-5.9,0.9l-6.2,0.2l-6.5-0.6l-6.7-1.4l-6.9-2.3l-7.2-3.1l-9.8-5.5l0,7.4l-0.6,8l-1.2,7.5l-1.8,7.1l-2.3,6.2
			l-2.9,5.7l-3.4,5l-4,4.3l-4.5,3.5l-4.9,2.7l-5.4,2l-5.8,1.2l-6.1,0.5l-6.4-0.3l-6.2-1l-7.4-1.9l-7.1-2.6l-7.2-3.3l-6.1-3.4
			l-0.3,10.8l-1,7.6l-1.6,7.2l-2.1,6.6l-2.8,6.3l-3.1,5.1l-3.7,4.8l-4.1,4l-4.6,3.3l-5.1,2.6l-5.5,1.8l-5.8,0.9l-6.2,0.1l-6.5-0.7
			l-6.8-1.5l-7-2.3l-7.1-3.1l-7.3-3.8l-3-1.8l0.1,7.1l-0.5,8l-1.2,7.5l-1.8,6.9l-2.4,6.3l-3,5.6l-3.5,5l-4.4,4.6l-4.1,3.3l-4.9,2.9
			l-5.3,2.2l-5.7,1.4l-6,0.7l-6.3-0.1l-6.6-0.9l-6.8-1.7l-7-2.5l-7.2-3.4l-7.2-4.1l-0.2,10.2l-0.9,7.8l-1.4,7.3l-2,6.8l-1.5,3.5
			l1.4,7.9l2.2,20.9l0.8,20.1l-0.8,19.3l-2.2,18.3l-3.7,17.1l-5.3,16.3l-6.4,14.2l-7.8,12.8l-9.2,11.4l-10.4,9.7l-11.5,7.9
			l-83.7,48.3L360,1218l-14.6,6.1l-5.6,1.9l-15.2,4.3l-15.7,2.9l-15.9,1.5l-16.1,0.1l-5.6-0.3l-10.6-0.9l-16-2.6l-15.9-3.8l-15.5-5
			l-15.1-6.1l-10.7-5l-14.4-7.8l-10.5-6.4l-13.5-9.3l-10.1-7.7l-10-8.3l-11.9-10.8l-9.4-9.3l-9.2-9.8l-9-10.3l-8.7-10.8l-9.6-13
			l-6.8-9.8l-7.6-11.9l-7.2-12.1l-8.9-16.7l-4.2-8.5l-5.8-12.8l-5.3-12.9l-4.8-12.9l-4.2-12.9L13,984.1l-3.7-15.6l-2.5-13l-1.9-12.7
			l-1.6-16.3l-0.6-12.5l0.1-16.4l0.7-12l1.9-16.3l2-11.2l3.8-15.8l5-15.4l6.2-14.9l7.4-14.3l8.5-13.5l9.6-12.7l3.8-4.4l11-11.4
			l12-10.3l12.9-9.1l7.1-4.5l83.7-48.3l12.6-6.1l13.6-4.2l14.4-2.3l6.9-0.2l8.2-0.2l15.8,1.6l16.3,3.5l16.7,5.4l14.1,6l2.8,1.2
			l17.1,9l17.1,10.7L353.2,722 M1350.6,461l0.5,6.1l0.1,8.4l-0.5,8l-1.2,7.5l-1.8,6.9l-1.3,3.4 M1414.6,423.3l-0.2-11.5l-1.1-11.9
			l-1.9-12.3l-2.9-13.2l-3.4-12l-4.3-12.7l-5.1-12.7l-5.8-12.5l-6.4-12.3l-7.1-12l-7.6-11.5l-8.1-11.1l-8.6-10.5l-8.9-9.8l-9.3-9.1
			l-9.5-8.3l-9.7-7.3l8,8.1l7.7,8.5l7.4,9l7,9.5l6.6,9.9l6.1,10.3l5.6,10.6l5,10.8l4.4,10.9l3.8,10.9l3.1,10.9l2.4,10.7l1.6,10.6
			l0.8,10.1l-0.1,9.7l-0.9,9.1 M1305.1,226.4l9.6,6.5l-15.3-7.8l-9.4-4l-9.3-3.2l-9.2-2.5l-9.1-1.7l-8.9-0.9l-8.6-0.1l-8.4,0.7
			l-8,1.6l-7.7,2.4l-4.6,2 M1183.5,557.5l0.4,8.4 M1175.6,261.7l7.2,0.9l9.1,1.9l9.2,2.7l9.3,3.5l9.3,4.3l9.3,4.9l9.2,5.6l9.2,6.3
			l11.1,8.5l6.8,5.6l8.6,7.8l8.3,8.3l8,8.6l7.6,9.1l7.2,9.4l6.8,9.7l6.3,9.9l5.8,10l5.2,10.2l4.8,10.2l4.2,10.2l3.7,10.1l3.1,10
			l2.5,9.8l1.9,9.6l1.5,12.1l10.9-6.3l4.6-3.5l4.1-4.2l3.6-4.9l3.1-5.5l2.5-6.1l1.7-6l1.5-7.9l0.8-7.6l0.2-8l-0.4-8.3l-1.7-6.5
			l-4.7-13.4l-6.2-13.7l-3.6-6.9l-8.3-13.7l-4.5-6.6l-10.1-13l-11-12.1l-5.8-5.7l-6.1-5.3l-11.9-9.1l-5.8-3.8l-11.7-6.8l-11.8-5.4
			l-6-2.2l-11.8-3.3l-5.8-1.1l-5.8-0.7l-5.5-0.3l-5.5,0.2l-5.3,0.6l-5.2,1.1l-5,1.4l-4.8,1.9l-6.6,3.4 M1129.1,320.2l4.1-2.2l4.7-2
			l4.9-1.7l5.1-1.2l5.2-0.9l4.8-0.4l6.1-0.2l5.6,0.4l5.7,0.8l5.8,1.2l5.8,1.6l5.9,2l5.9,2.4l5.9,2.8l11.7,6.6l5.8,3.7l11.4,8.4
			l10.9,9.4L1255,361l9.5,11l4.4,5.7l4.2,5.9l7.6,12l6.5,12.2l5.4,12.2l4.3,12l3.1,11.5l1.8,10.9l0.6,10.1l-0.2,4.7l-0.5,4.4
			l-0.8,4.1l-1.2,3.8l-1.4,3.5l-1.7,3.2l-2,2.8l-2.2,2.5l-2.5,2.1l-2.7,1.8l-20.4,11.8 M1100.2,613.9l-0.5-8 M1091.7,310.3l11.7,1.7
			l9.2,2.2l9.2,3l9.4,3.7l9.2,4.4l9.2,5.1l9.2,5.8l9,6.5l8.9,7.1l8.6,7.6l8.4,8.1l8.1,8.6l7.8,9l7.4,9.3l7.1,9.6l6.6,9.8l6.2,10
			l5.7,10.1l5.1,10.1l4.5,10.1l4,10.1l3.3,10l2.8,9.8l2.1,9.7l1.5,9.4l0.9,9.1l0.3,7.1 M1016.3,662.2l-0.4-8.1 M1008.6,358.4
			l5.9,0.8l9.1,2l9.2,2.7l9.3,3.4l9.1,4l9.7,5l9.2,5.4l9.2,6l9,6.6l8.8,7.2l8.6,7.7l8.3,8.3l7.9,8.7l7.7,9.3l7.1,9.4l6.8,9.6l6.3,10
			l5.9,10.1l5.4,10.2l4.9,10.2l4.3,10.2l3.8,10.1l3.2,10l2.6,9.9l1.9,9.4l1.3,9.2l0.3,3.7l21.8-12.5l2.6-1.9l2.3-2.3l2-2.6l1.8-3.1
			l1.5-3.4l1.2-3.7l1.5-8.4l0.3-9.5l-0.9-10.4l-2-11.1l-1.5-5.8l-3.9-11.8l-5.1-12.1l-3-6.1l-6.9-12.1l-6.3-9.4l-6.1-8.3l-9.4-11.3
			l-5-5.4l-10.4-10.2l-5.4-4.7l-11.2-8.7l-5.7-3.9l-11.7-6.7l-5.9-2.8l-11.8-4.6l-5.9-1.7l-5.8-1.4l-5.8-1l-9.1-0.7l-7.7,0.1
			l-5.4,0.6l-5.2,1l-5,1.4l-4.8,1.8l-6.8,3.5 M932.6,702.4l0.4,8.5 M962,416.7l10,4.8l9.3,5.2l12.9,8.4l5.4,3.8l9,7.1l8.6,7.5
			l6.8,6.4l9.9,10l7.8,8.9l7.5,9.2l7.1,9.5l6.6,9.7l6.1,10l5.6,10.1l5.1,10.1l4.5,10.2l4,10.2l3.5,10.1l2.8,9.9l2.4,10.2l1.6,9
			l1.1,8.9l20.5-11.8l2.6-1.8l2.4-2.2l2.2-2.6l1.9-2.9l1.7-3.2l1.4-3.6l2-8l0.5-4.4l0.2-9.6l-1.1-10.4l-1.1-5.5l-3.1-11.5l-4.4-12
			l-5.6-12.2l-6.7-12.2l-3.7-6.1l-8.1-11.9l-9.1-11.4l-9.8-10.7l-5.2-5.1l-5.4-4.8l-11.1-8.8l-5.7-4l-10.7-6.5l-6.9-3.5l-6-2.7
			l-11.8-4.3l-5.9-1.6l-5.8-1.2l-5.8-0.8l-5.6-0.4h-5.5l-5.4,0.4l-5.2,0.8l-5.1,1.3l-4.9,1.7l-4.5,2L962,416.7l-8.6-3.5l-9.2-3
			l-9.1-2.1l-10.4-1.5 M1037.9,641.3l-1,0.6l3.6-2.5l2.3-2.3l2.1-2.7l1.8-3l1.5-3.4l1.3-3.7l0.9-4l0.7-4.3l0.3-9.4l-1-10.4
			l-2.2-11.2l-3.4-11.7l-4.6-12.1l-5.7-12.2l-3.3-6.1l-7.3-11.9l-4.2-6.1l-4.3-5.8l-9.4-11.1L996,497.7l-5.3-4.9l-11.1-9.1l-5.7-4.1
			l-11.6-7.5l-5.9-3.2l-11.8-5.4l-5.9-2.1l-5.8-1.8l-5.8-1.3l-5.8-0.9l-5.7-0.5l-5.5-0.1l-5.5,0.3l-5.3,0.7l-5.2,1.1l-5,1.5
			l-4.8,1.8l-6.1,3.1 M868.1,739.6l-0.5,0.2 M848.7,750.9l0.5,7.8 M1035.1,642.9l1.8-1.1l-21,12.3l-0.4-4.9l-1.3-9.3l-1.9-9.6
			l-2.5-9.8l-3.1-10l-3.7-10.1l-4.3-10.1l-4.9-10.1l-5.5-10.1l-5.9-10l-6.5-10l-6.9-9.7l-7.3-9.4l-7.7-9.1l-8-8.7l-8.3-8.2l-8.6-7.9
			l-8.8-7.3l-9-6.7l-9.1-6l-9.2-5.4l-9.3-4.6l-5.3-2.3l-4-1.7l-9.3-3.2l-9.2-2.5l-9.1-1.8l-5.8-0.7 M794.2,513.3l3.8-2.2l4.8-2.1
			l4.9-1.6l5.1-1.2l5.3-0.8l5.4-0.4l7.3,0.1l9.7,1l5.8,1.1l5.8,1.5l5.9,1.9l11.8,4.9l5.9,3l11.6,7l5.7,4l11.1,8.9l5.4,4.9l10.3,10.3
			l5.4,6l8.7,10.9l4.3,5.9l7.8,12l6.7,12.1l2.9,6.1l2.6,6l4.3,11.9l1.7,5.8l2.4,11.2l1.2,10.6v9.7l-1.2,8.7l-1.1,3.9L964,678
			l-1.6,3.2l-1.9,2.9l-2.2,2.5l-2.5,2.1l-2.7,1.7l-20.6,11.8l-1.1-9.7l-1.7-9.4l-2.4-9.7l-3-9.9l-3.6-10.1l-4.1-10.2l-4.7-10.2
			l-5.2-10.2l-5.7-10.1l-6.2-10l-6.6-9.8l-7.1-9.5l-7.5-9.2l-7.8-8.8l-8.1-8.4l-8.4-7.9l-8.8-7.4l-8.9-6.9l-9.1-6.3l-9.2-5.7
			l-9.3-5.1l-9.1-4.3l-9.5-3.8l-9.3-3l-9.2-2.2l-9.2-1.5 M681.7,847.3l0.4,8.4 M673.7,551.5l4.7,0.5l9,1.6l9.1,2.5l9.2,3.2l5.2,2.2
			l4.1,1.8l9.3,4.8l9.2,5.4l9.2,6.1l9.1,6.7l8.9,7.2l8.6,7.7l8.4,8.2l8.1,8.6l7.8,9.1l7.3,9.2l6.9,9.6l6.4,9.8l6,10l5.4,10.1
			l4.9,10.2l4.3,10.2l3.8,10.1l3.2,10l2.7,9.9l2.1,9.7l1.5,9.4l0.6,5.7l19.3-11.2l2.8-1.7l2.5-2l2.3-2.4l2-2.8l1.8-3.1l1.5-3.4
			l2.2-7.8l0.7-4.3l0.4-9.4l-0.9-10.3l-0.9-5.4l-2.8-11.4l-4.1-11.9l-5.3-12.1l-6.4-12.3l-3.6-6.1l-8-12l-4.3-5.8l-9.3-11.2
			l-4.9-5.4l-10.4-10l-6.6-5.6l-10.1-7.5l-11.3-7.1l-6.2-3.4L777,560l-5.9-2.1l-5.9-1.8l-5.8-1.4l-5.8-1l-5.7-0.6l-5.6-0.2l-5.4,0.2
			l-5.3,0.7l-5.1,1.1l-5,1.5l-4.8,2l-5.8,3.1 M627.4,610l3.3-1.9l4.7-2.1l4.9-1.7l5.1-1.3l7.4-1.1l8.7-0.5l5.6,0.3l5.7,0.7l5.8,1.1
			l5.8,1.5l5.9,1.9l5.9,2.3l6.4,3l11.2,6.1l11.5,7.7l5.7,4.3l10.9,9.3l5.5,5.3l9.7,10.3l9.2,11.2l4.2,5.8l7.7,12l6.6,12.2l5.5,12.2
			l4.3,12l3.2,11.6l2,11l0.7,10.2l-0.6,9.2l-0.8,4.1l-1.1,3.8l-1.4,3.5l-1.7,3.2l-1.9,2.9l-2.2,2.5l-2.5,2.2l-2.7,1.8l-20.8,12
			 M597.8,895.7l0.5,7.8 M765.4,807.1l-0.5-9.8l-1.1-9.2l-1.7-9.4l-2.1-9.1l-3.1-10.5l-3.5-10l-4.1-10.1l-4.8-10.2l-5.3-10.1
			l-6.4-10.9l-5.7-9.1l-6.8-9.8l-7.2-9.5l-7.5-9.2l-7.9-8.9l-8.2-8.4l-8.4-7.9l-7.5-6.5l-10.2-8l-9.1-6.3l-8-4.8l-10.5-5.7l-9.3-4.2
			l-9.3-3.5l-11.7-3.3l-6.8-1.5l-9-1.3 M533.8,932.4l-0.3,0.2 M543.1,658.2l5.8-3.1l4.9-2l5-1.4l5.2-1.1l5.4-0.6l5.5-0.2l5.6,0.2
			l5.7,0.5l5.8,0.9l5.8,1.3l5.9,1.7l11.8,4.5l5.9,2.8l11.7,6.6l5.8,3.8l11.2,8.6l5.4,4.7l10.4,10.1l6,6.6l8.3,10l4.4,5.8l8.1,11.9
			l7,12.1l3.1,6.1l5.2,12.1l4,11.8l1.5,5.8l2.1,11.1l0.9,10.4l-0.3,9.6L715,817l-1.2,3.8l-1.4,3.5l-1.7,3.1l-2,2.8l-2.3,2.3l-2.5,2
			l-22.2,12.8l-0.6-6.3l-1.5-9.5l-2.1-9.6l-2.8-9.8l-3.4-10.1l-3.9-10.1l-4.5-10.3l-5-10.2l-5.5-10.2l-6-10l-6.4-9.9l-6.9-9.6
			l-7.3-9.3l-7.7-9l-8.1-8.6l-8.4-8.1l-8.6-7.6l-8.9-7.1l-9.1-6.5l-4.7-3l-4.5-2.9l-9.3-5.3l-9.3-4.6L543.1,658.2l-5.5-2.3l-9.3-3.2
			l-9.2-2.5l-9.1-1.7l-3.3-0.3 M422.7,696.4l8,1l9.1,1.9l9.2,2.7l11.3,4.5l2.9-1.8l4.6-2.1l4.9-1.8l5-1.4l5.2-0.9l5.3-0.5l5.5-0.1
			l5.6,0.3l5.7,0.8l5.8,1.2l5.8,1.6l5.9,1.9l5.9,2.3l11.9,5.6l8,4.6l9.5,6.3l11.2,8.7l5.4,4.8l5.2,4.9l9.9,10.6l9.1,11.4l8.2,11.8
			l3.7,6.1l6.8,12.2l5.7,12.2l4.5,12l3.2,11.5l1.1,5.5l1.2,10.5l-0.1,9.7l-1.3,8.6l-1.1,3.9l-1.4,3.6l-1.6,3.3l-1.9,3l-2.1,2.6
			l-2.4,2.3l-2.6,1.9l-21,12.1l-1.5-11.7l-1.9-9.5l-2.5-9.8l-3-10l-3.6-10.1l-4.1-10.2l-4.7-10.2l-5.2-10.1l-5.8-10l-5.3-8.3
			l-7.8-11.2l-7.2-9.4l-9.5-11.2l-6.1-6.6l-8.3-8.3l-8.6-7.9l-8.8-7.4l-9-6.9l-9.1-6.3l-9.2-5.7l-9.3-5l-7.2-3.3 M401.3,767.9
			l5.4,3.4l9,6.4l8.9,7.1l8.6,7.7l8.4,8.1l8.1,8.6l7.8,9l7.4,9.4l7,9.6l6.6,9.8l6.1,10l4.6,8.3l6.1,12l4.5,10.1l4,10.1l3.3,10
			l2.7,9.8l2.1,9.6l1.5,9.4l0.8,7.5 M514.5,952.1l-0.4-8.3l22.4-13.1l2.4-1.9l2.5-2.5l2-2.8l1.8-3.1l1.5-3.4l1.2-3.7l0.9-4l0.6-4.3
			l0.2-4.6l-0.4-10l-1.7-10.8l-2.9-11.5l-4.1-11.9l-5.2-12.2l-6.4-12.2l-3.6-6l-3.8-6l-8.5-11.6l-9.5-11.1l-10.2-10.4l-10.8-9.5
			l-11.3-8.5l-11.6-7.4l-5.9-3.2l-11.8-5.3l-5.9-2.1l-5.9-1.7l-5.8-1.2l-5.7-0.9l-5.7-0.4l-5.5-0.1l-5.4,0.4l-5.3,0.8l-5.2,1.1
			l-6.3,2 M353.2,722l14.4,12l16.3,15.4l15.8,16.7l15.2,17.9l15.8,21l12.3,18l12.5,20.5l11.5,21.2l10.4,21.7l9.2,22.1l7.8,21.9
			l6.6,22l5.1,21.8l2.3,13.5 M223.2,1083.8l-2.2-6.5l-1.1-4.1l-1.4-7.9l-0.3-7.5l0.7-6 M169.7,945.9l3.5,8.3l4.3,7.8l5.1,7.4
			l5.6,6.6l6,5.7l6.3,4.6l6.3,3.4l6.3,2.6l3.2,2.1l3.1,2.6l2.9,3.1l3.9,5.5l2.1,4l2.4,6.1l1,4.1l0.4,5.8l-0.4,3.5l-1.6,4.3l-1.7,2.2
			l-3.6,3.2 M176,1111.1l47.2-27.3l2.4,5.7l3.9,8.1l1.5,4.1l0.9,4.3 M184.8,993.7l-4.8-2.4l-3.2-2.3l-3-2.9l-4.1-5.2l-2.3-3.8
			l-2-4.1l-1.5-4.1l-1-4.1l-0.4-3.9l0.1-3.6l1.2-4.7l1.5-2.5l1.9-1.8 M123.9,928.5l26.3-15.1 M132,917.5l-1.1,2.8l-1.4,2.5l-1.6,2.2
			l-1.8,1.9l-2.1,1.6l-2.2,1.3l-2.5,0.9l-2.6,0.6l-2.8,0.3L108,931l-6.1-1.9 M94.6,731.6l10.6-5.2l11.2-3.9l11.9-2.6l12.4-1.2
			l13,0.2l13.4,1.5l13.8,2.9l14,4.2l16.6,6.7l12,5.7l14.4,8.1l14.4,9.4l14.3,10.5l14.1,11.6l13.9,12.7l13.5,13.6l10.1,11.1
			l15.7,18.7l12.1,16.1l11.5,16.7l10.5,16.9l10.3,18.2l9.3,18.1l10,22.2l6,14.7l6.6,18.6l5.7,18.6l4.7,18.4l3,15l3.3,21.2l1.6,17.5
			l0.5,17l-0.3,10.9l-0.7,10.7l-1.2,10.4l-1.6,10l-2.1,9.6l-2.6,9.2l-3,8.8l-3.5,8.4l-3.9,7.9l-4.3,7.4l-4.8,6.9l-5.1,6.4l-5.5,5.9
			l-5.9,5.4l-6.3,4.8l-6.6,4.2l-7.3,3.8 M89.2,1048.9l95.6-55.2l6.3,2.8l6.3,4.1l6.2,5.2l2.9,3l5.4,6.3l2.9,4l4.7,7.6l3.9,8l1.7,4.2
			l-2.8,3.7l-1.3,2.6l-1.1,2.8l-0.9,3.8l-87.1,50.3 M71.6,1003.4l2-1.7l1.8-2l1.5-2.3l1.3-2.6l1.8-5.9l0.8-6.8l-0.3-7.5l-0.5-3.9
			l-1.2-5.5l-2-6.6l-1.5-4.1l-3.8-8.1 M67.8,936.7l1.8,5.7l1.9,4l30.3-17.4l-6.3-3.2l-8.1-5.8l-3.2-1.9l-4.4-1.6l-1.5-0.2l-2.9,0.1
			l-2.6,0.8l-2.2,1.5l-1.7,2.1l-1.2,2.7l-0.7,3.2l-0.2,3.6L67.8,936.7 M143.7,910.7l-3.9-0.2l-1.3,0.3L136,912l-2,1.7l-1.1,1.7
			l-0.9,2.1L143.7,910.7l3.5,1.1l4.8,2.8l3.1,2.6l3,3.1l2.7,3.5l2.4,3.8l2.8,6.1l3.7,12.1l-2.6,2.3l-95.6,55.2l-1.9,1.8l-0.8,1.2
			l-1.2,2.8l-0.6,3.2l0,5.5l1.2,6.1l1.5,4.1l3.1,6l3.5,4.9l3.4,3.7l3.1,2.6l3.2,2.1l9.5,4.2l6.3,4.1l6.1,5.2l5.8,6.2l2.8,3.4
			l5.1,7.3l4.3,7.9l3.5,8.1l3.8,12.3l2.8,6.1l2.4,3.8l4.1,5.1l3.1,2.9l3.2,2.3l3.2,1.7l4.6,1.2l2.9,0l2.6-0.8l2.2-1.4l1.7-2l3.8-7.9
			l1.6-2.2l1.8-1.9l2-1.6l2.3-1.3l2.5-0.9l2.6-0.6l2.7-0.3l5.8,0.6l6.2,1.9l6.3,3.2l7.9,5.7l4.8,2.7l4.6,1.2l1.4,0l2.7-0.5l2.3-1.1
			l1.8-1.7l0.8-1.1l1.2-2.7l0.9-4.9l-0.3-5.7l-22,12.7 M144.1,1146.4l11,6.4l11,5.1l10.8,3.8l5.3,1.4l8.6,1.5l6.8,0.6h4.9l4.8-0.4
			l4.6-0.7l4.5-1.1l4.3-1.4l4.2-1.7l4-2.1l3.8-2.4l3.6-2.8l3.4-3.1l5.5-6.3l3.4-4.8l4.7-8.8l2-4.8l3.2-10.1l2.2-11.4l1.1-12.1
			l0.2-6.3l-0.5-12.9l-1.7-13.7l-2.9-14.8l-3.5-13.2l-2.2-7.1l-5.2-14.2l-6.7-15.2l-6.4-12.7l-3.8-6.9l-5.4-8.9l-7.1-10.8l-9.2-12.4
			l-10-12l-9.9-10.4l-5.2-5l-10.7-9.3l-9.8-7.4l-6.6-4.5l-11-6.4l-5.5-2.7l-10.9-4.4l-10.7-3.1l-10.4-1.7l-10-0.3l-6,0.5l-7.9,1.6
			l-7.5,2.7l-5,2.5l-6.7,4.6l-4.1,3.6l-4.3,4.8l-4.5,6.2l-4.7,8.8l-3.7,9.8l-1.5,5.3l-2.1,11.3l-0.7,5.9l-0.5,12.4l0.2,6.4l1.1,13.3
			l2.1,13.7l3.2,14.1l4.1,13.9l2.6,7.4l2.7,7.1l5.4,12.5l7.8,15.5l3.8,6.8l8.1,13.3l8.9,12.7l9.5,12l10,11.2l5.2,5.2l10.6,9.8
			l10.8,8.7L144.1,1146.4 M767.2,808.2l-1.4,9.7v-18.8L767.2,808.2z M426.6,695.7l-8.1,0.1l5.4-1.5L426.6,695.7z M1102,614.5
			l-1.4,11.2v-20.3L1102,614.5z M1268.7,507.6l-1.4,8.6l0.2-9.8L1268.7,507.6z M758.5,502.3l-21.8-0.3l22-1.2L758.5,502.3z M928,406
			h-6.6l3.8-1.5L928,406z M1013.6,358.1l-5.2,0.2l0.5-1.8L1013.6,358.1z"/>
	</g>
</g>
</svg>
