<?xml version="1.0" encoding="utf-8"?>
<!-- Generator: Adobe Illustrator 27.2.0, SVG Export Plug-In . SVG Version: 6.00 Build 0)  -->
<svg version="1.1" xmlns="http://www.w3.org/2000/svg" xmlns:xlink="http://www.w3.org/1999/xlink" x="0px" y="0px"
	 viewBox="0 0 1417.3 1417.3" style="enable-background:new 0 0 1417.3 1417.3;" xml:space="preserve">
<style type="text/css">
	.st0{fill:#686868}
	.st1{fill:none;stroke:#000000;stroke-width:5.3042;stroke-linecap:round;stroke-linejoin:round;stroke-miterlimit:11.3386;}
</style>
<g id="fill">
	<path class="st0" d="M1415.2,443l-0.7-12.4l-1.5-12.7l-2.1-13.1l-2.9-13.3l-3.5-13.6l-4.1-13.7l-4.8-13.8l-5.3-13.7l-6-13.9
		l-3.5-7.4c0,0,0,0,0,0l-1.8-4.7l-6.5-14.9l-7.3-14.7l-8-14.4l-8.7-14l-9.3-13.5l-9.8-12.9L1319,214l-10.7-11.5l-21.5-21l-10.8-9.6
		l-11.2-8.9l-11.4-8l-11.6-7.1l-11.6-6.1l-11.8-5.1l-11.6-4l-11.5-2.9l-2.3-0.4l-0.1-0.4c0-0.2-0.2-0.4-0.5-0.4l-5.2-0.3
		c-0.1,0-0.3,0-0.4,0.1l-1.9-0.3l-12.2-3.1l-11-1.8l-10.8-0.9l-10.6,0l-10,0.9l-9.8,1.9l-9.4,2.8l-9,3.6l-8.5,4.4c0,0,0,0,0,0
		l-11.9,6.9l-0.4,0.3c0,0,0,0,0,0l-7.9,5.7l-7.4,6.4l-4.8,5l-4,0.9l-9.4,2.9l-8.9,3.8l-8.5,4.5c0,0,0,0,0,0l-12.2,7.4l-7.8,5.8
		l-6.3,5.7c-0.1,0-0.3,0-0.4,0l-2.1,1.3c-0.2,0.1-0.3,0.3-0.2,0.6c0.1,0.2,0.2,0.4,0.5,0.4l0.1,0l-0.8,0.9l-7.7,1.9l-9.2,3.2
		l-8.8,4.1l-12.3,7.1l0,0c0,0,0,0-0.1,0l-8,5.3l-7.4,6.2l-3.4,3.4c0,0-0.1,0-0.1,0l-2.4,1.4c-0.2,0.1-0.3,0.3-0.3,0.5
		s0.2,0.4,0.4,0.4l0.1,0l-0.5,0.5l-2,0.4l-9.3,2.9l-9,3.7l-8.3,4.6c-0.1,0-0.1,0-0.2,0.1l-0.3,0.2c0,0-0.1,0.1-0.1,0.1l-3.7,2
		l-8.3,5l-7.7,5.9l-7.2,6.6l-3.4,3.7l-5.8,1.4l-9.3,3.2l-8.8,4c0,0-0.1,0-0.1,0l-12.4,7c0,0,0,0,0,0l-8.2,5.2l-7.7,6l-7.9,7.7
		l-9.4,2.5l-9.2,3.4l-8.8,4.2l-11.9,6.9l-0.4,0.2c0,0-0.1,0.1-0.1,0.1l-7.9,5.4l-7.4,6.2l-5,5.2l-3.6,0.7l-9.3,2.9l-8.8,3.9
		l-12.4,6.9c0,0,0,0,0,0l-8.2,5.1l-7.7,6l-7.1,6.8l-2.1,2.4l-7.5,2l-9.1,3.4l-8.7,4.2c0,0,0,0-0.1,0l-12.3,7l-0.1,0c0,0,0,0,0,0
		l-8,5.4l-7.6,6.2l-4,4c-0.1,0-0.2,0-0.4,0l-2.5,1.4c-0.2,0.1-0.3,0.3-0.3,0.5c0,0.2,0.2,0.4,0.4,0.4l0.3,0.1l-0.3,0.3l-11,3
		l-9.1,3.6l-8.5,4.3c-0.1,0-0.1,0-0.2,0.1l-12.1,7.2l0,0c0,0,0,0-0.1,0l-7.9,5.6l-7.4,6.4l-3.8,4l-5.2,1.1l-9.3,3l-8.9,3.9l-12,6.8
		l-0.3,0.2c-0.1,0-0.1,0.1-0.1,0.1l-8.1,5.1l-7.6,6l-7.9,7.9l-9.1,2.5l-9.1,3.6l-8.6,4.4l-12.1,7l-0.2,0.1c0,0,0,0,0,0l-7.9,5.6
		l-7.4,6.4l-5.2,5.5l-3.4,0.7l-9.4,2.9l-4.4,1.9l-94.4-54.5L322,440.5L292.5,428l-29.1-9.3l-28.4-6.1l-27.5-2.7l-26.5,0.6l-25.1,4
		l-23.6,7.3l-21.9,10.6l-8,4.6c0,0,0,0-0.1,0L82,450.7l-18.1,16.8l-16,19.8L34.1,510l-11.4,25.2l-9,27.6l-6.4,29.8l-3.9,31.8
		l-1.3,33.6l1.3,35.1l3.9,36.3l6.4,37.3l9,37.9L34.1,843l13.7,38.4l16,38.2l18.1,37.7l20.1,36.9l21.9,35.9l23.6,34.5l25.1,33
		l26.4,31.1l27.5,29l28.4,26.7l29.1,24.2l29.5,21.5l29.7,18.7l29.7,15.7l29.6,12.5l30.2,9.6l27.2,5.8l27.5,2.7l26.5-0.6l25.1-4
		l23.6-7.3l21.9-10.5c0,0,0,0,0.1,0l8.1-4.6l20.2-13.8l18.1-16.8l16-19.8l13.8-22.6l11.4-25.2l9-27.6l6.4-29.9l3.9-31.8l0.7-17.2
		c0.1,0.1,0.2,0.1,0.3,0.1c0,0,0,0,0,0c0.3,0,0.5-0.2,0.5-0.5l1.3-124.6l1.4-1.3c0.1-0.1,0.1-0.2,0.2-0.3l1-0.4l7.3-3.8
		c0,0,0,0,0.1,0l12.4-7.4l6.7-5.1l6.2-5.8l5.4-6.4l8.6-1.2l6.8-1.7l6.4-2.4l6-3c0,0,0.1,0,0.1,0l11.1-6.5l6.7-4.8l6.3-5.6l5.7-6.4
		l2.4-3.3l9-1.4l9.1-2.6l8.4-3.6c0,0,0.1,0,0.1,0l14.8-8.4l0.3-0.2c0,0,0,0,0.1,0l7-5.2l6.4-6.1l5.5-6.8l2.9-0.4l8.4-2l7.9-2.8
		l7.4-3.6c0,0,0.1,0,0.1,0l12.3-7.2l0.1,0c0,0,0,0,0,0l6.8-4.8l6.3-5.6l6.4-7.3l2-0.3l3.7-0.2c0.2,0,0.4-0.2,0.5-0.4c0,0,0,0,0,0
		l5.6-1.3l5.7-1.9l7.5-3.3c0,0,0.1,0,0.1,0l12.4-7.2l6.9-4.7l6.4-5.5l5.9-6.3l3.1-4l7.4-1l8.1-2l7.6-2.8l7.1-3.6c0,0,0,0,0.1,0
		l11.2-6.6l6.9-5.2l6.4-6.2l5.9-7.4l10.1-1.9l8.1-2.6l7.5-3.3c0,0,0.1,0,0.1,0l12.6-7.1l6.9-4.6l6.4-5.4l5.8-6.2l2-2.7l7.3-1.3
		l8.1-2.4l7.7-3.2l7-4c0.1,0,0.2,0,0.3-0.1l5.3-3l7-4.5l6.5-5.3l6-6l3.9-4.8l3.2-0.3l7.1-1.3l6.9-1.9l6.5-2.6l6.1-3.2c0,0,0,0,0.1,0
		l11.2-6.6l6.7-5l6.1-5.8l5.6-6.6l1.1-1.6l9.2-1.5l8.2-2.3l7.7-3.2l6.9-3.9c0.1,0,0.3,0,0.4-0.1l1-0.7l1.2-0.7c0.1,0,0.2,0,0.3,0
		l0.3-0.2c0.1-0.1,0.2-0.2,0.3-0.3l7.7-4.4l6.9-5.5l6.3-6.4l4-5.2l5.3-0.8l8.2-2.2l7.8-3l7.3-3.8c0,0,0,0,0,0l12.4-7.4l6.7-5
		l6.2-5.8l5-5.8l8.1-1.3l5.8-1.6l5.6-2l7.4-3.6c0,0,0.1,0,0.1,0l12.2-7.3l0.1,0c0,0,0,0,0,0l6.7-4.9l6.2-5.7l5.7-6.5l5.1-7l4.7-8
		l4-8.6l3.4-9.2l2.8-9.8l2.1-10.4l1.4-10.9l0.7-11.4L1415.2,443z"/>
</g>
<g id="stroke" xmlns:svg="http://www.w3.org/2000/svg" xmlns:inkscape="http://www.inkscape.org/namespaces/inkscape" xmlns:sodipodi="http://sodipodi.sourceforge.net/DTD/sodipodi-0.dtd">
	
		<sodipodi:namedview  bordercolor="#000000" borderopacity="0.25" id="namedview12484" inkscape:deskcolor="#d1d1d1" inkscape:document-units="mm" inkscape:pagecheckerboard="0" inkscape:pageopacity="0.0" inkscape:showpageshadow="2" pagecolor="#ffffff" showgrid="false">
		</sodipodi:namedview>
	<script  id="script12343" type="text/ecmascript">
		<![CDATA[
if(typeof(top) != "undefined")
{
	top.ShowPaper = ShowPaper;
}
function ShowPaper()
{
  var svgDocument = getDocument();
  var paper = svgDocument.getElementById("paperID");
  if(paper)
  {
    paper.setAttribute("transform","scale(1)");
    paper.setAttribute("opacity","1");
    paper.setAttribute("visibility","visible");
  }
  var svg = svgDocument.getRootElement();
  if(svg)
  {
    svg.setAttribute("width","510.000mm");
    svg.setAttribute("height","510.000mm");
    svg.setAttribute("viewBox","-5.000000 -5.000000 510.000000 510.000000");
  }
}

			]]>
	</script>
	<g id="layer8" inkscape:groupmode="layer" inkscape:label="Layer 1">
		<path id="path12473" class="st1" d="M1026.5,175l3.5-2.1 M692.4,937.6l4.2-1.6l7.3-3.8l12.3-7.4l6.6-5l6.1-5.8l5.6-6.5l8.8-1.2
			l6.7-1.7l6.4-2.4l6.1-3l11.1-6.5l6.7-4.8l6.2-5.6l5.7-6.4l2.5-3.5l9.2-1.5l9-2.6l8.5-3.6l15.1-8.6l6.9-5.2l6.3-6.1l5.6-7l3.1-0.4
			l8.3-2l7.9-2.8l7.4-3.6l12.4-7.2l6.8-4.8l6.2-5.6l6.5-7.5l6.4-0.9l5.5-1.3l5.6-1.8l7.6-3.3l12.4-7.2l6.8-4.6l6.3-5.5l5.8-6.2
			l3.2-4.2l7.6-1l8-2l7.6-2.8l7.2-3.6l11.1-6.5l6.9-5.2l6.3-6.2l6-7.6l10.3-1.9l8-2.6l7.6-3.3l12.5-7.1l6.8-4.6l6.4-5.4l5.8-6.2
			l2.1-2.9l7.4-1.3l8.1-2.3l7.6-3.2l12.5-7.1l7-4.4l6.5-5.3l6-6l4-5l3.4-0.3l7.1-1.3l6.8-1.9l6.4-2.6l6.1-3.2l11.2-6.6l6.6-5
			l6.1-5.8l5.5-6.6l1.2-1.8l9.4-1.5l8.1-2.3l7.7-3.2l17.9-10.3l6.9-5.4l6.2-6.3l4.1-5.4l5.4-0.8l8.2-2.2l7.8-3l7.4-3.8l12.4-7.3
			l6.6-5l6.1-5.8l5.1-6l8.3-1.3l5.7-1.5l5.5-2l7.4-3.6l12.3-7.3l6.7-4.8l6.2-5.6l5.7-6.4l5-7l4.7-8l4-8.5l3.4-9.1l2.8-9.7l2.1-10.3
			l1.4-10.9l0.7-11.4V443l-0.7-12.3l-1.5-12.7l-2.1-13l-2.9-13.3l-3.5-13.5l-4.1-13.6l-4.8-13.8l-5.3-13.7l-6-13.9l-3.6-7.5
			l-1.8-4.7L1372,296l-7.3-14.7l-2.7-4.9l-5.3-9.5l-8.7-14l-9.3-13.5l-9.8-12.9l-10.3-12.2l-10.7-11.5l-21.5-21l-10.8-9.6l-11.1-8.9
			l-11.4-8l-11.6-7.1l-11.6-6.1l-11.7-5.1l-11.5-4l-11.5-2.9l-10.3-1.7l-12.2-3.1l-11-1.8l-10.7-0.9h-10.6l-10,0.9l-9.8,1.9
			l-9.4,2.7l-9,3.6l-8.5,4.4l-12.3,7.1l-7.9,5.6l-7.4,6.4l-4.9,5.1l-4.1,0.9l-9.4,2.9l-8.9,3.8l-8.5,4.5l-12.2,7.3l-7.7,5.8
			l-7.2,6.6l-2.1,2.3l-7.8,1.9l-9.2,3.2l-8.7,4.1l-12.3,7.1l-8,5.3l-7.4,6.2l-6.3,6.4l-2.1,0.4l-9.3,2.9l-8.9,3.7l-12.4,6.9l-8.2,5
			l-7.7,5.8l-7.2,6.6l-3.5,3.8l-5.9,1.4l-9.2,3.2l-8.8,4l-12.4,7l-8.1,5.2l-7.7,5.9l-8,7.8l-9.5,2.5l-9.1,3.3l-8.7,4.2l-12.3,7.1
			l-7.9,5.4l-7.4,6.2l-5.2,5.3l-3.7,0.8l-9.3,2.9l-8.8,3.8l-12.4,6.9l-8.1,5.1l-7.6,5.9l-7.1,6.7l-2.2,2.5l-7.6,2l-9.1,3.4l-8.7,4.2
			l-12.3,7.1l-8,5.4l-7.5,6.2l-6.8,6.8l-11.1,3l-9.1,3.5l-8.6,4.4l-12.3,7.2l-7.9,5.6l-7.4,6.4l-3.9,4.1l-5.3,1.2l-9.3,2.9l-8.8,3.8
			l-12.5,7.1l-8,5l-7.6,6l-8,8l-9.2,2.6l-9,3.5l-8.5,4.4l-12.3,7.1l-7.9,5.6l-7.4,6.4l-5.3,5.6l-3.5,0.8l-9.3,2.9l-4.6,2l-94.6-54.6
			L321.8,441l-29.5-12.5l-29-9.3l-2-0.4l-26.4-5.6l-27.5-2.7l-26.4,0.6l-25.1,4l-23.6,7.3l-21.9,10.6l-8,4.6l-20.1,13.7l-18.1,16.8
			l-16,19.7l-13.7,22.6l-11.4,25.1l-8.9,27.6l-6.4,29.8L4,624.5L3.7,630l-1.1,28l1.3,35l3.9,36.3l6.4,37.3l1.5,6.4l7.4,31.5
			l11.4,38.3l13.7,38.4l16,38.2L82.4,957l20.1,36.9l4.7,7.7l17.2,28.2l23.6,34.5l25.1,32.9l26.4,31.1l27.5,29l28.3,26.7l29.1,24.2
			l29.5,21.5l29.7,18.6l6.4,3.4l23.3,12.3l29.5,12.5l30.2,9.6l27.2,5.8l27.5,2.7l26.4-0.6l25.1-4l23.6-7.3l21.9-10.6l8-4.6
			l20.1-13.7l18.1-16.8l16-19.7l0.8-1.4l12.9-21.2l11.4-25.1l8.9-27.6l6.4-29.8l3.9-31.8l1.3-33.6L692.4,937.6 M1369.1,548.3
			l2.8-1.6 M1296.8,192.3l-10.3-7.9l-10.3-7l-10.7-6.4l9.8,7.7l11.1,9.5l10.8,10l10.5,10.6l10.2,11.1l9.8,11.7l9.4,12.1l9,12.5
			l8.5,12.9l8,13.2l7.6,13.4l10,19.8 M1248.4,618.2l0.3-0.2 M1332.7,562.4l5.5-7.9l4.4-8l3.7-8.7l3-9.4l2.4-10.1l1.7-10.6l1-11.2
			l0.3-11.7l-0.4-12l-1.1-12.7l-1.7-12.9l-2.4-13.2l-3-13.4l-3.6-13.6l-4.2-13.7l-4.8-13.8l-5.5-13.8l-6.1-13.7l-6.7-13.6l-7.2-13.4
			l-7.8-13.2l-8.3-13l-8.8-12.7l-9.2-12.3l-9.7-12l-10.1-11.5l-10.4-11l-10.6-10.5l-10.9-10l-11.1-9.4l-5.2-4 M1265.2,170.7l0.4,0.3
			l-12.8-9.2l-11.5-7.5l-11.5-6.8l-11.5-6l-11.6-5.3l-11.5-4.5l-10.3-3.3 M1292.2,484.3l-1.1-7.9l-2.5-13.2l-3.2-13.4l-3.8-13.5
			l-4.5-13.6l-5.2-13.8l-5.8-13.7l-6.5-13.6l-7-13.6l-7.6-13.4l-8.1-13.2l-8.6-13l-9-12.7l-9.4-12.3l-9.8-11.9l-10.1-11.4
			l-10.4-10.9l-11.4-10.9l-10.1-9.1l-10.3-8.4 M1172.6,553.7l1.1,7.9l1.2,12.6l0.5,12.2l-0.2,11.7l-0.9,11.2l-1.7,10.6l-2.4,10.2
			l-3,9.3l-3.7,8.8l-4.3,8.2l-6.3,9.2 M1093.8,136.2l-1.1,0.7 M1085.1,273.6l9,6.9l11.1,9.3l10.8,9.9l10.5,10.6l10.2,11.1l9.8,11.7
			l9.5,12.1l9.1,12.5l8.6,12.9l8.2,13.2l7.7,13.4l7.2,13.6l6.7,13.7l5.1,11.5l6.5,16.1l4.9,13.8l4.3,13.6l3.6,13.5l2.9,13.3l1.5,8.6
			 M1081.5,143.4l8.3-4.8l8.8-4l9.2-3.1l9.6-2.3l10-1.3l10.3-0.5l10.6,0.5l10.9,1.5l11.1,2.4l11.3,3.2l11.4,4.1l11.5,4.9l11.6,5.7
			l11.5,6.4l11.5,7.1l11.4,7.9l11.3,8.5l11.1,9.1l10.9,9.8l10.6,10.3l10.3,10.9l10,11.4l9.6,11.9l9.2,12.3l8.7,12.7l8.3,13.1
			l7.8,13.3l7.3,13.5l6.7,13.7l6.2,13.8l5.6,13.8l5.1,13.8l4.4,13.7l3.8,13.6l3.1,13.4l2.5,13.2l1.8,12.9l1,12.4l0.3,12.1l-0.4,11.6
			l-1.1,11.1l-1.8,10.6l-2.4,10l-3.1,9.4l-3.7,8.8l-4.3,8.2l-4.9,7.5l-5.4,6.8l-5.9,6l-6.5,5.2l-7,4.4 M1352.1,452l0.2-8l-0.4-9.7
			l-0.9-10l-1.5-10.3l-2.1-10.5l-2.7-10.7l-3.2-10.9l-5.7-16.4l-6.8-16.7l-5.1-11l-5.5-10.9l-6-10.8l-6.4-10.7l-6.8-10.5l-7.1-10.2
			l-7.5-9.8l-7.7-9.4l-8.3-9.3l-8.4-8.7l-8.7-8.3l-8.9-7.8l-9.1-7.3l-9.2-6.8l-9.3-6.3l-9.2-5.6l-6.1-4.7l-11.4-8l-11.5-7.3
			l-11.5-6.5l-11.5-5.7l-11.4-4.8l-11.4-3.9l-11.4-3.1l-10.9-2.1L1098,158l-10.6-0.4L1077,158l-10.2,1.3l-5.5,1.2 M1052.9,619.6
			l1.7,13.4l0.8,12.6l0.2,11.9l-0.3,7.8l-1.3,15l-1.8,10.6l-2.4,10.1l-3,9.5l-3.6,8.9l-4.2,8.2l-4.2,6.6 M1302.5,586.5l6.9-4.6
			l6.4-5.4l5.9-6.1l5.3-6.9l4.7-7.6l4.1-8.3l3.4-9l2.8-9.7l2.1-10.3l1.4-10.9l0.6-11.4v-11.9l-0.7-12.4l-1.4-12.7l-2-13l-2.7-13.3
			l-3.3-13.5l-3.9-13.6l-4.5-13.8l-5.2-13.8l-5.8-13.8l-6.1-13.2l-7.1-14l-7.5-13.3l-8-13.1l-8.5-12.9l-9-12.5l-9.5-12.1l-9.8-11.7
			l-10.2-11.3l-10.5-10.8l-10.8-10.3l-11-9.7l-11.2-9.1l-11.3-8.4l-11.4-7.7l-11.5-7l-11.5-6.2l-11.5-5.3l-11.4-4.5l-11.3-3.6
			l-11.2-2.7l-10.9-1.8l-10.8-0.9l-10.5,0l-10.2,0.8l-9.9,1.7l-9.5,2.5l-9.1,3.3l-8.7,4.1 M1029.1,173.6l1.4-1l-0.4,0.3
			 M1273.8,596.3l1.4-1.9l4.9-8.1l3.9-8.5l3.3-9.1l2.7-9.8l2.1-10.4l1.6-13.8l0.6-8.4l0.2-12L1294,502l-1.9-17.6v-9.6l-0.7-9.9
			l-1.8-13.5l-1.2-7.1l-2.3-10.6l-2.8-10.8l-3.3-10.9l-3.8-11l-4.2-11l-4.3-10l-5.6-11.9l-5.7-10.8l-6.1-10.7l-6.6-10.5l-7-10.3
			l-7.4-10l-7.7-9.7l-8-9.4l-8.3-9l-8.6-8.6l-8.8-8.2l-9-7.7l-9.1-7.2l-9.2-6.7l-12.9-8.3l-12.1-9l-11.4-7.6l-11.5-6.8l-11.5-6
			l-11.5-5.2l-11.5-4.4l-11.4-3.6l-11.2-2.8l-11.1-2l-10.8-1.1l-10.6-0.3l-10.3,0.6l-11.8,1.8 M1245.8,619.7l6.7-4.8l6.2-5.6
			l5.6-6.5l4.9-7.3l4.3-8l3.7-8.8l3-9.4l2.4-10.1l1.8-10.6l1.1-11.2l0.5-11.7l-0.2-12.1l-0.8-12.3l-1.5-13l-2.1-13l-2.8-13.3
			l-3.5-13.5l-4.1-13.6l-4.8-13.7l-5.5-13.7l-6.1-13.6l-6.7-13.6l-7.3-13.5l-7.8-13.3l-8.3-13.1l-8.8-12.8l-9.2-12.5l-9.6-12.1
			l-9.9-11.7l-10.3-11.2l-10.5-10.7l-10.8-10.1l-11-9.4l-11.2-8.8l-11.3-8l-11.4-7.3l-11.5-6.4l-11.5-5.7l-13.5-5.5l-9.4-3.3
			l-11.3-3.2l-11.2-2.4l-11-1.5l-10.8-0.7l-10.5,0.2l-10.2,1l-9.8,1.8l-9.4,2.7l-9,3.6l-8.5,4.4 M968,344.4l8.6,7l11,9.7l10.8,10.3
			l10.5,10.8l10.2,11.3l9.9,11.8l9.5,12.2l6.3,8.6l11.5,16.8l8.2,13.1l7.7,13.3l7.1,13.5l6.5,13.6l5.9,13.7l5.2,13.7l4.6,13.7
			l3.9,13.6l3.3,13.5l2.7,13.3l1.9,12.2 M1213.4,630.6l3.8-5.5l4.4-8l3.8-8.7l3.2-9.4l2.6-9.9l2-10.5l1.3-11l0.6-11.5l0-11.9
			l-0.8-12.4l-2.2-17l-0.1-9.7l-0.8-10l-1.3-10.2l-1.8-10.5l-2.4-10.6l-2.9-10.8l-3.4-10.9l-4-10.9l-4.5-11l-5-10.9l-5.5-10.9
			l-6.4-11.5l-6-10l-6.8-10.5l-7.2-10.2l-7.5-10l-7.8-9.7l-8.1-9.4l-8.3-8.9l-8.6-8.5l-8.8-8l-9-7.5l-9.1-7l-9.1-6.3l-12.4-7.5
			l-13.6-9.7l-11.4-7.2l-11.7-6.7l-14-6.9l-9-3.9l-11.5-4.3l-11.4-3.5l-11.2-2.6l-11-1.8l-10.7-0.9l-10.5,0.1l-10.1,1l-7.6,1.5
			 M912.5,240.6l0.3-0.2 M1182.8,656.4l5.8-3.8l6.4-5.3l5.8-6.2l5.3-6.9l4.7-7.7l4.1-8.3l3.5-9l2.9-9.6l2.3-10.2l1.7-10.8l1-11.2
			l0.3-11.7l-0.4-12.1l-1.1-12.5l-1.8-12.9l-2.5-13.1l-3.2-13.4l-3.9-13.6l-4.6-13.7l-5.2-13.8l-5.8-13.8l-6.4-13.8l-6.9-13.7
			l-7.4-13.5l-7.9-13.3l-8.4-13l-8.8-12.7l-9.2-12.4l-9.7-11.9l-10-11.4l-10.3-10.9l-10.6-10.3l-10.9-9.7l-11.1-9l-11.3-8.3
			l-11.4-7.7l-11.5-7l-11.5-6.2l-11.6-5.5l-11.4-4.6l-11.5-3.9l-11.3-3.1l-11.1-2.2l-10.9-1.4l-10.6-0.5l-10.3,0.5l-9.9,1.4
			l-9.5,2.3l-9.1,3.2l-8.7,4.1 M894.6,822l-1.8,1 M882.1,263.9l3.6-0.9l10.1-1.5l10.3-0.6l10.6,0.3l10.8,1.2l11,2.1l11.2,3l11.4,3.9
			l11.4,4.8l11.5,5.6l11.5,6.4l11.5,7.2l11.4,7.9l7.7,5.8l8,4.6l9.3,6.1l9.2,6.7l9.2,7.3l8.8,7.6l8.6,8.2l8.5,8.7l8.2,9.1l8.9,10.8
			l6.5,8.6l7.3,10.2l6.8,10.4l6.5,10.6l6.7,12l5,9.7l5.3,11l6.3,15l6.5,18l3.3,10.8l2.7,10.7l2.1,10.5l1.5,10.3l1,10l0.4,9.7
			l-0.1,8.1l-3.3-18.3l-3.2-13.5l-3.8-13.6l-4.4-13.8l-5-13.8l-5.6-13.8l-6.2-13.7l-6.8-13.6l-7.3-13.5l-7.8-13.2l-8.3-12.9
			l-8.8-12.6l-9.3-12.2l-9.7-11.8l-10.1-11.4l-10.3-10.8l-10.8-10.5l-10.9-9.8l-14.8-11.9 M858.2,272.5l-0.4,0.2 M873.7,726.2l1.1,8
			l1,12.6L876,759l-0.5,14l-0.8,9.1l-1.6,10.8l-2.2,10.2l-2.9,9.6l-3.5,9l-4.2,8.5l-4.9,7.7 M845.8,279.5l8.6-4.4l9-3.6l9.4-2.7
			l9.8-1.9l10.1-1l10.4-0.1l10.7,0.8l10.9,1.7l11.2,2.6l11.3,3.5l11.4,4.4l11.5,5.3l11.5,6.1l11.5,6.8l11.5,7.5l11.4,8.2l11.2,8.9
			l11.1,9.5l10.8,10.1l10,10.1L1070,363l9.9,11.6l9.5,12l9,12.5l8.6,12.8l8,13.1l7.5,13.3l7,13.6l6.5,13.7l5.9,13.8l5.3,13.8
			l4.7,13.8l4.1,13.7l3.5,13.5l2.8,13.3l2.2,13.1l1.5,12.7l0.8,12.4l0.1,12l-0.6,11.5l-1.4,10.9l-2,10.3l-2.7,9.7l-3.4,9.1l-4,8.5
			l-4.6,7.8l-5.2,7.1l-5.7,6.4l-6.3,5.6l-6.7,4.8 M845.6,411.7l7.4,4.2l9.3,6l9.2,6.5l9.1,7.1l8.9,7.7l8.7,8.2l8.5,8.7l8.2,9.1
			l7.9,9.5l7.7,9.8l7.3,10.1l7,10.4l6.6,10.6l6.2,10.8l5.8,10.9l5.3,11l4.9,11l4.4,11l3.8,10.9l3.3,10.8l2.7,10.7l2.1,10.5l1.6,10.3
			l1.1,10l0.5,9.8l0,7.7 M831.8,858.7l4.7-2.6 M1094,700.3l3-4.1l4.6-7.7l3.8-8.4l3.3-9.3l2.6-9.8l1.9-10.5l1.2-11l0.6-11.5l0-12
			l-0.7-12.4l-1.5-13.6l-0.1-13.2l-0.8-9.9l-1.3-10.2l-1.9-10.5l-2.4-10.7l-2.9-10.8l-3.4-10.9l-3.9-11l-4.4-11.1l-4.8-11l-5.3-11
			l-5.8-10.9l-6.2-10.7l-6.6-10.5l-7-10.3l-7.4-10l-7.7-9.6l-8.1-9.3l-8.3-8.9l-8.6-8.5l-8.8-8l-8.9-7.5l-9.2-7.1l-9.4-6.6
			l-11.8-7.4l-13.8-10.3l-11.4-7.6l-11.4-6.8l-11.5-5.9l-11.4-5.1l-11.4-4.2l-11.3-3.4l-11.2-2.6l-11-1.7l-10.8-0.9l-10.6,0
			l-10.2,0.8l-10,1.7 M787.6,447.5l7.7,6.1l11.1,9.5l10.8,10.1l10.6,10.6l10.4,11.4l9.8,11.5l9.6,12l9.2,12.4l8.7,12.7l8.2,13
			l7.7,13.3l7.1,13.5l6.7,14l5.8,13.3l5.3,13.8l4.7,13.8l4.1,13.6l3.5,13.6l2.8,13.3l2.3,14.2 M782.4,315.5l8.5-4.5l8.9-3.7l9.4-2.9
			l9.7-2l7.1-0.9l3-0.4l10.4-0.3l10.7,0.5l10.9,1.3l11.1,2.2l11.2,3l11.4,3.9l11.4,4.7l11.5,5.6l11.5,6.4l11.4,7.2l11.4,8l11.2,8.7
			l11.1,9.4l10.9,10l10.6,10.6l10.3,11.1l10,11.6l9.7,12l9.3,12.4l8.9,12.7l8.4,13l7.9,13.2l7.3,13.4l6.7,13.6l6.1,13.7l5.5,13.7
			l4.9,13.7l4.2,13.6l3.6,13.5l2.9,13.4l2.3,13.2l1.7,12.9l1,12.6l0.3,12.2l-0.3,11.8l-0.9,11.3l-1.6,10.7l-2.3,10.1l-3,9.5
			l-3.6,8.8l-4.3,8.1l-5,7.3l-5.5,6.5l-6.1,5.8l-6.7,5l-7.1,4.2 M906.9,377.8l5.8,4.4l11.1,9.2l10.8,9.9l10.5,10.5l10.2,11.1
			l9.9,11.6l9.5,12.1l9.2,12.5l8.8,12.8l8.3,13.1l7.8,13.3l7.3,13.5l6.8,13.7l6.2,13.7l5.6,13.8l5,13.7l4.3,13.6l3.6,13.5l3,13.3
			l2.1,12.3l-0.4-12.6l-0.9-10l-1.4-10.3l-2-10.5l-2.4-10.5l-3-11l-3.5-10.9l-4-11l-4.5-11l-5-10.9l-5.5-10.9l-6-10.8l-6.5-10.6
			l-6.9-10.4l-7.3-10.1l-7.6-9.9l-7.9-9.5l-7.9-8.9l-8.8-9.2l-8.7-8.4l-8.8-8l-9-7.5l-9.2-6.9l-9.2-6.4L906.9,377.8l-5.4-4.1
			l-11.2-7.7l-11.6-7.2l-11.5-6.4l-11.5-5.6l-11.5-4.8l-11.4-4l-11.4-3.2l-11.2-2.4l-10.9-1.5l-10.7-0.7l-10.5,0.2l-10.1,1.1
			l-6.1,1.2 M1004.2,759.6l6.7-4.5l6.1-5.3l5.6-6.1l5.2-7.1l4.5-7.8l4-8.5l3.3-9.2l2.7-9.7l2.1-10.4l1.5-10.9l0.8-11.4l0.2-11.8
			l-0.5-12.2l-1.2-12.6l-1.8-12.9l-2.5-13.2l-3.2-13.3l-3.9-13.6l-4.6-13.5l-5.3-13.9l-5.9-13.8l-6.5-13.7l-7.1-13.6l-7.6-13.5
			l-8.1-13.3l-8.5-13l-8.9-12.6l-9.4-12.4l-9.7-11.9l-10.1-11.4L931.8,412l-10.7-10.3l-10.9-9.6l-11.1-8.9l-11.3-8.2l-11.4-7.5
			l-11.5-6.8l-11.5-6l-11.5-5.2l-11.5-4.4l-11.4-3.6l-11.3-2.9l-11.1-2l-10.9-1.2l-10.6-0.3l-10.3,0.6l-9.9,1.4l-9.5,2.4l-9.1,3.2
			l-8.6,4.2 M702.7,367.1l11.7-2.1l10.2-0.7l10.6,0.2l10.8,1.2l10.9,2.1l11.2,3l11.4,3.8l11.5,4.7l11.5,5.5l11.5,6.2l11.5,7
			l11.5,7.7l11.4,8.3l11.2,9l11,9.6l10.8,10.2l10.5,10.8l10.1,11.3l7.1,8.6l11.9,15.4l9,12.8l8.3,12.8l7.9,13.2l7.4,13.5l6.9,13.6
			l6.4,13.8l6.2,15l4.7,12.6l4.6,13.8l4,13.6l3.3,13.5l2.7,13.2l2,13l1.3,12.6l0.6,12.2l-0.2,11.7l-0.9,11.3l-1.6,10.7l-2.3,10.2
			l-2.9,9.6l-3.5,9l-4.2,8.4l-4.7,7.6l-2.1,2.7 M692.4,937.6V904 M675.9,377.6l1.4-0.9 M665,383.8l8.5-4.6l8.9-3.8l9.3-2.9l9.7-2
			l10-1.1l10.4-0.2l10.7,0.8l10.9,1.7l11.2,2.6l11.3,3.4l10.1,3.8l13,5.7l11.4,5.8l11.6,6.6l11.5,7.4l11.4,8l11.2,8.7l11.1,9.3
			l10.8,9.9l10.6,10.5l10.2,11.1l9.9,11.5l9.5,12l9.1,12.4l8.6,12.8l8.2,13.1l7.6,13.4l7.1,13.6l6.6,13.7l6.1,13.8l5.5,13.8
			l4.9,13.8l4.2,13.7l3.6,13.5l3,13.3L985,662l1.6,12.7l0.9,12.4l0.1,11.9l-0.6,11.5l-1.3,11l-2,10.4l-2.6,9.9l-3.3,9.3l-3.9,8.6
			l-4.4,8l-5,7.3l-5.6,6.5l-6.1,5.8l-6.6,5l-7.1,4.2 M667.2,515.7l11.2,8.8l11,9.5l7.9,7.5l13.2,13.3l10.1,11.2l9.7,11.8l9.4,12.2
			l8.9,12.6l8.5,12.9l8,13.2l7.6,13.5l7.1,13.6l7.9,17l4.5,10.5l5.3,13.8l4.7,13.8l4.1,13.6l3.4,13.5l2.7,13.2l1,6.2 M642.7,402.1
			l8.2-1.6l10.1-1.1l10.4-0.2l10.7,0.6l10.9,1.5l11.1,2.4l11.3,3.3l11.2,4.1l11.7,5.1l11.5,5.9l11.5,6.7l11.4,7.5l14.9,11l11.2,6.9
			l9.3,6.4l9.2,6.9l9.1,7.4l8.8,7.9l8.6,8.4l8.4,8.8l8.1,9.2l7.7,9.6l7.4,10l7.1,10.2l6.7,10.5l6.3,10.7l5.9,10.9l5.4,11l5.1,11.2
			l4.4,10.9l4.1,11l3.6,11l3,10.8l2.5,10.7l2,10.5l1.4,10.2l0.8,9.9l0.2,9.5l-0.2,5.3l1.4,11.7l0.9,12.4l0.2,12.1l-0.5,11.6
			l-1.2,11.1l-1.8,10.5l-2.6,9.9l-3.2,9.2l-3.9,8.5l-4.5,7.8l-4.3,5.9 M611.6,414.6l2.4-1.5 M753.9,794.4l-2.5-13.9l-3-13.4
			l-3.9-14.4l-4-13l-4.8-13.6l-5.5-13.9l-6.1-13.8l-6.6-13.7l-7.1-13.5l-7.7-13.3l-8.2-13l-8.8-12.7l-9.2-12.4L667,608l-10-11.5
			l-10.4-11L636,575l-10.9-9.9l-11.1-9.4l-6.9-5.3 M675.5,758.7l-7.6-20.4l-8.3-19.5l-9.4-19.2l-10.4-18.8l-11.3-18.3L616.4,645
			l-10.9-14.1 M601.8,420.3l9.8-5.4l7.4-3.3l9.2-3.1l9.6-2.3l9.5-1.4l10.8-0.7l10.6,0.3l10.8,1.1l11.1,2l11.2,2.9l11.4,3.8l11.4,4.7
			l11.5,5.6l11.5,6.4l11.5,7.1l11.4,7.9l11.3,8.6l11.1,9.2l10.9,9.8l10.7,10.4l10.5,10.9l10.1,11.4l9.7,11.8l9.4,12.3l8.9,12.6
			l8.5,12.9l7.9,13.2l7.3,13.4l6.8,13.6l6.2,13.7l5.6,13.8l5,13.8l4.4,13.7l3.8,13.6l3.1,13.5l2.5,13.2l1.8,13l1.2,12.6l0.5,12.2
			l-0.2,11.8l-0.8,11.3l-1.5,10.8l-2.2,10.1l-2.9,9.5l-3.6,8.8l-4.2,8.1l-4.9,7.4l-5.5,6.7l-6,5.9l-6.5,5.2l-7,4.4 M728.9,482.4
			l13.3,11l10.8,9.9l11.1,10.9l9.9,10.6l10,11.5l9.7,12l9.3,12.4l12.2,17.9l5.1,7.9l8,13.3l7.4,13.5l6.9,13.6l6.3,13.7l5.7,13.7
			l5,13.7l4.4,13.6l3.7,13.5l3,13.3l2.9,17.9v-7.4l-0.5-9.8L872,699l-1.6-10.4l-2.1-10.6l-2.6-10.8l-3.1-10.9l-3.6-11l-4.1-11
			l-4.6-11l-5.1-11l-5.6-10.8l-6.1-10.8l-6.5-10.5l-6.9-10.3l-7.3-10.1l-7.7-9.8l-8-9.5l-8.2-9.1l-8.5-8.8l-8.7-8.3l-8.9-7.9
			l-9.1-7.4l-9.2-6.8l-9.3-6.3L728.9,482.4l-8.9-6.7l-11.4-7.8l-11.4-6.9l-4.5-2.4l-7.1-3.8l-11.5-5.4l-11.5-4.6l-11.4-3.8l-11.2-3
			l-11.2-2.2l-10.9-1.4l-10.7-0.5l-10.4,0.3l-10,1.2l-4.4,0.9 M546.7,451.3l8.6-4.2l9.1-3.3l9.5-2.4l9.9-1.6l10.3-0.8l10.6,0.1
			l10.8,0.9l11.1,1.8l11.2,2.6l11.3,3.4l11.5,4.2l11.5,5.1l11.5,5.8l11.5,6.7l11.4,7.4l11.3,8.2l11.1,8.9l10.9,9.6l10.8,10.2
			l10.5,10.8L771,536l9.8,11.8l9.5,12.2l9.1,12.6l8.7,12.9l8.2,13.2L824,612l7.1,13.5l6.6,13.6l5.9,13.7l5.3,13.7l4.6,13.6l4,13.6
			l3.3,13.4l2.6,13.2l2,13l1.3,12.7l0.7,12.4v12l-0.7,11.5l-1.3,11.1l-2,10.5l-2.6,9.9l-3.2,9.3l-3.8,8.6l-5,8.7l-5.8,7.7l-6.5,6.7
			l-7.3,5.7l-7.9,4.6 M523.1,470.3l9.9-1.7l10.3-0.8l10.5,0.2l10.8,1.1l11.1,2l11.2,2.8l13.3,4.4l9.5,3.7l11.5,5.3l11.7,6.1
			l11.4,6.7l11.5,7.5l11.4,8.2l4.8,2.6l9.3,5.9l9.2,6.5l9.1,7.1l8.9,7.7l8.7,8.2l8.5,8.6l8.3,9l8,9.4l7.7,9.8l7.4,10l7.1,10.3
			l6.7,10.5l6.3,10.7l5.9,10.8l5.4,10.9l4.9,10.9l4.4,11l3.8,10.9l3.3,10.9l2.8,10.7l2.2,10.6l1.7,10.4l1.2,10.1l0.6,9.8l0.1,8.1
			l1.1,6.8l1.3,12.6l0.6,12.2l-0.2,11.8l-0.8,11.4l-1.5,10.9l-2.1,10.3l-2.8,9.8l-3.4,9.1l-3.9,8.5l-4.6,7.9l-2.6,3.6 M484.1,488
			l8.3-4.8l8.8-3.9l9.2-3l9.6-2.1l5.8-0.7l4.2-0.5l10.5-0.2l10.6,0.7l10.9,1.6l11.2,2.4l11.3,3.3l11.4,4.1l11.5,4.9l11.5,5.7
			l11.6,6.4l11.5,7.1l11.4,7.8l11.3,8.5l11.1,9.2l10.8,9.8l10.6,10.5l10.2,11l9.9,11.5l9.5,12l9.2,12.4l8.7,12.8l8.3,13.1l7.8,13.4
			l7.3,13.5l6.8,13.7l6.2,13.8l5.6,13.8l5,13.8l4.4,13.7l3.8,13.5l3,13.3l2.3,13.1L807,776l0.9,12.4l0.2,12l-0.5,11.6l-1.2,11.1
			l-1.9,10.7l-2.4,9.9l-3.1,9.4l-3.7,8.9l-4.3,8.2l-4.9,7.5l-5.4,6.7l-5.9,6l-6.5,5.1l-5.7,3.6 M480.4,933l0.8-9 M463.5,505.6
			l6.2-1.4l10-1.2l10.4-0.4l10.6,0.5l10.9,1.4l11.1,2.3l11.2,3.2l11.4,4.1l11.5,5l11.5,5.8l11.5,6.6l11.5,7.4l15.8,11.4l10.8,6.4
			l9.3,6.2l9.2,6.8l9,7.3l8.9,7.8l8.6,8.3l8.4,8.8l8.1,9.2l7.8,9.6l7.5,9.9l7.1,10.2l6.8,10.5l6.4,10.7l6,10.8l5.6,10.9l4.7,10.3
			l5,11.8l4.1,11l3.7,10.9l3.1,10.8l2.6,10.6l2,10.5l1.4,10.2l0.8,9.9l0.3,9.6l-0.3,4.7l1.6,12.1l1,12.5l0.3,12.1l-0.4,11.6
			l-1.1,11.1l-1.8,10.5l-2.5,9.9l-3.2,9.3l-3.8,8.6l-4.5,8l-5,7.3 M447.9,512.3l68.2,39.4l15.2,9.4l15.3,11l14.7,12.1l14.5,13.5
			l14.1,14.7l15.6,18.4l4.8,4.9l10.2,11.4l9.7,12l9.2,12.5l8.6,12.9l7.9,13.3l7.3,13.5l6.5,13.7l5.8,13.8l5.1,13.8l4.4,13.7
			l3.5,13.5l2.7,13.2l1.9,12.9l1.1,12.4l0.1,13.2l1.2,10.4l0.9,13.1l0.2,12.7l-0.6,12.2l-1.3,11.6l-2.4,12.4v-48.5l-0.5-15.4
			l-1.5-15.8l-2.4-16.2l-3.4-16.5l-4.3-16.7l-4.8-16.1l5,13.6l4.5,14.3l3.7,14.2l3,14l2.7,16.8 M704,932.2l6.9-4.6l6.4-5.4l5.9-6.2
			l5.3-6.9l4.7-7.4l4.3-8.5l3.5-8.9l2.9-9.6l2.2-10.2l1.5-10.8l0.8-11.4l0.1-11.8l-0.6-12.3l-1.4-12.7l-2-13l-2.7-13.3l-3.3-13.5
			l-3.9-13.7l-4.5-13.8l-5.2-13.8l-5.7-13.8l-6.3-13.7l-6.8-13.6l-7.4-13.4l-7.9-13.2L682,644l-8.9-12.5l-9.4-12.2l-9.8-11.7
			l-10.2-11.3l-10.5-10.8l-13.6-12.7l-8.1-7.1l-11.2-9.1l-11.4-8.4l-11.5-7.7l-11.5-7l-11.5-6.2l-11.5-5.5l-11.4-4.6l-11.3-3.8
			l-11.2-2.9l-11-1.9l-10.8-1l-10.5-0.1l-10.2,0.8l-9.8,1.7l-8.9,2.3l-1.8-1.1 M362,785.7v-78.1 M692.4,1047l-1.3-35l-3.9-36.3
			l-6.4-37.3l-8.9-37.9l-11.4-38.3l-13.7-38.4l-16-38.2L612.7,748L592.5,711l-21.9-35.9L547,640.7l-25.1-32.9l-26.4-31.1l-3.6-3.8
			l-23.9-25.2l-28.3-26.7l-29.1-24.2l-29.5-21.5l-29.7-18.6 M340,693.6l3.5,1.8l12,7.6l12,8.7l11.8,9.8l11.5,10.8l11.1,11.8
			l10.8,12.7l10.1,13.2l9.5,14l8.9,14.5l8.1,15l7.3,15.3l6.5,15.5l5.6,15.5l4.6,15.5l3.6,15.3l0.6,3.9l2,11.2l1.6,14.7l0.5,14.2
			l-0.5,13.6l-1.6,12.9l-2.6,12.1l-3.6,11.2l-4.6,10.2l-5.5,9.1l-3.8-1.9l-4.2-1.5l-4.5-1.1l-4.9-0.8l-11-0.6l-12.9,0.6l-15,1.9
			l-17.6,3.2l-20.8,4.6l-24.8,6.4 M223.9,865.5l-5.6-15.6l-4.6-15.5l-1-4.3l-2.6-11.1l-2.6-15.1l-1.5-14.7l-0.5-14.2l0.5-13.6
			l1.5-12.9l2.6-12.1l3.6-11.2l4.6-10.2l5.6-9.1l1.7-2.1l4.7-5.9l7.3-6.8l8.2-5.5l8.9-4.3l9.5-3l10.1-1.6l10.7-0.3l11.1,1.1
			l11.5,2.4l11.8,3.8l12,5.1l8.5,4.6l-4.5-1.7l-4.5-1.1l-4.9-0.8l-11-0.6l-12.9,0.6l-15,1.8l-17.6,3.2l-20.8,4.6l-24.8,6.4l4.6,8.6
			l3.8,8.5l3.2,8.4l2.6,8.5l1.9,8.5l1.4,8.7l0.8,8.9l0.3,9.1l-0.3,9.4l-0.8,9.9l-1.4,10.1l-1.9,10.8l-2.6,11.4l-3.2,12.1l-3.8,12.9
			L223.9,865.5l13,7.8l11.9,7.7l10.9,7.7l10,7.8l9.1,7.9l8.5,8l7.8,8.2l7.2,8.5l6.7,8.8l6.2,9.1l5.7,9.6l5.3,10.1l4.9,10.7l4.5,11.4
			l4.2,12.2l3.8,13.1l136.6-78.9l-0.9,7.3l-2,10.8l-2.5,11.4l-3.2,12.1l-3.8,12.9l-4.6,13.8l-6.5,8l-7.3,6.8l-8.1,5.6l-8.9,4.2
			l-9.5,3l-10.1,1.6l-10.7,0.2l-11.1-1.1l-11.5-2.4l-3.5-1.1l-8.2-2.7l-12-5.1l-12-6.3l-3.5-2.2l-8.5-5.3l-12-8.7l-11.8-9.8
			l-10.6-10l-12-12.5l-10.7-12.6l-10.1-13.3l-9.5-14l-8.9-14.5l-8.2-14.9l-7.3-15.3L223.9,865.5L362,785.7L480.4,933l-0.3,2.4
			 M102.5,437.4l21.9-10.5l23.6-7.3l25.1-4l26.4-0.6l4.7,0.5l22.7,2.3l28.3,6.1l29.1,9.3l29.5,12.6l29.7,15.6l29.8,18.7l29.4,21.5
			l8.5,7.1l20.5,17.1l28.3,26.7l27.5,29l26.4,31.1l25.1,32.9l23.6,34.5l22,36l20,36.8l18.1,37.7l16,38.2l13.8,38.4l11.4,38.3
			l8.9,37.9l6.4,37.3l3.9,36.3l1.3,35.1l-1.3,33.6l-3.9,31.7l-6.4,29.8l-8.9,27.6l-11.4,25.1l-13.8,22.5l-16,19.7l-18.1,16.8
			l-20.1,13.7 M694.1,896.4l-0.3,39.3l1.5,1.1l-1.5,1.4l-1.3,124.8V857.2L694.1,896.4z M920,803.6l-5.2,0.2l0.5-1.8L920,803.6z
			 M646,401.6l-3.5-0.8l2.5-1.4L646,401.6z M945.3,228.1l-3.5-0.8l2.4-1.4L945.3,228.1z M1008.3,193.1l-6.7-0.3l2.1-1.3
			L1008.3,193.1z M1187.2,128.6l5.2,0.3l0.3,1.5L1187.2,128.6z"/>
	</g>
</g>
</svg>
