<?xml version="1.0" encoding="UTF-8" standalone="no"?>
<svg
   width="2000.000mm"
   height="2000.000mm"
   viewBox="0.000000 0.000000 2000.000000 2000.000000"
   stroke-linejoin="round"
   stroke-linecap="round"
   fill="none"
   fill-rule="evenodd"
   version="1.1"
   id="svg488"
   sodipodi:docname="m3_gs.svg"
   inkscape:version="1.2.2 (732a01da63, 2022-12-09)"
   xmlns:inkscape="http://www.inkscape.org/namespaces/inkscape"
   xmlns:sodipodi="http://sodipodi.sourceforge.net/DTD/sodipodi-0.dtd"
   xmlns="http://www.w3.org/2000/svg"
   xmlns:svg="http://www.w3.org/2000/svg">
  <sodipodi:namedview
     id="namedview490"
     pagecolor="#ffffff"
     bordercolor="#000000"
     borderopacity="0.25"
     inkscape:showpageshadow="2"
     inkscape:pageopacity="0.0"
     inkscape:pagecheckerboard="0"
     inkscape:deskcolor="#d1d1d1"
     inkscape:document-units="mm"
     showgrid="false"
     inkscape:zoom="0.111125"
     inkscape:cx="3568.054"
     inkscape:cy="3779.5276"
     inkscape:window-width="1920"
     inkscape:window-height="1017"
     inkscape:window-x="1912"
     inkscape:window-y="-8"
     inkscape:window-maximized="1"
     inkscape:current-layer="g472" />
  <desc
     id="desc312">Composer Export</desc>
  <script
     type="text/ecmascript"
     id="script314"><![CDATA[
if(typeof(top) != "undefined")
{
	top.ShowPaper = ShowPaper;
}
function ShowHotSpot(evt,hotspotid)
{
	var svgDocument = evt.target.ownerDocument;
	var strId = "hotspot."+hotspotid;
	var hotspot = svgDocument.getElementById(strId);
	if(hotspot)
		hotspot.setAttribute("opacity",".5");
}
function HideHotSpot(evt,hotspotid)
{
	var svgDocument = evt.target.ownerDocument;
	var strId = "hotspot."+hotspotid;
	var hotspot = svgDocument.getElementById(strId);
	if(hotspot)
		hotspot.setAttribute("opacity","0");

	var toolTip = svgDocument.getElementById('ToolTip');
	if(toolTip)
		toolTip.setAttribute("visibility","hidden");
}
function ShowToolTip(evt,hotspotid,strTooltip)
{
	if(strTooltip=="")
	return;

	// change text
	var svgDocument = evt.target.ownerDocument;
	var tiptext = svgDocument.getElementById('ToolTipText');
	if( !tiptext )
	return;
	tiptext.firstChild.nodeValue = " " + strTooltip + "  " ;

	// show tooltip before, else some refresh issue

	var toolTip = svgDocument.getElementById('ToolTip');
	if(!toolTip)
	return;

	toolTip.setAttribute("visibility","visible");
	toolTip.setAttribute("opacity",".95");

	// move tooltip
	// get viewbox

	var root = svgDocument.documentElement;
	var vbox = (root.getAttribute("viewBox")).split(' ');
	var x0 = parseFloat(vbox[0]);
	var y0 = parseFloat(vbox[1]);
	var vboxW = parseFloat(vbox[2]);
	var vboxH = parseFloat(vbox[3]);

	// get default width of svg

	var strW = root.getAttribute("width");
	var svgW = parseFloat(strW);
	if(strW.indexOf('mm') != -1)
	svgW *= 3.779;

	var strH = root.getAttribute("height");
	var svgH = parseFloat(strH);
	if(strH.indexOf('mm') != -1)
	svgH *= 3.779;  	// 96 dpi  -> 96/25.4 = 3.779

	// update the viewbox / width / height if svg is embedded in html with zoom fit all
	var realx0 = x0;
	var realy0 = y0;
	var realvboxW = vboxW;
	var realvboxH = vboxH;
	var realsvgW = svgW;
	var realsvgH = svgH;

	if ((typeof(top) == "undefined") || (typeof(top.svgctl1) != "undefined")) // embedded in html
	{
		// get window size in pxl

		svgW = window.innerWidth;
		svgH = window.innerHeight;

		// calculate real viewbox

		realsvgW = svgW;
		realsvgH = svgH;
		if((svgW / svgH) > (vboxW / vboxH))
		{
			realvboxW = (vboxH * svgW) / svgH;
			realvboxH = vboxH;
			realx0 = x0 - (realvboxW - vboxW)/2 ;
		}
		else
		{
			realvboxH = (vboxW * svgH) / svgW;
			realvboxW = vboxW;
			realy0 = y0 - (realvboxH - vboxH)/2 ;
		}
	}

	// get user zoom/pan

	var newScale = root.currentScale;
	var translation = root.currentTranslate;

	// transform pxl to user unit

	var xPos = (((evt.clientX+10- translation.x)/newScale) * realvboxW)/realsvgW  + realx0 ;
	var yPos = (((evt.clientY+5- translation.y)/newScale) * realvboxH)/ realsvgH  + realy0 ;
	var scaleForWidth = ( (1 / newScale) * realvboxH) / realsvgH;

	// move tooltip

	toolTip.setAttribute("transform", "translate(" + xPos + "," + yPos + ")" );

	// resize tooltip

	var fontsize = 12;
	tiptext.setAttribute("font-size",fontsize*scaleForWidth);
	tiptext.setAttribute("y", fontsize*scaleForWidth);
	var tipBG = svgDocument.getElementById('ToolTipBG');
	var outline = tiptext.getBBox();
	if(tipBG)
	{
		tipBG.setAttribute("stroke-width", 1*scaleForWidth);
		tipBG.setAttribute("width", Number(outline.width) );
		tipBG.setAttribute("height", Number(outline.height) + fontsize*.5*scaleForWidth );
	}
	var ToolTipShadow = svgDocument.getElementById('ToolTipShadow');
	if(ToolTipShadow)
	{
		ToolTipShadow.setAttribute("width", Number(outline.width) );
		ToolTipShadow.setAttribute("height", Number(outline.height) + fontsize*.5*scaleForWidth );
		ToolTipShadow.setAttribute("x", 3*scaleForWidth);
		ToolTipShadow.setAttribute("y", 3*scaleForWidth);
	}
}
function ShowPaper()
{
  var svgDocument = getDocument();
  var paper = svgDocument.getElementById("paperID");
  if(paper)
  {
    paper.setAttribute("transform","scale(1)");
    paper.setAttribute("opacity","1");
    paper.setAttribute("visibility","visible");
  }
  var svg = svgDocument.getRootElement();
  if(svg)
  {
    svg.setAttribute("width","2010.000mm");
    svg.setAttribute("height","2010.000mm");
    svg.setAttribute("viewBox","-5.000000 -5.000000 2010.000000 2010.000000");
  }
}
]]></script>
  <defs
     id="defs316" />
  <g
     id="g486"
     style="display:inline">
    <g
       id="g677" />
    <path
       id="path320"
       style="display:inline;fill:#686868"
       d="M 1290.8401 429.00999 L 1270.3798 429.48024 L 1262.3798 430.35978 L 1248.1502 433.05005 L 1236.2698 436.49015 L 1218.5101 444.52015 L 1205.7801 452.24991 L 1196.8701 458.47021 L 1188.7698 466.3798 L 1182.38 473.12978 L 1180.5698 474.00983 L 1177.2801 474.46975 L 1161.2898 479.81981 L 1144.3798 487.81984 L 1118.0801 503.33982 L 1102.5699 515.40988 L 1093.3198 525.00981 L 1090.7401 526.53995 L 1083.8899 527.85977 L 1067.8702 533.20001 L 1054.5201 539.41979 L 1029.0002 553.93001 L 1012.7201 566.11997 L 1002.8602 575.83979 L 999.97979 577.59007 L 994.90981 578.59983 L 975.61022 585.0599 L 952.52015 597.55009 L 936.23019 607.94997 L 926.33984 615.86008 L 920.55001 620.73989 L 913.40988 628.7301 L 902.40022 631.95006 L 881.93015 639.95009 L 857.93006 653.30999 L 842.7899 663.07994 L 835.06996 669.59996 L 829.37005 674.57019 L 823.87994 680.62977 L 816.10006 682.66014 L 794.74994 689.78012 L 783.47983 695.40975 L 759.18984 709.37014 L 744.93024 720.02013 L 732.78008 731.89021 L 724.46999 734.26009 L 703.11987 742.26012 L 682.66996 753.85011 L 668.45015 762.74983 L 655.96978 772.50995 L 644.90017 783.8798 L 643.28993 785.43991 L 632.83993 787.63978 L 615.94018 793.86007 L 591.00992 807.19001 L 574.12 817.87979 L 558.99999 830.34001 L 554.19976 835.49991 L 551.62008 837.02023 L 541.20986 839.24025 L 524.29978 845.46002 L 507.40986 854.37007 L 486.95994 866.84011 L 472.69983 878.37998 L 464.00992 887.4802 L 458.47021 889.05994 L 438.29004 896.46001 L 422.8698 904.17013 L 398 919.32993 L 384.62975 929.97993 L 375.38019 939.57986 L 372.79998 941.11 L 369.50975 941.5601 L 354.63985 946.25025 L 338.36023 953.09996 L 317.92013 964.68995 L 314.96992 966.87018 L 313.14006 967.73008 L 307.22001 970.89009 L 292.12997 979.81978 L 279.65011 989.59024 L 271.56017 997.51017 L 262.68009 1008.2 L 251.57017 1024.6599 L 241.66018 1044.1202 L 233.44983 1068.82 L 230.61021 1080.9201 L 228.82996 1088.8901 L 227.05022 1099.5701 L 225.27979 1114.7599 L 224.38992 1127.1999 L 223.98995 1136.0402 L 223.55018 1152.9498 L 224.38992 1162.7301 L 224.87981 1171.6902 L 225.27979 1176.06 L 225.32992 1180.5398 L 226.17017 1185.8599 L 226.63009 1190.3702 L 227.06986 1193 L 227.54993 1196.59 L 227.92976 1200.1402 L 228.45996 1202.7798 L 228.82014 1206.3698 L 229.34001 1208.9898 L 229.71983 1211.7198 L 230.22006 1214.3099 L 230.61021 1216.1898 L 231.10992 1218.7799 L 231.50008 1221.5099 L 231.99979 1224.0901 L 232.38995 1225.9799 L 232.9 1228.5901 L 234.1702 1233.92 L 234.66991 1236.6 L 235.45023 1240.4602 L 240.75998 1261.8398 L 251.43995 1296.54 L 266.56978 1335.6699 L 280.79991 1366.8101 L 295.96023 1395.2502 L 317.29019 1430.8599 L 334.30983 1455.6502 L 349.39986 1476.1399 L 362.66985 1492.2298 L 374.24021 1505.5799 L 381.43977 1513.4999 L 385.86999 1518.8499 L 396.55977 1529.5103 L 410.78991 1542.8598 L 420.58001 1551.7502 L 433.9301 1563.3097 L 462.38986 1584.68 L 486.43026 1599.7799 L 505.01982 1609.6599 L 524.60002 1618.5498 L 544.13009 1625.7101 L 564.03999 1630.8999 L 568.53016 1631.8001 L 579.18997 1633.5701 L 586.24019 1634.4801 L 596.92015 1635.3601 L 611.21024 1635.3601 L 622.77026 1634.5002 L 630.78992 1633.1902 L 650.63987 1628.36 L 664.84986 1622.1098 L 673.66017 1617.57 L 687.9301 1607.8202 L 698.58992 1598.0198 L 703.05993 1593.5901 L 713.84997 1591.03 L 728.91003 1584.7498 L 753.31009 1570.8902 L 764.84996 1561.96 L 772.87996 1554.87 L 781.42 1544.7698 L 783.70979 1544.1802 L 790.02981 1543.3399 L 806.33011 1539.4001 L 821.71987 1532.5499 L 841.81012 1520.6002 L 852.94019 1512.1702 L 860.86993 1504.9702 L 871.86978 1491.6898 L 874.50011 1491.2899 L 882.54975 1489.9602 L 895.31021 1486.9201 L 909.8101 1480.9602 L 930.35975 1469.4798 L 941.45003 1461.8901 L 948.57983 1455.6698 L 958.73011 1445.3598 L 962.03017 1440.65 L 968.79978 1439.23 L 980.94012 1436.44 L 997.60009 1429.9701 L 1025.5498 1413.43 L 1036.6499 1404.0802 L 1047.6901 1392.87 L 1050.8899 1389.0098 L 1059.5798 1387.66 L 1077.9399 1383.0903 L 1092.6801 1376.4798 L 1115.4001 1362.7199 L 1126.5101 1353.3701 L 1133.9902 1345.7199 L 1141.6099 1336.4698 L 1142.3298 1336.0802 L 1152.14 1334.27 L 1164.8798 1331.2402 L 1182.92 1323.4799 L 1206.16 1309.3501 L 1214.1202 1303.0802 L 1222.1502 1295.9901 L 1231.2799 1285.29 L 1233.92 1284.8999 L 1236.6299 1284.4498 L 1252.97 1280.5497 L 1268.9401 1273.39 L 1291.5501 1260.4099 L 1303.9902 1250.61 L 1315.4799 1238.9699 L 1319.6202 1233.4002 L 1321.0201 1232.78 L 1329.7101 1231.8602 L 1341.9098 1228.9302 L 1355.4899 1223.8199 L 1360.95 1221.2702 L 1382.3099 1208.8301 L 1392.5098 1201.23 L 1398.2501 1196.3001 L 1409.7801 1182.92 L 1411.1702 1180.76 L 1427.5501 1177.5602 L 1441.5399 1172.87 L 1461.8798 1162.0702 L 1477.0101 1152.3002 L 1487.2601 1143.8599 L 1500.1601 1130.1202 L 1510.9398 1128.3999 L 1528.7299 1123.0498 L 1545.8901 1114.4198 L 1565.5603 1102.0599 L 1570.5098 1098.1102 L 1583.8702 1091.8998 L 1594.4401 1085.5699 L 1605.58 1077.1301 L 1616.7101 1066.9101 L 1621.6002 1061.1202 L 1633.97 1044.1399 L 1643.7498 1026.3399 L 1652.6201 1003.1801 L 1657.5898 983.93994 L 1660.2801 970.58003 L 1662.05 957.28007 L 1662.9398 948.39017 L 1663.8302 936.81982 L 1664.3201 919.86013 L 1664.3201 888.77986 L 1664.1899 750.26997 L 1663.8302 749.93975 L 1663.4302 744.65997 L 1663.3098 740.47005 L 1662.9502 740.15017 L 1662.56 736.60982 L 1662.4401 734.26991 L 1662.0298 733.97019 L 1661.6701 730.38022 L 1661.5399 728.05013 L 1661.1301 727.74989 L 1659.8697 721.50997 L 1659.7902 719.16024 L 1659.3799 718.88015 L 1658.9902 717.00016 L 1658.8998 714.69023 L 1658.4998 714.36983 L 1653.5099 696.02987 L 1644.6598 671.96984 L 1633.9799 648.83998 L 1617.06 620.38022 L 1603.7801 602.53015 L 1594.8799 591.85018 L 1587.7899 583.83 L 1570.8002 567.00983 L 1556.5701 555.44 L 1540.57 544.75021 L 1393.7702 460.24012 L 1383.9801 454.91022 L 1357.2598 443.36984 L 1333.27 435.33984 L 1319.3298 432.56016 L 1309.5702 430.77009 L 1303.3401 429.86007 L 1290.8401 429.00999 z " />
  </g>
  <g
     id="Actor_.0"
     style="display:inline;stroke-width:2.3;stroke-dasharray:none">
    <g
       style="stroke:#000020;stroke-width:2.3;stroke-dasharray:none"
       id="g472">
      <path
         id="path470"
         style="display:inline;stroke-width:8;stroke-dasharray:none"
         d="m 1203.34,453.96 0.49,-0.05 m -0.23,-0.15 0.23,0.15 m 107.03,141.59 -0.28,-0.22 m -269.41,-47.92 7.52,-4.4 -4.82,2.79 m -362.22,209.16 7.49,-4.35 -1.17,0.69 m -96.21,56.12 7.49,-4.39 -2.45,1.4 M 436.06,1565 l -1.6,-1.41 1.97,1.74 m -16.66,-105.64 190.4,-109.93 m -299.22,-81.09 187.16,-108.06 m -183.5,114.48 -3.66,-6.42 41.73,-148.81 150.55,42.19 108.82,191.01 -41.73,148.82 -150.55,-42.19 -105.16,-184.6 m 122.41,290.45 4.93,3.5 m -4.93,-3.5 -0.59,-0.21 M 1408.24,468.95 c 66.66,38.34 66.66,38.34 133.25,76.79 5.22,3.32 5.21,3.34 10.36,6.76 5.16,3.81 5.17,3.81 10.28,7.7 5.35,4.51 5.35,4.52 10.65,9.09 4.69,4.41 4.7,4.41 9.34,8.88 4.81,5.05 4.83,5.05 9.58,10.16 5.69,6.74 5.67,6.76 11.3,13.55 3.38,4.35 3.38,4.36 6.71,8.74 3.87,5.54 3.87,5.54 7.69,11.1 4.21,6.66 4.22,6.66 8.38,13.35 3.62,6.4 3.62,6.4 7.18,12.84 3.29,6.52 3.29,6.52 6.51,13.07 2.95,6.63 2.95,6.63 5.83,13.29 2.58,6.68 2.59,6.68 5.1,13.39 2.21,6.69 2.21,6.69 4.34,13.4 1.81,6.65 1.81,6.65 3.55,13.32 1.4,6.56 1.4,6.56 2.72,13.14 0.98,6.44 0.99,6.44 1.89,12.89 0.56,6.26 0.56,6.26 1.04,12.53 0.12,5.55 0.1,5.55 0.17,11.1 -0.03,74.91 -0.03,75.14 -0.1,149.82 M 1397.08,541.19 c 3.46,1.91 3.46,1.91 6.9,3.86 5.53,3.39 5.54,3.39 11.04,6.82 5.49,3.66 5.49,3.66 10.96,7.37 5.44,3.95 5.44,3.95 10.85,7.93 5.37,4.22 5.37,4.22 10.71,8.47 5.3,4.48 5.31,4.47 10.57,9 7.86,7.27 7.87,7.27 15.67,14.61 7.48,7.54 7.49,7.54 14.9,15.14 6.66,7.38 6.66,7.39 13.25,14.82 7.66,9.21 7.66,9.22 15.26,18.48 4.5,5.85 4.49,5.86 8.95,11.74 4.34,5.99 4.34,5.99 8.65,12.01 4.17,6.11 4.19,6.1 8.32,12.24 6.42,10.2 6.43,10.2 12.78,20.44 5.05,8.69 5.04,8.7 10.03,17.42 3.59,6.73 3.58,6.74 7.12,13.49 3.07,6.18 3.07,6.18 6.1,12.38 3,6.5 3,6.5 5.97,13.03 2.77,6.51 2.77,6.51 5.5,13.04 2.47,6.36 2.47,6.36 4.9,12.73 2.34,6.65 2.34,6.65 4.64,13.31 M 1310.86,595.5 c 3.56,2.06 3.56,2.06 7.1,4.15 5.55,3.56 5.56,3.56 11.09,7.15 5.51,3.8 5.51,3.8 11,7.65 5.47,4.06 5.47,4.06 10.9,8.15 5.4,4.3 5.4,4.3 10.77,8.64 5.33,4.53 5.33,4.53 10.62,9.1 5.23,4.75 5.23,4.75 10.43,9.53 5.13,4.96 5.13,4.96 10.22,9.96 5.01,5.17 5.01,5.17 9.99,10.37 4.88,5.36 4.88,5.36 9.72,10.76 4.74,5.54 4.74,5.54 9.44,11.12 4.58,5.72 4.58,5.72 9.12,11.47 4.42,5.88 4.42,5.88 8.8,11.79 4.24,6.03 4.24,6.03 8.45,12.07 4.07,6.15 4.07,6.15 8.11,12.32 3.89,6.26 3.89,6.26 7.74,12.54 3.7,6.35 3.7,6.35 7.37,12.72 3.5,6.41 3.51,6.42 6.98,12.85 3.3,6.48 3.3,6.48 6.57,12.98 3.11,6.51 3.11,6.52 6.17,13.05 2.89,6.54 2.89,6.54 5.74,13.09 2.68,6.55 2.69,6.54 5.31,13.11 4.29,11.92 4.29,11.92 8.5,23.86 2.38,7.57 2.37,7.58 4.68,15.17 1.74,6.39 1.74,6.39 3.44,12.8 1.49,6.31 1.49,6.31 2.94,12.64 1.24,6.22 1.24,6.22 2.43,12.45 0.98,6.1 0.98,6.1 1.91,12.21 0.71,5.97 0.71,5.97 1.38,11.95 0.44,5.83 0.44,5.83 0.83,11.66 0.16,5.66 0.16,5.66 0.28,11.33 -0.1,4.99 -0.1,5 -0.25,9.99 m -75.45,202.58 c 6.98,-4.01 6.98,-4.01 13.94,-8.05 3.46,-2.17 3.47,-2.17 6.9,-4.38 3.31,-2.41 3.32,-2.41 6.59,-4.88 3.15,-2.67 3.15,-2.67 6.25,-5.39 2.74,-2.69 2.74,-2.7 5.44,-5.43 3.02,-3.41 3.03,-3.4 6,-6.85 2.61,-3.42 2.61,-3.42 5.16,-6.88 2.41,-3.66 2.41,-3.66 4.77,-7.36 2.21,-3.9 2.21,-3.9 4.37,-7.83 2,-4.15 2,-4.15 3.94,-8.32 1.78,-4.37 1.78,-4.37 3.51,-8.77 1.56,-4.61 1.56,-4.61 3.06,-9.24 1.34,-4.82 1.34,-4.82 2.62,-9.67 1.1,-4.99 1.09,-4.99 2.15,-9.99 0.64,-3.74 0.63,-3.74 1.24,-7.49 0.91,-6.96 0.93,-6.95 1.79,-13.91 0.46,-5.6 0.45,-5.6 0.85,-11.19 0.23,-5.75 0.23,-5.75 0.42,-11.51 0.01,-5.9 0.01,-5.9 -0.02,-11.81 -0.2,-6.04 -0.21,-6.04 -0.45,-12.08 -0.42,-6.16 -0.42,-6.16 -0.88,-12.32 -0.63,-6.28 -0.63,-6.28 -1.3,-12.56 -0.79,-6 -0.79,-6 -1.62,-12 -1.11,-6.86 -1.11,-6.86 -2.25,-13.71 -1.26,-6.56 -1.27,-6.56 -2.57,-13.11 -1.47,-6.62 -1.45,-6.63 -2.98,-13.24 -3.56,-13.41 -3.53,-13.42 -7.2,-26.8 -4.35,-13.55 -4.35,-13.56 -8.84,-27.06 -5.16,-13.6 -5.2,-13.59 -10.46,-27.14 -2.88,-6.79 -2.9,-6.78 -5.83,-13.55 -3.1,-6.75 -3.1,-6.75 -6.23,-13.49 -3.29,-6.72 -3.29,-6.72 -6.62,-13.42 -3.49,-6.67 -3.49,-6.67 -7.01,-13.33 -3.68,-6.61 -3.66,-6.62 -7.39,-13.21 -7.88,-13.01 -7.89,-13.02 -15.83,-25.99 -4.18,-6.4 -4.18,-6.4 -8.42,-12.76 -8.83,-12.46 -8.81,-12.48 -17.73,-24.89 -9.35,-12.02 -9.35,-12.03 -18.82,-23.96 -9.84,-11.49 -9.87,-11.46 -19.78,-22.88 -5.08,-5.51 -5.08,-5.52 -10.21,-10.98 -10.45,-10.5 -10.45,-10.5 -20.96,-20.95 -5.33,-4.99 -5.35,-4.98 -10.72,-9.93 -5.41,-4.79 -5.41,-4.8 -10.86,-9.55 -8.15,-6.7 -8.15,-6.7 -16.35,-13.35 m -91.45,50.07 c 6.37,3.86 6.37,3.86 12.71,7.77 5.51,3.68 5.5,3.68 10.98,7.41 5.47,3.95 5.47,3.95 10.91,7.94 5.42,4.21 5.42,4.21 10.81,8.46 5.35,4.46 5.35,4.46 10.67,8.96 5.28,4.69 5.28,4.69 10.53,9.41 5.19,4.9 5.19,4.9 10.35,9.84 5.09,5.11 5.09,5.11 10.15,10.25 4.98,5.3 4.98,5.3 9.93,10.63 4.85,5.48 4.85,5.48 9.68,10.98 4.72,5.64 4.72,5.64 9.42,11.3 4.57,5.79 4.57,5.79 9.12,11.6 4.42,5.92 4.42,5.93 8.8,11.87 4.25,6.04 4.25,6.05 8.47,12.11 4.07,6.15 4.07,6.15 8.1,12.33 3.89,6.27 3.89,6.27 7.74,12.56 3.66,6.3 3.66,6.3 7.27,12.61 3.46,6.39 3.46,6.39 6.87,12.8 3.23,6.45 3.23,6.45 6.42,12.91 2.99,6.48 2.99,6.48 5.95,12.98 2.77,6.49 2.77,6.5 5.49,13.01 2.53,6.51 2.53,6.51 5.02,13.03 2.3,6.49 2.3,6.49 4.55,13 2.06,6.47 2.06,6.47 4.08,12.95 1.83,6.42 1.83,6.42 3.61,12.85 1.58,6.36 1.58,6.37 3.12,12.74 1.34,6.29 1.34,6.29 2.64,12.58 1.1,6.2 1.1,6.2 2.16,12.4 0.85,6.09 0.85,6.09 1.66,12.18 0.61,5.97 0.61,5.97 1.18,11.94 0.36,5.82 0.36,5.82 0.68,11.65 0.11,5.63 0.11,5.63 0.18,11.27 M 1203.83,453.91 c 5.2,-3.35 5.2,-3.36 10.45,-6.63 5.44,-2.93 5.44,-2.95 10.92,-5.79 5.73,-2.4 5.74,-2.4 11.51,-4.7 6.01,-1.86 6.02,-1.86 12.06,-3.6 6.27,-1.3 6.28,-1.3 12.57,-2.49 6.5,-0.74 6.51,-0.74 13.03,-1.37 6.72,-0.18 6.73,-0.18 13.45,-0.25 6.91,0.39 6.92,0.39 13.83,0.89 7.08,0.95 7.09,0.93 14.16,2 8.77,1.94 8.77,1.96 17.52,4.01 5.81,1.63 5.82,1.63 11.6,3.34 7.45,2.61 7.46,2.61 14.87,5.31 7.52,3.16 7.52,3.16 15.01,6.39 7.56,3.68 7.57,3.69 15.09,7.45 7.59,4.19 7.59,4.2 15.14,8.47 7.58,4.7 7.58,4.7 15.12,9.47 7.58,5.21 7.58,5.21 15.11,10.48 7.47,5.64 7.47,5.64 14.9,11.34 7.41,6.1 7.42,6.1 14.78,12.27 7.32,6.53 7.32,6.53 14.58,13.13 7.18,6.94 7.18,6.94 14.31,13.93 5.92,6.16 5.92,6.16 11.78,12.36 7.97,8.86 7.98,8.85 15.89,17.76 6.66,8.02 6.66,8.03 13.26,16.09 6.43,8.33 6.43,8.33 12.81,16.7 6.2,8.61 6.2,8.61 12.33,17.25 5.93,8.86 5.93,8.86 11.81,17.76 5.65,9.08 5.65,9.08 11.24,18.19 5.34,9.27 5.34,9.27 10.63,18.58 5.03,9.43 5.03,9.43 10,18.89 4.7,9.56 4.71,9.56 9.33,19.15 5.26,11.88 5.24,11.89 10.43,23.79 3.07,7.5 3.07,7.5 6.09,15.02 3.6,9.75 3.6,9.75 7.14,19.53 3.21,9.75 3.21,9.76 6.35,19.53 2.82,9.72 2.82,9.73 5.56,19.47 2.41,9.65 2.4,9.66 4.74,19.33 1.25,5.99 1.22,6 2.44,11.99 0.73,3.58 0.75,3.57 1.46,7.15 1.54,9.44 1.56,9.43 3.05,18.88 1.14,9.27 1.14,9.27 2.19,18.56 0.71,9.08 0.71,9.08 1.33,18.18 0.27,8.86 0.27,8.86 0.46,17.73 -0.17,8.61 -0.17,8.61 -0.42,17.23 -0.6,8.33 -0.6,8.34 -1.29,16.67 -1.03,8.03 -1.03,8.03 -2.15,16.05 -1.46,7.7 -1.46,7.71 -3.01,15.39 -1.47,5.74 -1.47,5.75 -3.02,11.47 -2.73,8.56 -2.7,8.57 -5.54,17.1 -2.69,6.57 -2.71,6.57 -5.52,13.09 -3.11,6.14 -3.11,6.15 -6.32,12.23 -3.5,5.69 -3.5,5.7 -7.1,11.33 -3.88,5.23 -3.89,5.24 -7.86,10.4 -4.25,4.75 -4.26,4.76 -8.59,9.43 -4.61,4.25 -4.61,4.26 -9.3,8.42 -4.94,3.75 -4.95,3.75 -9.97,7.4 -5.27,3.22 -5.27,3.23 -10.6,6.34 -5.58,2.69 -5.6,2.65 -11.22,5.27 -1.1,0.41 -1.1,0.41 -2.22,0.79 m -366.2,-644.15 c 2.77,-1.54 2.78,-1.55 5.57,-3.04 2.9,-1.27 2.9,-1.27 5.82,-2.48 6.04,-2.05 6.04,-2.08 12.1,-4.03 6.33,-1.45 6.35,-1.42 12.7,-2.77 3.28,-0.49 3.28,-0.49 6.56,-0.92 6.76,-0.48 6.76,-0.47 13.52,-0.89 3.47,-0.03 3.47,-0.03 6.94,0.01 6.93,0.43 6.93,0.4 13.86,0.91 7.43,1.03 7.43,1.03 14.84,2.17 7.44,1.61 7.44,1.64 14.86,3.33 3.88,1.06 3.88,1.06 7.75,2.18 7.51,2.48 7.51,2.48 15,5.01 3.84,1.46 3.84,1.46 7.66,2.97 7.41,3.23 7.42,3.21 14.8,6.5 8.03,4.03 8.04,4.03 16.03,8.15 7.74,4.44 7.73,4.46 15.44,8.97 3.87,2.42 3.87,2.43 7.71,4.89 7.69,5.28 7.71,5.26 15.36,10.6 7.64,5.79 7.62,5.81 15.22,11.66 3.77,3.09 3.77,3.09 7.52,6.22 7.42,6.56 7.44,6.54 14.81,13.16 7.27,7.04 7.27,7.04 14.48,14.15 7.07,7.51 7.07,7.51 14.08,15.09 6.87,7.96 6.86,7.97 13.67,15.98 4.99,6.25 4.98,6.26 9.92,12.54 4.86,6.45 4.87,6.45 9.68,12.94 6.2,8.87 6.19,8.88 12.34,17.79 3.03,4.61 3.03,4.61 6.02,9.24 5.65,9.21 5.68,9.2 11.27,18.44 5.64,10.01 5.64,10.01 11.2,20.06 4.73,9.16 4.71,9.17 9.37,18.36 2.35,4.9 2.35,4.9 4.66,9.82 4.36,9.88 4.38,9.87 8.68,19.78 3.91,9.9 3.91,9.9 7.74,19.84 3.43,9.91 3.43,9.91 6.78,19.85 2.92,9.87 2.92,9.87 5.75,19.77 2.02,8.17 2.01,8.17 3.95,16.36 1.36,6.49 1.3,6.51 2.66,13 2.02,8.39 2.08,8.37 4.1,16.76 1.69,8.27 1.69,8.28 3.31,16.57 1.3,8.15 1.3,8.15 2.52,16.32 0.9,8 0.9,8 1.72,16.01 0.39,6.1 0.39,6.11 0.71,12.21 M 1181.6,474.05 c 3.03,-3.26 3.03,-3.26 6.09,-6.49 2.55,-2.47 2.55,-2.48 5.14,-4.91 5.36,-4.47 5.37,-4.47 10.77,-8.89 m -72.51,42.19 c 6.27,-3.7 6.27,-3.7 12.57,-7.35 4.23,-2.19 4.24,-2.19 8.5,-4.33 4.37,-1.92 4.37,-1.92 8.77,-3.79 4.51,-1.65 4.51,-1.65 9.04,-3.24 4.63,-1.36 4.64,-1.36 9.29,-2.67 4.76,-1.08 4.77,-1.08 9.54,-2.11 4.85,-0.79 4.85,-0.79 9.7,-1.52 5.04,-0.5 5.04,-0.5 10.08,-0.94 5.1,-0.2 5.11,-0.2 10.21,-0.34 5.2,0.11 5.21,0.11 10.41,0.28 5.3,0.41 5.3,0.41 10.59,0.89 5.39,0.72 5.39,0.72 10.76,1.5 5.46,1.02 5.46,1.02 10.91,2.09 5.53,1.31 5.53,1.31 11.04,2.68 5.59,1.6 5.59,1.59 11.15,3.24 6.13,2.06 6.12,2.07 12.23,4.18 5.17,1.96 5.17,1.96 10.33,3.96 5.69,2.42 5.7,2.42 11.37,4.88 5.71,2.67 5.71,2.67 11.41,5.39 5.71,2.92 5.71,2.92 11.41,5.89 5.72,3.17 5.72,3.17 11.42,6.38 4.86,2.9 4.86,2.9 9.7,5.83 6.53,4.16 6.54,4.16 13.05,8.35 5.66,3.87 5.67,3.86 11.3,7.77 9.25,6.9 9.25,6.89 18.46,13.85 7.46,5.99 7.45,6 14.87,12.05 5.45,4.7 5.45,4.71 10.87,9.45 5.37,4.9 5.38,4.89 10.71,9.83 9.98,9.86 9.98,9.86 19.9,19.77 5.59,5.93 5.58,5.94 11.12,11.92 4.97,5.61 4.97,5.61 9.9,11.24 4.85,5.77 4.85,5.77 9.66,11.57 4.71,5.92 4.71,5.92 9.39,11.87 4.57,6.07 4.58,6.06 9.11,12.16 8.71,12.5 8.71,12.51 17.36,25.06 4.14,6.4 4.13,6.41 8.22,12.85 5.13,8.5 5.14,8.49 10.21,17.02 6.31,11.26 6.31,11.27 12.56,22.56 3.49,6.71 3.5,6.71 6.93,13.45 6.43,13.55 6.44,13.55 12.79,27.14 4.1,9.6 4.09,9.61 8.11,19.25 4.19,10.82 4.19,10.82 8.32,21.67 2.38,6.79 2.37,6.8 4.7,13.6 2.7,8.57 2.71,8.57 5.35,17.16 3.19,11.59 3.19,11.59 6.32,23.2 1.55,6.6 1.55,6.6 3.04,13.22 2.14,11.29 2.15,11.29 4.21,22.61 1.17,7.99 1.16,7.99 2.26,15.99 0.66,6.22 0.65,6.22 1.25,12.44 0.41,6.09 0.41,6.09 0.77,12.19 0.17,5.95 0.17,5.95 0.3,11.9 -0.07,5.81 -0.07,5.81 -0.18,11.61 -0.32,5.84 -0.32,5.84 -0.68,11.67 -0.51,5.31 -0.51,5.31 -1.06,10.62 -0.75,5.32 -0.75,5.32 -1.54,10.64 -0.97,5.15 -0.97,5.15 -1.98,10.29 -1.18,4.97 -1.17,4.97 -2.4,9.93 -1.63,5.49 -1.64,5.48 -3.32,10.96 -1.35,3.87 -1.35,3.88 -2.74,7.74 -1.79,4.38 -1.79,4.38 -3.63,8.75 -1.98,4.17 -1.98,4.17 -4.02,8.32 -2.18,3.96 -2.18,3.96 -4.41,7.89 -2.36,3.74 -2.36,3.74 -4.77,7.44 -2.55,3.5 -2.55,3.51 -5.14,6.97 -2.73,3.27 -2.73,3.28 -5.5,6.5 -3.07,3.18 -3.07,3.18 -6.19,6.32 -2.89,2.61 -2.9,2.61 -5.83,5.19 -3.24,2.51 -3.24,2.51 -6.51,4.97 -3.39,2.25 -3.4,2.25 -6.83,4.44 -6.36,3.66 -6.36,3.67 -12.76,7.27 m -194.27,-52.68 c 0.09,-4.3 0.08,-4.29 0.12,-8.58 -0.15,-5.72 -0.15,-5.72 -0.35,-11.43 -0.4,-5.86 -0.4,-5.87 -0.86,-11.72 -0.66,-5.99 -0.66,-5.99 -1.37,-11.97 -0.93,-6.11 -0.93,-6.12 -1.9,-12.22 -1.19,-6.21 -1.19,-6.21 -2.43,-12.42 -1.45,-6.3 -1.45,-6.3 -2.96,-12.6 -1.72,-6.38 -1.72,-6.38 -3.49,-12.75 -1.99,-6.44 -1.99,-6.45 -4.03,-12.88 -2.24,-6.49 -2.24,-6.49 -4.52,-12.96 -2.49,-6.52 -2.49,-6.53 -5.02,-13.03 -2.72,-6.53 -2.72,-6.53 -5.49,-13.04 -2.95,-6.53 -2.95,-6.54 -5.93,-13.05 -3.17,-6.51 -3.17,-6.51 -6.38,-13 -3.38,-6.47 -3.38,-6.47 -6.79,-12.92 -3.58,-6.42 -3.58,-6.42 -7.19,-12.82 -3.77,-6.35 -3.77,-6.35 -7.57,-12.68 -3.95,-6.26 -3.95,-6.27 -7.93,-12.51 -4.13,-6.16 -4.13,-6.16 -8.29,-12.3 -4.28,-6.04 -4.28,-6.04 -8.6,-12.06 -4.44,-5.91 -4.44,-5.91 -8.92,-11.79 -4.59,-5.76 -4.59,-5.76 -9.21,-11.49 -4.73,-5.59 -4.73,-5.59 -9.49,-11.15 -4.85,-5.4 -4.85,-5.4 -9.74,-10.78 -4.97,-5.2 -4.97,-5.2 -9.97,-10.38 -5.09,-4.98 -5.09,-4.98 -10.21,-9.94 -5.18,-4.75 -5.18,-4.76 -10.4,-9.48 -5.28,-4.5 -5.28,-4.5 -10.59,-8.97 -5.36,-4.25 -5.36,-4.25 -10.75,-8.47 -5.42,-3.99 -5.42,-3.99 -10.88,-7.94 -5.48,-3.73 -5.48,-3.73 -10.98,-7.41 -5.52,-3.46 -5.53,-3.45 -11.07,-6.87 -3.87,-2.22 -3.87,-2.22 -7.77,-4.41 m 371.88,433.04 c 3.89,-0.5 3.89,-0.5 7.77,-1.08 5.71,-1.3 5.71,-1.3 11.4,-2.69 3.91,-1.27 3.91,-1.29 7.79,-2.63 3.76,-1.57 3.77,-1.57 7.5,-3.21 4.46,-2.33 4.46,-2.34 8.89,-4.73 2.63,-1.65 2.62,-1.66 5.22,-3.36 3.3,-2.41 3.31,-2.4 6.58,-4.86 3.15,-2.66 3.16,-2.65 6.26,-5.37 4.04,-4.11 4.03,-4.13 8.03,-8.29 1.75,-1.97 1.75,-1.97 3.48,-3.98 2.63,-3.41 2.64,-3.41 5.23,-6.86 2.46,-3.64 2.46,-3.64 4.87,-7.32 2.27,-3.88 2.27,-3.88 4.49,-7.78 2.09,-4.09 2.09,-4.1 4.12,-8.22 1.89,-4.3 1.89,-4.31 3.73,-8.64 1.69,-4.51 1.69,-4.51 3.33,-9.05 1.48,-4.72 1.48,-4.72 2.92,-9.45 1.28,-4.91 1.28,-4.91 2.51,-9.83 1.06,-5.1 1.06,-5.1 2.07,-10.2 0.85,-5.28 0.85,-5.28 1.64,-10.56 0.63,-5.45 0.63,-5.45 1.2,-10.9 0.34,-4.78 0.34,-4.78 0.64,-9.57 0.21,-6.6 0.22,-6.6 0.39,-13.2 -0.07,-5.92 -0.07,-5.92 -0.19,-11.84 -0.31,-6.06 -0.31,-6.06 -0.67,-12.12 -0.55,-6.19 -0.55,-6.2 -1.15,-12.39 -0.78,-6.31 -0.78,-6.31 -1.6,-12.62 -1,-6.37 -1.01,-6.37 -2.05,-12.73 -1.24,-6.57 -1.24,-6.57 -2.53,-13.13 -1.45,-6.6 -1.45,-6.6 -2.94,-13.19 -1.67,-6.67 -1.65,-6.67 -3.38,-13.33 -3.96,-13.49 -3.96,-13.49 -8,-26.97 -2.27,-6.81 -2.28,-6.81 -4.61,-13.59 -4.65,-12.34 -4.65,-12.35 -9.36,-24.66 -3.37,-8.15 -3.38,-8.15 -6.81,-16.28 -3.04,-6.81 -3.03,-6.82 -6.13,-13.61 -6.64,-13.53 -6.61,-13.54 -13.34,-27.02 -6.97,-12.78 -7,-12.76 -14.07,-25.49 -4.2,-7.12 -4.2,-7.12 -8.47,-14.2 -8.28,-12.82 -8.28,-12.82 -16.63,-25.59 -4.82,-6.91 -4.83,-6.9 -9.72,-13.76 -8.1,-10.7 -8.1,-10.7 -16.25,-21.36 -5.36,-6.58 -5.37,-6.58 -10.78,-13.12 -4.91,-5.68 -4.91,-5.68 -9.85,-11.32 -5.03,-5.51 -5.03,-5.51 -10.09,-10.99 -5.14,-5.34 -5.14,-5.34 -10.3,-10.65 -5.24,-5.16 -5.24,-5.16 -10.5,-10.29 -5.33,-4.97 -5.33,-4.97 -10.68,-9.92 -5.4,-4.78 -5.4,-4.79 -10.83,-9.54 -8.59,-7.05 -8.59,-7.06 -17.22,-14.05 -8,-6.1 -7.99,-6.12 -16.05,-12.14 -9.85,-6.77 -9.86,-6.76 -19.77,-13.45 -7.1,-4.45 -7.09,-4.45 -14.23,-8.83 -9.52,-5.3 -9.53,-5.3 -19.09,-10.53 -7.55,-3.77 -7.56,-3.76 -15.15,-7.47 -5.67,-2.53 -5.68,-2.52 -11.38,-4.99 -5.65,-2.25 -5.65,-2.25 -11.32,-4.46 -5.61,-1.98 -5.61,-1.98 -11.23,-3.92 -5.59,-1.71 -5.59,-1.71 -11.2,-3.37 -5.52,-1.43 -5.52,-1.43 -11.06,-2.8 -5.46,-1.14 -5.46,-1.14 -10.94,-2.22 -5.39,-0.84 -5.39,-0.84 -10.79,-1.63 -5.31,-0.54 -5.31,-0.54 -10.63,-1.02 -5.22,-0.23 -5.22,-0.23 -10.45,-0.4 -5.12,0.07 -5.12,0.07 -10.25,0.21 -5.02,0.37 -5.03,0.37 -10.05,0.8 -4.91,0.67 -4.92,0.67 -9.83,1.4 -4.84,0.97 -4.84,0.97 -9.67,2 -4.64,1.24 -4.65,1.24 -9.28,2.53 -4.56,1.53 -4.56,1.54 -9.1,3.11 -2.05,0.83 -2.05,0.85 -4.09,1.69 -2.37,0.99 -2.38,0.97 -4.74,1.97 -4.29,2.08 -4.3,2.07 -8.56,4.2 -4.6,2.64 -4.6,2.65 -9.17,5.33 -3.54,2.31 -3.54,2.31 -7.05,4.65 -3.84,2.86 -3.84,2.86 -7.65,5.77 -3.67,3.11 -3.68,3.1 -7.31,6.26 -4.77,4.72 -4.78,4.72 -9.49,9.5 m -43.41,16.46 c 5.94,-3.13 5.95,-3.13 11.93,-6.17 4.39,-1.88 4.4,-1.87 8.83,-3.68 4.54,-1.6 4.54,-1.6 9.1,-3.14 4.67,-1.32 4.68,-1.32 9.37,-2.59 4.8,-1.05 4.8,-1.05 9.61,-2.04 4.92,-0.78 4.92,-0.78 9.85,-1.51 5.02,-0.5 5.03,-0.5 10.06,-0.96 5.12,-0.23 5.13,-0.23 10.25,-0.4 5.22,0.04 5.22,0.04 10.44,0.14 5.3,0.32 5.3,0.32 10.6,0.69 5.38,0.6 5.38,0.6 10.75,1.25 5.44,0.87 5.44,0.87 10.88,1.8 5.5,1.15 5.5,1.15 10.99,2.36 5.55,1.43 5.55,1.43 11.09,2.91 5.6,1.71 5.6,1.71 11.18,3.47 5.63,2 5.63,2 11.24,4.04 5.65,2.27 5.66,2.27 11.29,4.59 5.67,2.56 5.68,2.56 11.32,5.17 6.75,3.42 6.75,3.43 13.47,6.89 4.62,2.53 4.62,2.53 9.21,5.1 5.67,3.38 5.67,3.37 11.32,6.79 5.66,3.63 5.66,3.63 11.29,7.3 5.63,3.88 5.64,3.87 11.23,7.79 8.46,6.34 8.46,6.34 16.87,12.74 m -268.33,155.83 c 9.07,5.7 9.07,5.7 18.09,11.47 5.52,3.84 5.51,3.86 11,7.75 5.46,4.11 5.46,4.11 10.89,8.25 5.4,4.35 5.4,4.35 10.76,8.73 5.32,4.57 5.32,4.57 10.61,9.18 5.23,4.79 5.23,4.79 10.43,9.61 5.2,5.07 5.2,5.07 10.36,10.16 4.95,5.13 4.95,5.13 9.86,10.28 4.89,5.38 4.89,5.38 9.74,10.79 4.75,5.55 4.75,5.55 9.46,11.13 4.59,5.72 4.59,5.72 9.14,11.46 4.43,5.87 4.43,5.87 8.81,11.77 4.25,6.01 4.25,6.01 8.46,12.05 4.06,6.13 4.06,6.13 8.08,12.29 3.88,6.25 3.88,6.25 7.71,12.52 3.67,6.34 3.67,6.34 7.31,12.7 3.48,6.41 3.48,6.41 6.92,12.84 3.27,6.47 3.27,6.47 6.51,12.96 3.06,6.51 3.06,6.51 6.08,13.04 2.88,6.6 2.88,6.61 5.72,13.22 2.6,6.48 2.6,6.48 5.17,12.97 2.4,6.53 2.4,6.53 4.77,13.08 2.18,6.5 2.18,6.5 4.31,13.01 1.95,6.46 1.95,6.46 3.86,12.93 1.7,6.4 1.7,6.41 3.37,12.82 1.46,6.31 1.46,6.32 2.88,12.64 1.22,6.23 1.22,6.23 2.39,12.46 0.97,6.12 0.97,6.12 1.89,12.24 0.71,5.98 0.71,5.98 1.37,11.97 0.44,5.84 0.44,5.84 0.84,11.68 0.18,5.67 0.18,5.68 0.31,11.35 -0.07,4.31 -0.07,4.32 -0.19,8.62 M 1001.79,577.4 c 4.09,-4.18 4.09,-4.19 8.25,-8.31 3.6,-3.15 3.61,-3.14 7.26,-6.23 3.79,-2.88 3.79,-2.88 7.62,-5.7 3.96,-2.61 3.96,-2.61 7.96,-5.17 4.13,-2.34 4.13,-2.34 8.29,-4.63 4.29,-2.07 4.29,-2.07 8.6,-4.09 4.43,-1.8 4.43,-1.81 8.89,-3.54 6.24,-1.99 6.25,-1.96 12.5,-3.88 3.04,-0.82 3.04,-0.82 6.09,-1.59 4.83,-0.99 4.83,-1.01 9.67,-1.92 7.1,-0.91 7.1,-0.88 14.21,-1.73 2.9,-0.25 2.9,-0.26 5.8,-0.48 5.15,-0.16 5.15,-0.16 10.3,-0.27 5.24,0.11 5.24,0.11 10.47,0.27 5.32,0.38 5.33,0.38 10.64,0.82 5.4,0.66 5.4,0.66 10.79,1.38 5.45,0.93 5.46,0.93 10.9,1.92 5.52,1.22 5.52,1.22 11.03,2.49 4.74,1.27 4.74,1.27 9.47,2.59 6.42,2 6.43,1.99 12.84,4.04 5.63,2.05 5.63,2.06 11.25,4.16 5.66,2.33 5.66,2.33 11.3,4.71 5.67,2.62 5.67,2.62 11.33,5.29 5.68,2.89 5.68,2.89 11.34,5.83 5.68,3.17 5.68,3.18 11.33,6.39 5.67,3.43 5.67,3.43 11.31,6.9 5.65,3.68 5.65,3.69 11.28,7.41 5.62,3.93 5.62,3.93 11.22,7.89 6.09,4.57 6.09,4.57 12.15,9.17 5.04,3.98 5.04,3.98 10.05,7.99 5.48,4.6 5.48,4.6 10.94,9.23 5.43,4.8 5.44,4.79 10.83,9.63 10.63,10.18 10.63,10.18 21.21,20.41 5.23,5.37 5.22,5.38 10.41,10.8 5.75,6.26 5.76,6.25 11.47,12.55 9.18,10.7 9.18,10.7 18.31,21.45 4.76,5.94 4.75,5.95 9.48,11.92 4.63,6.07 4.64,6.06 9.22,12.16 8.83,12.48 8.86,12.47 17.6,25 7.01,10.86 6.99,10.87 13.91,21.79 5.1,8.51 5.09,8.52 10.13,17.07 3.67,6.61 3.67,6.61 7.3,13.24 3.49,6.67 3.49,6.66 6.94,13.35 3.93,8.12 3.95,8.11 7.82,16.26 5.34,12.1 5.37,12.09 10.6,24.23 5.21,13.54 5.18,13.56 10.28,27.14 2.3,6.75 2.28,6.76 4.53,13.54 2.08,6.74 2.08,6.74 4.12,13.49 1.88,6.71 1.88,6.71 3.71,13.42 1.67,6.66 1.67,6.67 3.3,13.33 1.46,6.6 1.47,6.6 2.89,13.21 1.53,8.23 1.54,8.23 3,16.47 1.61,11.11 1.6,11.11 3.13,22.22 0.64,6.25 0.63,6.26 1.21,12.51 0.41,6.14 0.41,6.14 0.77,12.28 0.2,6.01 0.2,6.01 0.35,12.02 -0.02,5.87 -0.02,5.87 -0.08,11.74 -0.23,5.72 -0.23,5.72 -0.51,11.43 -0.46,5.56 -0.46,5.56 -0.95,11.12 -0.67,5.38 -0.67,5.38 -1.39,10.76 -0.89,5.2 -0.89,5.2 -1.82,10.4 -1.11,5 -1.11,5 -2.27,9.99 -1.33,4.8 -1.33,4.8 -2.71,9.58 -1.55,4.58 -1.55,4.58 -3.16,9.14 -1.77,4.35 -1.77,4.35 -3.6,8.68 -1.99,4.12 -2,4.12 -4.03,8.21 -1.34,2.37 -1.34,2.37 -2.71,4.72 -3.29,5.14 -3.27,5.16 -6.6,10.27 -2.59,3.41 -2.6,3.4 -5.25,6.77 -2.78,3.15 -2.79,3.15 -5.62,6.27 -2.97,2.91 -2.97,2.91 -5.98,5.78 -3.14,2.65 -3.15,2.65 -6.33,5.26 -3.31,2.41 -3.31,2.41 -6.66,4.77 -3.25,2.02 -3.25,2.02 -6.53,3.99 -3.85,2.02 -3.85,2.02 -7.72,3.98 -3.77,1.63 -3.78,1.63 -7.57,3.2 -3.91,1.36 -3.91,1.36 -7.84,2.67 -4.04,1.09 -4.04,1.1 -8.1,2.12 -5.56,1 -5.57,1 -11.15,1.92 M 951.31,598.78 c 4.85,-2.88 4.85,-2.88 9.72,-5.72 4.16,-2.26 4.16,-2.28 8.34,-4.49 4.31,-1.99 4.31,-1.99 8.65,-3.91 4.46,-1.69 4.46,-1.69 8.95,-3.32 4.61,-1.38 4.61,-1.38 9.24,-2.71 4.75,-1.08 4.75,-1.1 9.52,-2.11 6.49,-0.94 6.5,-0.92 13,-1.8 3.39,-0.34 3.39,-0.34 6.79,-0.63 5.11,-0.19 5.11,-0.2 10.23,-0.34 5.22,0.09 5.22,0.09 10.43,0.24 5.31,0.37 5.31,0.37 10.62,0.8 5.39,0.65 5.39,0.65 10.78,1.36 5.54,0.94 5.54,0.95 11.07,1.94 5.45,1.19 5.46,1.19 10.89,2.43 6.8,1.84 6.8,1.85 13.58,3.75 4.42,1.37 4.42,1.36 8.82,2.77 5.67,2 5.67,2 11.32,4.05 5.69,2.26 5.69,2.26 11.36,4.56 5.73,2.53 5.74,2.54 11.45,5.11 5.69,2.75 5.69,2.75 11.35,5.54 5.57,2.94 5.57,2.95 11.12,5.92 5.84,3.34 5.85,3.34 11.67,6.72 5.68,3.5 5.68,3.5 11.33,7.03 5.65,3.74 5.65,3.74 11.27,7.52 5.61,3.97 5.61,3.97 11.2,7.97 5.55,4.2 5.55,4.2 11.09,8.44 5.5,4.42 5.5,4.42 10.97,8.88 5.44,4.65 5.44,4.65 10.84,9.33 5.35,4.87 5.35,4.87 10.68,9.76 5.27,5.08 5.27,5.08 10.52,10.18 5.18,5.27 5.18,5.27 10.33,10.57 5.08,5.45 5.08,5.45 10.14,10.93 4.98,5.62 4.98,5.63 9.93,11.28 4.87,5.78 4.87,5.78 9.71,11.59 5.08,6.36 5.1,6.35 10.14,12.75 8.8,11.83 8.8,11.83 17.54,23.7 4.37,6.3 4.38,6.3 8.69,12.63 8.3,12.91 8.33,12.89 16.54,25.85 7.03,12.02 7.01,12.04 13.96,24.11 4.26,7.86 4.27,7.86 8.47,15.75 6.65,13.5 6.67,13.49 13.22,27.03 5.4,12.29 5.37,12.3 10.67,24.64 3.19,8.04 3.18,8.05 6.32,16.12 2.45,6.76 2.44,6.76 4.85,13.55 2.23,6.73 2.23,6.73 4.43,13.48 2.01,6.7 2.01,6.7 3.98,13.41 1.79,6.65 1.79,6.65 3.53,13.3 1.56,6.59 1.56,6.59 3.07,13.18 1.32,6.51 1.32,6.51 2.6,13.02 1.1,6.43 1.11,6.43 2.15,12.86 1.17,9.21 1.18,9.21 2.27,18.42 0.78,9.48 0.77,9.49 1.48,18.98 0.21,6 0.2,6 0.36,12.01 -0.01,5.87 0,5.87 -0.07,11.74 -0.45,8.6 -0.44,8.6 -0.98,17.19 -0.85,8.16 -0.85,8.16 -1.8,16.31 -1.17,6.83 -1.2,6.83 -2.43,13.66 -0.74,3.51 -0.74,3.51 -1.51,7.02 -1.27,4.91 -1.26,4.91 -2.58,9.8 -2.17,6.58 -2.19,6.57 -4.4,13.14 -0.98,2.63 -0.97,2.63 -1.98,5.25 -1.87,4.29 -1.87,4.3 -3.78,8.57 -2.06,4.07 -2.07,4.07 -4.17,8.11 -1.51,2.57 -1.51,2.57 -3.06,5.13 -3.2,4.85 -3.18,4.87 -6.44,9.69 -2.62,3.35 -2.63,3.35 -5.31,6.66 -2.82,3.09 -2.83,3.09 -5.69,6.14 -3.01,2.82 -3.01,2.82 -6.06,5.59 -3.21,2.56 -3.21,2.57 -6.46,5.07 -3.34,2.25 -3.35,2.25 -6.72,4.44 -7.18,4.19 -7.18,4.19 -14.38,8.33 m -195.44,-55.61 c -0.02,-4.28 -0.02,-4.28 -0.07,-8.55 -0.28,-5.81 -0.28,-5.81 -0.6,-11.62 -0.51,-5.95 -0.51,-5.95 -1.08,-11.89 -0.76,-6.07 -0.76,-6.07 -1.57,-12.14 -1.01,-6.17 -1.01,-6.18 -2.07,-12.35 -1.26,-6.27 -1.26,-6.27 -2.56,-12.53 -1.5,-6.35 -1.5,-6.35 -3.04,-12.69 -1.75,-6.41 -1.75,-6.41 -3.54,-12.81 -1.99,-6.46 -1.99,-6.46 -4.02,-12.9 -2.24,-6.49 -2.24,-6.5 -4.52,-12.97 -2.48,-6.51 -2.48,-6.51 -5.01,-13 -2.72,-6.5 -2.72,-6.51 -5.49,-12.99 -2.97,-6.5 -2.97,-6.5 -5.98,-12.97 -3.2,-6.46 -3.2,-6.46 -6.44,-12.91 -3.43,-6.42 -3.43,-6.42 -6.89,-12.81 -3.64,-6.36 -3.64,-6.36 -7.31,-12.7 -3.84,-6.29 -3.84,-6.29 -7.71,-12.56 -4.02,-6.19 -4.02,-6.19 -8.08,-12.37 -4.21,-6.09 -4.21,-6.09 -8.45,-12.17 -4.37,-5.97 -4.37,-5.98 -8.77,-11.93 -4.53,-5.84 -4.53,-5.84 -9.08,-11.66 -4.67,-5.7 -4.68,-5.7 -9.38,-11.37 -4.8,-5.54 -4.8,-5.54 -9.64,-11.05 -4.92,-5.36 -4.92,-5.36 -9.88,-10.7 -5.03,-5.17 -5.03,-5.17 -10.1,-10.31 -5.14,-4.96 -5.14,-4.96 -10.31,-9.89 -5.22,-4.75 -5.22,-4.75 -10.48,-9.46 -5.3,-4.51 -5.3,-4.51 -10.63,-8.99 -5.37,-4.26 -5.37,-4.26 -10.77,-8.48 -5.42,-4 -5.42,-4 -10.87,-7.96 -5.47,-3.72 -5.47,-3.73 -10.97,-7.4 -7.64,-4.64 -7.64,-4.64 -15.32,-9.21 m 371.41,432.67 c 2.86,-0.29 2.86,-0.29 5.72,-0.62 4.18,-0.71 4.19,-0.71 8.36,-1.48 4.05,-0.99 4.05,-0.99 8.08,-2.05 3.92,-1.28 3.92,-1.28 7.81,-2.62 3.76,-1.56 3.77,-1.56 7.5,-3.19 3.61,-1.85 3.61,-1.85 7.19,-3.76 3.43,-2.14 3.44,-2.14 6.84,-4.34 3.4,-2.55 3.4,-2.56 6.77,-5.17 2.95,-2.59 2.95,-2.59 5.86,-5.23 2.8,-2.88 2.8,-2.88 5.55,-5.81 2.83,-3.36 2.84,-3.36 5.61,-6.76 2.9,-4.09 2.89,-4.1 5.74,-8.22 1.98,-3.18 1.99,-3.18 3.93,-6.38 2.15,-4 2.16,-4 4.26,-8.02 1.96,-4.22 1.96,-4.22 3.87,-8.46 1.42,-3.54 1.41,-3.54 2.78,-7.1 1.92,-5.54 1.93,-5.54 3.79,-11.1 1.37,-4.85 1.36,-4.85 2.68,-9.71 1.16,-5.03 1.16,-5.03 2.28,-10.08 0.95,-5.21 0.95,-5.21 1.86,-10.44 0.74,-5.38 0.74,-5.38 1.45,-10.77 0.53,-5.55 0.53,-5.55 1.02,-11.1 0.32,-5.7 0.33,-5.7 0.6,-11.4 0.08,-7.64 0.09,-7.65 0.1,-15.29 -0.4,-10.26 -0.41,-10.27 -0.89,-20.53 -0.54,-6.21 -0.56,-6.21 -1.15,-12.42 -0.74,-6 -0.74,-6 -1.51,-11.99 -1.05,-6.73 -1.05,-6.73 -2.13,-13.46 -1.24,-6.5 -1.24,-6.5 -2.51,-12.99 -1.47,-6.57 -1.46,-6.58 -2.97,-13.14 -2.71,-10.18 -2.71,-10.18 -5.49,-20.34 -3.04,-9.91 -3.02,-9.92 -6.16,-19.81 -4.92,-13.57 -4.92,-13.58 -9.94,-27.12 -4.25,-10.26 -4.27,-10.25 -8.61,-20.48 -4.61,-10.14 -4.59,-10.15 -9.28,-20.26 -6.84,-13.48 -6.86,-13.48 -13.78,-26.92 -3.67,-6.68 -3.67,-6.68 -7.41,-13.33 -7.85,-13.14 -7.85,-13.14 -15.77,-26.25 -4.14,-6.45 -4.14,-6.45 -8.34,-12.87 -7.66,-11.07 -7.65,-11.07 -15.36,-22.1 -5.65,-7.65 -5.64,-7.66 -11.35,-15.26 -9.5,-11.83 -9.49,-11.84 -19.08,-23.61 -7.21,-8.24 -7.23,-8.23 -14.52,-16.41 -7.84,-8.32 -7.84,-8.32 -15.74,-16.59 -5.21,-5.15 -5.21,-5.15 -10.47,-10.26 -9.34,-8.47 -9.34,-8.48 -18.73,-16.9 -6.81,-5.71 -6.82,-5.7 -13.68,-11.35 -5.51,-4.29 -5.51,-4.3 -11.07,-8.54 -10.07,-7.12 -10.07,-7.13 -20.2,-14.19 -6.75,-4.36 -6.76,-4.35 -13.55,-8.65 -5.68,-3.36 -5.68,-3.36 -11.38,-6.67 -5.68,-3.11 -5.68,-3.13 -11.4,-6.19 -8.54,-4.18 -8.54,-4.19 -17.12,-8.3 -8.51,-3.68 -8.52,-3.67 -17.06,-7.27 -5.93,-2.22 -5.93,-2.2 -11.88,-4.36 -5.35,-1.75 -5.35,-1.76 -10.71,-3.47 -5.58,-1.58 -5.58,-1.58 -11.18,-3.12 -5.53,-1.32 -5.53,-1.32 -11.07,-2.58 -5.47,-1.05 -5.47,-1.05 -10.95,-2.05 -5.4,-0.76 -5.41,-0.77 -10.81,-1.48 -5.33,-0.49 -5.33,-0.49 -10.66,-0.93 -4.76,-0.19 -4.76,-0.19 -9.53,-0.33 -5.61,0.06 -5.61,0.05 -11.22,0.17 -5.03,0.37 -5.03,0.37 -10.06,0.8 -4.91,0.66 -4.92,0.66 -9.83,1.38 -4.79,0.96 -4.79,0.96 -9.57,1.98 -4.66,1.26 -4.66,1.26 -9.3,2.58 -4.52,1.57 -4.52,1.57 -9.01,3.19 -4.37,1.86 -4.37,1.87 -8.71,3.79 -4.09,2.07 -4.09,2.07 -8.15,4.21 -4.19,2.51 -4.19,2.52 -8.35,5.09 -3.91,2.71 -3.91,2.72 -7.77,5.48 -2.75,2.18 -2.75,2.19 -5.46,4.41 -4.56,4.05 -4.57,4.04 -9.08,8.14 -3.58,3.69 -3.58,3.69 -7.1,7.44 m -51.18,21.97 c 4.41,-2.63 4.41,-2.63 8.84,-5.23 4.19,-2.28 4.18,-2.29 8.39,-4.53 4.32,-2.03 4.32,-2.03 8.66,-4.01 4.46,-1.76 4.47,-1.76 8.95,-3.47 4.59,-1.49 4.59,-1.5 9.2,-2.93 4.72,-1.22 4.72,-1.21 9.45,-2.38 3.21,-0.63 3.21,-0.62 6.43,-1.21 6.58,-0.95 6.58,-0.97 13.16,-1.86 5.06,-0.38 5.06,-0.37 10.12,-0.68 5.15,-0.08 5.15,-0.08 10.3,-0.1 5.25,0.22 5.25,0.22 10.49,0.49 5.33,0.52 5.33,0.52 10.65,1.09 5.41,0.82 5.41,0.82 10.81,1.7 5.47,1.12 5.48,1.12 10.94,2.3 5.54,1.42 5.54,1.43 11.07,2.9 5.59,1.72 5.59,1.71 11.17,3.49 6.83,2.48 6.83,2.49 13.65,5.03 4.46,1.8 4.47,1.79 8.91,3.63 5.69,2.55 5.7,2.55 11.37,5.14 5.7,2.81 5.7,2.81 11.39,5.67 5.71,3.06 5.71,3.06 11.4,6.17 5.71,3.31 5.71,3.31 11.39,6.66 5.69,3.56 5.69,3.56 11.36,7.15 5.67,3.78 5.68,3.78 11.32,7.6 5.64,4.01 5.65,4 11.25,8.05 8.26,6.35 8.27,6.35 16.48,12.75 8.37,6.94 8.37,6.95 16.7,13.94 5.42,4.82 5.42,4.83 10.81,9.69 5.33,5.01 5.34,5 10.64,10.06 8.72,8.81 8.73,8.8 17.4,17.66 6.73,7.27 6.72,7.28 13.4,14.59 4.94,5.68 4.93,5.69 9.83,11.4 4.8,5.83 4.8,5.83 9.57,11.69 4.67,5.98 4.67,5.98 9.31,11.97 4.52,6.11 4.52,6.11 9.01,12.24 4.37,6.23 4.37,6.23 8.71,12.48 4.22,6.35 4.22,6.35 8.4,12.72 4.05,6.45 4.05,6.45 8.07,12.92 3.89,6.53 3.9,6.52 7.74,13.09 7.27,13.29 7.27,13.29 14.47,26.61 3.39,6.73 3.39,6.73 6.72,13.48 4.42,9.54 4.43,9.54 8.8,19.1 4.62,10.84 4.61,10.84 9.17,21.71 2.65,6.81 2.65,6.81 5.24,13.65 4.26,12.27 4.26,12.27 8.45,24.56 2.5,8.08 2.51,8.08 4.93,16.17 3.49,13.36 3.48,13.36 6.89,26.74 1.45,6.58 1.43,6.58 2.82,13.17 1.21,6.5 1.21,6.5 2.39,13 0.99,6.41 0.99,6.41 1.95,12.82 0.77,6.3 0.77,6.3 1.51,12.6 0.55,6.18 0.55,6.18 1.05,12.36 0.33,6.05 0.33,6.05 0.6,12.1 0.1,5.9 0.1,5.91 0.14,11.81 -0.14,5.78 -0.13,5.78 -0.34,11.56 -0.59,7.49 -0.61,7.49 -1.26,14.98 -0.4,3.47 -0.39,3.47 -0.82,6.93 -0.86,5.24 -0.85,5.24 -1.74,10.46 -1.07,5.05 -1.07,5.05 -2.19,10.09 -1.28,4.85 -1.28,4.85 -2.62,9.69 -1.49,4.66 -1.49,4.66 -3.04,9.31 -1.71,4.45 -1.71,4.45 -3.46,8.89 -1.91,4.25 -1.91,4.25 -3.87,8.47 -2.1,4.04 -2.1,4.04 -4.25,8.05 -2.3,3.81 -2.3,3.82 -4.64,7.6 -2.51,3.62 -2.51,3.62 -5.06,7.21 -2.64,3.32 -2.64,3.32 -5.32,6.61 -2.84,3.11 -2.84,3.12 -5.72,6.2 -3.01,2.87 -3.01,2.87 -6.06,5.7 -3.17,2.62 -3.18,2.63 -6.39,5.2 -3.33,2.37 -3.32,2.39 -6.7,4.69 -8.18,4.8 -8.18,4.8 -16.41,9.52 m -193.71,-50.25 c 0.11,-4.82 0.11,-4.83 0.18,-9.65 -0.13,-5.69 -0.12,-5.69 -0.3,-11.38 -0.39,-5.84 -0.39,-5.84 -0.83,-11.67 -0.66,-5.98 -0.66,-5.98 -1.37,-11.95 -0.93,-6.1 -0.93,-6.1 -1.91,-12.19 -1.2,-6.22 -1.2,-6.22 -2.45,-12.43 -1.47,-6.3 -1.47,-6.3 -2.99,-12.59 -1.74,-6.41 -1.74,-6.41 -3.52,-12.8 -1.99,-6.46 -1.99,-6.46 -4.02,-12.9 -2.23,-6.51 -2.23,-6.51 -4.51,-13 -2.47,-6.54 -2.47,-6.54 -4.98,-13.06 -3.28,-7.84 -3.27,-7.84 -6.61,-15.66 -5.48,-11.77 -5.48,-11.77 -11.03,-23.52 -3.33,-6.49 -3.35,-6.48 -6.73,-12.95 -3.54,-6.44 -3.54,-6.44 -7.12,-12.85 -3.73,-6.36 -3.73,-6.36 -7.49,-12.7 -3.92,-6.28 -3.92,-6.28 -7.87,-12.53 -4.08,-6.17 -4.08,-6.17 -8.21,-12.32 -4.25,-6.05 -4.25,-6.05 -8.54,-12.07 -4.41,-5.91 -4.41,-5.91 -8.86,-11.8 -4.57,-5.76 -4.57,-5.76 -9.17,-11.49 -4.7,-5.58 -4.7,-5.58 -9.44,-11.14 -4.84,-5.4 -4.84,-5.4 -9.72,-10.76 -4.97,-5.2 -4.97,-5.2 -9.97,-10.36 -5.09,-4.97 -5.09,-4.97 -10.21,-9.9 -5.19,-4.75 -5.2,-4.75 -10.42,-9.46 -5.29,-4.51 -5.29,-4.51 -10.61,-8.98 -5.37,-4.26 -5.37,-4.26 -10.76,-8.49 -5.44,-4.01 -5.44,-4.01 -10.9,-7.99 -5.49,-3.76 -5.49,-3.76 -11.01,-7.48 -5.53,-3.5 -5.53,-3.49 -11.08,-6.95 -3.64,-2.12 -3.65,-2.12 -7.31,-4.21 m -37.27,-171.5 c 2.96,-3.05 2.96,-3.05 5.97,-6.06 3.57,-3.25 3.57,-3.25 7.18,-6.45 3.73,-3 3.73,-3.01 7.51,-5.95 5.28,-3.59 5.29,-3.57 10.61,-7.11 2.68,-1.65 2.68,-1.66 5.39,-3.26 4.21,-2.23 4.21,-2.24 8.45,-4.42 4.3,-1.94 4.3,-1.94 8.63,-3.83 4.55,-1.72 4.55,-1.72 9.12,-3.39 2.92,-0.91 2.92,-0.91 5.86,-1.77 6.45,-1.66 6.45,-1.69 12.91,-3.28 4.77,-0.87 4.78,-0.86 9.56,-1.66 5.06,-0.61 5.06,-0.61 10.13,-1.16 5.08,-0.3 5.08,-0.3 10.16,-0.55 5.18,-0.01 5.18,-0.01 10.35,0.03 5.26,0.29 5.27,0.29 10.53,0.63 5.34,0.58 5.34,0.58 10.68,1.21 5.43,0.89 5.43,0.89 10.84,1.83 5.49,1.18 5.49,1.18 10.97,2.43 5.55,1.48 5.55,1.48 11.09,3.02 5.6,1.78 5.6,1.78 11.18,3.61 5.65,2.07 5.65,2.07 11.27,4.18 5.67,2.34 5.67,2.34 11.33,4.72 5.69,2.61 5.69,2.61 11.36,5.27 5.71,2.87 5.71,2.87 11.4,5.78 4.27,2.33 4.27,2.33 8.53,4.7 7.13,4.17 7.14,4.16 14.25,8.36 5.69,3.6 5.69,3.61 11.36,7.25 5.66,3.84 5.66,3.84 11.3,7.72 5.63,4.06 5.63,4.06 11.23,8.15 5.59,4.28 5.59,4.28 11.15,8.58 5.53,4.49 5.53,4.49 11.04,9 5.47,4.68 5.47,4.68 10.91,9.4 5.4,4.87 5.41,4.86 10.77,9.78 9.27,9.01 9.28,9.01 18.5,18.08 6.41,6.67 6.4,6.68 12.77,13.4 5.02,5.56 5.02,5.56 10.01,11.15 4.9,5.72 4.91,5.72 9.77,11.47 6.58,8.19 6.59,8.18 13.11,16.42 7.33,9.8 7.33,9.81 14.61,19.66 4.35,6.24 4.34,6.25 8.64,12.53 4.18,6.37 4.18,6.37 8.33,12.76 4.01,6.46 4.01,6.46 8,12.95 3.85,6.55 3.86,6.54 7.67,13.12 7.19,13.32 7.21,13.31 14.31,26.67 5.37,11.05 5.35,11.06 10.63,22.16 4.12,9.25 4.14,9.24 8.18,18.52 5.39,13.63 5.37,13.63 10.68,27.29 2.41,6.8 2.4,6.8 4.76,13.62 2.48,7.73 2.5,7.73 4.93,15.48 3.51,12.49 3.51,12.49 6.96,25 1.61,6.63 1.59,6.64 3.14,13.28 1.38,6.56 1.38,6.56 2.72,13.14 1.16,6.48 1.16,6.48 2.29,12.96 0.95,6.38 0.95,6.39 1.86,12.77 0.73,6.37 0.73,6.37 1.41,12.73 0.5,6.07 0.5,6.07 0.95,12.14 0.27,6.02 0.28,6.02 0.5,12.04 0.04,5.87 0.04,5.87 0.04,11.74 -0.2,5.72 -0.19,5.72 -0.44,11.43 -0.52,6.29 -0.53,6.29 -1.1,12.58 -0.57,4.63 -0.57,4.63 -1.18,9.25 -0.9,5.19 -0.9,5.2 -1.84,10.38 -1.11,5 -1.11,5 -2.28,9.99 -1.33,4.81 -1.33,4.82 -2.71,9.61 -1.55,4.61 -1.55,4.62 -3.15,9.21 -1.75,4.41 -1.74,4.41 -3.55,8.8 -2.43,5.1 -2.45,5.1 -4.94,10.17 -1.66,3.08 -1.66,3.09 -3.36,6.14 -2.34,3.76 -2.33,3.77 -4.72,7.49 -3.27,4.45 -3.29,4.44 -6.6,8.85 -1.96,2.39 -1.96,2.39 -3.95,4.75 -2.89,3.06 -2.88,3.06 -5.8,6.08 -3.05,2.82 -3.06,2.82 -6.14,5.59 -3.22,2.57 -3.22,2.57 -6.47,5.09 -3.37,2.3 -3.37,2.31 -6.78,4.56 -3.52,2.05 -3.52,2.05 -7.08,4.04 -3.67,1.78 -3.68,1.78 -7.38,3.5 -3.81,1.5 -3.82,1.5 -7.66,2.95 -3.95,1.22 -3.95,1.22 -7.92,2.38 -4.09,0.93 -4.09,0.93 -8.19,1.8 -3.08,0.48 -3.08,0.48 -6.17,0.89 M 773.14,906.48 c 4.04,2.44 4.04,2.44 8.06,4.92 5.53,3.64 5.53,3.64 11.04,7.31 5.5,3.9 5.5,3.9 10.97,7.84 5.44,4.15 5.45,4.15 10.86,8.34 5.45,4.44 5.45,4.45 10.88,8.93 5.24,4.56 5.24,4.56 10.45,9.15 5.23,4.84 5.23,4.84 10.42,9.7 5.12,5.04 5.12,5.04 10.21,10.11 5.01,5.23 5.01,5.23 9.99,10.49 4.88,5.4 4.88,5.41 9.73,10.84 4.75,5.58 4.75,5.58 9.47,11.18 4.59,5.73 4.59,5.73 9.16,11.49 4.43,5.88 4.43,5.88 8.83,11.78 4.25,6.01 4.25,6.01 8.47,12.04 4.07,6.12 4.08,6.12 8.11,12.27 3.87,6.24 3.87,6.24 7.7,12.5 3.67,6.32 3.67,6.33 7.3,12.67 3.46,6.4 3.46,6.4 6.88,12.82 3.24,6.46 3.24,6.46 6.45,12.94 3.03,6.5 3.03,6.5 6.02,13.01 2.81,6.53 2.81,6.53 5.59,13.06 2.59,6.53 2.59,6.54 5.14,13.08 2.36,6.52 2.36,6.52 4.69,13.06 2.13,6.5 2.13,6.5 4.23,13.01 1.9,6.45 1.9,6.45 3.76,12.91 1.66,6.39 1.66,6.39 3.29,12.79 1.42,6.32 1.42,6.32 2.8,12.65 1.18,6.22 1.18,6.22 2.32,12.45 0.94,6.11 0.94,6.12 1.83,12.23 0.68,5.99 0.68,5.99 1.32,11.99 0.43,5.84 0.45,5.84 0.82,11.69 0.12,8.67 0.12,8.65 0.17,17.34 M 768.78,704.12 c 9.04,-5.14 9.05,-5.14 18.14,-10.18 4.31,-2.01 4.32,-1.99 8.67,-3.93 4.47,-1.71 4.47,-1.71 8.96,-3.36 4.61,-1.44 4.62,-1.44 9.24,-2.82 4.75,-1.16 4.75,-1.16 9.51,-2.27 4.86,-0.88 4.87,-0.88 9.74,-1.71 2.96,-0.37 2.96,-0.36 5.91,-0.69 7.12,-0.56 7.12,-0.58 14.25,-1.08 5.18,-0.08 5.19,-0.07 10.37,-0.07 5.28,0.21 5.28,0.22 10.55,0.48 4.89,0.45 4.89,0.45 9.78,0.94 5.89,0.81 5.89,0.8 11.78,1.66 5.48,1.04 5.49,1.04 10.96,2.12 5.55,1.31 5.55,1.31 11.08,2.66 5.57,1.58 5.57,1.58 11.12,3.2 5.65,1.85 5.65,1.86 11.28,3.76 5.65,2.12 5.65,2.12 11.28,4.28 5.68,2.4 5.68,2.4 11.33,4.83 5.68,2.66 5.68,2.66 11.34,5.37 5.68,2.93 5.69,2.93 11.34,5.9 5.68,3.2 5.68,3.2 11.34,6.44 5.65,3.47 5.65,3.47 11.29,6.97 5.63,3.73 5.63,3.73 11.24,7.49 5.61,3.98 5.62,3.96 11.19,7.98 9.28,7.2 9.28,7.2 18.51,14.46 7.27,6.09 7.26,6.1 14.48,12.24 5.39,4.86 5.39,4.86 10.75,9.75 5.32,5.05 5.34,5.04 10.62,10.14 10.39,10.65 10.39,10.65 20.72,21.35 5.07,5.57 5.06,5.58 10.08,11.18 4.95,5.73 4.95,5.73 9.87,11.48 5.61,6.86 5.62,6.86 11.19,13.75 8.47,11.06 8.46,11.06 16.87,22.15 4.52,6.31 4.51,6.32 8.99,12.66 4.31,6.34 4.32,6.33 8.58,12.69 6.22,9.8 6.23,9.8 12.39,19.63 5.75,9.7 5.75,9.71 11.44,19.44 3.65,6.63 3.65,6.63 7.25,13.28 5.07,9.99 5.08,9.99 10.08,20 4.73,10.15 4.73,10.16 9.39,20.34 2.87,6.75 2.86,6.76 5.68,13.53 2.65,6.77 2.65,6.77 5.26,13.55 2.43,6.76 2.43,6.76 4.83,13.54 2.23,6.74 2.23,6.74 4.42,13.5 2.02,6.71 2.02,6.71 4,13.44 1.8,6.68 1.8,6.68 3.57,13.36 1.6,6.63 1.6,6.63 3.15,13.27 1.39,6.56 1.39,6.56 2.73,13.14 1.17,6.49 1.17,6.49 2.31,12.99 0.96,6.41 0.96,6.41 1.88,12.83 0.75,6.31 0.75,6.31 1.46,12.63 0.54,6.21 0.54,6.22 1.04,12.43 0.33,6.09 0.33,6.1 0.61,12.19 0.12,5.97 0.12,5.97 0.19,11.94 -0.09,5.82 -0.09,5.82 -0.23,11.65 -0.31,5.68 -0.31,5.68 -0.67,11.36 -0.52,5.52 -0.52,5.52 -1.08,11.03 -0.72,5.24 -0.72,5.24 -1.49,10.47 -0.96,5.27 -0.96,5.27 -1.97,10.54 -1.16,4.97 -1.16,4.97 -2.37,9.93 -1.37,4.76 -1.37,4.77 -2.79,9.52 -1.59,4.55 -1.59,4.55 -3.23,9.08 -1.8,4.33 -1.8,4.33 -3.65,8.63 -2.02,4.09 -2.02,4.09 -4.08,8.15 -2.23,3.84 -2.23,3.84 -4.51,7.65 -2.44,3.59 -2.44,3.6 -4.92,7.15 -2.64,3.34 -2.64,3.34 -5.32,6.64 -2.83,3.09 -2.83,3.09 -5.7,6.14 -3.02,2.83 -3.02,2.83 -6.07,5.61 -3.19,2.57 -3.19,2.58 -6.42,5.1 -3.36,2.31 -3.36,2.32 -6.76,4.58 -7.16,4.22 -7.16,4.22 -14.35,8.37 M 732.76,732.71 c 2.29,-2.51 2.29,-2.51 4.62,-4.98 3.49,-3.32 3.49,-3.32 7.01,-6.59 3.67,-3.04 3.68,-3.04 7.39,-6.03 3.85,-2.77 3.85,-2.77 7.75,-5.48 4.03,-2.48 4.03,-2.48 8.09,-4.91 4.2,-2.21 4.2,-2.21 8.42,-4.36 4.28,-1.89 4.28,-1.89 8.58,-3.73 4.69,-1.71 4.69,-1.71 9.39,-3.37 4.54,-1.34 4.54,-1.34 9.09,-2.63 4.77,-1.09 4.78,-1.1 9.56,-2.13 4.89,-0.82 4.9,-0.82 9.8,-1.59 5.01,-0.54 5.01,-0.54 10.02,-1.03 5.11,-0.27 5.12,-0.27 10.23,-0.48 5.21,0 5.21,0 10.42,0.06 4.15,0.22 4.15,0.22 8.3,0.48 6.51,0.62 6.52,0.59 13.03,1.29 8.47,1.42 8.47,1.42 16.93,2.94 8.03,1.85 8.03,1.86 16.04,3.8 5.6,1.63 5.6,1.64 11.19,3.33 5.63,1.91 5.63,1.91 11.25,3.87 5.66,2.18 5.66,2.18 11.3,4.41 5.08,2.19 5.08,2.19 10.14,4.43 6.28,2.98 6.28,2.97 12.54,6 5.68,2.98 5.68,2.99 11.34,6.02 5.67,3.25 5.67,3.25 11.32,6.55 5.66,3.52 5.66,3.52 11.29,7.08 6.73,4.57 6.73,4.58 13.44,9.19 4.48,3.23 4.49,3.23 8.95,6.49 5.55,4.26 5.55,4.26 11.08,8.55 5.5,4.49 5.5,4.49 10.98,9.01 5.44,4.69 5.44,4.7 10.85,9.43 5.38,4.9 5.38,4.9 10.73,9.83 5.3,5.1 5.31,5.09 10.57,10.22 10.35,10.73 10.36,10.73 20.64,21.52 6.83,7.67 6.82,7.69 13.58,15.42 7.95,9.58 7.97,9.57 15.85,19.21 9.26,12.17 9.24,12.19 18.42,24.42 4.43,6.25 4.44,6.25 8.81,12.54 8.38,12.81 8.38,12.81 16.71,25.65 3.96,6.52 3.97,6.52 7.87,13.07 7.4,13.26 7.4,13.26 14.74,26.55 3.41,6.66 3.4,6.67 6.77,13.35 3.22,6.72 3.22,6.73 6.41,13.47 3.02,6.74 3.02,6.75 6.01,13.51 2.81,6.76 2.81,6.76 5.59,13.54 2.61,6.78 2.61,6.78 5.18,13.57 2.38,6.75 2.38,6.75 4.73,13.5 2.18,6.74 2.18,6.74 4.32,13.49 1.97,6.7 1.97,6.7 3.9,13.42 1.76,6.67 1.76,6.67 3.48,13.34 1.55,6.61 1.55,6.61 3.05,13.24 1.52,7.58 1.54,7.57 2.99,15.17 1.86,11.83 1.86,11.83 3.64,23.67 0.72,6.29 0.7,6.29 1.36,12.59 0.49,6.18 0.49,6.18 0.94,12.37 0.27,6.06 0.27,6.06 0.51,12.13 0.06,5.94 0.08,5.94 0.09,11.87 -0.4,9.76 -0.4,9.76 -0.88,19.51 -0.66,7.16 -0.67,7.17 -1.41,14.32 -0.77,5.31 -0.78,5.31 -1.62,10.61 -0.99,5.12 -0.99,5.12 -2.03,10.24 -1.21,4.92 -1.21,4.92 -2.47,9.84 -1.42,4.72 -1.42,4.72 -2.88,9.42 -1,2.76 -1,2.76 -2.03,5.5 -2.5,6.02 -2.48,6.03 -5.04,12.03 -2.04,4.04 -2.06,4.04 -4.17,8.04 -2.27,3.79 -2.27,3.79 -4.6,7.55 -2.47,3.54 -2.47,3.54 -5,7.04 -2.68,3.28 -2.68,3.29 -5.4,6.53 -2.87,3.03 -2.87,3.04 -5.79,6.02 -4.05,3.55 -4.07,3.54 -8.16,7.05 -2.23,1.73 -2.23,1.73 -4.48,3.43 -3.4,2.24 -3.4,2.25 -6.83,4.45 -3.55,1.99 -3.56,1.99 -7.14,3.93 -3.71,1.73 -3.72,1.73 -7.45,3.4 -3.85,1.46 -3.86,1.46 -7.73,2.87 -3.99,1.19 -4,1.19 -8.01,2.32 -4.12,0.93 -4.12,0.93 -8.25,1.79 -3.69,0.57 -3.7,0.57 -7.4,1.09 m -47.58,39.5 c 9.73,-5.68 9.74,-5.68 19.41,-11.46 3.31,-2.37 3.3,-2.4 6.55,-4.85 3.13,-2.67 3.13,-2.67 6.21,-5.38 2.96,-2.94 2.96,-2.95 5.87,-5.93 2.77,-3.19 2.77,-3.2 5.5,-6.43 2.59,-3.45 2.6,-3.45 5.14,-6.93 2.41,-3.69 2.41,-3.69 4.78,-7.42 2.22,-3.92 2.22,-3.92 4.4,-7.87 2.03,-4.15 2.03,-4.15 4.02,-8.32 1.84,-4.37 1.83,-4.37 3.63,-8.75 0.97,-2.68 0.96,-2.69 1.9,-5.38 2.1,-6.66 2.13,-6.66 4.18,-13.34 1.25,-4.95 1.24,-4.96 2.43,-9.93 1.03,-5.14 1.03,-5.15 2.02,-10.3 0.83,-5.31 0.82,-5.31 1.6,-10.63 0.51,-4.55 0.51,-4.55 0.98,-9.1 0.49,-6.57 0.5,-6.57 0.94,-13.15 0.18,-5.78 0.18,-5.78 0.31,-11.56 -0.05,-5.92 -0.05,-5.93 -0.14,-11.85 -0.27,-6.05 -0.27,-6.05 -0.59,-12.1 -0.45,-5.64 -0.45,-5.64 -0.95,-11.27 -0.78,-6.82 -0.78,-6.82 -1.6,-13.64 -0.97,-6.39 -0.97,-6.39 -1.98,-12.78 -1.21,-6.49 -1.21,-6.49 -2.46,-12.96 -1.42,-6.53 -1.42,-6.53 -2.89,-13.05 -1.68,-6.69 -1.67,-6.69 -3.39,-13.36 -2.39,-8.31 -2.38,-8.32 -4.82,-16.61 -3.92,-11.92 -3.92,-11.93 -7.9,-23.83 -2.51,-6.81 -2.51,-6.81 -5.07,-13.6 -4.61,-11.26 -4.61,-11.26 -9.27,-22.49 -4.11,-9.19 -4.12,-9.19 -8.27,-18.35 -3.27,-6.79 -3.27,-6.79 -6.59,-13.55 -4.46,-8.62 -4.46,-8.62 -8.97,-17.21 -6.39,-11.46 -6.37,-11.47 -12.84,-22.88 -8.02,-13.04 -8.01,-13.05 -16.14,-26.02 -8.6,-12.67 -8.63,-12.65 -17.32,-25.25 -4.51,-6.16 -4.51,-6.16 -9.07,-12.27 -9.42,-11.88 -9.42,-11.88 -18.9,-23.71 -4.88,-5.72 -4.9,-5.71 -9.82,-11.4 -5,-5.53 -5,-5.54 -10.03,-11.05 -5.11,-5.35 -5.11,-5.36 -10.25,-10.68 -5.21,-5.17 -5.21,-5.17 -10.45,-10.31 -5.3,-4.96 -5.3,-4.97 -10.63,-9.9 -6.98,-6.09 -6.97,-6.1 -13.99,-12.14 -9.32,-7.52 -9.32,-7.52 -18.69,-14.98 -5.63,-4.19 -5.64,-4.18 -11.3,-8.32 -5.62,-3.9 -5.62,-3.9 -11.26,-7.77 -5.66,-3.67 -5.66,-3.67 -11.33,-7.3 -5.45,-3.31 -5.45,-3.31 -10.92,-6.58 -5.93,-3.34 -5.93,-3.34 -11.87,-6.64 -5.71,-2.96 -5.7,-2.97 -11.43,-5.89 -6.72,-3.16 -6.72,-3.15 -13.46,-6.27 -4.67,-2.02 -4.67,-2.02 -9.35,-4 -5.66,-2.21 -5.66,-2.21 -11.34,-4.38 -5.63,-1.95 -5.63,-1.95 -11.28,-3.85 -5.59,-1.68 -5.59,-1.68 -11.2,-3.32 -5.54,-1.41 -5.54,-1.41 -11.1,-2.77 -5.48,-1.14 -5.48,-1.14 -10.97,-2.22 -5.42,-0.86 -5.42,-0.86 -10.84,-1.66 -5.33,-0.58 -5.34,-0.58 -10.68,-1.09 -5.24,-0.29 -5.25,-0.29 -10.5,-0.51 -5.15,0.01 -5.15,0.01 -10.3,0.08 -5.04,0.31 -5.05,0.31 -10.09,0.68 -4.92,0.62 -4.93,0.62 -9.85,1.3 -4.8,0.92 -4.8,0.92 -9.6,1.9 -4.67,1.23 -4.67,1.23 -9.33,2.52 -4.54,1.52 -4.55,1.52 -9.07,3.1 -4.4,1.82 -4.4,1.82 -8.78,3.69 -4.26,2.09 -4.26,2.1 -8.49,4.25 -3.52,2.03 -3.52,2.03 -7.01,4.11 m 210.8,568.23 c 0.02,-3.8 0.02,-3.8 -0.01,-7.6 -0.23,-5.78 -0.22,-5.78 -0.49,-11.56 -0.48,-5.92 -0.48,-5.92 -1,-11.83 -0.72,-6.04 -0.72,-6.04 -1.49,-12.07 -0.97,-6.16 -0.97,-6.16 -1.99,-12.3 -1.22,-6.25 -1.22,-6.25 -2.49,-12.48 -1.48,-6.33 -1.48,-6.33 -3,-12.65 -1.72,-6.39 -1.73,-6.39 -3.5,-12.77 -1.98,-6.44 -1.98,-6.44 -4.01,-12.88 -2.24,-6.48 -2.24,-6.48 -4.52,-12.94 -2.49,-6.5 -2.5,-6.51 -5.03,-12.99 -2.74,-6.51 -2.74,-6.51 -5.53,-13.01 -2.97,-6.5 -2.98,-6.5 -5.99,-12.98 -3.21,-6.48 -3.21,-6.48 -6.45,-12.94 -3.42,-6.44 -3.42,-6.44 -6.88,-12.85 -3.63,-6.39 -3.63,-6.39 -7.29,-12.75 -3.82,-6.31 -3.82,-6.31 -7.68,-12.6 -4.01,-6.22 -4.01,-6.22 -8.05,-12.43 -4.18,-6.12 -4.18,-6.12 -8.4,-12.22 -4.34,-6.01 -4.34,-6.01 -8.72,-11.99 -4.5,-5.88 -4.5,-5.88 -9.03,-11.72 -4.64,-5.73 -4.64,-5.73 -9.32,-11.43 -4.77,-5.56 -4.77,-5.56 -9.58,-11.09 -4.9,-5.39 -4.9,-5.39 -9.83,-10.74 -5.01,-5.19 -5.01,-5.19 -10.06,-10.35 -5.11,-4.98 -5.11,-4.98 -10.25,-9.93 -5.2,-4.75 -5.21,-4.75 -10.44,-9.47 -5.29,-4.52 -5.29,-4.52 -10.6,-8.99 -5.36,-4.26 -5.36,-4.26 -10.75,-8.48 -5.41,-3.99 -5.41,-3.99 -10.86,-7.93 -5.47,-3.7 -5.47,-3.7 -10.97,-7.36 -5.5,-3.41 -5.51,-3.41 -11.04,-6.78 -3.08,-1.74 -3.08,-1.74 -6.18,-3.45 m 372.08,433.37 c 5.09,-0.62 5.1,-0.62 10.17,-1.33 4.1,-0.86 4.11,-0.86 8.19,-1.79 3.96,-1.16 3.97,-1.16 7.91,-2.38 3.81,-1.46 3.82,-1.45 7.6,-2.97 4.61,-2.29 4.6,-2.31 9.18,-4.66 2.55,-1.51 2.55,-1.51 5.07,-3.07 3.33,-2.34 3.33,-2.34 6.62,-4.72 3.17,-2.61 3.17,-2.61 6.29,-5.27 3.35,-3.28 3.34,-3.28 6.64,-6.6 2.46,-2.75 2.47,-2.75 4.89,-5.53 2.63,-3.39 2.63,-3.4 5.23,-6.82 2.45,-3.64 2.45,-3.64 4.86,-7.31 2.27,-3.87 2.27,-3.87 4.49,-7.77 2.08,-4.09 2.08,-4.09 4.11,-8.21 1.89,-4.32 1.89,-4.32 3.72,-8.66 1.52,-4.06 1.52,-4.06 3,-8.14 1.66,-5.18 1.66,-5.18 3.27,-10.38 1.29,-4.92 1.29,-4.92 2.53,-9.85 1.08,-5.1 1.08,-5.1 2.12,-10.21 0.87,-5.27 0.87,-5.28 1.69,-10.56 0.67,-5.44 0.67,-5.44 1.28,-10.88 0.45,-5.6 0.45,-5.61 0.85,-11.21 0.22,-5.75 0.22,-5.75 0.4,-11.5 0.01,-5.89 0.01,-5.89 -0.04,-11.78 -0.2,-5.5 -0.2,-5.5 -0.44,-11.01 -0.48,-6.66 -0.47,-6.66 -0.99,-13.32 -0.68,-6.27 -0.67,-6.27 -1.41,-12.53 -1.48,-9.55 -1.48,-9.55 -3.04,-19.09 -1.97,-9.84 -1.98,-9.84 -4.02,-19.67 -1.6,-6.63 -1.61,-6.63 -3.27,-13.25 -1.84,-6.69 -1.82,-6.69 -3.72,-13.37 -4.32,-13.52 -4.31,-13.52 -8.71,-27.02 -3.04,-8.3 -3.05,-8.3 -6.16,-16.58 -4.95,-12.14 -4.95,-12.14 -9.96,-24.27 -3.04,-6.81 -3.04,-6.81 -6.14,-13.6 -5.38,-11.04 -5.38,-11.04 -10.82,-22.05 -4.83,-9.22 -4.84,-9.21 -9.73,-18.4 -3.74,-6.65 -3.74,-6.65 -7.53,-13.28 -7.97,-13.07 -7.97,-13.07 -15.99,-26.1 -4.2,-6.41 -4.2,-6.41 -8.46,-12.78 -8.84,-12.46 -8.84,-12.46 -17.73,-24.88 -4.61,-6.06 -4.62,-6.05 -9.27,-12.06 -4.75,-5.9 -4.75,-5.9 -9.52,-11.78 -4.87,-5.74 -4.87,-5.74 -9.76,-11.46 -4.98,-5.58 -4.98,-5.58 -9.99,-11.13 -5.09,-5.39 -5.08,-5.4 -10.2,-10.76 -6.24,-6.21 -6.24,-6.22 -12.52,-12.37 -9.6,-8.83 -9.61,-8.83 -19.26,-17.59 -5.43,-4.61 -5.44,-4.6 -10.91,-9.17 -5.51,-4.39 -5.51,-4.39 -11.04,-8.75 -5.57,-4.18 -5.57,-4.18 -11.16,-8.32 -5.61,-3.95 -5.61,-3.95 -11.24,-7.87 -5.64,-3.72 -5.64,-3.72 -11.3,-7.41 -5.68,-3.5 -5.68,-3.5 -11.39,-6.96 -5.53,-3.17 -5.53,-3.17 -11.08,-6.3 -5.87,-3.12 -5.87,-3.12 -11.75,-6.19 -5.7,-2.78 -5.7,-2.78 -11.42,-5.51 -5.69,-2.52 -5.69,-2.52 -11.4,-5.01 -5.67,-2.26 -5.67,-2.27 -11.36,-4.49 -5.64,-2.01 -5.64,-2.01 -11.29,-3.98 -5.09,-1.58 -5.09,-1.58 -10.2,-3.13 -6.06,-1.62 -6.06,-1.63 -12.14,-3.21 -5.5,-1.2 -5.5,-1.2 -11.01,-2.35 -5.42,-0.92 -5.43,-0.92 -10.86,-1.79 -5.35,-0.63 -5.36,-0.64 -10.71,-1.22 -5.27,-0.34 -5.27,-0.34 -10.54,-0.63 -5.17,-0.06 -5.18,-0.06 -10.35,-0.05 -5.06,0.25 -5.07,0.25 -10.13,0.56 -4.95,0.55 -4.96,0.55 -9.9,1.16 -4.83,0.86 -4.83,0.86 -9.65,1.78 -4.8,1.19 -4.8,1.19 -9.58,2.44 -4.48,1.43 -4.48,1.44 -8.94,2.92 -3.03,1.19 -3.03,1.2 -6.04,2.43 -5.69,2.61 -5.7,2.59 -11.37,5.26 -4.15,2.3 -4.14,2.31 -8.26,4.68 -3.99,2.58 -3.99,2.58 -7.95,5.22 -3.83,2.85 -3.84,2.85 -7.63,5.74 -3.68,3.11 -3.68,3.11 -7.31,6.26 -3.51,3.36 -3.5,3.37 -6.97,6.76 -1.83,1.97 -1.83,1.97 -3.63,3.97 m -44.26,17.49 c 2.89,-1.68 2.9,-1.68 5.81,-3.32 4.27,-2.13 4.27,-2.13 8.57,-4.21 4.41,-1.86 4.41,-1.86 8.85,-3.67 4.54,-1.6 4.55,-1.6 9.11,-3.14 4.68,-1.33 4.68,-1.33 9.37,-2.6 4.8,-1.06 4.8,-1.06 9.61,-2.06 4.91,-0.78 4.91,-0.77 9.83,-1.5 3.13,-0.32 3.13,-0.32 6.27,-0.6 7,-0.39 7,-0.41 14.01,-0.74 5.2,0.05 5.21,0.06 10.41,0.18 5.29,0.35 5.3,0.35 10.58,0.75 5.37,0.64 5.37,0.64 10.74,1.33 5.43,0.93 5.44,0.93 10.86,1.91 5.5,1.23 5.5,1.23 10.99,2.5 3.66,1 3.66,1.01 7.32,2.04 7.49,2.36 7.5,2.34 14.98,4.75 5.63,2.1 5.63,2.11 11.24,4.27 5.67,2.39 5.67,2.4 11.32,4.84 5.69,2.67 5.69,2.67 11.35,5.38 5.7,2.94 5.7,2.94 11.37,5.92 5.7,3.19 5.7,3.19 11.38,6.43 5.68,3.44 5.69,3.44 11.35,6.92 5.67,3.69 5.67,3.69 11.32,7.41 5.65,3.92 5.65,3.91 11.27,7.87 7.15,5.35 7.16,5.34 14.26,10.74 9.54,7.71 9.54,7.71 19.03,15.48 5.49,4.78 5.48,4.79 10.94,9.61 5.34,4.92 5.35,4.92 10.66,9.87 8.59,8.49 8.6,8.49 17.14,17.03 7.07,7.46 7.07,7.47 14.09,14.98 4.96,5.56 4.95,5.56 9.87,11.15 4.88,5.77 4.89,5.76 9.73,11.57 8.72,11.09 8.72,11.09 17.38,22.22 5.14,7.01 5.13,7.02 10.23,14.06 4.32,6.27 4.32,6.28 8.61,12.57 4.16,6.38 4.16,6.38 8.28,12.77 4.01,6.51 4.03,6.5 7.99,13.04 6.71,11.84 6.71,11.84 13.36,23.71 4.19,7.99 4.19,7.99 8.31,16.02 6.37,13.5 6.39,13.49 12.65,27.04 5.65,13.58 5.61,13.6 11.16,27.22 2.53,6.8 2.53,6.81 5,13.63 4.45,13.59 4.48,13.59 8.84,27.21 3.11,11.22 3.08,11.23 6.1,22.47 2.07,8.77 2.08,8.77 4.08,17.55 1.89,9.94 1.89,9.95 3.7,19.9 1.41,9.43 1.4,9.43 2.74,18.87 0.67,6.25 0.66,6.25 1.28,12.51 0.44,6.14 0.44,6.14 0.84,12.27 0.22,6 0.23,6.01 0.4,12.01 0,5.88 0,5.88 -0.05,11.76 -0.23,5.67 -0.23,5.67 -0.5,11.35 -0.47,5.56 -0.46,5.56 -0.98,11.12 -0.68,5.32 -0.68,5.32 -1.42,10.62 -0.92,5.16 -0.92,5.16 -1.89,10.31 -1.16,4.96 -1.16,4.96 -2.36,9.91 -1.38,4.75 -1.38,4.75 -2.81,9.49 -1.59,4.55 -1.59,4.55 -3.24,9.08 -1.8,4.34 -1.8,4.34 -3.66,8.66 -2.01,4.12 -2.01,4.12 -4.07,8.22 -2.21,3.9 -2.21,3.9 -4.46,7.77 -2.4,3.67 -2.41,3.68 -4.85,7.32 -2.59,3.44 -2.6,3.44 -5.23,6.85 -2.77,3.2 -2.77,3.2 -5.59,6.37 -2.94,2.97 -2.94,2.97 -5.93,5.89 -3.11,2.72 -3.11,2.73 -6.27,5.4 -3.27,2.47 -3.28,2.47 -6.59,4.89 -3.43,2.21 -3.44,2.21 -6.9,4.38 -6.63,3.84 -6.63,3.84 -13.28,7.64 m -411.7,-416.65 c 8.96,5.48 8.96,5.48 17.88,11.03 5.53,3.75 5.52,3.77 11.02,7.57 5.46,4.02 5.46,4.02 10.9,8.07 5.41,4.27 5.41,4.27 10.78,8.57 5.33,4.49 5.33,4.49 10.62,9.03 5.24,4.72 5.24,4.72 10.44,9.47 5.13,4.94 5.13,4.94 10.23,9.92 5.01,5.15 5.01,5.15 9.99,10.33 4.88,5.35 4.88,5.36 9.73,10.74 4.74,5.54 4.74,5.54 9.44,11.11 4.59,5.72 4.59,5.72 9.14,11.47 4.43,5.88 4.43,5.88 8.82,11.78 4.27,6.03 4.27,6.03 8.5,12.07 4.09,6.15 4.09,6.15 8.15,12.32 3.92,6.25 3.92,6.25 7.79,12.52 3.73,6.35 3.73,6.35 7.43,12.72 3.54,6.41 3.54,6.41 7.04,12.85 3.34,6.48 3.34,6.48 6.65,12.97 3.13,6.51 3.14,6.51 6.23,13.05 3.12,7 3.12,7 6.2,14.02 2.54,6.15 2.54,6.15 5.05,12.32 2.45,6.45 2.45,6.45 4.87,12.93 2.25,6.5 2.25,6.5 4.46,13.01 2.01,6.46 2.01,6.46 3.98,12.93 1.77,6.39 1.77,6.4 3.5,12.8 1.51,6.32 1.51,6.32 2.98,12.64 1.26,6.22 1.26,6.22 2.47,12.45 1,6.1 1,6.1 1.95,12.21 0.72,5.98 0.72,5.98 1.39,11.96 0.45,5.83 0.45,5.83 0.84,11.66 0.18,5.68 0.18,5.68 0.3,11.35 -0.09,5.33 -0.09,5.33 -0.23,10.65 m 151.54,62.16 c 4.89,-0.81 4.89,-0.81 9.76,-1.7 4.05,-1.01 4.05,-1.02 8.09,-2.1 3.92,-1.3 3.92,-1.3 7.82,-2.65 3.79,-1.57 3.79,-1.57 7.55,-3.2 4.22,-2.16 4.21,-2.17 8.4,-4.38 2.94,-1.78 2.94,-1.78 5.85,-3.61 3.35,-2.36 3.35,-2.36 6.67,-4.77 3.19,-2.61 3.19,-2.62 6.35,-5.28 3.02,-2.86 3.02,-2.86 6.01,-5.77 2.56,-2.79 2.56,-2.79 5.08,-5.61 2.97,-3.68 2.97,-3.68 5.9,-7.39 2.49,-3.59 2.49,-3.59 4.93,-7.21 2.1,-3.47 2.1,-3.48 4.15,-6.98 2.3,-4.37 2.3,-4.37 4.55,-8.76 1.91,-4.29 1.91,-4.29 3.77,-8.6 1.69,-4.48 1.69,-4.48 3.33,-8.98 1.48,-4.7 1.48,-4.7 2.9,-9.41 1.26,-4.9 1.26,-4.9 2.46,-9.82 1.02,-5.1 1.03,-5.1 1.99,-10.22 0.91,-6.44 0.9,-6.45 1.75,-12.9 0.45,-4.34 0.45,-4.34 0.85,-8.69 0.32,-5.67 0.32,-5.67 0.6,-11.33 0.1,-5.82 0.1,-5.82 0.15,-11.65 -0.13,-5.97 -0.13,-5.97 -0.3,-11.94 -0.35,-6.11 -0.35,-6.11 -0.75,-12.22 -0.57,-6.23 -0.57,-6.23 -1.18,-12.46 -0.79,-6.35 -0.79,-6.35 -1.62,-12.69 -1,-6.45 -0.99,-6.45 -2.05,-12.89 -2.61,-13 -2.61,-13 -5.29,-25.98 -1.65,-6.83 -1.66,-6.83 -3.38,-13.65 -3.39,-11.91 -3.39,-11.91 -6.86,-23.8 -2.7,-8.39 -2.7,-8.39 -5.48,-16.76 -3.79,-10.36 -3.79,-10.36 -7.66,-20.69 -4.08,-10.09 -4.08,-10.09 -8.22,-20.16 -3.01,-6.79 -3,-6.8 -6.06,-13.57 -6.58,-13.47 -6.56,-13.48 -13.23,-26.91 -5.94,-10.91 -5.96,-10.9 -11.99,-21.76 -5.24,-8.87 -5.25,-8.87 -10.55,-17.7 -4.09,-6.42 -4.1,-6.42 -8.22,-12.82 -4.26,-6.31 -4.24,-6.32 -8.54,-12.61 -8.97,-12.3 -8.97,-12.3 -18.01,-24.55 -4.68,-5.97 -4.68,-5.98 -9.42,-11.9 -9.76,-11.51 -9.74,-11.54 -19.59,-22.98 -10.18,-10.92 -10.21,-10.9 -20.48,-21.75 -5.24,-5.21 -5.24,-5.21 -10.52,-10.38 -7.6,-7.04 -7.59,-7.05 -15.23,-14.05 -8.61,-7.46 -8.62,-7.46 -17.27,-14.86 -5.52,-4.44 -5.53,-4.44 -11.08,-8.84 -5.58,-4.23 -5.58,-4.23 -11.17,-8.42 -5.62,-4 -5.62,-4.01 -11.26,-7.98 -5.64,-3.77 -5.64,-3.77 -11.3,-7.51 -5.66,-3.54 -5.66,-3.54 -11.35,-7.04 -5.67,-3.29 -5.67,-3.29 -11.37,-6.54 -5.67,-3.04 -5.67,-3.04 -11.37,-6.03 -5.66,-2.77 -5.67,-2.78 -11.35,-5.5 -5.65,-2.5 -5.65,-2.5 -11.32,-4.96 -5.63,-2.22 -5.63,-2.22 -11.28,-4.39 -5.59,-1.93 -5.59,-1.93 -11.2,-3.82 -5.55,-1.63 -5.55,-1.64 -11.12,-3.22 -6.17,-1.47 -6.17,-1.46 -12.36,-2.87 -4.77,-0.92 -4.77,-0.92 -9.55,-1.79 -5.38,-0.75 -5.38,-0.76 -10.76,-1.46 -5.31,-0.47 -5.31,-0.47 -10.62,-0.88 -5.23,-0.18 -5.23,-0.18 -10.46,-0.31 -5.14,0.1 -5.14,0.1 -10.28,0.26 -5.04,0.38 -5.05,0.38 -10.09,0.82 -4.94,0.66 -4.94,0.66 -9.88,1.38 -4.84,0.93 -4.84,0.93 -9.67,1.92 -4.71,1.21 -4.71,1.21 -9.42,2.47 -3.33,1.07 -3.33,1.07 -6.65,2.18 -5.72,2.17 -5.73,2.16 -11.44,4.39 -4.33,2 -4.33,2.01 -8.63,4.08 -4.18,2.27 -4.18,2.27 -8.34,4.6 -4.02,2.53 -4.03,2.54 -8.02,5.12 -3.87,2.8 -3.87,2.8 -7.71,5.64 -3.69,3.05 -3.71,3.04 -7.36,6.15 -4.79,4.65 -4.79,4.65 -9.52,9.37 m -51.34,21.09 c 5.77,-3.4 5.77,-3.4 11.57,-6.74 4.22,-2.15 4.22,-2.15 8.47,-4.24 4.38,-1.86 4.38,-1.87 8.78,-3.67 4.53,-1.57 4.53,-1.57 9.08,-3.09 4.67,-1.29 4.67,-1.29 9.35,-2.53 4.81,-1 4.81,-1 9.62,-1.95 4.93,-0.73 4.93,-0.73 9.86,-1.39 5.04,-0.45 5.05,-0.45 10.09,-0.84 5.14,-0.17 5.14,-0.17 10.29,-0.28 5.24,0.11 5.24,0.12 10.48,0.28 5.32,0.39 5.32,0.39 10.65,0.82 5.4,0.66 5.4,0.67 10.8,1.38 4.15,0.7 4.16,0.7 8.3,1.45 6.85,1.43 6.85,1.42 13.68,2.91 5.58,1.46 5.58,1.47 11.15,2.98 5.62,1.74 5.62,1.74 11.23,3.52 4.45,1.58 4.45,1.58 8.89,3.19 6.88,2.7 6.88,2.69 13.74,5.43 5.69,2.52 5.7,2.52 11.36,5.1 8.44,4.25 8.45,4.24 16.85,8.56 8.63,4.87 8.63,4.87 17.21,9.81 5.66,3.54 5.65,3.55 11.28,7.15 5.63,3.8 5.63,3.8 11.22,7.64 5.58,4.06 5.59,4.06 11.14,8.15 5.54,4.29 5.54,4.3 11.04,8.62 5.48,4.53 5.48,4.53 10.93,9.08 5.41,4.74 5.41,4.74 10.8,9.52 5.35,4.95 5.35,4.94 10.66,9.93 6.81,6.73 6.82,6.72 13.58,13.5 8.73,9.23 8.72,9.24 17.4,18.53 4.99,5.65 4.98,5.66 9.94,11.35 4.87,5.81 4.88,5.81 9.72,11.65 6.84,8.68 6.85,8.68 13.64,17.4 7.07,9.55 7.06,9.55 14.08,19.14 4.38,6.31 4.39,6.3 8.71,12.64 8.29,12.89 8.29,12.89 16.52,25.82 3.93,6.55 3.93,6.55 7.79,13.14 7.31,13.31 7.31,13.31 14.56,26.66 3.39,6.68 3.38,6.69 6.72,13.4 4.15,8.92 4.17,8.92 8.26,17.86 4.83,11.35 4.82,11.35 9.58,22.73 2.59,6.75 2.58,6.76 5.12,13.53 2.36,6.75 2.36,6.75 4.67,13.51 2.14,6.72 2.14,6.72 4.24,13.45 1.92,6.68 1.92,6.68 3.8,13.38 1.7,6.63 1.7,6.63 3.36,13.28 1.48,6.58 1.48,6.58 2.93,13.17 1.26,6.51 1.26,6.51 2.49,13.03 1.05,6.43 1.05,6.43 2.06,12.87 0.84,6.35 0.84,6.35 1.63,12.7 0.62,6.24 0.62,6.24 1.2,12.49 0.41,6.14 0.41,6.14 0.78,12.28 0.19,6.01 0.2,6.01 0.34,12.03 -0.08,7.49 -0.06,7.5 -0.22,14.98 -0.59,9.73 -0.6,9.73 -1.28,19.45 -0.63,5.43 -0.65,5.43 -1.34,10.86 -0.86,5.25 -0.86,5.25 -1.76,10.5 -1.06,5.08 -1.06,5.08 -2.18,10.14 -1.16,4.5 -1.17,4.5 -2.38,8.98 -1.58,5.07 -1.58,5.07 -3.21,10.12 -1.68,4.46 -1.69,4.46 -3.42,8.91 -1.89,4.24 -1.89,4.24 -3.83,8.46 -2.09,4 -2.09,4 -4.24,7.98 -2.29,3.76 -2.29,3.77 -4.64,7.5 -2.5,3.5 -2.5,3.5 -5.06,6.97 -2.7,3.24 -2.7,3.25 -5.45,6.45 -2.89,2.97 -2.9,2.98 -5.84,5.91 -3.08,2.71 -3.09,2.71 -6.21,5.37 -3.27,2.44 -3.26,2.46 -6.57,4.83 -7.24,4.39 -7.24,4.39 -14.53,8.7 m -49.74,16.99 c 6.03,-0.87 6.04,-0.87 12.05,-1.83 4.09,-0.96 4.09,-0.97 8.16,-2 3.94,-1.24 3.95,-1.24 7.88,-2.54 3.81,-1.51 3.81,-1.51 7.59,-3.09 3.66,-1.78 3.66,-1.79 7.3,-3.62 3.39,-1.94 3.4,-1.92 6.76,-3.91 3.45,-2.46 3.45,-2.47 6.86,-4.98 3.16,-2.6 3.16,-2.6 6.28,-5.25 2.99,-2.87 2.99,-2.87 5.93,-5.79 2.79,-3.15 2.79,-3.15 5.53,-6.33 2.59,-3.42 2.6,-3.42 5.14,-6.87 2.39,-3.68 2.39,-3.68 4.73,-7.39 2.19,-3.92 2.19,-3.93 4.33,-7.88 1.98,-4.17 1.98,-4.17 3.92,-8.36 1.78,-4.4 1.78,-4.4 3.51,-8.81 1.57,-4.62 1.57,-4.62 3.1,-9.25 1.37,-4.83 1.37,-4.83 2.69,-9.66 1.16,-5.02 1.16,-5.02 2.27,-10.05 0.95,-5.21 0.97,-5.21 1.86,-10.43 1.07,-8.8 1.08,-8.8 2.07,-17.61 0.54,-7.84 0.52,-7.84 0.99,-15.69 0.12,-5.85 0.11,-5.85 0.18,-11.7 -0.11,-5.99 -0.11,-5.99 -0.25,-11.98 -0.32,-6.1 -0.32,-6.11 -0.67,-12.21 -0.53,-6.22 -0.53,-6.23 -1.1,-12.45 -0.75,-6.32 -0.75,-6.32 -1.53,-12.64 -0.96,-6.42 -0.96,-6.42 -1.96,-12.83 -1.18,-6.5 -1.16,-6.51 -2.4,-13 -2.82,-12.42 -2.81,-12.43 -5.71,-24.83 -2,-7.47 -2.02,-7.47 -4.08,-14.92 -2.05,-6.72 -2.06,-6.72 -4.15,-13.43 -2.27,-6.76 -2.27,-6.76 -4.58,-13.5 -2.5,-6.77 -2.5,-6.77 -5.03,-13.53 -2.7,-6.78 -2.71,-6.78 -5.45,-13.55 -2.9,-6.74 -2.9,-6.74 -5.84,-13.47 -3.13,-6.8 -3.13,-6.8 -6.29,-13.58 -3.31,-6.74 -3.29,-6.75 -6.65,-13.46 -7.16,-13.36 -7.16,-13.36 -14.39,-26.68 -3.82,-6.6 -3.83,-6.6 -7.71,-13.17 -8.16,-12.97 -8.13,-12.99 -16.38,-25.9 -8.72,-12.62 -8.75,-12.6 -17.56,-25.16 -4.56,-6.14 -4.57,-6.14 -9.19,-12.24 -6.66,-8.41 -6.66,-8.42 -13.37,-16.78 -7.55,-8.94 -7.56,-8.93 -15.16,-17.83 -5.25,-5.83 -5.26,-5.83 -10.55,-11.63 -5.86,-6.13 -5.85,-6.14 -11.75,-12.22 -9.78,-9.51 -9.79,-9.51 -19.62,-18.96 -5.36,-4.83 -5.37,-4.83 -10.77,-9.6 -9.11,-7.53 -9.1,-7.54 -18.26,-15 -7.36,-5.61 -7.37,-5.6 -14.78,-11.15 -5.58,-3.9 -5.59,-3.9 -11.2,-7.75 -5.63,-3.65 -5.63,-3.65 -11.28,-7.26 -5.65,-3.39 -5.65,-3.39 -11.32,-6.75 -5.67,-3.14 -5.66,-3.15 -11.36,-6.24 -9.36,-4.59 -9.36,-4.6 -18.75,-9.11 -7.65,-3.3 -7.65,-3.29 -15.33,-6.52 -5.64,-2.11 -5.65,-2.1 -11.31,-4.17 -5.4,-1.77 -5.4,-1.77 -10.81,-3.5 -5.8,-1.65 -5.8,-1.65 -11.61,-3.25 -5.53,-1.32 -5.53,-1.31 -11.07,-2.58 -3.64,-0.7 -3.64,-0.7 -7.29,-1.36 -7.25,-1.11 -7.25,-1.13 -14.51,-2.18 -5.34,-0.52 -5.34,-0.51 -10.69,-0.96 -5.26,-0.22 -5.26,-0.22 -10.52,-0.4 -5.16,0.05 -5.16,0.05 -10.33,0.15 -5.07,0.32 -5.07,0.32 -10.13,0.7 -4.96,0.6 -4.96,0.6 -9.91,1.26 -4.85,0.89 -4.85,0.89 -9.68,1.84 -4.71,1.16 -4.71,1.16 -9.41,2.39 -4.58,1.45 -4.58,1.45 -9.14,2.96 -4.43,1.75 -4.44,1.75 -8.85,3.55 -4.28,2.03 -4.28,2.03 -8.53,4.12 -4.12,2.32 -4.12,2.32 -8.21,4.7 -3.95,2.62 -3.95,2.62 -7.86,5.29 -3.77,2.89 -3.77,2.9 -7.5,5.85 -3.6,3.17 -3.61,3.17 -7.16,6.4 -4.11,4.24 -4.11,4.24 -8.16,8.53 m -51.65,22.48 c 9.63,-5.49 9.63,-5.49 19.32,-10.88 4.3,-2.04 4.31,-2.02 8.65,-3.98 4.73,-1.83 4.73,-1.82 9.48,-3.59 4.32,-1.37 4.32,-1.37 8.66,-2.69 4.72,-1.17 4.72,-1.17 9.46,-2.28 4.84,-0.88 4.84,-0.88 9.7,-1.69 4.96,-0.58 4.96,-0.58 9.93,-1.1 5.08,-0.27 5.08,-0.27 10.15,-0.48 5.19,0.04 5.19,0.04 10.37,0.13 5.28,0.35 5.28,0.34 10.55,0.75 6.79,0.89 6.79,0.9 13.58,1.85 4.02,0.69 4.02,0.69 8.03,1.42 5.51,1.23 5.51,1.23 11.01,2.51 5.57,1.5 5.58,1.5 11.13,3.06 5.62,1.79 5.63,1.79 11.23,3.62 5.66,2.05 5.66,2.06 11.31,4.15 5.68,2.32 5.68,2.33 11.36,4.69 5.42,2.45 5.42,2.45 10.83,4.94 6.01,2.96 6.01,2.96 11.99,5.96 5.72,3.07 5.72,3.08 11.42,6.19 5.72,3.32 5.72,3.32 11.41,6.67 5.7,3.55 5.7,3.55 11.37,7.14 5.67,3.78 5.68,3.77 11.31,7.59 9.51,6.93 9.51,6.93 18.97,13.92 7.25,5.71 7.24,5.72 14.45,11.48 5.47,4.63 5.46,4.64 10.9,9.3 5.39,4.84 5.39,4.84 10.75,9.7 5.3,5.02 5.3,5.02 10.58,10.08 5.21,5.21 5.21,5.21 10.39,10.45 5.11,5.39 5.11,5.39 10.19,10.81 4.99,5.57 4.99,5.57 9.95,11.16 4.87,5.74 4.88,5.74 9.72,11.5 4.74,5.89 4.75,5.88 9.46,11.81 7.23,9.64 7.23,9.64 14.41,19.33 6.19,8.84 6.21,8.83 12.33,17.72 8.23,12.88 8.22,12.89 16.37,25.81 3.89,6.57 3.89,6.57 7.72,13.17 7.26,13.35 7.29,13.34 14.46,26.74 6.6,13.52 6.59,13.53 13.08,27.1 4.58,10.49 4.56,10.5 9.05,21.03 3.95,9.93 3.94,9.94 7.82,19.89 2.45,6.79 2.46,6.79 4.85,13.61 4.19,13.2 4.19,13.2 8.31,26.43 1.93,6.98 1.92,6.98 3.79,13.98 1.61,6.62 1.61,6.62 3.18,13.25 1.39,6.54 1.39,6.54 2.75,13.09 1.09,6.05 1.09,6.05 2.14,12.11 1.01,6.76 1.01,6.76 1.97,13.52 0.7,6.24 0.7,6.24 1.36,12.49 0.46,6.12 0.46,6.12 0.87,12.24 0.23,5.99 0.23,5.99 0.41,11.97 -0.01,5.85 -0.01,5.85 -0.07,11.7 -0.3,6.49 -0.3,6.49 -0.65,12.99 -0.39,4.75 -0.39,4.75 -0.83,9.49 -0.68,5.38 -0.68,5.39 -1.41,10.76 -0.89,5.22 -0.89,5.22 -1.83,10.42 -1.11,5.04 -1.1,5.04 -2.27,10.07 -1.64,5.85 -1.65,5.85 -3.34,11.69 -1.19,3.66 -1.19,3.66 -2.42,7.31 -1.72,4.46 -1.72,4.46 -3.49,8.9 -1.91,4.25 -1.92,4.25 -3.87,8.49 -1.38,2.64 -1.38,2.64 -2.79,5.27 -3.04,5.2 -3.02,5.22 -6.11,10.39 -2.47,3.6 -2.48,3.59 -5,7.15 -2.66,3.35 -2.66,3.35 -5.36,6.67 -2.84,3.11 -2.84,3.11 -5.71,6.18 -3.01,2.85 -3.01,2.86 -6.06,5.67 -3.17,2.59 -3.17,2.6 -6.39,5.15 -3.33,2.33 -3.33,2.34 -6.71,4.61 -7.17,4.2 -7.17,4.2 -14.38,8.33 m -44.22,14.55 c 6.07,-0.87 6.08,-0.87 12.12,-1.87 5.96,-1.56 5.96,-1.59 11.89,-3.25 2.86,-1.03 2.86,-1.04 5.7,-2.13 3.71,-1.66 3.72,-1.65 7.41,-3.37 3.56,-1.93 3.57,-1.94 7.1,-3.93 3.41,-2.22 3.41,-2.22 6.79,-4.49 3.21,-2.46 3.21,-2.46 6.38,-4.97 3.13,-2.78 3.14,-2.77 6.22,-5.61 4.19,-4.53 4.17,-4.55 8.32,-9.12 1.47,-1.74 1.47,-1.74 2.91,-3.51 2.53,-3.46 2.54,-3.46 5.02,-6.95 2.42,-3.77 2.42,-3.78 4.79,-7.59 2.2,-3.96 2.2,-3.96 4.35,-7.94 2.01,-4.19 2.01,-4.19 3.97,-8.39 1.81,-4.39 1.81,-4.4 3.58,-8.81 1.61,-4.6 1.61,-4.6 3.18,-9.21 1.41,-4.79 1.41,-4.8 2.77,-9.6 1.21,-4.98 1.21,-4.99 2.37,-9.98 0.99,-5.16 0.99,-5.16 1.93,-10.34 0.78,-5.33 0.78,-5.34 1.51,-10.68 0.55,-5.5 0.55,-5.5 1.06,-11.01 0.33,-5.66 0.33,-5.66 0.62,-11.33 0.1,-5.81 0.1,-5.81 0.16,-11.63 -0.13,-5.96 -0.13,-5.96 -0.31,-11.91 -0.36,-6.1 -0.36,-6.1 -0.77,-12.19 -0.61,-6.22 -0.61,-6.22 -1.26,-12.44 -0.84,-6.33 -0.84,-6.33 -1.73,-12.67 -1.07,-6.44 -1.07,-6.44 -2.19,-12.88 -1.3,-6.53 -1.3,-6.53 -2.64,-13.05 -1.52,-6.62 -1.51,-6.62 -3.08,-13.22 -3.34,-12.2 -3.34,-12.2 -6.75,-24.37 -2.5,-8 -2.49,-8.01 -5.07,-15.98 -4.91,-13.64 -4.92,-13.64 -9.91,-27.25 -2.74,-6.83 -2.74,-6.84 -5.54,-13.65 -6.06,-13.63 -6.06,-13.63 -12.19,-27.23 -3.29,-6.78 -3.3,-6.77 -6.64,-13.53 -3.47,-6.74 -3.45,-6.74 -6.97,-13.45 -7.45,-13.29 -7.46,-13.29 -14.97,-26.54 -3.95,-6.54 -3.96,-6.53 -7.96,-13.04 -4.54,-7.07 -4.53,-7.08 -9.13,-14.13 -7.75,-11.22 -7.75,-11.22 -15.57,-22.4 -5.03,-6.79 -5.04,-6.78 -10.12,-13.53 -4.68,-5.95 -4.68,-5.95 -9.4,-11.87 -4.81,-5.8 -4.81,-5.8 -9.66,-11.56 -4.94,-5.63 -4.94,-5.64 -9.91,-11.24 -5.5,-5.91 -5.5,-5.91 -11.03,-11.79 -4.71,-4.83 -4.71,-4.83 -9.46,-9.63 -5.25,-5.1 -5.25,-5.1 -10.54,-10.17 -5.34,-4.9 -5.35,-4.9 -10.72,-9.78 -5.42,-4.71 -5.42,-4.71 -10.87,-9.39 -5.49,-4.51 -5.49,-4.51 -11,-8.99 -5.55,-4.3 -5.55,-4.3 -11.13,-8.57 -5.59,-4.08 -5.59,-4.09 -11.21,-8.14 -7.63,-5.14 -7.62,-5.15 -15.28,-10.24 -9.37,-5.78 -9.38,-5.78 -18.78,-11.49 -5.69,-3.19 -5.7,-3.18 -11.42,-6.31 -5.7,-2.93 -5.7,-2.93 -11.42,-5.82 -5.7,-2.68 -5.7,-2.68 -11.41,-5.31 -5.68,-2.43 -5.68,-2.43 -11.37,-4.81 -5.65,-2.16 -5.65,-2.16 -11.32,-4.28 -5.62,-1.89 -5.62,-1.89 -11.25,-3.74 -5.55,-1.62 -5.55,-1.62 -11.12,-3.18 -5.53,-1.35 -5.53,-1.35 -11.07,-2.64 -5.44,-1.06 -5.45,-1.06 -10.9,-2.06 -5.38,-0.76 -5.38,-0.75 -10.76,-1.47 -3,-0.27 -3,-0.26 -6.01,-0.5 -7.48,-0.33 -7.49,-0.36 -14.97,-0.64 -5.11,0.13 -5.12,0.15 -10.22,0.36 -4.99,0.45 -5,0.45 -9.98,0.96 -4.88,0.76 -4.88,0.76 -9.76,1.57 -4.76,1.05 -4.76,1.03 -9.51,2.15 -6.5,2 -6.49,2.03 -12.97,4.09 -2.65,0.95 -2.65,0.95 -5.29,1.94 -4.37,1.9 -4.37,1.9 -8.72,3.85 -4.25,2.17 -4.25,2.18 -8.46,4.41 -4.08,2.43 -4.08,2.43 -8.13,4.91 -3.99,2.74 -3.99,2.75 -7.94,5.54 -3.72,2.91 -3.73,2.91 -7.41,5.87 -3.61,3.21 -3.61,3.21 -7.18,6.46 -3.64,3.67 -3.64,3.67 -7.23,7.38 m -52,21.76 c 4.66,-2.83 4.67,-2.83 9.36,-5.62 4.2,-2.23 4.2,-2.23 8.43,-4.4 4.35,-1.97 4.36,-1.97 8.73,-3.88 4.5,-1.7 4.5,-1.7 9.01,-3.34 4.7,-1.45 4.7,-1.45 9.41,-2.84 4.69,-1.14 4.69,-1.14 9.39,-2.23 4.87,-0.89 4.88,-0.89 9.76,-1.72 4.98,-0.62 4.98,-0.62 9.97,-1.17 5.09,-0.34 5.09,-0.34 10.18,-0.62 5.18,-0.07 5.18,-0.07 10.36,-0.07 5.27,0.21 5.27,0.21 10.54,0.48 5.34,0.5 5.34,0.5 10.68,1.04 5.41,0.78 5.42,0.78 10.82,1.61 5.48,1.06 5.48,1.06 10.95,2.17 5.53,1.35 5.53,1.35 11.05,2.74 5.58,1.63 5.58,1.63 11.14,3.31 5.62,1.91 5.62,1.91 11.22,3.88 5.64,2.2 5.64,2.2 11.27,4.45 5.67,2.5 5.67,2.5 11.32,5.04 5.68,2.77 5.68,2.77 11.34,5.59 5.68,3.04 5.68,3.05 11.35,6.13 5.68,3.31 5.68,3.31 11.34,6.66 5.67,3.56 5.67,3.56 11.31,7.16 5.65,3.8 5.65,3.8 11.27,7.65 6,4.33 6,4.33 11.97,8.7 5.19,3.97 5.19,3.97 10.36,7.96 5.52,4.49 5.52,4.49 11.02,9 5.47,4.68 5.48,4.68 10.92,9.39 6.34,5.77 6.35,5.77 12.65,11.58 9.64,9.42 9.66,9.4 19.23,18.89 10.22,10.97 10.21,10.98 20.35,22.03 6.47,7.52 6.46,7.53 12.85,15.11 8.03,10.03 8.05,10.01 16,20.1 9,12.32 8.99,12.33 17.9,24.72 5.56,8.31 5.55,8.32 11.04,16.68 6.76,10.92 6.76,10.92 13.46,21.88 3.77,6.57 3.75,6.58 7.47,13.17 3.57,6.64 3.57,6.64 7.1,13.3 3.38,6.7 3.38,6.7 6.72,13.41 3.18,6.74 3.18,6.74 6.33,13.49 2.99,6.76 3.01,6.76 5.95,13.54 5.4,13.58 5.4,13.58 10.72,27.18 2.42,6.78 2.41,6.78 4.77,13.58 2.39,7.4 2.4,7.4 4.74,14.82 3.19,11.23 3.19,11.23 6.31,22.47 2.02,8.21 2.01,8.22 3.98,16.44 1.38,6.58 1.38,6.58 2.72,13.17 1.18,6.5 1.18,6.5 2.32,13.01 0.96,6.41 0.96,6.41 1.89,12.83 0.75,6.32 0.75,6.32 1.46,12.64 0.54,6.2 0.55,6.2 1.04,12.41 0.33,6.08 0.34,6.08 0.61,12.16 0.04,9.85 0.04,9.85 0,19.7 -0.35,7.53 -0.37,7.54 -0.8,15.06 -0.54,5.47 -0.55,5.47 -1.14,10.94 -0.78,5.29 -0.78,5.29 -1.6,10.57 -1,5.09 -1,5.09 -2.06,10.18 -1.22,4.89 -1.22,4.89 -2.5,9.76 -1.45,4.68 -1.45,4.68 -2.96,9.34 -1.71,4.54 -1.72,4.54 -3.48,9.06 -1.86,4.14 -1.86,4.15 -3.76,8.27 -2.1,4 -2.1,4 -4.25,7.98 -2.31,3.77 -2.31,3.77 -4.66,7.51 -2.5,3.54 -2.5,3.54 -5.04,7.05 -2.73,3.34 -2.73,3.34 -5.5,6.64 -2.83,3.02 -2.84,3.02 -5.71,6 -3.04,2.81 -3.05,2.81 -6.13,5.58 -3.22,2.56 -3.22,2.56 -6.47,5.08 -3.37,2.31 -3.37,2.31 -6.79,4.57 -7.16,4.2 -7.16,4.2 -14.36,8.34 m -34.3,13.41 c 1.98,-0.41 1.98,-0.41 3.95,-0.86 4.01,-1.15 4.01,-1.14 8,-2.33 3.88,-1.41 3.88,-1.41 7.73,-2.88 3.74,-1.68 3.74,-1.68 7.46,-3.41 3.23,-1.74 3.24,-1.74 6.44,-3.53 3.81,-2.4 3.81,-2.4 7.59,-4.85 3.29,-2.45 3.29,-2.46 6.54,-4.96 2.96,-2.57 2.96,-2.57 5.88,-5.17 3.11,-3.11 3.12,-3.11 6.19,-6.26 2.78,-3.2 2.78,-3.21 5.51,-6.45 2.59,-3.45 2.59,-3.45 5.13,-6.93 2.39,-3.69 2.4,-3.69 4.74,-7.41 2.2,-3.92 2.2,-3.93 4.35,-7.88 1.98,-4.15 1.98,-4.16 3.92,-8.34 1.77,-4.38 1.77,-4.38 3.5,-8.79 1.55,-4.61 1.55,-4.61 3.05,-9.24 1.33,-4.83 1.33,-4.83 2.6,-9.67 1.1,-5.04 1.1,-5.05 2.15,-10.1 0.87,-5.24 0.87,-5.24 1.69,-10.49 0.65,-5.42 0.65,-5.42 1.25,-10.85 0.43,-5.6 0.43,-5.6 0.81,-11.21 0.2,-5.62 0.19,-5.62 0.35,-11.24 -0.01,-6.05 -0.01,-6.05 -0.06,-12.11 -0.24,-6.05 -0.24,-6.05 -0.51,-12.1 -0.45,-6.18 -0.45,-6.18 -0.94,-12.35 -0.67,-6.29 -0.65,-6.3 -1.37,-12.58 -1.54,-10.39 -1.54,-10.39 -3.15,-20.76 -1.7,-9.07 -1.71,-9.07 -3.48,-18.13 -1.5,-6.64 -1.5,-6.64 -3.05,-13.26 -2.8,-10.53 -2.8,-10.53 -5.66,-21.05 -2.93,-9.67 -2.94,-9.67 -5.94,-19.32 -2.31,-6.8 -2.3,-6.8 -4.67,-13.57 -5.21,-13.53 -5.21,-13.53 -10.49,-27.03 -2.92,-6.87 -2.94,-6.86 -5.92,-13.7 -3.1,-6.76 -3.1,-6.76 -6.24,-13.5 -3.3,-6.72 -3.3,-6.72 -6.64,-13.43 -3.49,-6.67 -3.49,-6.67 -7.02,-13.32 -3.75,-6.75 -3.74,-6.76 -7.54,-13.47 -7.82,-12.87 -7.79,-12.89 -15.71,-25.71 -8.52,-12.66 -8.53,-12.66 -17.17,-25.24 -8.94,-12.02 -8.97,-12 -18,-23.96 -4.92,-6.14 -4.94,-6.13 -9.9,-12.24 -4.89,-5.78 -4.88,-5.78 -9.8,-11.54 -6.13,-6.85 -6.12,-6.86 -12.3,-13.67 -9.17,-9.58 -9.17,-9.58 -18.39,-19.12 -5.27,-5.14 -5.28,-5.13 -10.59,-10.25 -5.36,-4.95 -5.36,-4.95 -10.74,-9.88 -5.43,-4.76 -5.43,-4.76 -10.89,-9.49 -5.48,-4.56 -5.48,-4.56 -10.99,-9.09 -5.54,-4.35 -5.54,-4.35 -11.11,-8.67 -5.58,-4.12 -5.58,-4.12 -11.18,-8.21 -5.57,-3.86 -5.57,-3.86 -11.16,-7.68 -5.68,-3.69 -5.68,-3.69 -11.4,-7.34 -5.65,-3.4 -5.65,-3.4 -11.33,-6.77 -5.64,-3.13 -5.64,-3.13 -11.3,-6.22 -5.69,-2.89 -5.69,-2.89 -11.39,-5.73 -5.65,-2.6 -5.65,-2.6 -11.32,-5.15 -5.64,-2.3 -5.64,-2.3 -11.29,-4.56 -5.61,-2.03 -5.61,-2.03 -11.23,-4 -5.58,-1.74 -5.58,-1.74 -11.17,-3.43 -5.5,-1.44 -5.5,-1.44 -11.02,-2.84 -5.51,-1.17 -5.51,-1.17 -11.03,-2.3 -5.42,-0.89 -5.42,-0.9 -10.86,-1.72 -7.77,-0.76 -7.78,-0.73 -15.56,-1.44 -2.87,-0.18 -2.87,-0.18 -5.74,-0.33 -5.2,-0.04 -5.2,-0.05 -10.4,-0.05 -5.11,0.23 -5.12,0.22 -10.23,0.5 -5.54,0.58 -5.54,0.59 -11.09,1.23 -4.38,0.69 -4.38,0.69 -8.75,1.43 -4.79,1.04 -4.8,1.04 -9.58,2.14 -4.68,1.31 -4.68,1.31 -9.34,2.68 -4.54,1.58 -4.54,1.58 -9.07,3.22 -4.41,1.85 -4.41,1.85 -8.8,3.76 -4.26,2.11 -4.27,2.11 -8.5,4.28 -5.09,3.05 -5.1,3.05 -10.15,6.16 m -63.15,268.26 c -0.75,-4.75 -0.78,-4.75 -1.51,-9.5 -0.96,-8.4 -0.97,-8.4 -1.87,-16.81 -0.55,-8.21 -0.55,-8.21 -1.01,-16.42 -0.12,-7.98 -0.12,-7.99 -0.15,-15.97 0.31,-7.72 0.31,-7.73 0.71,-15.45 0.74,-7.43 0.74,-7.44 1.57,-14.86 1.17,-7.12 1.17,-7.12 2.43,-14.23 1.59,-6.77 1.59,-6.78 3.27,-13.53 1.98,-6.32 1.98,-6.32 4.05,-12.61 2.44,-6.09 2.44,-6.1 4.98,-12.16 2.81,-5.59 2.81,-5.6 5.72,-11.14 3.2,-5.15 3.2,-5.16 6.49,-10.25 3.58,-4.69 3.58,-4.7 7.24,-9.32 3.94,-4.21 3.94,-4.22 7.96,-8.35 4.29,-3.72 4.29,-3.73 8.65,-7.35 4.62,-3.21 4.63,-3.22 9.31,-6.32 4.93,-2.69 4.93,-2.69 9.92,-5.27 5.22,-2.15 5.23,-2.16 10.5,-4.2 5.5,-1.6 5.5,-1.6 11.04,-3.1 5.75,-1.05 5.75,-1.05 11.52,-2 5.98,-0.5 5.99,-0.5 11.98,-0.88 6.19,0.05 6.19,0.06 12.38,0.22 6.37,0.62 6.37,0.62 12.73,1.35 6.52,1.17 6.53,1.17 13.03,2.45 6.65,1.73 6.66,1.73 13.28,3.55 6.76,2.27 6.76,2.28 13.48,4.64 6.83,2.8 6.83,2.81 13.62,5.7 6.88,3.33 6.88,3.33 13.72,6.75 6.89,3.84 6.9,3.84 13.75,7.76 6.89,4.34 6.89,4.34 13.73,8.75 6.86,4.82 6.86,4.82 13.66,9.71 6.79,5.27 6.8,5.28 13.54,10.62 6.7,5.71 6.7,5.72 13.36,11.49 6.58,6.13 6.58,6.13 13.12,12.32 6.45,6.52 6.45,6.52 12.84,13.09 6.28,6.89 6.28,6.89 12.51,13.83 6.09,7.22 6.09,7.23 12.12,14.49 5.87,7.54 5.87,7.54 11.69,15.12 5.64,7.81 5.64,7.81 11.21,15.66 5.38,8.06 5.38,8.06 10.69,16.16 5.1,8.28 5.1,8.28 10.13,16.59 4.8,8.46 4.8,8.46 9.53,16.96 4.47,8.6 4.47,8.61 8.88,17.25 4.13,8.72 4.13,8.72 8.2,17.48 3.78,8.8 3.78,8.8 7.5,17.64 3.41,8.85 3.42,8.85 6.75,17.73 3.4,10.09 3.39,10.1 6.72,20.21 2.29,7.68 2.29,7.68 4.51,15.37 2.21,8.72 2.22,8.72 4.36,17.45 1.82,8.69 1.82,8.69 3.56,17.4 1.41,8.59 1.41,8.59 2.74,17.2 0.97,8.37 0.97,8.37 1.86,16.75 0.55,8.21 0.55,8.21 1.02,16.42 0.11,7.98 0.12,7.98 0.15,15.97 -0.32,7.72 -0.31,7.72 -0.72,15.44 -0.74,7.44 -0.74,7.44 -1.57,14.87 -1.17,7.12 -1.17,7.12 -2.43,14.23 -1.59,6.77 -1.59,6.78 -3.27,13.53 -2.01,6.4 -2.01,6.41 -4.11,12.78 -2.41,6.01 -2.41,6.02 -4.92,11.99 -2.81,5.59 -2.81,5.6 -5.72,11.14 -3.2,5.15 -3.2,5.16 -6.49,10.25 -3.58,4.69 -3.58,4.7 -7.24,9.32 -3.94,4.21 -3.94,4.22 -7.96,8.35 -4.28,3.72 -4.3,3.71 -8.65,7.35 -2.75,1.92 -2.78,1.89 -5.55,3.77 -1.88,1.28 -1.86,1.31 -3.76,2.55 -4.94,2.66 -4.93,2.69 -9.92,5.27 -5.22,2.15 -5.23,2.15 -10.49,4.19 -5.5,1.61 -5.51,1.61 -11.04,3.11 -5.75,1.05 -5.76,1.05 -11.53,1.99 -5.98,0.51 -5.99,0.5 -11.98,0.89 -6.18,-0.06 -6.19,-0.06 -12.38,-0.23 -5.65,-0.54 -5.66,-0.55 -11.3,-1.19 -7.24,-1.25 -7.24,-1.24 -14.46,-2.6 -6.65,-1.72 -6.65,-1.73 -13.28,-3.55 -6.75,-2.27 -6.76,-2.28 -13.48,-4.64 -6.83,-2.8 -6.83,-2.81 -13.62,-5.7 -6.88,-3.33 -6.88,-3.34 -13.72,-6.75 -6.89,-3.84 -6.89,-3.84 -13.75,-7.76 -6.89,-4.34 -6.89,-4.35 -13.73,-8.76 -6.85,-4.81 -6.86,-4.82 -13.66,-9.7 -6.79,-5.28 -6.79,-5.28 -13.54,-10.62 -6.7,-5.72 -6.7,-5.72 -13.35,-11.49 -6.59,-6.13 -6.59,-6.13 -13.13,-12.32 -6.44,-6.52 -6.44,-6.52 -12.84,-13.1 -6.28,-6.88 -6.28,-6.88 -12.51,-13.82 -6.09,-7.23 -6.09,-7.23 -12.12,-14.5 -5.87,-7.53 -5.87,-7.53 -11.69,-15.11 -5.63,-7.81 -5.63,-7.81 -11.21,-15.66 -4.23,-6.33 -4.22,-6.34 -8.4,-12.7 -6.23,-10.01 -6.25,-10 -12.42,-20.05 -4.8,-8.46 -4.79,-8.46 -9.52,-16.96 -4.48,-8.61 -4.47,-8.61 -8.88,-17.25 -3.12,-6.56 -3.12,-6.57 -6.18,-13.15 -4.79,-10.97 -4.81,-10.97 -9.52,-21.97 -3.43,-8.84 -3.42,-8.85 -6.76,-17.73 -3.03,-8.86 -3.03,-8.87 -5.99,-17.75 -2.64,-8.84 -2.64,-8.84 -5.21,-17.7 -2.23,-8.79 -2.23,-8.79 -4.39,-17.59 -1.82,-8.69 -1.8,-8.69 -3.56,-17.39 -0.63,-3.82 -0.61,-3.82 -1.22,-7.64 m 189.24,327.29 c -10.1,-8.75 -10.11,-8.75 -20.16,-17.57 -6.87,-6.35 -6.87,-6.36 -13.68,-12.77 -6.74,-6.71 -6.73,-6.71 -13.42,-13.46 -3.59,-3.83 -3.58,-3.85 -7.15,-7.69 -2.99,-3.23 -3.01,-3.21 -5.99,-6.45 -6.42,-7.37 -6.43,-7.37 -12.81,-14.77 -6.24,-7.65 -6.24,-7.66 -12.44,-15.35 -6.04,-7.92 -6.04,-7.93 -12.03,-15.89 -4.6,-6.44 -4.6,-6.45 -9.16,-12.92 -6.8,-10.12 -6.82,-10.11 -13.56,-20.27 -5.34,-8.58 -5.34,-8.58 -10.62,-17.2 -5.11,-8.85 -5.11,-8.85 -10.17,-17.73 -4.74,-8.81 -4.74,-8.82 -9.42,-17.66 -4.48,-9.02 -4.5,-9.02 -8.91,-18.07 -5.42,-12.08 -5.4,-12.09 -10.76,-24.19 -2.61,-6.22 -2.62,-6.22 -5.18,-12.45 -3.51,-9.21 -3.52,-9.21 -6.97,-18.45 -3.3,-9.6 -3.3,-9.6 -6.53,-19.23 -2.91,-9.57 -2.89,-9.58 -5.75,-19.18 -1.03,-3.86 -1.01,-3.87 -2.02,-7.74 -1.47,-5.67 -1.5,-5.66 -2.95,-11.33 -2.11,-9.45 -2.12,-9.45 -4.16,-18.92 -1.71,-9.33 -1.71,-9.33 -3.35,-18.68 -1.3,-9.2 -1.3,-9.2 -2.52,-18.41 -0.88,-9.02 -0.88,-9.02 -1.68,-18.06 -0.46,-8.66 -0.46,-8.66 -0.83,-17.33 -0.05,-8.76 -0.05,-8.76 -0.02,-17.51 0.38,-8.34 0.38,-8.35 0.85,-16.68 0.8,-8.06 0.8,-8.06 1.68,-16.11 1.22,-7.75 1.22,-7.76 2.53,-15.49 1.62,-7.42 1.62,-7.43 3.34,-14.83 2.04,-7.06 2.04,-7.06 4.17,-14.1 2.44,-6.68 2.46,-6.68 4.97,-13.34 0.96,-2.16 0.99,-2.15 1.97,-4.3 1.89,-4.12 1.86,-4.14 3.79,-8.23 3.22,-5.87 3.21,-5.88 6.52,-11.69 3.59,-5.43 3.59,-5.44 7.27,-10.81 3.96,-4.98 3.98,-4.97 8,-9.89 2.08,-2.19 2.11,-2.16 4.21,-4.33 2.25,-2.3 2.22,-2.33 4.49,-4.6 4.66,-4.01 4.65,-4.03 9.37,-7.96 4.97,-3.52 4.97,-3.53 10.01,-6.95 5.27,-3.02 5.28,-3.02 10.61,-5.93 5.16,-2.31 5.16,-2.31 10.36,-4.52 6.26,-2.14 6.27,-2.15 12.56,-4.18 6.1,-1.43 6.11,-1.43 12.24,-2.75 6.33,-0.88 6.34,-0.88 12.69,-1.66 6.55,-0.34 6.56,-0.34 13.11,-0.57 6.75,0.2 6.75,0.2 13.5,0.51 6.91,0.75 6.92,0.76 13.82,1.6 4.13,0.75 4.13,0.79 8.25,1.57 2.94,0.56 2.94,0.53 5.87,1.12 7.19,1.85 7.2,1.83 14.37,3.76 7.29,2.36 7.3,2.37 14.56,4.82 7.37,2.89 7.38,2.89 14.72,5.87 7.43,3.41 7.43,3.41 14.82,6.9 7.46,3.91 7.46,3.91 14.88,7.9 7.46,4.4 7.47,4.41 14.89,8.88 7.45,4.88 7.45,4.89 14.85,9.84 7.4,5.34 7.41,5.34 14.76,10.75 7.34,5.79 7.35,5.79 14.64,11.64 7.25,6.22 7.25,6.22 14.45,12.49 7.14,6.62 7.14,6.63 14.23,13.3 7,7.01 7.01,7.01 13.96,14.07 6.9,7.44 6.9,7.44 13.75,14.92 6.61,7.64 6.61,7.64 13.17,15.33 6.46,8.02 6.46,8.02 12.87,16.08 6.25,8.31 6.25,8.31 12.43,16.66 6,8.56 5.99,8.57 11.95,17.17 2.84,4.36 2.83,4.37 5.66,8.74 2.88,4.45 2.9,4.44 5.76,8.9 5.45,9.01 5.46,9 10.86,18.04 5.16,9.18 5.16,9.18 10.26,18.39 4.85,9.33 4.85,9.33 9.64,18.68 4.52,9.44 4.52,9.44 8.98,18.91 4.17,9.53 4.17,9.53 8.28,19.08 3.82,9.58 3.82,9.58 7.58,19.18 3.45,9.6 3.45,9.6 6.83,19.23 3.07,9.59 3.08,9.6 6.08,19.21 2.68,9.56 2.68,9.56 5.29,19.14 2.28,9.49 2.29,9.49 4.5,18.99 1.87,9.39 1.88,9.39 3.68,18.8 1.47,9.25 1.47,9.26 2.86,18.53 1.05,9.1 1.05,9.1 2.02,18.21 0.64,8.91 0.64,8.91 1.19,17.83 0.21,8.69 0.21,8.69 0.34,17.39 -0.21,8.45 -0.2,8.45 -0.5,16.9 -0.63,8.18 -0.63,8.18 -1.34,16.35 -1.05,7.89 -1.04,7.89 -2.19,15.76 -1.88,9.18 -1.9,9.18 -3.87,18.34 -1.46,5.6 -1.45,5.6 -2.98,11.18 -2.28,6.83 -2.28,6.84 -4.65,13.65 -2.67,6.45 -2.67,6.45 -5.44,12.87 -3.06,6.04 -3.06,6.04 -6.22,12.03 -3.44,5.62 -3.44,5.62 -6.98,11.17 -3.8,5.17 -3.81,5.18 -7.71,10.27 -4.16,4.7 -4.17,4.7 -8.42,9.32 -4.51,4.22 -4.51,4.23 -9.1,8.36 -4.84,3.73 -4.85,3.73 -9.76,7.37 -5.15,3.22 -5.16,3.22 -10.38,6.34 -5.45,2.7 -5.46,2.71 -10.97,5.31 -5.73,2.18 -5.74,2.18 -11.52,4.25 -6,1.64 -6.01,1.64 -12.04,3.17 -6.24,1.11 -6.25,1.11 -12.52,2.1 -6.47,0.56 -6.47,0.56 -12.95,1.01 -6.67,0.02 -6.68,0.01 -13.35,-0.08 -6.16,-0.47 -6.17,-0.47 -12.32,-1.04 -7.7,-1.14 -7.71,-1.13 -15.4,-2.38 -7.15,-1.61 -7.15,-1.62 -14.27,-3.33 -7.26,-2.15 -7.27,-2.16 -14.5,-4.4 -7.35,-2.69 -7.35,-2.69 -14.66,-5.46 -7.42,-3.2 -7.42,-3.2 -14.79,-6.49 -7.45,-3.71 -7.46,-3.71 -14.87,-7.51 -7.47,-4.21 -7.47,-4.21 -14.9,-8.5 -7.46,-4.69 -7.46,-4.69 -14.87,-9.46 -7.43,-5.16 -7.43,-5.17 -14.81,-10.4 -7.11,-5.33 -7.11,-5.33 -14.18,-10.72" />
    </g>
  </g>
</svg>
