<?xml version="1.0" encoding="UTF-8" standalone="no"?>
<svg
   width="402.6745mm"
   height="500.00003mm"
   viewBox="0 0 402.6745 500.00003"
   stroke-linejoin="round"
   stroke-linecap="round"
   fill="none"
   fill-rule="evenodd"
   version="1.1"
   id="svg219"
   xmlns="http://www.w3.org/2000/svg"
   xmlns:svg="http://www.w3.org/2000/svg">
  <desc
     id="desc132">Composer Export</desc>
  <script
     type="text/ecmascript"
     id="script134"><![CDATA[
if(typeof(top) != "undefined")
{
	top.ShowPaper = ShowPaper;
}
function ShowPaper()
{
  var svgDocument = getDocument();
  var paper = svgDocument.getElementById("paperID");
  if(paper)
  {
    paper.setAttribute("transform","scale(1)");
    paper.setAttribute("opacity","1");
    paper.setAttribute("visibility","visible");
  }
  var svg = svgDocument.getRootElement();
  if(svg)
  {
    svg.setAttribute("width","510.000mm");
    svg.setAttribute("height","510.000mm");
    svg.setAttribute("viewBox","-5.000000 -5.000000 510.000000 510.000000");
  }
}
]]></script>
  <defs
     id="defs136" />
  <g
     id="g217"
     transform="matrix(1.4973154,0,0,1.4973154,-172.99159,-124.32884)">
    <path
       style="display:inline;fill:#afacac"
       d="m 214.86,84.5 11.78,2.2 8.72,2.79 10.73,4.37 11.52,5.95 10.31,6.36 10.73,7.54 13.11,10.73 11.95,11.48 1.98,2.39 4.37,4.36 9.53,11.12 8.75,11.11 7.88,11.18 9.55,15.08 6.79,12.26 7.51,15.14 6.36,14.69 5.53,15.11 5.17,17.87 2.61,11.77 0.23,1.17 0.17,1.22 0.23,1.16 0.17,1.22 0.22,1.19 0.56,3.18 0.24,1.17 0.17,1.21 0.23,1.17 0.18,1.58 0.21,2.02 0.18,1.96 0.21,2.01 0.19,1.56 0.21,2.02 0.18,1.95 0.22,4.4 0.18,5.14 v 6.77 l -0.39,9.53 -1.19,9.93 -0.41,2.37 -0.97,4.37 -0.84,4.63 -2.79,8.72 -3.96,9.55 -5.57,9.52 -5.95,7.55 -6.31,6 -6.57,4.55 -14.69,8.74 -10.68,5.6 -9.51,3.2 -2.53,0.56 -2.77,0.4 -4.77,0.8 -7.55,0.17 h -3.2 l -7.94,-0.8 -6.34,-1.19 -6.9,-1.53 -10.72,-3.58 -11.51,-5.17 -10.28,-5.61 -9.93,-6.35 -10.34,-7.53 -12.7,-10.73 -11.52,-11.11 -1.98,-2.39 -4.77,-4.76 -3.98,-4.76 -4.37,-5.17 -11.49,-15.11 -9.98,-15.04 -7.54,-12.71 -7.94,-15.09 -5.58,-11.9 -5.56,-13.9 -5.17,-15.08 -3.96,-14.31 -2.32,-10.48 -0.05,-1.04 -0.18,-0.13 -0.17,-1.22 -0.05,-1.03 -0.18,-0.13 -0.17,-1.22 -0.04,-1.04 -0.18,-0.15 -0.56,-3.18 -0.06,-1.04 -0.18,-0.12 -0.17,-1.22 -0.05,-1.04 -0.18,-0.13 -0.18,-1.58 -0.05,-1.88 -0.16,-0.14 -0.18,-1.95 -0.05,-1.88 -0.16,-0.14 -0.19,-1.56 -0.05,-1.87 -0.16,-0.15 -0.18,-1.95 -0.06,-4.25 -0.16,-0.15 -0.18,-5.14 v -6.77 l 0.39,-9.53 1.38,-11.12 1.19,-5.55 1.65,-7.4 3.29,-9.41 4.01,-8.7 5.55,-8.75 6.36,-7.54 2.58,-2.18 3.33,-3.03 10.6,-6.87 16.02,-9 6.24,-2.89 8.58,-2.63 7.57,-1.18 8.71,-0.41 h 3.2 z"
       id="path140" />
    <path
       style="fill:#ffffff"
       d="m 225.97,182.99 10.19,3.8 4.37,2.38 7.93,5.17 7.56,5.95 7.18,7.11 5.16,5.96 3.19,3.97 5.9,8.39 6.36,10.71 5.17,11.11 3.96,10.75 3.01,10.96 0.23,1.19 0.57,3.18 0.22,1.19 0.18,1.19 0.21,2.01 0.19,1.56 0.21,2.01 0.18,3.95 v 4.79 l -0.17,3.95 -0.62,4.8 -1.01,4.61 -1.62,4.74 -1.97,4.39 -3.12,4.82 -1.48,0.58 -6.79,-0.02 -3.17,-0.39 -3.97,-0.8 -8.47,-3.14 -2.74,-1.23 -8,-4.7 -7.09,-5.22 -5.57,-4.76 -7.15,-7.15 -3.98,-4.76 -7.52,-10.34 -5.61,-9.09 -5.97,-11.9 -4.76,-12.71 -1.61,-5.15 -1.51,-6.11 -0.05,-1.05 -0.18,-0.14 -0.57,-3.18 -0.04,-1.05 -0.18,-0.14 -0.18,-1.19 -0.05,-1.86 -0.16,-0.15 -0.19,-1.55 -0.05,-1.88 -0.16,-0.14 -0.18,-3.95 v -4.79 l 0.17,-3.95 0.62,-4.8 1.83,-6.97 2.1,-5.44 3.33,-5.85 0.74,-0.7 1.22,-0.17 6.77,0.01 1.98,0.16 z"
       id="path142" />
    <path
       style="fill:#000020"
       d="m 209.83,181.97 1.01,-0.01 -0.74,0.7 z"
       id="path144" />
    <path
       style="fill:#000020"
       d="m 116.67,196.2 -0.22,-4.4 0.16,0.15 z"
       id="path146" />
    <path
       style="fill:#000020"
       d="m 117.06,200.17 -0.21,-2.02 0.16,0.15 z"
       id="path148" />
    <path
       style="fill:#000020"
       d="m 117.46,203.75 -0.21,-2.02 0.16,0.14 z"
       id="path150" />
    <path
       style="fill:#000020"
       d="m 117.85,207.72 -0.21,-2.02 0.16,0.14 z"
       id="path152" />
    <path
       style="fill:#000020"
       d="m 118.26,210.47 -0.23,-1.17 0.18,0.13 z"
       id="path154" />
    <path
       style="fill:#000020"
       d="m 118.67,212.85 -0.24,-1.16 0.18,0.12 z"
       id="path156" />
    <path
       style="fill:#000020"
       d="m 119.45,217.22 -0.22,-1.19 0.18,0.15 z"
       id="path158" />
    <path
       style="fill:#000020"
       d="m 119.85,219.6 -0.23,-1.16 0.18,0.13 z"
       id="path160" />
    <path
       style="fill:#000020"
       d="m 202.44,220.43 -0.21,-2.02 0.16,0.14 z"
       id="path162" />
    <path
       style="fill:#000020"
       d="m 120.25,221.99 -0.23,-1.17 0.18,0.13 z"
       id="path164" />
    <path
       style="fill:#000020"
       d="m 202.84,223.99 -0.21,-2.01 0.16,0.15 z"
       id="path166" />
    <path
       style="fill:#000020"
       d="m 203.24,226.37 -0.22,-1.19 0.18,0.14 z"
       id="path168" />
    <path
       style="fill:#000020"
       d="m 204.04,230.74 -0.23,-1.19 0.18,0.14 z"
       id="path170" />
    <path
       style="fill:#000020"
       d="m 296.18,270.44 -0.23,-1.19 0.19,0.13 z"
       id="path172" />
    <path
       style="fill:#000020"
       d="m 296.97,274.81 -0.22,-1.19 0.18,0.14 z"
       id="path174" />
    <path
       style="fill:#000020"
       d="m 297.36,278.01 -0.21,-2.01 0.16,0.14 z"
       id="path176" />
    <path
       style="fill:#000020"
       d="m 379.97,279.17 -0.23,-1.17 0.18,0.14 z"
       id="path178" />
    <path
       style="fill:#000020"
       d="m 380.37,281.55 -0.23,-1.16 0.18,0.13 z"
       id="path180" />
    <path
       style="fill:#000020"
       d="m 297.76,281.58 -0.21,-2.01 0.16,0.14 z"
       id="path182" />
    <path
       style="fill:#000020"
       d="m 380.76,283.96 -0.22,-1.19 0.18,0.13 z"
       id="path184" />
    <path
       style="fill:#000020"
       d="m 381.56,288.31 -0.24,-1.17 0.19,0.13 z"
       id="path186" />
    <path
       style="fill:#000020"
       d="m 297.94,290.32 v -4.79 l 0.16,0.14 z"
       id="path188" />
    <path
       style="fill:#000020"
       d="m 381.96,290.69 -0.23,-1.17 0.18,0.13 z"
       id="path190" />
    <path
       style="fill:#000020"
       d="m 382.35,294.29 -0.21,-2.02 0.15,0.15 z"
       id="path192" />
    <path
       style="fill:#000020"
       d="m 382.74,298.26 -0.21,-2.01 0.16,0.14 z"
       id="path194" />
    <path
       style="fill:#000020"
       d="m 383.14,301.84 -0.21,-2.02 0.16,0.14 z"
       id="path196" />
    <path
       style="fill:#000020"
       d="m 383.54,308.19 -0.22,-4.4 0.16,0.15 z"
       id="path198" />
    <path
       style="fill:#000020"
       d="m 383.72,320.1 v -6.77 l 0.16,0.14 z"
       id="path200" />
    <path
       style="stroke:#000000;stroke-width:1.411"
       d="m 152.8,102.25 8.03,-3.86 8.64,-2.66 4.36,-0.69 4.83,-0.77 9.65,-0.23 10.07,1 10.39,2.22 10.63,3.41 10.8,4.6 10.87,5.73 10.88,6.83 10.81,7.88 10.63,8.86 10.39,9.77 10.06,10.63 9.66,11.38 1.19,1.56 7.99,10.5 8.64,12.64 8.03,13.14 7.36,13.52 6.63,13.8 5.85,13.99 5.03,14.05 4.17,14.03 3.27,13.88 2.36,13.64 1.42,13.29 0.48,12.84 -0.48,12.29 -1.42,11.65 -2.36,10.91 -3.27,10.11 -4.17,9.21 -5.03,8.25 -0.79,0.98 -5.06,6.25 -6.63,6.15 -7.36,5.02"
       id="path202" />
    <path
       style="stroke:#000000;stroke-width:1.411"
       d="m 289.32,318.1 -1.49,1.84 -3.04,2.81 -3.36,2.3 -3.67,1.76 -3.95,1.22 -4.2,0.67 -4.42,0.1 -4.59,-0.45 -4.74,-1.01 -1.95,-0.63 -2.92,-0.94 -4.94,-2.1 -4.98,-2.62 -4.97,-3.12 -4.94,-3.6 -4.85,-4.05 -4.75,-4.47 -4.6,-4.86 -4.42,-5.2 -4.2,-5.51 -3.95,-5.79 -3.67,-6 -3.36,-6.18 -3.03,-6.31 -2.68,-6.39 -2.3,-6.43 -1.9,-6.41 -1.5,-6.35 -1.08,-6.23 -0.65,-6.08 -0.21,-5.87 0.21,-5.61 0.65,-5.33 1.08,-4.99 1.5,-4.62 1.9,-4.21 2.3,-3.77 2.68,-3.3 3.03,-2.82 3.36,-2.3 3.67,-1.76 3.95,-1.22 2.34,-0.37"
       id="path204" />
    <path
       style="stroke:#000000;stroke-width:1.411"
       d="m 117.19,200.37 -0.48,-4.46 -0.47,-12.84 0.47,-12.28 1.42,-11.65 2.36,-10.92 3.27,-10.1 4.17,-9.21 5.03,-8.25 1.23,-1.52 4.62,-5.71 6.63,-6.15 7.36,-5.03 17.85,-10.3 8.03,-3.86 8.64,-2.67 9.18,-1.45 9.66,-0.23 10.06,0.99 10.39,2.22 10.63,3.42 10.81,4.59 10.87,5.73 10.88,6.84 10.8,7.87 10.63,8.86 10.39,9.78 10.07,10.62 9.65,11.38 9.19,12.07 8.64,12.64 8.03,13.13 7.36,13.52 6.63,13.81 5.85,13.98 4.6,12.86 0.43,1.2 4.17,14.02 3.27,13.89 2.36,13.64 1.42,13.29 0.47,12.83 -0.47,12.29 -1.42,11.65 -2.36,10.92 -3.27,10.1 -4.17,9.22 -5.03,8.24 -5.85,7.23 -6.63,6.15 -7.36,5.03 -15.17,8.76 -2.68,1.54 -8.03,3.86 -8.64,2.67 -9.18,1.45 -9.66,0.23 -10.06,-0.99 -10.39,-2.22 -10.63,-3.42 -10.81,-4.59 -10.88,-5.74 -10.87,-6.83 -10.8,-7.87 -10.63,-8.86 -10.39,-9.78 -10.07,-10.62 -9.65,-11.38 -9.19,-12.07 -8.64,-12.64 -8.03,-13.13 -7.36,-13.52 -6.63,-13.81 -5.85,-13.98 -5.03,-14.06 -4.17,-14.02 -3.27,-13.89 -2.36,-13.63 -0.94,-8.84"
       id="path208" />
    <path
       style="stroke:#000000;stroke-width:1.411"
       d="m 202.85,224.61 -0.13,-0.77 -0.65,-6.07 -0.22,-5.87 0.22,-5.62 0.65,-5.33 1.08,-4.98 1.49,-4.63 1.91,-4.2 2.3,-3.78 1.18,-1.46 1.86,-0.29 4.42,-0.1 4.6,0.45 4.75,1.01 4.85,1.56 4.94,2.1 4.97,2.62 4.98,3.13 4.94,3.6 4.87,4.06 4.74,4.46 4.59,4.85 4.42,5.21 4.2,5.51 3.95,5.78 3.67,6 3.36,6.18 3.04,6.32 2.67,6.39 2.3,6.42 1.91,6.42 1.49,6.35 1.08,6.23 0.65,6.07 0.22,5.87 -0.22,5.62 -0.65,5.33 -1.08,4.98 -1.49,4.63 -1.91,4.2 -2.3,3.78 -1.18,1.46 -1.86,0.29 -4.42,0.1 -4.6,-0.45 -4.75,-1.01 -4.85,-1.56 -4.94,-2.1 -4.98,-2.62 -4.97,-3.13 -4.94,-3.6 -4.86,-4.04 -4.75,-4.48 -4.59,-4.85 -4.42,-5.21 -4.2,-5.51 -3.95,-5.78 -3.67,-6 -3.36,-6.18 -3.04,-6.32 -2.67,-6.39 -2.3,-6.42 -1.91,-6.42 -1.49,-6.35 -0.95,-5.46"
       id="path210" />
  </g>
</svg>
