<?xml version="1.0" encoding="UTF-8" standalone="no"?>
<svg xmlns="http://www.w3.org/2000/svg" xmlns:xlink="http://www.w3.org/1999/xlink" width="1500.000mm" height="1000.000mm" viewBox="0.000000 0.000000 1500.000000 1000.000000" stroke-linejoin="round" stroke-linecap="round" fill="none" fill-rule="evenodd"><desc>Composer Export</desc><script type="text/ecmascript"><![CDATA[
if(typeof(top) != "undefined")
{
	top.ShowPaper = ShowPaper;
}
function ShowHotSpot(evt,hotspotid)
{
	var svgDocument = evt.target.ownerDocument;
	var strId = "hotspot."+hotspotid;
	var hotspot = svgDocument.getElementById(strId);
	if(hotspot)
		hotspot.setAttribute("opacity",".5");
}
function HideHotSpot(evt,hotspotid)
{
	var svgDocument = evt.target.ownerDocument;
	var strId = "hotspot."+hotspotid;
	var hotspot = svgDocument.getElementById(strId);
	if(hotspot)
		hotspot.setAttribute("opacity","0");

	var toolTip = svgDocument.getElementById('ToolTip');
	if(toolTip)
		toolTip.setAttribute("visibility","hidden");
}
function ShowToolTip(evt,hotspotid,strTooltip)
{
	if(strTooltip=="")
	return;

	// change text
	var svgDocument = evt.target.ownerDocument;
	var tiptext = svgDocument.getElementById('ToolTipText');
	if( !tiptext )
	return;
	tiptext.firstChild.nodeValue = " " + strTooltip + "  " ;

	// show tooltip before, else some refresh issue

	var toolTip = svgDocument.getElementById('ToolTip');
	if(!toolTip)
	return;

	toolTip.setAttribute("visibility","visible");
	toolTip.setAttribute("opacity",".95");

	// move tooltip
	// get viewbox

	var root = svgDocument.documentElement;
	var vbox = (root.getAttribute("viewBox")).split(' ');
	var x0 = parseFloat(vbox[0]);
	var y0 = parseFloat(vbox[1]);
	var vboxW = parseFloat(vbox[2]);
	var vboxH = parseFloat(vbox[3]);

	// get default width of svg

	var strW = root.getAttribute("width");
	var svgW = parseFloat(strW);
	if(strW.indexOf('mm') != -1)
	svgW *= 3.779;

	var strH = root.getAttribute("height");
	var svgH = parseFloat(strH);
	if(strH.indexOf('mm') != -1)
	svgH *= 3.779;  	// 96 dpi  -> 96/25.4 = 3.779

	// update the viewbox / width / height if svg is embedded in html with zoom fit all
	var realx0 = x0;
	var realy0 = y0;
	var realvboxW = vboxW;
	var realvboxH = vboxH;
	var realsvgW = svgW;
	var realsvgH = svgH;

	if ((typeof(top) == "undefined") || (typeof(top.svgctl1) != "undefined")) // embedded in html
	{
		// get window size in pxl

		svgW = window.innerWidth;
		svgH = window.innerHeight;

		// calculate real viewbox

		realsvgW = svgW;
		realsvgH = svgH;
		if((svgW / svgH) > (vboxW / vboxH))
		{
			realvboxW = (vboxH * svgW) / svgH;
			realvboxH = vboxH;
			realx0 = x0 - (realvboxW - vboxW)/2 ;
		}
		else
		{
			realvboxH = (vboxW * svgH) / svgW;
			realvboxW = vboxW;
			realy0 = y0 - (realvboxH - vboxH)/2 ;
		}
	}

	// get user zoom/pan

	var newScale = root.currentScale;
	var translation = root.currentTranslate;

	// transform pxl to user unit

	var xPos = (((evt.clientX+10- translation.x)/newScale) * realvboxW)/realsvgW  + realx0 ;
	var yPos = (((evt.clientY+5- translation.y)/newScale) * realvboxH)/ realsvgH  + realy0 ;
	var scaleForWidth = ( (1 / newScale) * realvboxH) / realsvgH;

	// move tooltip

	toolTip.setAttribute("transform", "translate(" + xPos + "," + yPos + ")" );

	// resize tooltip

	var fontsize = 12;
	tiptext.setAttribute("font-size",fontsize*scaleForWidth);
	tiptext.setAttribute("y", fontsize*scaleForWidth);
	var tipBG = svgDocument.getElementById('ToolTipBG');
	var outline = tiptext.getBBox();
	if(tipBG)
	{
		tipBG.setAttribute("stroke-width", 1*scaleForWidth);
		tipBG.setAttribute("width", Number(outline.width) );
		tipBG.setAttribute("height", Number(outline.height) + fontsize*.5*scaleForWidth );
	}
	var ToolTipShadow = svgDocument.getElementById('ToolTipShadow');
	if(ToolTipShadow)
	{
		ToolTipShadow.setAttribute("width", Number(outline.width) );
		ToolTipShadow.setAttribute("height", Number(outline.height) + fontsize*.5*scaleForWidth );
		ToolTipShadow.setAttribute("x", 3*scaleForWidth);
		ToolTipShadow.setAttribute("y", 3*scaleForWidth);
	}
}
function ShowPaper()
{
  var svgDocument = getDocument();
  var paper = svgDocument.getElementById("paperID");
  if(paper)
  {
    paper.setAttribute("transform","scale(1)");
    paper.setAttribute("opacity","1");
    paper.setAttribute("visibility","visible");
  }
  var svg = svgDocument.getRootElement();
  if(svg)
  {
    svg.setAttribute("width","1510.000mm");
    svg.setAttribute("height","1010.000mm");
    svg.setAttribute("viewBox","-5.000000 -5.000000 1510.000000 1010.000000");
  }
}
]]></script><defs/><g><path style="fill:#ffffff" d="M1499.77,999.76L0.25,999.76L0.25,0.25L1499.77,0.25z"/><path style="fill:#97fa98" d="M464.03,203.50L466.18,207.48L466.68,210.02L466.64,228.44L446.24,215.28L444.22,214.50L427.15,223.07L423.98,226.69L423.31,243.22L422.36,248.08L420.75,250.68L417.21,253.94L376.11,275.00L387.49,276.63L394.45,280.90L394.33,281.96L375.05,291.95L373.29,291.86L365.42,286.80L362.01,282.48L360.85,282.50L345.79,290.56L343.23,291.21L321.99,276.58L320.89,276.55L304.94,285.38L302.57,288.30L302.11,289.62L303.43,289.92L316.36,298.62L316.57,301.03L315.76,304.07L330.47,314.09L325.98,316.62L290.31,334.53L283.78,334.43L267.62,323.37L265.94,318.94L265.97,293.35L267.53,286.24L272.32,279.98L280.05,274.95L301.53,264.01L302.51,263.12L305.56,262.19L441.00,193.56L443.81,192.82L447.35,192.82L448.79,193.30z"/><path style="fill:#97fa98" d="M1219.26,717.85L1221.30,721.94L1221.79,724.49L1222.27,742.04L1226.92,745.27L1226.92,746.25L1221.72,743.43L1220.29,741.66L1220.80,740.88L1218.62,740.77L1200.42,728.95L1199.28,728.96L1181.41,738.37L1179.11,742.03L1178.42,759.38L1177.93,761.92L1177.46,763.42L1174.04,767.57L1099.78,805.68L1098.46,805.56L1077.19,791.13L1063.22,797.91L1058.37,801.66L1058.36,803.81L1071.62,812.91L1071.59,816.41L1072.00,819.16L1085.69,828.44L1052.17,845.54L1044.30,848.87L1039.91,848.88L1024.33,838.79L1021.88,836.13L1021.07,832.53L1021.08,807.81L1022.67,800.73L1025.73,796.14L1030.91,791.11L1195.83,707.77L1198.09,707.27L1203.24,707.33z"/><path style="fill:#000020" d="M466.68,210.02L466.18,207.48L466.59,207.76z"/><path style="fill:#000020" d="M235.08,217.02L236.06,217.18L236.22,218.15L235.25,217.98z"/><path style="fill:#000020" d="M303.43,289.92L302.11,289.62L302.57,288.30z"/><path style="fill:#000020" d="M373.29,291.86L375.05,291.95L374.77,293.03z"/><path style="fill:#000020" d="M316.57,301.03L316.36,298.62L316.90,298.84z"/><path style="fill:#000020" d="M1221.79,724.49L1221.30,721.94L1221.70,722.23z"/><path style="fill:#000020" d="M1220.29,741.66L1218.62,740.77L1220.80,740.88z"/><path style="fill:#000020" d="M1071.59,816.41L1071.62,812.91L1072.07,813.18z"/><g id="Actor_.0"><g style="stroke:#000000;stroke-width:1.411"><path d="M382.69,271.27 C385.20,271.83 385.22,271.84 387.70,272.50 C389.52,273.37 389.53,273.38 391.30,274.34 C411.65,288.14 411.66,288.15 431.95,302.02 C433.27,303.17 433.27,303.17 434.53,304.39 "/><path d="M434.50,312.57 C433.25,313.77 433.23,313.79 431.91,314.92 C430.14,315.88 430.12,315.88 428.30,316.75 C426.15,317.37 426.14,317.37 423.96,317.91 C421.61,318.15 421.60,318.15 419.24,318.30 C416.88,318.14 416.87,318.14 414.53,317.90 C412.35,317.36 412.34,317.36 410.19,316.73 C408.38,315.85 408.36,315.85 406.59,314.89 C386.24,301.09 386.24,301.09 365.94,287.21 C364.65,286.09 364.64,286.08 363.41,284.88 "/><path d="M391.30,278.65 C389.53,277.69 389.52,277.68 387.70,276.80 C385.55,276.18 385.54,276.18 383.37,275.63 C381.01,275.39 381.00,275.39 378.64,275.22 C376.40,275.38 376.39,275.38 374.15,275.60 "/><path d="M450.26,335.82 C451.51,334.61 451.52,334.60 452.84,333.46 C454.62,332.51 454.63,332.51 456.45,331.63 C458.61,331.01 458.62,331.01 460.79,330.47 C463.15,330.24 463.16,330.24 465.52,330.08 C467.87,330.24 467.88,330.24 470.23,330.48 C472.40,331.03 472.41,331.03 474.56,331.65 C476.38,332.53 476.39,332.54 478.17,333.49 "/><path d="M521.36,371.72 C520.11,372.92 520.10,372.94 518.78,374.07 C517.00,375.03 516.98,375.03 515.17,375.90 C513.01,376.52 513.00,376.52 510.83,377.06 C508.48,377.30 508.47,377.30 506.11,377.46 C503.75,377.30 503.74,377.30 501.39,377.05 C499.22,376.51 499.20,376.51 497.05,375.88 C495.24,375.00 495.24,374.98 493.45,374.04 C492.01,373.09 492.02,373.07 490.59,372.09 C471.70,359.23 471.67,359.26 452.80,346.36 C451.49,345.22 451.48,345.21 450.23,344.00 "/><path d="M478.17,337.80 C476.39,336.84 476.38,336.83 474.56,335.95 C472.41,335.33 472.40,335.33 470.23,334.78 C467.88,334.54 467.87,334.55 465.52,334.39 C463.16,334.54 463.15,334.54 460.79,334.77 C458.62,335.31 458.60,335.31 456.45,335.93 C454.63,336.81 454.62,336.81 452.84,337.77 C451.52,338.90 451.51,338.91 450.26,340.12 "/><path d="M537.13,394.98 C538.39,393.77 538.40,393.76 539.72,392.62 C541.49,391.67 541.51,391.67 543.33,390.79 C545.48,390.17 545.49,390.17 547.67,389.63 C549.99,389.40 550.00,389.39 552.33,389.24 C554.72,389.40 554.73,389.40 557.11,389.64 C559.28,390.19 559.29,390.19 561.44,390.81 C563.25,391.69 563.26,391.69 565.03,392.64 C585.38,406.45 585.39,406.45 605.69,420.33 C607.00,421.47 607.01,421.48 608.25,422.69 "/><path d="M608.23,430.87 C606.98,432.08 606.97,432.09 605.65,433.23 C603.88,434.19 603.86,434.19 602.04,435.06 C599.88,435.68 599.87,435.68 597.69,436.21 C595.34,436.45 595.33,436.45 592.98,436.61 C590.62,436.45 590.61,436.45 588.25,436.20 C586.08,435.66 586.07,435.66 583.92,435.03 C582.11,434.16 582.10,434.16 580.33,433.20 C559.97,419.40 559.97,419.39 539.67,405.51 C538.36,404.37 538.35,404.37 537.11,403.16 "/><path d="M537.13,399.28 C538.39,398.07 538.40,398.06 539.72,396.93 C541.49,395.97 541.51,395.97 543.33,395.09 C545.48,394.47 545.49,394.47 547.67,393.93 C549.99,393.70 550.00,393.70 552.33,393.54 C554.72,393.70 554.73,393.70 557.11,393.94 C559.28,394.49 559.29,394.49 561.44,395.11 C563.25,395.99 563.26,395.99 565.03,396.95 C585.38,410.75 585.39,410.75 605.69,424.64 C607.00,425.77 607.01,425.78 608.25,426.99 "/><path d="M624.00,454.13 C625.25,452.92 625.26,452.91 626.58,451.77 C628.36,450.82 628.37,450.82 630.19,449.94 C632.35,449.32 632.36,449.32 634.53,448.78 C636.88,448.54 636.89,448.54 639.25,448.38 C641.61,448.55 641.62,448.55 643.97,448.79 C646.14,449.34 646.15,449.34 648.30,449.96 C650.12,450.84 650.13,450.84 651.91,451.80 C672.25,465.60 672.26,465.61 692.55,479.48 C693.87,480.63 693.88,480.64 695.13,481.85 "/><path d="M695.10,490.03 C693.85,491.24 693.84,491.25 692.52,492.38 C690.74,493.34 690.72,493.34 688.91,494.21 C686.75,494.83 686.74,494.83 684.57,495.37 C682.21,495.61 682.20,495.61 679.84,495.76 C677.49,495.60 677.48,495.60 675.13,495.36 C672.95,494.82 672.94,494.82 670.78,494.19 C668.97,493.31 668.96,493.31 667.19,492.35 C647.17,478.77 647.17,478.77 627.20,465.12 "/><path d="M695.13,486.15 C693.88,484.94 693.87,484.93 692.55,483.79 C672.26,469.91 672.25,469.91 651.91,456.11 C650.13,455.15 650.12,455.14 648.30,454.26 C646.15,453.64 646.14,453.64 643.97,453.09 C641.62,452.85 641.61,452.85 639.25,452.69 C636.89,452.84 636.88,452.85 634.53,453.08 C632.36,453.62 632.35,453.62 630.19,454.24 C628.37,455.12 628.36,455.12 626.58,456.08 C625.26,457.21 625.25,457.22 624.00,458.43 "/><path d="M781.97,549.18 C780.71,550.39 780.70,550.40 779.38,551.53 C777.60,552.49 777.59,552.49 775.77,553.36 C773.62,553.99 773.60,553.98 771.43,554.52 C769.08,554.76 769.07,554.76 766.72,554.92 C764.36,554.76 764.35,554.76 761.99,554.51 C759.82,553.97 759.81,553.97 757.66,553.34 C755.84,552.47 755.83,552.46 754.05,551.50 C733.71,537.70 733.70,537.70 713.41,523.82 C712.09,522.68 712.08,522.67 710.83,521.46 "/><path d="M710.86,513.28 C712.11,512.07 712.13,512.06 713.45,510.92 C715.22,509.97 715.24,509.97 717.06,509.09 C719.21,508.47 719.22,508.47 721.40,507.93 C723.75,507.70 723.76,507.70 726.12,507.54 C728.48,507.70 728.49,507.70 730.83,507.94 C733.01,508.49 733.02,508.49 735.17,509.11 C736.98,509.99 736.99,509.99 738.77,510.95 C759.12,524.75 759.12,524.76 779.42,538.63 "/><path d="M779.42,542.94 C759.12,529.06 759.12,529.06 738.77,515.26 C736.99,514.30 736.98,514.29 735.17,513.41 C733.02,512.79 733.01,512.79 730.83,512.25 C728.49,512.01 728.48,512.01 726.12,511.85 C723.76,512.00 723.75,512.00 721.40,512.23 C719.22,512.77 719.21,512.77 717.06,513.39 C715.24,514.27 715.22,514.27 713.45,515.23 C712.13,516.36 712.11,516.37 710.86,517.58 "/><path d="M797.71,580.62 C798.95,581.83 798.96,581.83 800.27,582.97 C820.57,596.85 820.58,596.86 840.93,610.66 C842.70,611.62 842.71,611.62 844.52,612.49 C846.66,613.12 846.67,613.12 848.84,613.66 C851.20,613.91 851.21,613.91 853.58,614.07 C855.93,613.91 855.94,613.91 858.29,613.67 C860.47,613.14 860.49,613.14 862.65,612.52 C864.47,611.65 864.48,611.65 866.26,610.69 C867.57,609.55 867.58,609.54 868.83,608.33 "/><path d="M868.85,600.15 C867.60,598.93 867.59,598.93 866.28,597.78 C845.96,583.89 845.95,583.89 825.58,570.08 C823.84,569.14 823.83,569.13 822.05,568.27 C819.89,567.65 819.88,567.65 817.71,567.10 C815.36,566.86 815.35,566.86 812.99,566.69 C810.56,566.87 810.55,566.87 808.14,567.13 C806.03,567.65 806.02,567.65 803.93,568.25 C802.11,569.13 802.10,569.13 800.32,570.08 C799.00,571.22 798.99,571.23 797.74,572.44 "/><path d="M868.85,604.45 C867.60,603.24 867.59,603.23 866.28,602.08 C845.96,588.20 845.95,588.19 825.58,574.38 C823.84,573.44 823.83,573.44 822.05,572.58 C819.89,571.95 819.88,571.95 817.71,571.41 C815.36,571.16 815.35,571.16 812.99,571.00 C810.56,571.17 810.55,571.18 808.14,571.43 C806.03,571.95 806.02,571.95 803.93,572.56 C802.11,573.43 802.10,573.43 800.32,574.39 C799.00,575.52 798.99,575.53 797.74,576.74 "/><path d="M955.71,667.49 C954.45,668.70 954.44,668.71 953.12,669.84 C951.34,670.80 951.33,670.80 949.51,671.67 C947.36,672.30 947.34,672.30 945.17,672.84 C942.81,673.07 942.80,673.07 940.44,673.22 C938.09,673.06 938.08,673.06 935.73,672.82 C933.56,672.28 933.55,672.28 931.40,671.66 C929.58,670.78 929.57,670.77 927.80,669.81 C907.45,656.01 907.44,656.01 887.15,642.13 C885.83,640.99 885.82,640.98 884.57,639.77 "/><path d="M884.60,631.59 C885.86,630.39 885.87,630.38 887.19,629.24 C888.33,628.61 888.36,628.64 889.53,628.05 C890.16,627.72 890.16,627.70 890.80,627.40 C892.96,626.80 892.96,626.78 895.14,626.24 C897.49,626.01 897.50,626.01 899.86,625.86 C902.22,626.02 902.23,626.01 904.57,626.25 C906.75,626.80 906.76,626.80 908.91,627.42 C910.72,628.30 910.73,628.31 912.51,629.27 C932.86,643.06 932.86,643.07 953.16,656.95 "/><path d="M953.16,661.25 C932.86,647.37 932.86,647.37 912.51,633.57 C910.73,632.61 910.72,632.60 908.91,631.73 C906.76,631.10 906.75,631.10 904.57,630.56 C902.23,630.32 902.22,630.32 899.86,630.16 C897.50,630.31 897.49,630.31 895.14,630.55 C892.96,631.08 892.95,631.08 890.80,631.71 C888.98,632.58 888.96,632.58 887.19,633.54 C885.87,634.67 885.85,634.68 884.60,635.89 "/><path d="M1042.46,726.74 C1041.26,727.90 1041.24,727.91 1039.98,728.99 C1038.21,729.95 1038.19,729.95 1036.37,730.83 C1034.22,731.45 1034.21,731.45 1032.03,731.99 C1029.68,732.22 1029.67,732.23 1027.32,732.38 C1024.96,732.22 1024.95,732.22 1022.60,731.97 C1020.42,731.43 1020.41,731.43 1018.26,730.81 C1016.44,729.93 1016.43,729.92 1014.66,728.96 C994.31,715.16 994.30,715.16 974.01,701.28 C972.70,700.14 972.69,700.13 971.44,698.92 "/><path d="M971.46,690.74 C972.71,689.53 972.73,689.52 974.05,688.39 C975.82,687.43 975.84,687.43 977.66,686.55 C979.81,685.93 979.82,685.93 982.00,685.39 C984.35,685.16 984.36,685.16 986.73,685.01 C989.08,685.17 989.09,685.16 991.43,685.40 C993.61,685.95 993.62,685.95 995.77,686.57 C997.59,687.45 997.60,687.46 999.37,688.42 "/><path d="M999.37,692.72 C997.60,691.76 997.59,691.75 995.77,690.88 C993.62,690.25 993.61,690.25 991.43,689.71 C989.09,689.47 989.08,689.47 986.73,689.31 C984.36,689.46 984.35,689.46 982.00,689.70 C979.82,690.23 979.81,690.23 977.66,690.86 C975.84,691.73 975.82,691.73 974.05,692.69 C972.73,693.82 972.71,693.83 971.46,695.04 "/><path d="M1292.01,815.27 C1291.85,815.87 1291.85,815.88 1291.74,816.49 C1291.71,827.24 1291.78,827.25 1291.74,838.00 C1291.52,839.21 1291.51,839.23 1291.20,840.42 "/><path d="M1289.72,842.74 C1288.75,843.57 1288.74,843.58 1287.71,844.34 C1280.50,848.05 1280.48,848.01 1273.25,851.68 C1230.21,873.51 1230.23,873.56 1187.18,895.35 C1186.14,895.64 1186.12,895.65 1185.06,895.84 "/><path d="M1186.53,865.56 C1186.85,866.47 1186.85,866.50 1187.07,867.44 C1187.12,878.18 1187.05,878.20 1187.07,888.95 C1187.18,889.42 1187.19,889.43 1187.34,889.88 "/><path d="M281.51,274.70 L194.04,215.12 L194.03,210.82 L210.13,202.65 L301.24,264.69 "/><path d="M194.03,210.82 L285.13,272.86 "/><path d="M276.50,277.32 L210.78,232.56 L210.13,230.62 L210.13,226.09 "/><path d="M277.72,276.64 L210.13,230.62 "/><path d="M302.91,263.84 L213.61,203.04 L212.14,202.21 L210.13,202.65 "/><path d="M235.34,217.83 L312.78,178.54 L313.79,177.74 L314.52,176.58 L314.79,175.36 L384.18,222.61 "/><path d="M302.02,288.67 L1036.56,788.86 "/><path d="M1040.18,787.03 L303.95,285.68 "/><path d="M312.78,178.54 L380.35,224.55 "/><path d="M1032.77,790.80 L315.83,302.59 "/><path d="M315.16,303.65 L1031.56,791.49 "/><path d="M319.78,277.32 L1056.29,778.86 "/><path d="M314.79,175.36 L314.79,153.85 L315.33,151.43 L316.80,149.11 L318.82,147.51 L334.92,139.34 L426.03,201.38 "/><path d="M314.79,153.85 L402.28,213.43 "/><path d="M318.82,147.51 L409.92,209.55 "/><path d="M1057.96,778.01 L321.65,276.60 "/><path d="M434.53,304.39 L435.86,307.08 L435.84,309.87 L434.50,312.57 "/><path d="M363.41,284.88 L362.03,282.16 L362.03,281.75 "/><path d="M362.41,282.91 L363.33,281.09 "/><path d="M391.30,274.34 L391.30,278.65 "/><path d="M431.95,302.02 L431.95,306.32 L391.30,278.65 "/><path d="M1135.40,738.71 L419.85,251.45 "/><path d="M421.90,248.30 L1139.23,736.77 "/><path d="M423.27,227.72 L1157.33,727.59 "/><path d="M1164.97,723.71 L428.46,222.17 "/><path d="M435.48,310.61 L434.53,308.69 L431.95,306.32 "/><path d="M1181.08,715.54 L445.21,214.44 "/><path d="M450.23,344.00 L448.90,341.31 L448.91,338.51 L450.26,335.82 "/><path d="M478.17,333.49 L478.17,337.80 L518.81,365.48 L518.81,361.17 L521.39,363.54 L522.72,366.28 L522.72,369.04 L521.36,371.72 "/><path d="M450.26,340.12 L449.28,342.08 "/><path d="M478.17,333.49 L518.81,361.17 "/><path d="M522.35,369.77 L521.39,367.84 L518.81,365.48 "/><path d="M537.11,403.16 L535.77,400.47 L535.78,397.66 L537.13,394.98 "/><path d="M608.25,422.69 L609.11,424.42 L609.59,425.42 L609.58,428.19 L608.23,430.87 "/><path d="M536.15,401.22 L537.13,399.28 "/><path d="M608.25,426.99 L609.21,428.92 "/><path d="M565.03,396.95 L565.03,392.64 "/><path d="M605.69,424.64 L605.69,420.33 "/><path d="M627.20,465.12 L623.97,462.31 L622.64,459.62 L622.64,456.81 L624.00,454.13 "/><path d="M695.13,481.85 L695.48,482.56 L696.46,484.55 L696.45,487.34 L695.10,490.03 "/><path d="M696.08,488.07 L695.13,486.15 "/><path d="M624.00,458.43 L623.01,460.37 "/><path d="M651.91,456.11 L651.91,451.80 "/><path d="M692.55,483.79 L692.55,479.48 "/><path d="M779.42,538.63 L781.99,541.00 L783.33,543.69 L783.32,546.51 L781.97,549.18 "/><path d="M710.83,521.46 L709.50,518.77 L709.52,515.97 L710.86,513.28 "/><path d="M779.42,538.63 L779.42,542.94 L781.99,545.30 L782.95,547.23 "/><path d="M710.86,517.58 L709.88,519.54 "/><path d="M738.77,515.26 L738.77,510.95 "/><path d="M796.38,577.93 L797.71,580.62 "/><path d="M868.83,608.33 L870.19,605.65 L870.19,602.84 L868.85,600.15 "/><path d="M797.74,572.44 L796.38,575.12 L796.38,577.93 "/><path d="M869.81,606.38 L868.85,604.45 "/><path d="M797.74,576.74 L796.75,578.69 "/><path d="M825.58,574.38 L825.58,570.08 "/><path d="M866.28,602.08 L866.28,597.78 "/><path d="M953.16,656.95 L955.73,659.31 L957.07,662.00 L957.05,664.80 L955.71,667.49 "/><path d="M884.57,639.77 L883.24,637.08 L883.26,634.28 L884.60,631.59 "/><path d="M953.16,656.95 L953.16,661.25 "/><path d="M884.60,635.89 L883.62,637.85 "/><path d="M912.51,629.27 L912.51,633.57 "/><path d="M953.16,661.25 L955.73,663.61 L956.68,665.53 "/><path d="M999.37,688.42 L1040.02,716.10 L1042.59,718.46 L1043.93,721.15 L1043.93,723.96 L1042.46,726.74 "/><path d="M971.44,698.92 L970.10,696.23 L970.12,693.43 L971.46,690.74 "/><path d="M999.37,688.42 L999.37,692.72 "/><path d="M971.46,695.04 L970.48,697.00 "/><path d="M999.37,692.72 L1040.02,720.40 L1042.59,722.76 L1043.55,724.70 "/><path d="M1040.02,716.10 L1040.02,720.40 "/><path d="M1057.42,803.06 L1166.95,877.65 L1166.95,873.35 L1183.05,865.18 L1075.17,791.71 "/><path d="M1166.95,873.35 L1059.34,800.07 "/><path d="M1181.30,870.44 L1183.05,871.63 L1183.05,893.14 L1071.22,816.99 "/><path d="M1183.85,736.57 L1291.74,810.03 L1304.42,803.60 L1305.32,803.40 L1305.99,803.77 L1306.23,804.61 L1306.12,807.03 L1293.75,813.31 L1292.74,814.11 L1292.01,815.27 "/><path d="M1291.20,840.42 L1289.72,842.74 "/><path d="M1185.06,895.84 L1183.59,895.02 L1070.55,818.05 "/><path d="M1183.05,865.18 L1185.06,864.73 L1186.04,865.22 L1077.05,791.00 "/><path d="M1183.05,871.63 L1182.78,870.69 L1182.04,870.28 L1181.04,870.50 L1166.95,877.65 "/><path d="M1177.29,762.69 L1287.71,837.89 L1287.44,839.10 L1286.70,840.26 L1285.70,841.06 L1175.25,765.85 "/><path d="M1287.71,837.89 L1287.71,816.38 L1178.66,742.12 "/><path d="M1183.05,893.14 L1183.59,895.02 "/><path d="M1186.04,865.22 L1186.53,865.56 "/><path d="M1187.34,889.88 L1188.08,890.30 L1189.09,890.08 L1187.07,888.71 "/><path d="M1189.09,890.08 L1285.70,841.06 "/><path d="M1200.61,728.84 L1300.89,797.13 L1300.89,800.30 "/><path d="M1287.71,816.38 L1288.25,813.95 L1289.72,811.63 L1291.74,810.03 "/><path d="M1300.89,797.13 L1297.47,798.87 L1298.38,798.67 L1299.04,799.04 L1305.99,803.77 "/><path d="M1297.47,798.87 L1304.42,803.60 "/></g></g><g id="Actor_.1"><g style="stroke:#000000;stroke-width:1.411"><path d="M1226.20,746.27 L1227.03,745.61 L1220.39,741.09 L1219.17,741.48 "/><path d="M1227.03,745.61 L1229.36,748.32 L1229.55,748.55 "/></g></g><g id="Actor_.2"><g style="stroke:#000000;stroke-width:1.411"><path d="M283.18,325.58 C283.14,319.51 283.14,315.46 283.18,305.34 C283.39,303.48 283.39,303.47 283.69,301.63 C284.39,299.68 284.40,299.67 285.18,297.75 C286.30,295.91 286.30,295.90 287.49,294.10 C288.92,292.54 288.93,292.53 290.41,291.03 C292.00,289.91 292.01,289.90 293.65,288.85 "/><path d="M293.71,328.05 C294.87,327.65 294.87,327.65 296.02,327.22 C296.41,327.01 296.42,327.01 296.80,326.79 C298.30,325.59 298.33,325.61 299.79,324.36 C301.06,322.77 301.07,322.76 302.27,321.10 C303.12,319.30 303.13,319.29 303.90,317.45 C304.23,315.72 304.23,315.70 304.46,313.95 "/><path d="M296.80,308.80 C295.24,309.69 295.22,309.70 293.71,310.67 C292.29,312.08 292.28,312.09 290.92,313.56 C289.84,315.29 289.83,315.30 288.83,317.08 C288.23,318.89 288.22,318.91 287.71,320.74 C287.66,322.39 287.66,322.40 287.71,324.06 "/><path d="M302.16,288.08 C301.91,289.10 301.91,289.11 301.70,290.14 C301.68,291.00 301.67,291.00 301.70,291.86 C301.90,292.66 301.90,292.67 302.15,293.46 "/><path d="M423.43,226.98 C423.10,228.23 423.10,228.25 422.87,229.52 C422.82,237.05 422.90,237.06 422.87,244.58 C422.68,245.89 422.68,245.90 422.42,247.19 C421.83,248.54 421.79,248.53 421.16,249.86 C421.10,249.93 421.10,249.93 421.04,250.00 C420.15,251.09 420.17,251.11 419.26,252.17 C418.17,253.00 418.16,253.01 417.03,253.78 "/><path d="M330.44,314.06 L293.65,332.73 L290.41,333.82 L287.49,333.71 L285.18,332.41 L283.69,330.05 L283.18,326.85 L283.18,325.58 "/><path d="M293.65,288.85 L455.88,206.54 L459.11,205.44 L462.03,205.55 L464.34,206.85 L465.83,209.21 L466.34,212.41 L466.34,228.83 "/><path d="M288.38,325.58 L288.83,326.59 L290.92,327.98 L293.71,328.05 "/><path d="M304.46,313.95 L303.90,310.92 L302.27,308.93 L299.79,308.19 L296.80,308.80 "/><path d="M287.71,324.06 L288.38,325.58 "/><path d="M326.66,280.01 L326.66,278.34 L326.09,276.36 L324.54,275.50 L322.43,275.96 L305.12,284.75 L303.41,286.10 L302.16,288.08 "/><path d="M302.15,293.46 L303.41,294.16 L305.12,293.78 L307.65,292.50 "/><path d="M316.19,298.31 L316.19,302.03 L310.15,311.54 L310.15,319.19 L326.10,311.10 "/><path d="M447.82,216.22 L447.82,216.00 L447.37,214.40 L446.11,213.70 L444.40,214.08 L427.09,222.86 L424.98,224.54 L423.43,226.98 "/><path d="M417.03,253.78 L343.16,291.26 "/><path d="M390.69,278.33 L369.03,289.32 "/><path d="M395.12,281.24 L373.38,292.27 "/></g></g><g id="Actor_.3"><g style="stroke:#000000;stroke-width:1.411"><path d="M276.27,277.45 C274.70,278.46 274.69,278.47 273.16,279.55 C271.73,280.99 271.73,281.00 270.36,282.50 C269.21,284.23 269.21,284.24 268.13,286.01 C267.38,287.85 267.37,287.86 266.70,289.73 C266.41,291.51 266.41,291.52 266.21,293.31 "/></g></g><g id="Actor_.4"><g style="stroke:#000000;stroke-width:1.411"><path d="M1065.76,830.11 L1065.76,825.60 "/></g></g><g id="Actor_.5"><g style="stroke:#000000;stroke-width:1.411"><path d="M1065.76,830.11 L1078.66,823.56 "/></g></g><g id="Actor_.6"><g style="stroke:#000000;stroke-width:1.411"><path d="M1195.28,708.33 L1033.05,790.64 L1031.66,791.42 "/></g></g><g id="Actor_.7"><g style="stroke:#000000;stroke-width:1.411"><path d="M1057.31,803.55 L1057.31,804.50 "/></g></g><g id="Actor_.8"><g style="stroke:#000000;stroke-width:1.411"><path d="M1219.30,718.40 L1205.05,708.70 L1202.38,707.20 L1199.01,707.07 L1195.28,708.33 L1209.53,718.03 L1213.26,716.77 L1216.63,716.90 L1219.30,718.40 L1221.01,721.13 L1221.60,724.81 "/></g></g><g id="Actor_.9"><g style="stroke:#000000;stroke-width:1.411"><path d="M1195.28,708.33 L1199.01,707.07 L1202.38,707.20 L1205.05,708.70 "/></g></g><g id="Actor_.10"><g style="stroke:#000000;stroke-width:1.411"><path d="M1057.31,804.50 L1057.55,805.34 L1058.22,805.71 L1059.12,805.51 L1057.31,804.28 "/><path d="M1057.55,805.34 L1057.55,805.34 "/></g></g><g id="Actor_.11"><g style="stroke:#000000;stroke-width:1.411"><path d="M1023.28,800.92 C1024.58,798.79 1024.58,798.78 1025.96,796.71 C1027.60,794.91 1027.61,794.90 1029.32,793.17 C1031.15,791.87 1031.17,791.86 1033.05,790.64 "/><path d="M1031.66,791.42 C1030.03,792.47 1030.02,792.48 1028.43,793.60 C1026.94,795.10 1026.94,795.11 1025.51,796.67 C1024.32,798.47 1024.32,798.48 1023.20,800.32 C1022.42,802.24 1022.41,802.25 1021.71,804.20 C1021.41,806.04 1021.41,806.06 1021.20,807.91 "/><path d="M1021.17,808.14 L1020.98,809.68 L1021.57,805.39 L1023.25,801.01 L1023.28,800.92 "/><path d="M1033.05,790.64 L1031.66,791.42 "/><path d="M1021.20,807.91 L1021.17,808.14 "/></g></g><g id="Actor_.12"><g style="stroke:#000000;stroke-width:1.411"><path d="M1050.20,838.87 C1051.52,837.96 1051.54,837.95 1052.81,836.98 C1053.95,835.66 1053.96,835.65 1055.03,834.27 C1055.81,832.73 1055.82,832.72 1056.52,831.14 C1056.82,829.63 1056.82,829.61 1057.04,828.08 "/><path d="M1043.44,834.53 L1043.35,835.02 L1043.87,837.56 L1045.35,839.18 L1047.58,839.64 L1050.20,838.87 "/><path d="M1057.04,828.08 L1056.52,825.55 L1055.03,823.93 L1052.81,823.47 L1050.79,824.07 "/></g></g><g id="Actor_.13"><g style="stroke:#000000;stroke-width:1.411"><path d="M1085.55,828.26 L1047.30,847.67 "/></g></g><g id="Actor_.14"><g style="stroke:#000000;stroke-width:1.411"><path d="M1221.60,724.81 L1221.60,741.92 "/></g></g><g id="Actor_.15"><g style="stroke:#000000;stroke-width:1.411"><path d="M1071.80,812.86 L1071.80,815.38 "/></g></g><g id="Actor_.16"><g style="stroke:#000000;stroke-width:1.411"><path d="M1060.21,804.96 L1059.12,805.51 L1057.31,804.28 "/></g></g><g id="Actor_.17"><g style="stroke:#000000;stroke-width:1.411"><path d="M265.93,317.02 L265.93,295.51 L266.21,293.31 "/></g></g><g id="Actor_.18"><g style="stroke:#000000;stroke-width:1.411"><path d="M266.73,290.70 C267.44,288.72 267.44,288.70 268.24,286.75 C269.53,284.63 269.54,284.62 270.91,282.54 C272.56,280.75 272.56,280.73 274.28,279.00 C276.11,277.70 276.12,277.69 278.01,276.48 "/><path d="M276.27,277.45 C274.70,278.46 274.69,278.47 273.16,279.55 C271.73,280.99 271.73,281.00 270.36,282.50 C269.21,284.23 269.21,284.24 268.13,286.01 C267.38,287.85 267.38,287.86 266.70,289.73 "/><path d="M266.57,290.70 L266.21,293.31 L265.93,295.51 L266.53,291.22 L266.73,290.70 "/><path d="M278.01,276.48 L276.27,277.45 "/><path d="M266.70,289.73 L266.57,290.70 "/></g></g><g id="Actor_.19"><g style="stroke:#000000;stroke-width:1.411"><path d="M301.92,290.10 L302.16,290.94 L302.16,290.94 "/><path d="M302.16,290.94 L302.82,291.31 L303.73,291.11 L301.92,289.88 "/></g></g><g id="Actor_.20"><g style="stroke:#000000;stroke-width:1.411"><path d="M304.88,284.94 L321.04,276.74 "/></g></g><g id="Actor_.21"><g style="stroke:#000000;stroke-width:1.411"><path d="M440.24,194.17 L278.01,276.48 L276.27,277.45 "/></g></g><g id="Actor_.22"><g style="stroke:#000000;stroke-width:1.411"><path d="M440.24,194.17 L443.97,192.91 L447.34,193.03 L450.01,194.53 "/></g></g><g id="Actor_.23"><g style="stroke:#000000;stroke-width:1.411"><path d="M268.24,323.44 L266.53,320.71 L265.93,317.02 "/></g></g><g id="Actor_.24"><g style="stroke:#000000;stroke-width:1.411"><path d="M304.81,290.56 L303.73,291.11 L301.92,289.88 "/></g></g><g id="Actor_.25"><g style="stroke:#000000;stroke-width:1.411"><path d="M301.92,290.10 L301.92,290.10 L301.92,289.15 "/></g></g><g id="Actor_.26"><g style="stroke:#000000;stroke-width:1.411"><path d="M296.80,308.80 C295.24,309.69 295.22,309.70 293.71,310.67 C292.29,312.08 292.28,312.09 290.92,313.56 C289.84,315.29 289.83,315.30 288.83,317.08 C288.23,318.89 288.22,318.91 287.71,320.74 C287.66,322.39 287.66,322.40 287.71,324.06 "/><path d="M296.80,326.79 C298.32,325.62 298.33,325.61 299.79,324.36 C301.06,322.77 301.07,322.76 302.27,321.10 C303.12,319.30 303.13,319.29 303.90,317.45 C304.23,315.69 304.24,315.67 304.47,313.90 "/><path d="M301.47,313.77 C301.23,315.40 301.22,315.42 300.88,317.04 C300.09,318.71 300.08,318.73 299.21,320.35 C298.02,321.76 298.01,321.78 296.74,323.12 C295.36,324.04 295.35,324.05 293.91,324.88 "/><path d="M304.47,313.90 L303.90,310.92 L302.27,308.93 L299.79,308.19 L296.80,308.80 "/><path d="M287.71,324.06 L288.83,326.59 L290.92,327.98 L293.71,328.05 L296.02,327.22 L296.80,326.79 "/><path d="M304.47,313.90 L301.47,313.77 "/><path d="M293.91,324.88 L291.21,325.31 L289.09,324.35 L287.94,322.16 L287.94,320.01 "/><path d="M294.93,309.93 L296.74,309.21 L299.21,309.48 L300.88,311.09 L301.47,313.77 "/></g></g><g id="Actor_.27"><g style="stroke:#000000;stroke-width:1.411"><path d="M283.18,305.34 C283.39,303.48 283.39,303.47 283.69,301.63 C284.39,299.68 284.40,299.67 285.18,297.75 C286.30,295.91 286.30,295.90 287.49,294.10 C288.92,292.54 288.93,292.53 290.41,291.03 C292.00,289.91 292.01,289.90 293.65,288.85 "/><path d="M292.26,286.18 C290.37,287.40 290.36,287.40 288.52,288.70 C286.81,290.43 286.80,290.45 285.16,292.25 C283.79,294.32 283.78,294.33 282.49,296.46 C281.59,298.67 281.58,298.68 280.77,300.92 C280.43,303.05 280.42,303.07 280.18,305.21 "/><path d="M280.18,305.21 L283.18,305.34 "/><path d="M293.65,288.85 L292.26,286.18 "/></g></g><g id="Actor_.28"><g style="stroke:#000000;stroke-width:1.411"><path d="M443.01,214.85 L426.85,223.05 "/></g></g><g id="Actor_.29"><g style="stroke:#000000;stroke-width:1.411"><path d="M466.56,228.98 L466.56,210.65 "/></g></g><g id="Actor_.30"><g style="stroke:#000000;stroke-width:1.411"><path d="M343.22,291.30 L415.64,254.55 "/></g></g><g id="Actor_.31"><g style="stroke:#000000;stroke-width:1.411"><path d="M423.08,228.53 L423.08,242.82 "/></g></g><g id="Actor_.32"><g style="stroke:#000000;stroke-width:1.411"><path d="M440.24,194.17 L454.49,203.87 L458.22,202.61 L461.58,202.73 L464.25,204.23 L450.01,194.53 L447.34,193.03 L443.97,192.91 L440.24,194.17 "/><path d="M464.25,204.23 L465.97,206.96 L466.56,210.65 "/></g></g><g id="Actor_.33"><g style="stroke:#000000;stroke-width:1.411"><path d="M279.08,277.21 L278.01,276.48 L440.24,194.17 L454.49,203.87 L292.26,286.18 L279.08,277.21 "/></g></g><g id="Actor_.34"><g style="stroke:#000000;stroke-width:1.411"><path d="M321.04,276.74 L322.35,276.45 L323.31,276.99 L323.57,277.91 "/></g></g><g id="Actor_.35"><g style="stroke:#000000;stroke-width:1.411"><path d="M423.08,242.82 L423.08,242.82 L423.08,242.82 "/></g></g><g id="Actor_.36"><g style="stroke:#000000;stroke-width:1.411"><path d="M466.56,228.98 L466.56,210.65 L466.34,212.41 L466.34,228.83 "/></g></g><g id="Actor_.37"><g style="stroke:#000000;stroke-width:1.411"><path d="M455.88,206.54 L454.49,203.87 L458.22,202.61 L461.58,202.73 L464.25,204.23 L465.97,206.96 L466.56,210.65 L466.34,212.41 L465.83,209.21 L464.34,206.85 L462.03,205.55 L459.11,205.44 L455.88,206.54 "/></g></g><g id="Actor_.38"><g style="stroke:#000000;stroke-width:1.411"><path d="M293.65,288.85 L292.26,286.18 L454.49,203.87 L455.88,206.54 L293.65,288.85 "/></g></g><g id="Actor_.39"><g style="stroke:#000000;stroke-width:1.411"><path d="M280.18,326.72 L283.18,326.85 L283.18,305.34 L280.18,305.21 L280.18,326.72 "/></g></g><g id="Actor_.40"><g style="stroke:#000000;stroke-width:1.411"><path d="M284.89,331.96 L283.69,330.05 L283.18,326.85 L280.18,326.72 L280.77,330.41 L282.49,333.14 L285.16,334.64 L288.52,334.76 L292.26,333.50 L293.65,332.73 L290.41,333.82 L287.49,333.71 L285.18,332.41 L284.89,331.96 "/></g></g><g id="Actor_.41"><g style="stroke:#000000;stroke-width:1.411"><path d="M301.70,290.14 L301.70,291.86 L301.92,290.10 L301.92,289.15 "/></g></g><g id="Actor_.42"><g style="stroke:#000000;stroke-width:1.411"><path d="M310.37,311.20 L310.37,315.71 "/></g></g><g id="Actor_.43"><g style="stroke:#000000;stroke-width:1.411"><path d="M330.44,314.06 L293.65,332.73 L292.26,333.50 L330.50,314.10 "/><path d="M373.38,292.27 L395.12,281.24 "/><path d="M373.44,292.31 L395.18,281.28 "/></g></g><g id="Actor_.44"><g style="stroke:#000000;stroke-width:1.411"><path d="M307.65,292.50 L305.12,293.78 L303.73,291.11 L304.81,290.56 "/></g></g><g id="Actor_.45"><g style="stroke:#000000;stroke-width:1.411"><path d="M422.87,244.58 C422.68,245.89 422.68,245.90 422.42,247.19 C421.83,248.54 421.82,248.55 421.16,249.86 C420.24,251.03 420.23,251.04 419.26,252.17 C418.17,253.00 418.16,253.01 417.03,253.78 "/><path d="M423.08,242.82 L422.87,244.58 "/><path d="M417.03,253.78 L415.64,254.55 "/></g></g><g id="Actor_.46"><g style="stroke:#000000;stroke-width:1.411"><path d="M427.09,222.86 L424.98,224.54 L423.58,226.75 L423.43,226.98 L422.87,229.52 "/></g></g><g id="Actor_.47"><g style="stroke:#000000;stroke-width:1.411"><path d="M305.12,284.75 L322.43,275.96 L321.04,276.74 L304.88,284.94 "/></g></g><g id="Actor_.48"><g style="stroke:#000000;stroke-width:1.411"><path d="M265.93,295.51 C266.18,293.37 266.18,293.35 266.53,291.22 C267.33,288.98 267.34,288.96 268.24,286.75 C269.53,284.63 269.54,284.62 270.91,282.54 C272.56,280.75 272.56,280.73 274.28,279.00 C276.11,277.70 276.12,277.69 278.01,276.48 "/><path d="M292.26,286.18 C290.37,287.40 290.36,287.40 288.52,288.70 C286.81,290.43 286.80,290.45 285.16,292.25 C283.79,294.32 283.78,294.33 282.49,296.46 C281.59,298.67 281.58,298.68 280.77,300.92 C280.43,303.05 280.42,303.07 280.18,305.21 "/><path d="M267.41,296.51 L265.93,295.51 "/><path d="M278.01,276.48 L292.26,286.18 "/><path d="M280.18,305.21 L267.41,296.51 "/></g></g><g id="Actor_.49"><g style="stroke:#000000;stroke-width:1.411"><path d="M301.70,291.86 L301.92,290.10 L302.16,290.94 L302.82,291.31 L303.73,291.11 L305.12,293.78 L303.41,294.16 L302.15,293.46 L301.70,291.86 "/></g></g><g id="Actor_.50"><g style="stroke:#000000;stroke-width:1.411"><path d="M301.70,290.14 L302.16,288.08 L302.16,288.07 L303.41,286.10 L305.12,284.75 "/></g></g><g id="Actor_.51"><g style="stroke:#000000;stroke-width:1.411"><path d="M343.16,291.26 L417.03,253.78 L415.64,254.55 L343.22,291.30 "/></g></g><g id="Actor_.52"><g style="stroke:#000000;stroke-width:1.411"><path d="M326.66,280.01 L326.66,278.34 L324.03,278.22 "/></g></g><g id="Actor_.53"><g style="stroke:#000000;stroke-width:1.411"><path d="M324.03,278.22 L326.66,278.34 L326.09,276.36 L324.54,275.50 L322.43,275.96 L321.04,276.74 L322.35,276.45 L323.31,276.99 L323.57,277.91 "/></g></g><g id="Actor_.54"><g style="stroke:#000000;stroke-width:1.411"><path d="M310.37,315.71 L323.26,309.17 "/><path d="M366.20,287.38 L387.28,276.69 "/></g></g><g id="Actor_.55"><g style="stroke:#000000;stroke-width:1.411"><path d="M422.87,229.52 L422.87,244.58 L423.08,242.82 L423.08,228.53 "/></g></g><g id="Actor_.56"><g style="stroke:#000000;stroke-width:1.411"><path d="M427.09,222.86 L444.40,214.08 L443.01,214.85 L426.85,223.05 "/></g></g><g id="Actor_.57"><g style="stroke:#000000;stroke-width:1.411"><path d="M447.47,215.98 L447.82,216.00 L447.37,214.40 L446.11,213.70 L444.40,214.08 L443.01,214.85 "/></g></g><g id="Actor_.58"><g style="stroke:#000000;stroke-width:1.411"><path d="M316.41,300.97 L316.19,302.03 L310.15,311.54 "/></g></g><g id="Actor_.59"><g style="stroke:#000000;stroke-width:1.411"><path d="M316.41,300.97 L316.41,298.46 "/></g></g><g id="Actor_.60"><g style="stroke:#000000;stroke-width:1.411"><path d="M326.10,311.10 L310.15,319.19 L310.37,315.71 L323.26,309.17 "/><path d="M366.20,287.38 L387.28,276.69 "/><path d="M369.03,289.32 L390.69,278.33 "/></g></g><g id="Actor_.61"><g style="stroke:#000000;stroke-width:1.411"><path d="M316.19,298.31 L316.19,302.03 L316.41,300.97 L316.41,298.46 "/></g></g><g id="Actor_.62"><g style="stroke:#000000;stroke-width:1.411"><path d="M282.49,333.14 L280.77,330.41 L280.18,326.72 L265.93,317.02 L266.53,320.71 L268.24,323.44 L282.49,333.14 L285.16,334.64 L288.52,334.76 L292.26,333.50 "/></g></g><g id="Actor_.63"><g style="stroke:#000000;stroke-width:1.411"><path d="M447.82,216.22 L447.82,216.00 L447.68,215.99 L447.47,215.98 "/></g></g><g id="Actor_.64"><g style="stroke:#000000;stroke-width:1.411"><path d="M265.93,317.02 L265.93,295.51 L280.18,305.21 L280.18,326.72 L265.93,317.02 "/></g></g><g id="Actor_.65"><g style="stroke:#000000;stroke-width:1.411"><path d="M310.15,311.54 L310.15,319.19 L310.37,315.71 L310.37,311.20 "/></g></g><g id="Actor_.66"><g style="stroke:#000000;stroke-width:1.411"><path d="M443.01,214.85 L443.01,214.85 "/></g></g><g id="Actor_.67"><g style="stroke:#000000;stroke-width:1.411"><path d="M292.26,333.50 L330.50,314.10 "/><path d="M373.44,292.31 L395.18,281.28 "/></g></g><g id="Actor_.68"><g style="stroke:#000000;stroke-width:1.411"><path d="M1211.27,721.37 C1130.13,762.48 1130.13,762.48 1049.04,803.68 C1047.46,804.69 1047.45,804.70 1045.93,805.78 C1044.50,807.22 1044.49,807.23 1043.12,808.73 C1041.98,810.46 1041.97,810.47 1040.90,812.24 C1040.15,814.08 1040.14,814.09 1039.47,815.96 C1039.18,817.74 1039.19,817.75 1038.98,819.54 C1038.94,822.56 1038.98,822.56 1038.97,825.58 C1038.97,833.31 1038.93,833.32 1038.97,841.05 C1039.18,842.59 1039.18,842.60 1039.47,844.12 "/><path d="M1049.27,842.36 C1050.83,841.78 1050.85,841.77 1052.36,841.10 C1053.88,839.93 1053.89,839.92 1055.35,838.68 C1056.63,837.08 1056.63,837.07 1057.83,835.42 C1058.69,833.62 1058.70,833.60 1059.47,831.76 C1059.80,830.01 1059.80,830.00 1060.04,828.23 "/><path d="M1052.36,823.11 C1050.80,824.00 1050.79,824.01 1049.27,824.98 C1047.86,826.38 1047.85,826.39 1046.51,827.86 C1045.42,829.60 1045.41,829.61 1044.40,831.39 C1043.79,833.20 1043.78,833.22 1043.28,835.06 C1043.22,836.70 1043.22,833.39 1043.28,838.38 "/><path d="M1057.55,807.86 C1057.30,807.07 1057.29,807.06 1057.09,806.26 C1057.07,805.40 1057.07,805.40 1057.09,804.54 C1057.30,803.51 1057.30,803.50 1057.55,802.48 "/><path d="M1098.56,805.65 C1135.51,786.95 1135.51,786.95 1172.42,768.18 C1173.56,767.41 1173.56,767.40 1174.65,766.57 C1175.62,765.44 1175.63,765.43 1176.55,764.26 C1177.21,762.95 1177.22,762.94 1177.81,761.59 C1178.07,760.30 1178.07,760.29 1178.26,758.98 C1178.29,751.46 1178.21,751.45 1178.26,743.92 C1178.49,742.65 1178.49,742.63 1178.82,741.38 "/><path d="M1221.33,741.73 L1221.33,727.02 L1220.84,723.94 L1219.41,721.67 L1217.18,720.42 L1214.38,720.32 L1211.27,721.37 "/><path d="M1039.47,844.12 L1040.90,846.39 L1043.12,847.65 L1045.93,847.75 L1049.04,846.70 L1085.48,828.21 "/><path d="M1043.78,839.51 L1044.40,840.90 L1046.51,842.29 L1049.27,842.36 "/><path d="M1060.04,828.23 L1059.47,825.24 L1057.83,823.24 L1055.35,822.50 L1052.36,823.11 "/><path d="M1043.28,838.38 L1043.78,839.51 "/><path d="M1063.04,806.90 L1060.51,808.18 L1058.80,808.56 L1057.55,807.86 "/><path d="M1057.55,802.48 L1058.80,800.50 L1060.51,799.15 L1077.82,790.36 L1079.93,789.90 L1081.48,790.77 L1082.05,792.74 L1082.05,794.41 "/><path d="M1071.58,812.71 L1071.58,816.43 L1065.54,825.94 L1065.54,833.59 L1081.50,825.50 "/><path d="M1178.82,741.38 L1180.37,738.94 L1182.48,737.26 L1199.79,728.48 L1201.50,728.10 L1202.76,728.80 L1203.22,730.40 L1203.22,730.62 "/></g></g><g id="Actor_.69"><g style="stroke:#000000;stroke-width:1.411"><path d="M1198.40,729.25 L1199.79,728.48 L1201.50,728.10 L1202.76,728.80 L1203.22,730.40 L1202.87,730.39 "/></g></g><g id="Actor_.70"><g style="stroke:#000000;stroke-width:1.411"><path d="M1057.31,804.50 L1057.55,805.34 L1058.22,805.71 L1059.12,805.51 L1060.51,808.18 L1058.80,808.56 L1057.55,807.86 L1057.09,806.26 L1057.31,804.50 "/></g></g><g id="Actor_.71"><g style="stroke:#000000;stroke-width:1.411"><path d="M1082.05,794.41 L1082.05,792.74 L1079.43,792.62 "/></g></g><g id="Actor_.72"><g style="stroke:#000000;stroke-width:1.411"><path d="M1057.31,803.55 L1057.31,804.50 L1057.09,806.26 L1057.09,804.54 "/></g></g><g id="Actor_.73"><g style="stroke:#000000;stroke-width:1.411"><path d="M293.91,324.88 C295.35,324.05 295.36,324.04 296.74,323.12 C298.01,321.78 298.02,321.76 299.21,320.35 C300.08,318.73 300.09,318.71 300.88,317.04 C301.22,315.42 301.23,315.40 301.47,313.77 "/><path d="M287.94,320.01 L287.94,322.16 L289.09,324.35 L291.21,325.31 L293.91,324.88 "/><path d="M301.47,313.77 L300.88,311.09 L299.21,309.48 L296.74,309.21 L294.93,309.93 "/><path d="M295.50,309.70 L301.47,313.77 "/></g></g><g id="Actor_.74"><g style="stroke:#000000;stroke-width:1.411"><path d="M1057.09,804.54 L1057.55,802.48 L1058.80,800.50 L1060.51,799.15 "/></g></g><g id="Actor_.75"><g style="stroke:#000000;stroke-width:1.411"><path d="M1060.51,799.15 L1077.82,790.36 L1076.43,791.14 L1060.27,799.34 "/></g></g><g id="Actor_.76"><g style="stroke:#000000;stroke-width:1.411"><path d="M1031.66,791.42 C1030.03,792.47 1030.02,792.48 1028.43,793.60 C1026.94,795.10 1026.94,795.11 1025.51,796.67 C1024.32,798.47 1024.32,798.48 1023.20,800.32 C1022.42,802.24 1022.41,802.25 1021.71,804.20 C1021.41,806.04 1021.41,806.06 1021.20,807.91 "/><path d="M1021.20,807.91 L1021.20,808.08 "/></g></g><g id="Actor_.77"><g style="stroke:#000000;stroke-width:1.411"><path d="M1079.43,792.62 L1082.05,792.74 L1081.48,790.77 L1079.93,789.90 L1077.82,790.36 L1076.43,791.14 L1077.74,790.85 L1078.70,791.39 L1078.96,792.31 "/></g></g><g id="Actor_.78"><g style="stroke:#000000;stroke-width:1.411"><path d="M1098.56,805.65 L1172.42,768.18 L1171.03,768.95 L1098.62,805.69 "/></g></g><g id="Actor_.79"><g style="stroke:#000000;stroke-width:1.411"><path d="M1178.26,758.98 C1178.07,760.29 1178.07,760.30 1177.81,761.59 C1177.22,762.94 1177.21,762.95 1176.55,764.26 C1175.63,765.43 1175.62,765.44 1174.65,766.57 C1173.56,767.40 1173.55,767.41 1172.42,768.18 "/><path d="M1178.48,757.22 L1178.26,758.98 "/><path d="M1172.42,768.18 L1171.03,768.95 "/></g></g><g id="Actor_.80"><g style="stroke:#000000;stroke-width:1.411"><path d="M1178.26,743.92 L1178.26,758.98 L1178.48,757.22 L1178.48,742.94 "/></g></g><g id="Actor_.81"><g style="stroke:#000000;stroke-width:1.411"><path d="M1182.48,737.26 L1180.37,738.94 L1178.82,741.38 L1178.26,743.92 "/></g></g><g id="Actor_.82"><g style="stroke:#000000;stroke-width:1.411"><path d="M1182.24,737.45 L1198.40,729.25 L1199.79,728.48 L1182.48,737.26 "/></g></g><g id="Actor_.83"><g style="stroke:#000000;stroke-width:1.411"><path d="M1060.21,804.96 L1059.12,805.51 L1060.51,808.18 L1063.04,806.90 "/></g></g><g id="Actor_.84"><g style="stroke:#000000;stroke-width:1.411"><path d="M1221.60,741.92 L1221.60,724.81 L1221.33,727.02 L1221.33,741.73 "/></g></g><g id="Actor_.85"><g style="stroke:#000000;stroke-width:1.411"><path d="M1203.22,730.62 L1203.22,730.40 L1202.87,730.39 "/></g></g><g id="Actor_.86"><g style="stroke:#000000;stroke-width:1.411"><path d="M1071.80,812.86 L1071.80,815.38 L1071.58,816.43 "/><path d="M1071.58,816.43 L1071.58,812.71 "/></g></g><g id="Actor_.87"><g style="stroke:#000000;stroke-width:1.411"><path d="M1081.50,825.50 L1065.54,833.59 L1065.76,830.11 L1078.66,823.56 "/></g></g><g id="Actor_.88"><g style="stroke:#000000;stroke-width:1.411"><path d="M1065.54,825.94 L1065.54,833.59 L1065.76,830.11 L1065.76,825.60 "/></g></g><g id="Actor_.89"><g style="stroke:#000000;stroke-width:1.411"><path d="M1049.04,803.68 L1211.27,721.37 L1209.53,718.03 L1112.15,767.44 L1047.30,800.34 L1049.04,803.68 "/></g></g><g id="Actor_.90"><g style="stroke:#000000;stroke-width:1.411"><path d="M1035.22,840.89 L1038.97,841.05 L1038.98,819.54 L1035.22,819.38 L1035.22,840.89 "/></g></g><g id="Actor_.91"><g style="stroke:#000000;stroke-width:1.411"><path d="M1085.48,828.21 L1049.04,846.70 L1047.30,847.67 L1085.55,828.26 "/></g></g><g id="Actor_.92"><g style="stroke:#000000;stroke-width:1.411"><path d="M1039.47,844.12 L1040.90,846.39 L1043.12,847.65 L1045.93,847.75 L1049.04,846.70 L1047.30,847.67 L1043.57,848.93 L1040.20,848.80 L1037.53,847.30 L1035.82,844.58 L1035.22,840.89 L1038.97,841.05 L1039.47,844.12 "/></g></g><g id="Actor_.93"><g style="stroke:#000000;stroke-width:1.411"><path d="M1065.54,825.94 L1071.58,816.43 L1071.80,815.38 "/></g></g><g id="Actor_.94"><g style="stroke:#000000;stroke-width:1.411"><path d="M1211.27,721.37 L1209.53,718.03 L1213.26,716.77 L1216.63,716.90 L1219.30,718.40 L1221.01,721.13 L1221.60,724.81 L1221.33,727.02 L1220.84,723.94 L1219.41,721.67 L1217.18,720.42 L1214.38,720.32 L1211.27,721.37 "/></g></g><g id="Actor_.95"><g style="stroke:#000000;stroke-width:1.411"><path d="M1036.25,813.95 C1036.85,812.28 1036.86,812.27 1037.53,810.62 C1038.83,808.50 1038.83,808.48 1040.20,806.41 C1041.85,804.61 1041.85,804.60 1043.57,802.87 C1045.40,801.57 1045.41,801.56 1047.30,800.34 "/><path d="M1049.04,803.68 C1047.46,804.69 1047.45,804.70 1045.93,805.78 C1044.50,807.22 1044.49,807.23 1043.12,808.73 C1041.98,810.46 1041.97,810.47 1040.90,812.24 C1040.15,814.08 1040.14,814.09 1039.47,815.97 C1039.18,817.74 1039.18,817.75 1038.98,819.54 "/><path d="M1035.22,819.38 L1035.82,815.09 L1036.25,813.95 "/><path d="M1047.30,800.34 L1049.04,803.68 "/><path d="M1038.98,819.54 L1035.22,819.38 "/></g></g><g id="Actor_.96"><g style="stroke:#000000;stroke-width:1.411"><path d="M1050.20,838.87 C1051.52,837.96 1051.54,837.95 1052.81,836.98 C1053.95,835.66 1053.96,835.65 1055.03,834.27 C1055.81,832.73 1055.82,832.72 1056.52,831.14 C1056.82,829.63 1056.82,829.61 1057.04,828.08 "/><path d="M1052.36,823.11 C1050.80,824.00 1050.79,824.01 1049.27,824.98 C1047.85,826.39 1047.84,826.40 1046.49,827.87 C1045.41,829.60 1045.40,829.61 1044.40,831.39 C1043.79,833.20 1043.78,833.22 1043.28,835.06 C1043.22,836.70 1043.22,833.39 1043.28,838.38 "/><path d="M1049.27,842.36 C1050.83,841.78 1050.85,841.77 1052.36,841.10 C1053.88,839.93 1053.89,839.92 1055.35,838.68 C1056.63,837.08 1056.63,837.07 1057.83,835.42 C1058.69,833.62 1058.70,833.60 1059.47,831.76 C1059.80,830.00 1059.80,829.99 1060.04,828.21 "/><path d="M1043.44,834.53 L1043.35,835.02 L1043.87,837.56 L1045.35,839.18 L1047.58,839.64 L1050.20,838.87 "/><path d="M1057.04,828.08 L1056.52,825.55 L1055.03,823.93 L1052.81,823.47 L1050.79,824.07 "/><path d="M1060.04,828.21 L1059.47,825.24 L1057.83,823.24 L1055.35,822.50 L1052.36,823.11 "/><path d="M1043.28,838.38 L1044.40,840.90 L1046.49,842.29 L1049.27,842.36 "/><path d="M1060.04,828.21 L1057.04,828.08 "/></g></g><g id="Actor_.97"><g style="stroke:#000000;stroke-width:1.411"><path d="M1171.03,768.95 L1098.62,805.69 "/></g></g><g id="Actor_.98"><g style="stroke:#000000;stroke-width:1.411"><path d="M1198.40,729.25 L1198.40,729.25 "/></g></g><g id="Actor_.99"><g style="stroke:#000000;stroke-width:1.411"><path d="M1178.48,757.22 L1178.48,757.22 "/></g></g><g id="Actor_.100"><g style="stroke:#000000;stroke-width:1.411"><path d="M1178.48,757.22 L1178.48,742.94 "/></g></g><g id="Actor_.101"><g style="stroke:#000000;stroke-width:1.411"><path d="M1035.22,819.38 C1035.50,817.23 1035.50,817.23 1035.82,815.09 C1036.01,814.52 1036.03,814.52 1036.25,813.95 C1036.89,812.29 1036.86,812.27 1037.53,810.62 C1038.83,808.50 1038.83,808.48 1040.20,806.41 C1041.85,804.61 1041.85,804.60 1043.57,802.87 C1045.40,801.57 1045.41,801.56 1047.30,800.34 "/><path d="M1033.05,790.64 C1031.17,791.86 1031.15,791.87 1029.32,793.17 C1027.61,794.90 1027.60,794.91 1025.96,796.71 C1024.58,798.78 1024.58,798.79 1023.28,800.92 C1022.38,803.13 1022.39,803.14 1021.57,805.39 C1021.34,806.75 1021.34,806.76 1021.19,808.14 "/><path d="M1021.19,808.14 L1020.98,809.68 L1035.22,819.38 "/><path d="M1047.30,800.34 L1033.05,790.64 "/></g></g><g id="Actor_.102"><g style="stroke:#000000;stroke-width:1.411"><path d="M1037.53,847.30 L1023.28,837.60 L1021.57,834.87 L1020.98,831.19 L1035.22,840.89 L1035.82,844.58 L1037.53,847.30 L1040.20,848.80 L1043.57,848.93 L1047.30,847.67 "/></g></g><g id="Actor_.103"><g style="stroke:#000000;stroke-width:1.411"><path d="M1076.43,791.14 L1077.74,790.85 L1078.70,791.39 L1078.96,792.31 "/></g></g><g id="Actor_.104"><g style="stroke:#000000;stroke-width:1.411"><path d="M1060.27,799.34 L1076.43,791.14 "/></g></g><g id="Actor_.105"><g style="stroke:#000000;stroke-width:1.411"><path d="M1198.40,729.25 L1182.24,737.45 "/></g></g><g id="Actor_.106"><g style="stroke:#000000;stroke-width:1.411"><path d="M1033.13,790.70 L1033.05,790.64 L1195.28,708.33 L1209.53,718.03 L1047.30,800.34 L1033.13,790.70 "/></g></g><g id="Actor_.107"><g style="stroke:#000000;stroke-width:1.411"><path d="M1021.28,831.39 L1020.98,831.19 L1020.98,809.68 L1035.22,819.38 L1035.22,840.89 L1021.28,831.39 "/></g></g><g id="Actor_.108"><g style="stroke:#000000;stroke-width:1.411"><path d="M1020.98,831.19 L1021.57,834.87 L1023.28,837.60 "/></g></g><g id="Actor_.109"><g style="stroke:#000000;stroke-width:1.411"><path d="M1020.98,831.19 L1020.98,809.68 L1021.20,807.91 "/></g></g><g id="paperID" visibility="hidden" opacity="0.00" transform="scale(0.000100)"><path style="stroke:#000000;stroke-width:0.500;fill:#e6e6e6;fill-rule:evenodd" d="M-2000.00,-2000.00L3500.00,-2000.00L3500.00,3000.00L-2000.00,3000.00zM0.00,0.00L1500.00,0.00L1500.00,1000.00L0.00,1000.00z"/><path style="fill:#000000;fill-opacity:0.118" d="M3.00,1000.00L1500.00,1000.00L1500.00,3.00L1503.00,3.00L1503.00,1003.00L3.00,1003.00z"/></g><g id="ToolTip" visibility="hidden" opacity="0" transform="translate(0,0)"><rect id="ToolTipShadow" opacity="0.20" fill="black" stroke="none" x="0" y="0" width="30" height="8"/><rect id="ToolTipBG" fill="#ffffe1" stroke="black" x="0" y="0" width="30" height="8"/><text xml:space="preserve" id="ToolTipText" fill="black" x="0" y="0" width="30" height="8">tooltip</text></g></g></svg>
