<?xml version="1.0" encoding="UTF-8" standalone="no"?>
<svg xmlns="http://www.w3.org/2000/svg" xmlns:xlink="http://www.w3.org/1999/xlink" width="1200.000mm" height="1000.000mm" viewBox="0.000000 0.000000 1200.000000 1000.000000" stroke-linejoin="round" stroke-linecap="round" fill="none" fill-rule="evenodd"><desc>Composer Export</desc><script type="text/ecmascript"><![CDATA[
if(typeof(top) != "undefined")
{
	top.ShowPaper = ShowPaper;
}
function ShowHotSpot(evt,hotspotid)
{
	var svgDocument = evt.target.ownerDocument;
	var strId = "hotspot."+hotspotid;
	var hotspot = svgDocument.getElementById(strId);
	if(hotspot)
		hotspot.setAttribute("opacity",".5");
}
function HideHotSpot(evt,hotspotid)
{
	var svgDocument = evt.target.ownerDocument;
	var strId = "hotspot."+hotspotid;
	var hotspot = svgDocument.getElementById(strId);
	if(hotspot)
		hotspot.setAttribute("opacity","0");

	var toolTip = svgDocument.getElementById('ToolTip');
	if(toolTip)
		toolTip.setAttribute("visibility","hidden");
}
function ShowToolTip(evt,hotspotid,strTooltip)
{
	if(strTooltip=="")
	return;

	// change text
	var svgDocument = evt.target.ownerDocument;
	var tiptext = svgDocument.getElementById('ToolTipText');
	if( !tiptext )
	return;
	tiptext.firstChild.nodeValue = " " + strTooltip + "  " ;

	// show tooltip before, else some refresh issue

	var toolTip = svgDocument.getElementById('ToolTip');
	if(!toolTip)
	return;

	toolTip.setAttribute("visibility","visible");
	toolTip.setAttribute("opacity",".95");

	// move tooltip
	// get viewbox

	var root = svgDocument.documentElement;
	var vbox = (root.getAttribute("viewBox")).split(' ');
	var x0 = parseFloat(vbox[0]);
	var y0 = parseFloat(vbox[1]);
	var vboxW = parseFloat(vbox[2]);
	var vboxH = parseFloat(vbox[3]);

	// get default width of svg

	var strW = root.getAttribute("width");
	var svgW = parseFloat(strW);
	if(strW.indexOf('mm') != -1)
	svgW *= 3.779;

	var strH = root.getAttribute("height");
	var svgH = parseFloat(strH);
	if(strH.indexOf('mm') != -1)
	svgH *= 3.779;  	// 96 dpi  -> 96/25.4 = 3.779

	// update the viewbox / width / height if svg is embedded in html with zoom fit all
	var realx0 = x0;
	var realy0 = y0;
	var realvboxW = vboxW;
	var realvboxH = vboxH;
	var realsvgW = svgW;
	var realsvgH = svgH;

	if ((typeof(top) == "undefined") || (typeof(top.svgctl1) != "undefined")) // embedded in html
	{
		// get window size in pxl

		svgW = window.innerWidth;
		svgH = window.innerHeight;

		// calculate real viewbox

		realsvgW = svgW;
		realsvgH = svgH;
		if((svgW / svgH) > (vboxW / vboxH))
		{
			realvboxW = (vboxH * svgW) / svgH;
			realvboxH = vboxH;
			realx0 = x0 - (realvboxW - vboxW)/2 ;
		}
		else
		{
			realvboxH = (vboxW * svgH) / svgW;
			realvboxW = vboxW;
			realy0 = y0 - (realvboxH - vboxH)/2 ;
		}
	}

	// get user zoom/pan

	var newScale = root.currentScale;
	var translation = root.currentTranslate;

	// transform pxl to user unit

	var xPos = (((evt.clientX+10- translation.x)/newScale) * realvboxW)/realsvgW  + realx0 ;
	var yPos = (((evt.clientY+5- translation.y)/newScale) * realvboxH)/ realsvgH  + realy0 ;
	var scaleForWidth = ( (1 / newScale) * realvboxH) / realsvgH;

	// move tooltip

	toolTip.setAttribute("transform", "translate(" + xPos + "," + yPos + ")" );

	// resize tooltip

	var fontsize = 12;
	tiptext.setAttribute("font-size",fontsize*scaleForWidth);
	tiptext.setAttribute("y", fontsize*scaleForWidth);
	var tipBG = svgDocument.getElementById('ToolTipBG');
	var outline = tiptext.getBBox();
	if(tipBG)
	{
		tipBG.setAttribute("stroke-width", 1*scaleForWidth);
		tipBG.setAttribute("width", Number(outline.width) );
		tipBG.setAttribute("height", Number(outline.height) + fontsize*.5*scaleForWidth );
	}
	var ToolTipShadow = svgDocument.getElementById('ToolTipShadow');
	if(ToolTipShadow)
	{
		ToolTipShadow.setAttribute("width", Number(outline.width) );
		ToolTipShadow.setAttribute("height", Number(outline.height) + fontsize*.5*scaleForWidth );
		ToolTipShadow.setAttribute("x", 3*scaleForWidth);
		ToolTipShadow.setAttribute("y", 3*scaleForWidth);
	}
}
function ShowPaper()
{
  var svgDocument = getDocument();
  var paper = svgDocument.getElementById("paperID");
  if(paper)
  {
    paper.setAttribute("transform","scale(1)");
    paper.setAttribute("opacity","1");
    paper.setAttribute("visibility","visible");
  }
  var svg = svgDocument.getRootElement();
  if(svg)
  {
    svg.setAttribute("width","1210.000mm");
    svg.setAttribute("height","1010.000mm");
    svg.setAttribute("viewBox","-5.000000 -5.000000 1210.000000 1010.000000");
  }
}
]]></script><defs/><g><path style="fill:#ffffff" d="M1199.40,999.59L0.22,999.59L0.22,0.22L1199.40,0.22z"/><path style="fill:#97fa98" d="M197.64,622.41L197.77,665.82L197.45,666.41L161.95,686.96L159.73,687.52L123.36,666.22L123.55,664.04L160.21,601.06L161.21,601.07z"/><path style="fill:#97fa98" d="M100.88,676.26L102.67,679.75L102.68,682.83L102.29,684.10L87.46,692.89L87.39,694.71L86.06,698.77L84.36,700.02L79.34,700.00L75.01,697.71L72.08,693.10L72.01,691.13L71.67,690.88L71.97,685.42L73.87,682.22L75.14,681.82L78.96,681.82L80.95,683.00L82.07,683.10L96.08,674.83L98.57,674.84z"/><path style="fill:#97fa98" d="M446.85,766.18L446.98,809.60L446.66,810.18L411.16,830.74L408.96,831.28L372.82,810.54L372.76,807.81L409.44,744.81L410.42,744.86z"/><path style="fill:#97fa98" d="M350.75,820.85L351.89,824.29L351.89,826.58L351.50,827.88L336.71,836.62L335.79,841.59L333.58,843.80L328.55,843.79L323.47,840.76L321.31,836.86L321.22,834.91L320.88,834.65L320.88,830.95L321.36,828.79L323.08,826.00L324.35,825.60L327.43,825.61L330.16,826.76L331.29,826.88L345.00,818.97L348.01,819.04z"/><path style="fill:#000020" d="M224.44,600.38L225.36,596.67L225.41,602.16z"/><path style="fill:#000020" d="M197.77,665.82L197.64,622.41L198.05,622.56z"/><path style="fill:#000020" d="M102.68,682.83L102.67,679.75L103.00,680.04z"/><path style="fill:#000020" d="M72.08,693.10L71.67,690.88L72.01,691.13z"/><path style="fill:#000020" d="M473.79,743.72L474.58,741.19L474.61,746.70z"/><path style="fill:#000020" d="M446.98,809.60L446.85,766.18L447.27,766.34z"/><path style="fill:#000020" d="M348.01,819.04L345.00,818.97L347.77,818.65z"/><path style="fill:#000020" d="M351.89,826.58L351.89,824.29L352.22,824.62z"/><path style="fill:#000020" d="M321.31,836.86L320.88,834.65L321.22,834.91z"/><g id="Actor_.0"><g style="stroke:#000000;stroke-width:0.705"><path d="M419.53,785.71 C419.11,785.25 419.11,785.25 418.72,784.77 C417.88,783.35 417.86,783.35 417.06,781.90 C416.51,780.41 416.50,780.40 416.00,778.88 C415.79,777.45 415.79,777.44 415.64,776.00 "/><path d="M401.93,783.92 C401.17,785.40 401.17,785.40 400.45,786.91 C399.92,788.43 399.93,788.43 399.43,789.96 C399.35,790.33 399.36,790.33 399.30,790.70 C399.10,791.82 399.08,791.81 398.90,792.93 C398.88,794.30 398.87,794.30 398.90,795.67 C399.13,796.85 399.13,796.86 399.43,798.03 C399.91,798.97 399.92,798.98 400.45,799.90 "/><path d="M403.78,801.82 C404.84,801.83 404.85,801.83 405.91,801.77 C407.07,801.44 407.08,801.43 408.22,801.05 C409.14,800.55 409.13,800.52 410.04,800.00 C410.31,799.84 410.32,799.85 410.59,799.68 C411.75,798.72 411.76,798.73 412.90,797.74 C413.98,796.55 413.98,796.55 415.03,795.32 C415.97,793.95 415.98,793.95 416.88,792.55 "/><path d="M401.93,783.92 C402.84,782.52 402.84,782.52 403.78,781.14 C404.83,779.92 404.83,779.92 405.91,778.73 C407.05,777.74 407.06,777.74 408.22,776.79 C408.75,776.46 408.76,776.47 409.30,776.16 C409.95,775.79 409.94,775.77 410.59,775.42 C411.73,775.04 411.74,775.02 412.90,774.69 C413.96,774.64 413.97,774.64 415.03,774.65 "/><path d="M418.36,776.57 C418.90,777.48 418.90,777.50 419.39,778.44 C419.68,779.61 419.68,779.62 419.91,780.80 C419.94,782.16 419.94,782.17 419.91,783.54 C419.67,785.02 419.67,785.03 419.39,786.50 C418.89,788.04 418.89,788.04 418.36,789.56 C417.64,791.06 417.64,791.07 416.88,792.55 "/><path d="M412.28,798.26 C411.68,798.13 411.67,798.13 411.06,798.03 C409.41,798.02 409.40,798.00 407.75,798.03 C406.18,798.30 406.17,798.30 404.61,798.62 C403.26,799.15 403.26,799.16 401.93,799.74 C401.49,800.07 401.48,800.07 401.07,800.43 "/><path d="M372.02,809.82 L409.41,831.40 L446.79,766.65 L409.41,745.07 L372.02,809.82 "/><path d="M415.64,776.00 L401.93,783.92 "/><path d="M400.45,799.90 L401.93,801.18 L403.78,801.82 "/><path d="M416.88,792.55 L401.93,783.92 "/><path d="M415.03,774.65 L416.88,775.28 L418.36,776.57 "/><path d="M408.95,800.63 L406.69,800.98 L404.94,801.79 "/><path d="M409.41,831.40 L446.79,809.82 L446.79,766.65 "/><path d="M415.64,776.00 L415.80,774.91 "/><path d="M419.91,781.53 L419.24,780.08 L418.88,777.87 L418.93,777.61 "/><path d="M418.88,777.87 L419.03,777.79 "/></g></g><g id="Actor_.1"><g style="stroke:#000000;stroke-width:0.705"><path d="M163.07,654.38 C162.47,654.25 162.46,654.25 161.85,654.15 C160.20,654.13 160.19,654.12 158.54,654.15 C156.97,654.42 156.96,654.42 155.40,654.74 C154.05,655.27 154.05,655.28 152.72,655.86 C152.28,656.19 152.27,656.19 151.86,656.55 "/><path d="M167.67,648.67 C168.43,647.19 168.43,647.18 169.15,645.68 C169.68,644.16 169.69,644.16 170.18,642.62 C170.46,641.15 170.46,641.14 170.70,639.65 C170.73,638.29 170.73,638.28 170.70,636.92 C170.47,635.74 170.47,635.73 170.18,634.56 C169.69,633.61 169.69,633.60 169.15,632.69 "/><path d="M165.82,630.77 C164.76,630.76 164.75,630.76 163.69,630.81 C162.53,631.14 162.52,631.15 161.38,631.54 C160.19,632.19 160.18,632.20 159.01,632.90 C157.84,633.85 157.84,633.86 156.70,634.85 C155.65,636.01 155.64,636.01 154.62,637.21 C153.65,638.61 153.65,638.61 152.72,640.04 C151.96,641.52 151.96,641.52 151.24,643.03 C150.71,644.55 150.71,644.55 150.22,646.08 C149.93,647.56 149.93,647.57 149.69,649.05 C149.66,650.42 149.66,650.42 149.69,651.79 C149.93,652.97 149.92,652.98 150.22,654.15 C150.70,655.09 150.71,655.10 151.24,656.02 "/><path d="M154.57,657.94 C155.63,657.95 155.65,657.95 156.70,657.89 C157.86,657.56 157.87,657.56 159.01,657.17 C160.21,656.51 160.21,656.51 161.38,655.80 C162.55,654.85 162.55,654.85 163.69,653.86 C164.77,652.67 164.77,652.66 165.82,651.44 C166.76,650.07 166.77,650.07 167.67,648.67 "/><path d="M166.43,632.12 C166.58,633.56 166.58,633.57 166.79,635.00 C167.29,636.52 167.30,636.53 167.85,638.02 C168.65,639.47 168.67,639.46 169.51,640.89 C169.90,641.37 169.90,641.37 170.32,641.83 "/><path d="M122.82,665.94 L160.20,687.52 L197.58,622.77 L160.20,601.19 L122.82,665.94 "/><path d="M169.15,632.69 L167.67,631.40 L165.82,630.77 "/><path d="M151.24,656.02 L152.72,657.30 L154.57,657.94 "/><path d="M167.67,648.67 L152.72,640.04 L166.43,632.12 "/><path d="M159.74,656.75 L157.48,657.10 L155.73,657.91 "/><path d="M160.20,687.52 L197.58,665.94 L197.58,622.77 "/><path d="M166.43,632.12 L166.59,631.03 "/><path d="M169.72,633.73 L169.67,633.99 L170.03,636.19 L170.70,637.65 "/><path d="M169.67,633.99 L169.82,633.91 "/></g></g><g id="Actor_.2"><g style="stroke:#000000;stroke-width:0.705"><path d="M75.93,689.16 C76.69,689.84 76.69,689.85 77.41,690.57 C78.01,691.49 78.01,691.49 78.57,692.44 C78.91,693.43 78.91,693.44 79.20,694.44 C79.23,695.33 79.23,695.35 79.20,696.24 "/><path d="M73.49,695.80 C74.56,696.96 74.57,696.97 75.70,698.07 C76.70,698.68 76.71,698.67 77.74,699.24 C78.86,699.69 78.86,699.69 79.99,700.10 C80.61,700.20 80.61,700.20 81.23,700.28 C82.22,700.28 82.22,700.28 83.21,700.26 "/><path d="M85.79,697.65 C86.00,696.49 86.00,696.48 86.14,695.31 C86.00,693.95 85.99,693.94 85.79,692.58 C85.32,691.14 85.31,691.13 84.78,689.71 C84.02,688.34 84.02,688.33 83.21,686.99 C82.25,685.82 82.24,685.81 81.23,684.68 C80.16,683.82 80.15,683.81 79.04,683.01 C77.96,682.55 77.95,682.54 76.84,682.14 "/><path d="M73.29,683.07 C72.78,683.92 72.78,683.92 72.28,684.78 C72.14,685.10 72.13,685.10 72.01,685.43 C71.69,686.72 71.67,686.72 71.40,688.01 C71.37,688.96 71.38,688.97 71.40,689.92 C71.56,690.87 71.58,690.87 71.77,691.82 C71.89,692.41 71.87,692.41 72.01,692.99 C72.43,693.84 72.43,693.85 72.90,694.68 "/><path d="M74.10,695.28 C73.71,694.69 73.71,694.69 73.34,694.09 C73.07,693.46 73.07,693.45 72.84,692.80 C72.74,692.19 72.73,692.18 72.66,691.57 C72.73,691.05 72.73,691.04 72.84,690.53 "/><path d="M74.10,689.52 C74.07,689.71 74.07,689.71 74.02,689.89 C73.90,690.11 73.90,690.11 73.77,690.32 C73.56,690.59 73.56,690.59 73.34,690.86 C73.00,691.22 73.00,691.22 72.66,691.57 "/><path d="M72.66,691.57 C73.01,691.96 73.01,691.97 73.34,692.38 C73.56,692.78 73.56,692.78 73.77,693.20 C73.90,693.66 73.90,693.66 74.02,694.13 C74.07,694.70 74.07,694.70 74.10,695.28 "/><path d="M74.10,695.28 C74.63,695.40 74.63,695.40 75.16,695.54 C75.54,695.71 75.55,695.71 75.93,695.88 C76.23,696.10 76.23,696.10 76.52,696.33 C76.75,696.63 76.76,696.63 76.98,696.94 "/><path d="M78.42,694.89 C78.38,695.08 78.38,695.08 78.33,695.26 C78.22,695.48 78.21,695.48 78.08,695.69 C77.87,695.96 77.87,695.96 77.65,696.23 C77.32,696.58 77.32,696.58 76.98,696.94 "/><path d="M78.25,695.93 C78.35,695.42 78.35,695.41 78.42,694.89 C78.35,694.27 78.35,694.27 78.25,693.65 C78.01,693.01 78.01,693.00 77.75,692.37 C77.38,691.77 77.37,691.76 76.98,691.18 C76.52,690.70 76.52,690.70 76.04,690.25 C75.55,689.94 75.55,689.94 75.04,689.67 "/><path d="M86.41,697.29 C86.61,696.13 86.62,696.12 86.76,694.96 C86.62,693.59 86.61,693.58 86.41,692.22 C85.93,690.78 85.93,690.77 85.40,689.35 C84.64,687.98 84.64,687.97 83.83,686.63 C82.86,685.46 82.86,685.45 81.85,684.32 C80.77,683.47 80.77,683.46 79.65,682.65 "/><path d="M98.66,675.57 C99.38,676.12 99.39,676.13 100.09,676.72 C100.71,677.52 100.71,677.53 101.30,678.36 C101.72,679.28 101.73,679.29 102.11,680.23 C102.27,681.13 102.28,681.13 102.39,682.04 "/><path d="M102.39,682.04 C102.41,681.50 102.41,681.50 102.39,680.96 C102.25,680.12 102.26,680.11 102.07,679.27 C101.65,678.43 101.65,678.42 101.18,677.60 C100.58,676.95 100.57,676.95 99.93,676.33 C99.31,675.93 99.30,675.93 98.66,675.57 "/><path d="M73.04,694.99 L72.13,693.01 L71.80,691.07 L72.13,689.50 L73.04,688.58 L74.39,688.46 L75.93,689.16 "/><path d="M79.20,696.24 L78.57,697.51 L77.41,698.05 L75.93,697.75 L74.49,696.74 L74.39,696.67 L73.04,694.99 L73.49,695.80 "/><path d="M83.21,700.26 L84.78,699.35 L85.79,697.65 "/><path d="M76.84,682.14 L74.86,682.17 L73.29,683.07 "/><path d="M72.84,690.53 L73.34,689.82 L74.10,689.52 "/><path d="M76.98,696.94 L76.04,696.79 L75.04,696.21 L74.10,695.28 L76.98,693.61 L78.35,694.41 "/><path d="M76.98,696.94 L77.75,696.64 L78.25,695.93 "/><path d="M75.04,689.67 L74.10,689.52 L75.16,689.79 L75.56,689.97 "/><path d="M72.66,691.57 L75.49,689.94 "/><path d="M73.29,683.07 L74.68,682.27 "/><path d="M76.98,693.61 L75.57,689.97 "/><path d="M74.86,682.17 L75.48,681.81 L77.46,681.79 L79.65,682.65 L79.04,683.01 "/><path d="M84.78,699.35 L85.40,698.99 L86.41,697.29 "/><path d="M81.23,683.85 L96.01,675.31 L97.22,675.07 L98.66,675.57 "/><path d="M102.39,682.04 L102.11,683.53 L101.30,684.46 L86.50,692.95 "/><path d="M84.05,699.77 L83.72,699.96 L84.45,699.54 "/></g></g><g id="Actor_.3"><g style="stroke:#000000;stroke-width:0.705"><path d="M202.68,613.95 C202.69,614.44 202.69,614.45 202.68,614.94 C202.56,615.38 202.53,615.37 202.41,615.81 C202.39,616.35 202.39,616.36 202.41,616.90 C202.53,617.49 202.53,617.50 202.68,618.09 "/><path d="M204.18,620.70 C204.62,621.12 204.63,621.12 205.08,621.53 C205.54,621.81 205.54,621.81 206.02,622.07 C206.46,622.18 206.47,622.16 206.91,622.27 C207.36,622.51 207.36,622.51 207.80,622.78 "/><path d="M206.91,615.65 C206.48,615.22 206.47,615.22 206.02,614.81 C205.56,614.53 205.55,614.53 205.08,614.27 C204.64,614.16 204.63,614.15 204.18,614.07 "/><path d="M207.80,587.38 C207.35,587.14 207.35,587.13 206.91,586.87 C206.47,586.47 206.48,586.45 206.03,586.05 C205.56,585.76 205.56,585.76 205.08,585.49 C204.64,585.38 204.63,585.41 204.18,585.29 C203.74,585.05 203.73,585.05 203.30,584.78 "/><path d="M202.68,585.14 C202.69,585.65 202.69,585.66 202.68,586.16 C202.56,586.60 202.53,586.60 202.41,587.04 C202.39,587.58 202.39,587.58 202.41,588.12 C202.53,588.72 202.55,588.72 202.68,589.31 C202.73,590.02 202.73,590.03 202.76,590.74 "/><path d="M203.30,591.41 C203.75,591.65 203.75,591.65 204.18,591.92 C204.64,592.33 204.63,592.35 205.08,592.75 C205.54,593.03 205.54,593.04 206.02,593.29 C206.46,593.41 206.47,593.38 206.91,593.50 C207.36,593.74 207.36,593.74 207.80,594.00 "/><path d="M208.42,618.25 C208.57,618.84 208.57,618.85 208.69,619.44 C208.71,619.98 208.71,619.99 208.69,620.53 C208.57,620.97 208.57,620.97 208.42,621.40 "/><path d="M208.42,589.47 C208.57,590.08 208.57,590.09 208.69,590.70 C208.70,591.22 208.71,591.23 208.69,591.75 C208.57,592.19 208.57,592.20 208.42,592.63 "/><path d="M214.89,601.79 C215.19,602.08 215.20,602.08 215.52,602.34 C218.00,603.79 218.00,603.80 220.50,605.22 C220.81,605.32 220.81,605.32 221.13,605.39 "/><path d="M216.64,613.50 C217.08,613.93 217.09,613.93 217.54,614.33 C218.00,614.61 218.01,614.62 218.48,614.88 C218.92,614.99 218.93,614.96 219.37,615.08 C219.82,615.32 219.83,615.32 220.26,615.59 "/><path d="M220.88,615.23 C220.86,614.72 220.86,614.71 220.88,614.21 C221.00,613.77 221.03,613.77 221.15,613.33 C221.17,612.79 221.17,612.79 221.15,612.25 C221.03,611.65 221.03,611.65 220.88,611.06 "/><path d="M215.14,611.91 C215.15,611.40 215.15,611.40 215.14,610.90 C215.02,610.30 214.99,610.30 214.87,609.70 C214.85,609.16 214.85,609.16 214.87,608.62 C214.99,608.18 215.02,608.18 215.14,607.74 C215.16,607.24 215.16,607.23 215.14,606.73 "/><path d="M219.38,608.45 C218.94,608.03 218.93,608.02 218.48,607.62 C218.02,607.34 218.01,607.33 217.54,607.08 C217.10,606.96 217.09,606.99 216.64,606.87 C216.20,606.63 216.19,606.63 215.76,606.37 "/><path d="M234.04,624.91 C233.99,625.06 233.99,625.06 233.96,625.22 C233.95,626.44 233.97,626.44 233.96,627.67 C233.93,627.82 233.92,627.83 233.88,627.98 "/><path d="M227.60,632.56 C227.45,631.93 227.45,631.92 227.33,631.28 C227.32,630.75 227.31,630.74 227.33,630.20 C227.45,629.76 227.48,629.77 227.60,629.33 C227.62,628.82 227.62,628.48 227.60,628.31 "/><path d="M231.84,607.88 C231.39,607.80 231.38,607.80 230.94,607.68 C230.47,607.43 230.46,607.42 230.00,607.14 C229.55,606.73 229.56,606.71 229.11,606.31 C228.67,606.04 228.67,606.04 228.22,605.80 "/><path d="M227.68,605.13 C227.65,604.41 227.65,604.41 227.60,603.70 C227.48,603.10 227.45,603.11 227.33,602.51 C227.31,601.97 227.31,601.96 227.33,601.43 C227.45,600.99 227.45,600.98 227.60,600.55 "/><path d="M229.11,599.68 C229.55,599.77 229.56,599.77 230.00,599.88 C230.48,600.14 230.48,600.14 230.94,600.42 C231.39,600.83 231.40,600.83 231.84,601.26 "/><path d="M233.34,632.64 C233.49,633.23 233.49,633.23 233.61,633.83 C233.63,634.37 233.63,634.38 233.61,634.91 C233.49,635.35 233.49,635.36 233.34,635.79 "/><path d="M231.84,636.66 C231.39,636.57 231.38,636.57 230.94,636.46 C230.47,636.20 230.46,636.20 230.00,635.92 C229.55,635.51 229.56,635.49 229.11,635.08 C228.67,634.82 228.67,634.82 228.22,634.57 "/><path d="M229.11,628.46 C229.55,628.54 229.56,628.54 230.00,628.66 C230.48,628.91 230.48,628.92 230.94,629.20 C231.39,629.61 231.40,629.61 231.84,630.03 "/><path d="M233.34,607.01 C233.49,606.58 233.49,606.58 233.61,606.14 C233.63,605.60 233.63,605.59 233.61,605.06 C233.49,604.46 233.49,604.45 233.34,603.86 "/><path d="M220.00,619.32 L210.91,624.57 L211.22,625.38 L213.65,626.87 L214.19,627.55 L214.27,629.68 L214.19,629.99 L213.96,630.12 L199.63,621.85 L199.32,621.05 L199.40,604.91 L199.63,604.78 L200.00,604.89 L201.75,606.00 L202.06,606.80 L202.07,609.30 L202.37,610.05 L207.67,613.21 L208.29,612.85 L208.36,610.01 L208.54,609.90 L208.79,609.97 L210.53,610.98 L211.78,610.26 L211.61,610.88 L211.16,611.14 L210.53,610.98 "/><path d="M200.00,604.89 L208.29,600.04 L208.36,600.80 L208.54,601.11 L210.53,602.34 L211.16,602.90 L211.62,603.73 L202.07,609.30 "/><path d="M204.80,595.15 L202.06,596.73 L202.06,594.29 L202.68,593.93 L207.98,597.08 L208.29,597.88 L208.29,599.78 L199.63,604.78 "/><path d="M201.75,597.17 L204.65,595.50 L201.75,597.17 L200.00,596.26 L199.40,595.56 L199.32,579.32 L199.40,579.01 L200.00,578.67 L199.40,579.01 "/><path d="M200.00,579.00 L897.67,176.13 L911.43,184.01 L213.65,586.88 L199.63,578.88 "/><path d="M200.00,578.67 L716.28,280.59 L715.63,280.97 "/><path d="M202.68,614.94 L204.18,614.07 L203.30,613.56 L202.68,613.95 "/><path d="M202.68,618.09 L206.91,615.65 L207.80,616.15 L202.68,619.11 L202.99,619.91 L203.30,620.19 L208.42,617.23 L208.42,618.25 L204.65,620.43 L204.18,620.70 L203.30,620.19 "/><path d="M202.68,619.11 L202.68,618.09 "/><path d="M207.80,622.78 L208.42,622.42 L208.34,622.73 L208.11,622.86 L207.80,622.78 "/><path d="M202.68,613.95 L202.76,613.61 L202.99,613.48 L203.30,613.56 "/><path d="M202.68,610.33 L211.78,605.08 "/><path d="M202.06,606.80 L210.16,602.13 "/><path d="M201.44,605.72 L208.91,601.41 "/><path d="M202.06,596.73 L201.98,597.04 "/><path d="M204.65,595.50 L205.03,595.28 "/><path d="M202.06,594.29 L202.14,593.97 L202.37,593.84 L202.68,593.93 "/><path d="M202.68,590.33 L207.80,587.38 "/><path d="M203.30,584.78 L202.68,585.14 "/><path d="M202.76,590.74 L203.30,591.41 "/><path d="M207.80,594.00 L208.42,593.64 L208.42,592.63 L206.91,593.50 "/><path d="M203.30,591.41 L208.42,588.46 L208.11,587.65 L207.80,587.38 "/><path d="M204.18,591.92 L208.42,589.47 L208.42,588.46 "/><path d="M202.68,586.16 L204.18,585.29 "/><path d="M202.68,589.31 L206.91,586.87 "/><path d="M203.30,584.78 L202.99,584.70 L202.76,584.83 L202.68,585.14 "/><path d="M208.42,622.42 L208.42,621.40 L206.91,622.27 "/><path d="M207.80,616.15 L208.34,616.83 L208.42,617.23 "/><path d="M208.79,609.97 L211.78,608.24 "/><path d="M208.54,609.90 L211.78,608.03 L211.78,610.26 "/><path d="M207.67,613.21 L207.98,613.29 L208.21,613.16 L208.29,612.85 "/><path d="M208.29,600.04 L208.29,599.78 "/><path d="M207.80,594.00 L208.11,594.09 L208.34,593.96 L208.42,593.64 "/><path d="M210.91,624.57 L210.91,618.82 L211.53,618.46 L214.02,619.82 L214.27,619.47 L214.27,617.45 L215.52,616.73 L217.45,617.84 L214.15,619.75 "/><path d="M211.53,625.65 L221.13,620.16 L220.50,619.61 L217.45,617.84 "/><path d="M213.65,626.87 L221.75,622.20 "/><path d="M210.91,618.82 L210.99,618.51 L211.22,618.37 L211.53,618.46 "/><path d="M211.78,608.03 L211.78,604.50 L211.62,603.73 "/><path d="M908.69,189.02 L908.69,192.07 L909.00,192.87 L909.32,193.15 L211.53,596.01 L211.22,595.74 L210.91,594.93 L210.91,589.18 L211.53,588.82 L213.65,590.04 L213.96,590.12 L214.19,589.99 L214.27,587.96 L214.19,587.55 L213.65,586.88 "/><path d="M211.53,596.01 L213.77,597.31 L221.75,592.70 "/><path d="M213.77,597.31 L214.21,597.84 L214.27,600.18 L214.44,601.00 L214.89,601.79 "/><path d="M221.13,605.39 L221.58,605.12 L221.75,604.50 L220.50,605.22 "/><path d="M210.91,594.93 L908.69,192.07 "/><path d="M210.91,589.18 L210.99,588.87 L211.22,588.73 L211.53,588.82 "/><path d="M214.27,627.95 L221.75,623.64 "/><path d="M214.27,629.68 L222.62,624.86 "/><path d="M225.11,632.77 L225.03,633.09 L224.80,633.22 L224.49,633.13 L225.11,632.77 L225.03,626.61 L224.49,625.94 L222.85,624.99 L214.19,629.99 "/><path d="M214.27,619.47 L217.26,617.74 "/><path d="M214.27,617.45 L214.44,616.83 L214.89,616.56 L215.52,616.73 "/><path d="M220.26,615.59 L220.88,615.23 "/><path d="M220.88,611.06 L216.64,613.50 L215.45,612.72 L215.14,611.91 "/><path d="M215.14,606.73 L215.76,606.37 L215.45,606.28 L215.22,606.41 L215.14,606.73 "/><path d="M215.14,610.90 L219.38,608.45 L220.26,608.96 L220.80,609.63 L220.88,610.04 L215.76,612.99 "/><path d="M215.14,611.91 L220.26,608.96 "/><path d="M215.14,607.74 L216.64,606.87 "/><path d="M215.52,602.34 L224.98,596.88 "/><path d="M222.74,595.29 L214.27,600.18 "/><path d="M214.27,598.17 L221.75,593.85 "/><path d="M214.19,589.99 L218.60,587.44 L213.96,590.12 "/><path d="M214.27,587.96 L912.06,185.09 L912.06,186.81 L214.27,589.68 "/><path d="M225.11,630.33 L222.37,631.91 L222.06,631.83 L221.83,631.96 L221.75,634.00 L222.06,634.80 L236.08,642.99 L236.39,643.07 L236.62,642.94 L236.62,626.40 L236.08,625.72 L234.27,624.78 L234.04,624.91 "/><path d="M233.88,627.98 L233.65,628.11 L228.35,625.15 L227.81,624.48 L227.73,624.07 L227.66,621.15 L227.23,620.62 L225.49,619.61 L233.96,614.72 "/><path d="M222.06,631.83 L225.11,630.06 "/><path d="M222.37,631.91 L224.49,633.13 "/><path d="M222.85,624.99 L222.25,624.64 L221.81,624.11 L221.75,621.77 L221.58,620.95 L221.13,620.16 "/><path d="M219.37,615.08 L220.88,614.21 "/><path d="M220.26,615.59 L220.57,615.67 L220.80,615.54 L220.88,615.23 "/><path d="M220.88,610.04 L220.88,611.06 "/><path d="M221.75,604.50 L221.75,602.49 L221.81,602.24 L222.00,602.13 L224.49,603.49 L225.11,603.13 L225.11,600.33 L221.81,602.24 "/><path d="M222.25,602.20 L225.11,600.54 "/><path d="M222.00,602.13 L223.26,601.41 "/><path d="M225.11,600.33 L225.03,596.97 L224.49,596.30 L222.37,595.08 L221.83,594.41 L221.75,592.27 L221.83,591.96 L222.06,591.83 L236.08,599.83 L236.39,600.10 L236.70,600.90 L934.49,198.04 L934.40,197.63 L933.86,196.96 L236.08,599.83 "/><path d="M222.37,591.91 L920.16,189.05 L919.85,188.96 L221.83,591.96 "/><path d="M222.06,591.83 L223.26,591.14 "/><path d="M218.60,587.44 L489.14,431.25 "/><path d="M232.72,630.54 L233.03,630.82 L233.34,631.62 L228.22,634.57 L227.91,634.30 L227.60,633.50 L227.60,632.56 L231.84,630.03 L232.72,630.54 L227.60,633.50 "/><path d="M227.60,628.31 L228.22,627.95 L227.84,627.91 L227.68,628.00 L227.60,628.31 "/><path d="M227.60,629.33 L229.11,628.46 L228.22,627.95 "/><path d="M227.73,624.07 L925.51,221.20 L925.51,219.31 L236.62,617.04 L236.70,616.73 L934.49,213.86 L934.40,214.18 L925.51,219.31 "/><path d="M227.63,611.96 L230.78,610.15 L228.04,608.66 L227.81,608.79 L227.73,609.15 L227.73,611.70 L227.63,611.96 L227.23,611.98 L225.49,610.98 L224.24,611.70 L224.24,617.45 L224.41,618.27 L224.86,619.06 L225.49,619.61 "/><path d="M227.73,621.48 L235.70,616.88 "/><path d="M227.23,620.62 L234.71,616.30 "/><path d="M224.24,617.45 L233.70,611.99 "/><path d="M227.73,611.70 L230.60,610.04 "/><path d="M225.49,610.98 L224.86,610.81 L224.41,611.07 L224.24,611.70 "/><path d="M227.73,609.15 L228.35,608.75 "/><path d="M233.34,608.03 L232.72,608.39 L233.03,608.48 L233.26,608.34 L233.34,607.01 L231.84,607.88 "/><path d="M228.22,605.80 L227.68,605.13 "/><path d="M227.60,600.55 L229.11,599.68 "/><path d="M231.84,601.26 L227.60,603.70 "/><path d="M227.60,604.72 L232.72,601.77 L233.03,602.04 L233.34,602.84 L233.34,603.86 L229.11,606.31 "/><path d="M224.49,603.49 L224.80,603.58 L225.03,603.45 L225.11,603.13 "/><path d="M227.60,600.55 L227.68,599.22 L227.91,599.09 L228.22,599.17 L227.60,599.53 "/><path d="M229.11,635.08 L233.34,632.64 "/><path d="M233.34,635.79 L231.84,636.66 L233.03,637.25 L233.26,637.12 L233.34,636.81 L233.34,635.79 "/><path d="M228.35,625.15 L926.14,222.28 L925.60,221.61 L925.51,221.20 "/><path d="M230.78,610.15 L233.65,611.90 L233.96,612.70 L233.96,615.15 L234.27,615.95 L236.08,617.09 L236.39,617.17 L236.62,617.04 "/><path d="M228.22,605.80 L233.34,602.84 "/><path d="M231.84,607.88 L232.72,608.39 "/><path d="M231.84,601.26 L232.72,601.77 "/><path d="M228.22,599.17 L229.11,599.68 "/><path d="M236.62,642.94 L934.40,240.07 L934.49,239.76 L236.70,642.63 "/><path d="M233.34,632.64 L233.34,631.62 "/><path d="M233.34,636.81 L232.72,637.17 "/><path d="M233.96,627.67 L233.34,628.03 "/><path d="M236.08,625.72 L933.86,222.86 L932.06,221.91 L462.89,492.78 "/><path d="M234.58,624.86 L932.37,221.99 "/><path d="M236.70,626.80 L934.49,223.94 L934.25,223.26 L933.86,222.86 "/><path d="M234.27,624.78 L465.12,491.50 "/><path d="M236.70,600.90 L236.70,616.73 "/><path d="M237.21,616.70 L236.39,617.17 "/><path d="M302.33,579.11 L306.32,576.80 "/><path d="M435.31,502.33 L436.86,501.43 "/><path d="M488.37,431.69 L911.97,187.13 L912.06,186.81 "/><path d="M716.28,280.59 L897.42,176.01 L897.67,176.13 "/><path d="M896.15,176.74 L897.42,176.01 "/><path d="M908.07,195.76 L908.78,195.35 "/><path d="M909.32,193.15 L910.96,194.09 "/><path d="M912.06,185.09 L911.97,184.68 L911.43,184.01 "/><path d="M920.16,189.05 L933.86,196.96 "/><path d="M919.85,188.96 L916.84,190.70 "/><path d="M926.14,222.28 L928.78,223.80 "/><path d="M930.23,222.96 L932.06,221.91 "/><path d="M934.49,239.76 L934.49,223.94 "/><path d="M934.49,213.86 L934.49,198.04 "/></g></g><g id="Actor_.4"><g style="stroke:#000000;stroke-width:0.705"><path d="M456.12,766.15 C455.68,766.07 455.67,766.07 455.23,765.95 C454.75,765.69 454.75,765.69 454.29,765.41 C453.83,765.00 453.83,765.00 453.39,764.58 "/><path d="M451.89,761.97 C451.74,761.38 451.74,761.38 451.62,760.78 C451.60,760.24 451.60,760.23 451.62,759.70 C451.74,759.26 451.77,759.26 451.89,758.82 C451.94,758.16 451.94,758.15 451.97,757.49 "/><path d="M453.39,757.95 C453.84,758.04 453.85,758.04 454.29,758.15 C454.76,758.41 454.77,758.41 455.23,758.69 C455.68,759.10 455.69,759.10 456.12,759.53 "/><path d="M453.39,729.17 C453.84,729.26 453.85,729.26 454.29,729.38 C454.76,729.63 454.77,729.64 455.23,729.92 C455.68,730.32 455.67,730.34 456.12,730.75 C456.56,731.01 456.56,731.02 457.00,731.26 "/><path d="M452.51,735.29 C452.96,735.53 452.96,735.54 453.39,735.80 C453.85,736.21 453.83,736.23 454.29,736.63 C454.75,736.91 454.75,736.92 455.23,737.17 C455.67,737.29 455.68,737.26 456.12,737.38 C456.72,737.66 456.73,737.66 457.32,737.97 "/><path d="M451.89,734.21 C451.90,733.71 451.90,733.70 451.89,733.19 C451.77,732.60 451.74,732.60 451.62,732.00 C451.60,731.46 451.60,731.46 451.62,730.92 C451.74,730.48 451.74,730.47 451.89,730.04 "/><path d="M463.41,763.60 C463.45,763.47 463.45,763.47 463.48,763.35 C463.49,762.34 463.47,762.34 463.48,761.33 C463.55,761.02 463.55,761.01 463.65,760.71 "/><path d="M457.63,762.13 C457.78,762.72 457.78,762.73 457.90,763.32 C457.91,763.86 457.92,763.87 457.90,764.41 C457.78,764.85 457.78,764.85 457.63,765.28 "/><path d="M457.63,736.51 C457.78,736.08 457.78,736.07 457.90,735.63 C457.92,735.09 457.91,735.09 457.90,734.55 C457.78,733.95 457.78,733.95 457.63,733.36 "/><path d="M464.43,750.30 C464.40,750.96 464.40,750.96 464.35,751.62 C464.23,752.06 464.20,752.06 464.08,752.50 C464.06,753.04 464.06,753.04 464.08,753.58 C464.20,754.18 464.22,754.18 464.35,754.78 C464.40,755.49 464.40,755.49 464.43,756.20 "/><path d="M464.97,756.87 C465.42,757.12 465.42,757.12 465.85,757.38 C466.31,757.79 466.30,757.81 466.75,758.22 C467.21,758.50 467.21,758.50 467.69,758.76 C468.13,758.87 468.14,758.84 468.58,758.96 C469.03,759.20 469.03,759.20 469.47,759.47 "/><path d="M468.58,752.33 C468.15,751.91 468.14,751.90 467.69,751.50 C467.23,751.22 467.22,751.21 466.75,750.96 C466.31,750.84 466.30,750.87 465.85,750.76 C465.41,750.52 465.40,750.51 464.97,750.25 "/><path d="M470.09,758.14 C470.23,757.49 470.23,757.49 470.36,756.83 C470.37,756.48 470.37,756.48 470.36,756.13 C470.24,755.53 470.23,755.53 470.09,754.94 "/><path d="M471.04,775.84 C470.99,775.99 470.99,776.00 470.96,776.15 C470.95,777.01 470.95,777.02 470.96,777.88 C470.99,778.08 470.99,778.08 471.04,778.29 "/><path d="M483.25,768.79 C483.20,768.94 483.20,768.95 483.17,769.10 C483.16,770.32 483.18,770.33 483.17,771.55 C483.13,771.70 483.13,771.71 483.08,771.86 "/><path d="M473.62,762.15 C473.52,761.74 473.52,761.74 473.45,761.33 C473.43,758.46 473.43,758.45 473.45,755.58 C473.52,755.26 473.52,755.26 473.62,754.95 "/><path d="M481.04,780.54 C480.60,780.45 480.59,780.45 480.15,780.34 C479.67,780.08 479.67,780.08 479.21,779.80 C478.76,779.39 478.77,779.37 478.31,778.96 C477.88,778.70 477.88,778.70 477.43,778.46 "/><path d="M476.89,777.78 C476.86,777.07 476.86,777.07 476.81,776.36 C476.68,775.76 476.66,775.76 476.54,775.17 C476.52,774.63 476.52,774.62 476.54,774.08 C476.66,773.64 476.69,773.65 476.81,773.21 C476.82,772.70 476.82,772.69 476.81,772.19 "/><path d="M481.04,773.91 C480.61,773.49 480.60,773.49 480.15,773.08 C479.69,772.80 479.68,772.80 479.21,772.54 C478.77,772.43 478.76,772.42 478.31,772.34 "/><path d="M482.55,746.73 C482.54,748.25 482.54,747.24 482.55,747.74 C482.67,748.34 482.70,748.34 482.82,748.94 C482.84,749.48 482.84,749.48 482.82,750.02 C482.70,750.46 482.70,750.46 482.55,750.90 "/><path d="M481.04,751.76 C480.60,751.68 480.59,751.68 480.15,751.56 C479.67,751.31 479.67,751.30 479.21,751.02 C478.76,750.62 478.77,750.60 478.31,750.19 C477.73,749.79 477.72,749.79 477.12,749.40 "/><path d="M476.81,748.60 C476.82,748.09 476.82,748.09 476.81,747.58 C476.69,746.99 476.66,746.99 476.54,746.39 C476.52,745.85 476.52,745.85 476.54,745.31 C476.66,744.87 476.69,744.87 476.81,744.43 C476.86,743.77 476.86,743.76 476.89,743.10 "/><path d="M478.31,743.56 C478.76,743.65 478.77,743.65 479.21,743.76 C479.68,744.02 479.69,744.02 480.15,744.30 C480.60,744.71 480.59,744.73 481.04,745.14 C481.48,745.40 481.48,745.40 481.93,745.65 "/><path d="M482.55,779.67 C482.70,779.24 482.70,779.23 482.82,778.79 C482.84,778.26 482.84,778.25 482.82,777.71 C482.70,777.11 482.70,777.11 482.55,776.52 "/><path d="M470.96,766.08 L462.86,770.76 L463.17,771.03 L463.48,771.83 L463.48,773.56 L463.40,773.87 L463.17,774.00 L448.84,765.73 L448.53,764.93 L448.60,748.84 L448.84,748.66 L449.15,748.74 L450.96,749.88 L451.27,750.68 L451.27,753.13 L451.58,753.93 L456.88,757.09 L457.50,756.73 L457.42,757.04 L457.19,757.17 L456.88,757.09 "/><path d="M450.65,749.61 L458.12,745.29 "/><path d="M449.15,748.74 L457.50,743.92 "/><path d="M448.84,748.66 L457.50,743.66 L457.50,741.76 L457.42,741.36 L456.88,740.68 L454.24,739.16 L450.96,741.06 L449.15,740.11 L448.61,739.44 L448.61,722.89 L448.84,722.76 L449.15,722.84 L1146.94,319.98 L1160.64,327.89 L462.86,730.76 L463.40,731.43 L463.48,731.84 L463.40,733.87 L463.17,734.01 L462.86,733.92 L460.74,732.70 L460.12,733.06 L460.20,739.22 L460.74,739.89 L462.98,741.19 L463.23,741.41 L463.48,742.05 L470.96,737.74 "/><path d="M448.84,722.76 L1146.63,319.89 L1146.94,319.98 "/><path d="M449.15,722.84 L462.86,730.76 "/><path d="M451.89,762.99 L457.00,760.03 L456.12,759.53 L451.89,761.97 L451.97,763.40 L452.51,764.07 L457.63,761.11 L457.63,762.13 L456.49,762.79 L453.39,764.58 L452.51,764.07 "/><path d="M457.63,766.30 L457.54,766.61 L457.32,766.74 L457.00,766.66 L457.63,766.30 L457.63,765.28 L456.12,766.15 "/><path d="M451.97,757.49 L452.20,757.36 L452.51,757.44 L451.89,757.80 "/><path d="M451.89,758.82 L453.39,757.95 L452.51,757.44 "/><path d="M451.89,754.21 L460.99,748.96 "/><path d="M451.27,753.13 L460.83,747.61 L460.99,748.38 L460.99,754.14 L459.74,754.86 L460.37,755.02 L460.82,754.76 L460.99,754.14 "/><path d="M451.27,750.68 L459.37,746.01 "/><path d="M451.27,738.17 L451.35,737.86 L451.58,737.72 L451.89,737.81 L451.27,738.17 L451.27,740.61 L454.01,739.03 "/><path d="M451.27,740.61 L451.19,740.92 "/><path d="M451.89,737.81 L454.24,739.16 "/><path d="M453.39,729.17 L452.51,728.66 L452.20,728.58 L451.97,728.71 L451.89,730.04 L453.39,729.17 "/><path d="M457.00,731.26 L451.89,734.21 L451.97,734.62 L452.51,735.29 "/><path d="M457.32,737.97 L457.54,737.84 L457.63,737.53 L457.00,737.88 "/><path d="M452.51,735.29 L457.63,732.34 L457.54,731.93 L457.00,731.26 "/><path d="M453.39,735.80 L457.63,733.36 L457.63,732.34 "/><path d="M451.89,733.19 L456.12,730.75 "/><path d="M451.89,729.02 L452.51,728.66 "/><path d="M469.21,763.20 L460.12,768.45 L460.12,762.70 L460.74,762.34 L463.23,763.70 L463.41,763.60 "/><path d="M463.65,760.71 L464.10,760.45 L464.73,760.61 L463.48,761.33 "/><path d="M460.12,768.45 L460.20,768.86 L460.74,769.53 L470.33,764.04 L470.79,764.83 L470.96,765.65 L470.96,767.66 L471.21,768.30 L473.70,769.82 L474.01,770.10 L474.32,770.90 L474.32,773.95 L471.27,775.71 L471.58,775.79 L474.32,774.21 "/><path d="M456.12,766.15 L457.00,766.66 "/><path d="M460.12,762.70 L460.20,762.39 L460.47,762.27 L460.74,762.34 "/><path d="M457.63,761.11 L457.54,760.71 L457.00,760.03 "/><path d="M457.50,756.73 L457.57,753.89 L457.75,753.78 L458.00,753.85 L460.99,752.12 "/><path d="M459.74,754.86 L458.00,753.85 "/><path d="M457.75,753.78 L460.99,751.91 "/><path d="M460.83,747.61 L460.37,746.78 L459.74,746.22 L457.75,745.00 L457.50,744.35 L457.50,743.66 "/><path d="M460.12,738.81 L1157.90,335.95 L1157.90,332.90 "/><path d="M456.12,737.38 L457.63,736.51 "/><path d="M457.63,737.53 L457.63,736.51 "/><path d="M460.12,733.06 L460.20,732.75 L460.47,732.63 L460.74,732.70 "/><path d="M463.40,773.87 L465.12,772.88 L463.17,774.00 "/><path d="M463.48,773.56 L471.83,768.74 "/><path d="M465.12,772.88 L472.06,768.87 "/><path d="M462.86,770.76 L460.74,769.53 "/><path d="M470.96,767.52 L463.48,771.83 "/><path d="M463.41,763.60 L464.81,762.79 L463.23,763.70 "/><path d="M463.48,763.35 L466.47,761.62 "/><path d="M464.73,760.61 L469.77,763.54 L470.33,764.04 "/><path d="M466.65,761.73 L464.81,762.79 "/><path d="M464.35,750.61 L464.97,750.25 L464.66,750.16 L464.43,750.30 "/><path d="M464.43,756.20 L464.97,756.87 "/><path d="M469.47,759.47 L470.09,759.11 L470.09,758.14 L468.58,758.96 "/><path d="M464.35,754.78 L468.58,752.33 "/><path d="M464.35,755.79 L469.47,752.84 L468.58,752.33 "/><path d="M464.97,756.87 L470.09,753.92 L470.00,753.51 L469.47,752.84 "/><path d="M464.35,751.62 L465.85,750.76 "/><path d="M469.77,749.12 L470.33,749.27 L470.79,749.01 L470.96,748.38 L469.77,749.12 L464.73,746.22 L464.10,745.67 L463.65,744.88 L463.48,744.07 L463.48,742.05 "/><path d="M464.73,746.22 L474.19,740.76 "/><path d="M460.74,739.89 L1158.53,337.03 L1158.21,336.75 L1157.90,335.95 "/><path d="M462.98,741.19 L470.96,736.58 "/><path d="M471.95,739.17 L463.48,744.07 "/><path d="M463.48,731.84 L1161.27,328.97 L1161.18,331.01 L463.17,734.01 "/><path d="M463.48,733.56 L1161.27,330.70 "/><path d="M463.40,733.87 L465.12,732.88 "/><path d="M469.47,759.47 L469.78,759.55 L470.00,759.42 L470.09,759.11 "/><path d="M470.09,754.94 L465.85,757.38 "/><path d="M473.70,777.01 L474.32,776.65 L474.24,776.97 L474.01,777.10 L473.70,777.01 L471.58,775.79 "/><path d="M471.27,775.71 L471.04,775.84 "/><path d="M471.04,778.29 L471.58,778.96 L485.29,786.87 L485.60,786.95 L485.83,786.82 L485.83,770.28 L485.29,769.60 L483.48,768.66 L483.25,768.79 "/><path d="M483.08,771.86 L482.86,771.99 L477.64,769.08 L477.25,768.75 L476.94,767.95 L476.87,765.03 L476.44,764.50 L474.70,763.49 L483.17,758.60 "/><path d="M474.32,776.65 L474.32,773.95 "/><path d="M474.70,763.49 L473.99,762.79 L473.62,762.15 "/><path d="M473.62,754.95 L474.07,754.69 L474.70,754.86 L473.45,755.58 "/><path d="M473.45,761.33 L482.91,755.87 "/><path d="M470.09,753.92 L470.09,754.94 "/><path d="M470.96,748.38 L470.96,746.37 L471.02,746.12 L471.21,746.01 L473.70,747.38 L474.32,747.02 L474.24,747.33 L474.01,747.46 L473.70,747.38 "/><path d="M471.21,746.01 L474.32,744.22 L474.32,747.02 "/><path d="M471.46,746.08 L474.32,744.43 "/><path d="M474.32,744.22 L474.24,740.85 L473.70,740.18 L471.58,738.96 L471.04,738.29 L470.96,736.15 L471.04,735.84 L471.27,735.71 L485.29,743.71 L1183.07,340.84 L1169.37,332.93 L471.58,735.79 "/><path d="M471.27,735.71 L1169.05,332.84 L1169.37,332.93 "/><path d="M481.04,780.54 L482.24,781.13 L482.47,781.00 L482.55,780.69 L482.55,779.67 L481.04,780.54 "/><path d="M477.43,778.46 L476.89,777.78 "/><path d="M476.81,772.19 L477.43,771.83 L477.12,771.75 L476.89,771.88 L476.81,772.19 "/><path d="M477.43,778.46 L482.55,775.50 L482.47,775.09 L481.93,774.42 L476.81,777.38 "/><path d="M478.31,778.96 L482.55,776.52 L482.55,775.50 "/><path d="M476.81,776.36 L481.04,773.91 "/><path d="M478.31,772.34 L476.81,773.21 "/><path d="M478.31,772.34 L477.43,771.83 "/><path d="M476.94,767.95 L1174.72,365.08 L1174.81,365.49 L1175.35,366.16 L477.64,769.08 "/><path d="M476.94,765.36 L484.91,760.76 "/><path d="M476.44,764.50 L483.92,760.18 "/><path d="M476.87,755.83 L479.07,754.56 L476.72,755.91 L476.94,755.58 L476.94,752.99 L477.02,752.67 L477.25,752.54 L477.56,752.63 L476.94,752.99 "/><path d="M474.70,754.86 L476.72,755.91 "/><path d="M479.80,753.92 L476.94,755.58 "/><path d="M479.07,754.56 L479.99,754.03 L477.56,752.63 "/><path d="M477.43,749.68 L482.55,746.73 "/><path d="M482.55,750.90 L481.04,751.76 "/><path d="M477.12,749.40 L476.81,748.60 "/><path d="M476.89,743.10 L477.12,742.97 L477.43,743.05 L476.81,743.41 "/><path d="M478.31,750.19 L482.55,747.74 "/><path d="M476.81,748.60 L481.93,745.65 L482.24,745.92 L482.55,746.73 "/><path d="M476.81,744.43 L478.31,743.56 "/><path d="M476.81,747.58 L481.04,745.14 "/><path d="M478.31,743.56 L477.43,743.05 "/><path d="M482.55,780.69 L481.93,781.05 "/><path d="M481.04,773.91 L481.93,774.42 "/><path d="M483.48,768.66 L893.02,532.21 L889.17,534.43 "/><path d="M482.55,771.91 L483.17,771.55 "/><path d="M479.99,754.03 L482.86,755.78 L483.17,756.58 L483.25,759.44 L483.79,760.11 L485.60,761.06 L485.83,760.92 L485.91,760.61 L1183.70,357.75 L1183.61,358.06 L1183.38,358.19 L485.83,760.92 "/><path d="M482.55,750.90 L482.55,751.91 L481.93,752.27 L482.24,752.36 L482.47,752.22 L482.55,751.91 "/><path d="M481.93,752.27 L481.04,751.76 "/><path d="M485.60,786.95 L487.17,786.05 L485.83,786.82 "/><path d="M485.91,786.51 L1183.70,383.64 L1183.70,367.82 L485.91,770.68 "/><path d="M487.17,786.05 L982.63,499.99 "/><path d="M1024.37,456.38 L1181.27,365.79 L1181.58,365.87 L483.79,768.74 "/><path d="M485.29,769.60 L1183.07,366.74 L1181.58,365.87 "/><path d="M485.91,760.61 L485.91,744.79 L1183.70,341.92 L1183.61,341.51 L1183.07,340.84 "/><path d="M488.37,759.45 L485.60,761.06 "/><path d="M485.29,743.71 L485.60,743.98 L485.91,744.79 "/><path d="M748.84,609.07 L753.09,606.62 "/><path d="M893.02,532.21 L1025.34,455.81 "/><path d="M981.40,500.71 L1183.61,383.96 L1183.70,383.64 "/><path d="M1158.14,332.76 L1161.18,331.01 "/><path d="M1160.17,337.97 L1158.53,337.03 "/><path d="M1161.27,328.97 L1161.18,328.56 L1160.64,327.89 "/><path d="M1174.72,365.08 L1174.72,363.19 "/><path d="M1175.35,366.16 L1177.98,367.69 "/><path d="M1178.41,367.44 L1181.27,365.79 "/><path d="M1183.07,366.74 L1183.38,367.01 L1183.70,367.82 "/><path d="M1183.70,357.75 L1183.70,341.92 "/></g></g><g id="Actor_.5"><g style="stroke:#000000;stroke-width:0.705"><path d="M322.10,838.56 C321.64,837.73 321.64,837.72 321.21,836.87 C321.08,836.30 321.09,836.29 320.98,835.70 C320.79,834.75 320.77,834.75 320.61,833.80 C320.59,832.85 320.58,832.84 320.61,831.89 C320.88,830.60 320.90,830.60 321.21,829.31 C321.34,828.98 321.35,828.98 321.49,828.66 C321.99,827.80 321.99,827.80 322.50,826.95 "/><path d="M326.05,826.03 C327.15,826.42 327.17,826.43 328.25,826.89 C329.36,827.69 329.36,827.70 330.44,828.56 C331.45,829.69 331.45,829.70 332.42,830.87 C333.23,832.21 333.23,832.22 333.99,833.59 C334.52,835.01 334.53,835.02 335.00,836.46 C335.20,837.82 335.21,837.83 335.35,839.19 C335.21,840.36 335.21,840.37 335.00,841.53 "/><path d="M332.42,844.14 C331.43,844.16 331.43,844.16 330.44,844.16 C329.82,844.08 329.81,844.09 329.20,843.98 C328.07,843.57 328.07,843.57 326.95,843.13 C325.92,842.55 325.91,842.56 324.91,841.95 C323.78,840.85 323.79,840.83 322.70,839.68 C322.46,839.29 322.45,839.28 322.25,838.87 "/><path d="M328.41,840.12 C328.44,837.42 328.44,839.21 328.41,838.32 C328.12,837.32 328.11,837.31 327.77,836.32 C327.22,835.38 327.22,835.37 326.62,834.45 C325.90,833.73 325.90,833.72 325.14,833.04 "/><path d="M327.63,838.77 C327.59,838.96 327.59,838.96 327.54,839.14 C327.42,839.36 327.42,839.36 327.29,839.57 C327.08,839.84 327.08,839.84 326.86,840.11 C326.53,840.47 326.53,840.47 326.19,840.82 "/><path d="M326.19,840.82 C325.97,840.51 325.96,840.51 325.72,840.21 C325.44,839.98 325.43,839.98 325.14,839.77 C324.76,839.59 324.75,839.59 324.36,839.43 C323.84,839.28 323.84,839.28 323.31,839.16 "/><path d="M327.45,839.81 C327.56,839.30 327.56,839.29 327.63,838.77 C327.56,838.15 327.56,838.15 327.45,837.53 C327.22,836.89 327.22,836.88 326.95,836.25 C326.58,835.65 326.58,835.65 326.19,835.06 C325.73,834.59 325.73,834.58 325.25,834.13 C324.76,833.83 324.76,833.82 324.25,833.55 "/><path d="M322.05,834.41 C321.94,834.92 321.94,834.93 321.87,835.45 C321.94,836.07 321.94,836.07 322.05,836.69 C322.28,837.33 322.28,837.34 322.55,837.97 C322.92,838.57 322.92,838.57 323.31,839.16 "/><path d="M323.31,839.16 C323.28,838.58 323.28,838.58 323.23,838.01 C323.11,837.54 323.11,837.54 322.98,837.08 C322.77,836.67 322.77,836.66 322.55,836.26 C322.22,835.85 322.22,835.84 321.87,835.45 "/><path d="M321.87,835.45 C322.21,835.10 322.21,835.10 322.55,834.74 C322.76,834.47 322.77,834.47 322.98,834.20 C323.11,833.99 323.11,833.99 323.23,833.77 C323.27,833.59 323.28,833.59 323.31,833.40 "/><path d="M328.86,826.53 C329.97,827.34 329.98,827.35 331.06,828.20 C332.07,829.33 332.07,829.34 333.04,830.51 C333.85,831.85 333.85,831.86 334.61,833.23 C335.14,834.65 335.14,834.66 335.62,836.10 C335.82,837.46 335.83,837.47 335.96,838.84 C335.83,840.00 335.82,840.02 335.62,841.17 "/><path d="M351.60,825.92 C351.48,825.02 351.48,825.01 351.32,824.11 C350.94,823.17 350.93,823.16 350.51,822.24 C349.92,821.41 349.92,821.40 349.29,820.60 C348.60,820.01 348.59,820.00 347.86,819.45 "/><path d="M351.60,825.92 C351.61,824.30 351.61,825.38 351.60,824.84 C351.45,824.00 351.47,823.99 351.28,823.15 C350.86,822.31 350.86,822.30 350.39,821.48 C349.79,820.83 349.78,820.83 349.14,820.21 C348.51,819.81 348.51,819.81 347.86,819.45 "/><path d="M322.50,826.95 L324.07,826.05 L326.05,826.03 "/><path d="M335.00,841.53 L333.99,843.23 L332.42,844.14 "/><path d="M322.25,838.87 L323.60,840.55 L325.14,841.63 L326.62,841.93 L327.77,841.39 L328.41,840.12 "/><path d="M325.14,833.04 L323.60,832.34 L322.25,832.46 L321.34,833.38 L321.01,834.95 L321.34,836.90 L322.25,838.87 "/><path d="M323.31,839.16 L324.25,840.09 L325.25,840.67 L326.19,840.82 L326.95,840.52 L327.45,839.81 "/><path d="M324.25,833.55 L323.31,833.40 L322.55,833.70 L322.05,834.41 "/><path d="M323.31,833.40 L324.36,833.67 L324.77,833.85 "/><path d="M323.31,839.16 L326.19,837.50 L327.56,838.29 "/><path d="M321.87,835.45 L324.70,833.82 "/><path d="M326.19,837.50 L324.78,833.85 "/><path d="M328.25,826.89 L328.86,826.53 L326.67,825.67 L324.69,825.69 L324.07,826.05 "/><path d="M335.62,841.17 L334.61,842.87 L333.99,843.23 "/><path d="M332.42,844.14 L334.59,842.88 L332.42,844.14 "/><path d="M335.71,836.83 L350.51,828.34 L351.32,827.41 L351.60,825.92 "/><path d="M347.86,819.45 L346.43,818.95 L345.22,819.19 L330.43,827.73 "/></g></g><g id="paperID" visibility="hidden" opacity="0.00" transform="scale(0.000100)"><path style="stroke:#000000;stroke-width:0.500;fill:#e6e6e6;fill-rule:evenodd" d="M-2000.00,-2000.00L3200.00,-2000.00L3200.00,3000.00L-2000.00,3000.00zM0.00,0.00L1200.00,0.00L1200.00,1000.00L0.00,1000.00z"/><path style="fill:#000000;fill-opacity:0.118" d="M3.00,1000.00L1200.00,1000.00L1200.00,3.00L1203.00,3.00L1203.00,1003.00L3.00,1003.00z"/></g><g id="ToolTip" visibility="hidden" opacity="0" transform="translate(0,0)"><rect id="ToolTipShadow" opacity="0.20" fill="black" stroke="none" x="0" y="0" width="30" height="8"/><rect id="ToolTipBG" fill="#ffffe1" stroke="black" x="0" y="0" width="30" height="8"/><text xml:space="preserve" id="ToolTipText" fill="black" x="0" y="0" width="30" height="8">tooltip</text></g></g></svg>
