<?xml version="1.0" encoding="UTF-8" standalone="no"?>
<svg xmlns="http://www.w3.org/2000/svg" xmlns:xlink="http://www.w3.org/1999/xlink" width="200.000mm" height="200.000mm" viewBox="0.000000 0.000000 200.000000 200.000000" stroke-linejoin="round" stroke-linecap="round" fill="none" fill-rule="evenodd"><desc>Composer Export</desc><script type="text/ecmascript"><![CDATA[
if(typeof(top) != "undefined")
{
	top.ShowPaper = ShowPaper;
}
function ShowHotSpot(evt,hotspotid)
{
	var svgDocument = evt.target.ownerDocument;
	var strId = "hotspot."+hotspotid;
	var hotspot = svgDocument.getElementById(strId);
	if(hotspot)
		hotspot.setAttribute("opacity",".5");
}
function HideHotSpot(evt,hotspotid)
{
	var svgDocument = evt.target.ownerDocument;
	var strId = "hotspot."+hotspotid;
	var hotspot = svgDocument.getElementById(strId);
	if(hotspot)
		hotspot.setAttribute("opacity","0");

	var toolTip = svgDocument.getElementById('ToolTip');
	if(toolTip)
		toolTip.setAttribute("visibility","hidden");
}
function ShowToolTip(evt,hotspotid,strTooltip)
{
	if(strTooltip=="")
	return;

	// change text
	var svgDocument = evt.target.ownerDocument;
	var tiptext = svgDocument.getElementById('ToolTipText');
	if( !tiptext )
	return;
	tiptext.firstChild.nodeValue = " " + strTooltip + "  " ;

	// show tooltip before, else some refresh issue

	var toolTip = svgDocument.getElementById('ToolTip');
	if(!toolTip)
	return;

	toolTip.setAttribute("visibility","visible");
	toolTip.setAttribute("opacity",".95");

	// move tooltip
	// get viewbox

	var root = svgDocument.documentElement;
	var vbox = (root.getAttribute("viewBox")).split(' ');
	var x0 = parseFloat(vbox[0]);
	var y0 = parseFloat(vbox[1]);
	var vboxW = parseFloat(vbox[2]);
	var vboxH = parseFloat(vbox[3]);

	// get default width of svg

	var strW = root.getAttribute("width");
	var svgW = parseFloat(strW);
	if(strW.indexOf('mm') != -1)
	svgW *= 3.779;

	var strH = root.getAttribute("height");
	var svgH = parseFloat(strH);
	if(strH.indexOf('mm') != -1)
	svgH *= 3.779;  	// 96 dpi  -> 96/25.4 = 3.779

	// update the viewbox / width / height if svg is embedded in html with zoom fit all
	var realx0 = x0;
	var realy0 = y0;
	var realvboxW = vboxW;
	var realvboxH = vboxH;
	var realsvgW = svgW;
	var realsvgH = svgH;

	if ((typeof(top) == "undefined") || (typeof(top.svgctl1) != "undefined")) // embedded in html
	{
		// get window size in pxl

		svgW = window.innerWidth;
		svgH = window.innerHeight;

		// calculate real viewbox

		realsvgW = svgW;
		realsvgH = svgH;
		if((svgW / svgH) > (vboxW / vboxH))
		{
			realvboxW = (vboxH * svgW) / svgH;
			realvboxH = vboxH;
			realx0 = x0 - (realvboxW - vboxW)/2 ;
		}
		else
		{
			realvboxH = (vboxW * svgH) / svgW;
			realvboxW = vboxW;
			realy0 = y0 - (realvboxH - vboxH)/2 ;
		}
	}

	// get user zoom/pan

	var newScale = root.currentScale;
	var translation = root.currentTranslate;

	// transform pxl to user unit

	var xPos = (((evt.clientX+10- translation.x)/newScale) * realvboxW)/realsvgW  + realx0 ;
	var yPos = (((evt.clientY+5- translation.y)/newScale) * realvboxH)/ realsvgH  + realy0 ;
	var scaleForWidth = ( (1 / newScale) * realvboxH) / realsvgH;

	// move tooltip

	toolTip.setAttribute("transform", "translate(" + xPos + "," + yPos + ")" );

	// resize tooltip

	var fontsize = 12;
	tiptext.setAttribute("font-size",fontsize*scaleForWidth);
	tiptext.setAttribute("y", fontsize*scaleForWidth);
	var tipBG = svgDocument.getElementById('ToolTipBG');
	var outline = tiptext.getBBox();
	if(tipBG)
	{
		tipBG.setAttribute("stroke-width", 1*scaleForWidth);
		tipBG.setAttribute("width", Number(outline.width) );
		tipBG.setAttribute("height", Number(outline.height) + fontsize*.5*scaleForWidth );
	}
	var ToolTipShadow = svgDocument.getElementById('ToolTipShadow');
	if(ToolTipShadow)
	{
		ToolTipShadow.setAttribute("width", Number(outline.width) );
		ToolTipShadow.setAttribute("height", Number(outline.height) + fontsize*.5*scaleForWidth );
		ToolTipShadow.setAttribute("x", 3*scaleForWidth);
		ToolTipShadow.setAttribute("y", 3*scaleForWidth);
	}
}
function ShowPaper()
{
  var svgDocument = getDocument();
  var paper = svgDocument.getElementById("paperID");
  if(paper)
  {
    paper.setAttribute("transform","scale(1)");
    paper.setAttribute("opacity","1");
    paper.setAttribute("visibility","visible");
  }
  var svg = svgDocument.getRootElement();
  if(svg)
  {
    svg.setAttribute("width","210.000mm");
    svg.setAttribute("height","210.000mm");
    svg.setAttribute("viewBox","-5.000000 -5.000000 210.000000 210.000000");
  }
}
]]></script><defs/><g><path style="fill:#ffffff" d="M132.64,33.77L132.69,0.03L199.97,0.04L199.97,199.97L0.04,199.97L0.04,0.04L50.86,0.03L50.80,39.75L50.96,59.80L51.01,0.03L124.76,0.03L124.86,42.75L124.91,0.03L132.54,0.03z"/><path style="fill:#97fa98" d="M122.67,105.43L123.67,105.52L125.16,105.97L126.96,106.86L128.90,108.21L130.71,109.99L132.36,111.33L134.44,113.89L135.63,116.74L136.07,118.99L136.61,121.17L136.70,121.62L136.76,122.08L136.85,122.52L136.92,123.26L136.92,125.52L136.69,127.26L136.08,128.75L135.56,129.59L135.47,129.89L134.83,130.49L132.60,131.85L131.05,132.22L129.10,132.13L128.06,131.97L126.05,131.56L123.21,130.35L121.14,128.99L119.49,127.49L118.43,126.31L117.38,124.97L115.74,121.68L115.31,120.13L115.30,119.73L115.22,119.68L115.01,118.63L114.99,118.08L114.92,118.03L114.86,116.99L114.86,115.33L114.92,114.45L115.07,113.39L115.58,111.24L116.63,108.70L117.47,107.60L118.60,106.63L120.32,105.66L121.28,105.38z"/><path style="fill:#97fa98" d="M87.91,105.82L89.86,107.01L90.92,108.19L92.10,110.60L92.78,113.25L92.87,113.69L92.94,114.29L93.01,115.20L93.02,117.13L92.94,118.18L92.78,119.08L92.40,120.82L91.35,123.52L90.45,125.01L88.67,127.27L87.32,128.46L85.90,129.58L83.67,130.80L81.74,131.55L79.44,132.06L78.08,132.21L76.44,132.13L75.34,131.85L73.86,131.09L72.37,129.74L71.60,128.41L71.15,126.91L71.03,126.11L71.01,125.56L70.94,125.51L70.94,123.27L71.18,121.63L71.60,119.62L71.91,118.58L72.20,116.93L72.95,114.99L73.49,113.88L74.99,111.94L77.53,109.54L78.64,108.56L79.79,107.62L81.63,106.46L83.52,105.67L85.12,105.43L86.17,105.43L87.02,105.51z"/><path style="fill:#000020" d="M132.64,33.77L132.54,0.03L132.69,0.03z"/><path style="fill:#000020" d="M50.80,39.75L50.86,0.03L51.01,0.03L50.96,59.80z"/><path style="fill:#000020" d="M124.86,42.75L124.76,0.03L124.91,0.03z"/><path style="fill:#000020" d="M132.49,64.28L132.64,43.42L132.64,69.97z"/><path style="fill:#000020" d="M116.63,100.19L116.78,97.43L116.78,101.54z"/><path style="fill:#000020" d="M140.71,100.93L140.87,96.68L140.87,105.28z"/><path style="fill:#000020" d="M92.87,113.69L92.78,113.25L92.85,113.30z"/><path style="fill:#000020" d="M93.01,115.20L92.94,114.29L92.99,114.34z"/><path style="fill:#000020" d="M115.01,118.63L114.92,118.03L114.99,118.08z"/><path style="fill:#000020" d="M115.31,120.13L115.22,119.68L115.30,119.73z"/><path style="fill:#000020" d="M136.70,121.62L136.61,121.17L136.68,121.23z"/><path style="fill:#000020" d="M136.85,122.52L136.76,122.08L136.83,122.13z"/><path style="fill:#000020" d="M136.92,125.52L136.92,123.26L136.98,123.32z"/><path style="fill:#000020" d="M71.03,126.11L70.94,125.51L71.01,125.56z"/><path style="fill:#000020" d="M104.09,131.24L104.09,131.44L103.93,131.41L103.93,131.08z"/><g id="Actor_.0"><g style="stroke:#000000;stroke-width:0.353"><path d="M71.01,44.59 C71.11,44.83 71.11,44.83 71.22,45.06 C71.30,45.21 71.30,45.21 71.39,45.36 C71.55,45.55 71.55,45.55 71.71,45.74 C71.80,45.82 71.80,45.82 71.90,45.90 C71.99,45.97 71.99,45.97 72.09,46.03 C72.20,46.07 72.20,46.07 72.31,46.11 C72.36,46.12 72.36,46.12 72.42,46.13 C72.53,46.12 72.53,46.12 72.63,46.12 "/><path d="M75.04,44.73 C75.10,44.66 75.10,44.66 75.16,44.59 C75.20,44.50 75.20,44.50 75.24,44.41 C75.27,44.30 75.27,44.30 75.29,44.18 C75.30,44.08 75.30,44.08 75.30,43.98 "/><path d="M72.78,35.17 C72.63,35.25 72.63,35.25 72.49,35.33 C72.10,35.59 72.10,35.59 71.71,35.86 C71.50,36.05 71.50,36.05 71.30,36.25 C71.15,36.42 71.15,36.42 71.01,36.60 C70.87,36.84 70.87,36.85 70.74,37.09 C70.63,37.34 70.63,37.34 70.52,37.60 C70.43,37.88 70.43,37.88 70.35,38.16 C70.28,38.46 70.28,38.46 70.22,38.77 C70.18,39.08 70.18,39.08 70.14,39.40 C70.13,39.75 70.13,39.75 70.12,40.09 C70.13,40.44 70.13,40.44 70.14,40.79 C70.18,41.15 70.18,41.15 70.22,41.52 C70.28,41.89 70.28,41.89 70.35,42.27 C70.43,42.65 70.43,42.65 70.52,43.03 C70.63,43.43 70.63,43.43 70.74,43.82 C70.87,44.21 70.87,44.21 71.01,44.59 "/><path d="M71.01,71.49 C71.14,71.55 71.14,71.55 71.27,71.61 C71.37,71.64 71.37,71.64 71.47,71.66 C71.69,71.69 71.69,71.69 71.90,71.71 C72.12,71.69 72.12,71.69 72.33,71.66 C72.43,71.64 72.43,71.64 72.53,71.61 C72.66,71.55 72.66,71.55 72.79,71.49 "/><path d="M74.93,42.32 C74.80,41.94 74.80,41.94 74.67,41.55 C74.55,41.16 74.55,41.16 74.44,40.77 C74.35,40.39 74.35,40.39 74.27,40.00 C74.20,39.63 74.20,39.63 74.14,39.25 C74.10,38.89 74.10,38.89 74.07,38.52 C74.05,38.18 74.05,38.18 74.04,37.83 C74.05,37.48 74.05,37.48 74.07,37.14 C74.10,36.82 74.10,36.82 74.14,36.50 C74.20,36.20 74.20,36.19 74.27,35.89 C74.35,35.61 74.35,35.61 74.44,35.33 C74.55,35.08 74.55,35.08 74.67,34.82 C74.80,34.58 74.80,34.58 74.93,34.34 "/><path d="M75.30,69.74 C75.30,69.81 75.30,69.81 75.28,69.87 C75.26,69.93 75.26,69.93 75.23,69.99 C75.18,70.05 75.18,70.05 75.13,70.11 C75.04,70.18 75.04,70.19 74.93,70.26 "/><path d="M74.93,42.32 C75.05,42.65 75.05,42.65 75.15,42.98 C75.20,43.15 75.20,43.15 75.24,43.33 C75.26,43.50 75.26,43.50 75.29,43.68 C75.30,43.83 75.30,43.83 75.30,43.98 "/><path d="M79.04,62.33 C79.17,62.27 79.17,62.27 79.30,62.21 C79.50,62.17 79.50,62.17 79.71,62.13 C79.93,62.12 79.93,62.12 80.15,62.13 C80.35,62.17 80.35,62.17 80.56,62.21 C80.69,62.27 80.69,62.27 80.82,62.33 C81.97,62.99 81.97,62.99 83.13,63.66 "/><path d="M83.50,78.70 C93.30,84.37 93.30,84.37 103.12,90.03 C103.24,90.09 103.25,90.09 103.38,90.15 C103.47,90.17 103.48,90.17 103.58,90.20 C103.79,90.22 103.79,90.23 104.01,90.24 C104.22,90.23 104.22,90.22 104.44,90.20 C104.54,90.17 104.54,90.17 104.64,90.15 C104.77,90.09 104.77,90.09 104.90,90.03 "/><path d="M83.50,43.81 C83.41,43.58 83.41,43.58 83.33,43.34 C83.24,42.99 83.24,42.99 83.16,42.64 C83.14,42.43 83.14,42.43 83.13,42.22 C83.14,42.03 83.14,42.03 83.16,41.85 "/><path d="M82.96,32.68 C82.97,33.01 82.97,33.01 82.98,33.33 C83.01,33.68 83.01,33.68 83.05,34.03 C83.09,34.27 83.09,34.27 83.13,34.51 "/><path d="M82.96,32.68 C82.97,32.36 82.97,32.36 82.98,32.03 C83.01,31.73 83.01,31.73 83.05,31.43 C83.09,31.23 83.09,31.23 83.13,31.02 "/><path d="M83.50,51.80 C83.63,51.57 83.63,51.57 83.76,51.34 C83.88,51.07 83.88,51.07 83.99,50.81 C84.08,50.53 84.08,50.53 84.16,50.25 C84.23,49.94 84.23,49.94 84.29,49.64 C84.33,49.32 84.33,49.32 84.36,49.00 C84.38,48.67 84.38,48.67 84.39,48.33 C84.38,47.97 84.38,47.97 84.36,47.61 C84.33,47.25 84.33,47.25 84.29,46.89 C84.23,46.51 84.23,46.51 84.16,46.13 C84.08,45.75 84.08,45.75 83.99,45.37 C83.88,44.99 83.88,44.99 83.76,44.61 C83.63,44.21 83.63,44.21 83.50,43.81 "/><path d="M124.85,41.84 C124.87,41.95 124.87,41.95 124.88,42.06 C124.89,42.18 124.89,42.18 124.89,42.30 C124.87,42.47 124.87,42.47 124.85,42.64 C124.82,42.82 124.82,42.82 124.78,43.00 C124.73,43.17 124.74,43.17 124.69,43.34 C124.47,43.97 124.47,43.97 124.25,44.61 C124.14,44.99 124.14,44.99 124.03,45.37 C123.94,45.75 123.94,45.75 123.85,46.13 C123.79,46.51 123.79,46.51 123.73,46.89 C123.69,47.25 123.69,47.25 123.65,47.61 C123.64,47.97 123.64,47.97 123.63,48.33 C123.64,48.67 123.64,48.67 123.65,49.00 C123.69,49.32 123.69,49.32 123.73,49.64 C123.79,49.94 123.79,49.94 123.85,50.25 C123.94,50.53 123.94,50.53 124.03,50.81 C124.14,51.07 124.14,51.07 124.25,51.34 C124.38,51.57 124.38,51.57 124.52,51.80 "/><path d="M124.89,31.00 C124.94,31.33 124.94,31.33 125.00,31.66 C125.02,31.99 125.02,31.99 125.05,32.33 C125.05,32.68 125.05,32.68 125.05,33.04 C125.02,33.39 125.02,33.39 125.00,33.75 C124.94,34.14 124.94,34.14 124.89,34.53 "/><path d="M127.19,62.33 C127.37,62.25 127.37,62.25 127.55,62.18 C127.71,62.15 127.71,62.15 127.87,62.13 C127.98,62.12 127.98,62.12 128.09,62.12 C128.30,62.14 128.30,62.13 128.52,62.16 C128.66,62.20 128.66,62.20 128.81,62.25 C128.89,62.29 128.89,62.29 128.98,62.33 "/><path d="M132.71,43.98 C132.72,44.12 132.72,44.12 132.74,44.27 C132.76,44.34 132.76,44.34 132.78,44.42 C132.81,44.49 132.81,44.50 132.84,44.57 C132.89,44.64 132.89,44.64 132.95,44.71 "/><path d="M135.38,46.12 C135.49,46.12 135.49,46.12 135.60,46.13 C135.65,46.12 135.65,46.12 135.71,46.11 C135.82,46.07 135.82,46.07 135.92,46.03 C136.02,45.97 136.02,45.97 136.12,45.90 C136.21,45.82 136.21,45.82 136.30,45.74 C136.46,45.55 136.46,45.55 136.62,45.36 C136.71,45.21 136.71,45.21 136.80,45.06 C136.90,44.83 136.90,44.83 137.00,44.59 "/><path d="M137.00,71.49 C136.87,71.55 136.87,71.55 136.74,71.61 C136.64,71.64 136.64,71.64 136.54,71.66 C136.33,71.69 136.33,71.69 136.11,71.71 C135.90,71.69 135.89,71.69 135.68,71.66 C135.49,71.61 135.49,71.61 135.30,71.54 C134.12,70.86 134.12,70.85 132.94,70.16 C132.86,70.08 132.86,70.08 132.79,69.99 C132.76,69.93 132.76,69.93 132.73,69.87 C132.72,69.81 132.72,69.81 132.71,69.74 "/><path d="M132.71,43.98 C132.73,43.74 132.73,43.74 132.75,43.50 C132.78,43.33 132.78,43.33 132.82,43.16 C132.95,42.74 132.95,42.74 133.08,42.32 "/><path d="M132.71,33.78 C132.76,33.88 132.76,33.88 132.82,33.97 C132.95,34.15 132.95,34.15 133.08,34.34 C133.22,34.58 133.22,34.58 133.35,34.82 C133.46,35.08 133.46,35.08 133.57,35.33 C133.66,35.61 133.66,35.61 133.74,35.89 C133.81,36.19 133.81,36.20 133.87,36.50 C133.91,36.82 133.91,36.82 133.95,37.14 C133.96,37.48 133.96,37.48 133.97,37.83 C133.96,38.18 133.96,38.18 133.95,38.52 C133.91,38.89 133.91,38.89 133.87,39.25 C133.81,39.63 133.81,39.63 133.74,40.00 C133.66,40.39 133.66,40.39 133.57,40.77 C133.46,41.16 133.46,41.16 133.35,41.55 C133.22,41.94 133.22,41.94 133.08,42.32 "/><path d="M133.51,34.21 C134.72,34.90 134.72,34.90 135.93,35.60 C136.17,35.78 136.17,35.78 136.41,35.96 C136.57,36.10 136.57,36.10 136.71,36.25 C136.86,36.42 136.86,36.42 137.00,36.60 C137.14,36.84 137.14,36.85 137.27,37.09 C137.39,37.34 137.39,37.34 137.49,37.60 C137.58,37.88 137.58,37.88 137.67,38.16 C137.73,38.46 137.73,38.46 137.79,38.77 C137.84,39.08 137.84,39.08 137.87,39.40 C137.89,39.75 137.89,39.75 137.90,40.09 C137.89,40.44 137.89,40.44 137.87,40.79 C137.83,41.15 137.83,41.15 137.79,41.52 C137.73,41.89 137.73,41.89 137.67,42.27 C137.58,42.65 137.58,42.65 137.49,43.03 C137.38,43.43 137.39,43.43 137.27,43.82 C137.14,44.21 137.14,44.21 137.00,44.59 "/><path d="M137.00,71.49 C146.81,65.83 146.82,65.83 156.62,60.17 C156.73,60.09 156.73,60.09 156.82,60.02 C156.89,59.93 156.89,59.93 156.95,59.84 "/><path d="M51.06,59.46 L51.02,59.65 L51.06,59.84 L51.19,60.02 L51.39,60.17 L71.01,71.49 L71.01,44.59 "/><path d="M72.63,46.12 L75.04,44.73 "/><path d="M75.30,43.98 L75.30,69.74 L75.26,69.56 "/><path d="M51.02,59.65 L51.02,0.00 "/><path d="M51.39,60.17 L51.39,0.00 "/><path d="M72.45,35.36 L72.78,35.17 "/><path d="M72.79,71.49 L72.79,46.04 "/><path d="M71.01,36.60 L71.01,0.00 "/><path d="M72.31,35.46 L72.78,35.19 L72.34,35.43 "/><path d="M72.49,35.33 L72.78,35.17 L72.63,35.25 "/><path d="M72.53,35.31 L72.79,35.15 L72.79,0.00 "/><path d="M72.56,35.28 L72.78,35.16 L72.67,35.22 "/><path d="M72.78,35.16 L72.92,35.08 L72.78,35.17 L72.94,35.08 L72.79,35.15 "/><path d="M72.79,71.49 L74.93,70.26 L74.93,44.81 "/><path d="M73.30,34.87 L73.82,34.57 L72.92,35.08 L73.30,34.87 L72.94,35.08 "/><path d="M72.78,35.19 L73.30,34.89 L72.78,35.19 "/><path d="M73.82,34.57 L74.35,34.27 L73.30,34.86 "/><path d="M73.30,34.89 L74.35,34.28 L73.82,34.58 "/><path d="M74.93,42.41 L74.93,42.32 "/><path d="M74.93,34.34 L74.93,34.12 "/><path d="M74.35,34.28 L74.87,33.98 L74.35,34.28 "/><path d="M73.82,34.55 L75.12,33.81 L75.24,33.77 L74.87,33.98 L75.26,33.75 L75.29,33.75 L75.30,33.78 L75.20,33.97 L74.93,34.34 "/><path d="M75.14,33.81 L74.87,33.96 L75.16,33.79 "/><path d="M75.07,33.85 L75.04,33.84 L74.87,33.96 L75.12,33.81 "/><path d="M74.87,33.96 L75.21,33.77 "/><path d="M74.87,33.95 L75.04,33.84 "/><path d="M79.04,0.00 L79.04,62.33 L75.30,64.48 "/><path d="M74.93,34.03 L74.93,34.07 "/><path d="M74.93,33.97 L74.93,34.00 "/><path d="M75.30,33.78 L75.30,0.00 "/><path d="M75.24,33.77 L75.26,33.75 "/><path d="M74.93,33.92 L74.93,0.00 "/><path d="M80.82,62.33 L80.82,0.00 "/><path d="M83.16,78.01 L83.13,78.19 L83.17,78.38 L83.30,78.55 L83.50,78.70 "/><path d="M104.90,90.03 L104.90,0.00 "/><path d="M83.13,78.19 L83.13,52.40 L83.16,52.29 L83.50,51.80 L83.50,78.70 "/><path d="M83.13,52.40 L83.16,52.39 "/><path d="M83.50,0.00 L83.50,43.81 "/><path d="M83.13,42.22 L83.13,0.00 "/><path d="M83.13,32.58 L82.96,32.68 "/><path d="M84.03,45.56 L84.03,50.66 "/><path d="M103.12,90.03 L103.12,0.00 "/><path d="M124.52,51.80 L124.52,78.70 L104.90,90.03 "/><path d="M123.98,50.67 L123.98,45.56 "/><path d="M124.85,78.01 L124.89,78.19 L124.85,78.38 L124.72,78.55 L124.52,78.70 "/><path d="M124.85,52.39 L124.87,52.41 L124.89,52.36 L124.52,51.80 "/><path d="M124.52,43.81 L124.52,0.00 "/><path d="M124.89,52.39 L124.89,78.19 "/><path d="M127.19,0.00 L127.19,62.33 L124.89,63.66 "/><path d="M124.89,42.22 L124.89,0.00 "/><path d="M128.98,62.33 L128.98,0.00 "/><path d="M128.98,62.33 L132.71,64.48 "/><path d="M132.71,69.74 L132.71,43.98 "/><path d="M132.95,44.71 L135.38,46.12 "/><path d="M137.00,44.59 L137.00,71.49 "/><path d="M132.71,69.74 L132.75,69.56 "/><path d="M133.08,42.32 L133.08,42.41 "/><path d="M132.88,33.81 L132.97,33.84 L132.98,33.87 L132.86,33.79 L132.98,33.88 L132.76,33.75 L132.71,33.75 L132.71,33.78 "/><path d="M132.86,33.79 L132.76,33.75 "/><path d="M132.73,33.76 L132.98,33.91 L132.74,33.75 "/><path d="M132.95,33.85 L132.98,33.88 L132.84,33.79 "/><path d="M132.97,33.84 L133.51,34.17 L132.90,33.81 "/><path d="M132.98,33.91 L133.51,34.21 L132.98,33.91 "/><path d="M132.71,33.78 L132.71,0.00 "/><path d="M133.26,34.03 L132.98,33.88 L134.56,34.78 L134.03,34.47 L134.20,34.55 L132.78,33.75 "/><path d="M132.98,33.87 L133.28,34.03 "/><path d="M133.08,44.81 L133.08,70.26 "/><path d="M133.08,34.34 L133.08,34.12 "/><path d="M133.08,34.03 L133.08,34.07 "/><path d="M133.08,33.99 L133.08,34.01 "/><path d="M133.08,33.92 L133.08,0.00 "/><path d="M133.51,34.19 L135.59,35.38 "/><path d="M134.20,34.55 L135.08,35.07 L134.20,34.55 "/><path d="M135.08,35.10 L135.60,35.40 L135.52,35.33 L135.22,35.15 L135.22,0.00 "/><path d="M134.56,34.78 L135.22,35.15 "/><path d="M135.08,35.07 L135.52,35.33 "/><path d="M135.22,71.49 L135.22,46.04 "/><path d="M135.56,35.36 L135.09,35.08 L135.49,35.31 "/><path d="M135.38,35.25 L135.09,35.08 L135.45,35.28 "/><path d="M135.35,35.22 L135.11,35.08 "/><path d="M135.93,35.60 L135.63,35.40 L135.60,35.40 L135.78,35.49 "/><path d="M135.71,35.46 L135.60,35.40 "/><path d="M135.63,35.40 L135.60,35.38 "/><path d="M156.95,59.84 L156.99,59.65 L156.95,59.46 "/><path d="M137.00,36.60 L137.00,0.00 "/><path d="M156.62,60.17 L156.62,0.00 "/><path d="M156.99,59.65 L156.99,0.00 "/></g></g><g id="Actor_.1"><g style="stroke:#000000;stroke-width:0.353"><path d="M104.01,108.05 C104.00,119.38 104.00,119.38 104.01,130.71 C104.02,130.85 104.02,130.85 104.04,130.99 C104.06,131.09 104.06,131.09 104.09,131.19 C104.18,131.39 104.18,131.39 104.27,131.58 C104.39,131.76 104.39,131.76 104.52,131.94 C104.59,132.01 104.59,132.01 104.67,132.08 C104.78,132.17 104.78,132.17 104.90,132.25 C114.71,137.92 114.71,137.92 124.52,143.58 "/><path d="M104.01,108.05 C104.02,107.93 104.02,107.93 104.04,107.80 C104.06,107.73 104.06,107.73 104.09,107.66 C104.13,107.61 104.13,107.61 104.17,107.55 C104.22,107.51 104.22,107.51 104.27,107.47 C104.33,107.45 104.33,107.45 104.39,107.43 C104.45,107.42 104.46,107.42 104.52,107.41 C104.60,107.42 104.60,107.42 104.67,107.44 C104.78,107.48 104.78,107.48 104.90,107.54 "/><path d="M107.93,95.90 C107.92,96.02 107.92,96.02 107.90,96.15 C107.88,96.22 107.88,96.22 107.85,96.29 C107.81,96.34 107.81,96.34 107.77,96.40 C107.72,96.44 107.72,96.44 107.67,96.48 C107.61,96.50 107.61,96.50 107.55,96.52 C107.48,96.53 107.48,96.53 107.42,96.54 "/><path d="M107.42,96.54 C107.27,96.50 107.26,96.50 107.12,96.46 C105.97,95.80 105.97,95.80 104.82,95.13 C104.74,95.07 104.74,95.07 104.67,95.01 C104.56,94.90 104.56,94.90 104.45,94.78 C104.33,94.60 104.33,94.60 104.22,94.42 C104.15,94.27 104.15,94.27 104.09,94.12 C104.05,93.92 104.04,93.92 104.01,93.73 C104.00,91.99 104.00,91.99 104.01,90.24 "/><path d="M104.90,107.54 C105.97,108.15 105.97,108.15 107.04,108.77 C107.16,108.85 107.16,108.85 107.27,108.94 C107.38,109.05 107.38,109.05 107.49,109.17 C107.61,109.35 107.61,109.35 107.72,109.53 C107.81,109.74 107.81,109.74 107.88,109.95 C107.91,110.13 107.91,110.13 107.93,110.32 "/><path d="M115.18,119.03 C112.00,117.20 112.00,117.20 108.82,115.36 C108.71,115.28 108.71,115.28 108.59,115.19 C108.48,115.08 108.48,115.08 108.38,114.97 C108.23,114.74 108.23,114.74 108.09,114.50 C108.03,114.35 108.04,114.35 107.98,114.20 C107.96,114.06 107.95,114.06 107.93,113.91 C107.93,112.11 107.93,112.08 107.93,110.32 "/><path d="M114.88,122.97 C115.51,123.33 115.51,123.33 116.14,123.70 C116.26,123.78 116.26,123.78 116.37,123.87 C116.48,123.98 116.48,123.98 116.59,124.10 C116.71,124.28 116.71,124.28 116.82,124.46 C116.90,124.66 116.91,124.66 116.98,124.86 C117.01,125.05 117.01,125.05 117.03,125.25 "/><path d="M109.71,129.47 C109.56,129.36 109.55,129.36 109.40,129.23 C109.27,129.07 109.27,129.07 109.14,128.90 C109.03,128.71 109.03,128.71 108.94,128.51 C108.88,128.32 108.88,128.31 108.83,128.11 C108.82,128.02 108.82,128.02 108.82,127.93 "/><path d="M108.82,126.47 C108.69,126.00 108.69,126.00 108.56,125.53 C108.51,125.30 108.51,125.30 108.47,125.07 C108.42,124.62 108.42,124.62 108.38,124.17 C108.38,123.87 108.38,123.87 108.39,123.56 C108.43,123.26 108.43,123.26 108.47,122.96 C108.57,122.61 108.57,122.61 108.67,122.27 C108.74,122.11 108.74,122.11 108.82,121.96 "/><path d="M121.45,105.50 C121.33,105.29 121.33,105.29 121.21,105.08 C121.08,104.90 121.08,104.90 120.95,104.72 C120.81,104.56 120.81,104.56 120.67,104.41 C120.52,104.27 120.52,104.27 120.37,104.14 C120.22,104.04 120.22,104.04 120.06,103.93 C118.78,103.19 118.78,103.20 117.50,102.45 C117.38,102.35 117.38,102.35 117.26,102.24 C117.16,102.10 117.16,102.10 117.06,101.96 C116.98,101.80 116.98,101.80 116.92,101.64 C116.88,101.49 116.88,101.48 116.85,101.33 C116.84,99.34 116.85,99.34 116.84,97.36 C116.81,97.21 116.80,97.21 116.77,97.06 C116.71,96.91 116.71,96.91 116.64,96.77 C116.49,96.54 116.49,96.54 116.33,96.32 C116.23,96.21 116.22,96.21 116.11,96.11 C116.04,96.05 116.04,96.05 115.96,96.00 C112.39,93.94 112.39,93.94 108.82,91.88 "/><path d="M109.71,129.47 C110.35,129.82 110.35,129.83 110.97,130.20 C111.32,130.54 111.31,130.55 111.66,130.90 C111.83,131.05 111.83,131.05 112.01,131.21 C112.38,131.47 112.37,131.47 112.74,131.73 C113.10,131.93 113.11,131.93 113.47,132.12 C113.83,132.25 113.83,132.25 114.19,132.36 C114.54,132.42 114.54,132.42 114.88,132.46 "/><path d="M117.03,126.70 C117.17,127.17 117.17,127.17 117.29,127.64 C117.34,127.87 117.34,127.87 117.38,128.11 C117.41,128.33 117.41,128.33 117.44,128.56 C117.46,128.94 117.46,128.94 117.47,129.32 C117.46,129.58 117.46,129.58 117.44,129.84 C117.41,130.03 117.41,130.03 117.38,130.21 C117.33,130.41 117.33,130.42 117.28,130.62 C117.16,130.92 117.16,130.92 117.03,131.21 "/><path d="M110.97,120.72 C111.31,120.76 111.31,120.76 111.66,120.81 C111.84,120.86 111.84,120.86 112.01,120.91 C112.38,121.07 112.38,121.07 112.74,121.23 C112.93,121.34 112.93,121.34 113.11,121.45 C113.47,121.70 113.47,121.70 113.84,121.97 C114.02,122.12 114.02,122.12 114.19,122.28 C114.54,122.62 114.54,122.62 114.88,122.97 "/><path d="M110.97,89.01 C111.31,89.36 111.31,89.36 111.66,89.71 C111.85,89.87 111.85,89.87 112.04,90.04 C112.39,90.29 112.39,90.29 112.74,90.54 C113.10,90.74 113.11,90.74 113.47,90.93 C113.83,91.05 113.83,91.06 114.19,91.17 C114.53,91.23 114.54,91.23 114.88,91.27 "/><path d="M116.65,92.10 C116.59,92.11 116.58,92.11 116.52,92.12 C116.41,92.09 116.41,92.09 116.30,92.07 C116.22,92.03 116.22,92.03 116.14,92.00 "/><path d="M116.14,133.19 C116.22,133.22 116.22,133.22 116.30,133.26 C116.41,133.28 116.41,133.29 116.52,133.31 C116.58,133.30 116.59,133.30 116.65,133.29 "/><path d="M117.03,90.02 C117.17,89.71 117.17,89.70 117.29,89.38 C117.34,89.20 117.34,89.20 117.38,89.02 C117.43,88.63 117.43,88.63 117.47,88.23 C117.46,87.83 117.46,87.83 117.44,87.43 C117.42,87.18 117.41,87.18 117.38,86.92 C117.34,86.68 117.34,86.68 117.29,86.45 C117.17,85.98 117.17,85.98 117.03,85.51 "/><path d="M121.49,137.30 C121.33,137.18 121.33,137.18 121.18,137.06 C121.04,136.89 121.04,136.89 120.91,136.72 C120.81,136.53 120.81,136.53 120.71,136.34 C120.67,136.19 120.67,136.19 120.62,136.04 C120.61,135.94 120.61,135.94 120.60,135.84 C120.59,132.13 120.59,132.19 120.59,128.41 "/><path d="M121.49,94.87 C121.33,94.76 121.33,94.75 121.18,94.63 C121.01,94.42 121.01,94.42 120.86,94.20 C120.76,94.01 120.76,94.01 120.68,93.81 C120.64,93.66 120.64,93.66 120.61,93.51 C120.60,93.42 120.60,93.42 120.59,93.33 "/><path d="M121.49,84.57 C121.37,84.52 121.37,84.52 121.26,84.47 C121.18,84.46 121.18,84.46 121.11,84.45 C121.04,84.46 121.04,84.46 120.98,84.46 C120.92,84.48 120.91,84.49 120.86,84.51 C120.80,84.55 120.80,84.55 120.76,84.59 C120.72,84.64 120.71,84.64 120.68,84.70 C120.64,84.81 120.64,84.81 120.61,84.92 C120.60,85.00 120.60,85.00 120.59,85.09 "/><path d="M121.49,94.87 C123.09,95.79 123.09,95.79 124.70,96.72 C124.82,96.82 124.82,96.82 124.94,96.91 C125.05,97.04 125.05,97.05 125.16,97.18 C125.24,97.33 125.24,97.34 125.31,97.49 C125.37,97.69 125.37,97.69 125.41,97.89 C125.42,99.46 125.41,99.46 125.42,101.03 C125.44,101.22 125.44,101.22 125.47,101.41 C125.52,101.61 125.52,101.61 125.58,101.81 C125.70,102.11 125.70,102.11 125.83,102.41 C126.00,102.70 126.00,102.69 126.18,102.98 C126.31,103.14 126.31,103.14 126.44,103.30 C126.58,103.45 126.58,103.45 126.73,103.60 C126.96,103.77 126.96,103.77 127.19,103.93 "/><path d="M124.52,143.58 C124.67,143.64 124.67,143.64 124.82,143.69 C124.89,143.70 124.89,143.70 124.96,143.70 C125.03,143.68 125.03,143.68 125.09,143.67 C125.15,143.64 125.15,143.64 125.20,143.60 C125.25,143.56 125.25,143.56 125.29,143.51 "/><path d="M125.29,143.51 C125.34,143.41 125.34,143.41 125.38,143.31 C125.40,143.19 125.40,143.19 125.41,143.06 C125.41,141.83 125.41,141.83 125.41,140.59 "/><path d="M124.52,139.05 C124.63,139.13 124.64,139.13 124.75,139.21 C124.82,139.29 124.82,139.29 124.90,139.36 C125.02,139.53 125.03,139.53 125.15,139.71 C125.24,139.91 125.24,139.91 125.33,140.11 C125.36,140.21 125.36,140.21 125.38,140.31 C125.40,140.45 125.40,140.45 125.41,140.59 "/><path d="M124.52,86.32 C124.63,86.37 124.63,86.37 124.75,86.42 C124.82,86.43 124.82,86.43 124.90,86.44 C124.96,86.44 124.96,86.44 125.03,86.43 C125.09,86.41 125.09,86.41 125.15,86.39 C125.20,86.35 125.20,86.35 125.25,86.31 C125.29,86.25 125.29,86.25 125.33,86.19 C125.36,86.13 125.36,86.13 125.38,86.06 C125.40,85.93 125.40,85.93 125.41,85.81 "/><path d="M125.41,85.81 C125.41,84.57 125.41,84.57 125.41,83.34 C125.40,83.19 125.40,83.19 125.38,83.05 C125.34,82.90 125.34,82.90 125.29,82.75 C125.19,82.56 125.20,82.56 125.09,82.36 C124.96,82.20 124.96,82.19 124.82,82.03 C124.67,81.91 124.67,81.91 124.52,81.79 "/><path d="M127.19,103.93 C130.76,105.99 130.76,105.99 134.33,108.05 C134.48,108.13 134.48,108.13 134.64,108.20 C134.79,108.24 134.79,108.24 134.94,108.28 C135.08,108.29 135.08,108.29 135.22,108.29 C135.35,108.26 135.35,108.26 135.48,108.23 C135.59,108.17 135.59,108.17 135.69,108.10 C135.79,108.01 135.79,108.01 135.87,107.91 C135.94,107.79 135.94,107.79 136.00,107.66 C136.05,107.51 136.05,107.51 136.08,107.36 C136.11,107.19 136.11,107.19 136.13,107.01 "/><path d="M134.03,113.44 C134.20,113.57 134.20,113.57 134.35,113.72 C134.48,113.89 134.48,113.89 134.61,114.07 C134.70,114.26 134.70,114.27 134.78,114.46 C134.83,114.66 134.83,114.66 134.87,114.86 "/><path d="M135.45,129.75 C135.57,129.96 135.57,129.96 135.69,130.17 C135.79,130.37 135.79,130.37 135.87,130.57 C135.94,130.77 135.94,130.77 136.00,130.97 C136.05,131.16 136.05,131.17 136.08,131.36 C136.11,131.54 136.11,131.54 136.13,131.73 C136.12,133.21 136.11,133.21 136.11,134.69 C136.14,134.85 136.14,134.85 136.18,135.01 C136.25,135.16 136.25,135.17 136.32,135.32 C136.42,135.46 136.42,135.47 136.52,135.60 C136.64,135.71 136.64,135.71 136.76,135.82 C138.47,136.82 138.48,136.81 140.19,137.81 C140.31,137.91 140.30,137.92 140.41,138.02 C140.51,138.15 140.51,138.15 140.61,138.28 C140.69,138.42 140.69,138.42 140.77,138.57 C140.82,138.72 140.82,138.72 140.87,138.87 C140.90,139.07 140.91,139.07 140.93,139.27 C140.93,141.63 140.93,141.63 140.93,143.99 "/><path d="M137.00,146.25 C138.52,147.13 138.52,147.13 140.04,148.01 C140.15,148.06 140.15,148.06 140.27,148.10 C140.37,148.12 140.37,148.12 140.48,148.13 "/><path d="M154.48,136.16 C155.55,136.78 155.55,136.78 156.62,137.40 C156.74,137.48 156.74,137.48 156.85,137.57 C156.96,137.68 156.96,137.68 157.07,137.79 C157.19,137.98 157.19,137.98 157.31,138.16 C157.37,138.31 157.37,138.31 157.43,138.46 C157.48,138.66 157.48,138.66 157.51,138.85 "/><path d="M157.51,138.85 C157.52,150.13 157.52,150.23 157.52,161.60 C157.50,161.72 157.50,161.72 157.48,161.85 C157.46,161.92 157.46,161.92 157.43,161.99 C157.39,162.04 157.39,162.04 157.35,162.10 C157.31,162.14 157.30,162.14 157.25,162.18 C157.20,162.20 157.19,162.20 157.13,162.22 C157.07,162.23 157.07,162.23 157.00,162.23 C156.93,162.22 156.93,162.23 156.85,162.21 C156.74,162.16 156.74,162.17 156.62,162.11 C146.74,156.40 146.73,156.41 136.85,150.68 C136.70,150.54 136.70,150.54 136.56,150.39 C136.46,150.26 136.46,150.26 136.37,150.12 C136.30,149.97 136.30,149.97 136.23,149.83 C136.18,149.68 136.18,149.68 136.14,149.52 C136.12,149.37 136.12,149.37 136.11,149.21 C136.11,147.95 136.11,147.95 136.12,146.68 C136.15,146.53 136.15,146.53 136.20,146.38 "/><path d="M136.20,146.38 C136.23,146.33 136.23,146.33 136.27,146.27 C136.32,146.23 136.32,146.23 136.37,146.19 C136.43,146.17 136.43,146.17 136.49,146.15 C136.56,146.14 136.56,146.14 136.63,146.13 C136.70,146.14 136.70,146.14 136.77,146.16 C136.89,146.20 136.89,146.20 137.00,146.25 "/><path d="M140.93,96.83 C140.91,96.63 140.90,96.63 140.87,96.44 C140.80,96.24 140.80,96.24 140.72,96.04 C140.64,95.90 140.64,95.90 140.55,95.76 C140.41,95.60 140.41,95.60 140.27,95.45 C140.16,95.37 140.16,95.37 140.05,95.29 C138.49,94.38 138.48,94.39 136.93,93.48 C136.77,93.36 136.77,93.35 136.63,93.22 C136.53,93.09 136.53,93.09 136.43,92.96 C136.33,92.77 136.33,92.77 136.23,92.57 C136.18,92.42 136.18,92.42 136.14,92.27 C136.13,92.17 136.13,92.17 136.12,92.08 C136.11,90.80 136.11,90.78 136.11,89.53 "/><path d="M153.59,118.76 C153.59,120.56 153.59,120.56 153.59,122.35 C153.63,122.55 153.63,122.55 153.67,122.74 C153.76,122.94 153.76,122.94 153.85,123.14 C153.94,123.28 153.94,123.28 154.04,123.41 C154.18,123.56 154.18,123.56 154.33,123.70 C154.91,124.05 154.91,124.05 155.50,124.39 C156.14,124.75 156.14,124.75 156.78,125.12 "/><path d="M157.43,124.91 C157.48,124.77 157.48,124.76 157.51,124.61 C157.52,123.83 157.51,123.83 157.52,123.04 C157.52,112.45 157.52,112.45 157.52,101.87 C157.50,101.73 157.50,101.73 157.48,101.59 C157.46,101.49 157.46,101.49 157.43,101.39 C157.34,101.19 157.35,101.19 157.25,100.99 C157.13,100.82 157.13,100.82 157.00,100.64 C156.93,100.57 156.93,100.57 156.85,100.50 C156.74,100.41 156.74,100.41 156.62,100.33 C146.82,94.66 146.82,94.66 137.01,89.01 C136.86,88.94 136.86,88.94 136.70,88.89 "/><path d="M152.70,140.69 C149.13,138.64 149.13,138.64 145.57,136.58 C145.49,136.52 145.49,136.52 145.41,136.47 C145.30,136.37 145.30,136.37 145.19,136.26 C145.06,136.09 145.06,136.09 144.93,135.91 C144.84,135.71 144.84,135.71 144.76,135.51 C144.71,135.32 144.71,135.32 144.68,135.12 C144.67,133.22 144.68,133.22 144.67,131.32 C144.66,131.17 144.66,131.17 144.63,131.02 C144.57,130.86 144.57,130.86 144.51,130.70 C144.41,130.55 144.41,130.55 144.32,130.40 C144.17,130.26 144.17,130.26 144.02,130.13 C142.75,129.38 142.74,129.39 141.46,128.65 C141.23,128.48 141.23,128.48 141.00,128.31 C140.78,128.09 140.78,128.08 140.57,127.85 C140.44,127.68 140.44,127.68 140.32,127.50 C140.16,127.21 140.15,127.22 140.00,126.92 C139.89,126.63 139.89,126.63 139.79,126.34 C139.75,126.13 139.75,126.13 139.71,125.93 C139.69,125.74 139.69,125.74 139.68,125.56 C139.68,121.44 139.68,121.44 139.68,117.32 "/><path d="M141.46,116.29 C141.31,116.21 141.31,116.21 141.15,116.14 C141.00,116.10 141.00,116.10 140.85,116.06 C140.71,116.05 140.71,116.05 140.57,116.05 C140.44,116.08 140.44,116.08 140.32,116.11 C140.26,116.13 140.26,116.13 140.20,116.16 C140.10,116.24 140.10,116.24 140.00,116.32 C139.96,116.37 139.96,116.37 139.92,116.43 C139.85,116.55 139.85,116.55 139.79,116.68 C139.74,116.83 139.74,116.83 139.71,116.98 C139.69,117.15 139.69,117.15 139.68,117.32 "/><path d="M152.71,145.84 C152.69,146.57 152.69,146.57 152.70,147.30 C152.82,147.77 152.84,147.77 152.96,148.24 C153.04,148.70 153.04,148.70 153.11,149.15 C153.13,149.59 153.13,149.59 153.14,150.02 C153.10,150.41 153.10,150.41 153.05,150.81 C153.01,150.99 153.01,150.99 152.96,151.17 C152.91,151.34 152.91,151.34 152.85,151.50 C152.78,151.66 152.78,151.66 152.70,151.81 "/><path d="M150.55,153.05 C150.21,153.01 150.21,153.01 149.87,152.96 C149.69,152.91 149.69,152.91 149.51,152.85 C149.14,152.70 149.14,152.70 148.78,152.53 C148.60,152.43 148.60,152.43 148.41,152.32 C148.05,152.06 148.05,152.06 147.69,151.80 C147.51,151.65 147.51,151.65 147.33,151.49 C146.98,151.15 146.99,151.13 146.64,150.80 C146.02,150.42 146.01,150.44 145.38,150.07 C145.23,149.95 145.23,149.95 145.08,149.83 C144.91,149.62 144.91,149.62 144.75,149.40 C144.68,149.26 144.68,149.26 144.61,149.11 C144.56,148.96 144.56,148.96 144.52,148.81 C144.51,148.71 144.50,148.71 144.49,148.62 C144.50,147.84 144.50,147.84 144.50,147.06 "/><path d="M144.50,147.06 C144.42,146.83 144.42,146.83 144.35,146.60 C144.24,146.13 144.24,146.13 144.14,145.66 C144.11,145.44 144.11,145.44 144.08,145.21 C144.06,144.78 144.06,144.78 144.05,144.35 C144.09,143.95 144.09,143.95 144.14,143.56 C144.18,143.38 144.18,143.38 144.23,143.20 C144.29,143.03 144.29,143.03 144.35,142.86 C144.42,142.70 144.42,142.70 144.50,142.55 "/><path d="M144.50,142.55 C144.49,141.78 144.49,141.78 144.49,141.01 C144.51,140.89 144.52,140.89 144.54,140.78 C144.57,140.71 144.58,140.71 144.61,140.65 C144.65,140.60 144.65,140.60 144.70,140.56 "/><path d="M150.55,143.57 C150.21,143.22 150.21,143.22 149.87,142.87 C149.69,142.71 149.69,142.71 149.51,142.56 C149.15,142.30 149.15,142.30 148.78,142.04 C148.42,141.84 148.42,141.84 148.05,141.65 C147.87,141.58 147.87,141.58 147.69,141.51 C147.33,141.42 147.33,141.42 146.98,141.34 C146.81,141.32 146.81,141.32 146.64,141.31 "/><path d="M150.55,111.86 C150.38,111.85 150.38,111.85 150.21,111.83 C150.04,111.80 150.04,111.80 149.87,111.77 C149.69,111.72 149.69,111.72 149.51,111.66 C149.14,111.51 149.14,111.51 148.78,111.34 C148.41,111.12 148.41,111.12 148.05,110.89 C147.69,110.60 147.68,110.60 147.33,110.30 C146.98,109.96 146.99,109.94 146.64,109.61 C145.95,109.18 145.93,109.20 145.23,108.77 C145.08,108.63 145.08,108.63 144.94,108.48 C144.84,108.35 144.84,108.35 144.75,108.21 C144.67,108.03 144.67,108.03 144.59,107.85 C144.54,107.69 144.54,107.69 144.50,107.52 C144.50,106.70 144.50,106.70 144.50,105.87 "/><path d="M144.50,105.87 C144.42,105.64 144.42,105.64 144.35,105.40 C144.24,104.94 144.24,104.94 144.14,104.47 C144.11,104.25 144.11,104.25 144.08,104.02 C144.06,103.59 144.06,103.59 144.05,103.16 C144.09,102.76 144.09,102.76 144.14,102.37 C144.18,102.19 144.18,102.19 144.23,102.01 C144.29,101.84 144.29,101.84 144.35,101.67 C144.42,101.51 144.42,101.51 144.50,101.36 "/><path d="M146.64,100.12 C146.99,100.16 146.99,100.16 147.33,100.22 C147.51,100.26 147.51,100.26 147.69,100.32 C148.05,100.48 148.05,100.47 148.41,100.64 C148.78,100.86 148.78,100.86 149.15,101.10 C149.33,101.23 149.33,101.23 149.51,101.37 C149.69,101.53 149.69,101.52 149.87,101.68 C150.21,102.03 150.21,102.03 150.55,102.38 "/><path d="M144.67,117.32 C144.67,115.42 144.67,115.42 144.68,113.52 C144.70,113.41 144.70,113.41 144.73,113.29 C144.76,113.23 144.76,113.23 144.79,113.17 C144.84,113.12 144.84,113.12 144.88,113.07 "/><path d="M145.55,113.11 C145.48,113.06 145.48,113.06 145.41,113.02 C145.34,113.00 145.33,113.00 145.26,112.98 C145.14,112.99 145.14,112.99 145.03,113.00 "/><path d="M152.71,145.84 C152.67,145.60 152.67,145.60 152.62,145.36 C152.54,145.16 152.54,145.16 152.44,144.96 C152.32,144.78 152.32,144.78 152.19,144.61 C152.08,144.50 152.08,144.50 151.97,144.40 C151.89,144.35 151.89,144.35 151.81,144.30 "/><path d="M152.70,104.65 C152.68,104.46 152.68,104.46 152.65,104.27 C152.55,104.02 152.55,104.02 152.44,103.77 C152.32,103.59 152.32,103.59 152.19,103.42 C152.08,103.31 152.08,103.31 151.97,103.21 C151.89,103.16 151.89,103.16 151.81,103.10 "/><path d="M153.59,118.76 C153.58,118.62 153.58,118.62 153.56,118.48 C153.54,118.38 153.54,118.38 153.51,118.28 C153.42,118.08 153.42,118.08 153.33,117.88 C153.21,117.70 153.21,117.70 153.08,117.53 C152.97,117.42 152.97,117.42 152.85,117.32 C152.78,117.27 152.78,117.27 152.70,117.22 "/><path d="M152.70,106.11 C152.84,106.58 152.84,106.58 152.96,107.05 C153.01,107.28 153.01,107.28 153.05,107.51 C153.10,107.96 153.10,107.96 153.14,108.40 C153.13,108.82 153.13,108.82 153.11,109.23 C153.09,109.42 153.08,109.42 153.05,109.62 C153.01,109.80 153.01,109.80 152.96,109.98 C152.84,110.30 152.84,110.30 152.70,110.62 "/><path d="M153.59,140.18 C153.58,140.30 153.58,140.30 153.56,140.43 C153.54,140.50 153.54,140.50 153.51,140.57 C153.46,140.64 153.46,140.64 153.40,140.71 "/><path d="M153.59,136.68 C153.60,136.55 153.60,136.55 153.62,136.43 C153.65,136.36 153.65,136.36 153.67,136.29 C153.71,136.24 153.71,136.23 153.75,136.18 C153.80,136.14 153.80,136.14 153.85,136.10 C153.91,136.08 153.91,136.08 153.97,136.05 C154.04,136.05 154.04,136.05 154.11,136.04 C154.18,136.05 154.18,136.05 154.25,136.07 C154.37,136.11 154.37,136.11 154.48,136.16 "/><path d="M104.05,108.03 L104.01,108.05 "/><path d="M124.52,143.58 L124.61,143.53 "/><path d="M104.90,107.54 L116.85,100.64 "/><path d="M111.86,93.63 L107.93,95.90 "/><path d="M104.27,107.47 L116.85,100.21 "/><path d="M107.93,110.32 L119.52,103.62 "/><path d="M107.04,108.77 L117.74,102.59 "/><path d="M107.67,96.48 L112.22,93.85 "/><path d="M107.93,113.82 L116.79,108.70 "/><path d="M107.93,95.90 L107.93,92.40 L107.96,92.15 L108.09,91.90 L108.25,91.79 L108.38,91.76 L108.52,91.77 L108.82,91.88 L107.93,92.40 "/><path d="M108.82,127.93 L108.82,126.47 L114.88,122.97 "/><path d="M117.03,125.25 L113.09,127.52 L109.71,129.47 "/><path d="M108.82,127.93 L116.23,123.65 "/><path d="M108.82,121.96 L110.97,120.72 L109.71,119.99 L108.90,120.46 L108.82,120.50 L108.82,121.96 "/><path d="M108.82,120.50 L108.87,120.18 L108.94,120.06 L109.08,119.93 L109.26,119.87 L109.40,119.87 L109.71,119.99 "/><path d="M108.82,115.36 L115.66,111.41 "/><path d="M108.82,91.88 L108.90,91.84 "/><path d="M116.77,83.18 L116.98,83.67 L117.03,84.06 L116.62,84.29 L109.71,88.28 L109.40,88.04 L109.08,87.62 "/><path d="M114.88,132.46 L117.03,131.21 L117.03,132.67 L116.14,133.19 L114.88,132.46 "/><path d="M109.71,88.28 L110.97,89.01 L115.51,86.39 L117.03,85.51 L117.03,84.06 "/><path d="M110.97,130.20 L117.03,126.70 "/><path d="M114.88,91.27 L116.14,92.00 L117.03,91.48 L116.98,91.80 L116.83,92.02 L116.65,92.10 "/><path d="M114.88,91.27 L117.03,90.02 L117.03,91.48 "/><path d="M116.65,133.29 L116.83,133.22 L116.98,132.99 L117.03,132.67 "/><path d="M117.03,126.70 L117.03,125.25 L117.11,125.20 "/><path d="M116.88,97.53 L116.85,97.55 "/><path d="M130.34,132.18 L121.49,137.30 "/><path d="M120.59,135.75 L127.44,131.80 "/><path d="M200.00,49.54 L121.49,94.87 "/><path d="M120.59,93.33 L200.00,47.48 "/><path d="M120.59,93.33 L120.59,85.09 L121.49,84.57 "/><path d="M120.86,84.51 L120.95,84.45 "/><path d="M121.49,137.30 L124.52,139.05 L136.11,132.35 "/><path d="M127.19,103.93 L140.75,96.11 "/><path d="M124.61,86.27 L124.52,86.32 L121.49,84.57 "/><path d="M199.99,38.22 L124.52,81.79 L121.84,80.25 "/><path d="M125.41,140.59 L136.11,134.41 "/><path d="M125.41,85.81 L200.00,42.74 "/><path d="M124.70,96.72 L136.11,90.13 "/><path d="M125.15,143.64 L137.73,136.38 "/><path d="M125.41,143.06 L137.36,136.16 "/><path d="M125.41,100.84 L137.54,93.84 "/><path d="M125.41,97.96 L136.11,91.78 "/><path d="M125.15,86.39 L200.00,43.17 "/><path d="M200.00,40.27 L125.41,83.34 "/><path d="M136.13,107.01 L134.33,108.05 "/><path d="M140.93,143.99 L137.00,146.25 "/><path d="M140.48,148.13 L140.61,148.10 L140.73,148.03 L140.87,147.81 L140.93,147.49 L140.04,148.01 "/><path d="M200.00,109.88 L154.48,136.16 "/><path d="M136.13,149.23 L136.20,149.19 "/><path d="M136.13,107.01 L136.11,104.07 L136.16,103.88 L136.24,103.74 L136.32,103.68 L136.47,103.63 L136.65,103.65 L136.83,103.73 L140.93,101.36 "/><path d="M140.99,96.79 L140.93,96.83 "/><path d="M136.11,89.53 L136.20,89.47 "/><path d="M136.13,91.98 L136.20,91.94 "/><path d="M153.67,118.71 L153.59,118.76 "/><path d="M156.78,125.12 L157.07,125.16 L157.25,125.10 L157.35,125.02 L157.43,124.91 "/><path d="M136.70,88.89 L136.56,88.88 L136.37,88.94 L136.23,89.07 L136.17,89.19 L136.11,89.53 "/><path d="M136.13,146.76 L136.20,146.72 "/><path d="M136.37,146.19 L140.93,143.56 "/><path d="M136.34,103.67 L140.93,101.02 "/><path d="M200.00,52.20 L136.37,88.94 "/><path d="M136.83,103.73 L140.04,105.58 L140.93,105.06 L140.87,105.39 L140.77,105.56 L140.67,105.64 L140.55,105.69 L140.34,105.69 L140.04,105.58 "/><path d="M137.01,89.01 L200.00,52.63 "/><path d="M153.33,140.76 L153.40,140.71 L153.27,140.78 L153.08,140.82 L152.85,140.77 L152.70,140.69 "/><path d="M139.68,117.32 L141.46,116.29 "/><path d="M139.68,125.56 L153.23,117.73 "/><path d="M140.04,137.71 L140.07,137.69 "/><path d="M140.93,147.49 L140.93,143.99 "/><path d="M140.93,105.06 L140.93,96.83 "/><path d="M141.46,128.65 L153.59,121.64 "/><path d="M141.46,116.29 L143.96,117.73 L143.98,117.72 "/><path d="M143.96,130.09 L154.66,123.91 "/><path d="M143.96,117.73 L144.20,117.82 L144.32,117.83 L144.46,117.78 L144.61,117.63 L144.65,117.52 L144.67,117.32 L148.78,114.95 "/><path d="M145.38,150.07 L152.71,145.84 "/><path d="M152.70,151.81 L150.55,153.05 "/><path d="M144.70,140.56 L144.87,140.47 L145.08,140.47 L145.38,140.58 L144.50,141.09 "/><path d="M144.50,147.06 L150.55,143.57 "/><path d="M146.64,141.31 L144.50,142.55 "/><path d="M152.76,112.04 L152.70,112.08 L152.70,110.62 L150.55,111.86 "/><path d="M144.50,101.36 L144.49,100.00 L144.52,99.66 L144.60,99.48 L144.70,99.37 L144.81,99.30 L145.01,99.27 L145.30,99.35 L146.64,100.12 "/><path d="M150.55,102.38 L144.50,105.87 "/><path d="M144.50,107.32 L151.81,103.10 L150.55,102.38 "/><path d="M144.50,148.52 L151.81,144.30 L150.55,143.57 "/><path d="M144.67,135.03 L200.00,103.09 "/><path d="M144.67,131.32 L156.09,124.73 "/><path d="M144.88,113.07 L145.03,113.00 L144.93,113.03 "/><path d="M144.50,117.76 L149.07,115.12 "/><path d="M144.67,113.61 L145.55,113.11 "/><path d="M144.50,101.36 L146.64,100.12 "/><path d="M144.50,99.90 L145.38,99.39 "/><path d="M145.38,140.58 L146.64,141.31 "/><path d="M146.64,109.61 L152.70,106.11 L152.70,104.65 L145.38,108.88 "/><path d="M145.57,136.58 L200.00,105.15 "/><path d="M152.78,117.17 L152.70,117.22 L145.58,113.09 L145.55,113.11 "/><path d="M152.70,147.30 L146.64,150.80 "/><path d="M150.55,153.05 L151.81,153.78 L152.12,153.89 L152.32,153.89 L152.50,153.81 L152.65,153.59 L152.70,153.27 L151.81,153.78 "/><path d="M150.55,111.86 L151.81,112.59 L152.12,112.70 L152.26,112.71 L152.39,112.68 L152.54,112.57 L152.65,112.40 L152.70,112.08 L151.81,112.59 "/><path d="M151.81,144.30 L151.83,144.28 "/><path d="M151.81,103.10 L151.83,103.09 "/><path d="M152.70,153.27 L152.70,151.81 "/><path d="M152.70,140.69 L153.59,140.18 L153.59,136.68 L153.64,136.65 "/><path d="M153.40,140.71 L153.43,140.70 "/><path d="M153.93,136.07 L200.00,109.46 "/><path d="M156.62,137.40 L200.00,112.36 "/><path d="M156.62,100.33 L200.00,75.28 "/><path d="M156.99,40.39 L200.00,15.56 "/><path d="M156.99,39.96 L200.00,15.13 "/><path d="M157.25,162.18 L200.00,137.50 "/><path d="M157.52,161.60 L200.00,137.07 "/><path d="M157.52,138.94 L200.00,114.41 "/><path d="M200.00,100.42 L157.25,125.10 "/><path d="M157.52,124.53 L200.00,100.00 "/><path d="M157.52,101.87 L200.00,77.34 "/></g></g><g id="Actor_.2"><g style="stroke:#000000;stroke-width:0.353"><path d="M51.39,137.40 C51.27,137.48 51.27,137.48 51.16,137.57 C51.09,137.64 51.09,137.64 51.01,137.71 C50.89,137.89 50.88,137.89 50.76,138.06 C50.67,138.26 50.67,138.26 50.58,138.46 C50.54,138.70 50.53,138.70 50.50,138.94 "/><path d="M55.31,140.69 C58.88,138.64 58.88,138.64 62.45,136.58 C62.53,136.52 62.53,136.52 62.60,136.47 C62.72,136.37 62.72,136.37 62.83,136.26 C62.98,136.04 62.98,136.04 63.13,135.81 C63.21,135.62 63.21,135.61 63.29,135.41 C63.32,135.22 63.32,135.22 63.34,135.03 "/><path d="M50.50,101.87 C50.53,101.63 50.54,101.63 50.58,101.39 C50.67,101.19 50.67,101.19 50.76,100.99 C50.88,100.82 50.88,100.81 51.01,100.64 C51.20,100.48 51.20,100.48 51.39,100.33 "/><path d="M67.47,105.69 C67.53,105.70 67.53,105.70 67.60,105.70 C67.71,105.68 67.71,105.68 67.82,105.65 C67.90,105.62 67.90,105.62 67.98,105.58 "/><path d="M67.09,105.06 C67.08,101.49 67.08,100.95 67.09,96.83 C67.11,96.63 67.11,96.63 67.14,96.44 C67.19,96.29 67.19,96.29 67.25,96.14 C67.32,96.00 67.32,96.00 67.41,95.85 C67.50,95.72 67.50,95.72 67.60,95.60 C67.71,95.49 67.71,95.49 67.82,95.39 C69.45,94.43 69.46,94.44 71.09,93.48 C71.24,93.36 71.24,93.35 71.39,93.22 C71.52,93.04 71.52,93.04 71.64,92.87 C71.73,92.67 71.73,92.67 71.82,92.47 C71.85,92.37 71.85,92.37 71.87,92.27 C71.89,92.13 71.89,92.13 71.90,91.99 C71.90,90.71 71.91,90.71 71.90,89.43 C71.87,89.28 71.87,89.27 71.82,89.13 "/><path d="M87.42,93.33 C87.41,93.42 87.41,93.42 87.41,93.51 C87.37,93.66 87.37,93.66 87.34,93.81 C87.25,94.01 87.25,94.01 87.16,94.20 C87.04,94.38 87.03,94.38 86.91,94.56 C86.80,94.66 86.80,94.66 86.68,94.76 C86.61,94.82 86.61,94.82 86.53,94.87 "/><path d="M82.60,85.81 C82.62,85.93 82.62,85.93 82.63,86.06 C82.66,86.13 82.66,86.13 82.69,86.19 C82.72,86.25 82.73,86.25 82.77,86.31 C82.82,86.35 82.82,86.35 82.87,86.39 "/><path d="M51.39,162.11 C61.20,156.46 61.21,156.46 71.01,150.79 C71.20,150.64 71.20,150.63 71.39,150.47 C71.55,150.25 71.54,150.25 71.69,150.02 C71.76,149.88 71.76,149.88 71.81,149.74 C71.85,149.58 71.85,149.58 71.89,149.43 C71.90,149.34 71.90,149.33 71.90,149.24 "/><path d="M51.39,125.04 C52.50,124.41 52.51,124.41 53.61,123.76 C53.80,123.59 53.80,123.59 53.98,123.41 C54.10,123.23 54.10,123.23 54.21,123.04 C54.28,122.90 54.28,122.90 54.34,122.74 C54.38,122.55 54.39,122.55 54.42,122.35 C54.43,120.56 54.42,120.56 54.42,118.76 C54.43,118.63 54.43,118.63 54.45,118.49 C54.49,118.33 54.49,118.33 54.54,118.18 C54.61,118.03 54.61,118.03 54.68,117.88 C54.81,117.70 54.81,117.70 54.94,117.53 C55.05,117.42 55.05,117.42 55.16,117.32 C55.24,117.27 55.24,117.27 55.31,117.22 "/><path d="M63.34,131.32 C63.36,131.17 63.36,131.17 63.38,131.02 C63.46,130.82 63.46,130.82 63.55,130.62 C63.67,130.45 63.68,130.45 63.81,130.28 C63.93,130.18 63.93,130.18 64.05,130.09 "/><path d="M55.31,140.69 C55.24,140.73 55.24,140.73 55.16,140.77 C55.05,140.79 55.05,140.79 54.94,140.82 C54.87,140.81 54.87,140.81 54.80,140.80 C54.74,140.78 54.74,140.78 54.68,140.76 C54.63,140.72 54.63,140.72 54.58,140.68 C54.54,140.62 54.54,140.62 54.51,140.57 C54.48,140.50 54.48,140.50 54.45,140.43 C54.44,140.30 54.44,140.30 54.42,140.18 "/><path d="M66.55,128.65 C66.78,128.48 66.79,128.48 67.01,128.31 C67.23,128.09 67.23,128.09 67.44,127.85 C67.63,127.59 67.63,127.59 67.81,127.31 C67.96,127.02 67.96,127.02 68.10,126.72 C68.19,126.43 68.19,126.43 68.27,126.12 C68.31,125.84 68.31,125.84 68.34,125.56 C68.34,121.44 68.34,121.44 68.34,117.32 "/><path d="M66.55,116.29 C65.27,117.03 65.27,117.03 63.99,117.76 C63.90,117.80 63.90,117.79 63.81,117.82 C63.75,117.83 63.75,117.83 63.70,117.83 "/><path d="M63.38,117.58 C63.36,117.45 63.36,117.45 63.34,117.32 C63.33,115.42 63.34,115.42 63.34,113.52 C63.32,113.41 63.32,113.41 63.29,113.29 "/><path d="M62.96,112.99 C62.89,112.98 62.89,112.98 62.83,112.98 C62.72,113.00 62.71,113.00 62.60,113.02 C62.53,113.06 62.53,113.06 62.45,113.10 "/><path d="M57.46,153.05 C57.81,153.01 57.81,153.01 58.15,152.96 C58.33,152.91 58.33,152.91 58.51,152.85 C58.69,152.78 58.69,152.79 58.87,152.71 C59.24,152.52 59.24,152.52 59.60,152.32 C59.97,152.07 59.97,152.06 60.33,151.80 C60.51,151.65 60.51,151.65 60.69,151.49 C61.03,151.15 61.02,151.13 61.37,150.80 C61.99,150.42 62.00,150.44 62.63,150.07 C62.79,149.95 62.79,149.95 62.94,149.83 C63.10,149.62 63.10,149.62 63.26,149.40 C63.34,149.26 63.34,149.26 63.40,149.11 C63.45,148.96 63.45,148.96 63.49,148.81 C63.51,148.67 63.51,148.67 63.52,148.52 C63.53,147.80 63.53,147.79 63.52,147.07 "/><path d="M57.46,143.57 C56.75,143.97 56.75,143.98 56.05,144.40 C55.86,144.58 55.86,144.59 55.69,144.78 C55.55,145.01 55.55,145.01 55.43,145.26 C55.37,145.50 55.36,145.50 55.31,145.75 C55.30,146.52 55.33,146.53 55.31,147.30 C55.20,147.77 55.18,147.77 55.05,148.24 C55.00,148.47 55.00,148.47 54.96,148.70 C54.93,148.96 54.93,148.96 54.90,149.21 C54.88,149.62 54.88,149.62 54.87,150.02 C54.91,150.41 54.91,150.41 54.96,150.81 C55.00,150.99 55.00,150.99 55.05,151.17 C55.18,151.49 55.18,151.49 55.31,151.81 "/><path d="M55.31,104.65 C55.33,104.46 55.33,104.46 55.36,104.27 C55.46,104.02 55.46,104.02 55.57,103.77 C55.73,103.55 55.73,103.55 55.90,103.34 C56.05,103.22 56.05,103.22 56.20,103.10 "/><path d="M63.52,107.33 C63.50,107.52 63.50,107.53 63.47,107.72 C63.37,107.97 63.37,107.97 63.26,108.21 C63.11,108.43 63.10,108.43 62.94,108.64 C62.79,108.76 62.79,108.76 62.63,108.88 "/><path d="M55.31,104.65 C55.33,105.38 55.33,105.38 55.31,106.11 C55.20,106.58 55.18,106.58 55.05,107.05 C55.00,107.28 55.00,107.28 54.96,107.51 C54.91,107.96 54.91,107.96 54.87,108.40 C54.88,108.82 54.88,108.82 54.90,109.23 C54.97,109.61 54.97,109.61 55.05,109.98 C55.17,110.30 55.17,110.30 55.31,110.62 "/><path d="M61.37,109.61 C61.03,109.96 61.03,109.96 60.69,110.30 C60.51,110.46 60.51,110.46 60.33,110.61 C59.97,110.87 59.97,110.87 59.60,111.13 C59.38,111.26 59.38,111.26 59.16,111.38 C58.84,111.52 58.83,111.52 58.51,111.66 C58.33,111.72 58.33,111.72 58.15,111.77 C57.81,111.82 57.81,111.82 57.46,111.86 "/><path d="M56.20,103.10 C56.84,102.76 56.84,102.75 57.46,102.38 C57.81,102.04 57.80,102.03 58.15,101.68 C58.33,101.52 58.33,101.52 58.51,101.37 C58.87,101.11 58.87,101.11 59.23,100.85 C59.60,100.65 59.60,100.65 59.97,100.46 C60.32,100.33 60.32,100.33 60.69,100.22 C61.03,100.16 61.03,100.16 61.37,100.12 "/><path d="M57.46,143.57 C57.80,143.22 57.80,143.22 58.15,142.87 C58.33,142.71 58.33,142.72 58.51,142.56 C58.69,142.42 58.69,142.42 58.87,142.29 C59.23,142.06 59.23,142.05 59.60,141.83 C59.90,141.69 59.90,141.69 60.21,141.56 C60.45,141.48 60.45,141.48 60.69,141.41 C61.03,141.35 61.03,141.35 61.37,141.31 "/><path d="M63.52,142.55 C63.60,142.71 63.60,142.71 63.67,142.86 C63.77,143.21 63.78,143.21 63.87,143.57 C63.92,143.95 63.92,143.96 63.96,144.35 C63.96,144.56 63.96,144.56 63.96,144.77 C63.92,145.22 63.92,145.22 63.87,145.66 C63.83,145.89 63.83,145.89 63.78,146.12 C63.66,146.60 63.66,146.60 63.52,147.07 "/><path d="M63.52,101.36 C63.60,101.52 63.60,101.52 63.67,101.67 C63.74,101.88 63.74,101.88 63.81,102.09 C63.87,102.42 63.87,102.42 63.93,102.75 C63.95,102.95 63.95,102.95 63.96,103.16 C63.95,103.59 63.95,103.59 63.93,104.02 C63.91,104.25 63.90,104.25 63.87,104.47 C63.83,104.70 63.83,104.70 63.78,104.93 C63.66,105.41 63.66,105.41 63.52,105.88 "/><path d="M68.34,117.32 C68.32,117.15 68.32,117.15 68.31,116.98 C68.27,116.83 68.27,116.82 68.23,116.68 C68.15,116.53 68.15,116.53 68.06,116.39 "/><path d="M67.81,116.16 C67.70,116.11 67.69,116.11 67.57,116.07 C67.44,116.06 67.44,116.06 67.31,116.05 C67.16,116.07 67.16,116.07 67.01,116.09 C66.78,116.19 66.78,116.19 66.55,116.29 "/><path d="M67.09,139.27 C67.11,139.07 67.11,139.07 67.14,138.87 C67.24,138.62 67.24,138.62 67.35,138.37 C67.47,138.20 67.47,138.20 67.60,138.02 C67.71,137.92 67.71,137.92 67.82,137.81 C67.90,137.76 67.90,137.76 67.98,137.71 "/><path d="M73.69,108.05 C73.46,108.15 73.46,108.15 73.22,108.25 C73.08,108.27 73.08,108.27 72.93,108.29 C72.80,108.28 72.80,108.28 72.66,108.27 C72.60,108.25 72.60,108.25 72.54,108.23 C72.43,108.17 72.43,108.17 72.32,108.10 C72.23,108.01 72.23,108.01 72.14,107.91 C72.07,107.79 72.07,107.79 72.01,107.66 C71.97,107.51 71.97,107.51 71.93,107.36 C71.91,107.19 71.91,107.19 71.90,107.02 C71.90,105.54 71.90,105.54 71.90,104.07 C71.88,103.97 71.88,103.97 71.86,103.88 "/><path d="M80.82,103.93 C81.05,103.77 81.05,103.77 81.28,103.60 C81.50,103.37 81.50,103.37 81.71,103.14 C81.90,102.87 81.90,102.87 82.08,102.60 C82.23,102.31 82.23,102.31 82.36,102.01 C82.46,101.71 82.46,101.71 82.54,101.41 C82.58,101.13 82.58,101.13 82.60,100.84 "/><path d="M67.98,137.71 C69.62,136.77 69.62,136.77 71.25,135.82 C71.37,135.71 71.37,135.71 71.49,135.60 C71.59,135.47 71.59,135.46 71.69,135.32 C71.77,135.17 71.77,135.16 71.84,135.01 C71.87,134.85 71.87,134.85 71.90,134.69 C71.91,133.21 71.90,133.21 71.90,131.73 C71.91,131.55 71.91,131.55 71.93,131.36 C71.97,131.17 71.97,131.16 72.01,130.97 C72.07,130.77 72.07,130.77 72.14,130.57 C72.23,130.37 72.23,130.37 72.32,130.17 C72.44,129.96 72.44,129.96 72.57,129.75 "/><path d="M83.50,139.05 C83.38,139.13 83.38,139.13 83.27,139.21 C83.19,139.29 83.19,139.29 83.12,139.36 C82.99,139.53 82.99,139.53 82.87,139.71 C82.77,139.91 82.77,139.91 82.69,140.11 C82.66,140.21 82.66,140.21 82.63,140.31 C82.62,140.45 82.62,140.45 82.60,140.59 "/><path d="M83.32,96.72 C83.19,96.81 83.19,96.82 83.07,96.91 C82.94,97.08 82.94,97.08 82.81,97.26 C82.74,97.41 82.74,97.41 82.67,97.57 C82.63,97.76 82.63,97.77 82.60,97.96 "/><path d="M73.15,114.86 C73.18,114.66 73.19,114.66 73.23,114.46 C73.31,114.27 73.31,114.26 73.41,114.07 C73.53,113.89 73.53,113.89 73.66,113.72 C73.81,113.58 73.81,113.58 73.96,113.45 "/><path d="M87.42,135.75 C87.41,135.89 87.41,135.89 87.39,136.04 C87.35,136.19 87.35,136.19 87.30,136.34 C87.23,136.48 87.23,136.48 87.16,136.63 C87.07,136.77 87.07,136.77 86.97,136.90 C86.87,137.02 86.87,137.02 86.76,137.13 C86.65,137.21 86.64,137.21 86.53,137.30 "/><path d="M82.60,83.34 C82.62,83.19 82.62,83.19 82.63,83.05 C82.66,82.95 82.66,82.95 82.69,82.85 C82.77,82.66 82.77,82.65 82.87,82.46 C82.99,82.28 82.99,82.28 83.12,82.11 C83.19,82.03 83.19,82.03 83.27,81.96 C83.38,81.87 83.38,81.87 83.50,81.79 "/><path d="M83.50,143.58 C93.31,137.92 93.31,137.92 103.12,132.25 C103.31,132.10 103.31,132.10 103.49,131.94 C103.62,131.77 103.62,131.76 103.75,131.58 C103.84,131.39 103.84,131.39 103.92,131.19 C103.95,131.09 103.95,131.09 103.98,130.99 C103.99,130.85 104.00,130.85 104.01,130.71 C104.01,119.38 104.01,119.38 104.01,108.05 "/><path d="M87.95,103.93 C87.72,104.10 87.72,104.10 87.49,104.27 C87.27,104.49 87.28,104.49 87.06,104.72 C86.93,104.90 86.93,104.90 86.81,105.08 C86.69,105.29 86.68,105.29 86.57,105.50 "/><path d="M100.08,110.32 C100.10,110.13 100.10,110.13 100.13,109.95 C100.21,109.74 100.21,109.74 100.29,109.53 C100.40,109.35 100.41,109.35 100.52,109.17 C100.63,109.05 100.63,109.05 100.74,108.94 C100.86,108.85 100.86,108.85 100.97,108.77 C102.04,108.15 102.04,108.15 103.12,107.54 "/><path d="M88.48,103.63 C89.47,103.06 89.47,103.06 90.45,102.49 C90.55,102.42 90.55,102.43 90.64,102.36 C90.78,102.20 90.78,102.20 90.91,102.03 C90.99,101.88 90.99,101.88 91.07,101.72 C91.12,101.53 91.12,101.52 91.16,101.33 C91.17,101.29 91.17,101.29 91.17,101.25 "/><path d="M90.55,129.42 C90.56,128.99 90.56,128.99 90.57,128.56 C90.60,128.33 90.60,128.33 90.63,128.11 C90.68,127.87 90.67,127.87 90.72,127.64 C90.85,127.17 90.85,127.17 90.98,126.70 "/><path d="M97.04,130.20 C96.70,130.55 96.70,130.55 96.36,130.90 C96.18,131.05 96.18,131.05 96.00,131.21 C95.82,131.35 95.82,131.35 95.64,131.48 C95.27,131.71 95.27,131.72 94.91,131.94 C94.54,132.10 94.54,132.10 94.18,132.26 C94.00,132.31 94.00,132.31 93.82,132.36 C93.48,132.41 93.48,132.42 93.13,132.46 "/><path d="M93.13,132.46 C92.47,132.85 92.46,132.85 91.80,133.23 C91.68,133.27 91.68,133.27 91.57,133.30 C91.50,133.30 91.50,133.30 91.43,133.30 C91.36,133.29 91.36,133.29 91.30,133.28 C91.24,133.25 91.24,133.25 91.19,133.21 C91.15,133.17 91.14,133.17 91.10,133.12 "/><path d="M91.10,133.12 C91.05,133.02 91.05,133.02 91.01,132.92 C90.99,132.80 90.99,132.79 90.98,132.67 C90.98,131.94 90.98,131.94 90.98,131.21 "/><path d="M90.98,131.21 C90.85,130.90 90.85,130.89 90.72,130.57 C90.67,130.39 90.67,130.39 90.63,130.21 C90.59,129.82 90.59,129.82 90.55,129.42 "/><path d="M91.24,83.18 C91.17,83.32 91.17,83.33 91.10,83.48 C91.04,83.67 91.04,83.67 91.00,83.87 C90.98,84.69 91.00,84.69 90.98,85.51 C90.87,85.98 90.85,85.98 90.72,86.45 C90.64,86.91 90.64,86.91 90.57,87.37 C90.55,87.80 90.55,87.80 90.54,88.23 C90.58,88.63 90.59,88.63 90.63,89.02 C90.67,89.20 90.67,89.20 90.72,89.38 C90.85,89.70 90.85,89.70 90.98,90.02 "/><path d="M90.98,126.70 C90.98,125.97 90.98,125.97 90.98,125.25 C91.00,125.05 91.01,125.05 91.04,124.86 C91.09,124.71 91.09,124.71 91.14,124.56 C91.22,124.42 91.22,124.42 91.30,124.27 C91.43,124.10 91.43,124.10 91.57,123.94 C91.72,123.82 91.72,123.82 91.87,123.70 "/><path d="M98.30,129.47 C98.46,129.36 98.46,129.36 98.61,129.23 C98.78,129.03 98.78,129.02 98.94,128.81 C99.01,128.66 99.01,128.66 99.08,128.51 C99.12,128.36 99.12,128.36 99.17,128.21 C99.18,128.07 99.18,128.07 99.20,127.93 C99.20,127.20 99.20,127.20 99.20,126.47 "/><path d="M97.04,89.01 C96.70,89.36 96.70,89.36 96.36,89.71 C96.18,89.86 96.18,89.86 96.00,90.02 C95.82,90.15 95.82,90.16 95.64,90.29 C95.27,90.52 95.27,90.53 94.91,90.75 C94.54,90.91 94.54,90.91 94.18,91.07 C94.00,91.12 94.00,91.12 93.82,91.17 C93.48,91.22 93.48,91.22 93.13,91.27 "/><path d="M100.08,113.82 C100.06,114.01 100.06,114.01 100.03,114.20 C99.96,114.40 99.96,114.40 99.87,114.60 C99.76,114.79 99.76,114.79 99.64,114.97 C99.46,115.14 99.46,115.15 99.27,115.31 C96.06,117.18 96.06,117.18 92.84,119.03 "/><path d="M91.17,101.25 C91.17,99.32 91.17,99.31 91.18,97.36 C91.21,97.21 91.21,97.21 91.25,97.06 C91.33,96.87 91.33,96.86 91.43,96.67 C91.55,96.49 91.55,96.49 91.68,96.32 C91.79,96.21 91.79,96.21 91.90,96.11 C91.98,96.05 91.98,96.05 92.06,96.00 "/><path d="M92.06,96.00 C95.62,93.94 95.62,93.94 99.19,91.88 C99.27,91.85 99.27,91.84 99.35,91.81 C99.46,91.78 99.46,91.78 99.57,91.76 "/><path d="M93.13,122.97 C93.47,122.62 93.47,122.62 93.82,122.28 C94.18,121.98 94.18,121.98 94.54,121.69 C94.72,121.57 94.72,121.57 94.91,121.45 C95.27,121.25 95.27,121.25 95.64,121.06 C96.00,120.93 96.00,120.93 96.36,120.81 C96.70,120.76 96.70,120.76 97.04,120.72 "/><path d="M99.20,121.96 C99.27,122.11 99.27,122.11 99.34,122.27 C99.45,122.61 99.45,122.61 99.54,122.96 C99.60,123.35 99.59,123.36 99.63,123.75 C99.64,123.96 99.64,123.96 99.63,124.17 C99.59,124.62 99.59,124.62 99.55,125.07 C99.50,125.30 99.50,125.30 99.46,125.53 C99.33,126.00 99.33,126.00 99.20,126.47 "/><path d="M98.30,119.99 C98.38,119.95 98.38,119.95 98.46,119.91 C98.57,119.89 98.57,119.89 98.68,119.87 C98.75,119.87 98.75,119.87 98.82,119.88 "/><path d="M100.52,96.53 C100.60,96.53 100.60,96.53 100.67,96.53 C100.75,96.51 100.75,96.51 100.82,96.49 C100.93,96.43 100.93,96.43 101.05,96.37 C102.12,95.75 102.12,95.76 103.19,95.13 C103.35,95.00 103.35,95.00 103.49,94.87 C103.62,94.69 103.62,94.69 103.75,94.51 C103.84,94.32 103.84,94.32 103.92,94.12 C103.97,93.92 103.97,93.92 104.00,93.73 C104.01,91.99 104.01,91.99 104.01,90.24 "/><path d="M0.00,132.44 L50.50,161.60 L50.53,161.85 L50.58,161.99 L50.76,162.18 L0.00,132.87 "/><path d="M0.00,107.73 L51.39,137.40 "/><path d="M50.50,138.94 L0.00,109.79 "/><path d="M0.00,105.26 L53.53,136.16 L51.39,137.40 "/><path d="M0.00,104.83 L54.16,136.10 L54.34,136.29 L54.42,136.59 L54.42,140.18 L55.31,140.69 "/><path d="M63.34,135.03 L0.00,98.46 "/><path d="M62.45,136.58 L0.01,100.52 "/><path d="M0.00,95.80 L50.76,125.10 L50.58,124.91 L50.53,124.78 L50.50,124.53 L0.00,95.37 "/><path d="M0.00,72.72 L50.50,101.87 "/><path d="M51.39,100.33 L0.00,70.66 "/><path d="M51.39,100.33 L71.00,89.01 L0.00,48.00 "/><path d="M67.02,105.02 L67.09,105.06 L67.14,105.39 L67.29,105.61 L67.47,105.69 "/><path d="M67.98,105.58 L67.09,105.06 "/><path d="M71.82,89.13 L71.69,88.97 L0.00,47.58 "/><path d="M0.00,42.85 L87.42,93.33 "/><path d="M86.53,94.87 L0.00,44.91 "/><path d="M83.42,86.28 L83.50,86.32 L83.19,86.44 L83.05,86.44 L82.87,86.39 L0.00,38.54 "/><path d="M0.00,38.12 L82.60,85.81 L82.60,83.34 L0.00,35.65 "/><path d="M0.00,33.59 L83.50,81.79 L86.17,80.25 "/><path d="M0.00,10.93 L51.02,40.39 "/><path d="M51.02,39.96 L0.00,10.50 "/><path d="M50.76,162.18 L51.01,162.23 L51.16,162.21 L51.39,162.11 "/><path d="M71.90,149.24 L71.82,149.20 "/><path d="M50.50,161.60 L50.50,138.94 "/><path d="M50.76,125.10 L50.94,125.16 L51.09,125.16 L51.39,125.04 L51.31,125.00 "/><path d="M50.50,124.53 L50.50,101.87 "/><path d="M51.31,162.07 L51.39,162.11 "/><path d="M55.31,117.22 L55.24,117.17 "/><path d="M51.93,124.73 L63.34,131.32 L63.34,135.03 "/><path d="M64.05,130.09 L53.35,123.91 "/><path d="M53.53,136.16 L53.76,136.07 L53.91,136.04 L54.16,136.10 "/><path d="M54.37,136.65 L54.42,136.68 "/><path d="M54.42,121.64 L66.55,128.65 "/><path d="M68.34,117.32 L66.55,116.29 "/><path d="M63.70,117.83 L63.51,117.75 L63.38,117.58 "/><path d="M63.29,113.29 L63.13,113.07 L62.96,112.99 "/><path d="M62.45,113.10 L55.31,117.22 "/><path d="M63.52,147.07 L57.46,143.57 "/><path d="M55.31,151.81 L55.31,153.35 L55.36,153.59 L55.50,153.80 L55.63,153.87 L55.76,153.90 L56.05,153.85 L57.46,153.05 L55.31,151.81 "/><path d="M54.68,140.76 L54.58,140.70 "/><path d="M68.34,125.56 L54.78,117.73 "/><path d="M56.20,103.10 L63.52,107.33 "/><path d="M62.63,108.88 L55.31,104.65 "/><path d="M55.31,110.62 L57.46,111.86 L56.05,112.66 L55.76,112.71 L55.57,112.65 L55.50,112.61 L55.43,112.52 L55.32,112.25 L55.31,110.62 "/><path d="M55.31,153.27 L56.20,153.78 "/><path d="M55.31,147.30 L61.37,150.80 "/><path d="M62.63,150.07 L55.31,145.84 "/><path d="M55.25,112.04 L56.20,112.59 "/><path d="M55.31,106.11 L61.37,109.61 "/><path d="M55.57,153.84 L55.50,153.80 "/><path d="M55.57,112.65 L55.50,112.61 "/><path d="M56.20,144.30 L63.52,148.52 "/><path d="M61.37,100.12 L63.52,101.36 L63.52,99.82 L63.44,99.52 L63.36,99.41 L63.26,99.33 L63.08,99.27 L62.79,99.32 L61.37,100.12 "/><path d="M61.37,141.31 L61.46,141.36 L63.52,142.55 "/><path d="M63.52,105.88 L57.46,102.38 "/><path d="M63.55,117.78 L58.94,115.12 "/><path d="M63.34,117.32 L59.24,114.95 "/><path d="M61.37,141.31 L62.63,140.58 L63.52,141.10 L63.47,140.78 L63.40,140.65 L63.26,140.52 L63.08,140.46 L62.94,140.47 L62.63,140.58 "/><path d="M61.37,109.61 L62.63,108.88 "/><path d="M63.34,113.61 L62.45,113.10 "/><path d="M63.52,99.91 L62.63,99.39 "/><path d="M63.52,141.10 L63.52,142.55 "/><path d="M63.52,107.33 L63.52,105.88 "/><path d="M66.55,128.65 L64.05,130.09 "/><path d="M68.06,116.39 L67.81,116.16 "/><path d="M66.55,116.29 L66.49,116.26 "/><path d="M67.09,143.56 L71.64,146.19 L71.39,146.13 L71.09,146.21 L67.98,148.01 L67.02,147.45 "/><path d="M71.01,146.25 L67.09,143.99 L67.09,147.49 L67.12,147.74 L67.25,147.99 L67.41,148.10 L67.67,148.12 L67.98,148.01 "/><path d="M67.09,143.99 L67.09,139.27 L67.02,139.21 "/><path d="M67.98,137.71 L67.96,137.70 "/><path d="M67.98,105.58 L71.19,103.73 L67.09,101.36 "/><path d="M71.90,107.02 L73.69,108.05 "/><path d="M71.86,103.88 L71.77,103.74 L67.09,101.02 "/><path d="M67.02,96.79 L67.09,96.83 "/><path d="M67.27,96.11 L80.82,103.93 "/><path d="M82.60,100.84 L70.48,93.84 "/><path d="M67.90,95.24 L67.97,95.29 "/><path d="M83.42,143.53 L83.50,143.58 L83.19,143.69 L83.05,143.70 L82.87,143.64 L82.72,143.51 L82.66,143.38 L82.60,143.06 L70.65,136.16 "/><path d="M82.87,143.64 L70.28,136.38 "/><path d="M71.19,103.73 L71.43,103.63 L71.55,103.63 L71.67,103.67 "/><path d="M71.00,89.01 L71.32,88.89 L71.46,88.88 L71.64,88.94 "/><path d="M71.64,146.19 L71.82,146.38 L71.90,146.68 L71.90,149.24 "/><path d="M71.82,146.72 L71.90,146.77 "/><path d="M71.90,132.35 L83.50,139.05 "/><path d="M82.60,140.59 L71.90,134.41 "/><path d="M71.90,90.13 L83.32,96.72 "/><path d="M82.60,97.96 L71.90,91.78 "/><path d="M71.82,91.94 L71.90,91.99 "/><path d="M71.90,89.53 L71.82,89.46 "/><path d="M73.69,108.05 L80.82,103.93 "/><path d="M80.57,131.80 L87.42,135.75 "/><path d="M86.53,137.30 L77.67,132.18 "/><path d="M82.60,143.06 L82.60,140.59 "/><path d="M82.60,97.96 L82.60,100.84 "/><path d="M104.01,108.05 L103.92,108.00 "/><path d="M83.50,139.05 L86.53,137.30 "/><path d="M83.32,96.72 L86.53,94.87 "/><path d="M83.50,86.32 L86.61,84.53 L86.83,84.46 L87.04,84.46 L87.21,84.55 L87.34,84.70 L87.41,84.92 L87.42,85.09 L87.42,93.33 "/><path d="M87.87,103.89 L87.95,103.93 "/><path d="M87.42,85.09 L86.53,84.57 "/><path d="M87.42,135.75 L87.42,128.41 "/><path d="M87.16,84.51 L87.06,84.45 "/><path d="M87.95,103.93 L88.48,103.63 L88.56,103.67 L100.08,110.32 "/><path d="M103.12,107.54 L91.17,100.64 "/><path d="M91.17,101.25 L91.10,101.22 "/><path d="M90.98,126.70 L97.04,130.20 "/><path d="M90.27,102.59 L100.97,108.77 "/><path d="M90.98,90.02 L93.13,91.27 L91.87,92.00 L90.98,91.48 L91.04,91.80 L91.10,91.93 L91.24,92.06 L91.43,92.11 L91.57,92.11 L91.87,92.00 "/><path d="M91.87,133.19 L90.98,132.67 "/><path d="M90.98,131.21 L93.13,132.46 "/><path d="M91.87,123.70 L91.80,123.66 "/><path d="M90.98,125.25 L98.30,129.47 "/><path d="M99.20,126.47 L93.13,122.97 L91.87,123.70 L99.20,127.93 "/><path d="M90.98,91.48 L90.98,90.02 "/><path d="M90.98,85.51 L97.04,89.01 "/><path d="M90.98,84.06 L98.30,88.28 L98.61,88.04 L98.94,87.62 "/><path d="M91.23,108.70 L100.08,113.82 "/><path d="M92.06,96.00 L91.98,95.96 "/><path d="M103.12,107.54 L103.42,107.42 L103.66,107.44 L91.17,100.21 "/><path d="M91.10,97.51 L91.17,97.55 "/><path d="M99.57,91.76 L99.76,91.79 L99.92,91.90 L100.03,92.08 L100.08,92.31 L100.08,95.90 L96.16,93.63 "/><path d="M99.19,115.36 L92.35,111.41 "/><path d="M97.04,120.72 L98.95,121.82 L99.20,121.96 "/><path d="M95.79,93.85 L100.34,96.48 L100.17,96.29 L100.11,96.15 L100.08,95.90 "/><path d="M97.04,130.20 L98.30,129.47 "/><path d="M97.04,120.72 L98.30,119.99 L98.43,120.06 L99.20,120.50 L99.20,121.96 "/><path d="M97.04,89.01 L98.30,88.28 "/><path d="M98.82,119.88 L98.95,119.94 L99.08,120.06 L99.14,120.18 L99.20,120.50 "/><path d="M99.19,91.88 L100.08,92.40 "/><path d="M100.08,113.82 L100.08,110.32 "/><path d="M100.34,96.48 L100.52,96.53 "/><path d="M103.66,107.44 L103.75,107.47 L103.66,107.44 "/><path d="M104.01,108.05 L103.98,107.80 L103.92,107.66 L103.75,107.47 "/></g></g><g id="Actor_.3"><g style="stroke:#000000;stroke-width:0.353"><path d="M114.93,115.79 C114.92,116.20 114.92,116.20 114.93,116.60 C114.95,117.00 114.96,117.00 114.99,117.40 C115.02,117.80 115.01,117.80 115.05,118.20 C115.11,118.60 115.11,118.60 115.17,119.00 C115.18,119.03 115.18,119.03 115.18,119.06 C115.28,119.48 115.27,119.48 115.37,119.89 C115.47,120.28 115.46,120.28 115.57,120.68 C115.70,121.12 115.70,121.12 115.84,121.56 C116.03,122.05 116.03,122.05 116.23,122.53 C116.43,122.95 116.43,122.95 116.63,123.36 C116.83,123.75 116.83,123.75 117.03,124.13 C117.31,124.59 117.31,124.59 117.59,125.05 C117.90,125.49 117.90,125.49 118.22,125.93 C118.56,126.35 118.56,126.35 118.91,126.77 C119.36,127.24 119.36,127.24 119.81,127.70 C120.11,127.98 120.11,127.98 120.42,128.25 C120.48,128.31 120.48,128.31 120.55,128.37 C120.67,128.47 120.67,128.47 120.79,128.57 C121.21,128.89 121.21,128.89 121.62,129.21 "/><path d="M114.93,115.79 C114.98,114.99 114.98,114.99 115.05,114.19 C115.10,113.79 115.10,113.79 115.17,113.40 C115.33,112.65 115.33,112.65 115.50,111.91 C115.61,111.57 115.61,111.57 115.72,111.23 C115.86,110.84 115.86,110.84 116.00,110.45 C116.11,110.15 116.11,110.15 116.23,109.86 C116.48,109.32 116.48,109.32 116.74,108.78 C116.94,108.45 116.94,108.44 117.15,108.11 C117.38,107.81 117.39,107.82 117.63,107.52 C117.71,107.44 117.71,107.44 117.80,107.36 C117.98,107.19 117.98,107.19 118.17,107.02 C118.46,106.81 118.46,106.81 118.77,106.61 C119.09,106.45 119.09,106.45 119.42,106.30 C119.77,106.18 119.77,106.18 120.12,106.08 C120.50,106.02 120.50,106.02 120.87,105.96 C121.26,105.95 121.26,105.95 121.66,105.94 C122.07,105.98 122.07,105.98 122.48,106.03 C122.90,106.11 122.90,106.11 123.32,106.21 C123.76,106.34 123.76,106.34 124.19,106.48 C124.63,106.67 124.63,106.67 125.07,106.86 C125.51,107.09 125.51,107.09 125.95,107.32 C126.40,107.60 126.40,107.60 126.84,107.88 C127.30,108.21 127.30,108.21 127.75,108.55 C128.17,108.89 128.17,108.89 128.59,109.24 C129.01,109.64 129.01,109.64 129.43,110.04 C129.84,110.47 129.84,110.47 130.25,110.91 C130.65,111.37 130.65,111.37 131.04,111.83 C131.41,112.32 131.42,112.32 131.79,112.81 C132.14,113.33 132.14,113.33 132.49,113.84 C132.82,114.38 132.82,114.38 133.14,114.91 C133.45,115.46 133.45,115.46 133.74,116.01 C134.02,116.58 134.02,116.58 134.28,117.14 C134.52,117.71 134.52,117.71 134.76,118.28 C134.97,118.85 134.97,118.85 135.17,119.42 C135.34,119.99 135.34,119.99 135.51,120.56 C135.64,121.13 135.64,121.13 135.77,121.70 C135.87,122.25 135.87,122.25 135.97,122.81 C136.03,123.35 136.03,123.35 136.08,123.89 C136.11,124.41 136.11,124.41 136.12,124.93 C136.11,125.43 136.11,125.43 136.08,125.94 C136.03,126.41 136.03,126.41 135.97,126.88 C135.87,127.33 135.87,127.33 135.77,127.77 C135.65,128.19 135.65,128.19 135.51,128.60 C135.34,128.97 135.34,128.97 135.17,129.35 C135.13,129.42 135.12,129.42 135.08,129.49 C134.92,129.75 134.92,129.76 134.76,130.02 C134.52,130.31 134.52,130.31 134.28,130.61 C134.02,130.86 134.02,130.86 133.74,131.11 C133.45,131.32 133.45,131.32 133.14,131.52 C132.82,131.68 132.82,131.68 132.49,131.83 C132.14,131.94 132.14,131.94 131.79,132.05 C131.41,132.11 131.41,132.11 131.04,132.17 C130.65,132.18 130.64,132.18 130.25,132.18 C130.07,132.18 130.07,132.18 129.89,132.16 C129.21,132.09 129.21,132.09 128.53,132.02 C128.21,131.96 128.21,131.96 127.89,131.90 C127.56,131.83 127.56,131.83 127.23,131.75 C126.92,131.68 126.92,131.68 126.61,131.61 C126.02,131.42 126.01,131.42 125.42,131.22 C124.74,130.94 124.74,130.94 124.07,130.66 C123.43,130.32 123.43,130.32 122.80,129.98 C122.21,129.61 122.21,129.60 121.63,129.22 "/><path d="M115.68,119.98 C115.72,120.28 115.73,120.28 115.78,120.57 C115.85,120.87 115.85,120.87 115.92,121.16 C116.01,121.46 116.01,121.46 116.10,121.76 C116.21,122.07 116.21,122.07 116.32,122.37 C116.44,122.67 116.44,122.67 116.57,122.97 C116.71,123.26 116.71,123.26 116.85,123.56 C117.01,123.85 117.01,123.85 117.17,124.14 C117.34,124.42 117.34,124.42 117.51,124.70 C117.70,124.97 117.70,124.97 117.88,125.24 C118.08,125.50 118.08,125.50 118.28,125.76 C118.48,126.00 118.48,126.00 118.69,126.25 C118.90,126.48 118.90,126.48 119.12,126.70 C119.34,126.91 119.34,126.91 119.57,127.12 C119.79,127.31 119.79,127.31 120.02,127.50 C120.25,127.67 120.25,127.67 120.48,127.84 C120.72,127.99 120.72,127.99 120.95,128.13 C121.18,128.26 121.18,128.26 121.42,128.38 C121.65,128.48 121.65,128.48 121.88,128.57 C122.11,128.65 122.11,128.65 122.34,128.72 C122.51,128.76 122.51,128.76 122.69,128.80 C122.74,128.81 122.74,128.81 122.78,128.82 C123.00,128.84 123.00,128.84 123.21,128.86 C123.42,128.86 123.42,128.86 123.63,128.85 C123.82,128.82 123.82,128.82 124.02,128.79 C124.21,128.73 124.21,128.73 124.39,128.67 C124.56,128.59 124.56,128.59 124.73,128.51 C124.89,128.40 124.89,128.40 125.05,128.29 C125.19,128.16 125.19,128.16 125.33,128.03 C125.46,127.87 125.46,127.87 125.59,127.72 C125.70,127.54 125.70,127.54 125.80,127.36 C125.89,127.17 125.89,127.17 125.98,126.97 C126.05,126.75 126.05,126.75 126.12,126.54 C126.17,126.30 126.17,126.30 126.22,126.07 C126.25,125.82 126.25,125.82 126.28,125.57 C126.29,125.31 126.29,125.31 126.30,125.04 C126.29,124.77 126.29,124.77 126.28,124.49 C126.25,124.21 126.25,124.21 126.22,123.92 C126.20,123.80 126.20,123.80 126.18,123.68 C126.15,123.51 126.15,123.51 126.12,123.34 C126.05,123.04 126.05,123.04 125.98,122.74 C125.89,122.44 125.89,122.44 125.80,122.14 C125.69,121.84 125.69,121.84 125.59,121.54 C125.46,121.24 125.46,121.24 125.34,120.94 C125.19,120.64 125.19,120.64 125.05,120.35 C124.89,120.06 124.89,120.06 124.73,119.77 C124.56,119.49 124.56,119.49 124.39,119.21 C124.27,119.03 124.27,119.03 124.15,118.85 C124.08,118.76 124.08,118.76 124.02,118.66 C123.82,118.40 123.82,118.40 123.63,118.15 C123.42,117.90 123.42,117.90 123.21,117.66 C123.00,117.43 123.00,117.43 122.78,117.20 C122.65,117.08 122.65,117.08 122.51,116.95 C122.43,116.87 122.43,116.87 122.34,116.78 C122.11,116.59 122.11,116.59 121.88,116.40 C121.65,116.23 121.65,116.23 121.42,116.07 C121.19,115.92 121.19,115.92 120.95,115.77 C120.72,115.65 120.72,115.65 120.49,115.53 C120.25,115.43 120.25,115.43 120.02,115.33 C119.80,115.26 119.79,115.26 119.57,115.18 C119.34,115.14 119.34,115.14 119.12,115.09 C118.91,115.07 118.91,115.07 118.69,115.05 C118.48,115.05 118.48,115.05 118.28,115.06 C118.08,115.09 118.08,115.09 117.88,115.12 C117.78,115.15 117.78,115.15 117.68,115.18 C117.59,115.21 117.59,115.21 117.51,115.23 C117.34,115.31 117.34,115.31 117.17,115.40 C117.01,115.50 117.01,115.50 116.85,115.61 C116.71,115.74 116.71,115.74 116.57,115.88 C116.44,116.03 116.44,116.03 116.32,116.19 C116.21,116.36 116.21,116.36 116.10,116.54 C116.01,116.74 116.01,116.74 115.92,116.94 C115.85,117.15 115.85,117.15 115.78,117.37 C115.73,117.58 115.73,117.59 115.69,117.80 C115.65,118.07 115.65,118.07 115.62,118.34 C115.61,118.60 115.61,118.60 115.60,118.86 C115.61,119.14 115.61,119.14 115.62,119.41 C115.65,119.70 115.64,119.70 115.68,119.98 "/><path d="M117.22,121.81 C117.30,122.04 117.30,122.04 117.38,122.27 C117.48,122.50 117.48,122.50 117.58,122.73 C117.69,122.96 117.69,122.96 117.80,123.19 C117.92,123.41 117.92,123.41 118.04,123.63 C118.17,123.85 118.17,123.85 118.30,124.07 C118.45,124.28 118.45,124.28 118.59,124.49 C118.74,124.68 118.74,124.68 118.89,124.88 C119.00,125.01 119.00,125.01 119.10,125.13 C119.16,125.19 119.16,125.20 119.21,125.26 C119.38,125.43 119.38,125.43 119.54,125.61 C119.71,125.77 119.71,125.77 119.89,125.93 C120.06,126.08 120.06,126.08 120.24,126.22 C120.41,126.35 120.41,126.35 120.59,126.48 C120.77,126.60 120.77,126.60 120.95,126.71 C121.13,126.80 121.13,126.80 121.31,126.90 C121.49,126.98 121.49,126.98 121.67,127.05 C121.84,127.11 121.84,127.11 122.02,127.16 C122.16,127.20 122.16,127.19 122.31,127.23 C122.34,127.23 122.34,127.23 122.36,127.24 C122.53,127.25 122.53,127.25 122.69,127.27 C122.85,127.27 122.85,127.27 123.01,127.26 "/><path d="M123.01,127.26 C122.87,127.05 122.87,127.05 122.73,126.84 C122.66,126.74 122.66,126.74 122.58,126.65 C122.51,126.56 122.51,126.56 122.43,126.47 C122.35,126.39 122.35,126.39 122.26,126.31 C122.18,126.23 122.18,126.23 122.09,126.16 C122.00,126.09 122.00,126.09 121.90,126.01 C121.81,125.95 121.81,125.95 121.71,125.88 C121.61,125.82 121.61,125.82 121.50,125.75 C121.39,125.69 121.39,125.69 121.28,125.63 C121.17,125.58 121.17,125.58 121.05,125.52 C121.00,125.50 121.00,125.50 120.94,125.48 C120.87,125.45 120.87,125.45 120.80,125.42 C120.67,125.36 120.67,125.36 120.54,125.32 C120.40,125.27 120.40,125.27 120.26,125.22 C120.10,125.17 120.10,125.17 119.95,125.13 C119.79,125.09 119.79,125.08 119.63,125.04 C119.26,124.96 119.26,124.96 118.89,124.88 "/><path d="M118.89,124.88 C118.88,124.49 118.88,124.49 118.87,124.10 C118.85,123.92 118.85,123.92 118.84,123.74 C118.82,123.57 118.82,123.57 118.80,123.40 C118.77,123.24 118.77,123.24 118.74,123.08 C118.71,122.93 118.71,122.93 118.68,122.77 C118.64,122.62 118.64,122.62 118.60,122.47 C118.56,122.33 118.56,122.33 118.51,122.19 C118.46,122.05 118.46,122.05 118.41,121.91 C118.36,121.77 118.36,121.77 118.30,121.64 C118.24,121.51 118.24,121.51 118.18,121.38 C118.11,121.25 118.11,121.24 118.04,121.12 C117.96,120.99 117.96,120.99 117.88,120.86 C117.80,120.73 117.80,120.73 117.71,120.60 C117.62,120.48 117.62,120.48 117.52,120.35 C117.42,120.22 117.42,120.22 117.31,120.09 C117.07,119.83 117.07,119.83 116.83,119.57 "/><path d="M116.83,119.57 C116.84,119.79 116.84,119.79 116.85,120.00 C116.87,120.22 116.87,120.22 116.89,120.44 C116.93,120.66 116.93,120.66 116.97,120.89 C117.03,121.12 117.03,121.12 117.08,121.34 C117.15,121.58 117.15,121.58 117.22,121.81 "/><path d="M125.07,124.33 C125.06,124.44 125.06,124.44 125.05,124.56 C125.03,124.62 125.03,124.62 125.02,124.68 C125.00,124.74 125.00,124.74 124.97,124.80 C124.95,124.86 124.95,124.86 124.92,124.92 C124.87,125.03 124.87,125.03 124.81,125.13 C124.75,125.23 124.75,125.23 124.69,125.33 C124.64,125.40 124.64,125.40 124.59,125.48 C124.47,125.64 124.47,125.64 124.35,125.80 C124.21,125.97 124.21,125.97 124.06,126.15 C123.97,126.25 123.97,126.25 123.89,126.34 C123.69,126.56 123.69,126.56 123.49,126.77 C123.25,127.02 123.25,127.02 123.01,127.26 "/><path d="M123.01,127.26 C123.16,127.24 123.16,127.24 123.31,127.21 C123.46,127.17 123.46,127.17 123.60,127.12 C123.73,127.06 123.73,127.06 123.86,127.00 C123.99,126.92 123.99,126.92 124.11,126.83 C124.22,126.73 124.22,126.73 124.33,126.63 C124.42,126.51 124.42,126.51 124.52,126.39 C124.60,126.26 124.60,126.25 124.68,126.12 C124.75,125.97 124.75,125.97 124.82,125.81 C124.88,125.65 124.88,125.65 124.93,125.48 C124.97,125.30 124.97,125.30 125.01,125.12 C125.03,124.93 125.03,124.93 125.05,124.74 C125.06,124.67 125.06,124.67 125.06,124.61 C125.06,124.47 125.07,124.47 125.07,124.33 C125.06,124.12 125.06,124.12 125.05,123.91 C125.03,123.69 125.03,123.69 125.01,123.47 C124.97,123.24 124.97,123.24 124.93,123.02 C124.88,122.79 124.88,122.79 124.82,122.56 C124.75,122.33 124.75,122.33 124.68,122.10 C124.60,121.87 124.60,121.87 124.52,121.63 C124.42,121.40 124.42,121.40 124.33,121.17 C124.22,120.94 124.22,120.94 124.11,120.72 C123.99,120.49 123.99,120.49 123.86,120.27 C123.73,120.05 123.73,120.05 123.60,119.84 C123.46,119.63 123.46,119.63 123.31,119.42 C123.16,119.22 123.16,119.22 123.01,119.02 C122.85,118.83 122.85,118.83 122.69,118.65 C122.53,118.47 122.53,118.47 122.36,118.30 C122.19,118.13 122.19,118.13 122.02,117.97 C121.84,117.83 121.84,117.83 121.67,117.68 C121.49,117.55 121.49,117.55 121.31,117.42 C121.13,117.31 121.13,117.31 120.95,117.20 C120.77,117.10 120.77,117.10 120.59,117.01 C120.41,116.93 120.41,116.93 120.24,116.86 C120.06,116.80 120.06,116.80 119.89,116.74 C119.71,116.70 119.71,116.70 119.54,116.67 C119.38,116.65 119.38,116.65 119.21,116.64 C119.05,116.64 119.05,116.64 118.89,116.64 C118.74,116.67 118.74,116.67 118.59,116.69 C118.45,116.73 118.45,116.73 118.30,116.78 C118.17,116.84 118.17,116.84 118.04,116.91 C117.92,116.99 117.92,116.99 117.80,117.07 C117.69,117.17 117.68,117.17 117.58,117.28 C117.48,117.39 117.48,117.40 117.38,117.52 C117.33,117.60 117.33,117.60 117.28,117.69 C117.25,117.74 117.25,117.74 117.22,117.79 C117.15,117.94 117.15,117.94 117.08,118.09 C117.02,118.26 117.02,118.26 116.97,118.42 C116.93,118.60 116.93,118.60 116.89,118.78 C116.87,118.98 116.87,118.98 116.85,119.17 C116.84,119.37 116.84,119.37 116.83,119.57 "/><path d="M116.83,119.57 C117.07,119.33 117.07,119.33 117.31,119.08 C117.51,118.87 117.51,118.87 117.71,118.66 C117.87,118.47 117.87,118.47 118.04,118.28 C118.17,118.11 118.17,118.11 118.30,117.95 C118.36,117.87 118.36,117.87 118.41,117.79 C118.46,117.72 118.46,117.72 118.51,117.64 C118.60,117.51 118.60,117.51 118.68,117.37 C118.71,117.30 118.71,117.30 118.74,117.24 C118.77,117.17 118.77,117.17 118.80,117.11 C118.82,117.05 118.82,117.05 118.84,116.99 C118.85,116.93 118.85,116.93 118.87,116.87 C118.88,116.76 118.88,116.76 118.89,116.64 "/><path d="M118.89,116.64 C119.26,116.72 119.26,116.72 119.63,116.80 C119.79,116.85 119.79,116.85 119.95,116.89 C120.10,116.94 120.10,116.94 120.26,116.98 C120.40,117.03 120.40,117.03 120.54,117.08 C120.67,117.13 120.67,117.13 120.80,117.18 C120.93,117.23 120.93,117.23 121.05,117.28 C121.13,117.32 121.13,117.32 121.22,117.36 "/><path d="M118.77,106.61 C119.21,106.36 119.21,106.35 119.65,106.10 C119.97,105.94 119.97,105.94 120.30,105.79 C120.65,105.68 120.65,105.68 121.01,105.57 C121.38,105.51 121.38,105.51 121.75,105.45 C122.15,105.44 122.15,105.44 122.54,105.43 C122.95,105.47 122.95,105.47 123.36,105.52 C123.78,105.60 123.78,105.60 124.21,105.70 C124.64,105.83 124.64,105.83 125.07,105.97 C125.51,106.16 125.51,106.16 125.95,106.35 C126.40,106.58 126.40,106.58 126.84,106.82 C127.28,107.09 127.28,107.09 127.72,107.37 C128.17,107.69 128.17,107.69 128.60,108.01 C129.04,108.37 129.04,108.37 129.47,108.73 C129.89,109.13 129.89,109.13 130.31,109.53 C130.73,109.96 130.73,109.96 131.13,110.40 C131.53,110.86 131.53,110.86 131.92,111.32 C132.00,111.42 131.99,111.42 132.07,111.52 C132.37,111.91 132.37,111.91 132.67,112.31 C133.02,112.82 133.02,112.82 133.37,113.33 C133.70,113.87 133.70,113.87 134.03,114.40 C134.33,114.95 134.33,114.95 134.62,115.51 C134.67,115.61 134.67,115.61 134.72,115.71 C134.94,116.17 134.95,116.17 135.16,116.63 C135.41,117.20 135.41,117.20 135.64,117.77 C135.85,118.34 135.85,118.34 136.05,118.91 C136.22,119.48 136.22,119.48 136.39,120.06 C136.53,120.62 136.53,120.62 136.66,121.19 C136.76,121.74 136.75,121.74 136.85,122.30 C136.86,122.40 136.86,122.40 136.87,122.51 C136.92,122.95 136.92,122.95 136.96,123.38 C136.99,123.90 136.99,123.90 137.00,124.42 C136.99,124.92 136.99,124.93 136.96,125.43 C136.91,125.90 136.91,125.90 136.85,126.37 C136.76,126.82 136.76,126.82 136.66,127.26 C136.53,127.68 136.53,127.68 136.39,128.09 C136.23,128.46 136.23,128.46 136.05,128.84 C135.85,129.17 135.85,129.17 135.64,129.51 C135.41,129.80 135.41,129.81 135.16,130.10 C134.90,130.35 134.90,130.35 134.63,130.60 C134.33,130.81 134.33,130.80 134.03,131.01 C133.59,131.26 133.59,131.26 133.14,131.52 "/><path d="M114.93,115.73 L114.93,115.79 "/><path d="M116.83,119.57 L120.91,117.22 "/><path d="M118.89,124.88 L123.01,122.50 L120.97,117.25 "/><path d="M125.03,123.67 L123.01,122.50 "/></g></g><g id="Actor_.4"><g style="stroke:#000000;stroke-width:0.353"><path d="M89.25,106.61 C88.81,106.35 88.81,106.35 88.37,106.10 C88.04,105.94 88.04,105.94 87.71,105.79 C87.36,105.68 87.36,105.68 87.01,105.57 C86.64,105.51 86.63,105.51 86.26,105.45 C86.06,105.45 86.06,105.45 85.86,105.44 C85.67,105.44 85.67,105.44 85.47,105.43 C85.06,105.47 85.06,105.47 84.65,105.52 C84.23,105.60 84.23,105.60 83.81,105.70 C83.37,105.83 83.37,105.83 82.94,105.97 C82.50,106.16 82.50,106.16 82.06,106.35 C81.61,106.59 81.61,106.59 81.15,106.83 C80.72,107.10 80.72,107.10 80.29,107.37 C79.85,107.69 79.85,107.69 79.41,108.01 C78.98,108.37 78.98,108.37 78.55,108.73 C78.12,109.13 78.12,109.13 77.70,109.53 C77.29,109.96 77.29,109.96 76.88,110.40 C76.66,110.65 76.66,110.66 76.44,110.91 C76.27,111.12 76.27,111.12 76.09,111.32 C75.72,111.81 75.72,111.81 75.35,112.31 C74.99,112.82 74.99,112.82 74.64,113.33 C74.31,113.87 74.31,113.87 73.99,114.40 C73.69,114.95 73.69,114.95 73.39,115.51 C73.34,115.60 73.34,115.60 73.30,115.69 C73.07,116.16 73.07,116.16 72.85,116.63 C72.61,117.20 72.61,117.20 72.37,117.77 C72.16,118.34 72.16,118.34 71.96,118.91 C71.79,119.48 71.79,119.48 71.62,120.06 C71.49,120.62 71.49,120.62 71.36,121.19 C71.26,121.74 71.26,121.74 71.17,122.30 C71.10,122.84 71.10,122.84 71.05,123.38 C71.03,123.73 71.04,123.73 71.02,124.08 C71.02,124.25 71.02,124.25 71.01,124.42 C71.03,124.92 71.03,124.92 71.05,125.42 C71.10,125.90 71.10,125.90 71.17,126.37 C71.26,126.82 71.26,126.82 71.36,127.26 C71.49,127.68 71.49,127.68 71.62,128.09 C71.79,128.46 71.79,128.46 71.96,128.84 C72.16,129.17 72.16,129.17 72.37,129.51 C72.61,129.80 72.61,129.81 72.85,130.10 C73.07,130.31 73.07,130.30 73.30,130.51 C73.34,130.56 73.34,130.56 73.39,130.60 C73.69,130.80 73.69,130.80 73.99,131.01 C74.43,131.26 74.43,131.26 74.87,131.52 "/><path d="M74.87,131.52 C74.57,131.32 74.57,131.32 74.27,131.11 C74.00,130.86 74.00,130.86 73.73,130.61 C73.51,130.34 73.52,130.34 73.30,130.07 C73.28,130.04 73.28,130.04 73.26,130.02 C73.05,129.68 73.05,129.68 72.85,129.35 C72.67,128.97 72.67,128.97 72.51,128.60 C72.37,128.19 72.37,128.18 72.24,127.77 C72.14,127.33 72.14,127.33 72.05,126.88 C72.00,126.53 72.00,126.53 71.96,126.18 C71.95,126.06 71.94,126.06 71.93,125.93 C71.91,125.43 71.91,125.43 71.89,124.93 C71.91,124.41 71.91,124.41 71.93,123.89 C71.99,123.35 71.99,123.35 72.05,122.81 C72.14,122.25 72.14,122.25 72.24,121.70 C72.37,121.13 72.37,121.13 72.51,120.56 C72.67,119.99 72.67,119.99 72.85,119.42 C73.05,118.85 73.05,118.85 73.26,118.28 C73.49,117.71 73.49,117.71 73.73,117.14 C74.00,116.58 74.00,116.58 74.27,116.01 C74.57,115.46 74.57,115.46 74.87,114.92 C75.19,114.38 75.19,114.38 75.52,113.84 C75.87,113.33 75.87,113.33 76.23,112.81 C76.60,112.32 76.60,112.32 76.98,111.83 C77.37,111.37 77.37,111.37 77.76,110.91 C78.17,110.47 78.17,110.47 78.58,110.04 C79.00,109.64 79.00,109.64 79.43,109.24 C79.86,108.88 79.86,108.88 80.29,108.52 C80.73,108.20 80.73,108.20 81.17,107.88 C81.61,107.60 81.61,107.60 82.06,107.32 C82.50,107.09 82.50,107.09 82.95,106.86 C83.38,106.67 83.38,106.67 83.83,106.48 C84.26,106.34 84.26,106.34 84.69,106.21 C85.11,106.11 85.11,106.11 85.54,106.03 C85.95,105.98 85.95,105.98 86.36,105.94 C86.75,105.95 86.75,105.95 87.14,105.96 C87.52,106.02 87.52,106.02 87.89,106.08 "/><path d="M74.87,131.52 C75.20,131.68 75.20,131.68 75.52,131.83 C75.70,131.89 75.70,131.88 75.87,131.94 C76.05,131.99 76.05,132.00 76.23,132.05 C76.60,132.11 76.60,132.11 76.98,132.17 C77.37,132.18 77.37,132.18 77.76,132.18 C77.95,132.18 77.95,132.18 78.13,132.16 C78.80,132.09 78.80,132.09 79.48,132.02 "/><path d="M79.49,132.02 C79.81,131.96 79.81,131.96 80.13,131.90 C80.46,131.83 80.46,131.82 80.79,131.75 C81.10,131.68 81.10,131.68 81.40,131.61 C82.00,131.42 82.00,131.42 82.60,131.22 C83.00,131.06 83.00,131.06 83.40,130.90 C83.94,130.65 83.94,130.65 84.47,130.39 C84.84,130.19 84.84,130.19 85.22,129.98 C85.68,129.69 85.68,129.68 86.14,129.38 C86.48,129.14 86.48,129.14 86.82,128.90 C87.14,128.64 87.14,128.64 87.46,128.37 C87.84,128.04 87.84,128.04 88.21,127.70 C88.50,127.41 88.50,127.41 88.79,127.12 C89.15,126.71 89.15,126.71 89.50,126.29 C89.78,125.93 89.78,125.93 90.05,125.56 C90.36,125.12 90.36,125.12 90.66,124.67 C90.93,124.21 90.94,124.21 91.20,123.75 C91.50,123.14 91.50,123.14 91.78,122.53 C91.98,122.05 91.98,122.05 92.17,121.55 C92.37,120.92 92.37,120.92 92.56,120.29 C92.71,119.64 92.71,119.64 92.85,119.00 C92.91,118.60 92.91,118.60 92.97,118.20 C92.98,118.00 92.98,118.00 93.00,117.80 "/><path d="M91.45,115.88 C91.31,115.74 91.31,115.74 91.16,115.61 C91.01,115.50 91.01,115.50 90.85,115.40 C90.71,115.33 90.71,115.33 90.58,115.27 C90.54,115.25 90.54,115.25 90.50,115.23 C90.32,115.18 90.32,115.17 90.13,115.12 C89.94,115.09 89.94,115.09 89.74,115.06 C89.53,115.05 89.53,115.05 89.32,115.05 C89.11,115.07 89.11,115.07 88.89,115.09 C88.67,115.14 88.67,115.14 88.45,115.18 C88.20,115.26 88.20,115.26 87.96,115.35 C87.74,115.43 87.74,115.44 87.53,115.53 C87.30,115.65 87.29,115.65 87.06,115.77 C86.83,115.92 86.83,115.92 86.60,116.07 C86.36,116.23 86.36,116.23 86.13,116.40 C85.90,116.59 85.90,116.59 85.68,116.78 C85.45,116.99 85.45,116.99 85.23,117.20 C85.02,117.43 85.02,117.43 84.80,117.66 C84.74,117.73 84.74,117.73 84.68,117.80 C84.53,117.97 84.53,117.97 84.39,118.15 C84.19,118.40 84.19,118.40 83.99,118.66 C83.81,118.93 83.81,118.93 83.62,119.21 C83.45,119.49 83.45,119.49 83.28,119.77 C83.10,120.09 83.10,120.09 82.93,120.42 C82.80,120.68 82.80,120.68 82.68,120.94 C82.55,121.24 82.55,121.24 82.43,121.54 C82.32,121.84 82.32,121.84 82.21,122.14 C82.12,122.44 82.12,122.44 82.03,122.74 C81.96,123.04 81.96,123.04 81.89,123.34 C81.84,123.63 81.84,123.63 81.79,123.92 C81.76,124.21 81.76,124.21 81.73,124.49 C81.72,124.77 81.72,124.77 81.71,125.04 C81.72,125.31 81.72,125.31 81.73,125.57 C81.76,125.82 81.76,125.82 81.79,126.07 C81.84,126.30 81.84,126.30 81.89,126.54 C81.96,126.75 81.96,126.75 82.03,126.97 C82.12,127.17 82.12,127.17 82.21,127.36 C82.32,127.54 82.32,127.54 82.43,127.72 C82.55,127.87 82.55,127.87 82.68,128.03 C82.82,128.16 82.82,128.16 82.96,128.29 C83.12,128.40 83.12,128.40 83.28,128.51 C83.45,128.59 83.45,128.59 83.62,128.67 C83.81,128.73 83.81,128.73 83.99,128.79 C84.19,128.82 84.19,128.82 84.39,128.85 C84.60,128.86 84.60,128.85 84.82,128.86 C85.02,128.84 85.03,128.84 85.23,128.82 C85.46,128.77 85.46,128.77 85.68,128.72 C85.91,128.65 85.91,128.65 86.13,128.57 C86.37,128.48 86.37,128.48 86.60,128.38 C86.83,128.26 86.83,128.26 87.06,128.13 C87.30,127.99 87.30,127.99 87.53,127.84 C87.76,127.67 87.76,127.67 87.99,127.50 C88.22,127.31 88.22,127.31 88.45,127.12 C88.67,126.91 88.67,126.91 88.89,126.70 C89.11,126.48 89.11,126.48 89.32,126.25 C89.53,126.00 89.53,126.00 89.74,125.76 C89.94,125.50 89.94,125.50 90.13,125.24 C90.32,124.97 90.32,124.97 90.50,124.70 C90.68,124.42 90.68,124.42 90.85,124.14 C91.01,123.85 91.01,123.85 91.16,123.56 C91.31,123.26 91.31,123.26 91.45,122.97 C91.57,122.67 91.57,122.67 91.70,122.37 C91.81,122.07 91.81,122.07 91.91,121.76 C92.00,121.46 92.00,121.46 92.09,121.16 C92.16,120.87 92.16,120.87 92.23,120.57 C92.28,120.28 92.28,120.28 92.33,119.98 C92.36,119.70 92.36,119.70 92.39,119.41 C92.41,119.14 92.41,119.14 92.41,118.86 C92.41,118.60 92.41,118.60 92.39,118.34 C92.36,118.09 92.36,118.09 92.33,117.84 C92.28,117.60 92.28,117.60 92.23,117.37 C92.16,117.15 92.16,117.15 92.09,116.94 C92.00,116.74 92.00,116.74 91.91,116.54 C91.81,116.36 91.81,116.36 91.70,116.19 C91.57,116.03 91.57,116.03 91.44,115.87 "/><path d="M82.94,124.32 C82.96,124.44 82.96,124.44 82.97,124.56 C82.98,124.62 82.98,124.62 83.00,124.68 C83.02,124.74 83.02,124.74 83.04,124.80 C83.07,124.86 83.07,124.86 83.09,124.92 C83.15,125.03 83.15,125.03 83.20,125.13 C83.26,125.23 83.26,125.23 83.32,125.33 C83.37,125.40 83.37,125.40 83.42,125.48 C83.54,125.64 83.54,125.64 83.66,125.80 C83.81,125.97 83.81,125.97 83.96,126.15 C84.04,126.25 84.04,126.25 84.13,126.34 C84.32,126.56 84.32,126.56 84.52,126.77 C84.76,127.02 84.76,127.02 85.00,127.26 "/><path d="M85.00,127.26 C85.14,127.05 85.14,127.05 85.28,126.84 C85.35,126.74 85.35,126.74 85.43,126.65 C85.51,126.56 85.51,126.56 85.59,126.47 C85.67,126.39 85.67,126.39 85.75,126.31 C85.84,126.23 85.84,126.23 85.93,126.16 C86.02,126.09 86.02,126.09 86.11,126.01 C86.21,125.95 86.21,125.95 86.30,125.88 C86.41,125.82 86.41,125.82 86.51,125.75 C86.62,125.69 86.62,125.69 86.73,125.63 C86.85,125.58 86.85,125.58 86.96,125.52 C87.09,125.47 87.09,125.47 87.21,125.42 C87.34,125.36 87.34,125.36 87.48,125.31 C87.62,125.27 87.62,125.27 87.76,125.22 C87.91,125.17 87.91,125.17 88.06,125.13 C88.23,125.09 88.23,125.08 88.39,125.04 C88.76,124.96 88.76,124.96 89.12,124.88 "/><path d="M89.12,124.88 C88.96,125.07 88.96,125.07 88.80,125.26 C88.64,125.43 88.64,125.43 88.47,125.61 C88.30,125.77 88.30,125.77 88.13,125.93 C87.98,126.06 87.98,126.05 87.83,126.18 C87.81,126.20 87.81,126.20 87.78,126.22 C87.60,126.35 87.60,126.35 87.42,126.48 C87.24,126.60 87.24,126.60 87.06,126.71 C86.88,126.80 86.88,126.80 86.70,126.90 C86.53,126.98 86.53,126.98 86.35,127.05 C86.17,127.11 86.17,127.11 86.00,127.16 C85.83,127.20 85.83,127.20 85.65,127.24 C85.50,127.25 85.50,127.25 85.34,127.27 C85.17,127.27 85.17,127.27 85.00,127.26 C84.85,127.24 84.85,127.24 84.70,127.21 C84.56,127.17 84.56,127.17 84.42,127.12 C84.28,127.06 84.28,127.06 84.15,127.00 C84.03,126.92 84.03,126.92 83.91,126.83 C83.80,126.73 83.80,126.73 83.69,126.63 C83.59,126.51 83.59,126.51 83.50,126.39 C83.41,126.26 83.41,126.25 83.33,126.12 C83.26,125.97 83.26,125.97 83.19,125.81 C83.14,125.65 83.14,125.65 83.08,125.48 C83.04,125.30 83.04,125.30 83.01,125.12 C82.98,124.93 82.98,124.93 82.96,124.74 C82.95,124.53 82.95,124.53 82.94,124.33 C82.95,124.21 82.95,124.21 82.95,124.08 C82.96,124.00 82.96,124.00 82.96,123.91 C82.98,123.69 82.98,123.69 83.01,123.47 C83.04,123.24 83.04,123.24 83.08,123.02 C83.14,122.79 83.14,122.79 83.19,122.56 C83.26,122.33 83.26,122.33 83.33,122.10 C83.41,121.87 83.41,121.87 83.50,121.63 C83.59,121.40 83.59,121.40 83.69,121.17 C83.80,120.94 83.80,120.94 83.91,120.72 C83.99,120.57 83.99,120.57 84.07,120.42 C84.11,120.34 84.11,120.34 84.15,120.27 C84.28,120.05 84.28,120.05 84.42,119.84 C84.56,119.63 84.56,119.63 84.70,119.42 C84.85,119.22 84.85,119.22 85.00,119.02 C85.16,118.83 85.16,118.83 85.32,118.65 C85.49,118.47 85.49,118.47 85.65,118.30 C85.82,118.13 85.82,118.13 86.00,117.97 C86.17,117.83 86.17,117.83 86.35,117.68 C86.52,117.55 86.52,117.55 86.70,117.42 C86.88,117.31 86.88,117.31 87.06,117.20 C87.24,117.10 87.24,117.10 87.42,117.01 C87.60,116.93 87.60,116.93 87.78,116.86 C87.95,116.80 87.95,116.80 88.13,116.74 C88.30,116.70 88.30,116.70 88.47,116.67 C88.64,116.65 88.64,116.65 88.80,116.64 C88.96,116.64 88.96,116.64 89.12,116.64 "/><path d="M89.12,116.64 C88.76,116.72 88.76,116.72 88.39,116.80 C88.23,116.85 88.23,116.85 88.06,116.89 C87.91,116.94 87.91,116.94 87.76,116.98 C87.62,117.03 87.62,117.03 87.48,117.08 C87.34,117.13 87.34,117.13 87.21,117.18 C87.09,117.23 87.09,117.23 86.96,117.28 C86.88,117.32 86.88,117.32 86.80,117.36 "/><path d="M89.12,124.88 C89.27,124.68 89.27,124.68 89.43,124.48 C89.57,124.28 89.57,124.28 89.71,124.07 C89.84,123.85 89.84,123.85 89.98,123.63 C90.10,123.41 90.10,123.41 90.22,123.19 C90.33,122.96 90.33,122.96 90.44,122.73 C90.53,122.50 90.53,122.50 90.63,122.27 C90.68,122.13 90.68,122.13 90.73,121.99 C90.76,121.90 90.76,121.90 90.80,121.81 C90.87,121.58 90.87,121.58 90.93,121.34 C90.99,121.12 90.99,121.12 91.04,120.89 C91.07,120.72 91.07,120.72 91.10,120.55 C91.11,120.49 91.11,120.49 91.12,120.44 C91.14,120.22 91.14,120.22 91.17,120.00 C91.18,119.79 91.18,119.79 91.18,119.57 "/><path d="M91.18,119.57 C90.94,119.33 90.94,119.33 90.70,119.08 C90.60,118.97 90.60,118.97 90.49,118.86 C90.31,118.66 90.31,118.66 90.13,118.46 C90.06,118.37 90.06,118.37 89.98,118.28 C89.85,118.11 89.85,118.11 89.71,117.95 C89.66,117.87 89.66,117.87 89.60,117.79 C89.55,117.72 89.55,117.72 89.50,117.64 C89.42,117.51 89.42,117.51 89.34,117.37 C89.30,117.30 89.30,117.30 89.27,117.24 C89.25,117.17 89.24,117.17 89.22,117.11 C89.20,117.05 89.20,117.05 89.18,116.99 C89.16,116.93 89.16,116.93 89.15,116.87 C89.13,116.76 89.13,116.76 89.12,116.64 "/><path d="M89.12,116.64 C89.27,116.67 89.27,116.67 89.43,116.69 C89.57,116.73 89.57,116.73 89.71,116.78 C89.84,116.84 89.84,116.84 89.98,116.91 C90.10,116.99 90.10,116.99 90.22,117.07 C90.33,117.17 90.33,117.17 90.44,117.28 C90.54,117.39 90.54,117.40 90.63,117.52 C90.71,117.65 90.71,117.65 90.80,117.79 C90.87,117.94 90.87,117.94 90.93,118.09 C90.99,118.26 90.99,118.26 91.04,118.42 C91.08,118.60 91.08,118.60 91.12,118.78 C91.14,118.98 91.14,118.98 91.17,119.17 C91.18,119.37 91.18,119.37 91.18,119.57 "/><path d="M91.18,119.57 C90.94,119.83 90.94,119.83 90.70,120.09 C90.60,120.22 90.60,120.22 90.49,120.35 C90.40,120.48 90.40,120.48 90.30,120.60 C90.22,120.73 90.22,120.73 90.13,120.86 C90.06,120.99 90.06,120.99 89.98,121.12 C89.91,121.24 89.91,121.24 89.84,121.38 C89.78,121.51 89.78,121.51 89.71,121.64 C89.66,121.77 89.66,121.77 89.60,121.91 C89.55,122.05 89.55,122.05 89.50,122.19 C89.46,122.33 89.46,122.33 89.41,122.47 C89.37,122.62 89.37,122.62 89.34,122.77 C89.30,122.93 89.30,122.93 89.27,123.08 C89.24,123.24 89.24,123.24 89.22,123.40 C89.20,123.57 89.20,123.57 89.18,123.74 C89.16,123.92 89.16,123.92 89.15,124.10 C89.13,124.49 89.13,124.49 89.12,124.88 "/><path d="M89.25,106.61 C89.55,106.81 89.55,106.81 89.85,107.02 C90.12,107.27 90.12,107.27 90.39,107.52 C90.63,107.81 90.63,107.81 90.86,108.11 C91.07,108.44 91.07,108.45 91.27,108.78 C91.30,108.84 91.30,108.84 91.32,108.89 "/><path d="M93.00,117.80 C93.05,117.20 93.05,117.20 93.09,116.60 C93.09,116.20 93.09,116.20 93.09,115.79 C93.03,114.99 93.03,114.99 92.97,114.19 C92.91,113.79 92.91,113.79 92.85,113.40 C92.73,112.85 92.73,112.85 92.61,112.31 C92.46,111.77 92.45,111.77 92.30,111.23 C92.16,110.84 92.16,110.84 92.02,110.45 C91.90,110.15 91.90,110.15 91.78,109.86 C91.53,109.32 91.53,109.32 91.27,108.78 "/><path d="M89.23,107.40 L88.56,106.70 L87.89,106.08 L88.59,106.30 L89.25,106.61 "/><path d="M87.89,106.08 L87.96,106.15 "/><path d="M93.00,117.80 L92.97,118.20 "/><path d="M82.98,123.67 L85.00,122.50 L89.12,124.88 "/><path d="M85.00,122.50 L87.04,117.25 "/><path d="M91.18,119.57 L87.11,117.22 "/><path d="M91.16,115.61 L90.90,115.38 "/><path d="M93.07,116.77 L93.00,117.80 "/><path d="M91.27,108.78 L91.31,108.87 "/><path d="M93.08,116.75 L93.08,116.63 "/></g></g><g id="paperID" visibility="hidden" opacity="0.00" transform="scale(0.000100)"><path style="stroke:#000000;stroke-width:0.500;fill:#e6e6e6;fill-rule:evenodd" d="M-2000.00,-2000.00L2200.00,-2000.00L2200.00,2200.00L-2000.00,2200.00zM0.00,0.00L200.00,0.00L200.00,200.00L0.00,200.00z"/><path style="fill:#000000;fill-opacity:0.118" d="M3.00,200.00L200.00,200.00L200.00,3.00L203.00,3.00L203.00,203.00L3.00,203.00z"/></g><g id="ToolTip" visibility="hidden" opacity="0" transform="translate(0,0)"><rect id="ToolTipShadow" opacity="0.20" fill="black" stroke="none" x="0" y="0" width="30" height="8"/><rect id="ToolTipBG" fill="#ffffe1" stroke="black" x="0" y="0" width="30" height="8"/><text xml:space="preserve" id="ToolTipText" fill="black" x="0" y="0" width="30" height="8">tooltip</text></g></g></svg>
