<?xml version="1.0" encoding="UTF-8" standalone="no"?>
<svg xmlns="http://www.w3.org/2000/svg" xmlns:xlink="http://www.w3.org/1999/xlink" width="1500.000mm" height="1000.000mm" viewBox="0.000000 0.000000 1500.000000 1000.000000" stroke-linejoin="round" stroke-linecap="round" fill="none" fill-rule="evenodd"><desc>Composer Export</desc><script type="text/ecmascript"><![CDATA[
if(typeof(top) != "undefined")
{
	top.ShowPaper = ShowPaper;
}
function ShowHotSpot(evt,hotspotid)
{
	var svgDocument = evt.target.ownerDocument;
	var strId = "hotspot."+hotspotid;
	var hotspot = svgDocument.getElementById(strId);
	if(hotspot)
		hotspot.setAttribute("opacity",".5");
}
function HideHotSpot(evt,hotspotid)
{
	var svgDocument = evt.target.ownerDocument;
	var strId = "hotspot."+hotspotid;
	var hotspot = svgDocument.getElementById(strId);
	if(hotspot)
		hotspot.setAttribute("opacity","0");

	var toolTip = svgDocument.getElementById('ToolTip');
	if(toolTip)
		toolTip.setAttribute("visibility","hidden");
}
function ShowToolTip(evt,hotspotid,strTooltip)
{
	if(strTooltip=="")
	return;

	// change text
	var svgDocument = evt.target.ownerDocument;
	var tiptext = svgDocument.getElementById('ToolTipText');
	if( !tiptext )
	return;
	tiptext.firstChild.nodeValue = " " + strTooltip + "  " ;

	// show tooltip before, else some refresh issue

	var toolTip = svgDocument.getElementById('ToolTip');
	if(!toolTip)
	return;

	toolTip.setAttribute("visibility","visible");
	toolTip.setAttribute("opacity",".95");

	// move tooltip
	// get viewbox

	var root = svgDocument.documentElement;
	var vbox = (root.getAttribute("viewBox")).split(' ');
	var x0 = parseFloat(vbox[0]);
	var y0 = parseFloat(vbox[1]);
	var vboxW = parseFloat(vbox[2]);
	var vboxH = parseFloat(vbox[3]);

	// get default width of svg

	var strW = root.getAttribute("width");
	var svgW = parseFloat(strW);
	if(strW.indexOf('mm') != -1)
	svgW *= 3.779;

	var strH = root.getAttribute("height");
	var svgH = parseFloat(strH);
	if(strH.indexOf('mm') != -1)
	svgH *= 3.779;  	// 96 dpi  -> 96/25.4 = 3.779

	// update the viewbox / width / height if svg is embedded in html with zoom fit all
	var realx0 = x0;
	var realy0 = y0;
	var realvboxW = vboxW;
	var realvboxH = vboxH;
	var realsvgW = svgW;
	var realsvgH = svgH;

	if ((typeof(top) == "undefined") || (typeof(top.svgctl1) != "undefined")) // embedded in html
	{
		// get window size in pxl

		svgW = window.innerWidth;
		svgH = window.innerHeight;

		// calculate real viewbox

		realsvgW = svgW;
		realsvgH = svgH;
		if((svgW / svgH) > (vboxW / vboxH))
		{
			realvboxW = (vboxH * svgW) / svgH;
			realvboxH = vboxH;
			realx0 = x0 - (realvboxW - vboxW)/2 ;
		}
		else
		{
			realvboxH = (vboxW * svgH) / svgW;
			realvboxW = vboxW;
			realy0 = y0 - (realvboxH - vboxH)/2 ;
		}
	}

	// get user zoom/pan

	var newScale = root.currentScale;
	var translation = root.currentTranslate;

	// transform pxl to user unit

	var xPos = (((evt.clientX+10- translation.x)/newScale) * realvboxW)/realsvgW  + realx0 ;
	var yPos = (((evt.clientY+5- translation.y)/newScale) * realvboxH)/ realsvgH  + realy0 ;
	var scaleForWidth = ( (1 / newScale) * realvboxH) / realsvgH;

	// move tooltip

	toolTip.setAttribute("transform", "translate(" + xPos + "," + yPos + ")" );

	// resize tooltip

	var fontsize = 12;
	tiptext.setAttribute("font-size",fontsize*scaleForWidth);
	tiptext.setAttribute("y", fontsize*scaleForWidth);
	var tipBG = svgDocument.getElementById('ToolTipBG');
	var outline = tiptext.getBBox();
	if(tipBG)
	{
		tipBG.setAttribute("stroke-width", 1*scaleForWidth);
		tipBG.setAttribute("width", Number(outline.width) );
		tipBG.setAttribute("height", Number(outline.height) + fontsize*.5*scaleForWidth );
	}
	var ToolTipShadow = svgDocument.getElementById('ToolTipShadow');
	if(ToolTipShadow)
	{
		ToolTipShadow.setAttribute("width", Number(outline.width) );
		ToolTipShadow.setAttribute("height", Number(outline.height) + fontsize*.5*scaleForWidth );
		ToolTipShadow.setAttribute("x", 3*scaleForWidth);
		ToolTipShadow.setAttribute("y", 3*scaleForWidth);
	}
}
function ShowPaper()
{
  var svgDocument = getDocument();
  var paper = svgDocument.getElementById("paperID");
  if(paper)
  {
    paper.setAttribute("transform","scale(1)");
    paper.setAttribute("opacity","1");
    paper.setAttribute("visibility","visible");
  }
  var svg = svgDocument.getRootElement();
  if(svg)
  {
    svg.setAttribute("width","1510.000mm");
    svg.setAttribute("height","1010.000mm");
    svg.setAttribute("viewBox","-5.000000 -5.000000 1510.000000 1010.000000");
  }
}
]]></script><defs/><g><path style="fill:#ffffff" d="M1212.31,0.17L1500.04,0.26L1500.04,999.94L0.26,999.94L0.26,0.26L272.47,0.17L273.03,295.53L273.33,0.17L300.06,0.14L300.63,278.29L301.42,250.27L300.92,0.10L302.65,0.10L303.21,186.03L303.51,0.14L1117.46,0.17L1117.12,48.03L1117.12,774.90L1118.03,802.53L1118.32,0.17L1145.05,0.17L1145.62,843.05L1145.91,0.17L1211.44,0.17L1212.01,711.13L1212.80,373.57L1212.80,25.23z"/><path style="fill:#97fa98" d="M565.47,327.80L567.56,331.93L567.58,334.60L567.08,336.09L565.00,338.23L562.11,339.89L560.80,339.85L561.50,354.39L558.22,357.32L552.36,357.30L548.96,355.53L548.09,340.02L543.81,337.44L542.98,335.48L542.98,331.02L545.14,327.87L550.34,324.48L552.63,323.98L557.05,323.99L560.21,324.46z"/><path style="fill:#97fa98" d="M872.29,504.71L875.33,508.73L875.35,513.91L874.96,514.57L870.58,517.92L869.77,532.63L866.90,534.94L859.41,534.83L858.44,534.09L856.81,532.09L856.74,517.64L856.20,517.51L852.52,515.85L851.53,514.25L851.62,507.58L856.76,503.25L859.03,502.07L867.13,502.10z"/><path style="fill:#000020" d="M1212.80,25.23L1212.80,373.57L1212.01,711.13L1211.44,0.17L1212.31,0.17z"/><path style="fill:#000020" d="M1117.12,48.03L1117.46,0.17L1118.32,0.17L1118.03,802.53L1117.12,774.90z"/><path style="fill:#000020" d="M303.21,186.03L302.65,0.10L303.51,0.14z"/><path style="fill:#000020" d="M301.42,250.27L300.63,278.29L300.06,0.14L300.92,0.10z"/><path style="fill:#000020" d="M273.03,295.53L272.47,0.17L273.33,0.17z"/><path style="fill:#000020" d="M567.58,334.60L567.56,331.93L567.97,332.29z"/><path style="fill:#000020" d="M560.80,339.85L562.11,339.89L561.50,354.39z"/><path style="fill:#000020" d="M602.34,427.01L601.49,429.99L601.55,420.13z"/><path style="fill:#000020" d="M875.35,513.91L875.33,508.73L875.74,508.98z"/><path style="fill:#000020" d="M856.81,532.09L856.20,517.51L856.74,517.64z"/><path style="fill:#000020" d="M866.75,587.48L871.45,587.47L871.26,588.31L869.74,588.43z"/><path style="fill:#000020" d="M1116.94,832.29L1118.03,825.38L1118.08,834.38z"/><path style="fill:#000020" d="M1145.62,843.05L1145.05,0.17L1145.91,0.17z"/><g id="Actor_.0"><g style="stroke:#000000;stroke-width:0.705"><path d="M300.53,226.07 L300.37,226.16 L300.99,225.80 L300.53,226.07 "/><path d="M300.37,222.63 L303.94,222.63 L303.83,223.49 L303.52,224.17 L300.37,223.32 "/><path d="M300.37,223.61 L303.03,224.62 L300.99,225.80 L305.92,222.96 L303.03,224.62 L303.52,224.17 "/><path d="M300.37,198.27 L300.86,197.42 L305.79,194.57 L307.02,195.28 L307.94,196.10 L308.62,197.28 L308.87,198.49 L308.87,199.91 L303.94,202.76 L300.37,202.76 "/><path d="M300.37,197.14 L300.86,197.42 L302.40,198.78 L303.52,200.74 L303.94,202.76 L303.94,222.63 L308.87,219.78 L308.76,220.64 L308.45,221.32 L307.96,221.78 L305.92,222.96 "/><path d="M300.37,201.85 L303.52,200.74 "/><path d="M302.40,198.78 L300.37,200.53 "/><path d="M308.87,219.78 L308.87,199.91 L308.45,197.89 L307.33,195.94 L305.79,194.57 L300.37,191.44 "/><path d="M301.53,192.12 L305.92,194.65 "/></g></g><g id="Actor_.1"><g style="stroke:#000000;stroke-width:0.705"><path d="M229.81,341.49 C229.91,330.16 229.91,330.14 229.84,318.81 C229.43,316.90 229.31,316.91 228.85,315.00 C228.81,313.81 228.81,314.07 228.85,312.61 "/><path d="M209.20,0.00 L209.20,333.05 L208.91,332.77 L208.91,330.05 L208.91,332.77 "/><path d="M227.68,342.84 L229.53,341.77 L229.53,319.79 L227.68,320.87 L227.68,342.84 L227.19,343.00 L226.63,343.00 L226.14,342.84 L209.20,333.05 "/><path d="M208.91,0.00 L208.91,330.05 "/><path d="M226.14,342.84 L226.14,319.60 L226.75,320.59 L227.20,320.89 L227.68,320.87 "/><path d="M226.14,319.60 L225.46,316.95 L225.46,314.57 L226.14,312.71 L226.14,0.00 "/><path d="M226.14,312.71 L226.75,312.07 L227.68,311.45 L227.68,-0.00 "/><path d="M229.53,341.77 L229.81,341.49 L229.81,341.16 "/><path d="M228.85,312.61 L229.53,310.75 L229.53,310.60 "/><path d="M233.07,0.00 L233.07,334.92 L229.82,336.80 "/><path d="M229.84,318.81 L229.81,319.38 L229.53,319.79 "/><path d="M229.53,310.75 L229.84,310.29 L229.81,310.24 L227.68,311.45 "/><path d="M229.53,310.40 L229.53,0.00 "/><path d="M229.84,310.29 L229.84,0.00 "/><path d="M236.64,348.78 L236.62,326.29 L236.93,325.83 L236.93,349.06 L236.64,348.78 "/><path d="M236.63,336.09 L234.61,334.92 L234.13,334.76 L233.56,334.76 L233.07,334.92 "/><path d="M234.61,334.92 L234.61,-0.00 "/><path d="M236.62,0.00 L236.62,317.77 L236.93,318.94 L236.93,-0.00 "/><path d="M236.62,309.22 L236.46,309.31 L236.62,310.91 "/><path d="M236.46,309.31 L236.62,307.89 "/><path d="M255.05,358.97 L254.36,359.01 L253.87,358.85 L236.93,349.06 "/><path d="M236.93,325.83 L237.61,323.97 L237.61,321.58 L236.93,318.94 "/><path d="M237.39,320.73 L237.39,324.57 "/><path d="M253.87,358.85 L253.87,0.00 "/><path d="M255.41,337.50 L255.41,327.15 "/><path d="M255.41,0.00 L255.41,305.48 "/><path d="M274.67,-0.00 L274.67,296.71 "/><path d="M272.36,295.70 L272.36,-0.00 "/><path d="M276.21,0.00 L276.21,297.60 "/><path d="M272.66,295.62 L272.66,0.00 "/><path d="M279.75,-0.00 L279.75,299.64 "/><path d="M279.44,299.47 L279.44,-0.00 "/><path d="M283.14,293.71 L283.14,301.60 "/><path d="M281.60,300.71 L281.60,-0.00 "/><path d="M283.14,0.00 L283.14,289.47 "/><path d="M300.09,279.69 L300.09,0.00 "/><path d="M300.37,0.00 L300.37,279.61 "/></g></g><g id="Actor_.2"><g style="stroke:#000000;stroke-width:0.705"><path d="M300.37,186.35 L301.14,186.58 L301.14,0.00 "/><path d="M301.14,186.58 L302.70,185.68 L302.70,182.27 L302.70,185.68 "/><path d="M302.70,182.27 L302.70,0.00 "/></g></g><g id="Actor_.3"><g style="stroke:#000000;stroke-width:0.705"><path d="M1211.59,710.43 L1211.59,709.36 L1211.59,710.43 L1210.03,711.33 L1209.25,711.10 "/><path d="M1210.03,711.33 L1210.03,0.00 "/><path d="M1211.59,709.36 L1211.59,0.00 "/></g></g><g id="Actor_.4"><g style="stroke:#000000;stroke-width:0.705"><path d="M1135.03,867.58 C1135.09,855.97 1135.09,855.96 1135.03,844.35 C1134.75,843.02 1134.66,843.03 1134.35,841.70 C1134.31,840.51 1134.31,840.50 1134.35,839.32 "/><path d="M1137.74,837.44 C1137.70,840.90 1137.70,838.60 1137.74,839.74 C1138.19,841.65 1138.32,841.65 1138.73,843.56 C1138.80,854.88 1138.80,854.66 1138.70,866.24 "/><path d="M1145.81,0.00 C1145.74,421.83 1145.74,421.85 1145.81,843.68 C1146.08,845.01 1146.19,845.00 1146.50,846.33 C1146.53,847.52 1146.53,847.53 1146.50,848.72 "/><path d="M1192.71,839.32 C1192.74,840.50 1192.74,840.51 1192.71,841.70 C1192.40,843.03 1192.31,843.02 1192.03,844.35 C1191.97,855.96 1191.97,855.96 1192.03,867.58 "/><path d="M1118.08,0.00 L1118.08,857.80 L1135.03,867.58 "/><path d="M1134.35,839.32 L1135.05,837.44 L1135.64,836.82 L1136.57,836.20 L1136.57,0.00 "/><path d="M1118.08,857.80 L1117.80,857.52 L1117.80,832.51 L1117.80,837.44 "/><path d="M1117.80,832.51 L1117.80,822.66 L1117.80,827.59 "/><path d="M1117.80,822.66 L1117.80,802.96 L1117.80,807.88 "/><path d="M1117.80,802.96 L1117.80,0.00 "/><path d="M1136.57,867.58 L1138.42,866.52 L1138.42,844.54 L1136.57,845.62 L1136.57,867.58 L1136.08,867.75 L1135.03,867.58 "/><path d="M1138.42,866.52 L1138.70,866.24 L1138.70,865.91 "/><path d="M1138.42,835.35 L1137.74,837.44 "/><path d="M1141.96,0.00 L1141.96,859.67 L1138.71,861.55 "/><path d="M1138.42,844.54 L1138.70,844.12 L1138.73,843.56 "/><path d="M1135.03,844.35 L1135.64,845.34 L1136.08,845.63 L1136.57,845.62 "/><path d="M1135.05,837.44 L1135.03,0.00 "/><path d="M1136.57,836.20 L1138.42,835.15 L1138.42,0.00 "/><path d="M1138.42,835.15 L1138.73,835.04 L1138.42,835.50 "/><path d="M1138.73,835.04 L1138.73,0.00 "/><path d="M1143.50,0.00 L1143.50,859.67 L1142.45,859.51 L1141.96,859.67 "/><path d="M1143.50,859.67 L1145.52,860.83 "/><path d="M1145.81,871.92 L1145.81,873.81 L1145.53,873.53 L1145.51,851.04 L1145.81,850.57 L1145.81,871.92 "/><path d="M1145.81,873.81 L1162.76,883.59 L1162.76,0.00 "/><path d="M1146.27,849.32 L1146.27,845.47 "/><path d="M1146.50,848.72 L1145.81,850.57 "/><path d="M1145.51,0.00 L1145.51,842.52 L1145.81,843.68 "/><path d="M1145.51,832.63 L1145.35,834.05 L1145.51,833.96 "/><path d="M1145.35,834.05 L1145.51,835.66 "/><path d="M1162.76,883.59 L1163.25,883.76 L1164.30,883.59 L1164.30,0.00 "/><path d="M1164.30,883.59 L1181.24,873.81 L1181.24,850.57 L1180.56,848.72 L1180.56,846.33 L1181.24,843.68 L1181.24,0.00 "/><path d="M1181.24,873.81 L1181.53,873.53 L1181.55,851.04 L1181.24,850.57 "/><path d="M1181.54,860.83 L1183.55,859.67 L1184.61,859.51 L1185.10,859.67 L1188.35,861.55 "/><path d="M1183.55,859.67 L1183.55,0.00 "/><path d="M1180.78,849.32 L1180.78,845.47 "/><path d="M1181.24,843.68 L1181.55,842.52 L1181.55,0.00 "/><path d="M1181.55,835.60 L1181.55,832.69 "/><path d="M1192.03,0.00 L1192.03,837.46 L1192.71,839.32 "/><path d="M1192.03,867.58 L1191.54,867.75 L1190.49,867.58 L1190.49,845.62 L1188.64,844.54 L1188.64,866.52 L1188.36,866.24 L1188.36,865.91 "/><path d="M1188.64,866.52 L1190.49,867.58 "/><path d="M1188.36,866.24 L1188.33,843.56 L1188.36,844.13 L1188.64,844.54 "/><path d="M1185.10,859.67 L1185.10,0.00 "/><path d="M1188.64,835.35 L1189.32,837.44 L1189.32,839.74 L1188.33,843.56 "/><path d="M1188.64,0.00 L1188.64,835.20 L1188.33,835.03 L1188.33,0.00 "/><path d="M1188.64,835.20 L1190.49,836.20 L1190.49,0.00 "/><path d="M1188.33,835.03 L1188.64,835.50 "/><path d="M1192.03,867.58 L1208.97,857.80 L1209.25,857.52 L1209.25,0.00 "/><path d="M1190.49,845.62 L1190.97,845.63 L1191.42,845.34 L1192.03,844.35 "/><path d="M1192.03,837.46 L1191.42,836.82 L1190.49,836.20 "/><path d="M1208.97,857.80 L1208.97,0.00 "/></g></g><g id="Actor_.5"><g style="stroke:#000000;stroke-width:0.705"><path d="M1209.25,748.36 L1211.92,749.37 L1212.96,748.77 L1209.25,750.91 L1211.92,749.37 L1212.41,748.91 L1212.72,748.23 L1212.82,747.37 L1217.75,744.53 L1217.75,738.92 L1217.75,743.84 "/><path d="M1212.41,748.91 L1209.25,748.07 "/><path d="M1212.96,748.77 L1216.85,746.52 L1217.34,746.07 L1217.65,745.39 L1217.75,744.53 "/><path d="M1209.25,727.50 L1212.82,727.50 L1212.82,747.37 L1209.25,747.37 "/><path d="M1217.75,738.92 L1217.75,724.14 L1217.75,724.66 L1212.82,727.50 L1212.41,725.48 L1209.25,726.59 "/><path d="M1212.41,725.48 L1211.28,723.53 L1209.74,722.17 L1209.25,723.01 "/><path d="M1211.28,723.53 L1209.25,725.27 "/><path d="M1217.75,729.06 L1217.75,724.66 L1217.34,722.64 L1216.21,720.69 L1214.67,719.32 L1209.74,722.17 L1209.25,721.88 "/><path d="M1209.25,716.19 L1215.91,720.03 L1214.49,719.21 "/><path d="M1217.75,724.14 L1217.75,723.23 L1217.51,722.02 L1216.83,720.85 L1215.91,720.03 "/></g></g><g id="Actor_.6"><g style="stroke:#000000;stroke-width:0.705"><path d="M1209.74,836.90 C1209.74,859.88 1209.74,844.56 1209.74,852.22 C1209.74,854.34 1209.75,854.34 1209.74,856.47 C1209.70,856.66 1209.70,856.66 1209.64,856.85 "/><path d="M1209.25,835.82 L1209.64,836.40 L1209.74,836.90 "/><path d="M1209.64,856.85 L1209.36,857.01 L1209.25,856.99 "/><path d="M1209.74,856.47 L1500.00,688.89 "/><path d="M1209.64,856.85 L1500.00,689.21 "/><path d="M1500.00,665.41 L1209.25,833.27 "/><path d="M1209.74,836.90 L1500.00,669.32 "/><path d="M1500.00,667.54 L1209.25,835.40 "/><path d="M1367.61,741.52 L1371.71,739.15 L1209.25,832.94 "/><path d="M1500.00,661.32 L1209.25,829.18 "/><path d="M1500.00,656.87 L1209.74,824.45 L1209.64,824.83 L1500.00,657.19 "/><path d="M1209.74,824.45 L1209.74,804.88 L1500.00,637.30 "/><path d="M1209.64,824.83 L1209.36,825.00 L1209.25,824.97 "/><path d="M1209.25,827.40 L1500.00,659.54 "/><path d="M1209.25,803.38 L1500.00,635.52 "/><path d="M1209.74,804.88 L1209.64,804.38 L1209.25,803.80 "/><path d="M1500.00,615.96 L1209.25,783.82 "/><path d="M1209.25,783.49 L1448.58,645.32 L1446.68,646.42 "/><path d="M1209.25,781.15 L1500.00,613.29 "/><path d="M1209.25,779.37 L1500.00,611.51 "/><path d="M1209.25,775.28 L1500.00,607.42 "/><path d="M1209.25,775.61 L1223.89,767.15 "/><path d="M1209.25,771.37 L1500.00,603.50 "/><path d="M1500.00,605.28 L1209.25,773.14 "/><path d="M1500.00,583.94 L1209.25,751.80 "/><path d="M1209.25,751.47 L1500.00,583.61 "/><path d="M1223.68,767.27 L1500.00,607.74 "/><path d="M1371.71,739.15 L1500.00,665.08 "/><path d="M1448.58,645.32 L1500.00,615.63 "/></g></g><g id="Actor_.7"><g style="stroke:#000000;stroke-width:0.705"><path d="M256.16,359.61 L254.74,358.79 L254.64,358.40 L1117.31,856.47 L1117.42,856.85 L1117.70,857.01 L254.74,358.79 "/><path d="M254.64,358.40 L254.64,338.84 L254.74,338.33 L255.41,337.50 L1117.80,835.40 "/><path d="M1117.31,856.47 L1117.31,836.90 L254.64,338.84 "/><path d="M255.41,337.50 L257.26,336.43 L1117.80,833.27 "/><path d="M808.00,646.19 L806.49,645.32 L1117.42,824.83 L1117.31,824.45 L254.64,326.38 L254.74,326.77 L256.58,327.83 L254.74,326.77 "/><path d="M254.64,326.38 L254.64,306.82 L1117.31,804.88 L1117.42,804.38 L1117.80,803.80 "/><path d="M509.21,452.01 L255.41,305.48 L272.36,295.70 L517.68,437.34 "/><path d="M254.64,306.82 L254.74,306.31 L255.41,305.48 "/><path d="M257.26,336.43 L257.64,336.33 L698.33,590.76 "/><path d="M257.64,336.33 L258.36,336.75 "/><path d="M806.49,645.32 L256.58,327.83 "/><path d="M1117.80,829.18 L264.96,336.79 L265.63,335.96 L265.73,333.11 "/><path d="M1117.80,827.40 L265.73,335.46 "/><path d="M264.96,336.79 L261.70,338.67 "/><path d="M272.36,295.70 L272.74,295.60 L276.32,297.66 L272.74,295.60 "/><path d="M276.32,297.66 L358.18,344.93 "/><path d="M518.83,435.33 L285.76,300.77 L283.73,301.94 "/><path d="M285.76,300.77 L286.18,300.36 L286.53,299.44 L519.60,434.00 "/><path d="M521.23,431.18 L282.47,293.33 L282.37,290.81 L522.30,429.33 "/><path d="M282.37,290.81 L282.47,290.30 L283.14,289.47 L523.07,428.00 "/><path d="M521.37,430.93 L282.37,292.94 "/><path d="M283.14,289.47 L300.09,279.69 L531.54,413.32 "/><path d="M286.53,299.44 L286.53,295.67 "/><path d="M531.68,413.08 L300.52,279.61 L300.09,279.69 "/><path d="M358.01,344.83 L517.82,437.09 "/><path d="M555.81,478.92 L817.30,629.89 "/><path d="M825.78,615.22 L572.75,469.13 "/><path d="M825.92,614.97 L573.03,468.97 "/><path d="M826.93,613.21 L575.06,467.80 "/><path d="M576.60,466.91 L827.70,611.88 "/><path d="M830.40,607.21 L581.99,463.80 "/><path d="M580.14,464.86 L829.47,608.81 "/><path d="M579.86,465.03 L829.33,609.06 "/><path d="M831.17,605.88 L583.53,462.91 "/><path d="M839.64,591.20 L600.48,453.12 "/><path d="M839.78,590.96 L600.76,452.96 "/><path d="M695.72,589.26 L846.91,676.55 "/><path d="M844.02,674.88 L1117.80,832.94 "/><path d="M1117.80,803.38 L863.90,656.80 "/><path d="M883.16,645.68 L1117.80,781.15 "/><path d="M1117.80,783.82 L880.85,647.01 "/><path d="M1117.80,783.49 L881.13,646.85 "/><path d="M884.70,644.79 L1117.80,779.37 "/><path d="M1117.80,775.61 L887.96,642.91 "/><path d="M888.16,643.02 L892.14,645.32 "/><path d="M1117.80,775.28 L888.24,642.74 "/><path d="M1117.80,771.37 L891.63,640.79 "/><path d="M1117.80,773.14 L890.09,641.68 "/><path d="M908.58,631.00 L1117.80,751.80 "/><path d="M1117.80,751.47 L908.86,630.84 "/><path d="M1115.13,855.53 L1117.42,856.85 "/><path d="M1117.31,836.90 L1117.42,836.40 L1117.80,835.82 "/><path d="M1117.31,824.45 L1117.31,804.88 "/><path d="M1117.80,824.97 L1117.42,824.83 "/></g></g><g id="Actor_.8"><g style="stroke:#000000;stroke-width:0.705"><path d="M1451.65,-0.00 L1500.00,27.92 "/><path d="M1500.00,28.24 L1451.08,-0.00 "/><path d="M1500.00,6.57 L1488.62,0.00 "/><path d="M1485.54,0.00 L1500.00,8.35 "/><path d="M1500.00,4.44 L1492.31,0.00 "/><path d="M1492.88,0.00 L1500.00,4.11 "/><path d="M1500.00,0.35 L1499.40,-0.00 "/></g></g><g id="Actor_.9"><g style="stroke:#000000;stroke-width:0.705"><path d="M782.98,0.00 L300.37,278.64 "/><path d="M300.37,279.05 L300.78,279.77 "/><path d="M300.37,259.07 L749.09,-0.00 "/><path d="M744.47,-0.00 L300.37,256.40 "/><path d="M300.37,258.75 L748.53,0.00 "/><path d="M300.37,254.62 L741.39,-0.00 "/><path d="M734.30,-0.00 L300.37,250.53 "/><path d="M727.52,-0.00 L300.37,246.62 "/><path d="M300.37,248.40 L730.61,-0.00 "/><path d="M734.87,-0.00 L300.37,250.86 "/><path d="M300.37,227.05 L693.63,0.00 "/><path d="M300.37,226.73 L552.63,81.08 L550.37,82.39 "/><path d="M786.06,0.00 L301.14,279.97 "/><path d="M320.39,291.09 L824.58,-0.00 "/><path d="M819.95,0.00 L318.08,289.76 "/><path d="M820.52,-0.00 L318.36,289.92 "/><path d="M834.74,-0.00 L325.48,294.02 "/><path d="M321.93,291.98 L827.66,0.00 "/><path d="M325.20,293.86 L834.18,-0.00 "/><path d="M328.87,295.98 L841.52,-0.00 "/><path d="M327.33,295.09 L838.44,-0.00 "/><path d="M875.41,0.00 L345.81,305.76 "/><path d="M346.09,305.93 L875.98,0.00 "/><path d="M552.63,81.08 L693.07,-0.00 "/></g></g><g id="Actor_.10"><g style="stroke:#000000;stroke-width:0.705"><path d="M852.07,513.92 C853.18,514.85 853.19,514.86 854.35,515.73 C855.90,516.43 855.92,516.43 857.50,517.05 C859.33,517.43 859.34,517.43 861.19,517.74 C863.13,517.78 863.14,517.78 865.08,517.74 C866.93,517.43 866.94,517.43 868.77,517.05 C870.35,516.43 870.37,516.43 871.91,515.73 C873.08,514.86 873.09,514.85 874.20,513.92 "/><path d="M874.20,514.80 C873.08,515.72 873.07,515.73 871.91,516.61 C871.18,516.95 871.17,516.93 870.42,517.24 C869.59,517.59 869.60,517.61 868.77,517.93 C866.93,518.30 866.93,518.31 865.08,518.62 C863.14,518.66 863.13,518.66 861.19,518.62 C859.34,518.31 859.33,518.31 857.50,517.93 C855.92,517.31 855.90,517.31 854.35,516.61 C853.19,515.74 853.18,515.73 852.07,514.80 "/><path d="M850.87,509.54 C851.46,508.47 851.46,508.47 852.07,507.41 C852.32,507.06 852.32,507.05 852.59,506.71 C853.78,505.58 853.77,505.56 854.99,504.46 C855.99,503.85 856.00,503.85 857.03,503.28 C858.15,502.87 858.16,502.89 859.30,502.50 C859.99,502.27 859.99,502.24 860.69,502.04 C862.08,501.95 862.09,501.94 863.48,501.91 C864.79,502.08 864.80,502.08 866.10,502.31 C867.17,502.77 867.18,502.78 868.21,503.30 "/><path d="M868.62,507.73 C867.68,508.31 867.67,508.32 866.69,508.84 C865.44,509.15 865.43,509.15 864.16,509.40 C862.80,509.39 862.79,509.39 861.44,509.32 C860.23,509.00 860.22,508.99 859.02,508.61 "/><path d="M859.02,534.04 C860.22,534.43 860.23,534.43 861.44,534.76 C862.79,534.83 862.80,534.83 864.16,534.84 C865.43,534.59 865.44,534.59 866.69,534.28 C867.57,533.81 867.56,533.78 868.42,533.28 C868.52,533.22 868.52,533.22 868.62,533.17 "/><path d="M864.44,502.87 C863.80,503.19 863.80,503.19 863.15,503.49 C862.58,503.65 862.58,503.65 862.01,503.79 C861.43,503.83 861.43,503.83 860.86,503.84 C860.22,503.74 860.21,503.74 859.58,503.62 "/><path d="M859.58,503.62 C859.41,504.20 859.41,504.20 859.23,504.78 C859.08,505.18 859.08,505.18 858.93,505.57 C858.78,505.84 858.78,505.84 858.62,506.11 C858.45,506.27 858.45,506.27 858.27,506.43 "/><path d="M866.69,507.73 C866.87,507.57 866.87,507.57 867.03,507.41 C867.19,507.15 867.19,507.14 867.34,506.88 C867.50,506.48 867.50,506.48 867.65,506.08 C867.83,505.50 867.83,505.50 867.99,504.92 "/><path d="M864.44,502.87 C864.90,503.35 864.90,503.36 865.37,503.83 C865.79,504.14 865.79,504.15 866.21,504.45 C866.63,504.63 866.63,504.64 867.06,504.80 C867.52,504.87 867.53,504.87 867.99,504.92 "/><path d="M867.69,506.90 C867.21,507.33 867.20,507.33 866.69,507.73 C865.99,508.03 865.98,508.04 865.26,508.31 C864.42,508.45 864.42,508.44 863.57,508.57 C863.53,508.57 863.53,508.57 863.49,508.56 C862.66,508.52 862.66,508.54 861.83,508.48 C861.04,508.28 861.03,508.28 860.25,508.05 C859.62,507.72 859.62,507.71 859.01,507.34 "/><path d="M859.58,503.62 C860.28,503.31 860.29,503.31 861.01,503.04 C861.85,502.89 861.85,502.89 862.70,502.78 C863.56,502.81 863.57,502.81 864.44,502.87 "/><path d="M864.62,501.88 C866.52,502.32 866.54,502.33 868.41,502.85 C869.69,503.54 869.69,503.56 870.93,504.31 C872.10,505.23 872.10,505.24 873.24,506.19 C873.73,506.78 873.73,506.79 874.20,507.41 C874.81,508.47 874.81,508.47 875.40,509.54 "/><path d="M850.87,512.32 L850.87,511.78 L852.07,513.92 "/><path d="M874.20,513.92 L875.40,511.78 L875.40,512.67 L874.20,514.80 "/><path d="M852.07,514.80 L850.87,512.67 L850.87,510.72 "/><path d="M850.87,511.78 L850.87,509.54 "/><path d="M868.21,503.30 L869.45,504.70 L869.59,506.26 L868.62,507.73 "/><path d="M859.02,508.61 L857.31,507.39 L856.61,505.87 L857.03,504.32 L858.51,503.01 L858.55,502.99 L860.79,502.15 L863.48,501.91 "/><path d="M856.61,517.56 L856.61,531.31 L857.31,532.82 L859.02,534.04 "/><path d="M868.62,533.17 L869.59,531.70 L869.59,517.59 "/><path d="M859.66,507.72 L864.44,506.98 L864.44,502.87 "/><path d="M858.27,506.43 L858.12,505.42 L858.57,504.45 L859.58,503.62 L859.58,507.65 "/><path d="M867.99,504.92 L867.26,504.01 L866.02,503.29 L864.44,502.87 "/><path d="M867.99,504.92 L868.15,505.93 L867.69,506.90 "/><path d="M859.01,507.34 L858.27,506.43 L859.21,507.39 L859.65,507.71 "/><path d="M868.62,533.17 L866.21,534.67 L864.26,535.32 L862.01,535.32 L860.05,534.67 L859.02,534.04 "/><path d="M863.49,501.91 L864.62,501.88 "/><path d="M875.40,509.54 L875.40,512.32 "/><path d="M866.13,507.95 L864.44,506.98 "/><path d="M875.40,510.42 L875.40,509.54 "/></g></g><g id="Actor_.11"><g style="stroke:#000000;stroke-width:0.705"><path d="M566.10,336.04 C564.99,336.97 564.98,336.98 563.82,337.85 C562.27,338.55 562.25,338.55 560.67,339.17 C558.84,339.55 558.83,339.55 556.98,339.86 C555.04,339.90 555.03,339.90 553.09,339.86 C551.24,339.55 551.23,339.55 549.40,339.17 C547.82,338.55 547.80,338.55 546.26,337.85 C545.09,336.98 545.08,336.97 543.97,336.04 "/><path d="M542.77,331.66 C543.36,330.59 543.36,330.59 543.97,329.53 C544.23,329.17 544.23,329.17 544.50,328.83 C545.68,327.70 545.68,327.68 546.89,326.58 C547.89,325.97 547.90,325.97 548.93,325.40 C550.06,324.99 550.07,325.01 551.20,324.62 C551.90,324.39 551.89,324.36 552.59,324.16 C553.98,324.06 553.99,324.06 555.38,324.03 C556.69,324.20 556.70,324.20 558.00,324.43 C559.07,324.89 559.08,324.90 560.12,325.42 "/><path d="M560.17,330.05 C559.41,330.53 559.39,330.54 558.60,330.96 C557.34,331.27 557.33,331.27 556.06,331.52 C554.71,331.51 554.70,331.49 553.34,331.44 C552.99,331.35 552.99,331.33 552.63,331.23 C551.78,330.98 551.78,330.98 550.92,330.73 "/><path d="M550.41,325.13 C551.54,324.67 551.55,324.66 552.69,324.27 C554.03,324.11 554.04,324.14 555.38,324.03 C555.95,324.01 555.96,323.99 556.52,324.00 C558.42,324.46 558.44,324.45 560.31,324.97 C561.59,325.66 561.59,325.68 562.84,326.43 C564.00,327.35 564.00,327.36 565.14,328.31 C565.64,328.90 565.63,328.91 566.10,329.53 C566.71,330.59 566.71,330.59 567.30,331.66 "/><path d="M566.10,336.92 C564.99,337.85 564.98,337.86 563.82,338.73 C562.27,339.43 562.25,339.43 560.67,340.05 C558.84,340.43 558.83,340.43 556.98,340.74 C555.04,340.78 555.03,340.78 553.09,340.74 C551.24,340.43 551.23,340.43 549.40,340.05 C547.82,339.43 547.80,339.43 546.26,338.73 C545.09,337.86 545.08,337.85 543.97,336.92 "/><path d="M550.92,356.16 C552.12,356.55 552.13,356.55 553.34,356.88 C554.69,356.95 554.71,356.95 556.06,356.96 C557.33,356.71 557.34,356.71 558.60,356.40 C559.57,355.88 559.58,355.87 560.52,355.29 "/><path d="M553.91,357.44 C552.93,357.13 552.92,357.13 551.96,356.79 C551.43,356.49 551.44,356.48 550.92,356.16 C550.07,355.56 550.06,355.56 549.21,354.94 "/><path d="M556.34,324.99 C556.80,325.47 556.80,325.48 557.28,325.95 C557.69,326.26 557.69,326.27 558.12,326.57 C558.53,326.75 558.54,326.76 558.96,326.92 C559.42,326.99 559.43,326.99 559.90,327.04 "/><path d="M559.90,327.04 C559.73,327.62 559.73,327.62 559.55,328.20 C559.40,328.60 559.40,328.60 559.25,328.99 C559.10,329.26 559.10,329.27 558.94,329.53 C558.77,329.69 558.77,329.69 558.59,329.85 "/><path d="M558.59,329.85 C557.89,330.15 557.88,330.15 557.16,330.43 C556.32,330.57 556.32,330.57 555.48,330.69 C554.61,330.66 554.60,330.66 553.73,330.60 C552.94,330.40 552.94,330.39 552.15,330.17 C552.04,330.12 552.04,330.11 551.94,330.05 C551.43,329.75 551.43,329.75 550.92,329.46 "/><path d="M550.18,328.55 C550.35,328.39 550.35,328.39 550.52,328.23 C550.68,327.96 550.68,327.96 550.83,327.69 C550.99,327.30 550.99,327.30 551.14,326.90 C551.31,326.32 551.31,326.32 551.48,325.74 "/><path d="M551.48,325.74 C552.12,325.86 552.12,325.86 552.76,325.96 C553.33,325.95 553.34,325.95 553.91,325.91 C554.48,325.77 554.49,325.77 555.06,325.61 C555.70,325.31 555.70,325.31 556.34,324.99 "/><path d="M551.48,325.74 C552.19,325.45 552.19,325.45 552.91,325.16 C553.03,325.14 553.03,325.14 553.15,325.12 C553.88,325.01 553.88,325.00 554.60,324.90 C555.47,324.93 555.47,324.93 556.34,324.99 "/><path d="M567.30,331.66 L567.30,333.90 L566.10,336.04 "/><path d="M543.97,336.04 L542.77,333.90 L542.77,331.66 "/><path d="M560.12,325.42 L561.35,326.82 L561.49,328.38 L560.52,329.85 L560.17,330.05 "/><path d="M550.92,330.73 L549.21,329.51 L548.51,327.99 L548.93,326.44 L550.41,325.13 "/><path d="M567.30,331.66 L567.30,334.79 L566.10,336.92 "/><path d="M543.97,336.92 L542.77,334.79 L542.77,333.90 "/><path d="M542.77,334.79 L542.77,332.84 "/><path d="M560.52,355.29 L558.12,356.79 L556.16,357.44 L553.91,357.44 "/><path d="M549.21,354.94 L548.51,353.43 L548.51,339.68 "/><path d="M551.57,329.84 L556.34,329.10 L556.34,324.99 "/><path d="M550.92,329.46 L550.18,328.55 "/><path d="M551.48,325.74 L551.48,329.77 "/><path d="M551.55,329.83 L551.11,329.51 L550.18,328.55 L550.02,327.54 L550.48,326.57 L551.48,325.74 "/><path d="M556.34,324.99 L557.92,325.41 L559.16,326.13 L559.90,327.04 L560.05,328.05 L559.60,329.02 L558.59,329.85 "/><path d="M556.34,329.10 L558.03,330.07 "/><path d="M561.49,339.71 L561.49,353.82 L560.52,355.29 "/><path d="M567.30,332.54 L567.30,334.79 "/></g></g><g id="Actor_.12"><g style="stroke:#000000;stroke-width:0.705"><path d="M870.37,594.36 C870.54,595.56 870.54,595.57 870.77,596.76 C871.30,597.99 871.31,598.00 871.90,599.21 C872.71,600.26 872.71,600.27 873.57,601.28 C874.38,601.88 874.39,601.89 875.23,602.44 "/><path d="M873.22,599.56 C872.73,598.84 872.73,598.83 872.27,598.09 C871.94,597.31 871.94,597.30 871.65,596.50 C871.53,595.74 871.52,595.74 871.44,594.97 C871.52,594.33 871.52,594.32 871.65,593.69 "/><path d="M871.44,594.97 C871.86,595.46 871.86,595.47 872.27,595.97 C872.55,596.47 872.55,596.48 872.80,596.99 C872.97,597.56 872.97,597.56 873.11,598.14 C873.17,598.85 873.18,598.85 873.22,599.56 "/><path d="M871.72,598.82 C871.15,597.79 871.15,597.78 870.62,596.73 C870.45,596.02 870.48,596.01 870.33,595.29 C870.10,594.11 870.08,594.11 869.87,592.94 C869.85,591.76 869.85,591.76 869.87,590.58 "/><path d="M875.53,592.05 L875.48,592.00 L873.57,591.13 L871.90,591.28 L870.77,592.42 L870.37,594.36 "/><path d="M875.08,602.89 L872.46,600.21 L871.90,599.21 "/><path d="M875.69,600.48 L875.47,600.31 L874.52,599.89 L873.22,599.56 L874.38,600.72 L875.53,601.38 "/><path d="M871.65,593.69 L872.27,592.81 L873.22,592.44 L873.11,592.90 L872.80,593.43 L872.27,594.10 L871.44,594.97 "/><path d="M873.22,599.56 L876.12,597.88 "/><path d="M872.46,600.21 L872.45,600.21 "/><path d="M869.87,590.58 L870.62,587.38 L870.67,587.28 "/><path d="M871.44,594.97 L874.93,592.96 "/><path d="M875.01,592.99 L874.52,592.77 L873.22,592.44 L874.38,592.62 L875.61,593.34 L875.88,593.61 "/><path d="M876.12,595.82 L875.03,593.00 "/></g></g><g id="Actor_.13"><g style="stroke:#000000;stroke-width:0.705"><path d="M563.63,420.94 C563.06,419.91 563.05,419.90 562.53,418.85 C562.35,418.14 562.38,418.13 562.23,417.41 C562.00,416.23 561.98,416.23 561.77,415.06 C561.75,413.88 561.75,416.24 561.77,412.70 "/><path d="M562.28,416.48 C562.44,417.68 562.44,417.69 562.68,418.88 C563.21,420.11 563.21,420.12 563.80,421.33 C564.61,422.38 564.62,422.39 565.47,423.40 C566.28,424.00 566.29,424.01 567.14,424.56 "/><path d="M563.34,417.09 C563.76,417.58 563.77,417.59 564.17,418.09 C564.45,418.59 564.45,418.60 564.71,419.11 C564.87,419.68 564.87,419.68 565.01,420.26 C565.08,420.97 565.08,420.97 565.12,421.68 "/><path d="M565.12,421.68 C564.63,420.96 564.63,420.95 564.17,420.21 C563.85,419.43 563.84,419.42 563.55,418.62 C563.43,417.86 563.43,417.86 563.34,417.09 C563.43,416.45 563.43,416.44 563.55,415.81 "/><path d="M561.77,412.70 L562.53,409.50 L562.57,409.40 "/><path d="M567.44,414.17 L567.38,414.12 L565.47,413.25 L563.80,413.40 L562.68,414.54 L562.28,416.48 "/><path d="M566.98,425.01 L564.36,422.33 L563.80,421.33 "/><path d="M567.60,422.60 L567.37,422.43 L566.42,422.01 L565.12,421.68 L566.28,422.84 L567.44,423.50 "/><path d="M566.92,415.11 L566.42,414.89 L565.12,414.56 L565.01,415.02 L564.71,415.55 L564.17,416.21 L563.34,417.09 "/><path d="M563.55,415.81 L564.17,414.93 L565.12,414.56 L566.28,414.74 L567.52,415.46 L567.78,415.73 "/><path d="M565.12,421.68 L568.02,420.00 "/><path d="M564.36,422.33 L564.36,422.33 "/><path d="M563.34,417.09 L566.83,415.08 "/><path d="M568.02,417.94 L566.93,415.12 "/></g></g><g id="Actor_.14"><g style="stroke:#000000;stroke-width:0.705"><path d="M573.14,383.20 L572.75,382.86 L555.81,373.08 L555.42,372.97 "/><path d="M555.81,373.08 L1117.80,48.61 "/><path d="M555.53,372.91 L851.61,201.97 L850.77,202.46 "/><path d="M1117.80,72.09 L576.14,384.82 "/><path d="M576.42,384.98 L1117.80,72.42 "/><path d="M572.75,382.86 L1117.80,68.18 "/><path d="M1117.80,69.96 L574.29,383.75 "/><path d="M581.23,387.75 L1117.80,77.96 "/><path d="M579.69,386.86 L1117.80,76.18 "/><path d="M600.87,399.21 L600.48,398.87 L583.54,389.09 L1117.80,80.63 "/><path d="M583.54,389.09 L583.15,388.98 "/><path d="M583.26,388.92 L1117.80,80.30 "/><path d="M1117.80,133.99 L601.25,432.22 L601.25,451.79 L1117.80,153.56 "/><path d="M601.25,452.12 L1117.80,153.88 "/><path d="M1117.80,132.21 L601.25,430.44 "/><path d="M601.25,428.31 L1117.80,130.08 "/><path d="M1117.80,125.99 L601.25,424.22 "/><path d="M1117.80,129.75 L601.25,427.98 "/><path d="M1117.80,124.21 L601.25,422.44 "/><path d="M1117.80,101.97 L601.25,400.20 L601.25,419.78 L1117.80,121.54 "/><path d="M1117.80,121.87 L601.25,420.10 "/><path d="M600.48,398.87 L1117.80,100.19 "/><path d="M851.61,201.97 L1117.80,48.28 "/><path d="M1211.59,99.41 L1383.77,0.00 "/><path d="M1211.59,99.73 L1384.34,-0.00 "/><path d="M1211.59,79.84 L1349.88,-0.00 "/><path d="M1211.59,78.06 L1346.80,0.00 "/><path d="M1211.59,75.93 L1343.10,0.00 "/><path d="M1211.59,75.60 L1342.54,-0.00 "/><path d="M1211.59,70.06 L1332.94,-0.00 "/><path d="M1211.59,71.84 L1336.02,-0.00 "/><path d="M1211.59,67.39 L1328.32,-0.00 "/><path d="M1211.59,67.72 L1328.88,0.00 "/><path d="M1211.59,47.82 L1294.43,0.00 "/><path d="M1211.59,46.05 L1291.34,0.00 "/><path d="M1211.59,26.48 L1257.45,0.00 "/><path d="M1211.59,26.15 L1256.89,0.00 "/><path d="M1211.59,23.81 L1252.83,-0.00 "/><path d="M1211.59,22.03 L1249.75,-0.00 "/><path d="M1211.59,17.94 L1242.67,0.00 "/><path d="M1211.59,15.81 L1238.97,-0.00 "/><path d="M1211.59,18.27 L1232.81,6.02 "/><path d="M1211.59,14.03 L1235.89,0.00 "/><path d="M1228.62,8.44 L1243.23,0.00 "/></g></g><g id="Actor_.15"><g style="stroke:#000000;stroke-width:0.705"><path d="M852.83,618.95 C853.34,618.51 853.35,618.50 853.89,618.11 C855.53,617.39 855.53,617.37 857.20,616.72 C859.13,616.31 859.14,616.32 861.09,615.99 C863.13,615.95 863.14,615.97 865.18,615.99 C865.93,616.11 865.94,616.11 866.69,616.27 "/><path d="M852.06,618.30 C851.40,617.17 851.39,617.15 850.79,615.98 C850.43,614.54 850.43,614.53 850.14,613.06 C850.11,611.38 850.11,611.37 850.14,609.68 C850.44,607.85 850.47,607.85 850.79,606.01 C850.81,605.96 850.81,605.96 850.83,605.91 C851.45,604.07 851.42,604.06 852.06,602.23 C852.95,600.38 852.95,600.37 853.89,598.54 "/><path d="M872.38,609.21 C871.26,610.94 871.25,610.94 870.09,612.64 C868.79,614.15 868.79,614.16 867.45,615.63 C866.04,616.85 866.04,616.85 864.60,618.03 C863.15,618.90 863.15,618.91 861.67,619.72 C860.26,620.20 860.25,620.21 858.82,620.61 C857.51,620.68 857.49,620.68 856.18,620.67 "/><path d="M853.89,598.54 C855.01,596.81 855.01,596.81 856.18,595.11 C857.47,593.60 857.48,593.59 858.82,592.12 C860.22,590.90 860.23,590.89 861.67,589.72 C863.11,588.85 863.12,588.84 864.60,588.03 C866.01,587.55 866.02,587.54 867.45,587.14 C868.76,587.07 868.78,587.07 870.09,587.08 "/><path d="M874.20,589.45 C874.87,590.59 874.87,590.60 875.47,591.77 C875.83,593.21 875.83,593.22 876.12,594.69 C876.16,596.37 876.15,596.38 876.12,598.07 C875.83,599.90 875.82,599.91 875.47,601.74 C874.86,603.63 874.86,603.64 874.20,605.52 C873.31,607.37 873.31,607.38 872.38,609.21 "/><path d="M816.92,630.56 L863.13,550.51 L909.35,577.19 L863.13,657.24 L816.92,630.56 "/><path d="M853.62,619.65 L852.06,618.30 "/><path d="M853.89,598.54 L872.38,609.21 "/><path d="M856.18,620.67 L853.89,619.88 L853.62,619.65 "/><path d="M862.57,619.20 L859.77,619.63 L857.61,620.64 "/><path d="M870.22,589.11 L853.89,598.54 "/><path d="M870.09,587.08 L872.38,587.87 L874.20,589.45 "/><path d="M863.13,657.24 L909.35,630.56 L909.35,577.19 "/></g></g><g id="Actor_.16"><g style="stroke:#000000;stroke-width:0.705"><path d="M881.23,561.08 L880.85,560.74 L863.91,550.96 L863.52,550.85 "/><path d="M863.91,550.96 L1117.80,404.37 "/><path d="M863.62,550.79 L1117.80,404.04 "/><path d="M882.39,561.63 L1117.80,425.72 "/><path d="M1117.80,423.94 L880.85,560.74 "/><path d="M1117.80,431.94 L887.78,564.74 "/><path d="M884.24,562.70 L1117.80,427.85 "/><path d="M884.52,562.86 L1117.80,428.18 "/><path d="M1117.80,436.39 L891.63,566.97 L891.25,566.86 "/><path d="M891.63,566.97 L908.58,576.75 L908.96,577.09 "/><path d="M891.35,566.80 L1117.80,436.06 "/><path d="M889.32,565.63 L1117.80,433.72 "/><path d="M1117.80,509.32 L909.35,629.67 L909.35,610.10 L1117.80,489.75 "/><path d="M1117.80,509.64 L909.35,630.00 "/><path d="M1117.80,487.97 L909.35,608.32 "/><path d="M909.35,606.19 L1117.80,485.84 "/><path d="M909.35,602.10 L1117.80,481.75 "/><path d="M1117.80,485.51 L909.35,605.86 "/><path d="M909.35,600.32 L1117.80,479.97 "/><path d="M1117.80,457.73 L909.35,578.08 L909.35,597.66 L1117.80,477.30 "/><path d="M909.35,597.98 L1117.80,477.63 "/><path d="M908.58,576.75 L1117.80,455.96 "/><path d="M1211.59,455.17 L1500.00,288.66 "/><path d="M1211.59,455.49 L1500.00,288.98 "/><path d="M1211.59,433.82 L1500.00,267.31 "/><path d="M1211.59,435.60 L1500.00,269.09 "/><path d="M1211.59,431.69 L1500.00,265.18 "/><path d="M1211.59,431.36 L1500.00,264.85 "/><path d="M1211.59,425.82 L1500.00,259.31 "/><path d="M1211.59,427.60 L1500.00,261.09 "/><path d="M1211.59,423.15 L1500.00,256.64 "/><path d="M1211.59,423.48 L1500.00,256.96 "/><path d="M1211.59,403.58 L1500.00,237.07 "/><path d="M1211.59,401.81 L1500.00,235.29 "/><path d="M1211.59,382.24 L1500.00,215.73 "/><path d="M1211.59,379.57 L1500.00,213.06 "/><path d="M1211.59,381.91 L1500.00,215.40 "/><path d="M1211.59,377.79 L1500.00,211.28 "/><path d="M1211.59,373.70 L1500.00,207.19 "/><path d="M1211.59,369.79 L1500.00,203.27 "/><path d="M1211.59,371.57 L1500.00,205.05 "/><path d="M1500.00,207.51 L1211.59,374.03 "/><path d="M1211.59,350.22 L1500.00,183.71 "/><path d="M1211.59,349.89 L1500.00,183.38 "/></g></g><g id="Actor_.17"><g style="stroke:#000000;stroke-width:0.705"><path d="M545.79,420.66 C544.86,422.49 544.85,422.50 543.97,424.35 C543.31,426.23 543.33,426.24 542.70,428.13 C542.65,428.35 542.66,428.35 542.62,428.57 C542.33,430.19 542.30,430.19 542.05,431.80 C542.02,433.49 542.01,433.50 542.05,435.18 C542.34,436.65 542.34,436.66 542.70,438.10 C543.29,439.27 543.30,439.28 543.97,440.42 "/><path d="M548.08,442.79 C549.39,442.80 549.41,442.80 550.72,442.73 C552.15,442.33 552.16,442.32 553.57,441.84 C555.05,441.03 555.05,441.02 556.50,440.15 C557.94,438.97 557.95,438.97 559.35,437.75 C560.69,436.28 560.69,436.27 561.99,434.76 C563.16,433.06 563.16,433.06 564.28,431.33 "/><path d="M545.79,420.66 C546.91,418.93 546.92,418.93 548.08,417.23 C549.38,415.72 549.38,415.72 550.72,414.24 C551.66,413.42 551.67,413.44 552.63,412.63 C553.10,412.24 553.09,412.22 553.57,411.84 C555.03,410.98 555.02,410.96 556.50,410.15 C557.91,409.67 557.92,409.66 559.35,409.26 C560.66,409.19 560.68,409.19 561.99,409.20 "/><path d="M566.10,411.57 C566.76,412.71 566.77,412.72 567.37,413.89 C567.65,414.96 567.62,414.98 567.86,416.07 C567.94,416.44 567.96,416.44 568.02,416.81 C568.04,418.49 568.06,418.50 568.02,420.19 C567.73,422.02 567.73,422.03 567.37,423.86 C566.77,425.75 566.76,425.76 566.10,427.63 C565.22,429.49 565.21,429.50 564.28,431.33 "/><path d="M558.59,438.39 C557.84,438.23 557.84,438.23 557.08,438.11 C555.04,438.09 555.03,438.07 552.99,438.11 C551.04,438.44 551.03,438.43 549.10,438.84 C547.44,439.49 547.43,439.51 545.79,440.23 C545.25,440.62 545.24,440.63 544.73,441.07 "/><path d="M509.73,453.20 L508.82,452.68 L555.04,372.63 L601.25,399.31 L555.04,479.36 L509.73,453.20 "/><path d="M562.12,411.23 L545.79,420.66 "/><path d="M543.97,440.42 L545.79,442.00 L547.18,442.48 L548.08,442.79 "/><path d="M564.28,431.33 L545.79,420.66 "/><path d="M561.99,409.20 L564.28,409.99 L566.10,411.57 "/><path d="M554.47,441.32 L551.67,441.75 L549.52,442.76 "/><path d="M555.04,479.36 L601.25,452.68 L601.25,399.31 "/></g></g><g id="paperID" visibility="hidden" opacity="0.00" transform="scale(0.000100)"><path style="stroke:#000000;stroke-width:0.500;fill:#e6e6e6;fill-rule:evenodd" d="M-2000.00,-2000.00L3500.00,-2000.00L3500.00,3000.00L-2000.00,3000.00zM0.00,0.00L1500.00,0.00L1500.00,1000.00L0.00,1000.00z"/><path style="fill:#000000;fill-opacity:0.118" d="M3.00,1000.00L1500.00,1000.00L1500.00,3.00L1503.00,3.00L1503.00,1003.00L3.00,1003.00z"/></g><g id="ToolTip" visibility="hidden" opacity="0" transform="translate(0,0)"><rect id="ToolTipShadow" opacity="0.20" fill="black" stroke="none" x="0" y="0" width="30" height="8"/><rect id="ToolTipBG" fill="#ffffe1" stroke="black" x="0" y="0" width="30" height="8"/><text xml:space="preserve" id="ToolTipText" fill="black" x="0" y="0" width="30" height="8">tooltip</text></g></g></svg>
