<?xml version="1.0" encoding="utf-8"?>
<!-- Generator: Adobe Illustrator 27.2.0, SVG Export Plug-In . SVG Version: 6.00 Build 0)  -->
<svg version="1.1" xmlns="http://www.w3.org/2000/svg" xmlns:xlink="http://www.w3.org/1999/xlink" x="0px" y="0px"
	 viewBox="0 0 1417.3 1417.3" style="enable-background:new 0 0 1417.3 1417.3;" xml:space="preserve">
<style type="text/css">
	.st0{fill:#4B86A0;}
	.st1{fill:none;stroke:#000000;stroke-width:5;stroke-linecap:round;stroke-linejoin:round;stroke-miterlimit:14.6941;}
</style>
<g id="fill" xmlns:svg="http://www.w3.org/2000/svg" xmlns:inkscape="http://www.inkscape.org/namespaces/inkscape" xmlns:sodipodi="http://sodipodi.sourceforge.net/DTD/sodipodi-0.dtd">
	<g>
		<polygon class="st0" points="121.1,1156.2 122.2,1155.5 121.3,1156.1 		"/>
		<polygon class="st0" points="1414.6,373.1 1414.6,374.4 1414.7,374.3 		"/>
		<polygon class="st0" points="1414.6,373.1 1414.6,373.1 1414.6,373.1 1414.6,365.3 1414,358.5 1412.9,351.7 1411.3,344.8 
			1409.3,337.9 1406.9,330.8 1404.1,323.9 1404.1,323.9 1404.1,323.9 1404.1,323.9 1306.1,257.7 1306.1,257.7 1306.1,257.7 
			1304,256.7 1304,256.7 1304,256.7 1304,256.7 1304,256.7 1294.8,255.5 19.4,991.8 19.4,991.8 19.4,991.8 15.7,995 14.3,996.6 
			12.5,998.8 9.6,1003.1 7.2,1008 5.3,1013.4 3.9,1019.2 3,1025.4 2.6,1032 2.6,1032.5 2.6,1041.7 2.9,1048.1 3.7,1054.8 
			5.5,1063.8 5.5,1063.8 8.8,1075.6 11.5,1082.7 14.4,1089.6 17.8,1096.4 21.5,1103.2 27,1111.9 34.4,1121.9 41.4,1129.8 
			49.5,1137.7 54.8,1142.1 60.2,1146 65.6,1149.4 65.6,1149.4 65.7,1149.4 68.7,1151.2 74.1,1154.2 74.1,1154.2 80,1157 
			85.8,1159.2 91.6,1160.7 97,1161.6 102.4,1161.8 107.5,1161.4 112.4,1160.3 116.9,1158.6 121.3,1156.1 121.3,1156.1 122.2,1155.5 
			122.2,1155.5 1396.5,419.9 1400.3,416.9 1402,415.1 1403.7,413.3 1405.2,411.2 1406.7,409.2 1409.3,404.5 1411.4,399.3 
			1412.9,393.6 1413.9,388.5 1414,387.6 1414.6,381.1 1414.6,374.4 1414.6,374.4 		"/>
	</g>
	
		<sodipodi:namedview  bordercolor="#000000" borderopacity="0.25" id="namedview11023" inkscape:deskcolor="#d1d1d1" inkscape:document-units="mm" inkscape:pagecheckerboard="0" inkscape:pageopacity="0.0" inkscape:showpageshadow="2" pagecolor="#ffffff" showgrid="false">
		</sodipodi:namedview>
	<script  id="script7385" type="text/ecmascript">
		<![CDATA[
if(typeof(top) != "undefined")
{
	top.ShowPaper = ShowPaper;
}
function ShowPaper()
{
  var svgDocument = getDocument();
  var paper = svgDocument.getElementById("paperID");
  if(paper)
  {
    paper.setAttribute("transform","scale(1)");
    paper.setAttribute("opacity","1");
    paper.setAttribute("visibility","visible");
  }
  var svg = svgDocument.getRootElement();
  if(svg)
  {
    svg.setAttribute("width","510.000mm");
    svg.setAttribute("height","510.000mm");
    svg.setAttribute("viewBox","-5.000000 -5.000000 510.000000 510.000000");
  }
}

			]]>
	</script>
</g>
<g id="stroke">
	<g id="layer3" transform="matrix(1.2959377,0,0,1.2959377,-73.990905,-71.107445)">
		<path id="path7403" class="st1" d="M61.3,875.7l-1.4-6.9l-0.6-5.2l-0.3-5v-7.5l0.3-5.1l0.7-4.8l1.1-4.5l1.4-4.1l1.8-3.8l2.2-3.3
			l1.4-1.7l1.1-1.2l2.8-2.5L1056.2,252l7.1,1l1.6,0.7l75.7,51.1l2.2,5.4l1.8,5.4l1.5,5.4l1.2,5.3l0.9,5.2l0.5,5.2l0,12.2l-0.5,5
			l-0.9,4.7l-1.2,4.4l-1.6,4l-2,3.6l-2.3,3.2l-2.6,2.8l-2.9,2.3l-987.3,570l-3.5,1.3l-3.7,0.9l-4,0.3l-4.1-0.2l-4.2-0.7l-4.5-1.2
			l-4.5-1.7l-4.5-2.2l-6.5-3.7l-4.2-2.6l-4.1-3l-4.1-3.4l-6.3-6.1l-5.4-6.1l-5.7-7.8l-4.3-6.7l-2.9-5.2l-2.6-5.3l-2.2-5.3l-2-5.5
			L61.3,875.7 M1148.6,342.2l0.1-0.7 M1064.7,253.7l0.2,0 M114.3,945.5l-3.1-1.8 M1148.7,343.7l-0.5-7l-0.5-4.1l-1.1-5.8l-1.5-5.8
			l-1.8-5.9l-2.3-5.8l-0.4-4.6l-6.1-3.7L150.4,869.2l6.5,8.2l984-568.1l-6.5-8.3l-71.2-48L79.2,821.2l71.2,48l-2.4,8.6l8.9-0.3
			l2.2,5.9l1.9,5.9l1.5,5.8l1.1,5.8l0.7,5.6l0.3,5.4l-0.1,6.2l-0.4,4l-0.8,4.7l-1.2,4.4l-1.6,4l-2,3.6l-2.3,3.2l-2.6,2.7l-3,2.3
			 M59.1,851.6v-0.4 M59.1,858.7l0.1-4.8l0.5-4.5l0.8-4.3l1.2-4l1.5-3.6l1.8-3.3l2.2-2.9l2.5-2.5l2.8-2l-0.3-6.6l7.1,1l-6.8,5.6
			l75.6,51l2.7,7l2.8,9.2l1.2,5.3l0.8,5.2l0.5,5.1l0.1,4.9l-0.2,4.7l-0.6,4.5l-1,4.1l-1.3,3.9l-1.6,3.5l-2,3.1l-2.3,2.7l-2.6,2.3
			l-2.8,1.9l-3.1,1.4l-3.3,1l-3.5,0.5l-3.7,0.1l-3.9-0.4l-4-0.9l-4.1-1.3l-4.9-2l-3.4-1.9"/>
	</g>
</g>
</svg>
