<?xml version="1.0" encoding="UTF-8" standalone="no"?>
<svg
   width="230.97101mm"
   height="261.091mm"
   viewBox="0 0 230.97101 261.091"
   stroke-linejoin="round"
   stroke-linecap="round"
   fill="none"
   fill-rule="evenodd"
   version="1.1"
   id="svg1866"
   xmlns="http://www.w3.org/2000/svg"
   xmlns:svg="http://www.w3.org/2000/svg">
  <desc
     id="desc1751">Composer Export</desc>
  <script
     type="text/ecmascript"
     id="script1753"><![CDATA[
if(typeof(top) != "undefined")
{
	top.ShowPaper = ShowPaper;
}
function ShowPaper()
{
  var svgDocument = getDocument();
  var paper = svgDocument.getElementById("paperID");
  if(paper)
  {
    paper.setAttribute("transform","scale(1)");
    paper.setAttribute("opacity","1");
    paper.setAttribute("visibility","visible");
  }
  var svg = svgDocument.getRootElement();
  if(svg)
  {
    svg.setAttribute("width","510.000mm");
    svg.setAttribute("height","510.000mm");
    svg.setAttribute("viewBox","-5.000000 -5.000000 510.000000 510.000000");
  }
}
]]></script>
  <defs
     id="defs1755" />
  <g
     id="g1864"
     transform="translate(-134.55451,-119.4545)">
    <path
       style="display:inline;fill:#cbcbcb"
       d="m 248.47,121.26 4.75,1.2 5.96,1.99 8.75,3.56 6.76,3.57 11.1,6.77 7.56,5.55 7.54,6.35 2.42,2.35 5.16,4.76 7.55,8.34 4.77,5.56 6.75,8.73 7.55,11.12 7.55,13.11 6.31,12.75 4.36,10.32 4.36,12.33 3.01,11.37 0.23,1.19 0.96,4.37 0.23,1.19 0.57,2.77 0.22,1.6 0.18,1.2 0.22,1.17 0.18,1.2 0.21,1.6 0.19,1.17 0.21,2.01 0.18,2.36 0.22,2.41 0.18,2.35 v 14.72 l -0.39,5.96 -1.2,7.95 -1.43,6.19 -2.37,7.16 -2.91,6.22 -5.39,8.11 -2.18,2.58 -4.76,4.38 -3.78,2.58 -49.68,28.95 -9.26,4.64 -5.55,1.59 -5.72,0.97 -1.96,0.17 -8.76,0.01 -5.54,-0.82 -4.13,-0.72 -7.14,-1.99 -7.94,-3.19 -9.54,-4.76 -12.25,-7.6 -8.75,-6.74 -7.55,-6.75 -6.76,-6.34 -7.97,-9.11 -5.92,-7.18 -8.72,-12.33 -5.61,-9.09 -6.35,-11.51 -6.37,-13.49 -5.17,-13.9 -2.79,-9.12 -1.51,-6.12 -0.03,-1.06 -0.19,-0.13 -0.97,-4.37 -0.04,-1.06 -0.19,-0.13 -0.56,-2.77 -0.06,-1.47 -0.17,-0.13 -0.18,-1.2 -0.04,-1.04 -0.18,-0.13 -0.18,-1.2 -0.04,-1.46 -0.17,-0.14 -0.19,-1.17 -0.05,-1.87 -0.16,-0.14 -0.18,-2.36 -0.06,-2.26 -0.16,-0.15 -0.18,-2.35 v -14.72 l 0.39,-5.95 0.99,-6.35 0.55,-3.32 1.99,-7.54 3.19,-7.94 3,-5.34 3.79,-5.35 4.75,-5.16 5.01,-3.73 16.02,-9.41 40.11,-23.03 6.22,-2.51 4.77,-1.2 5.8,-0.62 8.76,-0.01 z"
       id="path1759" />
    <path
       style="display:inline;fill:#272727"
       d="m 196.59,170.27 5.02,0.63 4.75,1.21 5.96,1.98 8.75,3.96 7.13,4.38 7.17,5.15 7.14,5.96 7.98,7.91 4.37,4.76 4.77,5.56 7.9,10.36 8.39,13.46 5.52,10.37 5.55,12.31 3.96,11.13 3.02,10.57 0.22,1.21 0.97,4.36 0.22,1.19 0.37,0.94 0.19,2.25 0.24,1.17 0.17,1.2 0.22,1.59 0.17,1.2 0.24,1.17 0.17,1.98 0.21,2.41 0.18,2.36 v 10.35 l -0.17,2.76 -1.02,7.17 -1.03,4.61 -2.37,7.15 -3.98,7.54 -3.73,5.01 -4.96,4.57 -3.57,2.39 -2.96,1.41 -6.23,2.11 -4.88,0.68 h -9.01 l -5.57,-0.79 -6.36,-1.58 -7.13,-2.8 -9.54,-4.75 -9.1,-6 -7.93,-6.36 -5.56,-5.16 -7.95,-7.94 -1.98,-2.39 -7.59,-9.48 -8.28,-11.97 -6.01,-10.68 -5.57,-11.11 -5.56,-14.29 -2.78,-9.14 -1.58,-6.36 -1.19,-5.56 -1.19,-7.95 -0.4,-4.76 v -15.76 l 1.18,-8.75 2.39,-8.73 2.79,-6.35 3.62,-5.91 2.57,-2.99 3.77,-3.77 3.02,-2.14 5.29,-2.66 3.85,-1.31 3.03,-0.63 3.17,-0.39 6.75,-0.23 z"
       id="path1761" />
    <path
       style="display:inline;fill:#cbcbcb"
       d="m 209.55,203.47 7.55,1.98 5.96,2.78 6,3.53 7.93,5.97 2.79,2.37 5.55,5.97 4.78,5.54 5.1,7.21 5.62,9.48 3.93,7.98 3.55,9.55 2.8,9.92 1.58,11.12 v 8.86 l -0.39,3.57 -1.19,5.96 -2.12,5.43 -2.77,4.78 -4.21,4.52 -3.57,2.39 -4.02,1.93 -3.68,1.09 -3.33,0.56 -5.57,-0.22 -2.77,-0.4 -7.29,-2.32 -5.15,-2.4 -7.56,-4.36 -7.51,-5.59 -7.14,-6.76 -1.98,-2.39 -6,-7.5 -5.56,-8.34 -7.15,-14.29 -3.99,-11.9 -0.72,-2.54 -0.05,-1.05 -0.17,-0.15 -0.97,-5.16 -0.04,-1.05 -0.18,-0.13 -0.19,-1.19 -0.05,-2.26 -0.16,-0.15 -0.18,-2.35 v -9.16 l 0.17,-2.76 0.41,-2.8 1.24,-5.42 2.89,-7.03 2.64,-3.72 2.57,-2.99 3.02,-2.14 3.18,-1.98 5.95,-1.99 3.18,-0.4 h 4.49 z"
       id="path1763" />
    <path
       id="path1857"
       style="stroke:#000000;stroke-width:1.411"
       d="m 136.12,230.85 1.42,9.42 2.06,9.61 2.69,9.74 3.29,9.79 3.88,9.76 4.43,9.66 4.95,9.49 5.44,9.25 5.87,8.93 6.27,8.54 6.61,8.1 6.92,7.59 7.16,7.01 7.35,6.4 7.48,5.73 7.57,5.01 9.93,5.62 7.74,3.57 7.64,2.73 7.49,1.88 7.27,1.02 7,0.14 6.68,-0.74 6.31,-1.6 5.9,-2.47 51.26,-29.59 5.42,-3.3 4.92,-4.12 4.38,-4.89 3.8,-5.65 3.19,-6.34 2.56,-7 1.92,-7.6 1.24,-8.15 0.58,-8.62 v -2.65 l -0.1,-8.81 -0.76,-9.16 -1.42,-9.42 -2.06,-9.61 -2.69,-9.74 -3.29,-9.79 -3.88,-9.76 -4.43,-9.66 -4.95,-9.49 -5.33,-9.07 -5.98,-9.11 -6.27,-8.54 -6.46,-7.91 -7.07,-7.78 -7.16,-7.01 -7.29,-6.35 -7.54,-5.78 -7.57,-5.01 -2.16,-1.25 -7.77,-4.37 -7.74,-3.57 -7.64,-2.73 -7.49,-1.88 -7.27,-1.02 -7,-0.14 -6.69,0.74 -6.3,1.6 -5.9,2.47 -51.26,29.59 -5.42,3.3 -4.92,4.12 -4.38,4.89 -3.8,5.65 -2.73,5.43 -0.46,0.91 -2.56,7 -1.92,7.6 -1.24,8.15 -0.58,8.62 0.1,11.46 0.76,9.16 m 228.59,56.66 0.03,-0.39 m -28.16,58.38 0.15,-0.06 m -56.57,-210.51 0.33,0.19 m 84.25,154.65 -0.11,-9.04 -0.78,-9.38 -1.01,-6.76 -0.44,-2.9 -2.11,-9.87 -2.76,-9.98 -3.38,-10.05 -3.97,-10 -4.55,-9.92 -5.08,-9.74 -5.57,-9.47 -6.02,-9.17 -6.43,-8.76 -6.79,-8.3 -2.51,-2.76 -4.58,-5.02 -7.34,-7.2 -7.54,-6.56 -7.68,-5.88 -7.76,-5.14 m -21.5,189.49 1.11,-0.64 m -33.18,-142.55 -1.02,-0.58 1.02,0.58 6.29,4.17 6.51,4.98 6.4,5.57 6.25,6.12 6.02,6.61 5.77,7.07 5.47,7.44 5.12,7.79 4.73,8.06 4.32,8.27 3.86,8.42 3.38,8.52 2.88,8.53 2.34,8.49 1.8,8.39 1.23,8.2 0.66,7.99 0.07,5.42 m -75.14,-131.22 -0.93,-0.49 1.95,1.09 -1.02,-0.6 m 29.47,103.24 -0.01,-0.78 -0.26,-3.17 -0.49,-3.26 -0.72,-3.33 -0.93,-3.37 -1.14,-3.39 -1.34,-3.38 -1.53,-3.34 -1.72,-3.29 -1.88,-3.2 -2.03,-3.09 -2.17,-2.95 -2.29,-2.81 -2.39,-2.62 -2.48,-2.43 -2.55,-2.22 -2.58,-1.97 -2.27,-1.51 m -0.48,86.51 -0.31,-0.21 m -0.95,47.71 -0.32,-0.21 m -15.71,-138.41 2.25,-0.25 2.37,0.04 2.45,0.35 2.53,0.63 2.58,0.93 2.61,1.2 2.98,1.71 -0.63,-0.35 -2.41,-1.12 -2.39,-0.85 -2.34,-0.59 -2.27,-0.32 -2.19,-0.04 -2.09,0.23 m -17.16,-22.85 3.12,-1.31 3.34,-0.85 3.56,-0.39 3.71,0.08 3.87,0.54 3.98,1 4.05,1.45 4.11,1.89 4.14,2.33 4.12,2.73 4.07,3.12 4.01,3.48 3.9,3.83 3.77,4.13 3.6,4.41 3.43,4.68 3.19,4.84 2.96,5.04 2.7,5.17 2.41,5.27 2.11,5.32 1.8,5.33 1.46,5.31 1.13,5.24 0.77,5.13 0.41,4.98 0.06,4.81 -0.31,4.58 -0.66,4.33 -1.02,4.03 -1.36,3.72 -1.7,3.37 -2.01,3 -2.33,2.6 -2.61,2.19 -2.88,1.75 -3.13,1.31 -3.36,0.85 m -57.97,-71.63 0.49,3.26 0.71,3.32 0.93,3.38 1.14,3.39 1.34,3.37 1.54,3.35 1.71,3.28 1.88,3.21 2.03,3.09 2.17,2.95 2.29,2.81 2.4,2.62 2.48,2.43 2.54,2.21 2.59,1.99 2.62,1.74 2.62,1.47 2.61,1.2 2.58,0.93 2.53,0.63 2.45,0.34 2.37,0.05 2.25,-0.25 2.13,-0.54 1.99,-0.83 1.83,-1.11 1.66,-1.39 1.48,-1.66 1.28,-1.9 1.08,-2.14 0.86,-2.37 0.65,-2.56 0.42,-2.75 0.2,-2.91 -0.03,-2.27 -0.15,2.32 -0.39,2.54 -0.6,2.38 -0.8,2.18 -1,1.98 -1.19,1.77 -1.36,1.53 -1.54,1.28 -1.7,1.04 -1.84,0.77 -1.97,0.5 -2.09,0.23 -2.19,-0.05 -2.27,-0.32 -2.34,-0.58 -2.39,-0.86 -2.42,-1.11 -2.43,-1.37 -2.42,-1.6 -2.4,-1.84 -2.35,-2.05 -2.3,-2.25 -2.21,-2.43 -2.13,-2.6 -2,-2.73 -1.89,-2.87 -1.74,-2.96 -1.58,-3.04 -1.43,-3.1 -1.24,-3.13 -1.06,-3.14 -0.86,-3.12 -0.66,-3.08 -0.45,-3.02 -0.24,-2.93 -0.04,-2.83 0.18,-2.69 0.39,-2.54 0.6,-2.38 0.8,-2.19 1,-1.98 1.19,-1.76 1.36,-1.53 1.54,-1.29 1.7,-1.03 1.87,-0.78 1.94,-0.49 m -3.45,-1.57 -2.13,0.54 -1.99,0.83 -1.83,1.11 -1.66,1.39 -1.48,1.66 -1.28,1.9 -1.08,2.14 -0.86,2.36 -0.65,2.57 -0.42,2.75 -0.19,2.91 0.03,3.05 0.27,3.17 m -8.33,-83.4 5.51,-0.6 5.77,0.12 6,0.83 6.18,1.56 6.3,2.25 6.38,2.94 1.61,0.91 -3.96,-2.26 -6.58,-3.03 -6.49,-2.33 -6.36,-1.6 -6.19,-0.86 -5.95,-0.12 -5.68,0.63 m -3.55,69.53 0.29,-4.37 0.64,-4.12 0.96,-3.85 1.3,-3.54 1.61,-3.21 1.93,-2.86 2.24,-2.5 2.46,-2.06 2.75,-1.67 2.98,-1.25 3.2,-0.81 3.38,-0.37 3.55,0.07 3.68,0.51 3.79,0.95 3.87,1.39 3.91,1.8 3.94,2.22 3.93,2.6 3.88,2.97 3.82,3.32 3.72,3.65 3.59,3.94 3.43,4.2 3.26,4.44 3.05,4.63 2.82,4.8 2.57,4.93 2.3,5.02 2.01,5.07 1.71,5.08 1.4,5.06 1.07,4.99 0.73,4.89 0.4,4.75 0.05,4.58 -0.29,4.36 -0.63,4.13 -0.97,3.85 -1.3,3.54 -1.61,3.21 -1.93,2.86 -2.21,2.48 -2.49,2.08 -2.75,1.67 -2.98,1.25 -3.2,0.81 -3.38,0.37 -3.54,-0.07 -3.69,-0.51 -3.78,-0.95 -3.87,-1.39 -3.9,-1.79 -0.96,-0.54 3.3,1.88 4.11,1.89 4.05,1.46 3.98,1 3.86,0.54 3.72,0.07 3.55,-0.39 m -28.55,-7.55 1.98,1.1 -3,-1.69 -3.92,-2.6 -3.89,-2.97 -3.82,-3.33 -3.71,-3.64 -3.59,-3.94 -3.44,-4.2 -3.26,-4.44 -3.04,-4.64 -2.82,-4.8 -2.58,-4.92 -2.3,-5.02 -2.01,-5.07 -1.71,-5.08 -1.4,-5.06 -1.07,-4.99 -0.73,-4.89 -0.4,-4.76 -0.05,-7.22 0.31,-4.58 0.66,-4.33 1.02,-4.04 1.36,-3.71 1.69,-3.38 2.02,-2.99 2.33,-2.6 2.61,-2.19 4,-2.4 3.14,-1.31 3.35,-0.85 3.54,-0.39 3.72,0.07 3.55,0.5 4.29,1.04 4.06,1.46 4.11,1.89 4.14,2.33 4.11,2.72 4.08,3.12 4,3.49 3.91,3.82 3.77,4.15 3.61,4.42 3.41,4.64 3.2,4.87 2.95,5.03 2.7,5.17 2.42,5.28 2.11,5.31 1.79,5.33 1.47,5.32 1.12,5.22 0.77,5.14 0.42,5 0.05,4.79 -0.3,4.52 -0.67,4.38 -1.02,4.04 -1.36,3.72 -1.69,3.37 -2.02,3 -2.32,2.59 -2.61,2.19 -3.07,1.83 m -94.49,-168.23 5.9,-2.46 6.3,-1.61 6.69,-0.73 7,0.14 7.27,1.02 7.49,1.88 7.64,2.73 7.74,3.57 7.77,4.37 7.76,5.14 7.68,5.87 7.53,6.56 7.35,7.2 7.09,7.78 6.78,8.31 6.43,8.76 6.03,9.16 5.57,9.48 5.08,9.74 4.54,9.9 3.98,10.02 3.38,10.04 2.76,9.99 2.19,10.41 1.37,9.11 0.78,9.39 0.11,9.04 -0.58,8.62 -1.25,8.14 -1.91,7.6 -2.56,7 -0.71,1.41 -2.49,4.94 -3.79,5.64 -4.38,4.9 -4.92,4.11 -5.42,3.3 m -9.76,-19.86 -4.67,1.95 -5.21,1.33 -5.52,0.61 -5.78,-0.11 -5.99,-0.84 -6.18,-1.55 -6.31,-2.26 -6.38,-2.94 -6.42,-3.61 -6.39,-4.24 -6.34,-4.84 -6.22,-5.42 -6.06,-5.94 -5.85,-6.42 -5.59,-6.85 -5.31,-7.23 -4.97,-7.55 -4.59,-7.82 -4.19,-8.02 -3.75,-8.19 -3.28,-8.26 -2.79,-8.29 -2.28,-8.24 -1.74,-8.13 -0.16,-1.06 -1.04,-6.91 -0.64,-7.75 -0.09,-7.45 0.47,-7.12 1.03,-6.72 1.58,-6.27 2.12,-5.77 2.63,-5.24 3.13,-4.65 3.61,-4.04 4.06,-3.4 3.55,-2.16 m -26.29,66.3 -0.71,-4.71 -0.66,-7.98 -0.09,-7.68 0.49,-7.33 1.06,-6.92 1.62,-6.46 2.18,-5.94 2.72,-5.4 3.21,-4.77 3.74,-4.19 4.18,-3.5 4.61,-2.81 5.01,-2.09 5.36,-1.36 m 3.46,1.56 -5.22,1.33 -4.86,2.03 -4.47,2.72 -4.06,3.4 -3.61,4.04 -3.13,4.66 -2.64,5.23 -2.11,5.78 -1.58,6.27 -1.03,6.71 -0.47,7.12 0.08,7.46 0.65,7.74 1.2,7.97 1.74,8.14 2.27,8.24 2.79,8.28 3.28,8.26 3.75,8.18 4.19,8.03 4.6,7.82 4.97,7.55 5.3,7.24 1.99,2.43 3.61,4.42 5.85,6.42 6.06,5.94 6.22,5.41 6.33,4.84 6.4,4.25 6.41,3.6 6.39,2.94 6.31,2.26 6.17,1.55 6,0.84 5.77,0.12 5.52,-0.61 3.77,-0.96 1.44,-0.36 4.85,-2.04 4.5,-2.73 4.04,-3.39 3.61,-4.04 3.13,-4.65 2.64,-5.24 2.11,-5.77 1.58,-6.27 1.03,-6.72 0.45,-6.72 0.02,2.26 -0.48,7.33 -1.07,6.92 -1.62,6.46 -2.18,5.95 -2.65,5.25 -3.3,4.94 -3.71,4.16 -4.19,3.5 -4.61,2.81 -4.98,2.08 -5.39,1.37 -5.68,0.63 -5.95,-0.12 -6.18,-0.86 -6.37,-1.6 -6.49,-2.33 -6.58,-3.03 -6.61,-3.71 -6.59,-4.37 -6.52,-5 -6.41,-5.57 -6.24,-6.12 -6.03,-6.62 -5.77,-7.06 -5.46,-7.44 -5.13,-7.79 -4.73,-8.06 -4.32,-8.27 -3.86,-8.43 -3.38,-8.51 -2.88,-8.53 -2.34,-8.49 -1.79,-8.39 -0.53,-3.5 m -12.6,-27.19 0.56,-8.41 1.22,-7.94 1.87,-7.41 2.49,-6.82 3.11,-6.19 3.71,-5.5 4.27,-4.78 4.79,-4.01 5.29,-3.22 5.75,-2.4 6.15,-1.56 6.52,-0.72 6.82,0.14 7.09,0.99 7.3,1.83 7.41,2.65 7.59,3.49 7.58,4.27 6.74,4.47 0.82,0.54 7.48,5.73 7.76,6.79 6.75,6.62 6.92,7.59 6.62,8.1 6.26,8.54 5.88,8.93 5.43,9.25 4.95,9.49 4.39,9.58 3.92,9.84 3.29,9.79 2.69,9.74 2.06,9.61 1.42,9.42 0.76,9.16 0.1,8.81 -0.56,8.41 -1.22,7.94 -1.86,7.41 -2.5,6.82 -3.11,6.19 -3.71,5.5 -4.26,4.77 -4.8,4.02 -5.29,3.21 -5.74,2.41 -6.16,1.56 -6.51,0.72 -6.83,-0.14 -7.09,-0.99 -7.3,-1.83 -7.45,-2.67 -7.54,-3.48 -7.58,-4.26 m 78.03,-51.53 V 303 l 0.16,0.15 z m -0.18,-12.71 -0.21,-2.41 0.15,0.15 z m -0.38,-4.39 -0.24,-1.17 0.18,0.13 z m -0.41,-2.37 -0.22,-1.59 0.18,0.13 z m 68.09,-1.58 v -14.72 l 0.16,0.15 z m -68.48,-1.21 -0.24,-1.17 0.19,0.13 z m -0.8,-4.36 -0.22,-1.19 0.17,0.14 z m -1.19,-5.55 -0.22,-1.21 0.18,0.14 z m 70.29,-5.95 -0.22,-2.41 0.16,0.14 z m -0.4,-4.77 -0.21,-2.01 0.16,0.14 z m -0.4,-3.18 -0.21,-1.6 0.17,0.13 z m -0.39,-2.8 -0.22,-1.17 0.18,0.13 z m -0.4,-2.37 -0.22,-1.6 0.17,0.14 z m -0.79,-4.37 -0.23,-1.19 0.18,0.14 z m -183.08,-0.79 -0.22,-1.2 0.17,0.15 z m 181.89,-4.77 -0.23,-1.19 0.18,0.14 z m -183.08,-1.59 -0.22,-1.18 0.18,0.13 z m -38.52,-1.59 -0.22,-1.19 0.19,0.13 z m 38.11,-0.78 -0.21,-2.41 0.16,0.15 z m -39.3,-4.78 -0.23,-1.19 0.19,0.13 z m -0.79,-3.96 -0.23,-1.6 0.17,0.13 z m -0.41,-2.8 -0.22,-1.17 0.18,0.13 z m -0.4,-2.37 -0.21,-1.6 0.17,0.14 z m -0.4,-2.77 -0.21,-2.01 0.16,0.14 z m -0.39,-4.37 -0.22,-2.41 0.16,0.15 z" />
  </g>
</svg>
