<?xml version="1.0" encoding="UTF-8" standalone="no"?>
<svg
   width="456.69199mm"
   height="501.29718mm"
   viewBox="0 0 456.69199 501.29718"
   stroke-linejoin="round"
   stroke-linecap="round"
   fill="none"
   fill-rule="evenodd"
   version="1.1"
   id="svg1404"
   sodipodi:docname="625_bearing_color.svg"
   inkscape:export-filename="625_bearing_color.svg"
   inkscape:export-xdpi="96"
   inkscape:export-ydpi="96"
   xmlns:inkscape="http://www.inkscape.org/namespaces/inkscape"
   xmlns:sodipodi="http://sodipodi.sourceforge.net/DTD/sodipodi-0.dtd"
   xmlns="http://www.w3.org/2000/svg"
   xmlns:svg="http://www.w3.org/2000/svg">
  <sodipodi:namedview
     id="namedview1406"
     pagecolor="#ffffff"
     bordercolor="#000000"
     borderopacity="0.25"
     inkscape:showpageshadow="2"
     inkscape:pageopacity="0.0"
     inkscape:pagecheckerboard="0"
     inkscape:deskcolor="#d1d1d1"
     inkscape:document-units="mm"
     showgrid="false" />
  <desc
     id="desc1293">Composer Export</desc>
  <script
     type="text/ecmascript"
     id="script1295"><![CDATA[
if(typeof(top) != "undefined")
{
	top.ShowPaper = ShowPaper;
}
function ShowPaper()
{
  var svgDocument = getDocument();
  var paper = svgDocument.getElementById("paperID");
  if(paper)
  {
    paper.setAttribute("transform","scale(1)");
    paper.setAttribute("opacity","1");
    paper.setAttribute("visibility","visible");
  }
  var svg = svgDocument.getRootElement();
  if(svg)
  {
    svg.setAttribute("width","510.000mm");
    svg.setAttribute("height","510.000mm");
    svg.setAttribute("viewBox","-5.000000 -5.000000 510.000000 510.000000");
  }
}
]]></script>
  <defs
     id="defs1297" />
  <g
     id="g1402"
     transform="matrix(1.4735756,0,0,1.4735756,-152.99326,-100.9613)">
    <path
       style="display:inline;fill:#cbcbcb"
       d="m 250.61,70.2 4.35,0.98 4.64,0.83 8.71,2.8 11.93,4.75 9.14,4.76 11.11,6.76 11.13,7.94 11.11,9.14 2.42,2.34 3.54,3.22 7.58,7.5 5.56,5.96 9.53,11.12 8.35,10.72 9.13,13.1 6.71,10.77 9.19,16.62 5.91,12.36 5.96,13.9 3.56,9.94 4.37,13.5 2.77,10.73 2.21,10.59 0.24,1.17 0.17,1.21 0.22,1.17 0.17,1.22 0.23,1.16 0.17,1.22 0.23,1.16 0.18,0.82 0.21,1.59 0.18,1.56 0.22,2.02 0.18,1.96 0.21,2.01 0.19,1.56 0.21,2.02 0.18,2.75 0.22,5.19 0.25,6.45 -0.64,12.59 -1.19,9.55 -1.6,7.53 -0.45,2.65 -2.77,9.13 -3.58,8.34 -5.16,9.14 -5.56,7.14 -4.37,4.37 -2.54,2.22 -5.96,4.37 -20.61,11.95 -9.54,4.76 -5.94,2.01 -4.11,0.95 -7.55,1.2 -9.95,0.17 -7.94,-0.79 -2.76,-0.41 -5.57,-1.19 -3.73,-0.71 -1.16,-0.45 -1.33,-0.01 -13.54,7.93 -7.77,4.14 -7.26,2.67 -4.12,0.96 -5.16,0.8 -3.17,0.17 h -7.18 l -7.52,-0.8 -7.56,-1.58 -10.06,-3.13 -10.73,-4.77 -9.87,-5.61 -7.96,-5.15 -7.93,-5.96 -7.95,-6.75 -5.56,-5.16 -9.93,-9.93 -10.72,-12.71 -7.93,-10.74 -8.39,-12.65 -5.16,-8.75 -7.95,-15.07 -6.75,-15.49 -5.18,-14.28 -4.36,-15.9 -0.33,-1.74 -0.04,-1.06 -0.19,-0.13 -0.96,-4.38 -0.05,-1.03 -0.18,-0.12 -0.17,-0.85 -0.05,-1.02 -0.18,-0.13 -0.17,-1.22 -0.04,-1.03 -0.18,-0.13 -0.18,-1.22 -0.04,-1.04 -0.18,-0.13 -0.17,-1.21 -0.05,-1.04 -0.18,-0.14 -0.18,-1.58 -0.05,-1.87 -0.16,-0.14 -0.19,-1.56 -0.05,-1.87 -0.16,-0.15 -0.17,-1.96 -0.06,-1.47 -0.17,-0.13 -0.18,-4.75 -0.05,-5.44 -0.17,-0.14 0.4,-11.1 1.35,-10.85 0.24,-0.67 1.74,-8.11 2.81,-8.31 3.4,-7.32 4.56,-7.35 4.97,-5.75 3.22,-3.14 4.78,-3.57 4.09,-2.65 16.54,-9.67 3.97,-12.71 4.55,-9.75 5.14,-7.96 5.96,-7.15 3.58,-3.17 2.79,-2.37 8.17,-5.33 20.25,-11.53 6.35,-3.18 9.4,-2.59 7.54,-1.21 10.72,-0.21 z"
       id="path1301" />
    <path
       style="display:inline;fill:#272727"
       d="m 177.11,160.92 2.42,0.4 2.61,0.46 7.55,1.97 8.34,3.18 8.74,4.37 7.14,4.37 9.14,6.35 9.93,8.34 9.17,9.1 3.17,3.58 5.57,6.35 5.96,7.54 7.55,10.72 6.75,11.12 7.11,13.54 5.16,11.52 3.96,10.74 3.98,12.69 2.2,10.2 0.23,1.17 0.18,1.22 0.22,1.15 0.17,0.84 0.23,1.16 0.17,1.22 0.22,1.16 0.19,1.2 0.21,2.01 0.17,1.96 0.23,1.61 0.18,1.96 0.21,2.41 0.18,5.14 v 5.98 l -0.18,5.13 -0.22,2.02 -0.79,6.73 -1.58,7.56 -1.82,6.21 -1.99,4.76 -4.37,7.95 -4.37,5.56 -4.33,4 -3.16,2.4 -5.35,3 -5.92,2.01 -6.78,1.17 H 244.9 l -3.98,-0.4 -9.15,-1.96 -9.92,-3.59 -11.11,-5.56 -9.88,-6.4 -7.96,-5.95 -6.35,-5.57 -5.56,-5.16 -4.37,-4.36 -1.98,-2.39 -2.82,-3.14 -5.53,-6.39 -7.92,-10.74 -6.81,-10.27 -6.34,-11.13 -7.16,-14.28 -4.77,-11.91 -4.38,-13.09 -2.37,-9.15 -1.58,-7.56 -1.19,-7.15 -0.79,-7.54 -0.53,-12.71 0.8,-11.12 1.59,-8.73 2.89,-9.82 4.37,-8.74 4.01,-5.92 5.17,-5.55 5.01,-3.72 5.55,-2.79 6.21,-1.82 6.35,-1.02 8.74,0.01 z"
       id="path1303" />
    <path
       style="display:inline;fill:#cbcbcb"
       d="m 196.84,218.96 4.77,1.19 4.77,1.98 7.95,4.36 7.53,5.97 2.42,2.34 5.56,5.96 5.51,7.2 4.38,6.74 3.98,7.54 3.97,9.14 3.17,10.72 1.59,10.33 v 8.86 l -0.79,5.56 -1.99,6.35 -2.56,4.59 -2.56,2.99 -2.99,2.58 -3.4,2.16 -5.43,2.2 -2.38,0.41 -3.19,0.22 -3.19,-0.22 -4.35,-0.81 -7.29,-2.72 -8.29,-4.81 -6.36,-5.16 -4.77,-4.37 -1.98,-2.38 -4.77,-5.56 -5.2,-7.51 -5.55,-9.93 -3.59,-8.33 -3.12,-9.28 -0.04,-1.05 -0.18,-0.14 -0.97,-4.36 -0.04,-1.06 -0.18,-0.13 -0.17,-1.22 -0.05,-1.03 -0.19,-0.14 -0.16,-1.97 -0.06,-1.88 -0.16,-0.14 -0.01,-8.71 0.96,-5.72 1.87,-6.08 3.13,-5.6 2.04,-2.33 4.76,-3.58 4.76,-2.39 2.78,-0.8 2.79,-0.38 h 4.1 z"
       id="path1305" />
    <path
       id="path1395"
       style="stroke:#000000;stroke-width:1.411"
       d="m 152.86,136.51 0.55,-2.57 3.19,-9.83 4.05,-8.97 4.9,-8.03 5.66,-6.99 0.95,-0.9 5.53,-5.13 7.13,-4.87 20.8,-12.01 7.82,-3.76 8.41,-2.59 8.94,-1.42 9.4,-0.22 9.79,0.97 10.11,2.16 10.35,3.32 10.51,4.47 10.88,5.76 10.3,6.47 10.51,7.67 10.34,8.62 10.12,9.51 9.79,10.34 9.4,11.08 8.94,11.74 8.42,12.32 7.8,12.76 7.16,13.16 6.46,13.44 5.69,13.61 4.9,13.68 4.05,13.65 3.19,13.51 2.29,13.28 1.39,12.93 0.46,12.49 -0.46,11.96 -1.39,11.34 -2.29,10.62 -3.19,9.84 -4.05,8.97 -4.77,7.82 -5.84,7.25 -6.44,5.98 -7.18,4.9 -20.75,11.98 -7.81,3.75 -0.62,0.19 -7.79,2.41 -8.94,1.41 -9.4,0.23 -9.79,-0.97 -10.12,-2.16 -2.49,-0.8 m -146.86,-254.37 -17.83,10.29 -6.12,4.17 -5.51,5.12 -4.87,6.01 -4.19,6.87 -3.46,7.66 -2.73,8.4 -1.96,9.08 -1.18,9.7 -0.4,10.21 0.4,10.68 1.18,11.06 1.96,11.34 2.73,11.55 3.46,11.67 4.22,11.78 4.84,11.55 5.51,11.48 6.12,11.25 6.68,10.92 7.19,10.52 7.64,10.03 8.03,9.47 8.37,8.84 8.64,8.13 8.85,7.37 8.01,5.84 0.97,0.71 9.05,5.69 9.05,4.76 8.99,3.82 8.91,2.86 8.57,1.83 8.37,0.83 8.04,-0.19 7.63,-1.21 7.19,-2.22 6.68,-3.21 17.83,-10.29 m -61.52,-65.39 2.05,-1.19 -0.08,0.04 M 184.85,89.2 l 7.82,-3.75 3.83,-1.19 4.58,-1.41 8.94,-1.41 9.4,-0.23 9.79,0.97 10.11,2.16 10.35,3.32 10.51,4.47 10.59,5.58 10.59,6.65 10.51,7.67 10.34,8.62 10.29,9.7 9.62,10.15 9.4,11.08 8.95,11.75 8.4,12.3 7.81,12.78 7.53,13.92 6.09,12.67 5.69,13.61 4.9,13.68 4.05,13.65 3.19,13.52 2.29,13.27 1.39,12.93 0.46,12.49 -0.46,11.97 -1.39,11.34 -2.29,10.62 -3.19,9.83 -4.05,8.97 -4.9,8.03 -5.69,7.03 -0.65,0.6 -5.84,5.41 -7.13,4.87 M 180.8,221.28 l 2.71,-1.3 2.91,-0.9 3.09,-0.49 3.25,-0.08 3.4,0.34 3.49,0.74 3.6,1.16 3.64,1.55 3.66,1.93 3.65,2.29 3.64,2.66 3.58,2.98 3.4,3.2 3.49,3.67 3.26,3.84 3.09,4.06 2.91,4.26 2.68,4.38 2.5,4.6 2.24,4.65 1.97,4.71 1.69,4.74 1.41,4.72 1.1,4.68 0.8,4.6 0.47,4.47 0.12,5.3625 -0.59,7.0275 -0.8,3.68 -1.1,3.4 -1.35,2.97 -1.75,2.91 -1.98,2.44 -2.23,2.07 -2.5,1.7 m -61.26,-101.95 1.86,-1.1 m -3.54,34.74 0.12,-3.06 0.35,-2.91 0.59,-2.72 0.82,-2.52 1.04,-2.3 1.25,-2.06 1.46,-1.81 1.66,-1.53 1.83,-1.26 2.01,-0.96 2.15,-0.66 2.3,-0.36 2.41,-0.06 2.51,0.25 2.59,0.55 2.65,0.85 2.7,1.15 2.42,1.28 3.01,1.86 2.69,1.96 2.65,2.21 2.6,2.44 2.51,2.65 2.41,2.84 2.31,3.04 2.14,3.13 2,3.27 1.84,3.38 1.65,3.44 1.46,3.5 1.26,3.5 1.04,3.5 0.81,3.47 0.59,3.4 0.36,3.31 0.11,3.07 -0.11,3.21 -0.36,2.9 -0.59,2.73 -0.81,2.52 -1.04,2.3 -1.17,1.9 -1.55,1.96 -1.65,1.53 -1.84,1.26 -2,0.96 -2.16,0.67 -2.29,0.36 -2.41,0.06 -2.51,-0.25 -2.6,-0.56 -2.65,-0.85 -2.69,-1.15 -2.72,-1.43 -2.71,-1.7 -2.7,-1.96 -2.65,-2.22 -2.59,-2.43 -2.51,-2.66 -2.41,-2.84 -2.3,-3.01 -2.15,-3.15 -2.01,-3.28 -1.83,-3.37 -1.66,-3.45 -1.46,-3.49 -1.25,-3.51 -1.04,-3.5 -0.82,-3.46 -0.59,-3.41 -0.35,-3.31 -0.12,-3.21 m -10.22,2.76 -0.52,-4.72 -0.16,-4.33 0.16,-4.14 0.48,-3.92 0.79,-3.68 1.1,-3.4 1.41,-3.11 1.69,-2.77 1.97,-2.44 2.23,-2.07 2.49,-1.69 2.71,-1.31 2.9,-0.89 3.1,-0.49 3.25,-0.08 3.39,0.34 3.5,0.74 3.58,1.15 3.64,1.55 3.66,1.93 3.6,2.26 3.7,2.7 3.59,2.98 3.5,3.3 3.39,3.57 3.25,3.84 3.09,4.06 2.83,4.13 2.79,4.55 2.48,4.56 2.45,5.17 1.75,4.19 1.7,4.73 1.4,4.73 1.1,4.68 0.8,4.59 0.48,4.48 0.16,4.32 -0.16,4.14 -0.48,3.93 -0.8,3.67 -1.1,3.41 -1.4,3.1 -1.7,2.78 -1.97,2.44 -2.23,2.07 -2.48,1.69 -2.71,1.3 -2.91,0.9 -0.51,0.08 -2.58,0.41 -3.25,0.08 -3.39,-0.34 -3.5,-0.75 -3.59,-1.15 -3.63,-1.55 -3.67,-1.93 -3.66,-2.3 -3.64,-2.65 -3.58,-2.99 -3.5,-3.29 -3.39,-3.58 -3.25,-3.83 -3.08,-4.04 -2.93,-4.28 -2.7,-4.43 -2.49,-4.55 -2.23,-4.65 -1.97,-4.72 -1.69,-4.73 -1.41,-4.72 -1.1,-4.68 -0.75,-4.35 m -14.23,-122.24 44.48,-25.69 6.68,-3.21 7.19,-2.21 7.63,-1.22 1,-0.02 7.04,-0.17 8.37,0.83 8.64,1.84 8.85,2.85 8.98,3.82 9.05,4.77 9.05,5.68 8.12,5.92 0.88,0.65 8.85,7.37 8.62,8.11 8.37,8.84 8.03,9.47 7.64,10.03 7.19,10.52 6.68,10.92 6.12,11.25 5.51,11.48 4.87,11.64 4.19,11.69 3.46,11.67 2.73,11.55 1.96,11.37 1.18,11.03 0.4,10.67 -0.4,10.23 -1.18,9.69 -1.96,9.08 -2.73,8.4 -3.46,7.67 -3.19,5.22 -1,1.64 -4.87,6.01 -5.51,5.12 -6.12,4.17 -44.48,25.69 M 135.03,146.8 l 6.68,-3.22 7.19,-2.21 7.64,-1.21 8.03,-0.19 8.37,0.83 8.64,1.84 8.85,2.84 8.98,3.82 9.05,4.77 9.05,5.68 8.99,6.56 8.84,7.36 8.64,8.14 6.99,7.38 1.39,1.47 8.03,9.45 7.63,10.04 7.19,10.51 6.68,10.93 6.12,11.24 5.52,11.49 4.87,11.63 4.18,11.69 3.47,11.67 2.72,11.55 1.96,11.34 1.18,11.06 0.4,10.68 -0.4,10.22 -1.18,9.69 -1.96,9.08 -2.72,8.4 -3.47,7.67 -4.18,6.86 -4.87,6.01 -5.52,5.12 -6.12,4.18 m -10.15,-19.93 -4.56,2.19 -6.1,1.88 -6.48,1.03 -6.82,0.16 -7.1,-0.7 -7.34,-1.57 -7.5,-2.41 -7.62,-3.24 -7.68,-4.05 -7.68,-4.82 -7.62,-5.56 -7.51,-6.25 -7.33,-6.9 -1.72,-1.82 -5.38,-5.68 -6.82,-8.04 -6.48,-8.51 -6.1,-8.92 -5.67,-9.27 -5.19,-9.55 -4.68,-9.74 -4.12,-9.84 -3.56,-9.95 -2.94,-9.9 -2.31,-9.8 -1.67,-9.63 -1,-9.38 -0.34,-9.06 0.34,-8.67 1,-8.23 1.67,-7.7 2.31,-7.13 2.94,-6.5 3.55,-5.83 4.13,-5.1 4.68,-4.34 4.18,-2.86 m -26.64,64.02 0.1,2.6 1,9.38 1.67,9.63 2.31,9.79 2.94,9.91 3.55,9.92 4.13,9.87 4.68,9.74 5.19,9.55 5.67,9.26 6.1,8.93 6.42,8.43 6.88,8.12 7.11,7.5 7.33,6.9 7.5,6.25 7.62,5.56 7.68,4.82 7.68,4.05 7.62,3.24 7.51,2.41 7.33,1.57 7.1,0.7 6.82,-0.16 6.48,-1.03 6.1,-1.88 5.67,-2.73 5.19,-3.54 4.68,-4.34 4.13,-5.1 3.55,-5.83 2.95,-6.5 2.31,-7.13 1.66,-7.71 1,-8.22 0.34,-8.68 -0.34,-9.06 -1,-9.37 -1.66,-9.63 -2.31,-9.8 -2.95,-9.9 -3.55,-9.93 -4.13,-9.86 -4.68,-9.75 -5.19,-9.54 -5.65,-9.24 -6.12,-8.95 -6.48,-8.52 -6.82,-8.03 -7.1,-7.5 -7.33,-6.9 -7.51,-6.26 -7.62,-5.55 -7.68,-4.83 -7.68,-4.04 -7.62,-3.25 -7.5,-2.41 -7.33,-1.56 -7.11,-0.7 -6.82,0.16 -6.48,1.03 -6.1,1.88 -5.67,2.72 -5.19,3.55 -4.68,4.34 -4.13,5.1 -3.55,5.82 -2.94,6.51 -2.31,7.13 -1.67,7.72 -1,8.2 -0.34,8.68 0.24,6.46 m 175.77,98.08 v -5.98 l 0.16,0.14 z m -0.18,-11.12 -0.21,-2.41 0.15,0.15 z m -0.39,-4.37 -0.23,-1.61 0.17,0.14 z m -0.4,-3.57 -0.21,-2.01 0.16,0.14 z m -0.4,-3.21 -0.22,-1.16 0.18,0.13 z m -0.39,-2.38 -0.23,-1.16 0.19,0.13 z m -0.4,-2 -0.22,-1.15 0.17,0.13 z m -0.4,-2.37 -0.23,-1.17 0.18,0.14 z m 119.14,-8.31 -0.22,-5.19 0.16,0.15 z m -0.4,-7.94 -0.21,-2.02 0.16,0.14 z m -0.4,-3.58 -0.21,-2.01 0.16,0.14 z m -0.39,-3.97 -0.22,-2.02 0.16,0.15 z m -0.4,-3.58 -0.21,-1.59 0.17,0.13 z m -0.39,-2.41 -0.23,-1.16 0.18,0.13 z m -242.26,-1.57 -0.22,-1.19 0.18,0.14 z m 241.86,-0.81 -0.23,-1.16 0.19,0.13 z m -0.4,-2.38 -0.22,-1.17 0.18,0.14 z m -242.65,-2.36 -0.22,-1.19 0.18,0.13 z m 242.26,-0.02 -0.24,-1.17 0.19,0.14 z m -242.65,-2.39 -0.24,-1.17 0.19,0.14 z m -0.4,-3.14 -0.22,-2.02 0.16,0.14 z m -57.58,-4.39 -0.23,-1.19 0.19,0.13 z m -1.19,-5.57 -0.23,-1.15 0.18,0.12 z m -0.4,-2 -0.23,-1.15 0.18,0.13 z m -0.4,-2.37 -0.22,-1.16 0.18,0.13 z m -0.4,-2.38 -0.22,-1.17 0.18,0.13 z m -0.39,-2.38 -0.23,-1.18 0.18,0.14 z m -0.41,-2.76 -0.21,-2.01 0.16,0.14 z m -0.4,-3.57 -0.21,-2.02 0.16,0.15 z m -0.38,-3.98 -0.23,-1.6 0.17,0.13 z m -0.41,-6.35 -0.22,-5.58 0.17,0.14 z" />
  </g>
</svg>
