<?xml version="1.0" encoding="utf-8"?>
<!-- Generator: Adobe Illustrator 27.2.0, SVG Export Plug-In . SVG Version: 6.00 Build 0)  -->
<svg version="1.1" xmlns="http://www.w3.org/2000/svg" xmlns:xlink="http://www.w3.org/1999/xlink" x="0px" y="0px"
	 viewBox="0 0 997.5 811.6" style="enable-background:new 0 0 997.5 811.6;" xml:space="preserve">
<style type="text/css">
	.st0{fill:#686868}
	.st1{fill:none;stroke:#000000;stroke-width:3.9997;stroke-linecap:round;stroke-linejoin:round;stroke-miterlimit:11.3386;}
</style>
<g id="fill">
	<path class="st0" d="M996,188.7l-0.3-9.2l-1-9.6L993,160l-2.4-10l-3-10.1l-3.6-10.1l-4.2-10.1l-4.8-9.9l-5.3-9.7l-5.8-9.5l-6.2-9.1
		l-6.6-8.7l-7-8.2l-7.2-7.7l-7.5-7l-7.7-6.4l-7.7-5.7l-7.9-4.9l-27-15.5l0,0c0,0,0,0-0.1,0l-10-5.3l-10-4.3l-9.8-3.2l-9.6-2.1
		l-9.3-1l-9,0.1l-8.6,1.3l-8.1,2.4l-7.5,3.4l-6.9,4.5l-4.9,4.3l-6.1,2l-5.9,2.6l-5.8,3.4l-0.8,0.4c-0.1,0-0.2,0.1-0.2,0.2l-5.3,3.1
		l-5.1,3.9l-4.7,4.5l-1.4,1.6l-3.1,0.7l-6.1,2.1l-5.8,2.6c0,0-0.1,0-0.1,0l-5.6,3.3l-1,0.5c-0.1,0.1-0.2,0.2-0.2,0.3l-5.3,3.1
		l-5.2,3.9l-4.9,4.4l-0.8,0.9c-0.1-0.1-0.3-0.1-0.4,0l-1.7,0.9c-0.2,0.1-0.3,0.3-0.3,0.5c0,0.1,0.1,0.3,0.2,0.4l-1.3,0.3l-6.3,1.9
		l-6,2.5l-5.7,3l-6.6,3.9l0,0c0,0,0,0,0,0l-5.3,3.6l-5,4.1l-1.3,1.3c-0.1-0.1-0.3,0-0.4,0l-1.8,1c-0.2,0.1-0.3,0.3-0.2,0.6
		c0.1,0.2,0.2,0.4,0.5,0.4h0l-0.1,0.1l-6.9,1.8l-6.1,2.3l-5.7,2.9l-6.6,3.8l0,0c0,0,0,0-0.1,0l-5.3,3.5l-4.9,4.1l-1.9,2
		c-0.1,0-0.2,0-0.3,0.1l-1.7,1c-0.2,0.1-0.3,0.3-0.2,0.6c0,0.2,0.2,0.3,0.3,0.4l-0.3,0.3l-5.7,1.6l-6,2.3L613,115l-6.6,3.8l0,0
		c0,0,0,0,0,0l-5.4,3.5l-5,4.1l-5.2,5.2l-4.5,1.1l-6.1,2.2l-5.9,2.7l-5.7,3.4l-0.9,0.4c-0.1,0.1-0.2,0.1-0.2,0.2l-5.3,3.1l-5.2,3.9
		l-4.8,4.4l-1.4,1.6l-3.2,0.7l-6.2,1.9l-5.9,2.5l-5.2,3c-0.1,0-0.3,0-0.4,0.1l-0.4,0.3l-6.2,3.5c0,0,0,0,0,0l-5.2,3.7l-4.8,4.3
		l-2.2,2.4l-2.1,0.4l-6.2,2l-5.9,2.6l-5.3,3c-0.1,0-0.2,0-0.3,0.1l-0.2,0.1c0,0,0,0-0.1,0.1L490,186l-5.5,3.2c0,0,0,0-0.1,0
		l-5.2,3.8l-4.9,4.3l-3.1,3.3l-7.1,2l-6,2.4l-5.7,2.9l-6.6,3.8l0,0c0,0,0,0,0,0l-5.4,3.6l-5,4.1l-4.2,4.1l-5.8,1.5l-6.1,2.2
		l-5.8,2.8l-6.7,3.8l-5.4,3.4l-5,4l-5,5l-4.6,1.2l-6.1,2.2l-5.8,2.8l-6.7,3.8c0,0,0,0,0,0l-5.4,3.5l-5.1,4l-3.7,3.5
		c-0.1,0-0.2,0-0.3,0.1l-1.7,1c-0.2,0.1-0.3,0.3-0.2,0.6c0,0.2,0.2,0.3,0.3,0.4l-0.4,0.4l-3.4,0.8l-6.2,2.1l-5.9,2.6l-5.9,3.4
		l-0.8,0.4c-0.1,0-0.2,0.1-0.2,0.2l-5.3,3.1L308,269.1l-19.7-14.4l-19.8-12.4l-19.9-10.4l-19.7-8.4l-19.4-6.2l-18.9-4l-18.4-1.8
		l-17.6,0.4l-16.8,2.7l-15.8,4.9l-14.8,7.1l-19.6,11.3l0,0c0,0-0.1,0-0.1,0L74.2,247L62,258.3l-10.7,13.2l-9.2,15l-3.7,7.3l-12.3,28
		l-4.8,13.8L16.7,350l-4,13.5L6.9,391L4,410.2l-2.1,26.3l-0.4,19.1l1.3,24.5l1.6,18.7l3.1,18.4l4.7,22l4.8,17.6l8,23.2l8,18.9
		l10.4,21.8l11.8,20.7l17,24.9L87,684.6l20.2,21.8l21.8,19.9l14,11.2c0,0,0,0,0,0l0.1,0.1c0,0,0,0,0,0l29.4,20.1c0,0,0,0,0,0
		l0.1,0.1c0,0,0,0,0,0l15.7,9.1l32.3,15.5l16.7,6.5l23.8,7.6l24.3,5.9l18.2,3.4L318,808l26.5,2.2c0,0,0,0,0,0c0,0,0,0,0,0l17.6-0.4
		L379,807l15.8-4.9l14.6-7c0,0,0.1,0,0.1-0.1l19.7-11.4l13.4-9.2l12.1-11.2l6.4-7.9l4.3-5.3l9.2-15.1l7.6-16.8l6-18.4l4.3-19.9
		l2.6-21.2l0.9-22.4l-0.9-23.4l-2.6-24.2l-3.8-21.7l2-2l2.7-3.4l4.6-0.9l5.4-1.5l5.1-2.1l4.6-2.6c0.1,0,0.2,0,0.3-0.1l4.8-2.8
		l4.6-3.1l4.3-3.6l3.9-4.1l1.8-2.3l4.1-0.5l4.9-1.1l4.6-1.6l4.3-2c0,0,0.1,0,0.1,0l8.4-4.9l4.5-3.2l4.1-3.8l3.8-4.3l1.5-2.1l6.7-1.2
		l5.4-1.6l5-2.2c0,0,0.1,0,0.1,0l9.6-5.4l0,0c0,0,0.1,0,0.1-0.1l4.5-3.2l4.2-3.7l3.8-4.2l0.7-1l2.1-0.3l5.5-1.3l5.2-1.9l4.9-2.4
		c0,0,0,0,0.1,0l4.8-2.8c0,0,0,0,0,0l4.7-2.9l4.4-3.4l4.1-3.9l3.4-4l2.4-0.2l4.8-0.9l4.6-1.4l4.4-1.8l3.8-2.1c0.1,0,0.2,0,0.3-0.1
		l0.6-0.4l3.1-1.8c0,0,0,0,0.1,0l5-3.2l4.3-3.6l3.9-4.1l3-3.9l4.4-0.7l5.5-1.4l5.2-2l4.8-2.4c0,0,0.1,0,0.1,0l9.5-5.8l4.3-3.5l3.9-4
		l2.2-2.8l5.4-1l5.4-1.6l5.1-2.2c0,0,0,0,0,0c0,0,0,0,0,0c0,0,0,0,0,0c0,0,0,0,0,0l9.6-5.5l4.5-3.2l4.1-3.6l3.9-4.2l1-1.4
		c0.1,0.1,0.2,0.1,0.4,0.1l1.4-0.4c0.1,0,0.1,0,0.2-0.1l3.6-0.5l4.6-1.1l4.3-1.6l4-2c0,0,0,0,0.1,0l8.7-5.2l4.4-3.3l4.1-3.9l3.7-4.4
		l0.8-1.2l3.2-0.3c0.2,0,0.3-0.1,0.4-0.2l4.2-0.9l5.3-1.7l5-2.2c0,0,0.1,0,0.1,0l9.6-5.5c0,0,0,0,0,0l4.4-3.3l4.1-3.8l3.9-4.7
		l2.9-0.4l5.5-1.4l5.2-2l4.9-2.5c0,0,0,0,0.1,0l3.9-2.4c0,0,0,0,0,0l0.9-0.5c0.1,0,0.2-0.1,0.2-0.2l4.5-2.7l4.4-3.5l4-4l2.7-3.2
		l3.8-0.5l4.4-1l4.2-1.4l4-1.8l3.7-2.1c0.1,0,0.1,0,0.2-0.1l4.8-2.8l4.6-3.1l4.2-3.6l3.9-4.2l2.3-3l0.4-0.1l1.5,0.3
		c0.2,0,0.4,0,0.5-0.2c0.1-0.1,0.1-0.3,0.1-0.5l3.8-0.6l6.1-1.8l5.6-2.5c0,0,0.1,0,0.1,0l8-4.5l7.6-4.7c0.1,0,0.2,0,0.2-0.1
		c0.1,0,0.1-0.1,0.2-0.2l0.5-0.3l6.3-5.3l5.7-6.3l4.9-7.2l4.2-8.1l3.4-8.9l2.6-9.7l1.7-10.3l0.9-11l0.1-37c0,0,0,0,0,0L996,188.7
		C996,188.7,996,188.7,996,188.7z"/>
</g>
<g id="stroke" xmlns:svg="http://www.w3.org/2000/svg" xmlns:inkscape="http://www.inkscape.org/namespaces/inkscape" xmlns:sodipodi="http://sodipodi.sourceforge.net/DTD/sodipodi-0.dtd">
	
		<sodipodi:namedview  bordercolor="#000000" borderopacity="0.25" id="namedview3214" inkscape:current-layer="g3210" inkscape:cx="560.51895" inkscape:cy="1117.9411" inkscape:deskcolor="#d1d1d1" inkscape:document-units="mm" inkscape:pagecheckerboard="0" inkscape:pageopacity="0.0" inkscape:showpageshadow="2" inkscape:window-height="1017" inkscape:window-maximized="1" inkscape:window-width="1920" inkscape:window-x="-8" inkscape:window-y="-8" inkscape:zoom="0.32291504" pagecolor="#ffffff" showgrid="false">
		</sodipodi:namedview>
	<script  id="script3045" type="text/ecmascript">
		<![CDATA[
if(typeof(top) != "undefined")
{
	top.ShowPaper = ShowPaper;
}
function ShowPaper()
{
  var svgDocument = getDocument();
  var paper = svgDocument.getElementById("paperID");
  if(paper)
  {
    paper.setAttribute("transform","scale(1)");
    paper.setAttribute("opacity","1");
    paper.setAttribute("visibility","visible");
  }
  var svg = svgDocument.getRootElement();
  if(svg)
  {
    svg.setAttribute("width","510.000mm");
    svg.setAttribute("height","510.000mm");
    svg.setAttribute("viewBox","-5.000000 -5.000000 510.000000 510.000000");
  }
}

			]]>
	</script>
	<g id="layer1" transform="translate(-66.094498,-123.3645)" inkscape:groupmode="layer" inkscape:label="Layer 1">
		<path id="path3203" class="st1" d="M814.4,541.4l-5.1,2.2l-5.3,1.6l-5.5,1l-2.3,3l-3.9,4l-4.3,3.5l-9.5,5.7l-4.9,2.5l-5.2,2
			l-5.4,1.4l-4.6,0.7l-3.1,4l-3.9,4.1l-4.2,3.5l-4.9,3.1l-7.9,4.4l-4.3,1.8l-4.5,1.3l-4.8,0.9l-2.6,0.3l-3.5,4.2l-4.1,3.9l-4.4,3.4
			l-4.7,2.8l-4.8,2.8l-4.9,2.4l-5.2,1.8l-5.5,1.3l-2.3,0.3l-0.8,1.2l-3.7,4.2l-4.1,3.7l-4.5,3.2l-9.6,5.4l-5,2.2l-5.3,1.6l-6.9,1.2
			l-1.6,2.2l-3.7,4.3l-4.1,3.7l-4.4,3.1l-8.4,4.9l-4.4,2l-4.6,1.5l-4.8,1.1l-4.3,0.5l-1.9,2.5l-3.9,4.1l-4.2,3.6l-4.6,3.1l-9.6,5.4
			l-5.1,2.1l-5.4,1.5l-4.7,0.9l-2.8,3.5l-2.2,2.1 M410.6,933l17.6-0.4l16.7-2.6l15.7-4.8l14.6-7l19.7-11.4l13.4-9.2l12.1-11.2
			l6.4-7.9l4.3-5.2l9.1-15l7.6-16.8l6-18.4l4.3-19.8l2.6-21.2l0.9-22.4l-0.9-23.4l-2.6-24.2l-3.8-22 M389.9,406.3l12.5-7.3l5.9-2.6
			l6.1-2.1l3.5-0.9l1.3-1.5l4.7-4.5l5-4l5.4-3.4l6.7-3.8l5.7-2.8l6-2.2l4.7-1.2l5.1-5.1l5-3.9l5.4-3.4l6.7-3.8l5.8-2.7l6.1-2.2
			l5.9-1.5l4.3-4.2l5-4.1l5.3-3.5l6.7-3.9l5.7-2.9l6-2.4l7.2-2l3.2-3.4l4.8-4.3l5.2-3.7l12.2-7l5.8-2.6l6.2-2l2.2-0.5l2.3-2.5
			l4.8-4.3l5.2-3.7l12.2-7l5.9-2.5l6.2-1.9l3.3-0.7l1.5-1.7l4.8-4.3l5.1-3.8l12.1-7.1l5.8-2.7l6.1-2.2l4.6-1.2l5.3-5.3l5-4.1
			l5.3-3.5l6.7-3.8l5.7-2.9l6-2.3l5.8-1.6l4.3-4.3l4.9-4.1l5.3-3.5l6.7-3.9l5.7-2.9l6-2.2l7-1.8l3.4-3.5l4.9-4.1l5.3-3.6l6.6-3.9
			l5.6-3l6-2.5l6.2-1.9l2-0.4l2.4-2.7l4.8-4.3l5.1-3.8l12.2-7.1l5.8-2.6l6.1-2.1l3.2-0.7l1.5-1.8l4.7-4.4l5-3.9l12.1-7.1l5.8-2.6
			l6.1-2l5-4.4l6.9-4.5l7.5-3.4l4.7-1.4l3.3-0.9l8.5-1.2l8.9-0.1l9.3,1l9.6,2.1l9.8,3.2l9.9,4.3l10,5.3l27,15.6l7.9,4.9l7.7,5.6
			l7.7,6.4l7.5,7l7.2,7.7l4.8,5.7l2.1,2.5l6.6,8.7l6.2,9.1l5.8,9.4l5.3,9.7l4.8,9.9l4.2,10l1.9,5.3l1.7,4.8l3,10.1l2.4,10l1.7,9.8
			l1,9.6l0.3,9.2l-0.1,37.5l-0.9,10.9l-1.7,10.3l-2.6,9.6l-2.7,7.2l-0.6,1.6l-4.1,8l-4.9,7.1l-5.6,6.2l-6.3,5.2l-8.4,5.2l-8,4.5
			l-5.7,2.5l-6,1.8l-6.4,1.1l-2.4,3.2l-3.8,4.1l-4.2,3.6l-4.5,3.1l-8.6,4.9l-4,1.7l-4.2,1.4l-4.4,1l-3.9,0.5l-2.8,3.4l-4,3.9
			l-4.3,3.4l-9.5,5.7l-4.9,2.5l-5.2,2l-5.4,1.4l-3.1,0.5l-4,4.8l-4.1,3.8l-4.4,3.2l-9.6,5.5l-5,2.3l-5.3,1.7l-5.6,1.2l-2.4,0.2
			l-1,1.4l-3.7,4.4l-4,3.8l-4.4,3.3l-8.7,5.1l-4.1,2l-4.3,1.6l-4.6,1.1l-5.6,0.8l-1.2,1.7l-3.9,4.2l-4.1,3.6l-4.5,3.1l-9.5,5.4
			 M239.1,880.7l15.7,9l32.3,15.5l16.7,6.5l23.8,7.6l24.3,5.9l18.2,3.4l14.1,2.1l26.5,2.2l-3.1-0.3 M239,880.7l-29.5-20.2
			 M389.9,406.3l-16.1-13.4l-19.6-14.3l-19.8-12.4l-19.8-10.4l-19.6-8.4l-19.4-6.2l-18.9-4l-18.3-1.8l-17.6,0.4l-16.7,2.7l-15.7,4.8
			l-14.7,7.1L154,361.6l-13.4,9.2L128.5,382l-10.6,13.2l-9.2,15l-3.7,7.3l-12.3,27.9l-4.8,13.8l-4.6,14.4l-4,13.5l-5.8,27.4
			l-2.8,19.2l-2.1,26.3l-0.4,19.1l1.3,24.5l1.6,18.6l3.1,18.4l4.7,21.9l4.8,17.6l8,23.2l8,18.9l10.4,21.7l11.8,20.7l17,24.9
			l14.7,18.4l20.2,21.8l21.8,19.8l14.1,11.3 M1061.6,312.1v0.5 M1010,354.3l1,6.8l0.7,8.2l0.3,8.1l-0.2,8l-0.6,7.2l-1.1,7.1
			l-1.5,6.7l-1.9,6.4l-2.3,6l-2.7,5.5l-3.1,5.1l-1.1,1.4 M971.1,156.3l0.9,0.5 M957.4,454.4l4.1-5.9l2.8-5.4l2.5-5.8l2-6.1l1.6-6.8
			l1.1-7.1l0.6-7.4l0.1-7.8l-0.3-8.1l-0.7-8.3l-0.8-5.6 M1061.6,338.2l-0.8-11.9l-1.6-12.2l-2.5-12.6l-3.3-12.7l-1-3.1l-3.1-9.7
			l-4.8-12.8l-5.6-12.7l-6.2-12.5l-6.9-12.3l-7.4-11.9l-8-11.4l-8.4-10.9l-8.8-10.3l-4.3-4.5l-4.9-5.1l-9.5-8.8l-9.7-8l-9.9-7.2
			l-9.9-6.2 M941.6,468l-0.9,0.5 M918.2,477.1l2.9-4.3l2.8-5.3l2.4-5.9l2-6.3l1.6-6.7l1.1-7.1l0.7-7.4l0.3-7.7l-0.1-8l-0.6-8.2
			l-0.8-6.8 M901,491.7l4.7-2.7 M890.5,423.2l1.5,11.7l0.5,8.1v7.9l-0.5,7.6l-0.9,7.3l-1.3,6.9l-1.7,6.5l-2.2,6.2l-2.6,5.8l-2.9,5.3
			l-2.4,3.4 M1025.2,420l2.8-1.9l4.1-3.5l3.8-4.1l3.4-4.6l3-5.1l2.6-5.7l2.2-6.1l1.7-6.5l1-5.2l1.2-9.1l0.5-7.6l0.1-7.9l-0.4-8.2
			l-0.8-8.4l-1.2-8.6l-1.7-8.8l-2.1-8.9l-2.6-9l-3-9l-4.6-11.7l-2.8-6.5l-4.3-9.1l-4.7-9l-5-8.9l-5.4-8.8l-5.7-8.6l-6-8.4l-6.2-8.1
			l-6.5-7.9l-6.7-7.6l-6.9-7.2l-7.1-6.9l-7.1-6.3l-7.5-6.1l-7.5-5.5l-7.5-5l-7.6-4.5l-7.6-4l-7.6-3.5l-7.6-2.9l-7.5-2.4l-7.5-1.9
			l-7.3-1.3l-7.2-0.8l-7-0.3l-6.9,0.3l-6.6,0.9l-6.3,1.4 M1015.5,425.6l5.2-3.1l4.8-3.9l4.4-4.5l3.8-5.2l3.3-5.9l2.5-5.8l2.1-6.2
			l1.7-6.6l1.2-7l0.9-7.3l0.4-7.7l0-7.9l-0.5-8.2l-0.9-8.4l-1.3-8.6l-1.8-8.8l-2.2-8.9l-2.6-9l-3.1-9.1l-3.5-9.1l-4-9.1l-4.4-9
			l-4.7-9l-5.1-8.9l-5.4-8.7l-5.7-8.5l-6-8.3l-6.3-8.1l-6.5-7.8l-6.7-7.5l-6.9-7.2l-7.1-6.8l-7.2-6.4l-7.4-6l-7.5-5.5l-7.5-5
			l-7.6-4.5l-7.6-3.9l-7.6-3.4l-7.6-2.9l-7.5-2.3l-7.5-1.8l-7.3-1.2l-7.2-0.7l-7-0.1l-6.8,0.4l-6.6,1l-6.3,1.5l-6.1,2.1l-5.8,2.7
			 M816.4,163.1l3.1-0.7l6.6-0.9l6.8-0.2l7,0.4l7.2,1l7.4,1.5l7.5,2.1l7.6,2.6l7.6,3.2l7.7,3.7l7.7,4.2l7.7,4.7l7.6,5.2l4,2.9
			l4.4,2.5l6.2,3.9l6.1,4.3l6,4.8l5.9,5.1l5.8,5.4l5.6,5.7l5.5,6l5.3,6.2l5.1,6.5l4.9,6.7l4.7,6.8l4.5,7l4.2,7.1l3.9,7.2l3.6,7.2
			l3.3,7.3l2.9,7.3l2.6,7.2l2.2,7.2l1.8,7.1l1.5,7l1.1,6.9l0.8,6.7l0.5,6.5l0.1,5.8l-2-10.5l-2.2-8.9l-2.6-9l-3-9.1l-3.4-9.2
			l-3.8-9.2l-2.7-6l-6-12.2l-4.9-9l-5.2-8.8l-5.6-8.6l-5.8-8.4l-6.1-8.2l-6.4-7.9l-6.6-7.5l-6.9-7.2l-7.1-6.8l-7.2-6.4l-7.3-6
			l-3.6-2.7 M800.3,169.1l0.9-0.6 M811,472.4l1.2,11.6l0.3,8.1l-0.1,7.9l-0.5,6.6l-1,8.1l-1.4,6.9l-1.7,6.1l-2.4,6.4l-2.7,5.6
			l-3.1,5.1l-1.2,1.6 M794.5,172.4l5.8-2.7l6-2.2l6.3-1.6l6.5-1l6.8-0.3l7,0.3l7.2,0.9l7.3,1.4l7.5,2l7.6,2.6l7.6,3.1l7.7,3.6
			l7.7,4.1l7.7,4.6l7.6,5l7.5,5.5l7.4,5.9l7.3,6.4l7.1,6.7l6.9,7.1l6.7,7.5l6.4,7.8l6.2,8.1l5.9,8.4l5.6,8.6l5.3,8.8l5,8.9l4.6,9
			l4.3,9.1l3.9,9.2l3.5,9.1l3.1,9.1l2.7,9l2.2,8.9l1.8,8.7l1.3,8.6l0.9,8.3l0.3,8.1l-0.1,7.8l-0.6,7.5l-1,7.2l-1.4,6.8l-1.9,6.4
			l-2.2,6.1l-2.7,5.6l-3,5.2l-3.4,4.7l-3.8,4.2l-4.1,3.7l-4.5,3.1 M872.7,216.5l4,3.1l7.3,6.2l7.2,6.6l7.1,7l6.9,7.3l6.7,7.6
			l6.4,7.9l6.1,8.2l5.8,8.4l5.5,8.6l5.2,8.8l4.8,8.9l4.4,9l4.1,9.1l3.6,9.1l3.3,9.1l2.9,9.1l2.4,9l2,8.9l2,11.8l0.1-7.2l-0.3-6.4
			l-0.8-6.7l-1.1-6.9l-1.5-7l-1.9-7.1l-2.2-7.2l-2.6-7.3l-2.9-7.3l-3.2-7.3l-3.5-7.3l-3.8-7.2l-4.1-7.1l-4.3-7l-4.6-6.9l-4.8-6.7
			l-5-6.5l-5.2-6.3l-5.4-6l-5.6-5.7l-5.8-5.4l-5.9-5.1l-6-4.7l-6.1-4.4l-6.2-4L872.7,216.5l-3.5-2.7l-7.5-5.3l-7.6-4.8l-7.6-4.4
			l-7.6-3.9l-7.6-3.3l-7.4-2.6l-7.6-2.2l-7.3-1.5l-7.2-0.9l-7-0.3l-6.9,0.2l-6.7,0.8l-4.4,0.9 M758.5,568.9l3.5-5.6l2.8-5.5l2.4-5.9
			l2-6.3l1.6-6.7l1.1-7.1l0.7-7.4l0.3-7.7l-0.2-8l-0.7-8.2l-1.1-8.5 M753.3,285.6l8.2,6.6l7.3,6.4l7.1,6.8l7,7.1l6.7,7.5l6.5,7.8
			l6.2,8.1l6,8.3l5.6,8.5l5.3,8.7l4.9,8.9l4.6,9l4.2,9.1l3.8,9.1l3.4,9.1l3,9.1l2.6,9.1l2.2,8.9l1.8,8.8l1,6.2 M750.2,198.2l5.6-3.1
			l5.9-2.6l6.2-2l6.4-1.4l6.6-0.9l6.8-0.3l7,0.2l7.2,0.8l7.3,1.4l7.4,2l7.5,2.6l7.6,3.2l7.6,3.7l7.6,4.3l7.6,4.8l7.6,5.2l7.5,5.7
			l7.4,6.1l7.3,6.5l7.1,6.9l6.9,7.2l6.7,7.6l6.5,7.9l6.1,8.1l5.9,8.3l5.6,8.6l5.2,8.8l4.8,8.9l4.5,9l4.1,9.1l3.7,9.1l3.3,9.1
			l2.9,9.1l2.5,9l2.1,8.9l1.7,8.8l1.2,8.6l0.8,8.4l0.4,8.1l-0.1,7.8l-0.5,7.5l-1,7.1l-1.5,6.7l-2,6.3l-2.4,5.9l-2.8,5.4l-3.2,5
			l-3.6,4.5l-3.9,4l-4.3,3.5l-4.6,3 M741.5,584l0.9-0.4 M736.6,209.3l5.8-1l6.8-0.5h7l7.1,0.5l7.3,1.1l7.4,1.6l7.5,2.2l7.6,2.7
			l7.6,3.3l7.6,3.8l7.6,4.3l7.6,4.8l7.5,5.4l7.4,5.8l7.3,6.3l7.1,6.7l7,7.1l6.8,7.5l6.6,7.7l6.3,8.1l6.1,8.3l5.5,8l5.8,9.2l5.2,8.8
			l4.8,9l4.5,9l4.1,9.1l3.6,9.1l3.2,9l2.7,9l2.3,8.9l1.9,8.8l1.6,10.3v-6l-0.4-6.5l-0.7-6.7l-1.1-6.8l-1.4-7.1l-1.8-7.1l-2.1-7.2
			l-2.4-7.3l-2.7-7.3l-3.1-7.3l-3.4-7.3l-3.7-7.2l-4-7.1l-4.3-7l-4.5-6.8l-4.8-6.7l-5-6.5l-5.3-6.3l-5.5-6l-9.3-9.3l-8-7.2l-6-4.9
			l-6.1-4.5l-6.2-4.2l-4.6-2.9 M896.2,494.5l4.7-2.8l4.3-3.3l4-3.9l3.6-4.4l3.2-4.9l2.7-5.5l2.3-5.9l1.9-6.4l1.5-6.7l1-7.1l0.7-7.5
			l0.2-7.8l-0.2-8.1l-0.7-8.3l-1-8.5l-1.5-8.7l-1.9-8.8l-2.4-8.9l-2.8-9l-3.3-9l-3.7-9.1l-4.1-9l-4.5-9l-4.9-8.9l-5.2-8.8l-5.6-8.6
			l-5.8-8.5l-6.2-8.2l-6.4-8l-6.6-7.7l-6.8-7.4l-7-7l-7.1-6.6l-7.3-6.2l-7.4-5.8l-7.4-5.2l-4.7-2.9l-3-1.9l-7.6-4.2l-7.6-3.7
			l-7.6-3.2l-7.6-2.6l-7.5-2.1l-7.4-1.6l-7.3-1l-7.1-0.5l-6.9,0.1l-6.7,0.7L729,213l-6.2,1.8l-5.9,2.4l-5.6,2.9 M701.2,606.7
			l0.4-0.2 M792.6,262l7.4,5.8l7.3,6.3l6.5,6.1l7.5,7.6l6.7,7.4l6.5,7.8l6.2,8.1l6,8.3l5.7,8.6l5.4,8.7l5,8.9l4.7,9l4.4,9.1l4,9.2
			l3.6,9.1l3.2,9.1l2.8,9l2.3,8.9l1.9,8.8l0.9,5.3l-0.2-8.2l-0.6-6.8l-0.9-6.8l-1.3-6.9l-1.6-7.1l-2-7.1l-2.4-7.2l-2.7-7.3l-3-7.2
			l-3.4-7.3l-3.7-7.2l-4-7.1l-4.3-7.1l-4.6-6.9l-4.8-6.7l-5-6.6l-5.2-6.4l-5.4-6.2l-5.6-5.9l-5.7-5.6l-5.9-5.3l-5.9-5l-6.1-4.6
			l-6.1-4.2L792.6,262l-7.5-5.4l-7.6-4.9l-7.7-4.5l-7.3-3.8l-8.1-3.7l-7.6-3l-7.5-2.4l-7.4-1.9l-7.3-1.3l-7.1-0.7l-7-0.1l-6.7,0.5
			l-7,1.2 M672.6,242.7l5.6-3l5.9-2.4l6.2-1.8l6.5-1.2l6.7-0.6l6.9,0l7.1,0.6l7.3,1.2l7.4,1.8l7.5,2.3l7.7,2.9l7.6,3.3l7.7,3.9
			l7.7,4.4l7.6,4.8l7.5,5.3l7.4,5.8l7.3,6.2l7.2,6.6l6.9,7l6.7,7.4l6.5,7.7l6.3,8l6,8.3l5.7,8.5l5.4,8.7l5.1,8.9l4.8,9l4.4,9.1
			l4.1,9.2l3.7,9.1l3.3,9.1l2.8,9l2.4,9l2,8.8l1.5,8.6l1,8.4l0.5,8.2l0.1,7.9l-0.4,7.6l-0.8,7.3l-1.2,7l-1.7,6.6l-2.1,6.2l-2.5,5.8
			l-2.9,5.4l-3.3,4.9l-3.6,4.4l-4,3.9l-4.3,3.4l-3.8,2.4 M665.6,627.6l0.3-0.1 M837.8,523.3l2.2-2.9l3.1-5.1l2.7-5.6l2.3-6l1.8-6.3
			l1.4-6.9l0.9-7.2l0.4-7.6l0-7.9l-0.5-8.2l-1.3-10.8l0-9.6l-0.5-6.5l-0.9-6.9L848,419l-1.7-7.1l-2-7.1l-2.4-7.2l-2.7-7.3l-3-7.3
			l-3.3-7.3l-3.6-7.3l-3.9-7.2l-4.2-7.1l-4.4-7l-4.7-6.8l-4.9-6.6l-5.1-6.4l-5.3-6.2l-5.5-5.9l-5.7-5.6l-5.8-5.2l-6-4.9l-6.1-4.6
			l-6.1-4.2l-8.3-5l-6.7-5l-7.6-5.1l-7.6-4.6l-7.6-4.2l-7.6-3.6l-7.6-3.1l-7.5-2.5l-7.4-1.9l-7.3-1.3l-7.1-0.7l-6.9-0.1l-6.8,0.5
			l-8.4,1.5 M814.5,541.3l-0.1,0.1l4.7-2.7l4.5-3.2l4.1-3.7l3.8-4.2l3.4-4.7l3-5.2l2.6-5.6l2.2-6.1l1.8-6.5l1.3-6.9l0.8-7.3l0.3-7.6
			l-0.1-8l-0.6-8.2l-1-8.5l-1.4-8.6l-1.9-8.8l-2.3-9l-2.7-9.1l-3.1-9.1l-3.5-9.2l-3.9-9.1l-4.3-9l-4.6-9l-5-8.8l-5.3-8.7l-5.7-8.5
			l-6-8.2l-6.3-8l-6.5-7.7l-6.8-7.4l-7-7.1l-7.2-6.7l-7.3-6.3l-7.4-5.9l-7.5-5.5l-7.6-5l-7.6-4.6l-7.6-4.1l-7.6-3.5l-7.6-3l-7.5-2.4
			l-7.4-1.8l-7.3-1.2l-7.1-0.6h-6.9l-6.7,0.6l-6.5,1.2l-6.3,1.7l-6,2.2l-5.8,2.8 M731.2,517.4l-1.6-9.4l-2-8.9l-2.4-9l-2.8-9.1
			l-3.2-9.1l-3.6-9.2l-4-9.1l-4.4-9.1l-4.7-9l-5.1-8.8l-5.4-8.6l-5.8-8.4l-6.1-8.2l-6.3-7.9l-6.6-7.7l-6.8-7.3l-7-7l-7.2-6.6
			l-7.3-6.2l-5.6-4.4 M617,278.5l3.1-0.7l6.7-0.8l6.9-0.2l7.1,0.3l7.2,0.9l7.4,1.4l7.5,2l7.5,2.5l7.6,3l7.6,3.6l7.6,4.1l7.6,4.6
			l7.5,5.2l6.5,4.9l8.1,5.1l6.1,4.4l6.1,4.7l6,5.1l5.5,5l6,6l5.6,5.9l4.6,5.3l5.9,7.3l4.9,6.6l4.6,6.8l4.4,6.9l4.1,7.1l3.8,7.2
			l3.5,7.3l3.2,7.3l2.9,7.3l2.6,7.3l2.2,7.3l1.9,7.2l1.6,7.1l1.2,6.9l0.9,6.8l0.5,6.6l0.1,8.8l-0.7-5.4l-1.6-8.7l-2.1-8.8l-2.5-9
			l-2.9-9l-3.4-9.1l-3.8-9.1l-4.2-9l-4.6-9l-5-8.9l-5.3-8.8l-7-10.5l-4.6-6.5l-6.2-8.2l-6.5-7.9l-6.7-7.6l-6.9-7.3l-7-6.9l-7.3-6.6
			l-8.3-6.9 M598.6,661.3l1.6-2.1l3.2-5l2.7-5.5l2.4-6l1.9-6.3l1.5-6.7l1-7.3l0.5-7.3l0.1-7.8l-0.4-8.1l-0.9-8.4l-0.7-4.3
			 M595.5,287.1l0.5-0.5 M595.5,378.7l4.9,4l7.2,6.3l7.1,6.8l6.9,7.1l6.7,7.5l6.5,7.8l6.3,8.1l6,8.3l5.8,8.5l5.4,8.7l5.1,8.8l4.7,9
			l4.4,9l4,9.1l3.5,9.1l3.1,9.1l2.7,9l2.2,8.9l1.8,8.8l1.4,9.1 M589.4,290.6l5.5-3.2l5.8-2.6l6.1-2l6.4-1.5l6.6-0.9l6.9-0.3l7,0.2
			l7.2,0.8l7.3,1.3l7.5,1.8l9.8,3.3l5.4,2.1l7.5,3.5l7.6,4l7.6,4.5l7.5,5.1l7.5,5.6l7.3,6l7.2,6.5l7.1,6.9l6.9,7.2l6.7,7.6l7.5,9.2
			l5.2,6.7l6,8.4l5.7,8.6l5.4,8.7l5.1,8.9l4.6,8.9l4.3,9l3.9,9.1l3.4,9.1l3,9l2.6,9l2.1,8.9l1.7,8.8l1.2,8.5l0.8,8.4l0.4,8.2l0,7.9
			l-0.5,7.6l-0.9,7.3l-1.3,6.9l-1.7,6.5l-2.2,6.1l-2.6,5.6l-3,5.2l-3.4,4.6l-3.8,4.1l-4.2,3.6l-4.6,3 M577.2,301.1l4.2-0.9l6.7-0.7
			l6.9-0.1l7.1,0.5l7.3,1l7.4,1.6l7.5,2.2l7.6,2.7l7.6,3.3l7.7,3.8l7.7,4.3l7.6,4.7l10.3,7.3l5.3,3.1l6.2,4.1l6.1,4.5l6,4.8l5.9,5.2
			l5.8,5.5l5.6,5.8l5.5,6l6.3,7.5l9,11.9l4.6,6.9l4.4,7l4.1,7.1l3.8,7.2l3.5,7.2l3.2,7.3l2.8,7.3l2.5,7.3l2.1,7.2l1.8,7.1l1.4,7
			l1.1,6.9l0.8,6.7l0.4,6.5l0,4.3l-1.6-8.7l-2.1-9l-2.5-8.8l-2.9-9.1l-3.3-9.1l-3.8-9.1l-4.1-9.1l-3.6-7.1l-5.8-10.9l-5.2-8.8
			l-5.5-8.7l-5.8-8.5l-6.1-8.2l-6.3-8l-6.6-7.7l-6.8-7.3l-7-6.9l-7.2-6.5l-7.3-6.1l-4.7-3.6 M557.5,309.2l-0.2,0.1 M553.5,400.1
			l8.6,6.8l7.3,6.3l7.1,6.7l6.9,7.1l6.7,7.6l6.3,7.7l6.2,8.1l5.9,8.4l5.6,8.6l5.3,8.8l5,8.9l4.6,9l3.8,8l4.5,10.3l3.5,9.1l3.1,8.9
			l2.7,9.2l2.2,8.9l1.8,8.7l0.6,4.1 M550.8,313l5.5-3.2l5.8-2.6l6.1-2l6.3-1.5l6.6-0.8l6.9-0.2l7.1,0.4l7.2,1l7.4,1.5l7.5,2.1
			l7.6,2.6l7.6,3.1l7.7,3.7l7.7,4.2l7.6,4.6l7.6,5.1l7.5,5.6l7.4,6l7.2,6.4l7.1,6.8l6.8,7.2l6.6,7.6l6.4,7.9l6.1,8.2l5.8,8.4
			l5.6,8.6l5.2,8.8l4.9,8.9l4.6,9.1l4.2,9.1l3.8,9.2l3.4,9.1l3,9.1l2.6,9l2.2,8.9l1.7,8.7l1.2,8.5l0.7,8.3l0.3,8.1l-0.2,7.8
			l-0.7,7.5l-1.1,7.1l-1.5,6.8l-1.9,6.4l-2.3,6l-2.7,5.6l-3.1,5.1l-3.5,4.6l-3.8,4.1l-4.2,3.6l-3.8,2.6 M718.3,592.3l3.4-4.9
			l1.6-2.9l1.4-2.5l2.5-5.8l2.1-6.2l1.6-6.6l1.2-7l0.7-7.4l0.3-7.7l-0.2-7.9l-0.7-8.3l-1-7.8l0.1-5.4l-0.3-6.5l-0.7-6.6l-1-6.8
			l-1.4-7l-1.8-7.1l-2.2-7.2l-2.5-7.3l-2.8-7.3l-3.2-7.3l-3.3-7.1l-3.9-7.5l-4-7.1l-4.2-6.9l-4.6-7l-4.8-6.7l-5-6.5l-5.2-6.3
			l-5.4-6.1l-5.6-5.8l-5.7-5.5l-5.9-5.1l-6-4.8l-6.1-4.4l-6.2-4.1l-6.2-3.7l-9.4-6.9l-7.6-4.9l-7.6-4.5l-7.6-3.9l-7.6-3.4l-7.6-2.9
			l-7.5-2.2L571,324l-7.2-1l-7.1-0.4l-6.9,0.1l-6.7,0.7l-5.5,1.1 M512,335.7l5.6-3l5.9-2.5l6.2-1.9l6.4-1.4l6.7-0.8l6.9-0.3l7,0.3
			l7.2,0.9l7.3,1.6l7.5,2.1l7.5,2.7l7.6,3.3l7.6,3.8l7.6,4.4l7.6,4.8l7.5,5.3l7.5,5.8l7.4,6.2l7.2,6.6l7.1,6.9l6.9,7.3l6.6,7.6
			l6.4,7.9l6.1,8.1l5.8,8.4l5.5,8.6l5.1,8.8l4.8,9l4.4,9l4.1,9.1l3.7,9.1l3.3,9.2l2.9,9.1l2.5,9l2,8.9l1.6,8.7l1.2,8.6l0.7,8.3
			l0.3,8.1l-0.2,7.7l-0.7,7.4l-1.1,7.1l-1.6,6.6l-2,6.2l-2.4,5.8l-2.9,5.4l-3.2,4.9l-3.6,4.5l-4,4l-4.3,3.5l-4.6,2.9 M497.4,347.5
			l7-1.1l6.8-0.5l7.3,0.1l7,0.6l7.2,1.2l7.4,1.7l7.5,2.3l7.6,2.8l7.6,3.4l7.6,3.9l7.6,4.5l7.5,5l10,7.5l5.1,3.1l6.2,4.3l6.1,4.6
			l6,4.9l5.9,5.2l5.8,5.5l5.6,5.8l5.4,6.1l5.2,6.3l5,6.5l4.8,6.7l4.5,6.9l4.2,7l3.9,7.1l3.6,7.2l3.3,7.3l3,7.3l2.7,7.3l2.4,7.3
			l2.1,7.2l1.7,7.1l1.4,7l1,6.8l0.7,6.7l0.3,6.4l-0.1,5.2l0.9,8.1l0.5,8.1l0.1,8.1l-0.3,7.6l-0.8,7.4l-1.2,7l-1.6,6.6l-2.1,6.2
			l-2.5,5.8l-2.9,5.2l-2.5,3.6 M656.2,632.9l4.8-2.7l4.4-3.2l4.1-3.8l3.7-4.3l3.3-4.8l2.9-5.4l2.4-5.8l2-6.3l1.6-6.7l1.1-7.1
			l0.7-7.4l0.3-7.8l-0.1-8l-0.6-8.3l-1-8.5l-1.4-8.7l-1.9-8.8l-2.3-8.9l-2.7-9l-3.2-9l-3.6-9.1l-4-9l-4.5-9l-4.8-8.9l-5.2-8.8
			l-5.5-8.7l-5.8-8.5l-6.1-8.2l-6.4-8l-6.6-7.7l-6.8-7.4l-7-7.1l-7.1-6.7l-7.3-6.3l-7.4-5.9l-7.5-5.4l-7.5-4.9l-7.6-4.3l-7.6-3.8
			l-7.6-3.3l-7.5-2.7l-7.5-2.2l-7.4-1.6l-7.3-1.1l-7.1-0.5l-7,0l-6.7,0.6l-6.5,1.1l-6.3,1.7l-6,2.3l-5.7,2.8 M571.9,610.9l-0.6-4.3
			l-1.6-8.7l-2-8.9l-2.4-9l-2.8-9l-3.3-9.1l-3.7-9.1l-4.1-9l-4.5-8.9l-4.9-9l-5.2-8.8l-5.6-8.6l-5.9-8.4l-6.2-8.2l-6.4-7.9l-6.6-7.7
			l-6.9-7.3l-7-7l-7.2-6.6l-9.7-8 M471.4,498.6l9.4,10.2l5.3,6.3l5.1,6.5l4.8,6.7l4.6,6.9l4.3,7l4.1,7.1l3.8,7.2l3.4,7.3l3.1,7.3
			l2.8,7.3l2.4,7.2l2.1,7.3l1.7,7l1.6,8.3 M638.9,637.9l1.8-2.5l3-5.2l2.6-5.7l2.2-6.1l1.8-6.5l1.4-6.9l1-7.2l0.5-7.5l0.1-7.9
			l-0.4-8.1l-0.9-8.4l-0.7-4.5l-0.2-7.4l-0.6-6.6l-0.9-6.8l-1.2-6.9l-1.6-7.1l-1.9-7.1l-2.3-7.2l-2.6-7.2l-3-7.3l-3.3-7.2l-3.6-7.2
			l-4-7.1l-4.2-7.1l-4.5-6.9l-4.8-6.8l-5-6.6l-5.2-6.4l-5.4-6.2l-5.6-5.9l-5.7-5.7l-5.8-5.4l-6-5l-6-4.7l-6.1-4.3l-8.5-5.2l-6.3-4.6
			l-7.6-5L532,386l-7.7-4l-4.1-1.9l-3.6-1.7l-7.6-3l-7.6-2.5l-7.5-2l-7.3-1.4l-7.2-0.9l-6.9-0.2l-6.9,0.3l-6.5,1l-1.6,0.4
			 M434.4,380.1l5.6-2.9l6-2.3l6.3-1.7l6.5-1.1l6.8-0.5l7,0.2l7.2,0.7l7.3,1.3l7.5,1.9l7.5,2.4l7.6,2.9l7.7,3.5l7.7,3.9l7.7,4.5
			l7.6,4.9l7.5,5.4l7.4,5.8l7.3,6.3l6.2,5.8l7.9,8l6.7,7.5l6.5,7.8l6.2,8.1l6,8.4l5.7,8.6l5.4,8.8l5.1,8.9l4.7,9l4.4,9.1l4,9.1
			l3.6,9.1l3.2,9.1l2.7,9l2.3,8.9l1.9,8.8l1.4,8.6l0.9,8.4l0.5,8.2l0,7.9l-0.4,7.6l-0.9,7.3l-1.3,6.9l-1.7,6.6l-2.1,6.2l-2.5,5.8
			l-2.9,5.3l-3.3,4.8l-3.7,4.3l-4,3.8l-3.8,2.9l-4.1,2.5 M513.7,423.4l9.9,7.9l7.3,6.5l7.1,6.8l6.9,7.2l6.7,7.5l6.5,7.8l6.2,8.1
			l5.9,8.3l5.6,8.6l5.2,8.7l4.8,8.9l4.5,9l4.1,9.1l3.8,9.1l3.4,9.2l3,9.1l2.6,9l2.2,8.9l1.8,8.8l0.7,4.3v-8.1l-0.4-6.5l-0.8-6.7
			l-1.2-6.9l-1.6-7l-1.9-7.1l-2.3-7.2l-2.6-7.3l-3-7.3l-3.3-7.3l-3.6-7.3l-3.9-7.2l-4.1-7.1l-4.4-7l-4.6-6.8l-5.2-7.2l-4.8-6
			l-5.3-6.2l-5.5-6l-5.6-5.6l-5.8-5.3l-6-5l-6-4.6l-6.1-4.3L513.7,423.4l-5-3.8l-7.6-5.2l-7.6-4.7l-7.6-4.3l-7.6-3.7l-7.6-3.2
			l-7.5-2.6l-7.4-2l-7.3-1.4l-7.2-0.8l-7-0.2l-6.8,0.4l-6.6,0.9l-2.8,0.7 M410.6,933l-2.4-0.3 M404.2,419.4l6.2,1.2l7.5,1.9l7.5,2.5
			l7.6,3l7.6,3.6l7.6,4.1l7.6,4.7l7.5,5.2l7.4,5.7l7.3,6.1l7.2,6.5l7.1,6.9l6.9,7.3l6.7,7.6l6.4,7.9l5.7,7.4l6.5,9.1l5.6,8.6
			l6.1,10.1l4.2,7.5l4.6,9l4.2,9l3.8,9.1l3.3,9.1l2.9,9l2.5,9l2.1,8.9l1.6,8.8l1.2,8.6l0.8,8.4l0.3,10.6l-0.1,5.4l-0.5,7.5l-0.9,7.2
			l-1.4,6.9l-1.8,6.4l-2.2,6l-2.7,5.5l-3.1,5l-1.1,1.5 M399.5,415l3.3,0.2l7.2,1l7.4,1.5l7.5,2l7.5,2.6l7.6,3.1l7.6,3.7l7.6,4.2
			l7.6,4.8l7.5,5.3l5.1,3.9l9.3,5.9l6.7,4.8l5.5,4.4l5.9,5.1l5.8,5.4l5.7,5.7l5.5,6l5.3,6.2l5.1,6.4l4.8,6.7l4.6,6.8l4.3,7l4,7.1
			l3.8,7.2l3.5,7.3l3.2,7.3l2.8,7.3l2.6,7.3l2.2,7.3l1.9,7.1l1.5,7.1l1.2,6.9l0.8,6.7l0.5,6.5v8.1l0.6,4.2l0.7,8.3l0.3,8.1l-0.1,7.8
			l-0.6,7.5l-1,7.2l-1.4,6.8l-1.9,6.4l-2.3,5.9l-2.6,5.1l-4,6.1 M579.2,677.3l4.5-3.2l4.2-3.7l3.8-4.2l3.5-4.6l3.1-5.1l2.6-5.5
			l2.3-6.1l1.8-6.4l1.4-6.8l0.9-7.2l0.5-7.6v-7.9l-0.5-8.2l-0.9-8.4l-1.4-8.6l-1.8-8.8l-2.2-9l-2.7-9l-3-9.1l-3.5-9.2l-3.8-9.1
			l-4.2-9.1l-4.6-9l-4.9-8.9l-5.3-8.7l-5.6-8.5l-5.9-8.3l-6.2-8.1l-6.5-7.8l-6.7-7.5l-6.9-7.1l-7.1-6.8l-7.3-6.4l-7.3-5.9l-7.6-5.6
			l-7.6-5.1l-7.6-4.6l-7.7-4.1l-7.6-3.6l-7.6-3.1l-7.5-2.5l-7.4-1.9l-7.3-1.3l-7.1-0.7l-7-0.1l-6.8,0.5l-6.6,1.1l-6.3,1.6l-6.2,2.2
			l-5.7,2.7 M554.2,690.1l-0.5-2.8l-6-25.3l-7.6-25.5l-9.1-25.6l-10.7-25.4l-12.1-25.1L495,535.7l-14.6-23.9l-3.4-5l-12.3-18
			l-16.7-21.9l-17.6-20.7L412,426.8L393.1,409l-3.2-2.7 M294.1,756.5l-0.2,1.7 M287.3,852.1l-7.6,2.4 M239.1,880.7l-3.4-2.3
			 M209.6,860.6l29.5,20.2l-0.1-0.1 M202.1,597.8l8.8,5.4l8,5.9l7.8,6.5l7.7,7.2l7.5,7.9l7.2,8.4l6.7,8.8l6.4,9.3l5.9,9.7l5.4,10
			l4.9,10.2l4.3,10.3l3.7,10.3l3.1,10.3l2.4,10.2l1.8,10.1l1,9.8l0.1,2.4 M154,361.6l14.6-7l15.7-4.9l16.7-2.6l17.6-0.4l18.3,1.8
			l18.9,4.1l5.6,1.8l13.8,4.5l19.6,8.4l19.8,10.4l19.8,12.4l19.6,14.3l19.4,16.1l18.9,17.8l8.6,9.1l9.7,10.2l17.6,20.7l16.7,21.9
			l15.7,23l14.6,23.9l13.4,24.6l12.1,25.1l10.7,25.4l9.1,25.6l7.6,25.5l6,25.3l4.3,24.8l2.6,24.2l0.9,23.4l-0.9,22.4l-2.6,21.2
			l-4.3,19.9l-6,18.4l-1.8,4.1l-5.8,12.7l-9.1,15l-10.7,13.2l-12.1,11.2l-13.4,9.2 M123.1,605.2l14.9-3.8l12.7-2.9l10.9-2.1
			l13.7-1.9l7.7-0.4l6.7,0.2l5.8,0.9l2.6,0.7l3.9,1.7l-7.3-3.9l-8-3.4L179,588l-7.7-1.6l-7.4-0.7l-7.1,0.2l-6.8,1.1l-6.4,2l-5.9,2.8
			l-5.4,3.7l-4.9,4.5L123.1,605.2 M123.1,711.5l14.9,9.2l6.6,4.6l6.1,4.6l5.7,4.6l5.2,4.7l4.9,4.8l4.6,4.9l4.3,5l4,5.2l3.7,5.4
			l3.5,5.6l3.3,5.9l3,6.2l2.8,6.5l2.6,6.9l4.7,15.1 M215.2,658.3l-92.1,53.1l-3.7-10.4l-3.5-12.4l-1.9-8.2l-1.7-10.1l-1-9.8
			l-0.4-9.5l0.4-9l1-8.6l1.7-8.1l2.4-7.5l3.1-6.8l3.7-6.1l5.1,10.1l2,5l1.6,5l1.3,5l1,5.1l0.7,5.2l0.4,5.3l0.1,5.4l-0.1,5.6
			l-0.4,5.8l-0.7,6l-2.3,12.8l-3.6,14.2l-5.1,16l4.3,10.3l4.9,10.2l5.4,9.9l5.9,9.7l4.5,6.6l1.8,2.7l6.8,8.9l7.1,8.4l7.4,7.9
			l7.7,7.2l7.8,6.5l8,5.8l8,5l8,4.2l8,3.4l7.8,2.5l7.8,1.6l7.3,0.7l7.1-0.2l6.8-1.1l6.4-2l5.9-2.9l5.4-3.7l4.2-3.9l5-6l5.1-16l2-7.3
			l3-13.4l1.3-8.7l-0.2,0l-90.9,52.5l14.9-3.8l12.7-2.9l10.9-2.1L255,800l7.7-0.4l3.5,0l6.3,0.6l5.4,1.3l4.7,2.1l3.7-6.1l2.4-5.2
			l0.7-1.6l2.4-7.5l1.7-8.1l1-8.6l0.4-9.1l-0.3-7l-0.5,6L215.2,658.3l0-52 M83.5,641.3l-0.2-6l0.5-11.8l1.4-11.2l2.3-10.5l1.2-3.8
			l1.9-5.9l4-8.8l4.8-7.9l5.6-6.9l5.6-5.2l0.8-0.7l7.1-4.8l7.7-3.7l8.3-2.6l8.8-1.4l9.3-0.2l6.7,0.7l2.9,0.3l9.9,2.1l10.2,3.3
			l10.3,4.4l10.4,5.5l10.4,6.5l10.4,7.6l10.1,8.4l9.9,9.4l10.1,10.7l8.8,10.3l8.8,11.5l8.3,12.1l7.7,12.6l6.9,12.7l6.5,13.5
			l5.6,13.5l3.9,10.8l4.9,16l3.1,13.3l2.3,13l1.4,12.7l0.5,12.3l-0.5,11.8l-0.9,7.1l-0.5,4.1l-2.3,10.5l-3.1,9.7l-4,8.8l-4.8,7.9
			l-5.6,6.9l-6.3,5.9l-7.1,4.8l-7.7,3.7l-7.5,2.3l-9.5,1.6l-9.2,0.2l-9.6-1l-9.9-2.1l-10.1-3.2l-10.4-4.4l-10.4-5.5l-10.4-6.5
			l-10.3-7.5l-10.2-8.5l-9.9-9.4l-9.6-10.2l-9.3-10.9l-8.8-11.5l-8.3-12.1l-7.7-12.6l-7.1-13l-6.3-13.2l-5.6-13.4l-4.8-13.5l-4-13.4
			l-3.1-13.3l-2.3-13.1l-1.4-12.7L83.5,641.3 M839.6,523.1l-1.4,0.4l0.4-1.4L839.6,523.1z M881.4,499.6l-2.7,0.2l0.3-1.4
			L881.4,499.6z M999.7,431.1l-2.7-0.6l1.8-1L999.7,431.1z M1031.3,416.3l-1.4-0.4l1.7-0.9L1031.3,416.3z M422.2,392.4l-3.9-0.2
			l1.7-1L422.2,392.4z M700.9,231l-3.9-0.2l1.7-1L700.9,231z M740.4,208.4l-4-0.2l1.8-1L740.4,208.4z M777.5,186.2l-1.4-0.4l1.7-0.9
			L777.5,186.2z"/>
	</g>
</g>
</svg>
