<?xml version="1.0" encoding="utf-8"?>
<!-- Generator: Adobe Illustrator 27.2.0, SVG Export Plug-In . SVG Version: 6.00 Build 0)  -->
<svg version="1.1" id="Layer_1" xmlns="http://www.w3.org/2000/svg" xmlns:xlink="http://www.w3.org/1999/xlink" x="0px" y="0px"
	 viewBox="0 0 1417.3 1417.3" style="enable-background:new 0 0 1417.3 1417.3;" xml:space="preserve">
<style type="text/css">
	.st0{fill:#686868}
	.st1{fill:none;stroke:#000000;stroke-width:5.4583;stroke-linecap:round;stroke-linejoin:round;stroke-miterlimit:11.3386;}
</style>
<g id="fill">
	<path class="st0" d="M1345.4,787.9l-27.7-95.2l-29.9-85.2l-32.7-78.1l0,0l-12.5-26.2l-23.7-47.4l-26.1-46.2l-14.6-24.6l0,0l0,0
		l-46.4-70.3l-53.6-71.5l-62.8-75l-0.1-0.1L965.8,135l-49.7-27.8l-51.5-23.8L810.4,63l0,0l-0.3-0.1l0,0l-59-18L685.9,29l-73.4-14.1
		L528.1,2.1c-0.1,0-0.2,0-0.3,0.1L229,174.7c-0.1,0-0.1,0.1-0.2,0.2c0,0,0,0,0,0.1l-39.1,72.5L158,311.6L132.4,370l-20.5,54.2
		l-16.1,51.7l-12,50.4l-8,50.6l-3.9,52.6c0,0.1,0,0.1,0,0.2l27.6,94.8l29.9,85.2l32.7,78.1l0,0l12.5,26.2l23.4,46.9l0,0l0.2,0.5
		l26.1,46.2l14.6,24.6l0,0l0,0l0,0l46.4,70.3l53.6,71.5l62.8,75l0.1,0.1l49.4,32.9l49.7,27.8l51.5,23.8l54.5,20.6l59,18l65.2,15.9
		l73.4,14.1l84.4,12.6l0,0l0,0l0,0l0,0l0,0l0,0c0.1,0,0.2,0,0.2-0.1l298.8-172.5c0.1,0,0.1-0.1,0.2-0.2l39.1-72.5l31.7-64.2
		l25.6-58.3l20.5-54.2c0,0,0,0,0-0.1l16.1-51.7l12-50.4l8-50.6l4-52.3C1345.4,788,1345.4,788,1345.4,787.9z M778.7,846.8l-23.3-26.6
		L733.1,792l-21-29.7l-19.6-30.9l-18.1-31.9L658.2,667l-14.6-33.4L631,600.2l-10.6-33.4l-5.1-20l23.2,23.6l23.3,26.6l22.3,28.2
		l20.3,28.7l20.3,31.9l18.1,31.9l16.4,32.7l14.5,33.2l12.6,33.4l10.6,33.4l5.1,20L778.7,846.8z"/>
</g>
<g id="stroke" xmlns:svg="http://www.w3.org/2000/svg" xmlns:inkscape="http://www.inkscape.org/namespaces/inkscape" xmlns:sodipodi="http://sodipodi.sourceforge.net/DTD/sodipodi-0.dtd">
	
		<sodipodi:namedview  bordercolor="#000000" borderopacity="0.25" id="namedview12703" inkscape:deskcolor="#d1d1d1" inkscape:document-units="mm" inkscape:pagecheckerboard="0" inkscape:pageopacity="0.0" inkscape:showpageshadow="2" pagecolor="#ffffff" showgrid="false">
		</sodipodi:namedview>
	<script  id="script6559" type="text/ecmascript">
		<![CDATA[
if(typeof(top) != "undefined")
{
	top.ShowPaper = ShowPaper;
}
function ShowPaper()
{
  var svgDocument = getDocument();
  var paper = svgDocument.getElementById("paperID");
  if(paper)
  {
    paper.setAttribute("transform","scale(1)");
    paper.setAttribute("opacity","1");
    paper.setAttribute("visibility","visible");
  }
  var svg = svgDocument.getRootElement();
  if(svg)
  {
    svg.setAttribute("width","510.000mm");
    svg.setAttribute("height","510.000mm");
    svg.setAttribute("viewBox","-5.000000 -5.000000 510.000000 510.000000");
  }
}

			
			]]>
	</script>
	<g id="layer2">
		<path id="path6623" class="st1" d="M614.3,545.1l5.6,21.8l10.6,33.5l12.6,33.5l14.6,33.4l11.3,22.6l5,9.9l18.1,32l19.6,30.9
			l21,29.7l22.3,28.2l23.3,26.6l24.6,25 M614.3,545.1l24.6,25l23.3,26.6l22.3,28.2l20.3,28.7l20.3,31.9l18.1,32l6.8,13.6l9.6,19.1
			l14.5,33.2l12.6,33.5l10.6,33.5l5.6,21.8 M72.4,629.6l3.9-52.6l8-50.6l12-50.4l16.1-51.6l20.5-54.2l25.6-58.3l31.7-64.2l39.1-72.5
			L528,2.6l84.4,12.6l73.4,14.1L751,45.2l59,18l54.5,20.6l51.4,23.8l49.7,27.8l49.3,32.9l62.8,75l53.6,71.5l46.3,70.2l14.6,24.7
			l26.1,46.2l23.7,47.3l12.5,26.2l32.7,78.1l29.9,85.2l27.7,95.2l-4,52.3l-8,50.5l-12,50.4l-16.1,51.6l-20.5,54.2l-25.6,58.3
			l-31.7,64.2l-39.1,72.5L889,1414.4l-84.4-12.6l-73.4-14.1l-65.1-15.9l-59-18l-54.5-20.6l-51.4-23.8l-49.7-27.8l-49.3-32.9
			l-62.8-75l-53.6-71.5l-46.3-70.2l-14.6-24.7l-26.1-46.2l-23.7-47.3l-12.5-26.2L130,809.5l-29.9-85.2L72.4,629.6 M1304.9,992.9
			l0.6-2.1 M1254.5,529.5l-36.2-73.5l-40.7-70.9 M1046,960.8l298.8-172.7 M889.2,1414.6l4-52.2l8-50.6l12-50.4l16.1-51.6
			 M842.7,672.9l1,1.9 M809.9,63.3l0.3,0.1 M812.9,922.5l-0.8-6.3l-6.3-32.7l-2.9-11.4 M716.1,340.8l298.8-172.5 M809.2,901.3l-9-5
			l-12.6-8l-12.7-9.1l-12.5-10l-12.4-11l-12.3-11.9L726,833.9l-12-13.8l-11.3-14.3l-10.8-15 M807.4,891.8l-18.5-10.4l-17-11.5
			l-16.8-13.1l-16.6-14.5l-16.1-15.9l-15.5-17.2L692,790.8l-14-19.2l-9.2-14l-3.9-6l-12.2-20.8l-11.1-21.3l-9.9-21.7l-8.7-21.9
			l-7.4-22l-6.1-21.8l-4.7-21.6l-3.3-21.2l-1.9-20.5l-0.4-20l0.4-7 M592.6,525.4l-0.9,5.2l-1.5,16.2l-0.6,16.2l0.4,16.9l1.4,17.3
			l2.4,17.6l3.3,17.6l4.1,17.8l5,17.9l5.7,17.9l6.5,17.8l7.2,17.7l7.9,17.4L642,756l9.1,16.4l9.9,16.4l10.3,15.6l10.9,15.1l11.1,14
			l11.6,13.4l12,12.6l12.2,11.7l12.5,10.9l12.6,9.9l12.6,8.9l12.6,7.9l12.6,6.9l12.5,5.8l7.7,2.9 M575,511l14.7,11.8l24.6,22.4
			 M555.1,720.2l6.9,18.6l6.8,16.3l7.5,16.1l8.1,15.9l8.6,15.6l9.1,15l9.5,14.7l9.9,14.2l6.6,8.7 M796.4,965.4l-6-0.3l-10.8-1.4
			l-11.1-2.4l-11.3-3.4l-11.5-4.3l-11.6-5.3l-11.7-6.3l-11.7-7.2l-11.7-8.1l-11.6-9l-11.5-9.9L664.5,897l-11.1-11.6l-10.9-12.3
			l-10.6-13l-8.5-11.5l-12.7-18.9L598.6,810l-11.5-20l-10.6-20.7l-9.9-21.2l-9-21.4l-2.4-6.4l-4.8-14.4l-4.8-16.6l-4-16.5l-3.2-16.4
			L536,640l-1.7-16.1l-0.9-16.9l-0.1-14.4l0.6-15l1.4-14.6l2.2-14.1l2.9-13.5l3.6-12.9l4.4-12.2l2.1-4.6 M502.8,508.1l9.9-2.4
			l14.6-1.5l8.6,0.2 M485.4,787.6l9.7,21l10.6,20.7l11.3,20.3l12.1,19.8l12.7,19.1l14.1,19.5 M763.3,1000.1l-9.5,4.3l-9.9,3.3
			l-10.5,2.1l-11,0.9l-11.5-0.3l-11.8-1.6l-12-2.7l-12.3-4l-12.5-5.3l-12.7-6.5l-12.5-7.5l-12.8-8.7l-12.6-9.7l-12.5-10.6
			l-12.3-11.5l-11.5-11.8L563,916.8l-11.5-14l-11.1-14.6L529.8,873l-10.1-15.9l-9.5-16.4l-8.8-16.8l-8.1-17.2l-8.5-20.4l-5.6-14.9
			l-5.9-17.9l-5.2-17.9l-4.4-17.9l-3.5-17.6l-2.7-17.8l-1.8-17.3l-0.9-16.9v-16.5l0.9-16l1.9-15.4l2.9-14.7l3.8-13.9l4.7-13.2
			l5.6-12.3l6.4-11.5l7.2-10.6l8-9.6l6.6-6.5l-3.9,1l-8,3.2 M434.2,280.2l37.1,14.5l15.3,7.6l22.2,10.9l37.6,22.4l37.3,26l36.9,29.5
			l36.1,32.7l35.1,35.7l3.9,4.4l29.9,34l32.2,40.9l30.4,43l14.5,22.9l13.8,21.9l26.2,46.2l-36.2-73.4l-32.7-78.3L743.9,436
			l-27.8-95.2l-84.4-12.6l-73.4-14.1l-65.1-15.9l-59.3-18.1 M499.1,870.4l-11.8-18.2l-11.1-19.1l-10.3-19.5l-9.3-19.9l-7.6-18.5
			l-7.9-21.7l-6.1-20.2l-5-20l-3.7-19.6 M237.5,1028.5l2.1,3.7 M788.2,977.4l5.2-6.5l7.4-13.3l6.3-14.5l4.9-15.9l0.9-4.6l3.3,25.7
			l1.8,30.9l-0.4,29.7l-2.7,28.3l-4.9,26.6l-7.1,24.7l-9.2,22.6l-11.3,20.4l-13.3,18l-15.2,15.5l-17,12.8l-18.6,10.1l-20.1,7.3
			l-21.5,4.4l-22.7,1.5l-23.7-1.4l-24.5-4.4l-25.1-7.2l-25.6-10.1l-25.9-12.8l-26-15.4l-25.8-18l-5.8-4.6l-19.7-15.8l-25-22.6
			l-24.2-24.7l-23.4-26.6l-22.2-28.2l-18.3-25.9l-2.6-3.7l-19.7-31l-18-31.8l-15-30.1l-15.9-36L255,817.3l-10.6-33.5l-8.5-33.2
			l-3-15.7l-3.3-17.1l-4.1-32l-1.9-30.9l0.4-29.7l2.7-28.3l4.9-26.6l7.1-24.7L248,523l5.5-9.8l5.9-10.6l13.3-18l15.2-15.5l17-12.8
			l18.6-10.1l5.2-1.9l15-5.4l21.4-4.4l22.7-1.5l23.7,1.4l24.5,4.4l25.2,7.2l25.6,10.1l25.9,12.8l25.9,15.4l25.8,18L575,511
			l-16.6-4.2l-15.9-2.2l-6.7-0.2l-3.4,5.9l-5.2,11.3l-4.5,12.1l-3.7,12.8l-2.9,13.5l-2.2,14l-1.4,14.6l-0.7,15.1l0.1,15.4l0.9,15.8
			l1.7,16.1l2.4,16.3l3.2,16.5l3.9,16.5l4.6,16.6l5.4,16.6l6.1,16.4l6.8,16.3l7.5,16.2l7.9,15.7l8.5,15.5l9.1,15.1l9.5,14.7
			l9.9,14.2l10.3,13.7l10.6,13l10.9,12.4l11.2,11.7l11.4,10.9l11.5,10l11.6,9.1l11.7,8.2l11.7,7.2l11.6,6.3l11.6,5.3l11.5,4.4
			l11.3,3.4l11.1,2.4l10.8,1.5l10.5,0.5L788.2,977.4l-3.9,4.9l-10.1,9.9l-11.3,8.2l-12.3,6.5l-13.3,4.6l-14.1,2.8l-14.9,0.9l-15.6-1
			l-4.1-0.7l-12-2.1l-16.5-4.8l-16.8-6.6l-16.9-8.4l-17-10.1l-16.9-11.7l-16.8-13.3l-12.1-10.9l-4.3-3.8l-16-16.1l-15.4-17.3
			L513.2,890l-13.9-19.3l-9.5-16.4l-8.9-16.9l-8.2-17.2l-8.7-20.7l-5.6-14.6l-6-17.9l-5.3-17.9l-4.4-17.9l-3.6-17.8l-2.8-17.5
			l-1.9-17.3l-1-16.9l-0.1-16.5l0.9-15.9L436,614l2.8-14.5l2-7.5l1.8-6.6l4.7-13.2l5.5-12.5l6.3-11.6l7.2-10.7l7.9-9.7l8.6-8.7
			l8.1-6.7l-5,2l-11.9,7l-10.9,8.7l-9.7,10.4l-8.5,12l-7.2,13.5l-5.9,15l-4.5,16.2l-0.4,2.4l-2.7,15.1l-1.6,18.5l-0.2,19.5l3.9,41.2
			 M225,1007.4l28.4,44.8l30.4,43l32.2,40.9l33.8,38.5l35.1,35.7L421,1243l36.9,29.5l37.4,26l21.5,12.8l16.1,9.6l37.4,18.5
			l37.1,14.5l36.4,10.4l35.5,6.3l34.3,2.1l32.8-2.1l31.1-6.4l29.1-10.5l27-14.6l24.6-18.6l22-22.4l19.3-26.1l16.4-29.5l13.7-33.5
			l10-35.1l7.1-38.5l3.9-40.9l0.6-43l-2.7-44.8l-5.9-46.1l-9.2-47.5L921,865.2l-15.4-48.4l-18.3-48.4l-21-48l-22.6-45.5l39.7,69.1
			l46.3,70.2l53.6,71.6l62.7,75.1l-39,72.3l-31.7,64.3l-25.6,58.3l-20.3,53.5 M198.6,960.8l2,3.5 M165.3,893l-2.6-5.3 M175.2,913.9
			l-21.1-48l-12.4-33l-5.8-15.4L120.5,769l-12.3-48.1l-9.1-47.3l-5.6-43.9l-3-47.1l0.6-43l3.9-40.9l6.4-34.5l0.7-3.9l10.3-35.8
			l13.4-32.8l16.4-29.5l19.2-26l22.1-22.6l24.7-18.6l26.9-14.5l29.1-10.5l7.3-1.5l23.8-4.9l32.8-2.1l34.3,2.1l35.5,6.3l36.1,10.4
			l-54.2-20.5L328.4,236l-49.9-28l-49.3-32.9 M788.9,964.5l7,0.2l0.2,1.5L788.9,964.5z"/>
	</g>
</g>
</svg>
