<?xml version="1.0" encoding="UTF-8" standalone="no"?>
<svg
   width="500mm"
   height="500mm"
   viewBox="0 0 500 500"
   stroke-linejoin="round"
   stroke-linecap="round"
   fill="none"
   fill-rule="evenodd"
   version="1.1"
   id="svg656"
   xmlns="http://www.w3.org/2000/svg"
   xmlns:svg="http://www.w3.org/2000/svg">
  <desc
     id="desc331">Composer Export</desc>
  <script
     type="text/ecmascript"
     id="script333"><![CDATA[
if(typeof(top) != "undefined")
{
	top.ShowPaper = ShowPaper;
}
function ShowPaper()
{
  var svgDocument = getDocument();
  var paper = svgDocument.getElementById("paperID");
  if(paper)
  {
    paper.setAttribute("transform","scale(1)");
    paper.setAttribute("opacity","1");
    paper.setAttribute("visibility","visible");
  }
  var svg = svgDocument.getRootElement();
  if(svg)
  {
    svg.setAttribute("width","510.000mm");
    svg.setAttribute("height","510.000mm");
    svg.setAttribute("viewBox","-5.000000 -5.000000 510.000000 510.000000");
  }
}
]]></script>
  <defs
     id="defs335" />
  <g
     id="layer1"
     transform="matrix(2.0074029,0,0,2.0074029,-163.11348,-141.10231)"
     style="fill:#b5a642;fill-opacity:1;stroke:#000000;stroke-width:0.498156;stroke-dasharray:none;stroke-opacity:1">
    <path
       style="display:inline;fill:#b5a642;fill-opacity:1;stroke:#000000;stroke-width:0.498156;stroke-dasharray:none;stroke-opacity:1"
       d="m 232.34,76.15 1.56,0.19 5.43,0.85 6.74,1.99 7.96,3.16 6.75,3.58 11.12,7.54 6.75,5.56 8.78,8.7 3.16,3.59 4.38,5.15 5.13,6.79 7.94,12.7 3.97,7.55 5.56,12.71 3.97,11.91 1.8,8.22 0.24,1.15 0.17,0.85 0.22,1.17 0.57,3.16 0.23,1.61 0.18,1.56 0.21,2.02 0.19,1.56 0.21,2.8 0.18,3.95 v 6.38 l -0.4,5.96 -0.4,3.57 -0.62,3.82 -1.98,7.55 -3.57,7.95 -3.31,5.03 -2.82,3.54 -4.75,4.37 -5.58,3.56 -2.88,1.18 -1.04,0.06 -0.07,0.24 -0.37,0.55 -3.55,4.36 -1.73,0.36 -0.64,-0.02 0.33,0.75 -0.17,0.67 -1.18,1.21 -6,3.92 -23.78,13.55 -5.63,2.72 -3.3,0.67 -0.39,1.59 -3.22,2.34 -8.84,4.74 -0.63,0.08 -0.17,0.55 -5.81,3.41 -3.44,4.5 -4.53,4.6 -3.97,3.17 -10.73,6.36 -5.89,2.44 -6.5,1.36 -3.59,0.39 -8.74,-0.22 -3.17,-0.4 -2.38,-0.4 -6.51,-1.52 -9.11,-3.6 -7.16,-3.56 -9.49,-6 -7.14,-5.56 -7.55,-6.75 -5.57,-5.56 -1.98,-2.39 -2.42,-2.74 -6.36,-7.93 -7.49,-10.78 -6.79,-11.87 -5.18,-10.71 -5.18,-13.49 -3.16,-11.13 -0.73,-3.32 -0.05,-1.06 -0.17,-0.14 -0.57,-3.18 -0.05,-1.04 -0.18,-0.12 -0.18,-0.84 -0.04,-1.03 -0.18,-0.13 -0.18,-1.2 -0.05,-1.46 -0.17,-0.14 -0.17,-1.97 -0.05,-1.47 -0.17,-0.13 -0.19,-1.57 -0.05,-2.66 -0.16,-0.15 -0.18,-3.94 v -5.19 l 0.17,-5.14 0.4,-3.57 1.63,-9.82 2.53,-7.4 2.02,-4.73 3.76,-6.17 3.58,-4.36 4.01,-3.93 5.15,-3.59 10.73,-5.94 5.96,-1.99 3.42,-0.63 3.58,-0.4 8.62,-0.16 -0.73,-0.39 -5.16,-0.11 11.68,-7.04 0.72,-0.21 0.76,-0.33 0.02,-0.3 5.68,-2.74 2.57,-1.01 2.99,-2.57 11.49,-6.74 0.71,-0.21 0.77,-0.32 0.02,-0.3 1.99,-0.97 0.77,-0.32 0.02,-0.3 14.15,-8.18 5.04,-2.1 2.36,-0.82 3.17,-0.37 0.67,-0.24 2.29,-0.43 3.54,-2.8 5.56,-2.77 3.04,-1.34 5.02,-1 3.18,-0.41 3.97,-0.21 z"
       id="path339" />
    <path
       id="path647"
       style="fill:#b5a642;fill-opacity:1;stroke:#000000;stroke-width:0.996312;stroke-dasharray:none;stroke-opacity:1"
       d="m 86.11,189.66 -0.42,-8.11 0.2,-7.44 0.77,-7.1 1.34,-6.71 1.88,-6.26 2.43,-5.76 2.94,-5.23 3.45,-4.65 3.92,-4.04 4.36,-3.39 11.23,-6.46 5.15,-2.03 5.47,-1.33 5.69,-0.6 6.27,-3.6 6.61,-4.04 2.19,-1.26 0.21,0.13 2.42,-1.39 2.37,-0.93 1.65,-0.52 1.38,-1.25 1.99,-1.58 2.09,-1.44 20.8,-11.89 5.91,-3.56 0.41,-0.06 2.18,-1.24 2.36,-0.98 2.43,-0.81 2.5,-0.66 h 1.77 l 1.19,-0.56 1.81,-0.22 3.15,-2.45 4.43,-2.53 4.77,-1.89 5.08,-1.23 5.36,-0.57 5.58,0.11 5.77,0.76 5.91,1.44 6.02,2.08 6.07,2.72 6.07,3.33 7.2,4.69 5.82,4.38 5.7,4.9 5.52,5.38 5.31,5.81 5.06,6.21 4.76,6.55 4.44,6.84 4.07,7.09 3.69,7.28 3.26,7.4 2.81,7.49 2.35,7.51 1.86,7.46 1.37,7.38 0.85,7.22 0.42,8.57 -0.18,6.91 -0.72,6.59 -1.23,6.22 -1.75,5.81 -2.26,5.35 -2.73,4.86 -3.2,4.31 -3.63,3.75 -4.05,3.15 -4.43,2.53 -3.39,1.34 -0.6,0.84 -1.67,2.04 -1.78,1.9 -1.49,0.38 -0.67,1.63 -1.99,1.59 -2.07,1.45 -2.18,1.3 -2.72,1.38 -20.06,11.74 -0.27,-0.15 -2.24,1.61 -2.28,1.11 -2.36,0.96 -2.43,0.8 -0.37,-0.28 -1.02,0.26 0.11,1.38 -2,1.56 -2.11,1.41 -2.19,1.26 -3.36,1.69 -9.61,5.61 -0.13,0.24 -3.44,4.64 -3.92,4.04 -4.36,3.4 -11.24,6.45 -5.14,2.04 -5.48,1.32 -5.63,0.6 -6.15,-0.09 -6.22,-0.83 -6.37,-1.55 -6.48,-2.24 -6.54,-2.93 -6.54,-3.59 -6.5,-4.23 -6.42,-4.83 -0.51,-0.44 -5.74,-4.94 -6.1,-5.94 -5.85,-6.4 -5.56,-6.83 -5.25,-7.21 -4.89,-7.53 -4.48,-7.81 -4.06,-8.01 -3.59,-8.16 -3.1,-8.24 -2.58,-8.26 -2.05,-8.22 -1.5,-8.12 -0.9,-7.58 m 223.76,19.55 -1.19,-1.52 m -0.49,14.14 0.61,0.83 m -4.36,-41.42 0.97,3.79 0.85,3.77 0.73,3.75 m -3.81,-15.68 -1.22,-3.8 -0.91,-2.57 -1.88,-5.02 m 0.99,80.03 0.65,-0.06 1.32,-2.44 1.21,-2.56 1.09,-2.68 m -5.29,10.35 0.48,-1.22 m -15.66,-24.05 12.31,1.55 11.4,1.12 m -24.5,-90.25 2.27,3.46 2.18,3.51 2.09,3.58 m -7.31,61.94 13.64,2.12 12.72,1.85 m -25.03,21.42 0.2,-3.36 0.08,-3.44 -0.05,-3.5 -1.84,-2.81 m 1.22,16.88 -1.52,-2.99 m 3.11,-99.31 -4.47,-3.24 m 1.15,72.08 13.98,2.23 13.09,2 -0.21,-3.57 -0.34,-3.63 -0.45,-3.67 m -27.37,8.39 2.09,2.55 0.58,3.7 0.44,3.67 0.32,3.62 m -4.05,27.7 11.51,-0.27 m -10.63,3.36 9.71,-0.36 8.86,-1.06 -0.95,1.32 m 10.63,-54.77 -1.83,-2.12 -14.39,-2.39 -15.28,-2.42 m -0.89,2.16 2.29,2.2 m -1.46,65.44 8.84,-1.27 6.55,-1.67 m -19.64,-78.25 16.14,2.41 15.29,2.48 1.23,-1.77 m -35.06,-4.91 13.21,1.74 11.41,1.62 10.44,1.55 -2.49,-2.6 -15.63,-2.48 -16.46,-2.35 m -0.09,94.75 1.98,-2.42 1.27,-1.76 1.47,-2.28 m -7.52,-169.36 0.27,0.18 m 0.24,154.24 0.34,-3.27 0.23,-3.35 0.09,-3.43 m -0.43,33.61 -0.34,-2.97 2.4,0.81 7.72,-2.66 4.29,-2.18 M 267.3,90.39 l 5.95,4.48 5.82,5.01 5.65,5.49 5.42,5.94 5.17,6.34 4.87,6.7 4.53,6.99 4.17,7.24 3.76,7.43 3.33,7.57 2.88,7.65 2.3,7.35 2,7.95 1.39,7.54 0.88,7.38 m -57,29.04 -2.03,-2.63 m 1.76,31.19 -1.43,-3.03 m -1.26,-85.02 17.24,2.11 16.47,2.37 1.36,-1.39 m -32.76,52.14 -0.69,-3.74 -0.82,-3.76 -0.94,-3.79 m -2.31,-45.28 2.45,1.34 1.98,3.63 1.88,3.69 1.77,3.72 -0.48,2.52 2.4,1.79 1.55,3.78 1.44,3.79 1.32,3.82 -0.89,2.16 32.39,4.77 -1.14,2.15 -28.96,-4.72 1.07,3.8 0.96,3.79 0.86,3.77 -1.3,1.75 15.33,2.16 7.99,1.07 6.24,0.77 -1.11,2.52 -0.06,3.44 -0.19,3.37 -0.32,3.29 -11.76,-1.34 -12.69,-1.74 -1.62,1.29 10.21,1.19 8.66,0.85 7.81,0.58 -1.13,2.86 -0.59,3.11 -0.71,3.01 -0.83,2.91 m -8.18,-73.41 3.17,2.95 -11.25,-1.5 -12.2,-1.46 -14.07,-1.47 0.06,-2.79 m 0.01,45.76 1.01,-2.06 m -0.37,57.53 2.21,-0.09 m -2.97,15.68 2.09,-1.43 1.99,-1.58 1.9,-1.73 7.44,-3.09 m -17.53,3.11 2.23,-0.18 1.35,-2.41 1.23,-2.53 1.13,-2.65 m -2.1,12.34 -2.15,-1.17 -0.09,2.78 m 1.16,-165.31 2.3,-0.03 -5.59,-2.94 m -0.54,80.39 0.6,-2.44 m -2.07,-38.32 18.18,1.53 17.51,1.96 m -38.12,-4.32 14.79,0.96 12.94,1.12 11.93,1.24 m -40.53,128.75 1.29,-0.33 1.8,-1.86 1.87,-2.24 m -7.31,-101.12 2.44,1.47 m -4.06,96.06 9.81,-0.75 0.53,2.44 m -13.26,-173.86 6.02,2.56 -2.6,-0.2 m 3.97,42.78 18.43,1.33 17.77,1.8 3.83,3.17 -1.54,1 1.89,3.68 1.79,3.72 1.68,3.75 -16.77,-2.29 -17.52,-1.98 -2.17,-3.52 -2.26,-3.46 -2.33,-3.39 -2.43,-0.83 -0.37,-2.98 -2.5,-3.23 -2.57,-3.13 -2.64,-3.04 m -1.43,25.58 2.24,3.47 2.16,3.54 2.07,3.59 m 24.11,-48.04 -9.41,-0.17 -11.73,0.02 -12.43,0.35 m 1.32,8.29 19.15,0.42 18.61,1.04 -2.44,-3.3 -2.16,-2.76 -2.93,-3.58 m -31.25,33.22 0.25,2.94 m 0.02,88.18 -0.06,-1.17 -0.16,-1.38 m 0.4,13.93 0.13,-4.82 -0.31,-6.56 12.07,1.63 14.13,1.34 -0.62,3.09 -0.74,2.98 -0.86,2.89 -12.97,-0.5 -10.8,-1.06 m -2.33,-25.55 13.78,2.2 15.76,2.24 -1.75,-2.87 m -26.8,37.1 8.22,0.15 -6.11,0.15 h -2.17 m -0.6,3.02 1.13,-5.7 0.77,-7.11 0.07,-2.62 2.26,0.19 7.15,0.38 6.84,0.14 5.34,-0.07 1.07,3.1 -12.54,-0.14 -10.21,-0.8 m -2.64,-31.63 -0.52,-2.06 m 30.45,4.75 -1.71,1.15 -11.68,-1.49 -10.5,-1.45 -6.04,-0.9 1.55,8.33 0.59,4.99 12.58,1.82 14.59,1.62 -1.99,0.63 -6.01,-0.45 -7.66,-0.71 -7.99,-0.9 -3.33,-0.43 -0.19,-1.58 m -3.71,38.78 6.47,-0.76 7.69,-1.97 m -17.7,-156.21 16.91,-0.38 21.73,0.33 2.02,-0.31 -5.06,-3.16 m -34.19,96.92 32.72,5.3 0.43,3.66 0.3,3.61 0.18,3.56 -16.22,-2.43 -14.23,-2.32 -1.48,-5.96 -2.3,-7.34 m -1.18,75.71 3.15,-0.98 5.37,-2.7 m -8.81,-194.73 6.36,2.07 -2.89,-0.38 m -3.99,198.17 -0.28,0.48 m 1.93,-1.11 -1.65,0.63 2.52,-4.48 1.09,-2.57 m -5.76,-164.43 1.17,3.08 2.16,-0.24 2.85,2.59 2.8,2.71 2.76,2.83 0.78,3.08 9.49,0.11 11.57,0.34 11.34,0.57 9.05,0.6 -1.76,0.65 -20.95,-1.41 -16.42,-0.57 -2.32,-0.29 m -13.82,66.45 -0.67,-1.53 m -6.05,-64.67 h -0.06 m -1.63,-47.09 6.6,1.46 -3.2,-0.51 m -3.39,95.94 8.29,0.82 13.24,1.48 14.99,1.91 2.38,1.91 m -38.26,-5 17.88,2.13 20.38,2.87 1.42,3.79 1.31,3.81 1.2,3.8 -19.35,-3.01 -17.02,-2.4 m -8.05,-64.89 1.06,3.07 m -4.25,-48.17 7.82,1.26 5.79,1.4 5.89,2.04 5.94,2.66 5.94,3.26 5.91,3.84 5.82,4.39 5.7,4.9 5.52,5.38 5.31,5.81 5.06,6.21 4.76,6.54 4.44,6.85 4.07,7.09 3.69,7.27 3.26,7.41 2.81,7.49 2.35,7.5 1.87,7.5 1.39,7.6 0.82,6.97 0.34,7.02 -0.18,6.76 -0.7,6.45 -1.21,6.09 -1.72,5.69 -1.53,4.06 -0.1,-0.06 -10.45,-0.43 -11.36,-0.97 -1.91,0.78 9.15,0.57 7.73,0.2 6.94,-0.09 -1.21,3.16 -10.1,-0.13 -10.99,-0.72 -0.47,3.19 -0.6,3.1 -0.72,3 m -62,-66.12 -4.85,-7.49 -2.04,-2.8 m -0.5,-0.69 0.5,0.69 18.78,1.49 21.66,2.37 1.87,3.69 1.74,3.67 1.67,3.8 -20.74,-2.76 -18.09,-1.97 4.52,7.85 4.05,8.01 0.87,1.97 15.97,2.11 18.12,2.6 2.24,2.31 -18.94,-3.02 -16.72,-2.47 2.05,4.66 2.53,6.7 33.53,5.42 -1.38,1.63 -31.29,-4.59 -0.29,-0.92 -0.57,-1.54 m -24.62,-105.61 17.33,-2.75 22.59,-2.54 2.96,2.19 2.93,2.32 2.89,2.45 -19.69,1.18 -19.97,2.06 m -11.38,-26.13 4.33,-2.47 4.67,-1.85 4.97,-1.2 5.24,-0.56 5.47,0.1 5.64,0.75 5.79,1.4 5.89,2.04 5.93,2.66 5.96,3.27 5.9,3.83 5.82,4.39 5.69,4.9 5.53,5.38 5.31,5.81 5.06,6.21 4.76,6.55 4.44,6.84 4.07,7.09 3.69,7.27 3.26,7.41 2.81,7.49 2.35,7.5 1.86,7.47 1.37,7.38 0.85,7.22 0.34,7.02 -0.18,6.76 -0.7,6.45 -1.21,6.09 -1.72,5.69 -2.2,5.24 -2.68,4.75 -3.13,4.22 -3.55,3.67 -3.97,3.08 -5.32,3.07 0.54,-1.39 -8.55,0.66 -10.06,0.04 -2.16,0.25 1.18,3.08 -0.99,2.78 -1.1,2.67 -1.22,2.55 -2.32,-0.29 0.78,3.08 8.51,-1.64 7.75,-2.46 M 208.55,83.27 208.64,83.2 m -2.16,1.24 0.8,-0.46 -0.13,0.1 m -0.99,19.6 1.84,2.81 1.62,-1.29 3.02,1.5 3.01,1.63 3.01,1.78 1.53,3 1.91,-0.78 17.22,-1.5 22.29,-0.99 2.81,2.7 2.76,2.81 2.71,2.92 -19.25,-0.05 -19.68,0.73 -2.93,-2.34 -2.95,-2.21 -2.98,-2.07 m -12.18,53.71 18.94,1.26 21.98,2.17 -0.18,2.72 -15.91,-1.53 -13.97,-1.06 -8.62,-0.49 -2.71,-3.72 -5.57,-6.83 -1.64,-1.79 m -3.01,-3.3 19.44,0.26 23.01,1.23 -2.42,-3.31 -2.49,-3.24 -2.56,-3.14 m -33.53,97.63 0.33,-1.06 0.63,-2.95 0.38,-3.13 0.11,-2.46 m -5.82,-117.51 2.16,-0.4 3.02,1.66 3,1.8 3,1.94 m -13.63,-20.95 2.09,2.55 1.28,-1.76 2.96,0.86 2.98,1.02 2.99,1.17 20.05,-3.56 19.91,-2.57 -3,-1.91 -3.01,-1.76 -3.01,-1.62 -22.64,4.25 -17.23,4.12 m -4.75,154.16 1.94,-1.51 0.53,-0.54 M 189.66,88.69 191,87.92 m 11.01,68.59 8.66,0.05 14.57,0.43 14.28,0.75 2.41,0.16 2.44,0.97 -22.76,-1.52 -19.37,-0.58 -4.2,-4.61 -6.09,-5.92 -0.93,-0.8 m -3.24,-2.8 19.6,-0.88 h 23.8 m -43.68,-52.02 -0.89,0.54 m -2.7,1.69 4.91,-2.81 m -0.41,0.06 -4.5,2.75 -1.41,0.81 m -0.39,5.94 19.5,-6.82 19.64,-5.74 -2.93,-0.67 -2.89,-0.5 -2.85,-0.35 -0.34,0.12 m -32.83,51.36 19.31,-1.81 24.22,-1.06 2.8,2.73 2.75,2.84 2.69,2.94 0.68,3.06 -2.52,-0.05 -14.78,-0.03 -15.02,0.39 -7.97,0.29 19.03,-0.53 23.61,0.38 -2.35,-0.45 m -55.79,-10.89 3.21,2.09 6.4,4.82 5.34,4.6 0.55,-0.02 -0.57,-0.01 m 10.57,84.07 -1.24,-0.94 -1.99,-1.69 -1.9,-1.77 -1.87,-1.91 -1.82,-2.02 -1.77,-2.13 -1.94,-2.54 -1.43,-2.01 -1.58,-2.4 -1.5,-2.48 -1.41,-2.54 -1.33,-2.59 -1.22,-2.64 -1.12,-2.68 -1,-2.7 -0.89,-2.71 -0.76,-2.73 -0.63,-2.73 -0.51,-2.71 -0.38,-2.7 -0.17,-1.82 m -0.92,-81.42 16.45,-7 21.6,-7.86 -2.89,-0.32 m -38.07,15.91 18.91,-8.5 19.16,-7.41 h -2.76 l -2.7,0.15 -0.82,0.1 m -20.46,24.4 -2.93,-0.71 -2.9,-0.54 -2.87,-0.39 -2.22,0.8 m 30.4,125.92 -2.16,-1.39 -1.97,-1.43 -1.95,-1.57 -1.93,-1.71 -1.91,-1.83 -1.86,-1.95 -1.81,-2.05 -1.76,-2.16 -1.7,-2.25 -1.63,-2.34 -1.55,-2.41 -1.46,-2.49 -1.37,-2.55 -1.26,-2.61 -1.16,-2.65 -1.05,-2.7 -0.93,-2.71 -0.82,-2.74 -0.7,-2.74 -0.59,-2.74 -0.47,-2.72 -0.34,-2.7 -0.22,-2.66 -0.09,-3.28 m 19.33,90.24 2.43,-1.89 2.18,-2.25 1.92,-2.59 1.65,-2.92 1.35,-3.21 1.05,-3.49 0.74,-3.74 0.43,-3.96 0.11,-4.16 -0.2,-4.3 -0.53,-4.44 -0.83,-4.53 -1.15,-4.58 -1.44,-4.61 -1.73,-4.6 -2,-4.54 -2.26,-4.47 -2.5,-4.35 -2.72,-4.21 -2.93,-4.02 -3.11,-3.81 -3.26,-3.57 -3.39,-3.3 -3.49,-3.01 -2.07,-1.55 m -1.24,-46.91 5.03,2.76 3.3,2.15 19.26,-2.17 24.34,-1.49 -2.89,-2.5 -2.92,-2.35 -2.95,-2.23 -2.18,0.24 m -10.44,-37.96 -18.49,9.07 -13.13,7.36 13.37,-7.12 20.02,-9.31 m -33.77,16.63 0.38,-0.2 -1.82,0.97 m -0.64,0.34 2.28,-1.11 2.36,-0.96 2.43,-0.79 2.4,1.79 0.51,-2.52 2.57,-0.46 2.64,-0.3 2.71,-0.14 2.28,2.2 0.9,-2.17 2.81,0.21 2.86,0.36 2.9,0.52 19.88,-5.16 19.89,-4.11 -3.01,-1.3 -2.65,-1.02 -3.32,-1.14 -22.41,6.09 -16.95,5.55 m -22.45,6.54 -1.14,-0.62 2.51,-1.41 -0.06,2.74 -1.31,-0.71 m -0.41,2.22 4.43,-2.52 4.77,-1.89 5.08,-1.23 5.35,-0.57 5.59,0.1 5.77,0.77 5.91,1.44 6.02,2.08 6.06,2.72 6.08,3.33 6.03,3.92 5.95,4.48 5.82,5.01 5.64,5.5 5.43,5.94 5.17,6.34 4.73,6.5 4.67,7.18 4.17,7.24 3.76,7.44 3.33,7.57 2.88,7.65 2.4,7.67 1.9,7.63 1.39,7.54 0.88,7.38 0.34,7.17 -0.18,6.91 -0.72,6.59 -1.24,6.22 -1.75,5.81 -2.25,5.36 -2.73,4.84 -3.2,4.32 -3.64,3.75 -4.04,3.15 -4.26,2.46 1.41,-1.9 -11.02,1.35 -8.2,0.13 -0.2,1 -1.89,6.26 -1.35,3.23 5.76,-0.95 9.62,-3.05 m -89.81,-171.75 0.14,-0.12 -0.7,0.41 m 38.03,137.56 0.38,-0.88 0.54,-1.7 -2.24,-0.76 -1.98,-0.83 -1.99,-0.98 -1.99,-1.13 -1.98,-1.26 -1.99,-1.43 -1.88,-1.48 -2.02,-1.74 -1.89,-1.81 -1.85,-1.93 -1.8,-2.04 -1.73,-2.16 -1.67,-2.27 -1.6,-2.36 -1.51,-2.45 -1.44,-2.51 -1.35,-2.59 -1.26,-2.63 -1.16,-2.68 -1.06,-2.71 -0.95,-2.73 -0.85,-2.74 -0.72,-2.74 -0.61,-2.73 -0.48,-2.72 -0.34,-2.68 -0.21,-2.64 -0.08,-2.58 0.07,-2.53 0.2,-2.47 0.33,-2.39 0.61,-2.85 m -3.03,-64.73 2.31,-1.07 2.65,-0.27 2.71,-0.12 2.77,0.04 m -11.12,0.87 -2.52,0.61 -0.79,0.26 m 0.47,15.29 17.15,-4.25 22.45,-4.19 -1.3,-2.13 m -41.07,9.61 5.75,1.99 6.53,2.93 1.52,0.83 18.61,-3.1 22.38,-2.49 -1.24,-2.64 -24.6,3.23 -18.29,3.45 m -4.02,45.06 -2.69,-0.56 -2.72,-0.27 -1.01,0.01 m 42.38,79.29 -0.89,0.14 -2.14,0.07 -2.21,-0.16 -2.08,-0.38 -2.12,-0.58 -2.15,-0.79 -2.15,-0.98 -2.01,-1.08 -1.99,-1.23 -1.98,-1.37 -1.97,-1.52 -1.94,-1.64 -1.93,-1.77 -1.88,-1.89 -1.84,-2.01 -1.77,-2.09 -1.74,-2.22 -1.65,-2.29 -1.58,-2.38 -1.49,-2.46 -1.4,-2.52 -1.3,-2.59 -1.2,-2.65 -1.09,-2.68 -0.98,-2.71 -0.87,-2.74 -0.76,-2.74 -0.63,-2.67 -0.54,-2.81 -0.41,-2.71 -0.28,-2.69 -0.16,-2.64 -0.03,-2.56 0.1,-2.54 0.23,-2.45 0.37,-2.36 0.67,-2.84 0.46,-1.59 0.78,-2.05 0.9,-1.93 1.27,-2.19 -1.66,0.02 -0.45,0.06 m -4.65,-58.88 -0.17,0.12 m -2.54,8.16 13.65,-4.97 24.27,-7.13 1.22,1.59 m -41.67,5.48 7.64,-4.38 m -9.01,5.17 8.8,-5.3 m -11.16,7.12 1,-0.54 m -1.48,2.37 1.64,0.03 m -3.57,-0.54 1.91,-1.04 m 8.7,54.09 -1.08,0.86 -1.4,1.35 -1.29,1.49 -1.17,1.64 -1.05,1.78 -0.93,1.91 -0.8,2.03 -0.68,2.14 -0.56,2.24 -0.44,2.33 -0.31,2.41 -0.18,2.49 -0.06,2.55 0.06,2.6 0.2,2.65 0.32,2.67 0.44,2.71 0.61,2.86 0.74,2.86 0.89,2.85 1.01,2.84 1.2,2.95 1.33,2.9 1.44,2.86 1.56,2.78 1.66,2.71 1.75,2.62 1.83,2.52 1.91,2.4 1.97,2.27 2.03,2.14 2.08,1.99 2.11,1.82 m -27.22,-129.82 0.56,0.01 m 11.98,1 14.5,-4.89 24.37,-6.57 2.99,1.04 3,1.19 3.01,1.34 -24.58,5.13 -16.49,4.48 -0.73,-0.25 -6.37,-1.54 -6.22,-0.83 -1.03,-0.02 10.45,-4.56 21.65,-7.82 -1.02,-1.05 -23.68,9.2 -9.04,4.2 -2.79,-0.05 4.27,-2.32 20.8,-9.61 -0.68,-0.55 -22.83,11.23 -2.18,1.24 m 11.53,52.84 -0.31,0.16 1.83,-0.8 2.38,-0.66 2.08,-0.29 -1.12,1.6 -1.06,1.79 -0.95,1.9 -0.82,2.02 -0.71,2.11 -0.58,2.22 -0.45,2.31 -0.31,2.39 -0.18,2.47 -0.03,2.55 0.1,2.6 0.23,2.65 0.38,2.75 0.48,2.67 0.61,2.74 0.73,2.74 0.85,2.75 0.95,2.73 1.06,2.71 1.16,2.67 1.26,2.63 1.35,2.57 1.44,2.51 1.52,2.43 1.61,2.34 1.68,2.24 1.75,2.14 1.81,2.03 1.86,1.92 1.91,1.8 1.94,1.67 1.96,1.55 1.99,1.41 1.99,1.28 2,1.13 1.98,0.98 1.97,0.83 1.95,0.67 1.91,0.5 1.91,0.34 1.85,0.16 1.79,-0.03 1.73,-0.2 1.4,-0.32 1.22,-1.24 1.54,-2.05 1.33,-2.32 0.72,-1.65 -1.76,-0.38 -1.94,-0.56 -1.96,-0.72 -1.98,-0.87 -1.99,-1.02 -1.98,-1.17 -1.98,-1.32 -1.96,-1.46 -1.94,-1.61 -1.91,-1.75 -1.86,-1.88 -1.82,-2.01 -1.77,-2.12 -1.72,-2.22 -1.64,-2.32 -1.58,-2.4 -1.5,-2.48 -1.42,-2.54 -1.33,-2.6 -1.23,-2.64 -1.13,-2.68 -1.03,-2.71 -0.91,-2.72 -0.78,-2.73 -0.66,-2.73 -0.53,-2.71 -0.4,-2.69 -0.26,-2.66 -0.14,-2.63 v -2.57 l 0.12,-2.52 0.25,-2.45 0.37,-2.37 0.49,-2.29 0.7,-2.42 2.99,0.92 2.9,1.2 2.51,1.28 -1.51,-1.14 -3.63,-2.36 -3.65,-2 -3.64,-1.63 -3.62,-1.26 -3.55,-0.86 -3.47,-0.46 -3.35,-0.06 -3.22,0.34 -3.05,0.74 -2.87,1.14 -2.66,1.51 -2.41,1.88 -2.2,2.27 -1.92,2.59 -1.65,2.92 -1.35,3.21 -1.05,3.49 -0.75,3.74 -0.43,3.96 -0.11,4.15 0.06,1.13 0.15,3.18 0.52,4.44 0.84,4.53 1.15,4.58 1.44,4.61 1.73,4.59 2,4.55 2.26,4.47 2.5,4.35 2.72,4.2 2.93,4.02 3.11,3.82 3.25,3.56 3.4,3.31 3.49,3.01 3.58,2.69 3.63,2.36 3.64,2 3.65,1.63 3.64,1.26 3.53,0.85 3.47,0.47 3.35,0.06 3.22,-0.34 3.05,-0.74 2.87,-1.14 2.66,-1.52 m 1.75,-13.24 -2.03,1.17 -2.18,0.89 -2.31,0.62 -2.43,0.32 -2.53,0.04 -2.62,-0.24 -2.69,-0.53 -2.75,-0.82 -2.77,-1.09 -2.79,-1.36 -2.79,-1.62 -2.77,-1.81 -2.85,-2.29 -2.79,-2.47 -2.71,-2.7 -2.6,-2.91 -2.47,-3.09 -2.33,-3.26 -2.16,-3.39 -1.29,-2.28 -0.7,-1.23 -1.79,-3.6 -1.59,-3.66 -1.37,-3.7 -1.14,-3.7 -0.9,-3.69 -0.67,-3.63 -0.41,-3.57 -0.17,-3.46 0.09,-3.33 0.34,-3.19 0.59,-3.01 0.84,-2.82 1.06,-2.58 1.29,-2.34 1.51,-2.1 1.71,-1.83 1.91,-1.56 2.09,-1.26 0.45,-0.17 -1.83,1.16 -1.7,1.35 -1.59,1.53 -1.44,1.7 -1.31,1.87 -1.16,2.03 -0.99,2.2 m -22.44,-58.03 0.15,-0.12 m 101.06,179.73 4.36,-3.39 3.92,-4.04 3.44,-4.65 2.95,-5.23 2.43,-5.77 1.84,-6.1 1.38,-6.86 0.77,-7.1 0.2,-7.45 -0.38,-7.73 -0.94,-7.95 -1.5,-8.12 -2.05,-8.22 -2.58,-8.26 -3.1,-8.25 -3.59,-8.15 -4.06,-8.01 -4.49,-7.81 -4.88,-7.53 -5.25,-7.21 -5.12,-6.29 -0.44,-0.55 -5.85,-6.39 -6.08,-5.93 -6.28,-5.39 -6.4,-4.83 -6.51,-4.23 -6.54,-3.59 -6.54,-2.93 -6.48,-2.25 -6.37,-1.54 -6.22,-0.83 -6.02,-0.11 -5.77,0.62 -5.47,1.32 -5.14,2.03 -4.77,2.73 m 132.78,156.06 -0.71,0.39 0.17,-0.55 0.63,-0.08 z m 18.08,-18.04 2.15,-0.03 -0.83,1.35 -0.41,-0.87 z m 34.19,-14.36 0.64,0.02 -0.31,0.73 z m 6.29,-5.25 0.07,-0.24 1.04,-0.06 z m 0.43,-3.83 1.76,0.01 -0.09,0.39 -0.74,0.07 z m -210.27,-39.83 -0.22,-1.2 0.17,0.14 z m 237.26,-3.17 v -6.38 l 0.16,0.15 z m -238.05,-1.21 -0.23,-1.16 0.18,0.12 z m -0.41,-2 -0.22,-1.16 0.18,0.13 z m -0.4,-2.36 -0.22,-1.6 0.17,0.14 z m -0.39,-3.57 -0.22,-1.6 0.17,0.13 z m 239.07,-1.19 -0.21,-2.8 0.15,0.15 z m -239.48,-1.98 -0.21,-2.81 0.16,0.15 z m 239.08,-2.38 -0.21,-2.02 0.16,0.15 z m -0.39,-3.58 -0.23,-1.61 0.18,0.14 z m -148.99,-2.78 -0.41,1.46 0.09,-1.78 z m 148.19,-1.99 -0.22,-1.17 0.19,0.12 z m -0.39,-2.02 -0.24,-1.15 0.19,0.13 z M 152.2,171.7 h 3.38 l -1.37,0.42 z m 68.56,-39.1 2.33,0.57 h -4.57 l 1.76,-0.33 0.37,-0.41 z m -53,-3.83 h 0.86 l -0.05,0.43 h -0.77 z m -26.51,-8.3 -8.62,0.16 2.73,-0.66 5.16,0.11 z m 7.27,-8.08 -0.76,0.33 0.78,-0.63 z m 23.31,-4.27 -0.51,0.14 0.14,-0.51 z m 0.92,-9.62 -0.77,0.32 0.5,-0.59 0.29,-0.03 z m 2.78,-1.59 -0.77,0.32 0.5,-0.59 0.29,-0.03 z" />
  </g>
</svg>
