<?xml version="1.0" encoding="UTF-8" standalone="no"?>
<svg
   width="500mm"
   height="500mm"
   viewBox="0 0 500 500"
   stroke-linejoin="round"
   stroke-linecap="round"
   fill="none"
   fill-rule="evenodd"
   version="1.1"
   id="svg17891"
   xmlns="http://www.w3.org/2000/svg"
   xmlns:svg="http://www.w3.org/2000/svg">
  <desc
     id="desc17696">Composer Export</desc>
  <script
     type="text/ecmascript"
     id="script17698"><![CDATA[
if(typeof(top) != "undefined")
{
	top.ShowPaper = ShowPaper;
}
function ShowPaper()
{
  var svgDocument = getDocument();
  var paper = svgDocument.getElementById("paperID");
  if(paper)
  {
    paper.setAttribute("transform","scale(1)");
    paper.setAttribute("opacity","1");
    paper.setAttribute("visibility","visible");
  }
  var svg = svgDocument.getRootElement();
  if(svg)
  {
    svg.setAttribute("width","510.000mm");
    svg.setAttribute("height","510.000mm");
    svg.setAttribute("viewBox","-5.000000 -5.000000 510.000000 510.000000");
  }
}
]]></script>
  <defs
     id="defs17700" />
  <g
     id="layer7"
     transform="matrix(1.300725,0,0,1.300725,-48.275755,-98.622378)">
    <path
       style="display:inline;fill:#686868;fill-opacity:1"
       d="m 374.77,125.62 5.15,2.39 15.49,8.74 5.59,4.33 2.37,2.01 4.38,5.15 3.99,5.54 4.33,7.98 2.76,7.57 1.02,4.62 0.23,1.17 0.18,1.2 0.22,1.6 0.17,3.56 v 7.17 l -0.17,11.5 -0.62,4.39 -0.62,3.02 -1.72,4.24 -3.99,5.94 -2.45,1.61 -0.33,-0.01 -0.4,0.7 -0.22,0.27 -3.73,2.22 -3.16,1.61 -2.94,0.54 -0.7,0.22 -1.41,1.73 -2.16,1.81 -5.5,3.24 -3.32,0.71 -0.75,-0.36 -0.34,0.7 -2.59,2.67 -4.8,3.14 -5.65,1.9 -1.46,1.71 -4.53,3.02 -3.16,1.6 -3.64,0.74 -0.62,0.96 -3.74,3.42 -5,2.54 -3.02,0.58 -0.77,-0.35 -0.34,0.7 -3.17,3.28 -5.01,2.94 -4.87,1.48 -0.46,0.73 -2.78,2.38 -3.94,2.42 -5.06,1.69 -3.3,3.06 -5.13,3.21 -4.11,1.15 -1.16,-0.38 -0.35,0.66 -0.61,1.08 -3.33,3.01 -5.51,2.83 -2.55,0.55 -1.1,0.2 -0.62,0.94 -2.73,2.44 -5.61,3.12 -3.42,0.86 -2.89,2.76 -4.8,3.14 -4.63,1.43 -0.96,-0.39 -0.23,0.57 -0.89,1.22 -3.18,2.77 -5.31,3.03 -4.04,0.73 -0.78,1.2 -2.9,2.35 -0.25,0.1 0.16,1.02 0.2,1.57 0.21,2.02 0.18,1.95 0.22,2.02 0.18,5.14 v 7.57 l -0.18,5.13 -0.79,7.17 -1.64,7.8 -2.78,7.55 -3.58,6.35 -3.57,4.77 -3.74,3.41 -4.37,3.16 -68.14,39.5 -5.29,2.64 -5.14,2.01 -2.53,0.56 -3.97,0.58 -5.18,0.22 -3.18,-0.23 -3.57,-0.4 -3.96,-0.79 -5.71,-1.53 -7.13,-2.8 -2.74,-1.23 -9.93,-5.56 -7.95,-5.15 -5.56,-4.38 -5.56,-4.76 -9.14,-9.13 -8.34,-10.32 -7.18,-10.29 -5.16,-8.75 -7.16,-14.28 -4.77,-12.71 -2.78,-9.13 -0.33,-1.73 -0.04,-1.07 -0.19,-0.13 -0.96,-3.97 -0.05,-1.05 -0.18,-0.13 -0.17,-1.21 -0.05,-1.04 -0.18,-0.13 -0.17,-1.22 -0.04,-1.03 -0.18,-0.13 -0.18,-1.2 -0.05,-1.47 -0.17,-0.14 -0.18,-1.56 -0.05,-1.87 -0.17,-0.15 -0.18,-1.95 -0.05,-4.25 -0.16,-0.15 0.21,-15.09 0.58,-5.14 0.45,-3.04 0.74,-2.92 0.55,-2.55 2.01,-5.92 3.16,-6.37 3.01,-4.54 5.38,-5.75 8.17,-5.33 68.84,-39.57 5.45,-2.1 2.63,-0.63 5.15,-0.81 h 6.77 l 3.98,0.4 4.74,0.98 3.84,0.84 7.55,2.78 6.36,3.17 9.13,5.17 7.53,5.17 2.43,1.99 1.03,0.04 5.56,-3.63 3.56,-1.59 1.07,-0.22 1.04,-0.05 0.07,-0.26 2.6,-2.64 5.56,-3.19 2.77,-1.19 1.47,-0.21 1.02,-0.19 -0.21,-0.2 2.1,-2.17 6.75,-3.97 3.45,-1 1.06,-0.07 0.1,-0.6 1.35,-1.51 5.55,-3.58 4.79,-1.97 1.47,-0.52 1.03,0.27 -1.03,-0.27 2.25,-2.51 6.59,-3.73 4.24,-1.31 1.48,0.25 -1.48,-0.25 2.11,-2.27 7.15,-3.97 3.31,-1.05 3.22,-2.75 4.98,-2.95 5.36,-2.2 2.72,-2.44 3.56,-2.39 5.03,-2.1 1.07,-0.23 1.46,-0.14 -0.72,-0.56 0.99,-1.06 6.08,-3.84 3.05,-1.32 3.08,-0.91 1.02,0.27 -1.02,-0.27 1.69,-1.87 5.16,-3.18 4.78,-1.97 1.55,-0.84 2.53,-2.22 3.57,-2.4 4.63,-2.11 1.5,-0.18 0.63,-0.08 0.1,-0.61 0.96,-1.1 3.97,-2.79 2.78,-1.59 3.94,-1.62 2.42,-1.95 4.35,-1.98 3.45,-0.64 h 5.97 l 1.2,0.19 z"
       id="path17704" />
    <path
       id="path17882"
       style="fill:none;fill-opacity:1;stroke:#000000;stroke-width:1.411"
       d="m 251.05,311.96 0.79,-0.55 1.38,-1.2 1.28,-1.37 0.49,-0.65 1.86,-0.27 1.71,-0.44 1.76,-0.68 2.85,-1.59 1.5,-0.99 1.39,-1.17 1.28,-1.35 0.94,-1.24 1.18,-0.15 1.82,-0.42 1.73,-0.62 1.62,-0.78 2.83,-1.65 1.45,-1.08 1.33,-1.26 1.27,-1.54 0.62,-0.07 1.81,-0.42 1.73,-0.61 1.63,-0.78 2.84,-1.66 1.47,-1.06 1.37,-1.24 1.42,-1.64 2.31,-0.37 1.75,-0.54 1.64,-0.74 2.83,-1.64 1.47,-1.05 1.37,-1.23 1.25,-1.39 0.53,-0.73 1.82,-0.27 1.8,-0.47 1.69,-0.65 2.87,-1.57 1.52,-0.95 1.41,-1.15 1.28,-1.33 0.92,-1.22 1.13,-0.16 1.81,-0.46 1.71,-0.65 1.61,-0.82 2.83,-1.67 1.45,-1.09 1.34,-1.27 1.1,-1.31 0.9,-0.1 1.76,-0.41 1.76,-0.62 1.61,-0.8 2.82,-1.69 1.42,-1.06 1.38,-1.29 1.4,-1.69 2.38,-0.36 1.76,-0.52 1.66,-0.71 2.82,-1.6 1.5,-1.04 1.36,-1.22 1.23,-1.4 0.56,-0.79 1.72,-0.29 1.79,-0.5 1.69,-0.67 1.56,-0.84 2.85,-1.7 1.42,-1.14 1.29,-1.31 0.8,-1.01 1.3,-0.21 1.79,-0.48 1.69,-0.66 1.6,-0.86 2.8,-1.7 1.44,-1.13 1.32,-1.3 1.02,-1.23 1.08,-0.11 1.82,-0.39 1.73,-0.59 1.61,-0.78 2.8,-1.67 1.45,-1.11 1.32,-1.27 1.42,-1.77 1.57,-0.24 1.37,-0.33 1.32,-0.44 1.27,-0.54 2.89,-1.6 3.09,-1.93 2.08,-1.76 1.84,-2.09 1.6,-2.4 1.35,-2.7 1.09,-2.96 0.82,-3.22 0.54,-3.44 0.26,-3.65 0.02,-15.61 -0.1,-2.7 -0.3,-2.8 -0.49,-2.86 -0.69,-2.92 -0.88,-2.95 -1.05,-2.95 -1.24,-2.94 -1.38,-2.89 -1.56,-2.86 -1.68,-2.76 -1.82,-2.66 -1.93,-2.53 -2.03,-2.4 -2.12,-2.23 -2.17,-2.04 -2.24,-1.87 -2.28,-1.66 -2.28,-1.44 -13.13,-7.56 -3.29,-1.64 -3.26,-1.3 -3.2,-0.95 -3.12,-0.58 -3.02,-0.22 -2.9,0.14 -2.75,0.51 -2.59,0.87 -2.4,1.22 -2.2,1.57 -1.02,0.98 -1.34,0.4 -1.49,0.59 -1.43,0.69 -3.47,2.04 -1.29,0.93 -1.23,1.04 -1.41,1.45 -2.48,0.71 -1.94,0.81 -4.41,2.51 -1.71,1.26 -1.59,1.42 -0.91,0.99 -0.95,0.22 -2.04,0.66 -1.94,0.85 -4.4,2.54 -1.7,1.27 -1.59,1.43 -0.58,0.63 -1.42,0.32 -2.03,0.67 -1.93,0.85 -2.58,1.47 -1.79,1.11 -1.83,1.44 -1.6,1.57 -2.08,0.56 -2.07,0.8 -1.95,1.03 -2.32,1.34 -1.76,1.25 -1.66,1.44 -1.15,1.22 -2.43,0.7 -1.96,0.81 -1.87,0.98 -2.55,1.5 -1.73,1.23 -1.61,1.4 -1.01,1.05 -0.85,0.18 -2.05,0.63 -1.96,0.82 -1.86,0.99 -2.55,1.51 -1.71,1.24 -1.59,1.42 -0.64,0.69 -1.32,0.29 -1.91,0.62 -1.81,0.8 -2.91,1.63 -1.81,1.18 -1.68,1.38 -1.61,1.63 -1.83,0.5 -1.98,0.76 -1.89,0.95 -2.57,1.48 -1.74,1.19 -1.64,1.37 -1.44,1.45 -2.32,0.64 -1.99,0.78 -1.88,0.95 -2.57,1.5 -1.74,1.2 -1.63,1.37 -1.08,1.11 -0.74,0.14 -2.05,0.61 -1.96,0.79 -1.56,0.81 -2.93,1.75 -1.77,1.32 -1.63,1.53 -0.45,0.51 -1.27,0.3 -2,0.7 -1.91,0.89 -2.48,1.4 -1.77,1.14 -1.99,1.63 m 53.89,93.6 0.15,0.89 0.77,7.22 0.26,6.98 v 5 l -0.28,7.1 -0.82,6.73 -1.36,6.31 -1.89,5.85 -2.41,5.32 -2.91,4.77 -3.38,4.18 -3.83,3.55 -4.26,2.91 -70.07,40.45 -4.64,2.23 -4.99,1.54 -5.31,0.85 -5.59,0.13 -5.81,-0.58 -6.01,-1.28 -6.14,-1.97 -6.25,-2.66 -6.29,-3.31 -4.33,-2.5 -5.91,-3.71 -5.87,-4.28 -5.78,-4.82 -5.64,-5.31 -5.47,-5.78 -5.25,-6.18 -4.99,-6.55 -4.69,-6.87 -4.37,-7.14 -4,-7.35 -3.6,-7.5 -3.18,-7.6 -2.73,-7.64 -2.26,-7.62 -1.78,-7.54 -1.29,-7.42 -0.77,-7.22 -0.26,-6.97 v -5 l 0.28,-7.11 0.82,-6.73 1.36,-6.31 1.9,-5.84 2.41,-5.33 2.9,-4.77 3.39,-4.18 3.83,-3.55 4.23,-2.89 5.04,-2.92 65.05,-37.55 4.64,-2.23 5,-1.54 5.31,-0.84 5.58,-0.14 4.43,0.44 1.39,0.14 6,1.28 6.15,1.98 6.24,2.65 6.29,3.32 4.35,2.51 5.89,3.7 5.87,4.28 0.99,0.82 m 202.31,6.37 0.87,-1.3 0.96,-1.77 0.83,-1.91 0.7,-2.05 0.56,-2.19 0.43,-2.3 0.28,-2.41 0.13,-2.52 -0.02,-2.62 -0.17,-2.7 -0.45,-3.49 m 16.97,-2.04 -0.03,-3.82 -0.3,-3.97 -0.59,-4.08 -0.86,-4.17 -1.13,-4.23 -1.4,-4.26 -1.64,-4.25 -1.89,-4.21 -2.11,-4.14 -2.32,-4.05 -2.51,-3.92 -2.68,-3.76 -2.84,-3.57 -2.98,-3.36 -3.08,-3.13 -3.17,-2.87 -3.2,-2.55 -3.32,-2.32 -3.3,-1.97 m -0.48,108.33 0.2,-0.09 m -12.69,7.37 -0.36,0.17 m 22.63,-36.72 -0.65,-3.68 -0.68,-2.94 -0.81,-2.99 -0.96,-3 -1.07,-3.01 -1.22,-3.04 -1.34,-3.01 -1.46,-2.99 -1.59,-2.95 -1.7,-2.91 -1.81,-2.84 -1.93,-2.78 -2.02,-2.69 -2.12,-2.61 -2.2,-2.5 -2.28,-2.4 -2.33,-2.29 -2.4,-2.16 -3.74,-3.03 m -6.74,-24.64 1.82,-0.43 1.64,-0.26 1.69,-0.15 1.74,-0.04 1.76,0.07 1.8,0.16 1.83,0.28 3.7,0.86 3.84,1.29 3.78,1.67 3.81,2.08 1.9,1.19 3.75,2.67 3.68,3.03 3.57,3.37 3.45,3.64 3.29,3.89 3.1,4.11 2.89,4.27 2.65,4.39 2.39,4.49 2.1,4.54 1.78,4.56 1.43,4.51 1.11,4.46 0.76,4.36 0.44,4.21 0.1,4.04 -0.22,3.83 -0.55,3.57 -0.39,1.67 -0.47,1.61 -0.56,1.52 -0.63,1.43 -0.71,1.35 -0.78,1.24 -0.87,1.15 -0.94,1.04 -1.01,0.95 -1.48,1.08 m -61.62,-89.92 0.17,-0.1 m -2.1,1.21 1.42,-0.7 1.48,-0.6 1.55,-0.5 1.59,-0.38 1.64,-0.28 1.69,-0.16 1.72,-0.06 1.76,0.04 1.79,0.15 1.83,0.25 3.71,0.83 3.78,1.24 3.81,1.64 3.81,2.05 3.79,2.45 3.72,2.84 3.64,3.18 3.52,3.48 3.39,3.76 3.21,3.98 3.03,4.2 2.79,4.3 2.54,4.44 2.27,4.51 1.96,4.54 1.63,4.55 1.3,4.5 0.97,4.42 0.63,4.3 0.19,2.1 0.14,4.06 -0.19,3.84 -0.51,3.6 -0.38,1.69 -0.46,1.61 -0.54,1.54 -0.62,1.45 -0.7,1.35 -0.78,1.26 -0.85,1.16 -0.94,1.06 -1,0.96 -1.08,0.85 -1.15,0.75 m -60.5,-60.56 2.51,2.07 2.39,2.16 2.34,2.28 2.28,2.41 2.22,2.5 2.14,2.61 2.06,2.7 1.96,2.76 1.87,2.84 1.76,2.9 1.64,2.92 1.52,2.97 1.39,2.99 1.25,3 1.1,3 0.97,2.99 0.82,2.98 0.69,2.97 0.53,2.86 0.28,1.96 m -34.73,43.28 -0.48,0.29 m 29.11,-113.03 1.95,1.5 2.41,2.03 2.37,2.18 2.31,2.31 2.24,2.44 2.15,2.54 2.07,2.65 1.99,2.74 1.89,2.82 1.8,2.88 1.68,2.94 1.58,2.98 1.46,3 1.34,3.02 1.21,3.02 1.07,3.02 0.95,2.99 0.79,2.96 0.64,2.91 0.37,2.15 -0.06,-2.54 -0.19,-2.19 -0.3,-2.23 -0.41,-2.3 -0.54,-2.34 -0.64,-2.36 -0.77,-2.38 -0.89,-2.4 -1,-2.4 -2.33,-4.78 -2.73,-4.69 -1.5,-2.29 -1.58,-2.24 -1.66,-2.18 -3.5,-4.15 -1.84,-1.95 -1.89,-1.86 -1.93,-1.75 -1.97,-1.64 -2,-1.52 -2.02,-1.39 -2.52,-1.5 -3.01,-2.15 -2.52,-1.59 -2.53,-1.44 -2.53,-1.28 -2.53,-1.11 -2.51,-0.93 -2.49,-0.76 -2.44,-0.57 -2.41,-0.38 -2.36,-0.19 h -2.28 l -2.21,0.22 -1.7,0.33 m -6.27,2.53 -0.12,0.08 m -0.63,0.35 1.91,-0.89 2.01,-0.7 2.09,-0.49 2.19,-0.28 2.26,-0.08 2.33,0.11 2.34,0.31 1.9,0.38 3.06,0.81 2.5,0.86 2.52,1.04 2.54,1.21 2.53,1.37 2.52,1.54 2.52,1.7 2.46,1.82 2.43,1.99 2.39,2.12 2.32,2.26 2.27,2.39 2.18,2.51 2.11,2.62 2.02,2.71 1.93,2.79 1.84,2.86 1.72,2.92 1.63,2.96 1.5,3 1.39,3.01 1.26,3.02 1.14,3.02 0.99,3 0.85,2.97 0.7,2.93 0.54,2.88 0.39,2.8 0.22,2.74 0.08,2.65 -0.08,2.56 -0.22,2.46 -0.37,2.34 -0.5,2.24 -0.65,2.1 -0.78,1.97 -0.9,1.83 -1.04,1.68 -1.16,1.51 -1.27,1.34 -1.4,1.17 -1.51,0.99 m -58.64,32.2 1.19,-1.72 0.96,-1.76 0.8,-1.92 0.66,-2.07 0.5,-2.22 0.36,-2.34 0.2,-2.47 0.06,-2.57 -0.08,-2.67 -0.23,-2.75 -0.21,-1.6 m -5.83,-69.41 2.33,1.85 2.42,2.11 2.34,2.23 2.28,2.36 2.22,2.48 2.13,2.59 2.06,2.68 1.97,2.77 1.87,2.84 1.78,2.9 1.66,2.94 1.56,2.99 1.43,3 1.31,3.01 1.17,3.02 1.05,3.05 0.88,2.93 0.74,2.93 0.58,2.89 0.25,1.61 m -37.49,-78.19 1.13,-0.25 2.23,-0.31 2.26,-0.1 2.32,0.09 2.38,0.29 2.42,0.49 2.46,0.7 2.49,0.89 2.52,1.07 2.52,1.26 2.52,1.43 2.52,1.59 3.67,2.65 2.04,1.21 2.05,1.35 2.01,1.46 1.99,1.58 1.94,1.7 1.9,1.8 1.85,1.91 1.78,2.01 1.72,2.09 1.66,2.16 1.57,2.24 1.52,2.3 2.73,4.69 2.38,4.8 1.05,2.42 1.76,4.81 0.7,2.38 0.59,2.34 0.47,2.33 0.33,2.22 0.21,2.18 0.09,2.12 -0.03,1.72 0.28,2.04 0.25,2.75 0.09,2.66 -0.06,2.56 -0.22,2.45 -0.37,2.32 -0.53,2.2 -0.67,2.05 -0.82,1.92 -0.97,1.8 -1.25,1.81 m -66.38,-85.35 0.12,-0.08 m 59.68,90.79 1.49,-1.03 1.39,-1.19 1.28,-1.37 1.15,-1.52 1.04,-1.68 0.9,-1.83 0.76,-1.97 0.62,-2.11 0.48,-2.24 0.32,-2.37 0.16,-2.49 v -2.6 l -0.15,-2.69 -0.3,-2.79 -0.45,-2.84 -0.59,-2.92 -0.74,-2.95 -0.87,-3 -1.01,-3.01 -1.14,-3.03 -1.26,-3.02 -1.39,-3.01 -1.51,-2.98 -1.63,-2.94 -1.74,-2.88 -1.85,-2.82 -1.97,-2.75 -2.05,-2.66 -2.16,-2.56 -2.22,-2.47 -2.3,-2.35 -2.36,-2.24 -2.41,-2.11 -2.45,-1.98 -2.49,-1.84 -2.5,-1.67 -2.53,-1.55 -2.53,-1.36 -2.52,-1.19 -2.51,-1.01 -2.48,-0.82 -2.64,-0.65 -2.22,-0.39 -2.35,-0.21 -2.3,-0.02 -2.23,0.17 -2.17,0.37 -2.08,0.55 -2,0.74 -1.91,0.92 m -0.34,29.39 2.56,1.5 2.03,1.37 2,1.5 1.97,1.62 1.92,1.74 1.88,1.85 1.83,1.95 3.48,4.15 3.2,4.44 1.49,2.3 1.4,2.34 1.31,2.38 2.34,4.8 1.91,4.81 0.79,2.4 0.67,2.36 0.53,2.32 0.42,2.28 0.29,2.23 0.17,2.17 0.01,2.72 m -35.68,44.94 0.31,-0.15 m 57.55,-34.84 1.41,-2.13 0.89,-1.83 0.74,-1.98 0.6,-2.11 0.47,-2.27 0.31,-2.39 0.18,-2.5 0.03,-2.6 -0.11,-2.69 -0.38,-3.64 v -2.57 l -0.15,-2.16 -0.27,-2.22 -0.39,-2.28 -0.5,-2.33 -0.62,-2.37 -0.72,-2.39 -1.78,-4.83 -1.04,-2.42 -2.38,-4.79 -2.77,-4.66 -1.49,-2.22 -1.63,-2.23 -1.68,-2.12 -1.76,-2.05 -1.81,-1.97 -3.81,-3.67 -1.96,-1.68 -2,-1.58 -2.03,-1.46 -2.93,-1.87 -2.38,-1.8 -2.44,-1.68 -2.56,-1.56 -2.51,-1.35 -2.98,-1.35 -2.03,-0.8 -2.49,-0.8 -2.47,-0.62 -2.42,-0.44 -2.38,-0.25 -2.32,-0.07 -2.27,0.12 -2.89,0.46 m -6.01,125.95 0.6,-0.83 1.01,-1.71 0.88,-1.86 0.75,-2 0.61,-2.13 0.47,-2.21 0.36,-2.79 0.15,-2.11 0.03,-2.58 -0.14,-2.64 -0.29,-2.81 -0.23,-1.46 m 55.21,-7.53 1.48,-1.03 1.38,-1.21 1.25,-1.37 1.13,-1.55 0.98,-1.72 0.84,-1.87 0.69,-2.04 0.55,-2.18 0.4,-2.31 0.26,-2.43 0.12,-2.54 -0.03,-2.63 -0.17,-2.73 -0.31,-2.79 -0.46,-2.87 -0.59,-2.91 -0.74,-2.95 -0.88,-2.98 -1.02,-3 -1.16,-3 -1.29,-3.01 -1.44,-2.98 -1.54,-2.92 -1.71,-2.95 -1.8,-2.87 -1.9,-2.81 -2.01,-2.74 -2.09,-2.65 -2.17,-2.57 -2.24,-2.47 -2.31,-2.36 -2.36,-2.23 -2.41,-2.1 -2.44,-1.97 -2.48,-1.8 -2.5,-1.64 -2.51,-1.47 -2.51,-1.29 -2.51,-1.1 -2.5,-0.91 -2.47,-0.73 -2.45,-0.55 -2.4,-0.36 -2.37,-0.18 -2.68,0.04 -1.9,0.16 -2.12,0.37 -2.09,0.56 -1.99,0.74 -1.89,0.92 m 54.56,92.3 0.55,-0.78 0.99,-1.73 0.86,-1.88 0.72,-2.03 0.59,-2.16 0.45,-2.27 0.31,-2.4 0.17,-2.51 0.03,-2.59 -0.13,-2.69 -0.45,-3.98 -0.05,-2.15 -0.16,-2.18 -0.28,-2.23 -0.4,-2.29 -0.5,-2.33 -0.62,-2.36 -0.73,-2.39 -0.85,-2.39 -0.95,-2.41 -1.07,-2.39 -1.19,-2.39 -1.28,-2.36 -2.85,-4.63 -3.2,-4.44 -3.48,-4.18 -1.83,-1.97 -3.81,-3.66 -1.96,-1.68 -2,-1.56 -2.02,-1.44 -2.8,-1.75 -2.57,-1.85 -2.5,-1.63 -2.53,-1.47 -2.52,-1.31 -2.53,-1.14 -2.52,-0.97 -2.5,-0.79 -2.46,-0.61 -2.42,-0.44 -2.38,-0.24 -2.31,-0.06 -2.25,0.14 -2.34,0.39 m -7.31,32.87 2.79,2.27 2.37,2.13 2.33,2.29 2.26,2.4 2.2,2.52 2.12,2.62 2.07,2.76 1.93,2.74 1.85,2.85 1.75,2.91 1.65,2.95 1.52,2.98 1.4,3 1.27,3.01 1.13,3 0.98,2.99 0.83,2.96 0.68,2.92 0.65,3.81 m 27.83,8.25 1.56,-0.91 1.43,-1.09 1.31,-1.29 1.19,-1.46 1.04,-1.6 0.96,-1.83 0.8,-1.93 0.67,-2.08 0.53,-2.21 0.4,-2.33 0.25,-2.44 0.12,-2.54 -0.03,-2.64 -0.19,-2.71 -0.32,-2.79 -0.49,-2.85 -0.64,-2.91 -0.79,-2.96 -0.94,-2.98 -1.09,-3 -1.23,-3.02 -1.36,-3.01 -1.48,-2.99 -1.6,-2.97 -1.71,-2.93 -1.81,-2.88 -1.92,-2.81 -2,-2.74 -2.09,-2.65 -2.17,-2.55 -2.24,-2.44 -2.31,-2.31 -2.36,-2.18 -2.41,-2.04 -2.46,-1.88 -2.49,-1.73 -2.51,-1.56 -2.52,-1.41 -2.53,-1.24 -2.53,-1.07 -2.51,-0.9 -2.43,-0.71 -2.5,-0.55 -2.4,-0.36 -2.36,-0.17 -2.29,0.02 -2.22,0.21 -2.16,0.42 -2.07,0.63 -1.97,0.83 -1.86,1.04 m 54.93,92.09 0.93,-1.32 0.99,-1.75 0.84,-1.87 0.73,-2.04 0.57,-2.16 0.43,-2.28 0.28,-2.4 0.13,-2.52 -0.04,-2.62 -0.2,-2.72 -0.35,-2.8 -0.5,-2.87 -0.65,-2.92 -0.79,-2.97 -0.92,-3 -1.06,-3.02 -1.19,-3.03 -1.31,-3.02 -1.44,-3.01 -1.55,-2.97 -1.68,-2.93 -1.76,-2.86 -1.9,-2.82 -1.98,-2.73 -2.08,-2.63 -2.17,-2.53 -2.25,-2.42 -2.31,-2.32 -2.38,-2.18 -2.43,-2.06 -2.46,-1.92 -2.5,-1.78 -2.51,-1.62 -2.54,-1.47 -2.53,-1.31 -2.52,-1.13 -2.51,-0.95 -2.47,-0.76 -2.45,-0.57 -2.41,-0.37 -2.32,-0.17 -2.27,0.04 -2.21,0.24 -1.76,0.36 m -6.63,2.74 0.37,-0.25 m 58.74,91.42 1.52,-0.99 1.41,-1.16 1.3,-1.34 1.18,-1.49 1.06,-1.65 0.93,-1.8 0.8,-1.94 0.66,-2.08 0.52,-2.21 0.38,-2.33 0.22,-2.44 0.07,-2.56 -0.1,-2.66 -0.25,-2.74 -0.41,-2.83 -0.56,-2.89 -0.69,-2.92 -0.85,-3 -0.98,-3.01 -1.11,-3.03 -1.24,-3.03 -1.36,-3.01 -1.49,-3 -1.6,-2.96 -1.71,-2.91 -1.82,-2.85 -1.92,-2.78 -2.02,-2.69 -2.12,-2.6 -2.2,-2.49 -2.27,-2.38 -2.34,-2.26 -2.39,-2.14 -2.45,-2 -2.44,-1.84 -1.91,-1.31 -3.15,-2 -2.54,-1.4 -2.53,-1.24 -2.51,-1.06 -2.5,-0.88 -2.47,-0.7 -2.42,-0.49 -2.38,-0.3 -2.32,-0.09 -2.25,0.11 -2.17,0.31 -2.11,0.51 -2.01,0.7 -1.93,0.87 -1.82,1.06 m 27.5,13.67 3.44,2.84 2.39,2.19 2.32,2.31 2.28,2.42 2.19,2.53 2.13,2.62 2.03,2.71 1.94,2.78 1.83,2.84 1.72,2.9 1.6,2.94 1.46,2.98 1.34,3 1.19,3.01 1.07,3.01 0.93,2.99 0.79,2.97 0.65,2.94 0.67,4.11 0.04,-2.08 -0.11,-2.12 -0.22,-2.2 -0.35,-2.22 -0.48,-2.35 -0.59,-2.35 -1.52,-4.8 -1.94,-4.84 -2.34,-4.81 -1.32,-2.36 -2.89,-4.61 -1.58,-2.22 -1.64,-2.16 -1.73,-2.07 -1.79,-1.99 -1.86,-1.9 -1.91,-1.81 -1.95,-1.7 -2,-1.6 -1.98,-1.47 -2.08,-1.38 -1.73,-1.05 -1.45,-1.13 -2.49,-1.75 -2.5,-1.6 -2.52,-1.42 -2.51,-1.25 -2.5,-1.04 -2.49,-0.86 -2.46,-0.67 -2.43,-0.48 -2.39,-0.29 -2.33,-0.11 -2.28,0.08 -2.21,0.26 -1.29,0.27 m -5.95,125.88 1.24,-1.94 0.92,-1.85 0.77,-1.97 0.64,-2.11 0.51,-2.23 0.36,-2.35 0.22,-2.46 0.08,-2.56 -0.08,-2.65 -0.24,-2.74 -0.33,-2.46 m -5.79,-67.92 1.84,1.46 2.43,2.09 2.37,2.21 2.32,2.33 2.25,2.45 2.18,2.54 2.09,2.64 2.01,2.72 1.9,2.79 1.79,2.86 1.67,2.92 1.54,2.96 1.43,2.99 1.29,3.01 1.17,3.02 1.03,3.01 0.9,3 0.77,2.97 0.62,2.92 0.49,2.91 m -33.71,-82.31 1.82,-1.06 1.92,-0.88 2.02,-0.7 2.1,-0.52 2.18,-0.34 2.25,-0.16 2.32,0.03 2.36,0.22 2.42,0.41 2.44,0.6 2.48,0.79 2.5,0.98 2.51,1.17 2.3,1.24 2.73,1.65 2.5,1.7 2.47,1.86 2.45,2 2.4,2.13 2.27,2.19 2.38,2.46 2.22,2.48 2.16,2.59 2.07,2.67 1.97,2.75 1.87,2.82 1.76,2.88 1.64,2.93 1.52,2.96 1.38,2.99 1.25,3.01 1.12,3.01 0.98,3.01 0.85,2.98 0.7,2.95 0.57,2.91 0.43,2.85 0.28,2.78 0.15,2.7 -0.01,2.61 -0.15,2.51 -0.3,2.39 -0.45,2.26 -0.6,2.13 -0.75,1.97 -0.9,1.82 -1.03,1.66 -1.17,1.5 -1.29,1.33 -1.41,1.17 -1.52,0.99 m -66.1,-86.03 0.79,-0.18 2.2,-0.28 2.26,-0.08 2.34,0.1 2.39,0.29 2.44,0.47 2.47,0.65 2.49,0.82 2.52,1 2.52,1.18 2.53,1.34 2.51,1.52 2.49,1.67 2.11,1.58 3.14,2.01 2.01,1.48 1.99,1.59 1.96,1.71 1.92,1.8 1.88,1.9 1.81,1.99 1.76,2.06 3.31,4.35 1.53,2.24 1.44,2.3 1.35,2.34 1.24,2.38 1.14,2.39 1.03,2.41 0.92,2.4 1.53,4.79 0.59,2.36 0.48,2.33 0.38,2.28 0.25,2.22 0.14,2.16 -0.02,1.62 0.26,1.9 0.23,2.73 0.09,2.67 -0.06,2.59 -0.2,2.48 -0.34,2.37 -0.48,2.26 -0.61,2.13 -0.76,1.99 -0.81,1.69 -1.32,2.12 m -67.79,-84.78 1.93,-0.96 2.04,-0.76 2.08,-0.55 2.17,-0.35 2.24,-0.16 2.31,0.03 2.37,0.21 2.42,0.4 2.46,0.57 2.49,0.76 2.5,0.94 2.53,1.1 2.52,1.28 2.52,1.45 2.5,1.61 2.47,1.79 2.44,1.94 2.39,2.09 2.35,2.23 2.3,2.36 2.22,2.48 2.16,2.58 2.07,2.69 1.99,2.75 1.89,2.82 1.8,2.89 1.69,2.94 1.57,2.96 1.45,2.99 1.31,3.01 1.18,3 1.04,3 0.88,2.97 0.74,2.98 0.58,2.85 0.44,2.86 0.29,2.76 0.14,2.71 v 2.62 l -0.14,2.52 -0.29,2.42 -0.42,2.31 -0.56,2.18 -0.7,2.04 -0.83,1.9 -0.97,1.74 -1.1,1.57 -1.23,1.4 -1.36,1.21 -1.49,1.03 m -60.68,-60.63 3.37,2.8 2.37,2.2 2.32,2.32 2.25,2.44 2.19,2.54 2.11,2.65 2.02,2.72 1.94,2.8 1.83,2.87 1.72,2.9 1.61,2.96 1.51,3.02 1.33,2.95 1.22,3.01 1.07,2.99 0.92,2.98 0.78,2.96 0.63,2.91 0.59,3.7 m -6.08,-69.21 3.18,1.93 2.02,1.42 1.99,1.54 1.95,1.67 1.92,1.79 1.87,1.88 3.57,4.04 1.7,2.14 1.62,2.21 3.02,4.57 1.39,2.34 2.48,4.77 2.06,4.81 0.86,2.39 0.74,2.38 0.61,2.35 0.5,2.31 0.37,2.28 0.26,2.22 0.14,2.16 0.03,2.02 -0.82,-4.26 -0.76,-2.97 -0.89,-2.99 -1.03,-3.02 -1.17,-3.02 -1.29,-3.03 -1.41,-3.01 -1.53,-2.99 -1.65,-2.94 -1.75,-2.9 -1.86,-2.84 -1.95,-2.76 -2.05,-2.67 -2.13,-2.57 -2.22,-2.46 -2.29,-2.34 -2.35,-2.22 -2.41,-2.09 -2.45,-1.94 -2.49,-1.81 -2.52,-1.65 -2.53,-1.51 -2.53,-1.33 -2.53,-1.18 -2.51,-0.99 -2.5,-0.82 -2.46,-0.64 -2.41,-0.44 -2.36,-0.24 -2.31,-0.04 -2.23,0.16 -2.39,0.44 m 3.08,122.37 -1.13,-6.52 -1.78,-7.55 -1.94,-6.51 m -4.27,-99.36 0.34,-0.22 m -2.57,1.48 1.85,-1.02 1.94,-0.83 2.04,-0.64 2.12,-0.45 2.2,-0.23 2.28,-0.04 2.34,0.17 2.4,0.37 2.45,0.56 2.48,0.75 2.51,0.93 2.52,1.1 2.54,1.28 2.53,1.43 2.52,1.6 2.5,1.74 2.46,1.89 2.43,2.04 2.37,2.16 2.32,2.3 2.24,2.41 2.17,2.54 2.08,2.64 1.93,2.65 1.95,2.89 1.8,2.88 1.71,2.97 1.55,2.93 1.47,3 1.34,3.03 1.21,3.02 1.09,3.02 0.95,3 0.8,2.97 0.66,2.92 0.51,2.86 0.35,2.79 0.19,2.71 0.03,2.62 -0.12,2.53 -0.28,2.41 -0.41,2.31 -0.56,2.18 -0.71,2.09 -0.82,1.91 -0.95,1.74 -1.08,1.62 -1.21,1.46 -1.31,1.29 -1.44,1.12 -1.54,0.93 m -5.7,1.65 0.95,-1.31 1,-1.72 0.85,-1.86 0.72,-2.02 0.56,-2.15 0.41,-2.3 0.25,-2.38 0.11,-2.58 -0.05,-2.64 -0.2,-2.73 -0.33,-2.77 -0.01,-3.26 -0.18,-2.16 -0.31,-2.24 -0.43,-2.29 -0.56,-2.34 -0.67,-2.37 -1.69,-4.81 -2.1,-4.84 -1.21,-2.4 -1.29,-2.37 -2.86,-4.66 -1.55,-2.24 -3.32,-4.29 -1.77,-2.03 -1.83,-1.93 -1.89,-1.83 -1.94,-1.73 -1.97,-1.62 -2.02,-1.51 -2.03,-1.39 -2.46,-1.49 -3.11,-2.29 -2.51,-1.64 -2.51,-1.49 -2.52,-1.3 -2.51,-1.13 -2.47,-0.92 -2.49,-0.75 -2.44,-0.54 -2.38,-0.34 -2.38,-0.16 -2.27,0.04 -2.21,0.23 -1.9,0.36 m -6.19,2.37 -0.55,0.35 m -1.03,29.86 2.65,2.13 2.41,2.11 2.36,2.23 2.3,2.35 2.23,2.47 2.16,2.56 2.05,2.66 1.92,2.67 1.9,2.89 1.75,2.89 1.63,2.94 1.51,2.98 1.4,3 1.26,3.02 1.14,3.03 1.01,3.02 0.87,2.99 0.74,3 0.59,2.87 0.29,1.83 m 28.02,7.57 1.54,-0.96 1.43,-1.14 1.32,-1.3 1.19,-1.44 1.09,-1.64 0.94,-1.77 0.81,-1.93 0.66,-2.07 0.51,-2.2 0.35,-2.34 0.2,-2.43 0.04,-2.61 -0.1,-2.68 -0.25,-2.76 -0.4,-2.83 -0.54,-2.89 -0.68,-2.95 -0.82,-2.98 -0.96,-3.01 -1.08,-3.02 -1.22,-3.02 -1.34,-3 -1.47,-2.99 -1.59,-2.94 -1.72,-2.9 -1.83,-2.83 -1.94,-2.77 -2.04,-2.69 -2.12,-2.6 -2.21,-2.5 -2.28,-2.4 -2.34,-2.29 -2.39,-2.16 -2.45,-2.03 -2.47,-1.89 -2.5,-1.75 -2.51,-1.58 -2.52,-1.42 -2.52,-1.24 -2.51,-1.06 -2.49,-0.87 -2.45,-0.66 -2.42,-0.47 -2.38,-0.27 -2.32,-0.08 -2.26,0.12 -2.19,0.3 -2.13,0.49 -2.03,0.66 -1.94,0.85 -1.85,1.02 m 20.04,90.08 -0.44,-2.75 -0.6,-2.91 -0.74,-2.96 -0.88,-2.98 -1.02,-3 -1.16,-3 -1.3,-3 -1.44,-2.98 -1.57,-2.96 -1.68,-2.91 -1.81,-2.87 -1.9,-2.81 -2.01,-2.74 -2.09,-2.65 -2.18,-2.57 -2.24,-2.47 -0.67,-0.64 m -0.76,-40.2 1.4,-0.28 2.22,-0.22 2.29,-0.05 2.35,0.14 2.4,0.32 2.45,0.5 2.47,0.69 2.5,0.86 2.51,1.05 2.52,1.22 2.51,1.39 2.5,1.57 2.49,1.74 1.49,1.16 1.61,0.99 2.04,1.39 2.02,1.51 1.99,1.62 1.95,1.73 1.91,1.82 3.66,3.91 3.4,4.23 1.59,2.21 1.49,2.27 1.41,2.32 1.3,2.35 1.22,2.39 2.11,4.82 0.91,2.46 1.47,4.74 1.03,4.67 0.34,2.27 0.23,2.21 0.11,2.14 -0.01,1.67 0.25,1.98 0.2,2.74 0.06,2.65 -0.09,2.57 -0.22,2.46 -0.37,2.35 -0.41,1.77 -0.75,2.55 -0.79,1.94 -0.92,1.78 -1,1.52 m -66.15,-85.77 -0.05,0.03 m 59.32,91.27 1.53,-0.98 1.4,-1.14 1.28,-1.33 1.16,-1.5 1.01,-1.68 0.88,-1.85 0.73,-1.99 0.6,-2.14 0.45,-2.27 0.31,-2.4 0.17,-2.5 0.03,-2.61 -0.12,-2.69 -0.26,-2.77 -0.39,-2.83 -0.55,-2.89 -0.69,-2.94 -0.83,-2.96 -0.98,-2.99 -1.12,-3 -1.27,-3 -1.4,-2.99 -1.54,-2.97 -1.65,-2.94 -1.77,-2.89 -1.87,-2.83 -1.97,-2.78 -2.06,-2.69 -2.14,-2.61 -2.22,-2.5 -2.27,-2.4 -2.35,-2.27 -2.38,-2.15 -2.43,-2 -2.47,-1.85 -2.49,-1.68 -2.51,-1.5 -2.51,-1.33 -2.52,-1.16 -2.5,-0.97 -2.49,-0.79 -2.47,-0.62 -2.42,-0.43 -2.38,-0.24 -2.33,-0.07 -2.26,0.12 -2.19,0.3 -2.11,0.49 -2.02,0.68 -1.93,0.87 -1.89,1.11 m -3.85,3.36 0.83,-0.19 2.18,-0.29 2.26,-0.09 2.33,0.11 2.39,0.31 2.44,0.5 2.47,0.68 2.5,0.86 2.56,1.06 2.5,1.18 2.53,1.37 2.52,1.53 2.51,1.69 1.46,1.08 1.75,1.03 2.03,1.33 2,1.48 1.99,1.59 1.94,1.71 1.91,1.82 3.67,3.92 3.43,4.23 1.63,2.23 2.96,4.57 2.62,4.72 1.15,2.39 1.05,2.4 0.93,2.4 0.81,2.39 0.69,2.37 0.58,2.35 0.47,2.31 0.34,2.27 0.24,2.25 0.12,3.28 -0.6,-3.22 -0.7,-2.94 -0.85,-2.97 -1,-3 -1.12,-2.98 -1.27,-3.06 -1.39,-3.01 -1.52,-3 -1.62,-2.96 -1.73,-2.92 -1.84,-2.85 -1.93,-2.79 -2.02,-2.71 -2.11,-2.62 -2.19,-2.5 -2.22,-2.35 -2.37,-2.3 -2.39,-2.13 -3.44,-2.73 m 21.83,83.84 1.47,-1.06 1.34,-1.24 1.23,-1.41 1.11,-1.58 0.98,-1.74 0.86,-1.89 0.72,-2.03 0.59,-2.16 0.44,-2.28 0.31,-2.4 0.17,-2.5 0.01,-2.59 -0.13,-2.69 -0.29,-2.76 -0.44,-2.84 -0.61,-2.9 -0.75,-2.94 -0.91,-2.98 -1.05,-3.01 -1.18,-3.02 -1.32,-3.02 -1.44,-3.01 -1.53,-2.94 -1.69,-2.99 -1.78,-2.89 -1.87,-2.84 -1.97,-2.76 -2.06,-2.67 -2.14,-2.58 -2.22,-2.46 -2.28,-2.35 -2.35,-2.21 -2.41,-2.07 -2.45,-1.93 -2.48,-1.77 -2.51,-1.63 -2.53,-1.47 -2.53,-1.3 -2.53,-1.14 -2.51,-0.96 -2.5,-0.79 -2.46,-0.61 -2.42,-0.42 -2.37,-0.24 -2.3,-0.04 -2.22,0.16 -2.13,0.36 -2.05,0.55 -1.95,0.76 -1.84,0.93 m 18.47,25.46 3.91,5.13 4.7,6.87 4.36,7.13 4,7.35 3.6,7.5 3.18,7.6 2.73,7.64 0.33,1.11 -0.04,-3.2 -0.19,-2.18 -0.32,-2.25 -0.43,-2.3 -0.56,-2.34 -0.65,-2.38 -0.78,-2.4 -0.88,-2.42 -0.98,-2.42 -2.27,-4.81 -2.65,-4.71 -1.47,-2.29 -1.55,-2.24 -1.63,-2.17 -1.71,-2.09 -1.78,-2.02 -1.85,-1.93 -1.89,-1.84 -1.94,-1.75 -3.24,-2.59 -1.08,-1.43 -5.25,-6.18 -5.47,-5.77 -5.64,-5.32 -2.33,-1.94 m 55.37,87.78 0.66,-0.87 1,-1.64 0.93,-1.87 0.76,-1.98 0.62,-2.11 0.47,-2.24 0.32,-2.38 0.15,-2.49 0.01,-2.6 -0.16,-2.69 -0.47,-3.81 0.02,-2.46 -0.14,-2.15 -0.26,-2.21 -0.38,-2.26 -0.51,-2.32 -0.64,-2.36 -0.75,-2.38 -0.87,-2.41 -0.98,-2.41 -2.26,-4.82 -2.65,-4.74 -1.46,-2.32 -1.53,-2.26 -3.29,-4.35 -1.75,-2.06 -1.81,-1.97 -1.86,-1.87 -1.92,-1.77 -1.96,-1.65 -2,-1.53 -2.02,-1.42 -3.15,-1.92 -2.29,-1.68 -2.51,-1.69 -2.52,-1.52 -2.53,-1.36 -2.51,-1.19 -2.52,-1.01 -2.48,-0.81 -2.45,-0.62 -2.4,-0.42 -2.36,-0.21 -2.29,-0.01 -1.74,0.14 m -1.35,-1.13 2.46,2.05 2.49,0.13 2.39,0.34 2.43,0.55 2.48,0.74 2.49,0.94 2.52,1.12 2.53,1.3 2.53,1.46 2.51,1.62 2.5,1.78 2.47,1.92 2.43,2.05 2.38,2.19 2.32,2.31 2.26,2.41 2.18,2.53 2.09,2.62 2.01,2.71 1.89,2.8 1.79,2.86 1.67,2.93 1.56,2.96 1.43,3 1.32,3.02 1.2,3.03 1.05,3.02 0.94,3 0.78,2.97 0.66,2.94 0.51,2.87 0.36,2.81 0.21,2.73 0.06,2.64 -0.1,2.53 -0.27,2.41 -0.41,2.29 -0.57,2.17 -0.72,2.07 -0.83,1.85 -0.98,1.74 -1.1,1.59 -1.23,1.43 -0.87,0.82 m 1.25,20.44 -0.28,-7.43 -0.82,-7.68 -1.36,-7.88 -1.89,-8.03 -2.41,-8.11 -2.91,-8.12 -3.38,-8.09 -3.83,-7.98 -4.26,-7.81 -4.64,-7.6 -4.99,-7.3 -5.31,-6.98 -5.59,-6.58 -5.24,-5.53 -6.58,-6.26 -6.15,-5.12 -6.28,-4.58 -6.25,-3.92 m -57.99,100.8 v -4.45 m -16.41,-13.8 -1.1,-0.55 1.1,0.55 3.3,2.07 3.28,2.39 3.23,2.69 3.15,2.96 2.43,2.57 3.55,4.11 2.79,3.66 2.62,3.84 2.44,3.98 2.23,4.1 2.01,4.19 1.78,4.24 1.52,4.27 1.27,4.25 0.99,4.22 0.72,4.14 0.43,4.03 0.03,1 m -70.57,-59.79 1.77,-2.19 2.02,-1.86 2.23,-1.53 2.44,-1.17 2.62,-0.81 2.78,-0.44 2.93,-0.07 3.06,0.3 3.15,0.67 3.22,1.04 3.28,1.39 2.2,1.2 -1.09,-0.39 -1.24,-0.31 -1.34,-0.22 -1.46,-0.13 h -3.27 l -3.81,0.34 -4.45,0.69 -5.25,1.07 -9.79,2.42 m 32.8,84.55 -1.04,-3.59 -1.15,-3.34 -1.24,-3.13 -1.34,-2.94 -1.46,-2.77 -1.57,-2.63 -1.7,-2.52 -1.83,-2.41 -1.98,-2.33 -2.13,-2.26 -2.32,-2.2 -2.51,-2.16 -2.74,-2.14 -2.98,-2.12 -3.25,-2.13 -3.56,-2.14 m 70.28,19.18 0.29,-3.13 0.11,2.89 -0.14,3.73 -0.43,3.54 -0.72,3.31 -0.99,3.06 -1.27,2.8 -1.52,2.5 1.26,-3.8 1.05,-3.54 0.87,-3.31 0.69,-3.12 0.53,-2.95 0.27,-1.98 -37.48,21.63 3.3,1.74 3.28,1.4 3.23,1.03 3.15,0.67 3.05,0.31 2.93,-0.07 2.79,-0.44 2.62,-0.81 2.44,-1.17 2.23,-1.53 2.01,-1.86 1.78,-2.2 -1.05,-0.52 -1.14,-0.41 -1.24,-0.31 -1.35,-0.22 -3.02,-0.17 -3.53,0.17 -4.12,0.51 -4.83,0.87 -5.71,1.28 -6.82,1.73 -3.3,-2.07 -3.26,-2.38 -3.24,-2.7 -3.15,-2.97 -3.06,-3.22 -2.93,-3.45 -2.78,-3.66 -2.62,-3.84 -2.44,-3.98 -2.23,-4.11 -2.02,-4.18 -1.77,-4.25 -1.53,-4.26 -1.26,-4.26 -1,-4.21 -0.71,-4.14 -0.43,-4.03 -0.15,-3.89 0.15,-3.73 0.43,-3.54 0.71,-3.31 1,-3.07 1.26,-2.79 1.53,-2.51 1.26,2.35 1.05,2.32 0.88,2.34 0.68,2.29 0.54,2.36 0.37,2.36 0.22,2.43 0.07,2.5 -0.07,2.58 -0.22,2.68 -0.38,2.81 -0.53,2.95 -0.69,3.12 -0.87,3.31 -1.05,3.54 -1.26,3.8 49.21,-28.41 14.49,18.03 m -77.6,-83.44 4.64,-2.23 5,-1.54 5.31,-0.84 5.58,-0.13 5.82,0.57 6,1.29 6.15,1.97 6.24,2.66 6.29,3.31 6.29,3.95 6.25,4.55 6.14,5.12 6.01,5.66 5.81,6.14 5.59,6.58 5.31,6.97 4.5,6.59 5.13,8.31 4.26,7.82 3.83,7.98 3.32,7.93 2.97,8.28 2.41,8.1 1.89,8.03 1.37,7.9 0.82,7.67 0.27,7.42 -0.27,7.1 -0.83,6.74 -1.36,6.31 -1.89,5.84 -2.41,5.33 -3.04,4.93 -3.25,4.01 -3.71,3.44 -4.38,3.02 m -55.36,-7.55 5.92,3.11 5.86,2.5 5.78,1.85 5.64,1.21 5.47,0.54 5.25,-0.13 4.99,-0.78 4.7,-1.45 4.36,-2.1 4,-2.73 3.6,-3.34 3.18,-3.93 2.73,-4.48 2.27,-5.01 1.78,-5.49 1.28,-5.93 0.77,-6.33 0.26,-6.68 -0.26,-6.98 -0.77,-7.22 -1.28,-7.41 -1.78,-7.54 -2.27,-7.63 -2.73,-7.63 -3.18,-7.6 -3.6,-7.5 -4,-7.35 -4.36,-7.14 -4.7,-6.87 -4.99,-6.55 -5.25,-6.19 -5.47,-5.77 -5.64,-5.31 -5.78,-4.82 -5.87,-4.28 -5.91,-3.71 -5.91,-3.12 -5.87,-2.49 -5.78,-1.86 -5.64,-1.2 -5.47,-0.54 -5.25,0.12 -4.99,0.79 -4.69,1.45 -4.37,2.1 -4,2.73 -3.6,3.34 -3.18,3.93 -2.73,4.48 -2.26,5.01 -1.78,5.49 -1.29,5.93 -0.77,6.33 -0.26,6.68 m 214.45,39.04 v -7.57 l 0.16,0.14 z m -211.05,-12.32 -0.23,-1.2 0.19,0.13 z m 210.87,-0.39 -0.22,-2.02 0.16,0.15 z m -0.4,-3.97 -0.21,-2.02 0.16,0.15 z m -211.66,-0.81 -0.23,-1.18 0.18,0.13 z m -0.4,-2.39 -0.23,-1.17 0.18,0.13 z m 211.65,-0.39 -0.16,-1.02 0.25,-0.1 z m -212.05,-2 -0.22,-1.16 0.18,0.13 z m -0.4,-2.36 -0.22,-1.61 0.17,0.14 z m -0.4,-3.17 -0.22,-2.02 0.17,0.15 z m -0.4,-3.97 -0.21,-4.4 0.16,0.15 z m 231.63,-1.1 -1.19,0.18 0.23,-0.57 z m -24.03,-11.2 0.41,0.07 0.07,1.38 z m 63.34,-11.44 -1.51,0.28 0.35,-0.66 z m 38.94,-22.69 -1.11,0.35 0.34,-0.7 z m -123.24,-7.84 -0.82,-0.02 -0.02,-0.82 z m 162.54,-14.78 -1.09,0.34 0.34,-0.7 z m 23.81,-12.78 -0.67,0.43 0.4,-0.7 0.33,0.01 z m -202.28,-7.28 -1.04,0.05 1.11,-0.31 z m 12.47,-7.49 0.81,-0.39 0.21,0.2 z m 14.17,-7.6 -1.06,0.07 1.16,-0.67 z m 185.27,-8.59 v -7.17 l 0.16,0.14 z m -0.17,-10.73 -0.22,-1.6 0.17,0.14 z m -0.4,-2.8 -0.23,-1.17 0.18,0.14 z m -118.39,-16.1 -1.46,0.14 0.74,-0.7 z m 38.52,-22.54 -0.63,0.08 0.73,-0.69 z" />
  </g>
</svg>
